<svg xmlns="http://www.w3.org/2000/svg" viewBox="0 0 570.92 64.16"><defs><style>.cls-1{fill:#fff;}.cls-2{fill:none;stroke:#e2823b;stroke-miterlimit:10;stroke-width:5px;}.cls-3{fill:#ff9a48;}</style></defs><g id="레이어_2" data-name="레이어 2"><g id="Layer_1" data-name="Layer 1"><path class="cls-1" d="M135.6,39.42a4,4,0,0,1,.06,3.39,8.72,8.72,0,0,1-2.28,3A18.21,18.21,0,0,1,126,49.68a18.81,18.81,0,0,1-4.17.39,20.5,20.5,0,0,1-4.38-.54,20.76,20.76,0,0,1-4.26-1.5,18.41,18.41,0,0,1-3.81-2.43,12.27,12.27,0,0,1-3.27-4.17,21.36,21.36,0,0,1-1.71-5.19,30.56,30.56,0,0,1-.57-5.55q0-2.79.15-5.25a22.39,22.39,0,0,1,.9-4.62,23.5,23.5,0,0,1,2-4.71A22.38,22.38,0,0,1,110,11.82a17.35,17.35,0,0,1,4.29-3.36A12.31,12.31,0,0,1,118.47,7a18.3,18.3,0,0,1,4.68-.18,16.76,16.76,0,0,1,4.5,1A11.14,11.14,0,0,1,131.28,10a13.09,13.09,0,0,1,2,2.34,11,11,0,0,1,1.53,3.06,4.67,4.67,0,0,1,0,2.91,4,4,0,0,1-3.93,1.92,3.26,3.26,0,0,1-1.2-.54,6.31,6.31,0,0,1-1-.93q-.48-.54-.9-1.08a7.28,7.28,0,0,0-3.36-2.37,7.77,7.77,0,0,0-3.81-.3,8.41,8.41,0,0,0-6.09,4.71A22.58,22.58,0,0,0,113,24.21a24,24,0,0,0-.63,4.92,20.31,20.31,0,0,0,.45,4.83,11.35,11.35,0,0,0,1.77,4.14A8,8,0,0,0,117,40.44a9.37,9.37,0,0,0,3,1.26,9,9,0,0,0,3.27.12,9.67,9.67,0,0,0,3.21-1.08,6.24,6.24,0,0,0,1-.69l1.17-.93q.6-.48,1.23-.9a4.3,4.3,0,0,1,1.35-.6,3.72,3.72,0,0,1,2.37.06A3.26,3.26,0,0,1,135.6,39.42Z"/><path class="cls-1" d="M148.56,22.38A16.8,16.8,0,0,1,152.7,21a14.09,14.09,0,0,1,4.29-.18A13.88,13.88,0,0,1,161.13,22a12.88,12.88,0,0,1,3.69,2.52,13.54,13.54,0,0,1,2.4,3.33,17.89,17.89,0,0,1,1.5,3.81,13,13,0,0,1,.3,6.66,20.14,20.14,0,0,1-2.46,6.24,10.56,10.56,0,0,1-2.07,2.37,12,12,0,0,1-2.61,1.71,14.49,14.49,0,0,1-3.9,1.17,16.55,16.55,0,0,1-4.08.15,13.53,13.53,0,0,1-6.33-1.8A13.18,13.18,0,0,1,143.19,44,14.47,14.47,0,0,1,141,38.25a15.66,15.66,0,0,1,.39-6.57,15.48,15.48,0,0,1,2.79-5.85A12.47,12.47,0,0,1,148.56,22.38Zm1.8,8a5.5,5.5,0,0,0-1.38,2.1,9.71,9.71,0,0,0-.6,2.61,8.23,8.23,0,0,0,.21,2.7,7.59,7.59,0,0,0,1,2.43,4.4,4.4,0,0,0,2.16,1.5,11.2,11.2,0,0,0,3.24.72,4.68,4.68,0,0,0,3.36-1,7.53,7.53,0,0,0,2.19-2.91,8.78,8.78,0,0,0,.69-3.78A7.47,7.47,0,0,0,160.2,31a4.33,4.33,0,0,0-2-1.77,7,7,0,0,0-2.7-.6,8.37,8.37,0,0,0-2.79.42A6.16,6.16,0,0,0,150.36,30.42Z"/><path class="cls-1" d="M192.84,7.56a4.11,4.11,0,0,1,2-.09,3.24,3.24,0,0,1,1.5.81,3.88,3.88,0,0,1,1,1.5,5.71,5.71,0,0,1,.33,2q.06,3,0,4.68t0,2.94V43.2a23.69,23.69,0,0,1-.21,3.51,4.42,4.42,0,0,1-.72,2,2.74,2.74,0,0,1-1.53.93,10.75,10.75,0,0,1-2.67.27H188.4q-6.48,0-10.23-3.06t-4-9.72a14.09,14.09,0,0,1,.72-5.28,10.79,10.79,0,0,1,6.57-6.75,14.65,14.65,0,0,1,5.55-.87h3.3V11.61a8,8,0,0,1,.18-1.74,3.06,3.06,0,0,1,.72-1.41A3.32,3.32,0,0,1,192.84,7.56ZM182.4,40.86q1.26,1.74,4.56,1.92a9,9,0,0,0,1.26,0,5.63,5.63,0,0,0,1.08-.15,7.72,7.72,0,0,0,1-.18V31.38a33,33,0,0,0-3.81-.45,5,5,0,0,0-3.39,1.23A4.68,4.68,0,0,0,181.74,34a6.66,6.66,0,0,0-.54,2.34,8.3,8.3,0,0,0,.24,2.43A6,6,0,0,0,182.4,40.86Z"/><path class="cls-1" d="M210.06,26.76q0,1.68,0,3.78t0,4.35v4.44q0,2.19-.06,4.05-.06.9-.18,1.95a7.53,7.53,0,0,1-.48,2,3.39,3.39,0,0,1-1.11,1.47,3,3,0,0,1-2,.51,3,3,0,0,1-2.67-1.62,9.9,9.9,0,0,1-.93-4.2q0-1.38,0-3.18t-.06-3.66q0-1.86,0-3.63V29.76q0-.84,0-2t0-2.46a15.82,15.82,0,0,1,.3-2.43,5.24,5.24,0,0,1,.78-1.95,2.75,2.75,0,0,1,1.2-.75,5,5,0,0,1,1.65-.27,4.8,4.8,0,0,1,1.68.3,2.31,2.31,0,0,1,1.17.84,2.74,2.74,0,0,1,.36,1q.12.66.21,1.47t.12,1.68Q210.06,26,210.06,26.76Zm-2.28-12.12a3.58,3.58,0,0,1-3.09-.39,3.83,3.83,0,0,1-1.53-2.61,3.71,3.71,0,0,1,.18-2.22A3.14,3.14,0,0,1,204.6,8a3.26,3.26,0,0,1,1.92-.45,4.07,4.07,0,0,1,2.16.84A4.31,4.31,0,0,1,210.15,10a3.11,3.11,0,0,1,.3,1.86,3.29,3.29,0,0,1-.81,1.65A3.9,3.9,0,0,1,207.78,14.64Z"/><path class="cls-1" d="M216.06,28.08q0-1.38,0-2.94a6.75,6.75,0,0,1,.51-2.82,3.06,3.06,0,0,1,1.59-1.65,3.11,3.11,0,0,1,2.19-.21,3.61,3.61,0,0,1,1.68.66,2.86,2.86,0,0,1,.87,1.11,4.48,4.48,0,0,1,.33,1.44l.12,1.59a5.32,5.32,0,0,1,1.5-1.74,9.76,9.76,0,0,1,1.86-1.08,9.28,9.28,0,0,1,1.83-.6,7.16,7.16,0,0,1,1.35-.18,11.16,11.16,0,0,1,4.53,1,10.09,10.09,0,0,1,3.75,2.79,8.82,8.82,0,0,1,1.29,2.25,12.45,12.45,0,0,1,.66,2.43,21.6,21.6,0,0,1,.27,2.55q.06,1.29.12,2.61a48.46,48.46,0,0,1,0,7.62q-.06.78-.06,1.8a13.4,13.4,0,0,1-.15,2,5.55,5.55,0,0,1-.54,1.74,1.76,1.76,0,0,1-1.29.93,5.16,5.16,0,0,1-2.07.15,2.65,2.65,0,0,1-1.29-.57,2.57,2.57,0,0,1-.72-1.08,11.4,11.4,0,0,1-.42-1.5q-.12-.66-.21-1.53t-.12-1.77l-.06-1.77q0-.87,0-1.59,0-1.14-.06-2.52t0-2.58A5.81,5.81,0,0,0,232,30.33a4.71,4.71,0,0,0-4-1.23,6,6,0,0,0-3.36,1.53A4.09,4.09,0,0,0,223.26,34V35.4q0,.66,0,1.32t0,1.44v5.91a9.94,9.94,0,0,1-.54,3.57,3.15,3.15,0,0,1-1.62,2,2.92,2.92,0,0,1-2.7-.3,2.78,2.78,0,0,1-1.05-1,5.45,5.45,0,0,1-.6-1.35,7.32,7.32,0,0,1-.27-1.47q-.06-.75-.12-1.41-.18-2-.21-3.69t0-3.69Z"/><path class="cls-1" d="M270.36,38.16q0,1.92-.09,4.14t-.21,4.14q0,1.8-.18,3.6a29.31,29.31,0,0,1-.48,3.39,17.2,17.2,0,0,1-1,3.39,10.86,10.86,0,0,1-2.28,3.51,8.33,8.33,0,0,1-3.72,2.13,23.54,23.54,0,0,1-3.6.63,16.92,16.92,0,0,1-3.6-.09,14.8,14.8,0,0,1-5.4-2,10.42,10.42,0,0,1-2.22-1.83,5.69,5.69,0,0,1-1.32-2.37,5,5,0,0,1,0-2.82,3.11,3.11,0,0,1,1.23-1.74,2.25,2.25,0,0,1,2-.18,4.38,4.38,0,0,1,2.16,1.86,5.08,5.08,0,0,0,2.1,1.74,8.21,8.21,0,0,0,2.94.78,7.41,7.41,0,0,0,3-.39A4.45,4.45,0,0,0,262,54.3a6.58,6.58,0,0,0,.87-2.58,27.11,27.11,0,0,0,.33-3.3,12.8,12.8,0,0,1-6.27.93,13.27,13.27,0,0,1-5.82-2,12.44,12.44,0,0,1-4.2-4.44,11,11,0,0,1-1.35-6.33,17.79,17.79,0,0,1,1.29-5.76,10.13,10.13,0,0,1,3.69-4.5,11.77,11.77,0,0,1,4.74-1.89,30.35,30.35,0,0,1,5.1-.45h2.85a9,9,0,0,1,2.61.36,5.76,5.76,0,0,1,2.16,1.2A5.1,5.1,0,0,1,269.4,28a19.17,19.17,0,0,1,.87,5Q270.36,35.46,270.36,38.16Zm-11.58,5A5.66,5.66,0,0,0,260,43a10.06,10.06,0,0,0,1.11-.3,3.47,3.47,0,0,0,1.53-1,3.22,3.22,0,0,0,.69-1.35,6.18,6.18,0,0,0,.15-1.65q0-.9,0-1.86,0-.78,0-1.74a17.37,17.37,0,0,0-.15-1.83,7.49,7.49,0,0,0-.36-1.53,1.29,1.29,0,0,0-.72-.84,10.06,10.06,0,0,0-1.92-.33,13,13,0,0,0-2.16,0,8.84,8.84,0,0,0-2.07.42,4.62,4.62,0,0,0-3,2.79,7.52,7.52,0,0,0-.57,2.4,8.42,8.42,0,0,0,.18,2.46,5.61,5.61,0,0,0,1,2.16,4.74,4.74,0,0,0,2.28,1.74A8.31,8.31,0,0,0,258.78,43.14Z"/><path class="cls-1" d="M313.86,27.36a12.71,12.71,0,0,1,3,2.67,11.66,11.66,0,0,1,1.95,3.75,17,17,0,0,1,.81,4.95,11.08,11.08,0,0,1-.9,4.62,9.65,9.65,0,0,1-2.94,3.72,12.29,12.29,0,0,1-5.25,2.25,31.12,31.12,0,0,1-4.08.66,41.58,41.58,0,0,1-4.2.24q-2.34.06-4.83,0a25.51,25.51,0,0,1-4.83-.51,2.42,2.42,0,0,1-1.47-1.05,5.13,5.13,0,0,1-.63-1.71,2.64,2.64,0,0,1-.24-1.08V11.82a4.31,4.31,0,0,1,.69-2.61,4.1,4.1,0,0,1,1.83-1.38,8.43,8.43,0,0,1,2.58-.54q1.44-.09,3-.09l2.43,0q1.23,0,2.49,0,2,.06,4.11.33a17.91,17.91,0,0,1,4,1,12.77,12.77,0,0,1,1.92.84,4.63,4.63,0,0,1,1.62,1.2,11.07,11.07,0,0,1,3.66,8.73,10.52,10.52,0,0,1-1.29,4.53A9.29,9.29,0,0,1,313.86,27.36Zm-10.5,15.9q1.86-.12,3.78-.42a4.28,4.28,0,0,0,2.64-1.14,5.79,5.79,0,0,0,1.11-2.25,7.31,7.31,0,0,0,.18-2.64,7.41,7.41,0,0,0-.78-2.58,5.28,5.28,0,0,0-1.65-1.95,7.18,7.18,0,0,0-3.18-1.41,19.6,19.6,0,0,0-3.54-.33q-.84,0-1.53,0a5.06,5.06,0,0,0-1.2.18,1.22,1.22,0,0,0-.75.57,2.6,2.6,0,0,0-.24,1.26,20.31,20.31,0,0,1,0,3.12q-.12,1.56-.12,3,0,.84,0,1.83a2.14,2.14,0,0,0,.63,1.65,3.6,3.6,0,0,0,1.92.9A12.16,12.16,0,0,0,303.36,43.26Zm1.2-28.8-3.09-.09a6.35,6.35,0,0,0-1.92.18,1.44,1.44,0,0,0-1,.9,5.36,5.36,0,0,0-.21,2.07q0,1.14,0,2.25t0,2.19a2,2,0,0,0,.78,1.77,3.92,3.92,0,0,0,1.95.69,12.63,12.63,0,0,0,2.46,0q1.29-.12,2.25-.3a6.2,6.2,0,0,0,3.33-1.47,4.89,4.89,0,0,0,1.35-3.27q.24-2.7-1.41-3.75A9,9,0,0,0,304.56,14.46Z"/><path class="cls-1" d="M331.62,44.7q-.06.3-.09.57a5.17,5.17,0,0,0,0,.57l-.36,1.26a1.39,1.39,0,0,1-.18.3l-.18.36a2.35,2.35,0,0,1-1.08,1.08,4.48,4.48,0,0,1-3.06.36,3.13,3.13,0,0,1-1.62-.6,2.27,2.27,0,0,1-.84-1,6.84,6.84,0,0,1-.36-1.2,3.8,3.8,0,0,1-.18-1.08V11.7q0-.42,0-.75a6,6,0,0,1,.09-.63,5,5,0,0,1,.15-.72q.09-.3.21-.66a1.82,1.82,0,0,1,.66-1,2.75,2.75,0,0,1,1.38-.6,4.09,4.09,0,0,1,.78-.15q.36,0,.84,0a4.82,4.82,0,0,1,1.92.48A2.74,2.74,0,0,1,330.9,9a5,5,0,0,1,.6,2.22q.06.6.09,1.8t0,1.8v.24q.12,1.92.12,3.69t-.06,3.87q0,2,0,3.93t0,3.75V42.9a3.19,3.19,0,0,0,0,.45,3.19,3.19,0,0,1,0,.45A5,5,0,0,1,331.62,44.7Z"/><path class="cls-1" d="M344.28,22.38A16.8,16.8,0,0,1,348.42,21a14.09,14.09,0,0,1,4.29-.18A13.88,13.88,0,0,1,356.85,22a12.88,12.88,0,0,1,3.69,2.52,13.54,13.54,0,0,1,2.4,3.33,17.89,17.89,0,0,1,1.5,3.81,13,13,0,0,1,.3,6.66,20.14,20.14,0,0,1-2.46,6.24,10.56,10.56,0,0,1-2.07,2.37,12,12,0,0,1-2.61,1.71,14.49,14.49,0,0,1-3.9,1.17,16.55,16.55,0,0,1-4.08.15,13.53,13.53,0,0,1-6.33-1.8A13.18,13.18,0,0,1,338.91,44a14.47,14.47,0,0,1-2.16-5.73,15.66,15.66,0,0,1,.39-6.57,15.48,15.48,0,0,1,2.79-5.85A12.47,12.47,0,0,1,344.28,22.38Zm1.8,8a5.5,5.5,0,0,0-1.38,2.1,9.71,9.71,0,0,0-.6,2.61,8.23,8.23,0,0,0,.21,2.7,7.59,7.59,0,0,0,1.05,2.43,4.4,4.4,0,0,0,2.16,1.5,11.2,11.2,0,0,0,3.24.72,4.68,4.68,0,0,0,3.36-1,7.53,7.53,0,0,0,2.19-2.91,8.78,8.78,0,0,0,.69-3.78A7.47,7.47,0,0,0,355.92,31a4.33,4.33,0,0,0-2-1.77,7,7,0,0,0-2.7-.6,8.37,8.37,0,0,0-2.79.42A6.16,6.16,0,0,0,346.08,30.42Z"/><path class="cls-1" d="M392.16,26.4a3.82,3.82,0,0,1,.51,1.8,3.35,3.35,0,0,1-.45,1.8,2.88,2.88,0,0,1-1.53,1.47,3.52,3.52,0,0,1-2.19.09,2.6,2.6,0,0,1-1-.42l-.87-.63a8.11,8.11,0,0,0-1-.63,4.43,4.43,0,0,0-1.47-.42,7.94,7.94,0,0,0-1.95,0,6.71,6.71,0,0,0-1.89.48,5,5,0,0,0-2.1,2,8.27,8.27,0,0,0-1,2.88,8.47,8.47,0,0,0,.09,3.09,5.65,5.65,0,0,0,1.29,2.64,5.45,5.45,0,0,0,1.89,1.38,7.31,7.31,0,0,0,2.25.66,7.74,7.74,0,0,0,2,0,12.94,12.94,0,0,0,2-.45,15.22,15.22,0,0,0,1.62-.81,5,5,0,0,1,1.74-.63,2.34,2.34,0,0,1,1.68.57,3.07,3.07,0,0,1,.84,1.38,3.77,3.77,0,0,1,.09,1.71A3.26,3.26,0,0,1,392,45.9a7.81,7.81,0,0,1-2,1.71,10.81,10.81,0,0,1-2.52,1.17,11.34,11.34,0,0,1-3.21.54,22.45,22.45,0,0,1-3.33-.12q-.72-.12-1.5-.3t-1.5-.42a11.86,11.86,0,0,1-4.41-2.73,12.36,12.36,0,0,1-2.7-4A13.88,13.88,0,0,1,369.78,37a15.06,15.06,0,0,1,.6-5,15.83,15.83,0,0,1,1.65-4,9.82,9.82,0,0,1,2.34-2.67,11.45,11.45,0,0,1,3-1.68,30.53,30.53,0,0,1,3.72-1.11,11.83,11.83,0,0,1,4.44,0,12,12,0,0,1,4.2,1.56A6.69,6.69,0,0,1,392.16,26.4Z"/><path class="cls-1" d="M409.5,35.7q1.32,1.38,1.95,2t.9.93a1.77,1.77,0,0,0,.39.36,2.2,2.2,0,0,1,.42.36l1,.93q.66.63,2,2a9.23,9.23,0,0,1,1.77,2.49,3.22,3.22,0,0,1-.15,3A3,3,0,0,1,416.64,49a2.22,2.22,0,0,1-1.29.27,4.17,4.17,0,0,1-1.44-.42,8.8,8.8,0,0,1-1.47-.9,19.35,19.35,0,0,1-2.64-2.37q-1.26-1.35-2-2.07a6.63,6.63,0,0,1-.66-.72l-.24-.21a2.25,2.25,0,0,1-.24-.21q-.42-.42-.9-.84t-1-.9V43a5.44,5.44,0,0,0,.06,1,5,5,0,0,1-.06.9,4.79,4.79,0,0,0-.18,1.26q-.06.3-.12.57a3.71,3.71,0,0,1-.18.57l-.09.18a.42.42,0,0,0,0,.18l-.09.18-.09.18a3.56,3.56,0,0,1-1,1.14,4.07,4.07,0,0,1-2.82.36,2.63,2.63,0,0,1-1.38-.66,1.73,1.73,0,0,1-.72-1,5.81,5.81,0,0,1-.21-.63,5.81,5.81,0,0,0-.21-.63,1.54,1.54,0,0,1-.12-.57V10.62a4.37,4.37,0,0,1,.06-.72,7,7,0,0,1,.15-.69,5.81,5.81,0,0,1,.21-.63,2.82,2.82,0,0,1,.6-1,2.16,2.16,0,0,1,.63-.45l.63-.27a5.83,5.83,0,0,1,.69-.09l.75,0a3.36,3.36,0,0,1,1.68.48,3.18,3.18,0,0,1,1.14,1.38,5.7,5.7,0,0,1,.48,2.22q.06.6.12,1.83t.06,1.83v.24q.06,2,.06,3.78v3.9q-.06,2.1-.06,4v4.41q.48-.48,1-.9a9.56,9.56,0,0,0,.9-.9,4.51,4.51,0,0,0,.48-.42l.66-.66q.78-.78,2-2.13a19.35,19.35,0,0,1,2.64-2.37,7.07,7.07,0,0,1,2.91-1.32q1.41-.24,2.37,1.44a3.22,3.22,0,0,1,.15,3,11.34,11.34,0,0,1-1.77,2.61q-1.32,1.38-2,2l-1,.9a2.48,2.48,0,0,1-.42.33,1.94,1.94,0,0,0-.39.33l-.9.9Q410.82,34.32,409.5,35.7Z"/><path class="cls-1" d="M469.56,38.85a17.37,17.37,0,0,1-.72,3.54,11.71,11.71,0,0,1-1.62,3.24,9.79,9.79,0,0,1-2.94,2.67,8.4,8.4,0,0,1-2.13,1,24.3,24.3,0,0,1-2.58.66,20.83,20.83,0,0,1-2.67.36,20.47,20.47,0,0,1-2.46,0,15.37,15.37,0,0,1-8.73-2.61,16.26,16.26,0,0,1-5.1-6,24.16,24.16,0,0,1-2.28-7.83,40.83,40.83,0,0,1-.21-8.07,32.23,32.23,0,0,1,.81-4.92,23.64,23.64,0,0,1,1.86-5.1,19.06,19.06,0,0,1,3.06-4.44,12,12,0,0,1,4.35-3,18,18,0,0,1,5.13-1.23,20.39,20.39,0,0,1,5.52.21A17.1,17.1,0,0,1,464,9.06a10,10,0,0,1,3.75,3.36,13.08,13.08,0,0,1,1.5,3.78,10.3,10.3,0,0,1,.18,4.26A3.66,3.66,0,0,1,468.12,23a2.85,2.85,0,0,1-2.1.54,4.54,4.54,0,0,1-2.19-1,3.91,3.91,0,0,1-1.41-2.07,15.41,15.41,0,0,0-1-2.55A5,5,0,0,0,459.54,16a6.59,6.59,0,0,0-3-1,7.86,7.86,0,0,0-3.06.36,8.87,8.87,0,0,0-2.76,1.5,9.43,9.43,0,0,0-2.13,2.34A12,12,0,0,0,447,22.41a22,22,0,0,0-.78,3.66,21.74,21.74,0,0,0-.15,3.78,23.39,23.39,0,0,0,.45,3.63,21.74,21.74,0,0,0,2,5.52A5.93,5.93,0,0,0,450,40.71a7.89,7.89,0,0,0,2.07,1.2,8.77,8.77,0,0,0,2.4.57,6.82,6.82,0,0,0,2.4-.18,8.53,8.53,0,0,0,2.64-1.11,5.53,5.53,0,0,0,1.62-1.65,6,6,0,0,0,.81-2.1,13.23,13.23,0,0,0,.21-2.4V35q-.78,0-1.38,0l-.9,0a7.19,7.19,0,0,1-2.58-.48,3.07,3.07,0,0,1-1.62-1.14,2.32,2.32,0,0,1-.6-1.62q0-.36,0-.69t.09-.69a4.55,4.55,0,0,1,.78-1.2,2.78,2.78,0,0,1,1.14-.48q.36-.12.72-.21a7.17,7.17,0,0,1,.84-.15,4.75,4.75,0,0,1,.78-.06h6.3a4.76,4.76,0,0,1,1.53.15,3.14,3.14,0,0,1,1.35.63l.36.48a2.35,2.35,0,0,1,.3.54,5.24,5.24,0,0,1,.3,1.32q.06.36.09.75t0,.69v2.46Q469.74,37,469.56,38.85Z"/><path class="cls-1" d="M499.2,35.22l-.24,4a20.3,20.3,0,0,1-.63,3.87,10.78,10.78,0,0,1-1.56,3.36,7.38,7.38,0,0,1-3,2.4A12.88,12.88,0,0,1,490.2,50a19.14,19.14,0,0,1-3.84.27,15.28,15.28,0,0,1-3.72-.57,12.51,12.51,0,0,1-3.24-1.41A7.27,7.27,0,0,1,477.06,46a13,13,0,0,1-1.41-3.12,18.18,18.18,0,0,1-.69-3.48c-.12-1.2-.21-2.32-.24-3.36a69.42,69.42,0,0,1,0-8.16V26.07a12.61,12.61,0,0,1,.15-1.95,7,7,0,0,1,.51-1.77,2.43,2.43,0,0,1,1.2-1.23,3.32,3.32,0,0,1,3.33-.12c1,.56,1.62,1.72,1.83,3.48a20.89,20.89,0,0,1,.15,3.06A26.93,26.93,0,0,0,482,30.6c0,1.36.08,2.83.12,4.41a14.29,14.29,0,0,0,.69,4.23,5.1,5.1,0,0,0,2.1,2.79q1.47.93,4.41.09a2.72,2.72,0,0,0,1.83-2.1,20.6,20.6,0,0,0,.45-5c0-1,0-2-.06-3.18s-.06-2.31-.06-3.45,0-2.2.09-3.18a10.22,10.22,0,0,1,.33-2.25,2.54,2.54,0,0,1,1.26-1.62,4.32,4.32,0,0,1,2-.57,4.26,4.26,0,0,1,2,.45,2.61,2.61,0,0,1,1.32,1.56,9.89,9.89,0,0,1,.51,2.43c.09,1,.17,2,.21,3.18s.05,2.3,0,3.48S499.24,34.18,499.2,35.22Z"/><path class="cls-1" d="M511.68,26.76c0,1.12,0,2.38,0,3.78s0,2.85,0,4.35v4.44c0,1.46,0,2.81-.06,4.05,0,.6-.11,1.25-.19,1.95a7.15,7.15,0,0,1-.48,2,3.37,3.37,0,0,1-1.1,1.47,3,3,0,0,1-2,.51,3,3,0,0,1-2.68-1.62,9.91,9.91,0,0,1-.92-4.2c0-.92,0-2,0-3.18s0-2.42-.05-3.66,0-2.45,0-3.63V29.76c0-.56,0-1.24,0-2s0-1.62,0-2.46a14.68,14.68,0,0,1,.29-2.43,5.25,5.25,0,0,1,.79-1.95,2.64,2.64,0,0,1,1.2-.75,4.92,4.92,0,0,1,1.65-.27,4.78,4.78,0,0,1,1.67.3A2.34,2.34,0,0,1,511,21a3.15,3.15,0,0,1,.36,1c.07.44.15.93.21,1.47s.09,1.1.12,1.68S511.68,26.28,511.68,26.76ZM509.4,14.64a3.6,3.6,0,0,1-3.1-.39,3.79,3.79,0,0,1-1.52-2.61A3.64,3.64,0,0,1,505,9.42,3,3,0,0,1,506.22,8a3.25,3.25,0,0,1,1.92-.45,4.1,4.1,0,0,1,2.16.84A4.28,4.28,0,0,1,511.76,10a3.12,3.12,0,0,1,.31,1.86,3.46,3.46,0,0,1-.81,1.65A4,4,0,0,1,509.4,14.64Z"/><path class="cls-1" d="M535.67,7.56a4.11,4.11,0,0,1,2-.09,3.24,3.24,0,0,1,1.5.81,3.88,3.88,0,0,1,1,1.5,5.71,5.71,0,0,1,.33,2q.06,3,0,4.68t0,2.94V43.2a23.69,23.69,0,0,1-.21,3.51,4.42,4.42,0,0,1-.72,2,2.74,2.74,0,0,1-1.53.93,10.75,10.75,0,0,1-2.67.27h-4.11q-6.48,0-10.23-3.06t-4-9.72a14.09,14.09,0,0,1,.72-5.28,10.79,10.79,0,0,1,6.57-6.75,14.65,14.65,0,0,1,5.55-.87h3.3V11.61a8,8,0,0,1,.18-1.74,3.06,3.06,0,0,1,.72-1.41A3.32,3.32,0,0,1,535.67,7.56Zm-10.44,33.3q1.26,1.74,4.56,1.92a9,9,0,0,0,1.26,0,5.63,5.63,0,0,0,1.08-.15,7.72,7.72,0,0,0,1-.18V31.38a33,33,0,0,0-3.81-.45A5,5,0,0,0,526,32.16,4.68,4.68,0,0,0,524.57,34a6.66,6.66,0,0,0-.54,2.34,8.3,8.3,0,0,0,.24,2.43A6,6,0,0,0,525.23,40.86Z"/><path class="cls-1" d="M566.09,41.28a9,9,0,0,1,1.47-.24,3.13,3.13,0,0,1,1.38.18,2.31,2.31,0,0,1,1,.81,2.64,2.64,0,0,1,.42,1.59,2.84,2.84,0,0,1-.36,1.38,5.24,5.24,0,0,1-.9,1.2,6,6,0,0,1-1.2.93,9.24,9.24,0,0,1-1.26.63,17.68,17.68,0,0,1-4,1.2,19.86,19.86,0,0,1-4.65.3A18.71,18.71,0,0,1,551.84,48a9.39,9.39,0,0,1-4.65-3.87,13.93,13.93,0,0,1-1.86-5.88,20.58,20.58,0,0,1,.3-6.12,14,14,0,0,1,2.25-5.67,12.71,12.71,0,0,1,3.81-3.51,12.35,12.35,0,0,1,6.06-1.62,14.79,14.79,0,0,1,6.42,1.32,12.84,12.84,0,0,1,3.66,2.43,10,10,0,0,1,2.46,3.69,6.12,6.12,0,0,1,.39,1.32,13.75,13.75,0,0,1,.21,1.65,12.2,12.2,0,0,1,0,1.71,5.54,5.54,0,0,1-.3,1.5,4.73,4.73,0,0,1-.9,1.68,3.32,3.32,0,0,1-1.38.9,7.79,7.79,0,0,1-2,.39q-1.17.09-2.79.15-1.44.06-2.7.06l-2.58,0L555.5,38l-3.15-.09a3.08,3.08,0,0,0,.33,2.07,4.22,4.22,0,0,0,1.41,1.44,7.22,7.22,0,0,0,2,.87,11.15,11.15,0,0,0,2.22.36,13.2,13.2,0,0,0,3.9-.33Q564.11,41.88,566.09,41.28Zm-2.58-11.64a7.47,7.47,0,0,0-2.4-1.92,4.62,4.62,0,0,0-2-.39,7.42,7.42,0,0,0-2,.33,5.54,5.54,0,0,0-2.94,1.8,4.6,4.6,0,0,0-.42.57q-.3.45-.57.93a4.23,4.23,0,0,0-.39.9q-.12.42.12.42h11.76a3.79,3.79,0,0,0-1.14-2.64Z"/><path class="cls-2" d="M10.55,61.66c-4.29,0-8-3.54-8-7.57,0,0,0-5.36,0-8.61,0-1.24.12-2.51,1-2.51.51,0,.95.5,1.46,1.25A3.5,3.5,0,0,0,7.86,45.8h.22a2.82,2.82,0,0,0,2.2-1.13c1.13-1.16,1.18-3.2,1.24-12.6s-.11-11.43-1.24-12.6a2.81,2.81,0,0,0-2.19-1.12H7.86A3.5,3.5,0,0,0,5,19.94c-.51.75-1,1.25-1.46,1.25-.89,0-1-1.27-1-2.51,0-3.25,0-8.61,0-8.61,0-4,3.76-7.57,8.05-7.57H54.4a7.5,7.5,0,0,1,7.41,7.57s.1,8.8.1,9c0,2.78.85,2.78,1.67,2.78s1.21-.47,1.63-1.13a2.91,2.91,0,0,1,2.69-1.66c2.78,0,2.79,4.39,2.81,11v4c0,6.64,0,11-2.81,11a2.91,2.91,0,0,1-2.69-1.66c-.43-.66-.73-1.13-1.63-1.13s-1.67,0-1.67,2.78c0,.19-.1,9-.1,9a7.5,7.5,0,0,1-7.41,7.57Z"/><path class="cls-3" d="M10.55,61.66c-4.29,0-8-3.54-8-7.57,0,0,0-5.36,0-8.61,0-1.24.12-2.51,1-2.51.51,0,.95.5,1.46,1.25A3.5,3.5,0,0,0,7.86,45.8h.22a2.82,2.82,0,0,0,2.2-1.13c1.13-1.16,1.18-3.2,1.24-12.6s-.11-11.43-1.24-12.6a2.81,2.81,0,0,0-2.19-1.12H7.86A3.5,3.5,0,0,0,5,19.94c-.51.75-1,1.25-1.46,1.25-.89,0-1-1.27-1-2.51,0-3.25,0-8.61,0-8.61,0-4,3.76-7.57,8.05-7.57H54.4a7.5,7.5,0,0,1,7.41,7.57s.1,8.8.1,9c0,2.78.85,2.78,1.67,2.78s1.21-.47,1.63-1.13a2.91,2.91,0,0,1,2.69-1.66c2.78,0,2.79,4.39,2.81,11v4c0,6.64,0,11-2.81,11a2.91,2.91,0,0,1-2.69-1.66c-.43-.66-.73-1.13-1.63-1.13s-1.67,0-1.67,2.78c0,.19-.1,9-.1,9a7.5,7.5,0,0,1-7.41,7.57Z"/></g></g></svg>