<svg xmlns="http://www.w3.org/2000/svg" viewBox="0 0 100.82 115.83"><defs><style>.cls-1{fill:#8ab6c4;opacity:0.4;isolation:isolate;}.cls-2{fill:#fff;}.cls-3{fill:#e2823b;}.cls-4{fill:#ff9a48;}</style></defs><g id="레이어_2" data-name="레이어 2"><g id="Layer_1" data-name="Layer 1"><path class="cls-1" d="M26.51,115.83A20.85,20.85,0,0,1,5.68,95V34a20.68,20.68,0,0,1,6.84-15.43,15.09,15.09,0,0,1,15-13.25H43A15.05,15.05,0,0,1,53.25,9.33a15.05,15.05,0,0,1,10.28-4H79A15.11,15.11,0,0,1,94,18.53,20.68,20.68,0,0,1,100.82,34V95A20.85,20.85,0,0,1,80,115.83Z"/><path class="cls-2" d="M20.82,110.56A20.85,20.85,0,0,1,0,89.73v-61A20.69,20.69,0,0,1,6.83,13.26,15.12,15.12,0,0,1,21.81,0H37.28A15,15,0,0,1,47.57,4.06,15,15,0,0,1,57.85,0H73.32a15.12,15.12,0,0,1,15,13.26,20.65,20.65,0,0,1,6.83,15.42V89.73a20.85,20.85,0,0,1-20.82,20.83Z"/><path class="cls-3" d="M37.28,31.11H21.81a6.31,6.31,0,0,1-6.3-6.3V15.09a6.31,6.31,0,0,1,6.3-6.31H37.28a6.32,6.32,0,0,1,6.31,6.31v9.72A6.31,6.31,0,0,1,37.28,31.11ZM22.12,24.49H37V15.4H22.12Z"/><path class="cls-3" d="M73.32,31.11H57.85a6.31,6.31,0,0,1-6.3-6.3V15.09a6.31,6.31,0,0,1,6.3-6.31H73.32a6.31,6.31,0,0,1,6.3,6.31v9.72A6.31,6.31,0,0,1,73.32,31.11ZM58.16,24.49H73V15.4H58.16Z"/><path class="cls-3" d="M74.31,101.77H20.82a12.06,12.06,0,0,1-12-12v-61a12.06,12.06,0,0,1,12-12H74.31a12.05,12.05,0,0,1,12,12V89.73A12.05,12.05,0,0,1,74.31,101.77ZM20.82,23.25a5.43,5.43,0,0,0-5.42,5.43V89.73a5.43,5.43,0,0,0,5.42,5.43H74.31a5.44,5.44,0,0,0,5.43-5.43v-61a5.44,5.44,0,0,0-5.43-5.43Z"/><rect class="cls-4" x="54.86" y="12.09" width="21.46" height="15.71" rx="3"/><rect class="cls-4" x="18.82" y="12.09" width="21.46" height="15.71" rx="3"/><rect class="cls-4" x="12.09" y="19.95" width="70.95" height="78.52" rx="8.73"/><path class="cls-2" d="M47.67,35.08A12.76,12.76,0,0,0,35,47.78a3.91,3.91,0,0,0,7.82,0,4.89,4.89,0,0,1,4.88-4.87,4.84,4.84,0,0,1,4.78,4.87c0,2.47-1.08,3.7-3.06,6-2.47,2.52-5.74,6-5.74,12.65a3.93,3.93,0,0,0,4,4,3.88,3.88,0,0,0,3.86-4c0-3.59,1.5-5.2,3.54-7.34,2.3-2.52,5.15-5.58,5.15-11.32a12.51,12.51,0,0,0-12.5-12.65Zm0,38.82a4.72,4.72,0,1,0,0,9.44,4.72,4.72,0,0,0,0-9.44Z"/></g></g></svg>