<svg xmlns="http://www.w3.org/2000/svg" viewBox="0 0 126.85 115.28"><defs><style>.cls-1{fill:#8ab6c4;opacity:0.4;isolation:isolate;}.cls-2{fill:#fff;}.cls-3{fill:none;stroke:#e8a623;stroke-miterlimit:10;stroke-width:5.25px;}.cls-4{fill:#ffca4c;}.cls-5{fill:#4d4d4d;opacity:0.4;}</style></defs><g id="레이어_2" data-name="레이어 2"><g id="Layer_1" data-name="Layer 1"><path class="cls-1" d="M35,115.28A17.56,17.56,0,0,1,17.49,97.74V76.79a17.54,17.54,0,0,1-5-28.74L55.58,6.18a17.47,17.47,0,0,1,24.6.11L121.8,48.41a17.4,17.4,0,0,1,3.7,19c-2,4.88-6,10-10.84,11.53V92.08c0,16.42-11.63,23.2-21.3,23.2Z"/><path class="cls-2" d="M28,109.87A17.56,17.56,0,0,1,10.5,92.33V75.62a17.36,17.36,0,0,1-9.35-9.91A17.24,17.24,0,0,1,5.47,46.88L48.58,5a17.47,17.47,0,0,1,24.61.1L114.8,47.24a17.56,17.56,0,0,1-7.14,29V92.33a17.56,17.56,0,0,1-17.54,17.54Z"/><path class="cls-3" d="M17.52,62.79h7.26V92.33A3.32,3.32,0,0,0,28,95.58H49.82a1.5,1.5,0,0,0,1-.25V68.05h18V95.58H90.12a3.31,3.31,0,0,0,3.26-3.25V62.79h9a3.26,3.26,0,0,0,2.25-5.51L63.09,15.22a3.18,3.18,0,0,0-4.51,0L15.27,57.28A3.22,3.22,0,0,0,17.52,62.79Z"/><path class="cls-3" d="M59.93,64h0a13,13,0,0,1,13,13V95.58a0,0,0,0,1,0,0h-26a0,0,0,0,1,0,0V77A13,13,0,0,1,59.93,64Z"/><path class="cls-4" d="M17.52,62.79h7.26V92.33A3.32,3.32,0,0,0,28,95.58H49.82a1.5,1.5,0,0,0,1-.25V68.05h18V95.58H90.12a3.31,3.31,0,0,0,3.26-3.25V62.79h9a3.26,3.26,0,0,0,2.25-5.51L63.09,15.22a3.18,3.18,0,0,0-4.51,0L15.27,57.28A3.22,3.22,0,0,0,17.52,62.79Z"/><path class="cls-3" d="M59.31,64h0a13,13,0,0,1,13,13V95.58a0,0,0,0,1,0,0h-26a0,0,0,0,1,0,0V77a13,13,0,0,1,13-13Z"/><path class="cls-2" d="M59.31,64h0a13,13,0,0,1,13,13V95.58a0,0,0,0,1,0,0h-26a0,0,0,0,1,0,0V77a13,13,0,0,1,13-13Z"/><path class="cls-5" d="M121.8,48.41,80.18,6.29A17.36,17.36,0,0,0,67.83,1.17c-.22,0-.44,0-.66,0A17.42,17.42,0,0,0,48.58,5L5.47,46.88A17.24,17.24,0,0,0,1.15,65.71a17.36,17.36,0,0,0,9.35,9.91V92.33a17.58,17.58,0,0,0,10.7,16.15A17.49,17.49,0,0,0,35,115.28H93.36c9.67,0,21.3-6.78,21.3-23.2V78.94c4.81-1.54,8.81-6.65,10.84-11.53A17.4,17.4,0,0,0,121.8,48.41Z"/></g></g></svg>