<svg xmlns="http://www.w3.org/2000/svg" viewBox="0 0 554.73 71.19"><defs><style>.cls-1{fill:#fff;}.cls-2{fill:#e2823b;}.cls-3{fill:#ff9a48;}</style></defs><g id="레이어_2" data-name="레이어 2"><g id="Layer_1" data-name="Layer 1"><path class="cls-1" d="M123.49,35.56a9.71,9.71,0,0,1,.45,1.89,15.2,15.2,0,0,1,0,4.26,12.1,12.1,0,0,1-.39,1.83,10.72,10.72,0,0,1-3.84,5.61,18.6,18.6,0,0,1-6.57,3.27,22.08,22.08,0,0,1-7.62.72,17,17,0,0,1-7-2,12.63,12.63,0,0,1-3.3-2.64A16.07,16.07,0,0,1,92.89,45a4,4,0,0,1-.45-1.53,4.3,4.3,0,0,1,.15-1.68,3.88,3.88,0,0,1,.78-1.44,2.81,2.81,0,0,1,1.5-.87,6.91,6.91,0,0,1,1.35-.12,5.22,5.22,0,0,1,1.47.21,4.09,4.09,0,0,1,1.32.66,3.15,3.15,0,0,1,1,1.23,7.82,7.82,0,0,0,1.89,2.31,12,12,0,0,0,2.61,1.71,10.53,10.53,0,0,0,4,.54,9.86,9.86,0,0,0,3.66-.9A7.06,7.06,0,0,0,114.79,43a5,5,0,0,0,1-3.09,5.78,5.78,0,0,0-.42-2.37A4.34,4.34,0,0,0,114.22,36a6.56,6.56,0,0,0-1.8-1,16.54,16.54,0,0,0-2.31-.72,23.71,23.71,0,0,0-2.91-.42q-1.47-.12-3-.3T101.29,33a14.45,14.45,0,0,1-2.82-.9,8.64,8.64,0,0,1-4.2-3.48,11.73,11.73,0,0,1-1.71-5,12.69,12.69,0,0,1,.63-5.37,11.34,11.34,0,0,1,2.88-4.59,11.25,11.25,0,0,1,4.59-2.49,25.31,25.31,0,0,1,5.91-.87,27.64,27.64,0,0,1,3.63.12,25.14,25.14,0,0,1,3.54.6,18.55,18.55,0,0,1,3.18,1.08,11,11,0,0,1,2.55,1.56A9.08,9.08,0,0,1,121,15.25a7.91,7.91,0,0,1,1.2,2.1,4.22,4.22,0,0,1,.27,2.13,2.52,2.52,0,0,1-1.29,1.74,2.88,2.88,0,0,1-1.83.51,4.12,4.12,0,0,1-1.65-.54,10.68,10.68,0,0,1-1.5-1.05l-1.32-1.08a9.36,9.36,0,0,0-4-1.62,15.72,15.72,0,0,0-4.5-.18,11.65,11.65,0,0,0-2.46.6A6,6,0,0,0,102,19a4.93,4.93,0,0,0-1.26,1.77,4.83,4.83,0,0,0-.33,2.37,2.88,2.88,0,0,0,.57,1.62,4.11,4.11,0,0,0,1.26,1.08,7.11,7.11,0,0,0,1.65.66,14.33,14.33,0,0,0,1.8.36q2.7.36,5.4.54a17.44,17.44,0,0,1,5.28,1.2,13.76,13.76,0,0,1,4.5,2.76A9.65,9.65,0,0,1,123.49,35.56Z"/><path class="cls-1" d="M161.41,39c.07,1.28.12,2.49.12,3.63s-.05,2.35-.12,3.63v1.62a12.29,12.29,0,0,1-.12,1.74,7.43,7.43,0,0,1-.42,1.56,2.7,2.7,0,0,1-.9,1.14,4.1,4.1,0,0,1-1.62.63,3.61,3.61,0,0,1-1.68-.09,2.79,2.79,0,0,1-1.35-.9,2.88,2.88,0,0,1-.63-1.86q-.18-2.76-.18-5.52c0-.92,0-1.8,0-2.64s0-2,0-3.54a21.74,21.74,0,0,0-.18-2.61,3.08,3.08,0,0,0-.9-2.07,2.27,2.27,0,0,0-1.2-.57,2.57,2.57,0,0,0-1.29.15,2.43,2.43,0,0,0-1.11.87,3.59,3.59,0,0,0-.66,1.59q0,.78,0,1.59a9.63,9.63,0,0,0,0,1.53c0,1.28.06,2.49.06,3.63s0,2.35-.06,3.63a11.56,11.56,0,0,0,0,1.68c0,.6,0,1.19,0,1.77a6,6,0,0,1-.33,1.59,2.26,2.26,0,0,1-.93,1.14,3.41,3.41,0,0,1-1.53.57,2.7,2.7,0,0,1-1.5-.24,3,3,0,0,1-1.2-1,3.41,3.41,0,0,1-.57-1.92q-.13-1.38-.15-2.55c0-.78,0-1.61,0-2.49s0-1.87.06-2.85a26.77,26.77,0,0,0-.06-2.85c0-.28,0-.61,0-1s-.05-.77-.06-1.17-.06-.79-.12-1.17a3.23,3.23,0,0,0-.27-.93,2.39,2.39,0,0,0-1.71-1.08,3.18,3.18,0,0,0-2.07.18,3,3,0,0,0-1.26,1.08,4.6,4.6,0,0,0-.61,1.44,8,8,0,0,0-.17,1.65v1.65c0,2.6,0,4.85,0,6.75A12.82,12.82,0,0,1,136,51a2.44,2.44,0,0,1-1.23,1.38,4.32,4.32,0,0,1-2,.48,4.08,4.08,0,0,1-1.95-.48,2.39,2.39,0,0,1-1.2-1.5,12.68,12.68,0,0,1-.33-1.89,26.66,26.66,0,0,1-.21-2.73c0-1-.06-2-.06-3V31.78c0-.92-.06-1.92-.06-3a8.32,8.32,0,0,1,.48-2.94,2.26,2.26,0,0,1,1.31-1.47,4.57,4.57,0,0,1,1.87-.27,2.45,2.45,0,0,1,1.71.57,3.42,3.42,0,0,1,.92,1.38,6.6,6.6,0,0,1,.37,1.8q0,1,.12,1.89a8.33,8.33,0,0,1,1.59-2.49A4.55,4.55,0,0,1,140,26a7,7,0,0,1,7.08,2.28,9.41,9.41,0,0,1,3.06-2,7.82,7.82,0,0,1,2.94-.51,8,8,0,0,1,5.31,2.13,7.75,7.75,0,0,1,1.77,2.46,11.69,11.69,0,0,1,1,4.26Q161.28,36.94,161.41,39Z"/><path class="cls-1" d="M173.34,27.76a14.82,14.82,0,0,1,3.78-1.29,13,13,0,0,1,3.93-.18,12.29,12.29,0,0,1,3.75,1,11.88,11.88,0,0,1,3.36,2.31,11.55,11.55,0,0,1,2.4,3.42,16.13,16.13,0,0,1,1.2,4.14,12.67,12.67,0,0,0,.78,2.88q.54,1.32,1.17,2.64t1.2,2.64a17.9,17.9,0,0,1,.93,2.76,4.5,4.5,0,0,1-.21,2.67,2.57,2.57,0,0,1-2.07,1.59,2.92,2.92,0,0,1-1.71-.15,4.67,4.67,0,0,1-1.47-1,8.55,8.55,0,0,1-1.17-1.38q-.51-.75-.93-1.41a11.16,11.16,0,0,1-3,2.79,9.87,9.87,0,0,1-3.9,1.29,19,19,0,0,1-3.66.12A19.22,19.22,0,0,1,174,52a9,9,0,0,1-4.23-2.31,11.24,11.24,0,0,1-2.52-3.84,13.53,13.53,0,0,1-.93-4.71,17.51,17.51,0,0,1,.6-5,13.53,13.53,0,0,1,2.52-5.28A11.61,11.61,0,0,1,173.34,27.76Zm1.5,7a6.13,6.13,0,0,0-1.32,2,7.52,7.52,0,0,0-.57,2.4,8.27,8.27,0,0,0,.21,2.52,6.56,6.56,0,0,0,1,2.22,4.43,4.43,0,0,0,2,1.41,10.24,10.24,0,0,0,3,.69,4.4,4.4,0,0,0,3.15-1,6.78,6.78,0,0,0,2-2.73,8.38,8.38,0,0,0,.63-3.54,6.88,6.88,0,0,0-1-3.45,4.37,4.37,0,0,0-1.89-1.68,6.21,6.21,0,0,0-2.49-.57,7.36,7.36,0,0,0-2.61.42A5.53,5.53,0,0,0,174.84,34.78Z"/><path class="cls-1" d="M200.88,31.78V30.13q0-.93.06-1.92t.21-1.92a7.32,7.32,0,0,1,.45-1.65,2.64,2.64,0,0,1,1.5-1.47,5.4,5.4,0,0,1,2.22-.33,3.94,3.94,0,0,1,2,.42,2.74,2.74,0,0,1,1.08,1.11,4.3,4.3,0,0,1,.45,1.56,17.8,17.8,0,0,1,.09,1.83,4.39,4.39,0,0,1,1.47-1.56,9.9,9.9,0,0,1,1.89-1,10.87,10.87,0,0,1,1.74-.51,9.11,9.11,0,0,1,.9-.15,21.39,21.39,0,0,1,2.73-.06,10.77,10.77,0,0,1,2.73.54,11.42,11.42,0,0,1,2,1,8.63,8.63,0,0,1,1.8,1.47,4.37,4.37,0,0,1,1.05,1.83,2.85,2.85,0,0,1-.27,2.07q-.84,1.5-1.86,1.47a10.47,10.47,0,0,1-2.22-.33A6.61,6.61,0,0,1,219.3,32a6.61,6.61,0,0,0-1.56-.54,7.06,7.06,0,0,0-3.6.3,10.3,10.3,0,0,0-5,3.78V44.2q0,1.62,0,3.36a11,11,0,0,1-.48,3.15,4.76,4.76,0,0,1-1.5,2.28,4.22,4.22,0,0,1-3,.75,2.68,2.68,0,0,1-1.92-1.05,4.29,4.29,0,0,1-1-1.95q-.12-.9-.18-2.16t-.09-2.64q0-1.38,0-2.79V31.78Z"/><path class="cls-1" d="M253.92,26.56a3.72,3.72,0,0,1,.09,2.52,2.52,2.52,0,0,1-1.41,1.8,6.1,6.1,0,0,1-1.44.39q-.9.15-1.95.27t-2.07.18q-1,.06-1.74.06.06,1.8.12,3.69t.12,3.69q.06,1.8.06,3.45t-.06,3v2.07a16.35,16.35,0,0,1-.15,2.25,9,9,0,0,1-.45,1.89,1.66,1.66,0,0,1-.9,1.05,5.64,5.64,0,0,1-3.39.45A3.38,3.38,0,0,1,238.56,52a6,6,0,0,1-.72-1.83,15.19,15.19,0,0,1-.33-2.16,19.75,19.75,0,0,1-.06-2.16q0-1.05,0-1.83.06-2.52.09-5.73t0-6.45h-.9l-1.83,0a20.75,20.75,0,0,1-2.22-.18,15.14,15.14,0,0,1-2.07-.42,2.57,2.57,0,0,1-1.38-.81,3.46,3.46,0,0,1-.81-1.68,3.51,3.51,0,0,1,.12-1.71,3.82,3.82,0,0,1,.87-1.44,2.73,2.73,0,0,1,1.38-.81,12.77,12.77,0,0,1,3.06-.33q2,0,3.72,0-.06-.6-.06-1.17a10,10,0,0,0-.06-1.11q-.06-.72-.06-1.83a16.56,16.56,0,0,1,.15-2.22A10.07,10.07,0,0,1,238,16,3.38,3.38,0,0,1,242.61,14,3.74,3.74,0,0,1,244,15a4.19,4.19,0,0,1,.81,1.53,14.19,14.19,0,0,1,.3,1.71q.12,1,.15,2.07t0,2.16v2h.6q.9,0,2.1-.06a15.57,15.57,0,0,1,2.37.06,6.56,6.56,0,0,1,2.13.57A2.92,2.92,0,0,1,253.92,26.56Z"/><path class="cls-1" d="M297.66,30.88a12.71,12.71,0,0,1,3,2.67,11.66,11.66,0,0,1,1.95,3.75,17,17,0,0,1,.81,5,11.08,11.08,0,0,1-.9,4.62,9.65,9.65,0,0,1-2.94,3.72,12.29,12.29,0,0,1-5.25,2.25,31.12,31.12,0,0,1-4.08.66,41.58,41.58,0,0,1-4.2.24q-2.34.06-4.83,0a25.51,25.51,0,0,1-4.83-.51,2.42,2.42,0,0,1-1.47-1,5.13,5.13,0,0,1-.63-1.71,2.64,2.64,0,0,1-.24-1.08V15.34a4.31,4.31,0,0,1,.69-2.61,4.1,4.1,0,0,1,1.83-1.38,8.43,8.43,0,0,1,2.58-.54q1.44-.09,3-.09l2.43,0q1.23,0,2.49,0,2,.06,4.11.33a17.91,17.91,0,0,1,4.05,1,12.77,12.77,0,0,1,1.92.84,4.63,4.63,0,0,1,1.62,1.2,11.07,11.07,0,0,1,3.66,8.73,10.52,10.52,0,0,1-1.29,4.53A9.29,9.29,0,0,1,297.66,30.88Zm-10.5,15.9q1.86-.12,3.78-.42a4.28,4.28,0,0,0,2.64-1.14A5.79,5.79,0,0,0,294.69,43a7.31,7.31,0,0,0,.18-2.64,7.41,7.41,0,0,0-.78-2.58,5.28,5.28,0,0,0-1.65-2,7.18,7.18,0,0,0-3.18-1.41,19.6,19.6,0,0,0-3.54-.33q-.84,0-1.53,0a5.06,5.06,0,0,0-1.2.18,1.22,1.22,0,0,0-.75.57A2.6,2.6,0,0,0,282,36.1a20.31,20.31,0,0,1,0,3.12q-.12,1.56-.12,3,0,.84,0,1.83a2.14,2.14,0,0,0,.63,1.65,3.6,3.6,0,0,0,1.92.9A12.16,12.16,0,0,0,287.16,46.78Zm1.2-28.8-3.09-.09a6.35,6.35,0,0,0-1.92.18,1.44,1.44,0,0,0-1,.9,5.36,5.36,0,0,0-.21,2.07q0,1.14,0,2.25t0,2.19a2,2,0,0,0,.78,1.77,3.92,3.92,0,0,0,2,.69,12.63,12.63,0,0,0,2.46,0q1.29-.12,2.25-.3a6.2,6.2,0,0,0,3.33-1.47,4.89,4.89,0,0,0,1.35-3.27q.24-2.7-1.41-3.75A9,9,0,0,0,288.36,18Z"/><path class="cls-1" d="M315.42,48.22q-.06.3-.09.57a5.17,5.17,0,0,0,0,.57l-.36,1.26a1.39,1.39,0,0,1-.18.3l-.18.36a2.35,2.35,0,0,1-1.08,1.08,4.48,4.48,0,0,1-3.06.36,3.13,3.13,0,0,1-1.62-.6,2.27,2.27,0,0,1-.84-1,6.84,6.84,0,0,1-.36-1.2,3.8,3.8,0,0,1-.18-1.08V15.22q0-.42,0-.75a6,6,0,0,1,.09-.63,5,5,0,0,1,.15-.72q.09-.3.21-.66a1.82,1.82,0,0,1,.66-1,2.75,2.75,0,0,1,1.38-.6,4.09,4.09,0,0,1,.78-.15q.36,0,.84,0a4.82,4.82,0,0,1,1.92.48,2.74,2.74,0,0,1,1.2,1.32,5,5,0,0,1,.6,2.22q.06.6.09,1.8t0,1.8v.24q.12,1.92.12,3.69t-.06,3.87q0,2,0,3.93t0,3.75v12.6a3.19,3.19,0,0,0,0,.45,3.19,3.19,0,0,1,0,.45A5,5,0,0,1,315.42,48.22Z"/><path class="cls-1" d="M328.08,25.9a16.8,16.8,0,0,1,4.14-1.38,14.09,14.09,0,0,1,4.29-.18,13.88,13.88,0,0,1,4.14,1.14A12.88,12.88,0,0,1,344.34,28a13.54,13.54,0,0,1,2.4,3.33,17.89,17.89,0,0,1,1.5,3.81,13,13,0,0,1,.3,6.66A20.14,20.14,0,0,1,346.08,48,10.56,10.56,0,0,1,344,50.41a12,12,0,0,1-2.61,1.71,14.49,14.49,0,0,1-3.9,1.17,16.55,16.55,0,0,1-4.08.15,13.53,13.53,0,0,1-6.33-1.8,13.18,13.18,0,0,1-4.38-4.14,14.47,14.47,0,0,1-2.16-5.73,15.66,15.66,0,0,1,.39-6.57,15.48,15.48,0,0,1,2.79-5.85A12.47,12.47,0,0,1,328.08,25.9Zm1.8,8A5.5,5.5,0,0,0,328.5,36a9.71,9.71,0,0,0-.6,2.61,8.23,8.23,0,0,0,.21,2.7,7.59,7.59,0,0,0,1.05,2.43,4.4,4.4,0,0,0,2.16,1.5,11.2,11.2,0,0,0,3.24.72,4.68,4.68,0,0,0,3.36-1A7.53,7.53,0,0,0,340.11,42a8.78,8.78,0,0,0,.69-3.78,7.47,7.47,0,0,0-1.08-3.72,4.33,4.33,0,0,0-2-1.77,7,7,0,0,0-2.7-.6,8.37,8.37,0,0,0-2.79.42A6.16,6.16,0,0,0,329.88,33.94Z"/><path class="cls-1" d="M376,29.92a3.82,3.82,0,0,1,.51,1.8,3.35,3.35,0,0,1-.45,1.8A2.88,2.88,0,0,1,374.49,35a3.52,3.52,0,0,1-2.19.09,2.6,2.6,0,0,1-1-.42l-.87-.63a8.11,8.11,0,0,0-1-.63A4.43,4.43,0,0,0,368,33a7.94,7.94,0,0,0-2,0,6.71,6.71,0,0,0-1.89.48,5,5,0,0,0-2.1,2,8.27,8.27,0,0,0-1,2.88,8.47,8.47,0,0,0,.09,3.09,5.65,5.65,0,0,0,1.29,2.64,5.45,5.45,0,0,0,1.89,1.38,7.31,7.31,0,0,0,2.25.66,7.74,7.74,0,0,0,2,0,12.94,12.94,0,0,0,2-.45,15.22,15.22,0,0,0,1.62-.81,5,5,0,0,1,1.74-.63,2.34,2.34,0,0,1,1.68.57,3.07,3.07,0,0,1,.84,1.38,3.77,3.77,0,0,1,.09,1.71,3.26,3.26,0,0,1-.69,1.56,7.81,7.81,0,0,1-2,1.71,10.81,10.81,0,0,1-2.52,1.17,11.34,11.34,0,0,1-3.21.54,22.45,22.45,0,0,1-3.33-.12q-.72-.12-1.5-.3t-1.5-.42a11.86,11.86,0,0,1-4.41-2.73,12.36,12.36,0,0,1-2.7-4,13.88,13.88,0,0,1-1.05-4.74,15.06,15.06,0,0,1,.6-5,15.83,15.83,0,0,1,1.65-4,9.82,9.82,0,0,1,2.34-2.67,11.45,11.45,0,0,1,3-1.68,30.53,30.53,0,0,1,3.72-1.11,11.83,11.83,0,0,1,4.44,0,12,12,0,0,1,4.2,1.56A6.69,6.69,0,0,1,376,29.92Z"/><path class="cls-1" d="M393.3,39.22q1.32,1.38,1.95,2t.9.93a1.77,1.77,0,0,0,.39.36,2.2,2.2,0,0,1,.42.36l1,.93q.66.63,2,2a9.23,9.23,0,0,1,1.77,2.49,3.22,3.22,0,0,1-.15,3,3,3,0,0,1-1.08,1.17,2.22,2.22,0,0,1-1.29.27,4.17,4.17,0,0,1-1.44-.42,8.8,8.8,0,0,1-1.47-.9,19.35,19.35,0,0,1-2.64-2.37q-1.26-1.35-2-2.07a6.63,6.63,0,0,1-.66-.72,2.25,2.25,0,0,0-.24-.21,2.25,2.25,0,0,1-.24-.21q-.42-.42-.9-.84t-1-.9v2.34a5.44,5.44,0,0,0,.06,1,5,5,0,0,1-.06.9,4.79,4.79,0,0,0-.18,1.26q-.06.3-.12.57a3.71,3.71,0,0,1-.18.57l-.09.18a.42.42,0,0,0,0,.18l-.09.18-.09.18a3.56,3.56,0,0,1-1,1.14A4.07,4.07,0,0,1,384,53a2.63,2.63,0,0,1-1.38-.66,1.73,1.73,0,0,1-.72-1,5.81,5.81,0,0,1-.21-.63,5.81,5.81,0,0,0-.21-.63,1.54,1.54,0,0,1-.12-.57V14.14a4.37,4.37,0,0,1,.06-.72,7,7,0,0,1,.15-.69,5.81,5.81,0,0,1,.21-.63,2.82,2.82,0,0,1,.6-1,2.16,2.16,0,0,1,.63-.45l.63-.27a5.83,5.83,0,0,1,.69-.09l.75,0a3.36,3.36,0,0,1,1.68.48,3.18,3.18,0,0,1,1.14,1.38,5.7,5.7,0,0,1,.48,2.22q.06.6.12,1.83t.06,1.83v.24q.06,2,.06,3.78V26q-.06,2.1-.06,4v4.41q.48-.48,1-.9a9.56,9.56,0,0,0,.9-.9,4.51,4.51,0,0,0,.48-.42l.66-.66q.78-.78,2-2.13A19.35,19.35,0,0,1,396.24,27a7.07,7.07,0,0,1,2.91-1.32q1.41-.24,2.37,1.44a3.22,3.22,0,0,1,.15,3,11.34,11.34,0,0,1-1.77,2.61q-1.32,1.38-2,2l-1,.9a2.48,2.48,0,0,1-.42.33,1.94,1.94,0,0,0-.39.33l-.9.9Q394.62,37.84,393.3,39.22Z"/><path class="cls-1" d="M453.36,42.37a17.37,17.37,0,0,1-.72,3.54A11.71,11.71,0,0,1,451,49.15a9.79,9.79,0,0,1-2.94,2.67,8.4,8.4,0,0,1-2.13,1,24.3,24.3,0,0,1-2.58.66,20.83,20.83,0,0,1-2.67.36,20.47,20.47,0,0,1-2.46,0,15.37,15.37,0,0,1-8.73-2.61,16.26,16.26,0,0,1-5.1-6,24.16,24.16,0,0,1-2.28-7.83,40.83,40.83,0,0,1-.21-8.07,32.23,32.23,0,0,1,.81-4.92,23.64,23.64,0,0,1,1.86-5.1,19.06,19.06,0,0,1,3.06-4.44,12,12,0,0,1,4.35-3,18,18,0,0,1,5.13-1.23,20.39,20.39,0,0,1,5.52.21,17.1,17.1,0,0,1,5.1,1.74,10,10,0,0,1,3.75,3.36,13.08,13.08,0,0,1,1.5,3.78,10.3,10.3,0,0,1,.18,4.26,3.66,3.66,0,0,1-1.26,2.49,2.85,2.85,0,0,1-2.1.54,4.54,4.54,0,0,1-2.19-1A3.91,3.91,0,0,1,446.22,24a15.41,15.41,0,0,0-1-2.55,5,5,0,0,0-1.86-1.95,6.59,6.59,0,0,0-3-1,7.86,7.86,0,0,0-3.06.36,8.87,8.87,0,0,0-2.76,1.5,9.43,9.43,0,0,0-2.13,2.34,12,12,0,0,0-1.56,3.27,22,22,0,0,0-.78,3.66,21.74,21.74,0,0,0-.15,3.78,23.39,23.39,0,0,0,.45,3.63,21.74,21.74,0,0,0,2,5.52,5.93,5.93,0,0,0,1.47,1.71,7.89,7.89,0,0,0,2.07,1.2,8.77,8.77,0,0,0,2.4.57,6.82,6.82,0,0,0,2.4-.18,8.53,8.53,0,0,0,2.64-1.11A5.53,5.53,0,0,0,445,43.06a6,6,0,0,0,.81-2.1,13.23,13.23,0,0,0,.21-2.4V38.5q-.78,0-1.38,0l-.9,0a7.19,7.19,0,0,1-2.58-.48,3.07,3.07,0,0,1-1.62-1.14,2.32,2.32,0,0,1-.6-1.62q0-.36,0-.69t.09-.69a4.55,4.55,0,0,1,.78-1.2,2.78,2.78,0,0,1,1.14-.48q.36-.12.72-.21a7.17,7.17,0,0,1,.84-.15,4.75,4.75,0,0,1,.78-.06h6.3a4.76,4.76,0,0,1,1.53.15,3.14,3.14,0,0,1,1.35.63l.36.48a2.35,2.35,0,0,1,.3.54,5.24,5.24,0,0,1,.3,1.32q.06.36.09.75t0,.69v2.46Q453.54,40.54,453.36,42.37Z"/><path class="cls-1" d="M483,38.74q-.12,2-.24,4a18.84,18.84,0,0,1-.63,3.87A10.78,10.78,0,0,1,480.57,50a7.31,7.31,0,0,1-3,2.4,12.88,12.88,0,0,1-3.6,1.17,19.09,19.09,0,0,1-3.84.27,15.35,15.35,0,0,1-3.72-.57,12.51,12.51,0,0,1-3.24-1.41,7.27,7.27,0,0,1-2.34-2.34,13,13,0,0,1-1.41-3.12,18.18,18.18,0,0,1-.69-3.48q-.18-1.8-.24-3.36a69.42,69.42,0,0,1,0-8.16V29.59a12.61,12.61,0,0,1,.15-1.95,7,7,0,0,1,.51-1.77,2.47,2.47,0,0,1,1.2-1.23,3.32,3.32,0,0,1,3.33-.12q1.53.84,1.83,3.48a20.89,20.89,0,0,1,.15,3.06,29.47,29.47,0,0,0,.09,3.06q.06,2,.12,4.41a14.29,14.29,0,0,0,.69,4.23,5.1,5.1,0,0,0,2.1,2.79q1.47.93,4.41.09a2.72,2.72,0,0,0,1.83-2.1,20.6,20.6,0,0,0,.45-5q0-1.44-.06-3.18t-.06-3.45q0-1.71.09-3.18a10.22,10.22,0,0,1,.33-2.25,2.58,2.58,0,0,1,1.26-1.62,4.35,4.35,0,0,1,2-.57,4.23,4.23,0,0,1,2,.45,2.57,2.57,0,0,1,1.32,1.56,9.89,9.89,0,0,1,.51,2.43q.15,1.47.21,3.18t0,3.48Q483.06,37.18,483,38.74Z"/><path class="cls-1" d="M495.48,30.28q0,1.68,0,3.78t0,4.35v4.44q0,2.19-.06,4-.06.9-.18,2a7.53,7.53,0,0,1-.48,1.95,3.39,3.39,0,0,1-1.11,1.47,3,3,0,0,1-2,.51A3,3,0,0,1,489,51.16a9.9,9.9,0,0,1-.93-4.2q0-1.38,0-3.18T488,40.12q0-1.86,0-3.63V33.28q0-.84,0-2t0-2.46a15.82,15.82,0,0,1,.3-2.43,5.24,5.24,0,0,1,.78-2,2.75,2.75,0,0,1,1.2-.75,5,5,0,0,1,1.65-.27,4.8,4.8,0,0,1,1.68.3,2.31,2.31,0,0,1,1.17.84,2.74,2.74,0,0,1,.36,1q.12.66.21,1.47t.12,1.68Q495.48,29.56,495.48,30.28ZM493.2,18.16a3.58,3.58,0,0,1-3.09-.39,3.83,3.83,0,0,1-1.53-2.61,3.71,3.71,0,0,1,.18-2.22A3.14,3.14,0,0,1,490,11.47a3.26,3.26,0,0,1,1.92-.45,4.07,4.07,0,0,1,2.16.84,4.31,4.31,0,0,1,1.47,1.68,3.11,3.11,0,0,1,.3,1.86,3.29,3.29,0,0,1-.81,1.65A3.9,3.9,0,0,1,493.2,18.16Z"/><path class="cls-1" d="M519.48,11.08a4.11,4.11,0,0,1,2-.09,3.24,3.24,0,0,1,1.5.81,3.88,3.88,0,0,1,1,1.5,5.71,5.71,0,0,1,.33,2q.06,3,0,4.68t0,2.94V46.72a23.69,23.69,0,0,1-.21,3.51,4.42,4.42,0,0,1-.72,2,2.74,2.74,0,0,1-1.53.93,10.75,10.75,0,0,1-2.67.27H515q-6.48,0-10.23-3.06t-4-9.72a14.09,14.09,0,0,1,.72-5.28,10.79,10.79,0,0,1,6.57-6.75,14.65,14.65,0,0,1,5.55-.87H517V15.13a8,8,0,0,1,.18-1.74,3.06,3.06,0,0,1,.72-1.41A3.32,3.32,0,0,1,519.48,11.08ZM509,44.38q1.26,1.74,4.56,1.92a9,9,0,0,0,1.26,0,5.63,5.63,0,0,0,1.08-.15,7.72,7.72,0,0,0,1-.18V34.9a33,33,0,0,0-3.81-.45,5,5,0,0,0-3.39,1.23,4.68,4.68,0,0,0-1.38,1.83,6.66,6.66,0,0,0-.54,2.34,8.3,8.3,0,0,0,.24,2.43A6,6,0,0,0,509,44.38Z"/><path class="cls-1" d="M549.9,44.8a9,9,0,0,1,1.47-.24,3.13,3.13,0,0,1,1.38.18,2.31,2.31,0,0,1,1,.81,2.64,2.64,0,0,1,.42,1.59,2.84,2.84,0,0,1-.36,1.38,5.24,5.24,0,0,1-.9,1.2,6,6,0,0,1-1.2.93,9.24,9.24,0,0,1-1.26.63,17.68,17.68,0,0,1-4,1.2,19.86,19.86,0,0,1-4.65.3,18.71,18.71,0,0,1-6.21-1.29A9.39,9.39,0,0,1,531,47.62a13.93,13.93,0,0,1-1.86-5.88,20.58,20.58,0,0,1,.3-6.12A14,14,0,0,1,531.69,30a12.71,12.71,0,0,1,3.81-3.51,12.35,12.35,0,0,1,6.06-1.62A14.79,14.79,0,0,1,548,26.14a12.84,12.84,0,0,1,3.66,2.43,10,10,0,0,1,2.46,3.69,6.12,6.12,0,0,1,.39,1.32,13.75,13.75,0,0,1,.21,1.65,12.2,12.2,0,0,1,0,1.71,5.54,5.54,0,0,1-.3,1.5,4.73,4.73,0,0,1-.9,1.68,3.32,3.32,0,0,1-1.38.9,7.79,7.79,0,0,1-2,.39q-1.17.09-2.79.15-1.44.06-2.7.06l-2.58,0-2.73-.06-3.15-.09a3.08,3.08,0,0,0,.33,2.07A4.22,4.22,0,0,0,537.9,45a7.22,7.22,0,0,0,2,.87,11.15,11.15,0,0,0,2.22.36,13.2,13.2,0,0,0,3.9-.33Q547.92,45.4,549.9,44.8Zm-2.58-11.64a7.47,7.47,0,0,0-2.4-1.92,4.62,4.62,0,0,0-2-.39,7.42,7.42,0,0,0-2,.33A5.54,5.54,0,0,0,538,33a4.6,4.6,0,0,0-.42.57q-.3.45-.57.93a4.23,4.23,0,0,0-.39.9q-.12.42.12.42h11.76a3.79,3.79,0,0,0-1.14-2.64Z"/><path class="cls-2" d="M21.82,17.09H10a4.82,4.82,0,0,1-4.82-4.82V4.83A4.82,4.82,0,0,1,10,0H21.82a4.82,4.82,0,0,1,4.82,4.83v7.44A4.82,4.82,0,0,1,21.82,17.09ZM10.21,12H21.58v-7H10.21Z"/><path class="cls-2" d="M49.41,17.09H37.56a4.82,4.82,0,0,1-4.82-4.82V4.83A4.82,4.82,0,0,1,37.56,0H49.41a4.82,4.82,0,0,1,4.82,4.83v7.44A4.82,4.82,0,0,1,49.41,17.09ZM37.8,12H49.17v-7H37.8Z"/><path class="cls-2" d="M50.16,71.19H9.22A9.23,9.23,0,0,1,0,62V15.23A9.23,9.23,0,0,1,9.22,6H50.16a9.24,9.24,0,0,1,9.22,9.22V62A9.24,9.24,0,0,1,50.16,71.19ZM9.22,11.08a4.16,4.16,0,0,0-4.16,4.15V62a4.16,4.16,0,0,0,4.16,4.15H50.16A4.16,4.16,0,0,0,54.32,62V15.23a4.16,4.16,0,0,0-4.16-4.15Z"/><rect class="cls-3" x="35.27" y="2.53" width="16.43" height="12.03" rx="3"/><rect class="cls-3" x="7.68" y="2.53" width="16.43" height="12.03" rx="3"/><rect class="cls-3" x="2.53" y="8.54" width="54.32" height="60.11" rx="8.73"/></g></g></svg>