<svg xmlns="http://www.w3.org/2000/svg" xmlns:xlink="http://www.w3.org/1999/xlink" viewBox="0 0 133.92 129.43"><defs><style>.cls-1{fill:#ea13ff;}.cls-2{fill:#f43fff;}.cls-3{fill:url(#무제_그라디언트_5);}.cls-4{opacity:0.5;fill:url(#무제_그라디언트_3);}.cls-5{fill:#9a1f93;}.cls-6{fill:#fff;}.cls-7,.cls-8,.cls-9{fill:none;}.cls-7{stroke:#9a1f93;}.cls-7,.cls-8{stroke-linecap:round;stroke-linejoin:round;stroke-width:2.09px;}.cls-8{stroke:#ea13ff;}.cls-9{stroke:#898989;stroke-miterlimit:10;stroke-width:2px;}</style><linearGradient id="무제_그라디언트_5" x1="66.95" y1="-747.53" x2="66.95" y2="-654.01" gradientTransform="matrix(1, 0, 0, -1, 0, -634.5)" gradientUnits="userSpaceOnUse"><stop offset="0" stop-color="#fff" stop-opacity="0.5"/><stop offset="0.5" stop-color="#fff" stop-opacity="0"/><stop offset="1" stop-color="#fff" stop-opacity="0"/></linearGradient><linearGradient id="무제_그라디언트_3" x1="74.07" y1="-634.99" x2="67.68" y2="-667.89" gradientTransform="matrix(1, 0, 0, -1, 0, -634.5)" gradientUnits="userSpaceOnUse"><stop offset="0" stop-color="#fff"/><stop offset="1" stop-color="#fff" stop-opacity="0.39"/></linearGradient></defs><g id="레이어_2" data-name="레이어 2"><g id="Layer_1" data-name="Layer 1"><path class="cls-1" d="M16.48,115.48c-8.3,0-15.59-6.86-15.59-14.67,0,0,0-10.38,0-16.67,0-2.41.23-4.87,2-4.87,1,0,1.84,1,2.82,2.43a6.8,6.8,0,0,0,5.59,3.06h.43c1.79,0,2.83-.73,4.24-2.17,2.2-2.26,2.31-6.2,2.42-24.42C18.26,40,18.16,36,16,33.78c-1.41-1.44-2.45-2.18-4.23-2.18l-.44,0a6.77,6.77,0,0,0-5.59,3.05c-1,1.46-1.83,2.43-2.82,2.43C1.15,37.1.92,34.64.92,32.23c0-6.28,0-16.67,0-16.67C.89,7.75,8.18.89,16.48.89h84.93a14.53,14.53,0,0,1,14.36,14.67S116,32.61,116,33c0,5.37,1.64,5.37,3.23,5.37,1.75,0,2.35-.91,3.17-2.18.93-1.44,2.1-3.22,5.21-3.22,5.38,0,5.4,8.5,5.43,21.37l0,4,0,3.69c0,12.87-.05,21.37-5.43,21.37-3.12,0-4.28-1.79-5.21-3.23-.83-1.27-1.43-2.19-3.17-2.19C117.6,78,116,78,116,83.4c0,.37-.19,17.42-.19,17.42a14.54,14.54,0,0,1-14.36,14.66Z"/><path class="cls-2" d="M16.48,6.07h84.93a11.88,11.88,0,0,1,11.73,12c.06,5.89.19,17.07.19,17.42,0,5.63,1.75,8,5.86,8,3.16,0,4.42-2,5.36-3.38s1.31-2,3-2c2.76,0,2.77,9.07,2.8,18.67,0,.7,0,2,0,2.9,0-.45,0-.88,0-1.33,0,0,0-2.87,0-4.08,0-9.6,0-18.67-2.8-18.67-1.71,0-2.18.72-3,2S122.35,41,119.19,41c-4.11,0-5.86-2.41-5.86-8,0-.34-.13-11.53-.19-17.42a11.88,11.88,0,0,0-11.73-12H16.48c-6.78,0-13,5.72-13,12V18C3.58,11.74,9.73,6.07,16.48,6.07Z"/><path class="cls-2" d="M3.54,86.65c0-.33,0-.62,0-.87a9.36,9.36,0,0,0,7.56,4.14c.2,0,.4,0,.59,0,3,0,4.65-1.46,6.11-3,3-3.1,3.06-7.1,3.17-26.28V59.45c-.11,18.1-.2,22-3.17,25-1.46,1.5-3.14,3-6.11,3l-.59,0a9.36,9.36,0,0,1-7.56-4.14c0,.26,0,.54,0,.86,0,6.29,0,16.67,0,16.67v.09C3.53,97.45,3.54,91.05,3.54,86.65Z"/><path class="cls-3" d="M16.48,112.82c-6.78,0-13-5.73-13-12,0,0,0-10.38,0-16.67,0-.33,0-.61,0-.87a9.37,9.37,0,0,0,7.56,4.15l.6,0c3,0,4.64-1.47,6.1-3,3-3.1,3.06-7.1,3.17-26.27C20.88,39,20.86,35,17.82,31.9c-1.46-1.5-3.14-3-6.1-3-.2,0-.4,0-.6,0A9.36,9.36,0,0,0,3.56,33.1c0-.29,0-.58,0-.87,0-6.29,0-16.67,0-16.67,0-6.28,6.18-12,13-12h84.93a11.88,11.88,0,0,1,11.73,12c.06,5.89.19,17.08.19,17.42,0,5.64,1.75,8,5.86,8,3.16,0,4.42-2,5.36-3.38s1.31-2,3-2c2.76,0,2.77,9.07,2.8,18.68,0,1.2,0,4.08,0,4.08,0,1.26,0,2.51,0,3.72,0,9.6,0,18.67-2.8,18.67-1.71,0-2.18-.72-3-2s-2.2-3.38-5.36-3.38c-4.11,0-5.86,2.41-5.86,8,0,.34-.13,11.52-.19,17.39a11.89,11.89,0,0,1-11.73,12H16.48Z"/><path class="cls-4" d="M3.56,33.1A9.36,9.36,0,0,1,11.12,29c.2,0,.4,0,.6,0,3,0,4.64,1.46,6.1,3,2.87,2.94,3.05,10.94,3.16,27.55,32.22,7.24,46.82-3.2,80.87-3.2,20.34,0,14.33,1.23,28.54,3.4,0-.43,0-.85,0-1.29,0,0,0-2.87,0-4.08,0-9.6,0-18.67-2.8-18.67-1.71,0-2.18.72-3,2S122.36,41,119.2,41c-4.11,0-5.85-2.41-5.85-8.05,0-.34-.14-11.52-.2-17.41a11.88,11.88,0,0,0-11.73-12H16.48c-6.78,0-13,5.72-13,12,0,0,0,10.38,0,16.67C3.54,32.56,3.55,32.85,3.56,33.1Z"/><path class="cls-5" d="M101.41,1.79a13.63,13.63,0,0,1,13.47,13.77s.18,17,.18,17.42c0,5.56,1.75,6.27,4.13,6.27,4.58,0,3.26-5.41,8.38-5.41,4.93,0,4.47,10,4.55,24.17v.36c-.08,14.13.38,24.17-4.55,24.17-5.12,0-3.8-5.41-8.38-5.41-2.38,0-4.13.71-4.13,6.27,0,.37-.18,17.41-.18,17.41a13.62,13.62,0,0,1-13.47,13.78H16.48c-7.44,0-14.69-6.16-14.69-13.78,0,0,0-10.38,0-16.67,0-3,.46-4,1.06-4S4.34,81.3,5,82.2a7.59,7.59,0,0,0,6.27,3.46h.49c2.22,0,3.47-1,4.88-2.44,2.48-2.54,2.56-6.32,2.67-25-.11-18.71-.19-22.49-2.67-25-1.41-1.45-2.66-2.45-4.88-2.45l-.49,0A7.58,7.58,0,0,0,5,34.17c-.61.91-1.43,2-2.08,2s-1.06-1-1.06-4c0-6.29,0-16.67,0-16.67C1.79,8,9,1.79,16.48,1.79h84.93m0-1.79H16.48C7.7,0,0,7.27,0,15.56c0,0,0,10.39,0,16.67C0,34,0,38,2.87,38c1.54,0,2.64-1.46,3.56-2.82a5.8,5.8,0,0,1,4.9-2.66h.38c1.49,0,2.32.59,3.6,1.91,2,2,2.06,5.87,2.16,23.79C17.36,76.1,17.27,80,15.31,82,14,83.29,13.2,83.88,11.7,83.88l-.37,0a5.79,5.79,0,0,1-4.9-2.66c-.92-1.37-2-2.82-3.56-2.82A2.55,2.55,0,0,0,.41,80.5,13,13,0,0,0,0,84.14c0,6.29,0,16.66,0,16.66,0,8.3,7.7,15.57,16.48,15.57h84.93a15.43,15.43,0,0,0,15.25-15.57c0-.67.19-17,.19-17.4,0-4.5,1-4.5,2.34-4.5,1.2,0,1.56.46,2.42,1.78s2.36,3.64,6,3.64c6.27,0,6.29-8.86,6.32-22.27,0-1.19,0-2.42,0-3.68V58c0-1.27,0-2.5,0-3.69,0-13.41-.05-22.26-6.32-22.26-3.61,0-5,2.18-6,3.62s-1.22,1.78-2.42,1.78c-1.36,0-2.34,0-2.34-4.48,0-.38-.18-16.74-.19-17.44A15.42,15.42,0,0,0,101.41,0Z"/><path class="cls-5" d="M46.56,90.19a10,10,0,0,1,0,1.22c0,.41-.08.82-.14,1.21a7.21,7.21,0,0,1-.66,2,4.45,4.45,0,0,1-1.41,1.65,5.55,5.55,0,0,1-2.2,1,14.68,14.68,0,0,1-2.44.31,5.76,5.76,0,0,1-.83,0,4.48,4.48,0,0,1-.82-.1,1,1,0,0,1-.48-.19.4.4,0,0,1-.14-.15.76.76,0,0,1-.09-.18.71.71,0,0,1-.08-.18l-.06-.21a1.22,1.22,0,0,1,0-.17.76.76,0,0,1,0-.15V85.8a.6.6,0,0,1,0-.22,1.89,1.89,0,0,1,.1-.41.63.63,0,0,1,.2-.3.8.8,0,0,1,.21-.13l.2-.09a.41.41,0,0,1,.22,0,.42.42,0,0,0,.26-.05l3,.07a4.68,4.68,0,0,1,2.1.55,5.57,5.57,0,0,1,1.59,1.29,6.24,6.24,0,0,1,1,1.76A6.85,6.85,0,0,1,46.56,90.19Zm-3.33,3.4a3.71,3.71,0,0,0,.5-1.24,5.57,5.57,0,0,0,.15-1.42,6.07,6.07,0,0,0-.2-1.41,4.8,4.8,0,0,0-.5-1.22,2.06,2.06,0,0,0-.64-.64,3.19,3.19,0,0,0-.88-.39,6.28,6.28,0,0,0-1-.19c-.36,0-.71,0-1.06,0,0,.35,0,.68,0,1v1c0,.43,0,.84,0,1.25v4.82c.37,0,.73,0,1.06-.06a4.16,4.16,0,0,0,1-.21,3,3,0,0,0,.87-.45A3.07,3.07,0,0,0,43.23,93.59Z"/><path class="cls-5" d="M50.47,86.87l0,2.8h4.2a2.7,2.7,0,0,1,.41.06l.39.1a1.23,1.23,0,0,1,.5.32.84.84,0,0,1,.18.52v.21a.64.64,0,0,1,0,.2.68.68,0,0,1-.24.36.57.57,0,0,1-.34.18,1.87,1.87,0,0,1-.46.09,2.83,2.83,0,0,1-.5,0H53.7l-3.3,0,0,3.5,3.55,0h1.34a1.66,1.66,0,0,0,.26.05.85.85,0,0,1,.23,0,1.07,1.07,0,0,1,.35.2.87.87,0,0,1,.24.38,1,1,0,0,1,0,.18.5.5,0,0,1,0,.21.9.9,0,0,1-.17.52,1,1,0,0,1-.5.32,2.23,2.23,0,0,1-.83.16l-.41,0h-.52c-.92,0-1.89,0-2.89,0H49.25a1.06,1.06,0,0,1-.68-.15.77.77,0,0,1-.3-.34.12.12,0,0,1-.05-.1s0,0,0-.06l0,0a.6.6,0,0,1-.06-.19,1.23,1.23,0,0,1,0-.19.88.88,0,0,1,0-.17L48,96v-.29a.66.66,0,0,1,0-.14.71.71,0,0,0,0-.14V94l0-2.57V89.08c0-.42,0-.8,0-1.14s0-.69,0-1.09v-.09q0-.2,0-.36c0-.12,0-.23,0-.35a1.63,1.63,0,0,1,.19-.7,2.75,2.75,0,0,1,.15-.25.71.71,0,0,1,.23-.18,1.12,1.12,0,0,1,.55-.16l.21,0v0h4.65a2.75,2.75,0,0,0,.41,0l.41,0a2.58,2.58,0,0,1,.39,0,3,3,0,0,1,.4.12,1.1,1.1,0,0,1,.5.3,1,1,0,0,1,.16.5V86a.41.41,0,0,1,0,.19.62.62,0,0,1-.21.37L56,86.6a.66.66,0,0,1-.19.09.87.87,0,0,1-.22,0l-.23,0a.82.82,0,0,1-.26,0H54l-3.57,0Z"/><path class="cls-5" d="M66.08,96a.77.77,0,0,1,0,.25v.28a.59.59,0,0,1,0,.27,1.09,1.09,0,0,1-.14.23,1,1,0,0,1-.47.32,2.39,2.39,0,0,1-.8.15h-.41a3.13,3.13,0,0,0-.43,0h-.07c-.92,0-1.87,0-2.84,0a7.46,7.46,0,0,0-.81,0,5.06,5.06,0,0,1-.87,0,2.36,2.36,0,0,1-.78-.21A1,1,0,0,1,58,96.8a1.09,1.09,0,0,1-.05-.17.47.47,0,0,1,0-.17,6.89,6.89,0,0,1-.05-1.2c0-.39,0-.78,0-1.16l0-2.59V89.12c0-.43,0-.81,0-1.14s0-.7,0-1.11v-.09c0-.12,0-.24,0-.36s0-.23,0-.35a1.6,1.6,0,0,1,.2-.7.85.85,0,0,1,.37-.43,1,1,0,0,1,.56-.16h.24a1.66,1.66,0,0,1,.22,0,.58.58,0,0,1,.21.07A1.05,1.05,0,0,1,60,85a1.74,1.74,0,0,1,.2.3,1.53,1.53,0,0,1,.09.4l0,.23a1.49,1.49,0,0,1,0,.21.83.83,0,0,0,0,.22v.52l-.08,8.41,3.54,0h1.07l.25,0,.25,0,.22,0a.72.72,0,0,1,.32.18A.87.87,0,0,1,66.08,96Z"/><path class="cls-5" d="M78.56,96.16a2.05,2.05,0,0,1,0,.43.63.63,0,0,1-.13.39.55.55,0,0,1-.14.17.74.74,0,0,1-.21.13,1.45,1.45,0,0,1-1,.18,1.2,1.2,0,0,1-.45-.23l0,0,0,0,0,0a.12.12,0,0,0,0,0,1.14,1.14,0,0,1-.15-.17l-.1-.17-.09-.17-.09-.17-.07-.13A.35.35,0,0,1,76,96.1a.9.9,0,0,1-.09-.28l-.37-.88H73.07c-.81,0-1.63,0-2.45,0l-.38.88a.37.37,0,0,0,0,.14.58.58,0,0,1,0,.14l-.06.14-.06.13-.1.17-.1.17a.91.91,0,0,1-.09.17,1,1,0,0,1-.14.17.1.1,0,0,0-.06,0l0,0,0,0,0,0a1.2,1.2,0,0,1-.45.23,1.45,1.45,0,0,1-1-.18.74.74,0,0,1-.21-.13.55.55,0,0,1-.14-.17.63.63,0,0,1-.13-.39c0-.09,0-.16,0-.23l0-.2a1.68,1.68,0,0,1,.09-.32l0-.16,3.72-9.15.1-.29.09-.19a.63.63,0,0,0,.09-.22,3.13,3.13,0,0,1,.2-.41,1.22,1.22,0,0,1,.12-.19l.15-.18a.71.71,0,0,1,.3-.23,1.91,1.91,0,0,1,1.16,0,.81.81,0,0,1,.31.23c.08.11.17.23.26.37a3.13,3.13,0,0,1,.2.41.63.63,0,0,0,.09.22l.09.19.11.29,3.71,9.15,0,.16A1.68,1.68,0,0,1,78.56,96.16Zm-4.23-4.38c-.16-.34-.31-.7-.47-1.07s-.33-.74-.51-1.12a3.45,3.45,0,0,1-.14-.34l-.15-.33c0,.11-.08.22-.12.33l-.15.34c-.17.38-.34.75-.5,1.12s-.32.73-.48,1.07l-.32.79h3.16Z"/><path class="cls-5" d="M87.85,85.49a.55.55,0,0,1,0,.18.89.89,0,0,1-.06.2,3.33,3.33,0,0,1-.16.45,1.38,1.38,0,0,1-.27.42l-.13.21-.12.19-.23.3L84.6,90.75l-.41.51V96a.47.47,0,0,0,0,.17,1.41,1.41,0,0,1,0,.2.7.7,0,0,0-.06.17,1.54,1.54,0,0,1,0,.17.37.37,0,0,0,0,.11l0,0,0,0a1.15,1.15,0,0,1-.3.33,1.3,1.3,0,0,1-.9.08.74.74,0,0,1-.43-.17.86.86,0,0,1-.14-.13l-.11-.16a1.18,1.18,0,0,0-.07-.2,1.54,1.54,0,0,1,0-.17.59.59,0,0,1,0-.17v-5l-.39-.61-2.32-3.29L79,87.1c-.07-.11-.16-.23-.27-.37a4.41,4.41,0,0,1-.25-.43,1.63,1.63,0,0,1-.11-.23,1.35,1.35,0,0,1-.08-.24.69.69,0,0,1,0-.35.9.9,0,0,1,.21-.4,1.78,1.78,0,0,1,.38-.25.87.87,0,0,1,.57-.14.86.86,0,0,1,.34.07l.29.16.31.27.28.3.26.33a3.12,3.12,0,0,1,.25.35l.06.07.8,1.1c.25.35.51.73.79,1.14a.73.73,0,0,1,.1.14,2.72,2.72,0,0,1,.16.25l.14-.22a.64.64,0,0,1,.1-.14l.78-1.14q.38-.54.81-1.11l0-.07a3.75,3.75,0,0,0,.26-.33c.08-.11.16-.23.26-.35a1.9,1.9,0,0,1,.63-.55,1.4,1.4,0,0,1,.58-.25.79.79,0,0,1,.59.14l.21.13a.66.66,0,0,1,.17.12A1.49,1.49,0,0,1,87.85,85.49Z"/><path class="cls-6" d="M44.77,90.19a10,10,0,0,1,0,1.22c0,.41-.07.82-.13,1.21a7.21,7.21,0,0,1-.66,2,4.57,4.57,0,0,1-1.42,1.65,5.57,5.57,0,0,1-2.19,1,14.79,14.79,0,0,1-2.45.31,5.71,5.71,0,0,1-.83,0,4.27,4.27,0,0,1-.81-.1.89.89,0,0,1-.48-.19.54.54,0,0,1-.15-.15l-.09-.18a1.42,1.42,0,0,1-.08-.18,1.66,1.66,0,0,0-.06-.21l0-.17V85.8a.89.89,0,0,1,0-.22,1.43,1.43,0,0,1,.11-.41.62.62,0,0,1,.19-.3,1,1,0,0,1,.22-.13l.2-.09a.41.41,0,0,1,.22,0,.43.43,0,0,0,.26-.05l3,.07a4.68,4.68,0,0,1,2.11.55,5.57,5.57,0,0,1,1.59,1.29,6.21,6.21,0,0,1,1,1.76A6.85,6.85,0,0,1,44.77,90.19Zm-3.32,3.4a4.18,4.18,0,0,0,.5-1.24,6,6,0,0,0-.06-2.83,4.17,4.17,0,0,0-.5-1.22,2,2,0,0,0-.64-.64,3.12,3.12,0,0,0-.87-.39,6.7,6.7,0,0,0-1-.19c-.36,0-.72,0-1.06,0,0,.35,0,.68,0,1v1c0,.43,0,.84,0,1.25v4.82c.37,0,.72,0,1.06-.06a4,4,0,0,0,1-.21,2.93,2.93,0,0,0,.88-.45A3.45,3.45,0,0,0,41.45,93.59Z"/><path class="cls-6" d="M48.68,86.87l0,2.8h4.19a2.52,2.52,0,0,1,.41.06l.4.1a1.23,1.23,0,0,1,.5.32.84.84,0,0,1,.18.52v.21a.65.65,0,0,1,0,.2.8.8,0,0,1-.57.54,2,2,0,0,1-.47.09,2.73,2.73,0,0,1-.5,0h-.84l-3.3,0,0,3.5,3.56,0h1.34a1.32,1.32,0,0,0,.26.05.85.85,0,0,1,.22,0,1.25,1.25,0,0,1,.36.2.85.85,0,0,1,.23.38l0,.18a1.48,1.48,0,0,1,0,.21.84.84,0,0,1-.18.52,1,1,0,0,1-.5.32,2.22,2.22,0,0,1-.82.16l-.41,0h-.52c-.93,0-1.89,0-2.9,0H47.47a1,1,0,0,1-.68-.15.85.85,0,0,1-.31-.34.16.16,0,0,1,0-.1.13.13,0,0,0,0-.06l0,0a1.05,1.05,0,0,1,0-.19.62.62,0,0,1,0-.19l0-.17a.57.57,0,0,0,0-.18v-.29s0-.09,0-.14a.71.71,0,0,0,0-.14V94l0-2.57V89.08c0-.42,0-.8,0-1.14s0-.69,0-1.09v-.09c0-.13,0-.25,0-.36s0-.23,0-.35a1.65,1.65,0,0,1,.2-.7,1,1,0,0,1,.15-.25.67.67,0,0,1,.22-.18,1.12,1.12,0,0,1,.55-.16l.22,0v0h4.64a2.75,2.75,0,0,0,.41,0l.41,0a2.58,2.58,0,0,1,.4,0,2.91,2.91,0,0,1,.39.12,1.1,1.1,0,0,1,.5.3.92.92,0,0,1,.16.5V86a.58.58,0,0,1,0,.19.7.7,0,0,1-.22.37l-.15.09a.56.56,0,0,1-.19.09.79.79,0,0,1-.22,0l-.22,0a.92.92,0,0,1-.26,0H52.25l-3.57,0Z"/><path class="cls-6" d="M64.29,96a.54.54,0,0,1,0,.25v.28a.6.6,0,0,1-.06.27.79.79,0,0,1-.14.23,1,1,0,0,1-.46.32,2.49,2.49,0,0,1-.81.15h-.41a3.28,3.28,0,0,0-.43,0H62c-.91,0-1.86,0-2.84,0a7.28,7.28,0,0,0-.8,0,5.15,5.15,0,0,1-.88,0,2.37,2.37,0,0,1-.77-.21,1,1,0,0,1-.49-.55.58.58,0,0,1-.06-.17.88.88,0,0,1,0-.17,9.63,9.63,0,0,1-.05-1.2c0-.39,0-.78,0-1.16l0-2.59V89.12c0-.43,0-.81,0-1.14s0-.7,0-1.11v-.09l0-.36c0-.12,0-.23,0-.35a1.6,1.6,0,0,1,.19-.7.88.88,0,0,1,.38-.43.92.92,0,0,1,.55-.16h.24l.23,0a.53.53,0,0,1,.2.07,1.09,1.09,0,0,1,.21.14,1.72,1.72,0,0,1,.19.3,1.53,1.53,0,0,1,.09.4,1.57,1.57,0,0,0,0,.23,1.49,1.49,0,0,1,0,.21.57.57,0,0,0,0,.22v.52l-.07,8.41,3.53,0H63l.25,0,.25,0,.21,0a.67.67,0,0,1,.32.18A.79.79,0,0,1,64.29,96Z"/><path class="cls-6" d="M76.78,96.16a1.5,1.5,0,0,1,0,.2,1.62,1.62,0,0,1,0,.23.69.69,0,0,1-.12.39,1.15,1.15,0,0,1-.14.17.8.8,0,0,1-.22.13,1.44,1.44,0,0,1-1,.18,1.24,1.24,0,0,1-.44-.23s0,0-.06,0l0,0,0,0,0,0a.7.7,0,0,1-.14-.17s-.07-.11-.11-.17l-.08-.17-.1-.17c0-.05,0-.09-.07-.13a.34.34,0,0,1-.05-.14.9.9,0,0,1-.09-.28l-.38-.88H71.29c-.82,0-1.64,0-2.46,0l-.38.88a.74.74,0,0,0,0,.14.34.34,0,0,1,0,.14l-.06.14-.06.13-.1.17-.1.17a.56.56,0,0,1-.09.17.7.7,0,0,1-.14.17.12.12,0,0,0,0,0l0,0,0,0s0,0-.06,0a1.24,1.24,0,0,1-.44.23,1.44,1.44,0,0,1-1-.18.8.8,0,0,1-.22-.13.75.75,0,0,1-.14-.17.69.69,0,0,1-.12-.39,1.62,1.62,0,0,1,0-.23,1.5,1.5,0,0,1,0-.2l.09-.32.06-.16,3.71-9.15.11-.29a.66.66,0,0,1,.09-.19,1.65,1.65,0,0,0,.09-.22,3.14,3.14,0,0,1,.19-.41,1.27,1.27,0,0,1,.13-.19l.14-.18a.71.71,0,0,1,.3-.23,1.74,1.74,0,0,1,.59-.09,1.72,1.72,0,0,1,.58.09.71.71,0,0,1,.3.23l.27.37a3.14,3.14,0,0,1,.19.41,1.65,1.65,0,0,0,.09.22.66.66,0,0,1,.09.19l.11.29,3.71,9.15.06.16Zm-4.24-4.38-.47-1.07c-.16-.37-.33-.74-.51-1.12,0-.11-.09-.22-.14-.34s-.1-.22-.14-.33c0,.11-.08.22-.13.33s-.09.23-.14.34c-.18.38-.35.75-.51,1.12L70,91.78l-.33.79h3.17Z"/><path class="cls-6" d="M86.07,85.49a.54.54,0,0,1,0,.18.41.41,0,0,1-.06.2,3.33,3.33,0,0,1-.16.45,1.38,1.38,0,0,1-.27.42c0,.08-.09.14-.13.21l-.12.19-.23.3-2.29,3.31-.41.51V96a.47.47,0,0,0,0,.17,1.5,1.5,0,0,1,0,.2,1.54,1.54,0,0,0,0,.17,1.77,1.77,0,0,1-.06.17.3.3,0,0,0,0,.11l0,0s0,0,0,0a1.15,1.15,0,0,1-.3.33,1.27,1.27,0,0,1-.89.08.71.71,0,0,1-.43-.17.44.44,0,0,1-.14-.13.91.91,0,0,1-.11-.16c0-.07,0-.14-.07-.2a1.77,1.77,0,0,1-.06-.17.55.55,0,0,1,0-.17v-5l-.4-.61L77.4,87.42l-.19-.32c-.08-.11-.16-.23-.27-.37a2.3,2.3,0,0,1-.25-.43,1,1,0,0,1-.12-.23,1.35,1.35,0,0,1-.08-.24.82.82,0,0,1,0-.35.83.83,0,0,1,.22-.4,1.72,1.72,0,0,1,.37-.25.87.87,0,0,1,.57-.14.82.82,0,0,1,.34.07l.29.16.31.27a3.84,3.84,0,0,1,.28.3q.14.18.27.33l.25.35,0,.07.8,1.1c.25.35.52.73.79,1.14l.11.14.16.25.13-.22a1.36,1.36,0,0,1,.1-.14c.27-.4.54-.78.79-1.14s.51-.73.8-1.11l0-.07a3.59,3.59,0,0,0,.25-.33l.26-.35a2.12,2.12,0,0,1,.63-.55,1.44,1.44,0,0,1,.59-.25.81.81,0,0,1,.59.14l.2.13a.43.43,0,0,1,.17.12A1.28,1.28,0,0,1,86.07,85.49Z"/><circle class="cls-5" cx="68.16" cy="48.36" r="27.89"/><circle class="cls-6" cx="66.26" cy="48.36" r="27.89"/><circle class="cls-5" cx="44.57" cy="37.81" r="15.47"/><circle class="cls-6" cx="42.67" cy="37.81" r="15.47"/><polyline class="cls-7" points="67.86 33.52 67.86 50.31 74.24 54.97"/><line class="cls-7" x1="44.27" y1="30.24" x2="44.27" y2="39.44"/><circle class="cls-5" cx="44.27" cy="45.73" r="1.95"/><polyline class="cls-8" points="65.96 33.52 65.96 50.31 72.35 54.97"/><line class="cls-8" x1="42.62" y1="30.24" x2="42.62" y2="39.44"/><circle class="cls-1" cx="42.62" cy="45.73" r="1.95"/><rect class="cls-9" x="38.81" y="104.31" width="45.63" height="24.13" rx="12.06"/><rect class="cls-6" x="38.81" y="104.31" width="45.63" height="24.13" rx="12.06"/></g></g></svg>