<svg xmlns="http://www.w3.org/2000/svg" xmlns:xlink="http://www.w3.org/1999/xlink" viewBox="0 0 133.92 116.37"><defs><style>.cls-1{fill:#0173d7;}.cls-2{fill:#0193e0;}.cls-3{fill:url(#무제_그라디언트_5);}.cls-4{opacity:0.5;fill:url(#무제_그라디언트_3);}.cls-5{fill:#002083;}.cls-6{fill:#fff;}.cls-7{fill:#efefef;}.cls-12,.cls-8{fill:none;stroke:#cccbcb;stroke-miterlimit:10;}.cls-8{stroke-width:0.2px;}.cls-9{fill:#b2b2b2;}.cls-10{fill:#a4a4a4;}.cls-11{fill:#ec2024;}.cls-12{stroke-width:0.21px;}.cls-13{fill:#cccbcb;}</style><linearGradient id="무제_그라디언트_5" x1="66.95" y1="-2652.36" x2="66.95" y2="-2558.84" gradientTransform="matrix(1, 0, 0, -1, 0, -2539.33)" gradientUnits="userSpaceOnUse"><stop offset="0" stop-color="#fff" stop-opacity="0.5"/><stop offset="0.5" stop-color="#fff" stop-opacity="0"/><stop offset="1" stop-color="#fff" stop-opacity="0"/></linearGradient><linearGradient id="무제_그라디언트_3" x1="74.07" y1="-2539.81" x2="67.68" y2="-2572.72" gradientTransform="matrix(1, 0, 0, -1, 0, -2539.33)" gradientUnits="userSpaceOnUse"><stop offset="0" stop-color="#fff"/><stop offset="1" stop-color="#fff" stop-opacity="0.39"/></linearGradient></defs><g id="레이어_2" data-name="레이어 2"><g id="Layer_1" data-name="Layer 1"><path class="cls-1" d="M16.48,115.48c-8.3,0-15.59-6.86-15.59-14.67,0,0,0-10.38,0-16.67,0-2.41.23-4.87,2-4.87,1,0,1.84,1,2.82,2.43a6.8,6.8,0,0,0,5.59,3.06h.43c1.79,0,2.83-.73,4.24-2.17,2.2-2.26,2.31-6.2,2.42-24.42C18.26,40,18.16,36,16,33.78c-1.41-1.44-2.45-2.18-4.23-2.18l-.44,0a6.77,6.77,0,0,0-5.59,3.05c-1,1.46-1.83,2.43-2.82,2.43C1.15,37.1.92,34.64.92,32.23c0-6.28,0-16.67,0-16.67C.89,7.75,8.18.89,16.48.89h84.93a14.53,14.53,0,0,1,14.36,14.67S116,32.61,116,33c0,5.37,1.64,5.37,3.23,5.37,1.75,0,2.35-.91,3.17-2.18.93-1.44,2.1-3.22,5.21-3.22,5.38,0,5.4,8.5,5.43,21.37l0,4,0,3.69c0,12.87-.05,21.37-5.43,21.37-3.12,0-4.28-1.79-5.21-3.23-.83-1.27-1.43-2.19-3.17-2.19C117.6,78,116,78,116,83.4c0,.37-.19,17.42-.19,17.42a14.54,14.54,0,0,1-14.36,14.66Z"/><path class="cls-2" d="M16.48,6.07h84.93a11.88,11.88,0,0,1,11.73,12c.06,5.89.19,17.07.19,17.42,0,5.63,1.75,8,5.86,8,3.16,0,4.42-2,5.36-3.38s1.31-2,3-2c2.76,0,2.77,9.07,2.8,18.67,0,.7,0,2,0,2.9,0-.45,0-.88,0-1.33,0,0,0-2.87,0-4.08,0-9.6,0-18.67-2.8-18.67-1.71,0-2.18.72-3,2S122.35,41,119.19,41c-4.11,0-5.86-2.41-5.86-8,0-.34-.13-11.53-.19-17.42a11.88,11.88,0,0,0-11.73-12H16.48c-6.78,0-13,5.72-13,12V18C3.58,11.74,9.73,6.07,16.48,6.07Z"/><path class="cls-2" d="M3.54,86.65c0-.33,0-.62,0-.87a9.36,9.36,0,0,0,7.56,4.14c.2,0,.4,0,.59,0,3,0,4.65-1.46,6.11-3,3-3.1,3.06-7.1,3.17-26.28V59.45c-.11,18.1-.2,22-3.17,25-1.46,1.5-3.14,3-6.11,3l-.59,0a9.36,9.36,0,0,1-7.56-4.14c0,.26,0,.54,0,.86,0,6.29,0,16.67,0,16.67v.09C3.53,97.45,3.54,91.05,3.54,86.65Z"/><path class="cls-3" d="M16.48,112.82c-6.78,0-13-5.73-13-12,0,0,0-10.38,0-16.67,0-.33,0-.61,0-.87a9.37,9.37,0,0,0,7.56,4.15l.6,0c3,0,4.64-1.47,6.1-3,3-3.1,3.06-7.1,3.17-26.27C20.88,39,20.86,35,17.82,31.9c-1.46-1.5-3.14-3-6.1-3-.2,0-.4,0-.6,0A9.36,9.36,0,0,0,3.56,33.1c0-.29,0-.58,0-.87,0-6.29,0-16.67,0-16.67,0-6.28,6.18-12,13-12h84.93a11.88,11.88,0,0,1,11.73,12c.06,5.89.19,17.08.19,17.42,0,5.64,1.75,8,5.86,8,3.16,0,4.42-2,5.36-3.38s1.31-2,3-2c2.76,0,2.77,9.07,2.8,18.68,0,1.2,0,4.08,0,4.08,0,1.26,0,2.51,0,3.72,0,9.6,0,18.67-2.8,18.67-1.71,0-2.18-.72-3-2s-2.2-3.38-5.36-3.38c-4.11,0-5.86,2.41-5.86,8,0,.34-.13,11.52-.19,17.39a11.89,11.89,0,0,1-11.73,12H16.48Z"/><path class="cls-4" d="M3.56,33.1A9.36,9.36,0,0,1,11.12,29c.2,0,.4,0,.6,0,3,0,4.64,1.46,6.1,3,2.87,2.94,3.05,10.94,3.16,27.55,32.22,7.24,46.82-3.2,80.87-3.2,20.34,0,14.33,1.23,28.54,3.4,0-.43,0-.85,0-1.29,0,0,0-2.87,0-4.08,0-9.6,0-18.67-2.8-18.67-1.71,0-2.18.72-3,2S122.36,41,119.2,41c-4.11,0-5.85-2.41-5.85-8.05,0-.34-.14-11.52-.2-17.41a11.88,11.88,0,0,0-11.73-12H16.48c-6.78,0-13,5.72-13,12,0,0,0,10.38,0,16.67C3.54,32.56,3.55,32.85,3.56,33.1Z"/><path class="cls-5" d="M101.41,1.79a13.63,13.63,0,0,1,13.47,13.77s.18,17,.18,17.42c0,5.56,1.75,6.27,4.13,6.27,4.58,0,3.26-5.41,8.38-5.41,4.93,0,4.47,10,4.55,24.17v.36c-.08,14.13.38,24.17-4.55,24.17-5.12,0-3.8-5.41-8.38-5.41-2.38,0-4.13.71-4.13,6.27,0,.37-.18,17.41-.18,17.41a13.62,13.62,0,0,1-13.47,13.78H16.48c-7.44,0-14.69-6.16-14.69-13.78,0,0,0-10.38,0-16.67,0-3,.46-4,1.06-4S4.34,81.3,5,82.2a7.59,7.59,0,0,0,6.27,3.46h.49c2.22,0,3.47-1,4.88-2.44,2.48-2.54,2.56-6.32,2.67-25-.11-18.71-.19-22.49-2.67-25-1.41-1.45-2.66-2.45-4.88-2.45l-.49,0A7.58,7.58,0,0,0,5,34.17c-.61.91-1.43,2-2.08,2s-1.06-1-1.06-4c0-6.29,0-16.67,0-16.67C1.79,8,9,1.79,16.48,1.79h84.93m0-1.79H16.48C7.7,0,0,7.27,0,15.56c0,0,0,10.39,0,16.67C0,34,0,38,2.87,38c1.54,0,2.64-1.46,3.56-2.82a5.8,5.8,0,0,1,4.9-2.66h.38c1.49,0,2.32.59,3.6,1.91,2,2,2.06,5.87,2.16,23.79C17.36,76.1,17.27,80,15.31,82,14,83.29,13.2,83.88,11.7,83.88l-.37,0a5.79,5.79,0,0,1-4.9-2.66c-.92-1.37-2-2.82-3.56-2.82A2.55,2.55,0,0,0,.41,80.5,13,13,0,0,0,0,84.14c0,6.29,0,16.66,0,16.66,0,8.3,7.7,15.57,16.48,15.57h84.93a15.43,15.43,0,0,0,15.25-15.57c0-.67.19-17,.19-17.4,0-4.5,1-4.5,2.34-4.5,1.2,0,1.56.46,2.42,1.78s2.36,3.64,6,3.64c6.27,0,6.29-8.86,6.32-22.27,0-1.19,0-2.42,0-3.68V58c0-1.27,0-2.5,0-3.69,0-13.41-.05-22.26-6.32-22.26-3.61,0-5,2.18-6,3.62s-1.22,1.78-2.42,1.78c-1.36,0-2.34,0-2.34-4.48,0-.38-.18-16.74-.19-17.44A15.42,15.42,0,0,0,101.41,0Z"/><path class="cls-5" d="M28.94,92.35a4,4,0,0,1,.89.8,3.38,3.38,0,0,1,.58,1.12,5.26,5.26,0,0,1,.24,1.47,3.14,3.14,0,0,1-.27,1.37,2.73,2.73,0,0,1-.87,1.11,3.59,3.59,0,0,1-1.57.67,8.46,8.46,0,0,1-1.21.2,11.75,11.75,0,0,1-1.25.07H24A8.57,8.57,0,0,1,22.6,99a.74.74,0,0,1-.44-.32,1.48,1.48,0,0,1-.18-.5.78.78,0,0,1-.07-.33V87.73a1.29,1.29,0,0,1,.2-.78,1.27,1.27,0,0,1,.55-.41,2.5,2.5,0,0,1,.76-.16q.43,0,.9,0h1.46c.39,0,.8.05,1.23.1a4.8,4.8,0,0,1,1.2.3,3.42,3.42,0,0,1,.57.25,1.2,1.2,0,0,1,.48.35,3.14,3.14,0,0,1,.85,1.21A3.08,3.08,0,0,1,30.35,90,3.12,3.12,0,0,1,30,91.3,2.66,2.66,0,0,1,28.94,92.35Zm-3.12,4.74c.37,0,.74-.07,1.12-.13a1.27,1.27,0,0,0,.79-.34,1.83,1.83,0,0,0,.33-.67,2.25,2.25,0,0,0,.05-.78,2.08,2.08,0,0,0-.23-.77,1.55,1.55,0,0,0-.49-.58,2.1,2.1,0,0,0-.95-.42,5.41,5.41,0,0,0-1.05-.1h-.46a1.73,1.73,0,0,0-.35,0,.37.37,0,0,0-.23.17.92.92,0,0,0-.07.38,4.82,4.82,0,0,1,0,.93c0,.31,0,.6,0,.89s0,.35,0,.55a.63.63,0,0,0,.18.49A1.08,1.08,0,0,0,25,97,3.56,3.56,0,0,0,25.82,97.09Zm.35-8.58-.92,0a1.85,1.85,0,0,0-.57.05.42.42,0,0,0-.28.27,1.47,1.47,0,0,0-.07.61v.67c0,.23,0,.44,0,.66a.58.58,0,0,0,.23.52,1.07,1.07,0,0,0,.58.21,4.45,4.45,0,0,0,.73,0,5.2,5.2,0,0,0,.67-.09,1.82,1.82,0,0,0,1-.44,1.43,1.43,0,0,0,.41-1,1.13,1.13,0,0,0-.42-1.12A2.89,2.89,0,0,0,26.17,88.51Z"/><path class="cls-5" d="M42.88,97.73a4.35,4.35,0,0,1,0,.43.69.69,0,0,1-.12.39.8.8,0,0,1-.15.17.77.77,0,0,1-.21.14,1.49,1.49,0,0,1-1,.17A1.1,1.1,0,0,1,41,98.8l-.06,0a.11.11,0,0,1,0-.05.08.08,0,0,1,0,0l0,0a1.14,1.14,0,0,1-.15-.17l-.1-.17s0-.11-.08-.16l-.1-.17s0-.1-.07-.14a.52.52,0,0,1-.06-.13,2.33,2.33,0,0,1-.09-.29l-.37-.87H34.93l-.38.87a.43.43,0,0,0,0,.14.44.44,0,0,1,0,.15l-.06.13-.06.14a1,1,0,0,0-.1.17,1.4,1.4,0,0,1-.1.16.56.56,0,0,1-.09.17.7.7,0,0,1-.14.17.12.12,0,0,0,0,0l0,0a.07.07,0,0,1,0,.05l-.05,0a1.07,1.07,0,0,1-.45.23,1.46,1.46,0,0,1-.94-.17.69.69,0,0,1-.22-.14.75.75,0,0,1-.14-.17.69.69,0,0,1-.12-.39v-.22l0-.21a1.92,1.92,0,0,1,.09-.32l.05-.16,3.72-9.15.11-.28a.72.72,0,0,1,.09-.2,1,1,0,0,0,.08-.21,2.61,2.61,0,0,1,.2-.41,1,1,0,0,1,.13-.2l.14-.18a.8.8,0,0,1,.3-.23,1.72,1.72,0,0,1,.58-.09,1.68,1.68,0,0,1,.58.09.84.84,0,0,1,.31.23c.08.11.17.23.26.38a2,2,0,0,1,.2.41,1,1,0,0,0,.09.21.72.72,0,0,1,.09.2l.11.28,3.71,9.15.06.16Zm-4.24-4.38-.47-1.07c-.16-.37-.33-.74-.51-1.12,0-.11-.1-.22-.14-.33s-.1-.23-.15-.33a3.43,3.43,0,0,1-.12.33c0,.11-.1.22-.14.33-.18.38-.35.75-.51,1.12s-.32.73-.48,1.07l-.32.79H39Z"/><path class="cls-5" d="M53.83,95.94a1.19,1.19,0,0,1,0,1,2.62,2.62,0,0,1-.68.91,5,5,0,0,1-1.06.71A5.17,5.17,0,0,1,51,99a6.28,6.28,0,0,1-1.24.12A5.88,5.88,0,0,1,48.42,99a6.59,6.59,0,0,1-1.27-.44A5.33,5.33,0,0,1,46,97.78a3.46,3.46,0,0,1-1-1.24A5.69,5.69,0,0,1,44.54,95a8.4,8.4,0,0,1-.17-1.65c0-.56,0-1.08,0-1.57a7.05,7.05,0,0,1,.27-1.37,6.36,6.36,0,0,1,.6-1.4,6.06,6.06,0,0,1,.93-1.28,5,5,0,0,1,1.27-1,3.64,3.64,0,0,1,1.25-.44,5.37,5.37,0,0,1,1.39-.05,5,5,0,0,1,1.34.3,3.42,3.42,0,0,1,1.08.65,4.06,4.06,0,0,1,.6.7,3.09,3.09,0,0,1,.45.91,1.37,1.37,0,0,1,0,.87.9.9,0,0,1-.72.54.89.89,0,0,1-.45,0,1,1,0,0,1-.36-.16,2.56,2.56,0,0,1-.3-.28l-.27-.32a2.16,2.16,0,0,0-1-.71,2.43,2.43,0,0,0-1.13-.09,2.58,2.58,0,0,0-1.06.47,2.39,2.39,0,0,0-.75.94,6.3,6.3,0,0,0-.46,1.33,7.21,7.21,0,0,0-.19,1.46,6.23,6.23,0,0,0,.14,1.44,3.39,3.39,0,0,0,.52,1.23,2.37,2.37,0,0,0,.71.7,2.72,2.72,0,0,0,.9.37,2.44,2.44,0,0,0,1,0,3.1,3.1,0,0,0,1-.32,2.13,2.13,0,0,0,.31-.21l.35-.27a3.18,3.18,0,0,1,.37-.27,1,1,0,0,1,.4-.18,1.06,1.06,0,0,1,.7,0A1,1,0,0,1,53.83,95.94Z"/><path class="cls-5" d="M64,97.66a.57.57,0,0,1,0,.54.74.74,0,0,1-.3.42l-.2.16a.61.61,0,0,1-.2.09.7.7,0,0,1-.46.08.65.65,0,0,1-.2,0,.56.56,0,0,1-.17-.09,2,2,0,0,1-.19-.12l-.19-.13-.2-.16a1.21,1.21,0,0,1-.16-.16l-.16-.18-.14-.16-.22-.23-3.42-3.59.05,3.59v.16a.77.77,0,0,1,0,.15l0,.17a3.31,3.31,0,0,1-.13.41.52.52,0,0,1-.1.18l-.13.14a.74.74,0,0,1-.47.2,1.07,1.07,0,0,1-.49.06,1.53,1.53,0,0,1-.45-.13.88.88,0,0,1-.32-.36l-.06-.09a.9.9,0,0,0,0-.12.72.72,0,0,1-.11-.36l0-.2a1.37,1.37,0,0,0,0-.19.39.39,0,0,1,0-.15v-.14a1,1,0,0,0,0-.15v-.15l0-1.42,0-2.62c0-.76,0-1.58-.05-2.47,0-.42,0-.81,0-1.14s0-.71,0-1.12v-.08a2.53,2.53,0,0,0,0-.38c0-.13,0-.25,0-.37a1.7,1.7,0,0,1,.16-.71.88.88,0,0,1,.38-.43.8.8,0,0,1,.27-.12l.3-.06.24,0,.22,0a.8.8,0,0,1,.43.19.64.64,0,0,1,.1.13.61.61,0,0,1,.08.18,1,1,0,0,1,.12.41,1.52,1.52,0,0,1,0,.21,1.69,1.69,0,0,1,0,.23v.74l0,2.17c.19-.16.38-.33.56-.51a7.54,7.54,0,0,0,.54-.58l1-1c.32-.31.63-.63,1-.94l.05-.05.29-.28.3-.26a1.44,1.44,0,0,1,.66-.42.89.89,0,0,1,.59-.13,1.23,1.23,0,0,1,.29.07l.26.14a.86.86,0,0,0,.18.16.4.4,0,0,1,.14.15.55.55,0,0,1,.18.37.83.83,0,0,1-.07.36,1.74,1.74,0,0,1-.11.18.94.94,0,0,1-.12.18l-.16.19a1.37,1.37,0,0,1-.16.18,1.17,1.17,0,0,1-.15.16c-.06,0-.11.11-.16.16l-.23.24-3.34,3.41.56.56.57.57.5.52c.15.16.28.3.39.4l.93,1c.3.33.59.66.87,1l.06,0,.27.29.23.3A1.67,1.67,0,0,1,64,97.66Z"/><path class="cls-5" d="M78.29,87a1.75,1.75,0,0,1,0,.72l-.06.35-.06.34,0,.08c-.16.74-.35,1.51-.56,2.33s-.4,1.58-.56,2.31-.3,1.25-.45,2-.32,1.37-.48,2c-.06.2-.12.41-.19.61s-.15.4-.24.6a2,2,0,0,1-.3.48,1,1,0,0,1-.38.3.79.79,0,0,1-.46.07,1.08,1.08,0,0,1-.52-.22,1.76,1.76,0,0,1-.64-.84,9,9,0,0,0-.42-1,4.76,4.76,0,0,1-.21-.56q-.15-.42-.3-.93c-.11-.34-.22-.67-.32-1a4.91,4.91,0,0,0-.26-.7c-.1.26-.21.56-.32.89s-.21.66-.3,1l-.26.87c-.08.26-.13.44-.17.56s-.2.5-.31.79a3.16,3.16,0,0,1-.41.73,1.14,1.14,0,0,1-.58.4,1,1,0,0,1-.81-.2,1.2,1.2,0,0,1-.5-.61q-.09-.25-.18-.48a4.34,4.34,0,0,1-.14-.48L67.52,96l-.73-2.88c-.09-.37-.19-.75-.28-1.13s-.19-.79-.31-1.21q-.09-.3-.15-.6c0-.19-.08-.41-.12-.64s-.09-.5-.15-.8-.11-.64-.19-1c0-.13,0-.25,0-.37a1.06,1.06,0,0,1,0-.35.69.69,0,0,1,.25-.46.6.6,0,0,1,.21-.14,1.07,1.07,0,0,1,.27-.09,1.33,1.33,0,0,1,.45-.07.78.78,0,0,1,.44.14.7.7,0,0,1,.25.23l.22.38a1.42,1.42,0,0,0,.07.22c0,.06.05.13.07.2s0,.16,0,.23,0,.13,0,.19c.11.61.24,1.22.39,1.8s.3,1.14.43,1.68l.18.79q.1.48.21,1c.08.34.15.66.22,1a5.28,5.28,0,0,0,.21.73L70,93.19c.16-.53.33-1.07.52-1.62q.15-.43.3-.78a2.18,2.18,0,0,1,.35-.58,1,1,0,0,1,.44-.3,1,1,0,0,1,.59,0,1.16,1.16,0,0,1,.54.54,8.16,8.16,0,0,1,.41.84c.11.26.21.54.31.83l.3.85c.11.28.2.55.3.8a4.32,4.32,0,0,0,.29.64l.12-.5c.05-.2.1-.42.15-.65s.11-.46.15-.69.1-.43.15-.62c.15-.65.31-1.29.48-1.94s.33-1.29.48-1.92l.09-.3a.65.65,0,0,0,0-.19c0-.07,0-.14,0-.23s0-.14.07-.2,0-.14.07-.22,0-.13.08-.19a.76.76,0,0,1,.12-.19.42.42,0,0,1,.12-.14.6.6,0,0,1,.15-.09.83.83,0,0,1,.43-.14,1.31,1.31,0,0,1,.44.07,1.11,1.11,0,0,1,.52.23A.73.73,0,0,1,78.29,87Z"/><path class="cls-5" d="M89.37,97.73l0,.21v.22a.69.69,0,0,1-.12.39.75.75,0,0,1-.14.17.69.69,0,0,1-.22.14A1.47,1.47,0,0,1,88,99a1.07,1.07,0,0,1-.45-.23l0,0a.07.07,0,0,1,0-.05l0,0-.05,0a.7.7,0,0,1-.14-.17s-.07-.11-.11-.17a1.19,1.19,0,0,0-.08-.16,1,1,0,0,0-.1-.17s0-.1-.07-.14a.5.5,0,0,1,0-.13,1,1,0,0,1-.09-.29l-.38-.87H81.42l-.38.87a1,1,0,0,0,0,.14.83.83,0,0,1,0,.15l-.07.13a1.47,1.47,0,0,1-.06.14,1,1,0,0,0-.1.17,1.4,1.4,0,0,1-.1.16.56.56,0,0,1-.09.17.7.7,0,0,1-.14.17l-.05,0a.08.08,0,0,1,0,0,.11.11,0,0,1,0,.05l-.06,0a1.1,1.1,0,0,1-.44.23,1.49,1.49,0,0,1-1-.17.77.77,0,0,1-.21-.14.8.8,0,0,1-.15-.17.69.69,0,0,1-.12-.39,4.35,4.35,0,0,1,0-.43l.09-.32.06-.16,3.71-9.15.11-.28a.72.72,0,0,1,.09-.2,2.2,2.2,0,0,0,.09-.21,2.63,2.63,0,0,1,.19-.41,1,1,0,0,1,.13-.2l.14-.18a.76.76,0,0,1,.31-.23,1.68,1.68,0,0,1,.58-.09,1.72,1.72,0,0,1,.58.09.8.8,0,0,1,.3.23L85,87a2.63,2.63,0,0,1,.19.41,2.2,2.2,0,0,0,.09.21.72.72,0,0,1,.09.2l.11.28,3.72,9.15,0,.16C89.32,97.52,89.34,97.62,89.37,97.73Zm-4.23-4.38c-.16-.34-.32-.7-.48-1.07s-.33-.74-.51-1.12c0-.11-.09-.22-.14-.33l-.14-.33-.13.33-.14.33c-.18.38-.35.75-.51,1.12l-.47,1.07-.32.79h3.16Z"/><path class="cls-5" d="M100.05,98.16a.78.78,0,0,1,0,.34.51.51,0,0,1-.09.18l-.16.14a1.76,1.76,0,0,1-.39.2l-.28.06a.62.62,0,0,1-.27,0,.78.78,0,0,1-.5-.21,2.61,2.61,0,0,1-.5-.56l-.2-.32c-.07-.12-.14-.24-.2-.37l-2-3.77h-.28l-.29,0a4.3,4.3,0,0,1-.71,0c-.22,0-.45,0-.68,0h-.34v3.23c0,.1,0,.19,0,.27a2.35,2.35,0,0,0,0,.27,3.73,3.73,0,0,1,0,.5,1,1,0,0,1-.16.4,1,1,0,0,1-.34.35,1.2,1.2,0,0,1-.91.12,1.49,1.49,0,0,1-.44-.17.58.58,0,0,1-.13-.14L91,98.55,91,98.37l-.06-.19a1.06,1.06,0,0,1-.06-.34V87.69c0-.07,0-.14,0-.22s0-.15,0-.21a1,1,0,0,1,.12-.39.55.55,0,0,1,.18-.3.84.84,0,0,1,.33-.19,2,2,0,0,1,.66-.06h1.58c.53,0,1.05,0,1.58,0,.34,0,.71.06,1.09.12a4.7,4.7,0,0,1,1.09.27l.59.25a3.89,3.89,0,0,1,.53.38,3.76,3.76,0,0,1,.95,1.37,4.46,4.46,0,0,1,.32,1.63,3.49,3.49,0,0,1-.46,1.77A2.72,2.72,0,0,1,98,93.35a.19.19,0,0,1-.1.05.29.29,0,0,0-.1,0l1.64,3.3.17.29.08.16a.76.76,0,0,1,.09.18.85.85,0,0,1,.1.19,1.24,1.24,0,0,0,.1.2C100,97.91,100,98.05,100.05,98.16ZM95.58,91.8a1.63,1.63,0,0,0,.62-.12,1.81,1.81,0,0,0,.54-.31,1.9,1.9,0,0,0,.4-.45,1.16,1.16,0,0,0,.18-.57A1.46,1.46,0,0,0,96.85,89a2.27,2.27,0,0,0-1.41-.47c-.34,0-.72,0-1.13,0H93.14c0,.49,0,1,0,1.5s0,1.1,0,1.79Z"/><path class="cls-5" d="M110.89,91.76a8.3,8.3,0,0,1,0,1.22c0,.42-.07.82-.13,1.21a7.39,7.39,0,0,1-.66,2,4.5,4.5,0,0,1-1.41,1.64,5.54,5.54,0,0,1-2.2,1,14.82,14.82,0,0,1-2.45.32,7.61,7.61,0,0,1-.83,0,3.59,3.59,0,0,1-.81-.1.93.93,0,0,1-.48-.19.67.67,0,0,1-.15-.14,1.42,1.42,0,0,1-.08-.18.66.66,0,0,1-.09-.19,1,1,0,0,0-.06-.21,1,1,0,0,1,0-.17.76.76,0,0,1,0-.15V87.37a.76.76,0,0,1,0-.21,1.59,1.59,0,0,1,.11-.41.56.56,0,0,1,.2-.31.8.8,0,0,1,.21-.13l.2-.08a.33.33,0,0,1,.22,0,.37.37,0,0,0,.26,0l3,.08a4.55,4.55,0,0,1,2.11.54,5.44,5.44,0,0,1,1.59,1.3,6.19,6.19,0,0,1,1,1.75A6.82,6.82,0,0,1,110.89,91.76Zm-3.32,3.4a4,4,0,0,0,.5-1.23,5.66,5.66,0,0,0,.14-1.42A6.48,6.48,0,0,0,108,91.1a4.87,4.87,0,0,0-.5-1.23,2.2,2.2,0,0,0-.65-.64,3.12,3.12,0,0,0-.87-.39,6.5,6.5,0,0,0-1-.18,9.69,9.69,0,0,0-1.06-.06c0,.35,0,.68,0,1v1c0,.43,0,.85,0,1.25V96.7l1.06-.07a4.48,4.48,0,0,0,1-.2,3.21,3.21,0,0,0,.88-.46A3.08,3.08,0,0,0,107.57,95.16Z"/><path class="cls-6" d="M27.16,92.35a4,4,0,0,1,.88.8,3.38,3.38,0,0,1,.58,1.12,4.62,4.62,0,0,1,.24,1.47,3.14,3.14,0,0,1-.27,1.37,2.73,2.73,0,0,1-.87,1.11,3.6,3.6,0,0,1-1.56.67,8.62,8.62,0,0,1-1.22.2,11.61,11.61,0,0,1-1.25.07H22.25A8.35,8.35,0,0,1,20.82,99a.71.71,0,0,1-.44-.32,1.49,1.49,0,0,1-.19-.5.78.78,0,0,1-.07-.33V87.73a1.36,1.36,0,0,1,.2-.78,1.27,1.27,0,0,1,.55-.41,2.5,2.5,0,0,1,.77-.16c.28,0,.58,0,.89,0H24c.4,0,.81.05,1.23.1a4.8,4.8,0,0,1,1.2.3A3.42,3.42,0,0,1,27,87a1.31,1.31,0,0,1,.49.35A3.3,3.3,0,0,1,28.57,90a3.13,3.13,0,0,1-.39,1.35A2.7,2.7,0,0,1,27.16,92.35ZM24,97.09c.37,0,.74-.07,1.13-.13a1.24,1.24,0,0,0,.78-.34,1.56,1.56,0,0,0,.33-.67,2,2,0,0,0,.06-.78,2.1,2.1,0,0,0-.24-.77,1.55,1.55,0,0,0-.49-.58,2.12,2.12,0,0,0-.94-.42,5.51,5.51,0,0,0-1.06-.1h-.45a1.73,1.73,0,0,0-.36,0,.35.35,0,0,0-.22.17.77.77,0,0,0-.08.38,4.82,4.82,0,0,1,0,.93c0,.31,0,.6,0,.89s0,.35,0,.55a.63.63,0,0,0,.19.49,1,1,0,0,0,.57.26A3.56,3.56,0,0,0,24,97.09Zm.36-8.58-.92,0a1.78,1.78,0,0,0-.57.05.41.41,0,0,0-.29.27,1.7,1.7,0,0,0-.06.61c0,.23,0,.45,0,.67s0,.44,0,.66a.6.6,0,0,0,.23.52,1.1,1.1,0,0,0,.58.21,4.57,4.57,0,0,0,.74,0,5.28,5.28,0,0,0,.66-.09,1.89,1.89,0,0,0,1-.44,1.47,1.47,0,0,0,.4-1,1.09,1.09,0,0,0-.42-1.12A2.84,2.84,0,0,0,24.39,88.51Z"/><path class="cls-6" d="M41.09,97.73l0,.21v.22a.69.69,0,0,1-.12.39.75.75,0,0,1-.14.17.69.69,0,0,1-.22.14,1.47,1.47,0,0,1-.94.17,1.07,1.07,0,0,1-.45-.23l0,0a.07.07,0,0,1,0-.05l0,0,0,0a.7.7,0,0,1-.14-.17s-.07-.11-.11-.17a1.19,1.19,0,0,0-.08-.16,1,1,0,0,0-.1-.17l-.07-.14a.5.5,0,0,1,0-.13,1,1,0,0,1-.09-.29l-.38-.87H33.14l-.38.87a1,1,0,0,0,0,.14.83.83,0,0,1,0,.15l-.07.13a1.47,1.47,0,0,1-.06.14,1,1,0,0,0-.1.17,1.4,1.4,0,0,1-.1.16.56.56,0,0,1-.09.17.7.7,0,0,1-.14.17l0,0s0,0,0,0a.11.11,0,0,1,0,.05l-.06,0a1.1,1.1,0,0,1-.44.23,1.49,1.49,0,0,1-.95-.17.77.77,0,0,1-.21-.14.8.8,0,0,1-.15-.17.69.69,0,0,1-.12-.39,4.35,4.35,0,0,1,0-.43l.09-.32.06-.16L34,88.1l.11-.28a.72.72,0,0,1,.09-.2,2.2,2.2,0,0,0,.09-.21,2.63,2.63,0,0,1,.19-.41,1,1,0,0,1,.13-.2l.14-.18a.76.76,0,0,1,.31-.23,1.68,1.68,0,0,1,.58-.09,1.72,1.72,0,0,1,.58.09.8.8,0,0,1,.3.23l.27.38a2.63,2.63,0,0,1,.19.41,2.2,2.2,0,0,0,.09.21.72.72,0,0,1,.09.2l.11.28L41,97.25l0,.16Zm-4.23-4.38c-.16-.34-.32-.7-.48-1.07s-.33-.74-.51-1.12c0-.11-.09-.22-.14-.33l-.14-.33-.13.33-.14.33c-.18.38-.35.75-.51,1.12l-.47,1.07-.32.79h3.16Z"/><path class="cls-6" d="M52,95.94a1.23,1.23,0,0,1,0,1,2.75,2.75,0,0,1-.68.91,5.1,5.1,0,0,1-1.07.71,5,5,0,0,1-1.13.43,6.21,6.21,0,0,1-1.24.12A5.88,5.88,0,0,1,46.63,99a6.5,6.5,0,0,1-1.26-.44,5.67,5.67,0,0,1-1.14-.73,3.57,3.57,0,0,1-1-1.24A6.48,6.48,0,0,1,42.75,95a9.24,9.24,0,0,1-.17-1.65c0-.56,0-1.08,0-1.57a7.05,7.05,0,0,1,.27-1.37,7,7,0,0,1,1.53-2.68,4.85,4.85,0,0,1,1.28-1,3.59,3.59,0,0,1,1.24-.44,5.38,5.38,0,0,1,1.39-.05,4.93,4.93,0,0,1,1.34.3,3.42,3.42,0,0,1,1.08.65,4.06,4.06,0,0,1,.6.7,3.39,3.39,0,0,1,.46.91,1.43,1.43,0,0,1,0,.87,1.19,1.19,0,0,1-1.17.57.86.86,0,0,1-.35-.16A2,2,0,0,1,50,89.8c-.09-.11-.18-.21-.26-.32a2.21,2.21,0,0,0-1-.71,2.47,2.47,0,0,0-1.14-.09,2.54,2.54,0,0,0-1,.47,2.42,2.42,0,0,0-.76.94,6.92,6.92,0,0,0-.46,1.33,8,8,0,0,0-.19,1.46,6.23,6.23,0,0,0,.14,1.44,3.4,3.4,0,0,0,.53,1.23,2.34,2.34,0,0,0,.7.7,2.72,2.72,0,0,0,.9.37,2.49,2.49,0,0,0,1,0,3.14,3.14,0,0,0,1-.32,2.17,2.17,0,0,0,.32-.21l.34-.27a3.18,3.18,0,0,1,.37-.27,1,1,0,0,1,.4-.18,1.09,1.09,0,0,1,.71,0A1,1,0,0,1,52,95.94Z"/><path class="cls-6" d="M62.24,97.66a.57.57,0,0,1,0,.54.74.74,0,0,1-.3.42l-.2.16a.66.66,0,0,1-.19.09.73.73,0,0,1-.47.08.58.58,0,0,1-.19,0,.76.76,0,0,1-.18-.09l-.19-.12-.19-.13-.19-.16a.81.81,0,0,1-.16-.16,1.29,1.29,0,0,1-.16-.18l-.15-.16-.21-.23L56,94.09l.05,3.59v.16a.39.39,0,0,1,0,.15l0,.17a3.31,3.31,0,0,1-.13.41.51.51,0,0,1-.09.18l-.14.14a.72.72,0,0,1-.46.2,1.1,1.1,0,0,1-.49.06,1.59,1.59,0,0,1-.46-.13.88.88,0,0,1-.32-.36l-.05-.09,0-.12a.72.72,0,0,1-.11-.36,1.5,1.5,0,0,1,0-.2l0-.19a.77.77,0,0,1,0-.15v-.14a1,1,0,0,0,0-.15v-.15l0-1.42,0-2.62c0-.76,0-1.58,0-2.47,0-.42,0-.81,0-1.14s0-.71,0-1.12v-.08a2.53,2.53,0,0,0,0-.38c0-.13,0-.25,0-.37a1.87,1.87,0,0,1,.16-.71.93.93,0,0,1,.38-.43.85.85,0,0,1,.28-.12l.29-.06.24,0,.22,0a.8.8,0,0,1,.43.19.64.64,0,0,1,.1.13.61.61,0,0,1,.08.18,1.1,1.1,0,0,1,.13.41,1.49,1.49,0,0,1,0,.21,1.69,1.69,0,0,1,0,.23v.74l0,2.17c.19-.16.38-.33.56-.51a7.64,7.64,0,0,0,.55-.58l.95-1,1-.94.05-.05.3-.28.29-.26a1.44,1.44,0,0,1,.66-.42.91.91,0,0,1,.59-.13,1.32,1.32,0,0,1,.3.07l.26.14a1.2,1.2,0,0,0,.17.16.54.54,0,0,1,.15.15.65.65,0,0,1,.18.37.83.83,0,0,1-.08.36l-.1.18-.13.18-.16.19a1.37,1.37,0,0,1-.16.18,1.17,1.17,0,0,1-.15.16l-.15.16-.23.24-3.34,3.41c.17.18.36.36.56.56l.56.57.5.52.39.4c.33.34.63.67.93,1s.59.66.88,1l0,0a2.44,2.44,0,0,1,.27.29l.23.3A1.83,1.83,0,0,1,62.24,97.66Z"/><path class="cls-6" d="M76.51,87a1.75,1.75,0,0,1,0,.72,2.14,2.14,0,0,0-.06.35c0,.11,0,.23-.07.34v.08c-.17.74-.36,1.51-.57,2.33s-.39,1.58-.56,2.31-.29,1.25-.45,2-.31,1.37-.48,2c-.06.2-.12.41-.19.61a3.75,3.75,0,0,1-.24.6,2.27,2.27,0,0,1-.29.48,1,1,0,0,1-.39.3.77.77,0,0,1-.45.07,1.11,1.11,0,0,1-.53-.22,1.74,1.74,0,0,1-.63-.84c-.14-.36-.28-.68-.42-1a4.25,4.25,0,0,1-.22-.56l-.3-.93c-.11-.34-.21-.67-.31-1a6.57,6.57,0,0,0-.26-.7,9,9,0,0,0-.32.89l-.31,1c-.09.33-.18.61-.26.87s-.13.44-.17.56-.2.5-.31.79a2.83,2.83,0,0,1-.41.73,1.1,1.1,0,0,1-.58.4,1,1,0,0,1-.8-.2,1.15,1.15,0,0,1-.5-.61q-.09-.25-.18-.48a4.42,4.42,0,0,1-.15-.48L65.74,96,65,93.14,64.73,92c-.09-.39-.2-.79-.32-1.21,0-.2-.11-.4-.15-.6s-.08-.41-.12-.64-.09-.5-.14-.8-.12-.64-.19-1a2.52,2.52,0,0,1-.05-.37,2.16,2.16,0,0,1,0-.35.73.73,0,0,1,.25-.46.6.6,0,0,1,.21-.14l.27-.09a1.33,1.33,0,0,1,.45-.07.84.84,0,0,1,.45.14.79.79,0,0,1,.25.23l.21.38c0,.08.05.15.07.22a1.18,1.18,0,0,1,.07.2c0,.09,0,.16.06.23l0,.19c.11.61.24,1.22.39,1.8s.3,1.14.43,1.68l.18.79c.07.32.15.65.22,1s.14.66.21,1a4.07,4.07,0,0,0,.22.73c.15-.53.31-1.07.47-1.61s.34-1.07.53-1.62a7.61,7.61,0,0,1,.29-.78,2.48,2.48,0,0,1,.35-.58.94.94,0,0,1,.45-.3.92.92,0,0,1,.58,0,1.08,1.08,0,0,1,.54.54,8.16,8.16,0,0,1,.41.84c.11.26.21.54.31.83s.21.57.31.85l.29.8a5.68,5.68,0,0,0,.29.64c0-.13.08-.3.12-.5s.1-.42.16-.65l.15-.69c0-.22.09-.43.14-.62.15-.65.31-1.29.48-1.94s.33-1.29.48-1.92l.09-.3a.67.67,0,0,0,0-.19,1.11,1.11,0,0,1,0-.23c0-.07,0-.14.07-.2s0-.14.08-.22a1.54,1.54,0,0,1,.08-.19.72.72,0,0,1,.11-.19.44.44,0,0,1,.13-.14.42.42,0,0,1,.14-.09.86.86,0,0,1,.43-.14,1.41,1.41,0,0,1,.45.07,1.08,1.08,0,0,1,.51.23A.8.8,0,0,1,76.51,87Z"/><path class="cls-6" d="M87.58,97.73l0,.21c0,.06,0,.14,0,.22a.63.63,0,0,1-.13.39.55.55,0,0,1-.14.17.77.77,0,0,1-.21.14,1.5,1.5,0,0,1-1,.17,1.07,1.07,0,0,1-.45-.23l0,0a.11.11,0,0,1,0-.05l0,0s0,0-.06,0a1,1,0,0,1-.14-.17s-.07-.11-.11-.17a1.19,1.19,0,0,0-.08-.16,1,1,0,0,0-.1-.17.61.61,0,0,0-.07-.14.5.5,0,0,1,0-.13,1,1,0,0,1-.09-.29l-.38-.87H79.63l-.37.87a.48.48,0,0,0-.05.14.42.42,0,0,1,0,.15.49.49,0,0,0-.06.13L79,98l-.09.17-.1.16-.09.17a2.09,2.09,0,0,1-.14.17s-.05,0-.06,0l0,0,0,.05,0,0A1.07,1.07,0,0,1,78,99a1.5,1.5,0,0,1-.95-.17.77.77,0,0,1-.21-.14.55.55,0,0,1-.14-.17.63.63,0,0,1-.13-.39,1.48,1.48,0,0,1,0-.22,1.52,1.52,0,0,1,0-.21,1.92,1.92,0,0,1,.09-.32l0-.16,3.71-9.15.11-.28.09-.2a.67.67,0,0,0,.09-.21,2.61,2.61,0,0,1,.2-.41.67.67,0,0,1,.12-.2l.14-.18a.93.93,0,0,1,.31-.23,1.91,1.91,0,0,1,1.16,0,.8.8,0,0,1,.3.23,3.12,3.12,0,0,1,.27.38,2.61,2.61,0,0,1,.2.41.67.67,0,0,0,.09.21l.09.2.1.28,3.72,9.15,0,.16A1.92,1.92,0,0,1,87.58,97.73Zm-4.23-4.38c-.16-.34-.31-.7-.48-1.07s-.33-.74-.5-1.12l-.15-.33a2.52,2.52,0,0,0-.14-.33l-.13.33c0,.11-.09.22-.14.33-.18.38-.35.75-.51,1.12l-.47,1.07-.32.79h3.16Z"/><path class="cls-6" d="M98.26,98.16a.78.78,0,0,1,0,.34.77.77,0,0,1-.1.18,1,1,0,0,1-.15.14,2.13,2.13,0,0,1-.4.2l-.27.06a.67.67,0,0,1-.28,0,.78.78,0,0,1-.5-.21,2.61,2.61,0,0,1-.5-.56l-.2-.32c-.07-.12-.13-.24-.19-.37l-2-3.77h-.29l-.29,0a4.18,4.18,0,0,1-.7,0q-.33,0-.69,0h-.34v3.23a2.26,2.26,0,0,1,0,.27c0,.09,0,.17,0,.27a2,2,0,0,1,0,.23,2.13,2.13,0,0,1,0,.27,1.45,1.45,0,0,1-.16.4,1.26,1.26,0,0,1-.34.35,1.21,1.21,0,0,1-.91.12,1.44,1.44,0,0,1-.45-.17.58.58,0,0,1-.13-.14.89.89,0,0,1-.08-.17,1.34,1.34,0,0,1-.07-.18l-.06-.19a1,1,0,0,1,0-.34V87.69a1.7,1.7,0,0,1,0-.22,1.25,1.25,0,0,1,0-.21,1,1,0,0,1,.13-.39.46.46,0,0,1,.18-.3.84.84,0,0,1,.33-.19,1.92,1.92,0,0,1,.65-.06H92c.52,0,1.05,0,1.57,0,.34,0,.71.06,1.1.12a4.62,4.62,0,0,1,1.08.27l.59.25a3.89,3.89,0,0,1,.53.38,3.64,3.64,0,0,1,1,1.37,4.46,4.46,0,0,1,.32,1.63,3.58,3.58,0,0,1-.45,1.77,2.78,2.78,0,0,1-1.46,1.19.16.16,0,0,1-.1.05.29.29,0,0,0-.1,0l1.65,3.3.16.29a1.46,1.46,0,0,0,.09.16l.09.18a1.65,1.65,0,0,1,.1.19l.09.2C98.21,97.91,98.24,98.05,98.26,98.16ZM93.8,91.8a1.58,1.58,0,0,0,.61-.12,1.81,1.81,0,0,0,.54-.31,1.9,1.9,0,0,0,.4-.45,1.16,1.16,0,0,0,.18-.57A1.48,1.48,0,0,0,95.07,89a2.31,2.31,0,0,0-1.41-.47c-.35,0-.73,0-1.14,0H91.35c0,.49,0,1,0,1.5s0,1.1,0,1.79Z"/><path class="cls-6" d="M109.1,91.76a8.28,8.28,0,0,1,0,1.22c0,.42-.08.82-.14,1.21a7.39,7.39,0,0,1-.66,2,4.5,4.5,0,0,1-1.41,1.64,5.47,5.47,0,0,1-2.2,1,14.7,14.7,0,0,1-2.44.32,7.79,7.79,0,0,1-.84,0,3.66,3.66,0,0,1-.81-.1,1,1,0,0,1-.48-.19.47.47,0,0,1-.14-.14.76.76,0,0,1-.09-.18.64.64,0,0,1-.08-.19c0-.07,0-.13-.07-.21a1,1,0,0,1,0-.17.76.76,0,0,1,0-.15V87.37a.76.76,0,0,1,0-.21,1.59,1.59,0,0,1,.11-.41.62.62,0,0,1,.2-.31.8.8,0,0,1,.21-.13l.2-.08a.33.33,0,0,1,.22,0,.36.36,0,0,0,.26,0l3,.08a4.55,4.55,0,0,1,2.11.54,5.44,5.44,0,0,1,1.59,1.3,6.19,6.19,0,0,1,1,1.75A6.49,6.49,0,0,1,109.1,91.76Zm-3.32,3.4a3.74,3.74,0,0,0,.5-1.23,5.67,5.67,0,0,0,.15-1.42,6.48,6.48,0,0,0-.2-1.41,4.87,4.87,0,0,0-.5-1.23,2.17,2.17,0,0,0-.64-.64,3.32,3.32,0,0,0-.88-.39,6.3,6.3,0,0,0-1-.18,9.55,9.55,0,0,0-1.06-.06c0,.35,0,.68,0,1v1c0,.43,0,.85,0,1.25V96.7l1.06-.07a4.7,4.7,0,0,0,1-.2A3.3,3.3,0,0,0,105,96,2.92,2.92,0,0,0,105.78,95.16Z"/><rect class="cls-5" x="29.67" y="21" width="5.68" height="34.64" rx="1.45" transform="translate(65.01 76.65) rotate(180)"/><rect class="cls-5" x="30.45" y="17.14" width="5.68" height="41.46" rx="1.59" transform="translate(66.58 75.74) rotate(-180)"/><path class="cls-5" d="M31.53,19.58H35a1.09,1.09,0,0,1,1.09,1.09v1a.17.17,0,0,1-.17.17H30.62a.17.17,0,0,1-.17-.17v-1A1.09,1.09,0,0,1,31.53,19.58Z"/><rect class="cls-5" x="30.45" y="24.6" width="5.68" height="2.25" rx="0.17"/><rect class="cls-5" x="30.45" y="29.61" width="5.68" height="2.25" rx="0.17"/><rect class="cls-5" x="30.45" y="34.63" width="5.68" height="2.25" rx="0.17"/><rect class="cls-5" x="30.45" y="39.64" width="5.68" height="2.25" rx="0.17"/><rect class="cls-5" x="30.45" y="44.66" width="5.68" height="2.25" rx="0.17"/><rect class="cls-5" x="30.45" y="49.67" width="5.68" height="2.25" rx="0.17"/><path class="cls-5" d="M30.62,54.69H36a.17.17,0,0,1,.17.17v1A1.09,1.09,0,0,1,35,56.94H31.53a1.09,1.09,0,0,1-1.09-1.09v-1a.17.17,0,0,1,.17-.17Z"/><rect class="cls-5" x="97.48" y="20.09" width="5.68" height="34.64" rx="1.45"/><rect class="cls-5" x="96.7" y="17.14" width="5.68" height="41.46" rx="1.59"/><path class="cls-5" d="M97.79,53.91h3.51A1.09,1.09,0,0,1,102.39,55v1a.17.17,0,0,1-.17.17H96.87A.17.17,0,0,1,96.7,56V55a1.09,1.09,0,0,1,1.09-1.09Z" transform="translate(199.09 110.06) rotate(180)"/><rect class="cls-5" x="96.7" y="48.89" width="5.68" height="2.25" rx="0.17" transform="translate(199.09 100.03) rotate(180)"/><rect class="cls-5" x="96.7" y="43.88" width="5.68" height="2.25" rx="0.17" transform="translate(199.09 90) rotate(180)"/><rect class="cls-5" x="96.7" y="38.86" width="5.68" height="2.25" rx="0.17" transform="translate(199.09 79.97) rotate(180)"/><rect class="cls-5" x="96.7" y="33.85" width="5.68" height="2.25" rx="0.17" transform="translate(199.09 69.94) rotate(180)"/><rect class="cls-5" x="96.7" y="28.83" width="5.68" height="2.25" rx="0.17" transform="translate(199.09 59.91) rotate(180)"/><rect class="cls-5" x="96.7" y="23.82" width="5.68" height="2.25" rx="0.17" transform="translate(199.09 49.88) rotate(180)"/><path class="cls-5" d="M96.87,18.8h5.34a.17.17,0,0,1,.17.17v1A1.09,1.09,0,0,1,101.3,21H97.79A1.09,1.09,0,0,1,96.7,20V19a.17.17,0,0,1,.17-.17Z" transform="translate(199.09 39.85) rotate(-180)"/><rect class="cls-5" x="36.2" y="22.77" width="30.19" height="30.19" rx="1.98"/><path class="cls-5" d="M50.55,21.42h1.1a.37.37,0,0,1,.37.37v3.43a.37.37,0,0,1-.37.37h-1.1a0,0,0,0,1,0,0V21.42A0,0,0,0,1,50.55,21.42Z" transform="translate(74.8 -27.78) rotate(90)"/><path class="cls-5" d="M50.55,50.13h1.1a.37.37,0,0,1,.37.37v3.43a.37.37,0,0,1-.37.37h-1.1a0,0,0,0,1,0,0V50.13A0,0,0,0,1,50.55,50.13Z" transform="translate(-0.94 103.51) rotate(-90)"/><path class="cls-5" d="M64.91,35.78H66a.37.37,0,0,1,.37.37v3.43A.37.37,0,0,1,66,40h-1.1a0,0,0,0,1,0,0V35.78A0,0,0,0,1,64.91,35.78Z" transform="translate(131.29 75.74) rotate(180)"/><path class="cls-5" d="M36.2,35.78h1.1a.37.37,0,0,1,.37.37v3.43a.37.37,0,0,1-.37.37H36.2a0,0,0,0,1,0,0V35.78A0,0,0,0,1,36.2,35.78Z"/><rect class="cls-5" x="36.2" y="22.77" width="30.19" height="30.19" rx="1.98"/><rect class="cls-5" x="54.63" y="26.15" width="7.92" height="7.92" rx="2.22"/><rect class="cls-5" x="54.63" y="26.15" width="7.92" height="7.92" rx="2.22"/><rect class="cls-5" x="56.07" y="27.6" width="5.02" height="5.02" rx="1.41"/><rect class="cls-5" x="40.04" y="26.15" width="7.92" height="7.92" rx="2.22"/><rect class="cls-5" x="40.04" y="26.15" width="7.92" height="7.92" rx="2.22"/><rect class="cls-5" x="41.48" y="27.6" width="5.02" height="5.02" rx="1.41"/><rect class="cls-5" x="54.63" y="41.67" width="7.92" height="7.92" rx="2.22"/><rect class="cls-5" x="54.63" y="41.67" width="7.92" height="7.92" rx="2.22"/><rect class="cls-5" x="56.07" y="43.11" width="5.02" height="5.02" rx="1.41"/><rect class="cls-5" x="40.04" y="41.67" width="7.92" height="7.92" rx="2.22"/><rect class="cls-5" x="40.04" y="41.67" width="7.92" height="7.92" rx="2.22"/><rect class="cls-5" x="41.48" y="43.11" width="5.02" height="5.02" rx="1.41"/><rect class="cls-5" x="66.45" y="22.77" width="30.19" height="30.19" rx="1.98"/><path class="cls-5" d="M80.8,21.42h1.1a.37.37,0,0,1,.37.37v3.43a.37.37,0,0,1-.37.37H80.8a0,0,0,0,1,0,0V21.42A0,0,0,0,1,80.8,21.42Z" transform="translate(105.06 -58.03) rotate(90)"/><path class="cls-5" d="M80.8,50.13h1.1a.37.37,0,0,1,.37.37v3.43a.37.37,0,0,1-.37.37H80.8a0,0,0,0,1,0,0V50.13A0,0,0,0,1,80.8,50.13Z" transform="translate(29.32 133.77) rotate(-90)"/><path class="cls-5" d="M95.16,35.78h1.1a.37.37,0,0,1,.37.37v3.43a.37.37,0,0,1-.37.37h-1.1a0,0,0,0,1,0,0V35.78A0,0,0,0,1,95.16,35.78Z" transform="translate(191.8 75.74) rotate(180)"/><path class="cls-5" d="M66.45,35.78h1.1a.37.37,0,0,1,.37.37v3.43a.37.37,0,0,1-.37.37h-1.1a0,0,0,0,1,0,0V35.78A0,0,0,0,1,66.45,35.78Z"/><rect class="cls-5" x="66.45" y="22.77" width="30.19" height="30.19" rx="1.98"/><rect class="cls-5" x="84.88" y="26.15" width="7.92" height="7.92" rx="2.22"/><rect class="cls-5" x="84.88" y="26.15" width="7.92" height="7.92" rx="2.22"/><rect class="cls-5" x="86.33" y="27.6" width="5.02" height="5.02" rx="1.41"/><rect class="cls-5" x="70.29" y="26.15" width="7.92" height="7.92" rx="2.22"/><rect class="cls-5" x="70.29" y="26.15" width="7.92" height="7.92" rx="2.22"/><rect class="cls-5" x="71.74" y="27.6" width="5.02" height="5.02" rx="1.41"/><rect class="cls-5" x="84.88" y="41.67" width="7.92" height="7.92" rx="2.22"/><rect class="cls-5" x="84.88" y="41.67" width="7.92" height="7.92" rx="2.22"/><rect class="cls-5" x="86.33" y="43.11" width="5.02" height="5.02" rx="1.41"/><rect class="cls-5" x="70.29" y="41.67" width="7.92" height="7.92" rx="2.22"/><rect class="cls-5" x="70.29" y="41.67" width="7.92" height="7.92" rx="2.22"/><rect class="cls-5" x="71.74" y="43.11" width="5.02" height="5.02" rx="1.41"/><rect class="cls-7" x="27.88" y="21" width="5.68" height="34.64" rx="1.45" transform="translate(61.44 76.65) rotate(180)"/><rect class="cls-7" x="95.7" y="20.09" width="5.68" height="34.64" rx="1.45"/><rect class="cls-8" x="27.88" y="21" width="5.68" height="34.64" rx="1.45" transform="translate(61.44 76.65) rotate(180)"/><rect class="cls-8" x="95.7" y="20.09" width="5.68" height="34.64" rx="1.45"/><rect class="cls-9" x="28.66" y="17.14" width="5.68" height="41.46" rx="1.59" transform="translate(63 75.74) rotate(180)"/><path class="cls-10" d="M29.75,19.58h3.51a1.09,1.09,0,0,1,1.09,1.09v1a.17.17,0,0,1-.17.17H28.83a.17.17,0,0,1-.17-.17v-1a1.09,1.09,0,0,1,1.09-1.09Z"/><rect class="cls-10" x="28.66" y="24.6" width="5.68" height="2.25" rx="0.17"/><rect class="cls-10" x="28.66" y="29.61" width="5.68" height="2.25" rx="0.17"/><rect class="cls-10" x="28.66" y="34.63" width="5.68" height="2.25" rx="0.17"/><rect class="cls-10" x="28.66" y="39.64" width="5.68" height="2.25" rx="0.17"/><rect class="cls-10" x="28.66" y="44.66" width="5.68" height="2.25" rx="0.17"/><rect class="cls-10" x="28.66" y="49.67" width="5.68" height="2.25" rx="0.17"/><path class="cls-10" d="M28.83,54.69h5.34a.17.17,0,0,1,.17.17v1a1.09,1.09,0,0,1-1.09,1.09H29.75a1.09,1.09,0,0,1-1.09-1.09v-1a.17.17,0,0,1,.17-.17Z"/><rect class="cls-9" x="94.92" y="17.14" width="5.68" height="41.46" rx="1.59"/><path class="cls-10" d="M96,53.91h3.51A1.09,1.09,0,0,1,100.6,55v1a.17.17,0,0,1-.17.17H95.09a.17.17,0,0,1-.17-.17V55A1.09,1.09,0,0,1,96,53.91Z" transform="translate(195.52 110.06) rotate(180)"/><rect class="cls-10" x="94.92" y="48.89" width="5.68" height="2.25" rx="0.17" transform="translate(195.52 100.03) rotate(180)"/><rect class="cls-10" x="94.92" y="43.88" width="5.68" height="2.25" rx="0.17" transform="translate(195.52 90) rotate(180)"/><rect class="cls-10" x="94.92" y="38.86" width="5.68" height="2.25" rx="0.17" transform="translate(195.52 79.97) rotate(180)"/><rect class="cls-10" x="94.92" y="33.85" width="5.68" height="2.25" rx="0.17" transform="translate(195.52 69.94) rotate(180)"/><rect class="cls-10" x="94.92" y="28.83" width="5.68" height="2.25" rx="0.17" transform="translate(195.52 59.91) rotate(180)"/><rect class="cls-10" x="94.92" y="23.82" width="5.68" height="2.25" rx="0.17" transform="translate(195.52 49.88) rotate(180)"/><path class="cls-10" d="M95.09,18.8h5.34a.17.17,0,0,1,.17.17v1A1.09,1.09,0,0,1,99.51,21H96A1.09,1.09,0,0,1,94.92,20V19a.17.17,0,0,1,.17-.17Z" transform="translate(195.52 39.85) rotate(-180)"/><rect class="cls-7" x="34.41" y="22.77" width="30.19" height="30.19" rx="1.98"/><path class="cls-11" d="M48.77,21.42h1.1a.37.37,0,0,1,.37.37v3.43a.37.37,0,0,1-.37.37h-1.1a0,0,0,0,1,0,0V21.42A0,0,0,0,1,48.77,21.42Z" transform="translate(73.02 -25.99) rotate(90)"/><path class="cls-11" d="M48.77,50.13h1.1a.37.37,0,0,1,.37.37v3.43a.37.37,0,0,1-.37.37h-1.1a0,0,0,0,1,0,0V50.13A0,0,0,0,1,48.77,50.13Z" transform="translate(-2.72 101.73) rotate(-90)"/><path class="cls-11" d="M63.12,35.78h1.1a.37.37,0,0,1,.37.37v3.43a.37.37,0,0,1-.37.37h-1.1a0,0,0,0,1,0,0V35.78A0,0,0,0,1,63.12,35.78Z" transform="translate(127.72 75.74) rotate(180)"/><path class="cls-11" d="M34.41,35.78h1.1a.37.37,0,0,1,.37.37v3.43a.37.37,0,0,1-.37.37h-1.1a0,0,0,0,1,0,0V35.78A0,0,0,0,1,34.41,35.78Z"/><rect class="cls-12" x="34.41" y="22.77" width="30.19" height="30.19" rx="1.98"/><rect class="cls-7" x="52.84" y="26.15" width="7.92" height="7.92" rx="2.22"/><rect class="cls-12" x="52.84" y="26.15" width="7.92" height="7.92" rx="2.22"/><rect class="cls-13" x="54.29" y="27.6" width="5.02" height="5.02" rx="1.41"/><rect class="cls-7" x="38.25" y="26.15" width="7.92" height="7.92" rx="2.22"/><rect class="cls-12" x="38.25" y="26.15" width="7.92" height="7.92" rx="2.22"/><rect class="cls-13" x="39.7" y="27.6" width="5.02" height="5.02" rx="1.41"/><rect class="cls-7" x="52.84" y="41.67" width="7.92" height="7.92" rx="2.22"/><rect class="cls-12" x="52.84" y="41.67" width="7.92" height="7.92" rx="2.22"/><rect class="cls-13" x="54.29" y="43.11" width="5.02" height="5.02" rx="1.41"/><rect class="cls-7" x="38.25" y="41.67" width="7.92" height="7.92" rx="2.22"/><rect class="cls-12" x="38.25" y="41.67" width="7.92" height="7.92" rx="2.22"/><rect class="cls-13" x="39.7" y="43.11" width="5.02" height="5.02" rx="1.41"/><rect class="cls-7" x="64.66" y="22.77" width="30.19" height="30.19" rx="1.98"/><path class="cls-11" d="M79,21.42h1.1a.37.37,0,0,1,.37.37v3.43a.37.37,0,0,1-.37.37H79a0,0,0,0,1,0,0V21.42A0,0,0,0,1,79,21.42Z" transform="translate(103.27 -56.24) rotate(90)"/><path class="cls-11" d="M79,50.13h1.1a.37.37,0,0,1,.37.37v3.43a.37.37,0,0,1-.37.37H79a0,0,0,0,1,0,0V50.13A0,0,0,0,1,79,50.13Z" transform="translate(27.53 131.98) rotate(-90)"/><path class="cls-11" d="M93.37,35.78h1.1a.37.37,0,0,1,.37.37v3.43a.37.37,0,0,1-.37.37h-1.1a0,0,0,0,1,0,0V35.78A0,0,0,0,1,93.37,35.78Z" transform="translate(188.23 75.74) rotate(180)"/><path class="cls-11" d="M64.66,35.78h1.1a.37.37,0,0,1,.37.37v3.43a.37.37,0,0,1-.37.37h-1.1a0,0,0,0,1,0,0V35.78A0,0,0,0,1,64.66,35.78Z"/><rect class="cls-12" x="64.66" y="22.77" width="30.19" height="30.19" rx="1.98"/><rect class="cls-7" x="83.09" y="26.15" width="7.92" height="7.92" rx="2.22"/><rect class="cls-12" x="83.09" y="26.15" width="7.92" height="7.92" rx="2.22"/><rect class="cls-13" x="84.54" y="27.6" width="5.02" height="5.02" rx="1.41"/><rect class="cls-7" x="68.5" y="26.15" width="7.92" height="7.92" rx="2.22"/><rect class="cls-12" x="68.5" y="26.15" width="7.92" height="7.92" rx="2.22"/><rect class="cls-13" x="69.95" y="27.6" width="5.02" height="5.02" rx="1.41"/><rect class="cls-7" x="83.09" y="41.67" width="7.92" height="7.92" rx="2.22"/><rect class="cls-12" x="83.09" y="41.67" width="7.92" height="7.92" rx="2.22"/><rect class="cls-13" x="84.54" y="43.11" width="5.02" height="5.02" rx="1.41"/><rect class="cls-7" x="68.5" y="41.67" width="7.92" height="7.92" rx="2.22"/><rect class="cls-12" x="68.5" y="41.67" width="7.92" height="7.92" rx="2.22"/><rect class="cls-13" x="69.95" y="43.11" width="5.02" height="5.02" rx="1.41"/><path class="cls-5" d="M67.67,77.13,75,69.79a1.75,1.75,0,0,0-2.48-2.48l-4.35,4.33v-16a1.76,1.76,0,1,0-3.51,0v16l-4.33-4.33a1.76,1.76,0,1,0-2.48,2.5l7.31,7.32a1.81,1.81,0,0,0,1.25.52A1.7,1.7,0,0,0,67.67,77.13Z"/><path class="cls-6" d="M65.88,77.13l7.34-7.34a1.78,1.78,0,0,0,0-2.48,1.76,1.76,0,0,0-2.48,0l-4.36,4.33v-16a1.76,1.76,0,1,0-3.51,0v16l-4.33-4.33a1.76,1.76,0,0,0-2.48,2.5l7.32,7.32a1.78,1.78,0,0,0,1.25.52A1.69,1.69,0,0,0,65.88,77.13Z"/></g></g></svg>