<svg xmlns="http://www.w3.org/2000/svg" xmlns:xlink="http://www.w3.org/1999/xlink" viewBox="0 0 131.89 116.64"><defs><style>.cls-1{fill:#ea13ff;}.cls-2{fill:#f43fff;}.cls-3{opacity:0.33;fill:url(#무제_그라디언트_11);}.cls-3,.cls-4{isolation:isolate;}.cls-4{opacity:0.53;fill:url(#무제_그라디언트_3);}.cls-5{fill:#9a1f93;}.cls-6{fill:#fff;}</style><linearGradient id="무제_그라디언트_11" x1="65.94" y1="-203.75" x2="65.94" y2="-160.87" gradientTransform="matrix(1, 0, 0, -1, 0, -89.5)" gradientUnits="userSpaceOnUse"><stop offset="0" stop-color="#fff"/><stop offset="1" stop-color="#fff" stop-opacity="0"/></linearGradient><linearGradient id="무제_그라디언트_3" x1="77.4" y1="-66.25" x2="66.14" y2="-126.71" gradientTransform="matrix(1, 0, 0, -1, 0, -89.5)" gradientUnits="userSpaceOnUse"><stop offset="0" stop-color="#fff"/><stop offset="1" stop-color="#fff" stop-opacity="0.39"/></linearGradient></defs><g id="레이어_2" data-name="레이어 2"><g id="Layer_1" data-name="Layer 1"><path class="cls-1" d="M16.52,115.75C8.19,115.75.89,108.88.89,101c0,0,0-10.4,0-16.71,0-2.41.23-4.87,2-4.87,1,0,1.85,1,2.83,2.44a6.8,6.8,0,0,0,5.6,3l.44,0c1.79,0,2.84-.74,4.25-2.18,2.21-2.27,2.31-5.85,2.42-24.48C18.3,39.7,18.2,36.12,16,33.85c-1.41-1.44-2.45-2.18-4.25-2.18l-.44,0a6.8,6.8,0,0,0-5.6,3.05c-1,1.47-1.83,2.44-2.83,2.44C1.15,37.18.92,34.71.92,32.3c0-6.3,0-16.7,0-16.7C.89,7.76,8.19.89,16.52.89H74.83C105.8.9,131,26.66,131,58.32s-25.19,57.42-56.16,57.43Z"/><path class="cls-2" d="M16.52,6.07H74.83c29.1,0,52.85,23.9,53.5,53.5,0-.42,0-.83,0-1.25,0-30.18-24-54.75-53.53-54.76H16.52c-6.8,0-13,5.74-13,12V18C3.59,11.76,9.75,6.07,16.52,6.07Z"/><path class="cls-2" d="M3.68,88c0-.33,0-.62,0-.87a9.39,9.39,0,0,0,7.57,4.15c.21,0,.41,0,.6,0,3,0,4.66-1.47,6.12-3C21,85.18,21.06,81.18,21.18,62c0-.43,0-.84,0-1.25-.11,18.13-.2,22-3.18,25.08-1.46,1.5-3.14,3-6.12,3-.19,0-.39,0-.6,0A9.39,9.39,0,0,1,3.7,84.58c0,.25,0,.54,0,.87,0,6.3,0,16.71,0,16.71v.08C3.67,98.78,3.68,92.37,3.68,88Z"/><path class="cls-3" d="M16.52,113.08c-6.8,0-13-5.74-13-12,0,0,0-10.4,0-16.7,0-.33,0-.62,0-.87a9.38,9.38,0,0,0,7.58,4.15c.21,0,.41,0,.6,0,3,0,4.65-1.47,6.12-3,3.05-3.12,3.07-7.12,3.18-26.35-.11-19.24-.13-23.24-3.18-26.36-1.46-1.5-3.15-3-6.12-3l-.6,0a9.39,9.39,0,0,0-7.58,4.16c0-.29,0-.58,0-.87,0-6.31,0-16.71,0-16.71,0-6.29,6.19-12,13-12H74.83c29.52,0,53.53,24.57,53.53,54.75s-24,54.75-53.53,54.76Z"/><path class="cls-4" d="M3.56,33.17A9.41,9.41,0,0,1,11.14,29c.2,0,.41,0,.6,0,3,0,4.65,1.47,6.12,3,3,3.12,3.07,7.12,3.18,26.36,0,.51,0,1,0,1.49l2.9.27C64,63.87,75.27,51.73,99.82,54.25c15.33,1.56,23.48,5.41,28.33,8.69.13-1.52.21-3.06.21-4.62,0-30.19-24-54.75-53.54-54.76H16.52c-6.8,0-13,5.74-13,12,0,0,0,10.41,0,16.71C3.55,32.63,3.55,32.92,3.56,33.17Z"/><path class="cls-5" d="M74.83,1.79c30.53,0,55.27,25.31,55.27,56.53s-24.74,56.52-55.27,56.53H16.52c-7.46,0-14.73-6.17-14.73-13.81,0,0,0-10.4,0-16.7,0-3,.46-4,1.06-4S4.35,81.49,5,82.4a7.69,7.69,0,0,0,6.3,3.45l.49,0c2.22,0,3.47-1,4.89-2.45,2.48-2.54,2.56-6.34,2.67-25.1-.11-18.75-.19-22.55-2.67-25.09-1.42-1.45-2.67-2.45-4.89-2.45l-.49,0A7.63,7.63,0,0,0,5,34.25c-.61.91-1.43,2-2.09,2s-1.06-1-1.06-4c0-6.3,0-16.71,0-16.71C1.79,8,9.06,1.79,16.52,1.79H74.83m0-1.79H16.52C7.72,0,0,7.29,0,15.6c0,0,0,10.4,0,16.7C0,34,0,38.07,2.87,38.07c1.55,0,2.65-1.46,3.57-2.83a5.9,5.9,0,0,1,4.91-2.66h.39c1.5,0,2.32.59,3.61,1.91,2,2,2.06,5.88,2.17,23.85-.11,18-.2,21.83-2.17,23.84-1.29,1.32-2.12,1.91-3.61,1.91l-.38,0A5.9,5.9,0,0,1,6.44,81.4c-.92-1.37-2-2.83-3.57-2.83A2.56,2.56,0,0,0,.41,80.69,13,13,0,0,0,0,84.33C0,90.63,0,101,0,101c0,8.31,7.72,15.6,16.52,15.6H74.83c31.46,0,57.06-26.17,57.06-58.32S106.29,0,74.83,0Z"/><path class="cls-5" d="M58.12,87.14l0,2.8h.71l1.31,0,1.27,0h.91a2.7,2.7,0,0,1,.41.06l.39.1a1.23,1.23,0,0,1,.5.32.84.84,0,0,1,.18.52v.21a.45.45,0,0,1,0,.2.6.6,0,0,1-.23.36.57.57,0,0,1-.34.18,3.73,3.73,0,0,1-.46.09,2.92,2.92,0,0,1-.5,0h-.84l-3.31,0,0,3.5,3.55,0h1.11l.23,0a1.47,1.47,0,0,0,.26,0,.78.78,0,0,1,.22,0,.89.89,0,0,1,.36.2.79.79,0,0,1,.23.37,1.25,1.25,0,0,1,0,.19.76.76,0,0,1,0,.21.79.79,0,0,1-.18.51,1,1,0,0,1-.5.33,2.18,2.18,0,0,1-.82.16h-.41l-.41,0h-.11c-.93,0-1.89,0-2.89,0H56.91a1,1,0,0,1-.68-.14.83.83,0,0,1-.3-.34.14.14,0,0,1-.06-.11l0,0,0,0a1.05,1.05,0,0,1,0-.19,1.37,1.37,0,0,1,0-.19l0-.18a1.1,1.1,0,0,0,0-.18V96a.61.61,0,0,1,0-.14s0-.1,0-.15V94.3l0-2.57V89.35c0-.43,0-.81,0-1.14s0-.7,0-1.09V87c0-.13,0-.25,0-.37s0-.22,0-.34a1.8,1.8,0,0,1,.2-.7,1.83,1.83,0,0,1,.15-.25.67.67,0,0,1,.22-.18,1.06,1.06,0,0,1,.56-.16l.21,0v0H59l1.35,0,1.33,0h.07l.41,0,.41,0a1.72,1.72,0,0,1,.39,0,2.91,2.91,0,0,1,.39.12,1.05,1.05,0,0,1,.5.3.94.94,0,0,1,.17.5v.21a1,1,0,0,1-.25.56l-.16.09a.51.51,0,0,1-.18.09.93.93,0,0,1-.23,0L63,87a1.38,1.38,0,0,1-.26,0H58.12Z"/><path class="cls-5" d="M75.2,96.28a5.23,5.23,0,0,1-.08.65,1,1,0,0,1-.83.76,1.35,1.35,0,0,1-.53,0,1.87,1.87,0,0,1-.49-.2,1.19,1.19,0,0,1-.37-.33,15.22,15.22,0,0,1-1.12-1.55c-.34-.52-.68-1.06-1-1.59l-1.5-2.27c-.2-.32-.41-.68-.64-1.08s-.46-.77-.7-1.12l0,6.82v.16a1.59,1.59,0,0,1-.1.57,1,1,0,0,1-.79.67,1.11,1.11,0,0,1-.74-.06,1.07,1.07,0,0,1-.47-.39,1.57,1.57,0,0,1-.23-.58,2.38,2.38,0,0,1,0-.65v-.31l0-1.39,0-2.59c0-.38,0-.77,0-1.17V89.39c0-.51,0-1.06,0-1.63s0-1.1.06-1.6a1.75,1.75,0,0,1,.2-.7.74.74,0,0,1,.38-.43,1.18,1.18,0,0,1,.51-.16,1.58,1.58,0,0,1,.54,0l.18.08.18.1.17.14.15.16a1.46,1.46,0,0,1,.16.19l.14.18a1.8,1.8,0,0,0,.11.2l.12.18.2.29,4.13,6.5V91.73c0-.38,0-.77,0-1.17s0-.81,0-1.24,0-1,0-1.61,0-1.11,0-1.61a1.65,1.65,0,0,1,.17-.69.76.76,0,0,1,.31-.38,1.29,1.29,0,0,1,.48-.2,1.63,1.63,0,0,1,.54,0,1.09,1.09,0,0,1,.46.22,1.31,1.31,0,0,1,.11.12l.09.16a1.6,1.6,0,0,1,.1.41,2,2,0,0,1,.06.45c0,1.49,0,3,0,4.56s0,3.06,0,4.55c0,.17,0,.33,0,.49A4,4,0,0,1,75.2,96.28Z"/><path class="cls-5" d="M86,90.46a8.17,8.17,0,0,1,0,1.21c0,.42-.07.83-.13,1.22a7.21,7.21,0,0,1-.66,2,4.5,4.5,0,0,1-1.41,1.64,5.49,5.49,0,0,1-2.2,1,14.79,14.79,0,0,1-2.45.31,7.58,7.58,0,0,1-.83,0,4.27,4.27,0,0,1-.81-.1,1,1,0,0,1-.48-.2.32.32,0,0,1-.14-.14.76.76,0,0,1-.09-.18.46.46,0,0,1-.08-.19c0-.06,0-.13-.07-.2a1.11,1.11,0,0,1,0-.17.76.76,0,0,1,0-.15V86.07a.78.78,0,0,1,0-.22,1.71,1.71,0,0,1,.11-.41.57.57,0,0,1,.2-.3A.85.85,0,0,1,77.2,85l.2-.08a.54.54,0,0,1,.22,0,.36.36,0,0,0,.26,0l3,.07a4.68,4.68,0,0,1,2.11.55,5.57,5.57,0,0,1,1.59,1.29,6.11,6.11,0,0,1,1,1.76A6.49,6.49,0,0,1,86,90.46Zm-3.32,3.39a3.78,3.78,0,0,0,.5-1.23,5.19,5.19,0,0,0,.14-1.42,6.06,6.06,0,0,0-.19-1.41,4.65,4.65,0,0,0-.5-1.22,2,2,0,0,0-.65-.65,3.42,3.42,0,0,0-.87-.38,6.28,6.28,0,0,0-1-.19c-.36,0-.72,0-1.06,0,0,.34,0,.68,0,1v1c0,.43,0,.84,0,1.25v4.82c.37,0,.72,0,1.06-.06a4,4,0,0,0,1-.21,3.48,3.48,0,0,0,.88-.45A3.14,3.14,0,0,0,82.72,93.85Z"/><path class="cls-6" d="M56.34,87.14l0,2.8H57l1.3,0,1.27,0h.91a2.7,2.7,0,0,1,.41.06l.39.1a1.17,1.17,0,0,1,.5.32A.84.84,0,0,1,62,91v.21a.64.64,0,0,1,0,.2.66.66,0,0,1-.23.36.61.61,0,0,1-.34.18,3.89,3.89,0,0,1-.47.09,2.83,2.83,0,0,1-.5,0h-.84l-3.3,0,0,3.5,3.56,0h1.1l.24,0a1.38,1.38,0,0,0,.25,0,.85.85,0,0,1,.23,0,1,1,0,0,1,.36.2,1,1,0,0,1,.23.37,1.23,1.23,0,0,1,0,.19.74.74,0,0,1,0,.21.79.79,0,0,1-.18.51,1,1,0,0,1-.5.33,2.22,2.22,0,0,1-.82.16H60.3l-.41,0h-.1c-.93,0-1.9,0-2.9,0H55.12a1,1,0,0,1-.67-.14.78.78,0,0,1-.31-.34.16.16,0,0,1,0-.11l0,0,0,0a1.06,1.06,0,0,1-.06-.19,1.28,1.28,0,0,1,0-.19.57.57,0,0,1,0-.18l0-.18V96a.61.61,0,0,1,0-.14.76.76,0,0,0,0-.15V94.3l0-2.57V88.21c0-.33,0-.7,0-1.09V87l0-.37c0-.11,0-.22,0-.34a1.63,1.63,0,0,1,.19-.7,1.2,1.2,0,0,1,.16-.25.58.58,0,0,1,.22-.18,1,1,0,0,1,.55-.16l.22,0v0h1.89l1.36,0,1.32,0H60l.41,0,.41,0a1.87,1.87,0,0,1,.4,0,2.91,2.91,0,0,1,.39.12,1.1,1.1,0,0,1,.5.3.92.92,0,0,1,.16.5v.21a.43.43,0,0,1,0,.19.65.65,0,0,1-.21.37.6.6,0,0,0-.15.09.66.66,0,0,1-.19.09.85.85,0,0,1-.22,0l-.23,0a1.27,1.27,0,0,1-.26,0H56.34Z"/><path class="cls-6" d="M73.41,96.28a3.84,3.84,0,0,1-.08.65.85.85,0,0,1-.34.55.93.93,0,0,1-.49.21,1.3,1.3,0,0,1-.52,0,1.63,1.63,0,0,1-.49-.2,1.23,1.23,0,0,1-.38-.33A15.22,15.22,0,0,1,70,95.59L69,94l-1.5-2.27c-.21-.32-.42-.68-.65-1.08s-.45-.77-.69-1.12l-.06,6.82v.16a1.84,1.84,0,0,1-.09.57,1.12,1.12,0,0,1-.34.47,1,1,0,0,1-.46.2A1.12,1.12,0,0,1,64,97.3a1.57,1.57,0,0,1-.23-.58,2,2,0,0,1,0-.65v-.31l0-1.39,0-2.59c0-.38,0-.77,0-1.17V89.39c0-.51,0-1.06,0-1.63s0-1.1.06-1.6a1.75,1.75,0,0,1,.19-.7.78.78,0,0,1,.38-.43,1.18,1.18,0,0,1,.51-.16,1.57,1.57,0,0,1,.54,0l.18.08.18.1.17.14a1.14,1.14,0,0,1,.15.16,1,1,0,0,1,.16.19l.15.18a1.86,1.86,0,0,0,.1.2l.13.18.2.29L71,92.91V91.73c0-.38,0-.77,0-1.17s0-.81,0-1.24V87.71c0-.57,0-1.11.05-1.61a1.68,1.68,0,0,1,.18-.69.8.8,0,0,1,.3-.38,1.36,1.36,0,0,1,.48-.2,1.63,1.63,0,0,1,.54,0,1,1,0,0,1,.46.22.63.63,0,0,1,.11.12.51.51,0,0,1,.09.16,1.69,1.69,0,0,1,.11.41,2.68,2.68,0,0,1,0,.45c0,1.49,0,3,0,4.56s0,3.06,0,4.55c0,.17,0,.33,0,.49A2,2,0,0,1,73.41,96.28Z"/><path class="cls-6" d="M84.26,90.46a9.8,9.8,0,0,1,0,1.21c0,.42-.08.83-.14,1.22a6.89,6.89,0,0,1-.66,2A4.5,4.5,0,0,1,82,96.51a5.45,5.45,0,0,1-2.19,1,14.93,14.93,0,0,1-2.45.31,7.68,7.68,0,0,1-.83,0,4.48,4.48,0,0,1-.82-.1,1,1,0,0,1-.48-.2.38.38,0,0,1-.14-.14.76.76,0,0,1-.09-.18A.64.64,0,0,1,75,97l-.06-.2,0-.17a.76.76,0,0,1,0-.15V86.07a.54.54,0,0,1,0-.22,1.75,1.75,0,0,1,.1-.41.63.63,0,0,1,.2-.3.74.74,0,0,1,.22-.14l.19-.08a.55.55,0,0,1,.22,0,.35.35,0,0,0,.26,0l3,.07a4.64,4.64,0,0,1,2.1.55,5.57,5.57,0,0,1,1.59,1.29,6.11,6.11,0,0,1,1,1.76A6.85,6.85,0,0,1,84.26,90.46Zm-3.33,3.39a3.79,3.79,0,0,0,.51-1.23,6,6,0,0,0-.06-2.83,4.34,4.34,0,0,0-.5-1.22,2.09,2.09,0,0,0-.64-.65,3.49,3.49,0,0,0-.88-.38,6.36,6.36,0,0,0-1-.19c-.37,0-.72,0-1.07,0,0,.34,0,.68,0,1v1c0,.43,0,.84,0,1.25v4.82c.37,0,.73,0,1.07-.06a4.08,4.08,0,0,0,1-.21,3.42,3.42,0,0,0,.87-.45A3,3,0,0,0,80.93,93.85Z"/><rect class="cls-5" x="46.37" y="27.14" width="49.24" height="49.24" rx="5.97"/><rect class="cls-6" x="44.37" y="27.14" width="49.24" height="49.24" rx="5.97"/></g></g></svg>