<svg xmlns="http://www.w3.org/2000/svg" xmlns:xlink="http://www.w3.org/1999/xlink" viewBox="0 0 133.92 116.37"><defs><style>.cls-1{fill:#0173d7;}.cls-2{fill:#0193e0;}.cls-3{fill:url(#무제_그라디언트_5);}.cls-4{opacity:0.5;fill:url(#무제_그라디언트_3);}.cls-5{fill:#002083;}.cls-6{fill:#fff;}.cls-7{fill:#efefef;}.cls-12,.cls-8{fill:none;stroke:#cccbcb;stroke-miterlimit:10;}.cls-8{stroke-width:0.2px;}.cls-9{fill:#b2b2b2;}.cls-10{fill:#a4a4a4;}.cls-11{fill:#ec2024;}.cls-12{stroke-width:0.21px;}.cls-13{fill:#cccbcb;}</style><linearGradient id="무제_그라디언트_5" x1="66.95" y1="-3327.58" x2="66.95" y2="-3234.06" gradientTransform="matrix(1, 0, 0, -1, 0, -3214.55)" gradientUnits="userSpaceOnUse"><stop offset="0" stop-color="#fff" stop-opacity="0.5"/><stop offset="0.5" stop-color="#fff" stop-opacity="0"/><stop offset="1" stop-color="#fff" stop-opacity="0"/></linearGradient><linearGradient id="무제_그라디언트_3" x1="74.07" y1="-3215.03" x2="67.68" y2="-3247.94" gradientTransform="matrix(1, 0, 0, -1, 0, -3214.55)" gradientUnits="userSpaceOnUse"><stop offset="0" stop-color="#fff"/><stop offset="1" stop-color="#fff" stop-opacity="0.39"/></linearGradient></defs><g id="레이어_2" data-name="레이어 2"><g id="Layer_1" data-name="Layer 1"><path class="cls-1" d="M16.48,115.48c-8.3,0-15.59-6.86-15.59-14.67,0,0,0-10.38,0-16.67,0-2.41.23-4.87,2-4.87,1,0,1.84,1,2.82,2.43a6.8,6.8,0,0,0,5.59,3.06h.43c1.79,0,2.83-.73,4.24-2.17,2.2-2.26,2.31-6.2,2.42-24.42C18.26,40,18.16,36,16,33.78c-1.41-1.44-2.45-2.18-4.23-2.18l-.44,0a6.77,6.77,0,0,0-5.59,3.05c-1,1.46-1.83,2.43-2.82,2.43C1.15,37.1.92,34.64.92,32.23c0-6.28,0-16.67,0-16.67C.89,7.75,8.18.89,16.48.89h84.93a14.53,14.53,0,0,1,14.36,14.67S116,32.61,116,33c0,5.37,1.64,5.37,3.23,5.37,1.75,0,2.35-.91,3.17-2.18.93-1.44,2.1-3.22,5.21-3.22,5.38,0,5.4,8.5,5.43,21.37l0,4,0,3.69c0,12.87-.05,21.37-5.43,21.37-3.12,0-4.28-1.79-5.21-3.23-.83-1.27-1.43-2.19-3.17-2.19C117.6,78,116,78,116,83.4c0,.37-.19,17.42-.19,17.42a14.54,14.54,0,0,1-14.36,14.66Z"/><path class="cls-2" d="M16.48,6.07h84.93a11.88,11.88,0,0,1,11.73,12c.06,5.89.19,17.07.19,17.42,0,5.63,1.75,8,5.86,8,3.16,0,4.42-2,5.36-3.38s1.31-2,3-2c2.76,0,2.77,9.07,2.8,18.67,0,.7,0,2,0,2.9,0-.45,0-.88,0-1.33,0,0,0-2.87,0-4.08,0-9.6,0-18.67-2.8-18.67-1.71,0-2.18.72-3,2S122.35,41,119.19,41c-4.11,0-5.86-2.41-5.86-8,0-.34-.13-11.53-.19-17.42a11.88,11.88,0,0,0-11.73-12H16.48c-6.78,0-13,5.72-13,12V18C3.58,11.74,9.73,6.07,16.48,6.07Z"/><path class="cls-2" d="M3.54,86.65c0-.33,0-.62,0-.87a9.36,9.36,0,0,0,7.56,4.14c.2,0,.4,0,.59,0,3,0,4.65-1.46,6.11-3,3-3.1,3.06-7.1,3.17-26.28V59.45c-.11,18.1-.2,22-3.17,25-1.46,1.5-3.14,3-6.11,3l-.59,0a9.36,9.36,0,0,1-7.56-4.14c0,.26,0,.54,0,.86,0,6.29,0,16.67,0,16.67v.09C3.53,97.45,3.54,91.05,3.54,86.65Z"/><path class="cls-3" d="M16.48,112.82c-6.78,0-13-5.73-13-12,0,0,0-10.38,0-16.67,0-.33,0-.61,0-.87a9.37,9.37,0,0,0,7.56,4.15l.6,0c3,0,4.64-1.47,6.1-3,3-3.1,3.06-7.1,3.17-26.27C20.88,39,20.86,35,17.82,31.9c-1.46-1.5-3.14-3-6.1-3-.2,0-.4,0-.6,0A9.36,9.36,0,0,0,3.56,33.1c0-.29,0-.58,0-.87,0-6.29,0-16.67,0-16.67,0-6.28,6.18-12,13-12h84.93a11.88,11.88,0,0,1,11.73,12c.06,5.89.19,17.08.19,17.42,0,5.64,1.75,8,5.86,8,3.16,0,4.42-2,5.36-3.38s1.31-2,3-2c2.76,0,2.77,9.07,2.8,18.68,0,1.2,0,4.08,0,4.08,0,1.26,0,2.51,0,3.72,0,9.6,0,18.67-2.8,18.67-1.71,0-2.18-.72-3-2s-2.2-3.38-5.36-3.38c-4.11,0-5.86,2.41-5.86,8,0,.34-.13,11.52-.19,17.39a11.89,11.89,0,0,1-11.73,12H16.48Z"/><path class="cls-4" d="M3.56,33.1A9.36,9.36,0,0,1,11.12,29c.2,0,.4,0,.6,0,3,0,4.64,1.46,6.1,3,2.87,2.94,3.05,10.94,3.16,27.55,32.22,7.24,46.82-3.2,80.87-3.2,20.34,0,14.33,1.23,28.54,3.4,0-.43,0-.85,0-1.29,0,0,0-2.87,0-4.08,0-9.6,0-18.67-2.8-18.67-1.71,0-2.18.72-3,2S122.36,41,119.2,41c-4.11,0-5.85-2.41-5.85-8.05,0-.34-.14-11.52-.2-17.41a11.88,11.88,0,0,0-11.73-12H16.48c-6.78,0-13,5.72-13,12,0,0,0,10.38,0,16.67C3.54,32.56,3.55,32.85,3.56,33.1Z"/><path class="cls-5" d="M101.41,1.79a13.63,13.63,0,0,1,13.47,13.77s.18,17,.18,17.42c0,5.56,1.75,6.27,4.13,6.27,4.58,0,3.26-5.41,8.38-5.41,4.93,0,4.47,10,4.55,24.17v.36c-.08,14.13.38,24.17-4.55,24.17-5.12,0-3.8-5.41-8.38-5.41-2.38,0-4.13.71-4.13,6.27,0,.37-.18,17.41-.18,17.41a13.62,13.62,0,0,1-13.47,13.78H16.48c-7.44,0-14.69-6.16-14.69-13.78,0,0,0-10.38,0-16.67,0-3,.46-4,1.06-4S4.34,81.3,5,82.2a7.59,7.59,0,0,0,6.27,3.46h.49c2.22,0,3.47-1,4.88-2.44,2.48-2.54,2.56-6.32,2.67-25-.11-18.71-.19-22.49-2.67-25-1.41-1.45-2.66-2.45-4.88-2.45l-.49,0A7.58,7.58,0,0,0,5,34.17c-.61.91-1.43,2-2.08,2s-1.06-1-1.06-4c0-6.29,0-16.67,0-16.67C1.79,8,9,1.79,16.48,1.79h84.93m0-1.79H16.48C7.7,0,0,7.27,0,15.56c0,0,0,10.39,0,16.67C0,34,0,38,2.87,38c1.54,0,2.64-1.46,3.56-2.82a5.8,5.8,0,0,1,4.9-2.66h.38c1.49,0,2.32.59,3.6,1.91,2,2,2.06,5.87,2.16,23.79C17.36,76.1,17.27,80,15.31,82,14,83.29,13.2,83.88,11.7,83.88l-.37,0a5.79,5.79,0,0,1-4.9-2.66c-.92-1.37-2-2.82-3.56-2.82A2.55,2.55,0,0,0,.41,80.5,13,13,0,0,0,0,84.14c0,6.29,0,16.66,0,16.66,0,8.3,7.7,15.57,16.48,15.57h84.93a15.43,15.43,0,0,0,15.25-15.57c0-.67.19-17,.19-17.4,0-4.5,1-4.5,2.34-4.5,1.2,0,1.56.46,2.42,1.78s2.36,3.64,6,3.64c6.27,0,6.29-8.86,6.32-22.27,0-1.19,0-2.42,0-3.68V58c0-1.27,0-2.5,0-3.69,0-13.41-.05-22.26-6.32-22.26-3.61,0-5,2.18-6,3.62s-1.22,1.78-2.42,1.78c-1.36,0-2.34,0-2.34-4.48,0-.38-.18-16.74-.19-17.44A15.42,15.42,0,0,0,101.41,0Z"/><path class="cls-5" d="M53.18,97.59a.84.84,0,0,1,0,.26v.27a.59.59,0,0,1-.05.27.88.88,0,0,1-.14.23,1,1,0,0,1-.47.33,2.64,2.64,0,0,1-.8.14l-.41,0a3.11,3.11,0,0,0-.43,0h-.07c-.92,0-1.87,0-2.84,0a7.46,7.46,0,0,0-.81,0,5,5,0,0,1-.87,0,2.36,2.36,0,0,1-.78-.21,1,1,0,0,1-.49-.55,1.09,1.09,0,0,1,0-.17A.47.47,0,0,1,45,98a6.81,6.81,0,0,1,0-1.19c0-.39,0-.78,0-1.16l0-2.59v-2.4c0-.42,0-.81,0-1.14s0-.7,0-1.11v-.09c0-.11,0-.23,0-.35s0-.24,0-.36a1.6,1.6,0,0,1,.2-.7.85.85,0,0,1,.37-.43,1,1,0,0,1,.56-.16h.24l.22,0a.58.58,0,0,1,.21.07,1.86,1.86,0,0,1,.2.14,1.12,1.12,0,0,1,.29.7l0,.23a1.5,1.5,0,0,1,0,.22.78.78,0,0,0,0,.21v.52l-.07,8.41,3.54,0h1.07l.25,0,.25,0,.22,0a.83.83,0,0,1,.32.18A.87.87,0,0,1,53.18,97.59Z"/><path class="cls-5" d="M57.09,88.44l0,2.81h.72l1.3,0,1.27,0h.91a2.7,2.7,0,0,1,.41.06l.39.1a1.08,1.08,0,0,1,.5.32.8.8,0,0,1,.18.52v.2a.66.66,0,0,1,0,.21.6.6,0,0,1-.23.35.51.51,0,0,1-.34.18,2,2,0,0,1-.47.09,2.14,2.14,0,0,1-.5.06H57l0,3.5,3.56,0h1.1l.24,0a1.29,1.29,0,0,0,.25,0,.86.86,0,0,1,.23,0,1,1,0,0,1,.36.19,1,1,0,0,1,.23.38,1.11,1.11,0,0,1,0,.19.67.67,0,0,1,0,.2.84.84,0,0,1-.18.52,1,1,0,0,1-.5.32,2,2,0,0,1-.82.16l-.42,0-.41,0h-.1c-.93,0-1.9,0-2.9,0H55.87a1,1,0,0,1-.67-.14.84.84,0,0,1-.31-.34.18.18,0,0,1,0-.11l0,0a.33.33,0,0,1,0-.06,1.06,1.06,0,0,1-.06-.19,1.09,1.09,0,0,1,0-.18.57.57,0,0,1,0-.18l0-.18v-.29a.71.71,0,0,1,0-.14.66.66,0,0,0,0-.14V95.61l0-2.58V89.51q0-.49,0-1.08v-.09c0-.14,0-.26,0-.37s0-.23,0-.35a1.63,1.63,0,0,1,.19-.7,2.13,2.13,0,0,1,.16-.25.48.48,0,0,1,.22-.17,1,1,0,0,1,.55-.16H58l1.36,0,1.32,0h.07l.41,0h.41a1.9,1.9,0,0,1,.4.05l.39.11a1,1,0,0,1,.5.31.87.87,0,0,1,.16.5v.2a.41.41,0,0,1,0,.19.67.67,0,0,1-.21.38.6.6,0,0,0-.15.09l-.19.08a.87.87,0,0,1-.22,0,1.6,1.6,0,0,0-.23,0l-.26,0H60.66l-3.57,0Z"/><path class="cls-5" d="M72.79,86.84a1.06,1.06,0,0,1,.2.5c0,.07,0,.14,0,.2l0,.19a.54.54,0,0,1-.23.37,2.28,2.28,0,0,1-.32.18.86.86,0,0,1-.23,0l-.26,0a.59.59,0,0,1-.23,0H70.63l-3.74,0v3h.31a3.4,3.4,0,0,0,.42,0h1.28l1.24,0h.93l.39,0a1.83,1.83,0,0,1,.39.09.85.85,0,0,1,.47.34.76.76,0,0,1,.19.49v.2a.82.82,0,0,1,0,.21.71.71,0,0,1-.23.35.63.63,0,0,1-.34.16,1,1,0,0,1-.21.07l-.24,0-.24,0H66.84l0,4.15v.14c0,.06,0,.12,0,.17l0,.17-.06.19-.06.19a1,1,0,0,1-.24.33,1,1,0,0,1-.48.2,1.3,1.3,0,0,1-.91-.11,1,1,0,0,1-.17-.13.54.54,0,0,1-.13-.21.19.19,0,0,1,0-.1l0-.11a.44.44,0,0,1-.07-.19c0-.06,0-.13,0-.18a1.09,1.09,0,0,0,0-.18,1.1,1.1,0,0,0,0-.18.71.71,0,0,1,0-.29V95.62l0-2.57c0-.38,0-.77,0-1.16V90.68c0-.43,0-.81,0-1.15s0-.69,0-1.09v-.09a2.3,2.3,0,0,0,0-.36,1.39,1.39,0,0,1,0-.35,2,2,0,0,1,.18-.7.85.85,0,0,1,.35-.43,1.18,1.18,0,0,1,.58-.16l.23,0v0h1.86q1.43,0,2.82,0h.49l.42,0a1.74,1.74,0,0,1,.39,0,3.45,3.45,0,0,1,.4.11A.84.84,0,0,1,72.79,86.84Z"/><path class="cls-5" d="M84,86.85a.72.72,0,0,1,.2.49,1.7,1.7,0,0,1,0,.22,1.12,1.12,0,0,1,0,.2.87.87,0,0,1-.24.38,1,1,0,0,1-.39.16l-.25,0-.27.06-.25,0H80.36c0,.37,0,.77,0,1.19s0,.91,0,1.47,0,1.21,0,2,0,1.6,0,2.57V97a1.65,1.65,0,0,0,0,.27v.13a.41.41,0,0,1,0,.15,3.53,3.53,0,0,0,0,.38.88.88,0,0,1,0,.17,1.54,1.54,0,0,1,0,.17s-.07.08-.07.11l-.06.1a.88.88,0,0,1-.33.34,1.32,1.32,0,0,1-.88.09.89.89,0,0,1-.46-.16,1.12,1.12,0,0,1-.24-.32,1,1,0,0,1-.12-.38A.92.92,0,0,1,78,97.7V88.51H76.83l-.72,0-.46,0-.33,0L75,88.32a1.26,1.26,0,0,1-.59-.34.81.81,0,0,1-.2-.52v-.21a.59.59,0,0,1,0-.2.62.62,0,0,1,.29-.36l.22-.13a1.38,1.38,0,0,1,.29-.12,3.27,3.27,0,0,1,.54-.1,1.37,1.37,0,0,1,.29,0h1.49l1.18,0c.7,0,1.38,0,2.07,0s1.36,0,2,0a3.1,3.1,0,0,1,.45,0,1.73,1.73,0,0,1,.43.12,1.38,1.38,0,0,1,.3.14A.64.64,0,0,1,84,86.85Z"/><path class="cls-6" d="M51.39,97.59a.78.78,0,0,1,0,.26v.27a.6.6,0,0,1-.06.27.68.68,0,0,1-.14.23,1,1,0,0,1-.46.33,2.76,2.76,0,0,1-.81.14l-.41,0-.43,0h-.07c-.92,0-1.86,0-2.84,0a7.25,7.25,0,0,0-.8,0,5.15,5.15,0,0,1-.88,0,2.37,2.37,0,0,1-.77-.21,1,1,0,0,1-.5-.55,1.09,1.09,0,0,1,0-.17.88.88,0,0,1,0-.17,9.55,9.55,0,0,1,0-1.19c0-.39,0-.78,0-1.16l0-2.59v-2.4c0-.42,0-.81,0-1.14s0-.7,0-1.11v-.09l0-.35v-.36a1.75,1.75,0,0,1,.2-.7.88.88,0,0,1,.38-.43,1,1,0,0,1,.55-.16h.24l.22,0a.52.52,0,0,1,.21.07,1.86,1.86,0,0,1,.2.14,1.12,1.12,0,0,1,.29.7,1.57,1.57,0,0,0,0,.23,1.55,1.55,0,0,1,0,.22.76.76,0,0,0,0,.21v.52l-.07,8.41,3.53,0h1.08l.25,0,.25,0,.21,0a.77.77,0,0,1,.32.18A.79.79,0,0,1,51.39,97.59Z"/><path class="cls-6" d="M55.3,88.44l0,2.81H56l1.31,0,1.26,0h.91a2.83,2.83,0,0,1,.42.06l.39.1a1.14,1.14,0,0,1,.5.32.8.8,0,0,1,.18.52v.2a.46.46,0,0,1,0,.21.56.56,0,0,1-.23.35.48.48,0,0,1-.34.18,1.87,1.87,0,0,1-.46.09,2.2,2.2,0,0,1-.5.06H55.23l0,3.5,3.55,0h1.11l.23,0a1.38,1.38,0,0,0,.26,0,.79.79,0,0,1,.22,0,1,1,0,0,1,.36.19.81.81,0,0,1,.23.38l0,.19a1.41,1.41,0,0,1,0,.2.84.84,0,0,1-.18.52.94.94,0,0,1-.5.32,2,2,0,0,1-.82.16l-.41,0-.41,0h-.11c-.93,0-1.89,0-2.89,0H54.09a1,1,0,0,1-.68-.14.89.89,0,0,1-.3-.34.15.15,0,0,1-.06-.11l0,0a.13.13,0,0,1,0-.06,1.05,1.05,0,0,1,0-.19.55.55,0,0,1,0-.18l0-.18a1.1,1.1,0,0,0,0-.18v-.29a.71.71,0,0,1,0-.14V95.61l0-2.58V90.66c0-.43,0-.81,0-1.15s0-.69,0-1.08v-.09c0-.14,0-.26,0-.37s0-.23,0-.35a1.65,1.65,0,0,1,.2-.7,2.07,2.07,0,0,1,.15-.25.54.54,0,0,1,.22-.17,1.06,1.06,0,0,1,.56-.16h2.1l1.36,0,1.32,0H59l.42,0h.41a1.74,1.74,0,0,1,.39.05l.39.11a1,1,0,0,1,.5.31.87.87,0,0,1,.16.5v.2a.58.58,0,0,1,0,.19.69.69,0,0,1-.22.38.85.85,0,0,0-.15.09l-.19.08a.79.79,0,0,1-.22,0,1.46,1.46,0,0,0-.22,0l-.26,0H58.88l-3.58,0Z"/><path class="cls-6" d="M71,86.84a1,1,0,0,1,.2.5,1.27,1.27,0,0,1,0,.2,1.08,1.08,0,0,1,0,.19.54.54,0,0,1-.23.37,1.82,1.82,0,0,1-.32.18.87.87,0,0,1-.22,0l-.26,0a.59.59,0,0,1-.23,0H68.84l-3.73,0v0l0,2.91h.31a3.25,3.25,0,0,0,.42,0H67.1l1.24,0h.93l.39,0a1.92,1.92,0,0,1,.4.09.83.83,0,0,1,.46.34.77.77,0,0,1,.2.49v.2a.86.86,0,0,1,0,.21.71.71,0,0,1-.23.35.63.63,0,0,1-.34.16,1,1,0,0,1-.21.07l-.24,0-.24,0H65.06L65,97.59v.14a.91.91,0,0,1,0,.17,1.11,1.11,0,0,1,0,.17,1.07,1.07,0,0,0-.07.19,1.39,1.39,0,0,1-.06.19,1,1,0,0,1-.23.33,1,1,0,0,1-.48.2,1.29,1.29,0,0,1-.91-.11.7.7,0,0,1-.17-.13.55.55,0,0,1-.14-.21.26.26,0,0,1,0-.1l-.06-.11a.62.62,0,0,1-.07-.19,1,1,0,0,0,0-.18v-.18l0-.18a1.41,1.41,0,0,1,0-.29V97l0-1.4V93.05c0-.38,0-.77,0-1.16V90.68c0-.43,0-.81,0-1.15s0-.69.05-1.09v-.09c0-.13,0-.25,0-.36a2.07,2.07,0,0,1,0-.35,2.48,2.48,0,0,1,.18-.7.82.82,0,0,1,.36-.43,1.17,1.17,0,0,1,.57-.16l.23,0v0H66q1.42,0,2.82,0h.49l.42,0a1.9,1.9,0,0,1,.4,0,2.85,2.85,0,0,1,.39.11A.81.81,0,0,1,71,86.84Z"/><path class="cls-6" d="M82.24,86.85a.76.76,0,0,1,.19.49v.22c0,.08,0,.14,0,.2a.85.85,0,0,1-.23.38,1.15,1.15,0,0,1-.4.16l-.25,0-.26.06-.25,0H78.58c0,.37,0,.77,0,1.19V91.1c0,.56,0,1.21,0,2s0,1.6,0,2.57V97a1,1,0,0,0,0,.27v.13a.89.89,0,0,1,0,.15,3.38,3.38,0,0,0-.06.38.91.91,0,0,1,0,.17.7.7,0,0,1-.06.17s-.07.08-.07.11l0,.1a.85.85,0,0,1-.34.34,1.3,1.3,0,0,1-.88.09.92.92,0,0,1-.46-.16,1.07,1.07,0,0,1-.23-.32,1,1,0,0,1-.13-.38,1.2,1.2,0,0,1,0-.33V88.51H75.05l-.72,0-.47,0-.33,0-.37-.07a1.23,1.23,0,0,1-.58-.34.76.76,0,0,1-.2-.52v-.21a.6.6,0,0,1,0-.2.62.62,0,0,1,.29-.36l.22-.13a1.25,1.25,0,0,1,.3-.12,3,3,0,0,1,.53-.1,1.42,1.42,0,0,1,.29,0h1.49l1.19,0c.69,0,1.38,0,2.06,0s1.37,0,2,0a3.12,3.12,0,0,1,.44,0,1.62,1.62,0,0,1,.43.12,1.73,1.73,0,0,1,.31.14A.74.74,0,0,1,82.24,86.85Z"/><rect class="cls-5" x="31.39" y="39.99" width="5.68" height="34.64" rx="1.45" transform="translate(68.47 114.63) rotate(180)"/><rect class="cls-5" x="32.18" y="36.13" width="5.68" height="41.46" rx="1.59" transform="translate(70.03 113.72) rotate(180)"/><path class="cls-5" d="M33.26,38.57h3.51a1.09,1.09,0,0,1,1.09,1.09v1a.17.17,0,0,1-.17.17H32.35a.17.17,0,0,1-.17-.17v-1A1.09,1.09,0,0,1,33.26,38.57Z"/><rect class="cls-5" x="32.18" y="43.59" width="5.68" height="2.25" rx="0.17"/><rect class="cls-5" x="32.18" y="48.6" width="5.68" height="2.25" rx="0.17"/><rect class="cls-5" x="32.18" y="53.62" width="5.68" height="2.25" rx="0.17"/><rect class="cls-5" x="32.18" y="58.63" width="5.68" height="2.25" rx="0.17"/><rect class="cls-5" x="32.18" y="63.65" width="5.68" height="2.25" rx="0.17"/><rect class="cls-5" x="32.18" y="68.66" width="5.68" height="2.25" rx="0.17"/><path class="cls-5" d="M32.35,73.68h5.34a.17.17,0,0,1,.17.17v1a1.09,1.09,0,0,1-1.09,1.09H33.26a1.09,1.09,0,0,1-1.09-1.09v-1a.17.17,0,0,1,.17-.17Z"/><rect class="cls-5" x="99.21" y="39.08" width="5.68" height="34.64" rx="1.45"/><rect class="cls-5" x="98.43" y="36.13" width="5.68" height="41.46" rx="1.59"/><path class="cls-5" d="M99.52,72.9H103A1.09,1.09,0,0,1,104.11,74v1a.17.17,0,0,1-.17.17H98.6a.17.17,0,0,1-.17-.17V74A1.09,1.09,0,0,1,99.52,72.9Z" transform="translate(202.54 148.04) rotate(180)"/><rect class="cls-5" x="98.43" y="67.88" width="5.68" height="2.25" rx="0.17" transform="translate(202.54 138.01) rotate(180)"/><rect class="cls-5" x="98.43" y="62.87" width="5.68" height="2.25" rx="0.17" transform="translate(202.54 127.98) rotate(180)"/><rect class="cls-5" x="98.43" y="57.85" width="5.68" height="2.25" rx="0.17" transform="translate(202.54 117.95) rotate(180)"/><rect class="cls-5" x="98.43" y="52.84" width="5.68" height="2.25" rx="0.17" transform="translate(202.54 107.92) rotate(180)"/><rect class="cls-5" x="98.43" y="47.82" width="5.68" height="2.25" rx="0.17" transform="translate(202.54 97.89) rotate(180)"/><rect class="cls-5" x="98.43" y="42.81" width="5.68" height="2.25" rx="0.17" transform="translate(202.54 87.86) rotate(180)"/><path class="cls-5" d="M98.6,37.79h5.34a.17.17,0,0,1,.17.17v1A1.09,1.09,0,0,1,103,40H99.52A1.09,1.09,0,0,1,98.43,39V38a.17.17,0,0,1,.17-.17Z" transform="translate(202.54 77.83) rotate(180)"/><rect class="cls-5" x="37.92" y="41.76" width="30.19" height="30.19" rx="1.98"/><path class="cls-5" d="M52.28,40.41h1.1a.37.37,0,0,1,.37.37v3.43a.37.37,0,0,1-.37.37h-1.1a0,0,0,0,1,0,0V40.41A0,0,0,0,1,52.28,40.41Z" transform="translate(95.52 -10.52) rotate(90)"/><path class="cls-5" d="M52.28,69.12h1.1a.37.37,0,0,1,.37.37v3.43a.37.37,0,0,1-.37.37h-1.1a0,0,0,0,1,0,0V69.12A0,0,0,0,1,52.28,69.12Z" transform="translate(-18.2 124.23) rotate(-90)"/><path class="cls-5" d="M66.64,54.77h1.1a.37.37,0,0,1,.37.37v3.43a.37.37,0,0,1-.37.37h-1.1a0,0,0,0,1,0,0V54.77A0,0,0,0,1,66.64,54.77Z" transform="translate(134.75 113.72) rotate(180)"/><path class="cls-5" d="M37.92,54.77H39a.37.37,0,0,1,.37.37v3.43A.37.37,0,0,1,39,59h-1.1a0,0,0,0,1,0,0V54.77A0,0,0,0,1,37.92,54.77Z"/><rect class="cls-5" x="37.92" y="41.76" width="30.19" height="30.19" rx="1.98"/><rect class="cls-5" x="56.35" y="45.14" width="7.92" height="7.92" rx="2.22"/><rect class="cls-5" x="56.35" y="45.14" width="7.92" height="7.92" rx="2.22"/><rect class="cls-5" x="57.8" y="46.59" width="5.02" height="5.02" rx="1.41"/><rect class="cls-5" x="41.76" y="45.14" width="7.92" height="7.92" rx="2.22"/><rect class="cls-5" x="41.76" y="45.14" width="7.92" height="7.92" rx="2.22"/><rect class="cls-5" x="43.21" y="46.59" width="5.02" height="5.02" rx="1.41"/><rect class="cls-5" x="56.35" y="60.66" width="7.92" height="7.92" rx="2.22"/><rect class="cls-5" x="56.35" y="60.66" width="7.92" height="7.92" rx="2.22"/><rect class="cls-5" x="57.8" y="62.1" width="5.02" height="5.02" rx="1.41"/><rect class="cls-5" x="41.76" y="60.66" width="7.92" height="7.92" rx="2.22"/><rect class="cls-5" x="41.76" y="60.66" width="7.92" height="7.92" rx="2.22"/><rect class="cls-5" x="43.21" y="62.1" width="5.02" height="5.02" rx="1.41"/><rect class="cls-5" x="68.18" y="41.76" width="30.19" height="30.19" rx="1.98"/><path class="cls-5" d="M82.53,40.41h1.1a.37.37,0,0,1,.37.37v3.43a.37.37,0,0,1-.37.37h-1.1a0,0,0,0,1,0,0V40.41A0,0,0,0,1,82.53,40.41Z" transform="translate(125.77 -40.77) rotate(90)"/><path class="cls-5" d="M82.53,69.12h1.1a.37.37,0,0,1,.37.37v3.43a.37.37,0,0,1-.37.37h-1.1a0,0,0,0,1,0,0V69.12A0,0,0,0,1,82.53,69.12Z" transform="translate(12.06 154.49) rotate(-90)"/><path class="cls-5" d="M96.89,54.77H98a.37.37,0,0,1,.37.37v3.43A.37.37,0,0,1,98,59h-1.1a0,0,0,0,1,0,0V54.77A0,0,0,0,1,96.89,54.77Z" transform="translate(195.25 113.72) rotate(180)"/><path class="cls-5" d="M68.18,54.77h1.1a.37.37,0,0,1,.37.37v3.43a.37.37,0,0,1-.37.37h-1.1a0,0,0,0,1,0,0V54.77A0,0,0,0,1,68.18,54.77Z"/><rect class="cls-5" x="68.18" y="41.76" width="30.19" height="30.19" rx="1.98"/><rect class="cls-5" x="86.61" y="45.14" width="7.92" height="7.92" rx="2.22"/><rect class="cls-5" x="86.61" y="45.14" width="7.92" height="7.92" rx="2.22"/><rect class="cls-5" x="88.05" y="46.59" width="5.02" height="5.02" rx="1.41"/><rect class="cls-5" x="72.02" y="45.14" width="7.92" height="7.92" rx="2.22"/><rect class="cls-5" x="72.02" y="45.14" width="7.92" height="7.92" rx="2.22"/><rect class="cls-5" x="73.46" y="46.59" width="5.02" height="5.02" rx="1.41"/><rect class="cls-5" x="86.61" y="60.66" width="7.92" height="7.92" rx="2.22"/><rect class="cls-5" x="86.61" y="60.66" width="7.92" height="7.92" rx="2.22"/><rect class="cls-5" x="88.05" y="62.1" width="5.02" height="5.02" rx="1.41"/><rect class="cls-5" x="72.02" y="60.66" width="7.92" height="7.92" rx="2.22"/><rect class="cls-5" x="72.02" y="60.66" width="7.92" height="7.92" rx="2.22"/><rect class="cls-5" x="73.46" y="62.1" width="5.02" height="5.02" rx="1.41"/><rect class="cls-7" x="29.61" y="39.99" width="5.68" height="34.64" rx="1.45" transform="translate(64.9 114.63) rotate(180)"/><rect class="cls-7" x="97.43" y="39.08" width="5.68" height="34.64" rx="1.45"/><rect class="cls-8" x="29.61" y="39.99" width="5.68" height="34.64" rx="1.45" transform="translate(64.9 114.63) rotate(180)"/><rect class="cls-8" x="97.43" y="39.08" width="5.68" height="34.64" rx="1.45"/><rect class="cls-9" x="30.39" y="36.13" width="5.68" height="41.46" rx="1.59" transform="translate(66.46 113.72) rotate(-180)"/><path class="cls-10" d="M31.48,38.57H35a1.09,1.09,0,0,1,1.09,1.09v1a.17.17,0,0,1-.17.17H30.56a.17.17,0,0,1-.17-.17v-1a1.09,1.09,0,0,1,1.09-1.09Z"/><rect class="cls-10" x="30.39" y="43.59" width="5.68" height="2.25" rx="0.17"/><rect class="cls-10" x="30.39" y="48.6" width="5.68" height="2.25" rx="0.17"/><rect class="cls-10" x="30.39" y="53.62" width="5.68" height="2.25" rx="0.17"/><rect class="cls-10" x="30.39" y="58.63" width="5.68" height="2.25" rx="0.17"/><rect class="cls-10" x="30.39" y="63.65" width="5.68" height="2.25" rx="0.17"/><rect class="cls-10" x="30.39" y="68.66" width="5.68" height="2.25" rx="0.17"/><path class="cls-10" d="M30.56,73.68H35.9a.17.17,0,0,1,.17.17v1A1.09,1.09,0,0,1,35,75.92H31.48a1.09,1.09,0,0,1-1.09-1.09v-1A.17.17,0,0,1,30.56,73.68Z"/><rect class="cls-9" x="96.64" y="36.13" width="5.68" height="41.46" rx="1.59"/><path class="cls-10" d="M97.73,72.9h3.51A1.09,1.09,0,0,1,102.33,74v1a.17.17,0,0,1-.17.17H96.81a.17.17,0,0,1-.17-.17V74a1.09,1.09,0,0,1,1.09-1.09Z" transform="translate(198.97 148.04) rotate(180)"/><rect class="cls-10" x="96.64" y="67.88" width="5.68" height="2.25" rx="0.17" transform="translate(198.97 138.01) rotate(180)"/><rect class="cls-10" x="96.64" y="62.87" width="5.68" height="2.25" rx="0.17" transform="translate(198.97 127.98) rotate(180)"/><rect class="cls-10" x="96.64" y="57.85" width="5.68" height="2.25" rx="0.17" transform="translate(198.97 117.95) rotate(180)"/><rect class="cls-10" x="96.64" y="52.84" width="5.68" height="2.25" rx="0.17" transform="translate(198.97 107.92) rotate(180)"/><rect class="cls-10" x="96.64" y="47.82" width="5.68" height="2.25" rx="0.17" transform="translate(198.97 97.89) rotate(180)"/><rect class="cls-10" x="96.64" y="42.81" width="5.68" height="2.25" rx="0.17" transform="translate(198.97 87.86) rotate(180)"/><path class="cls-10" d="M96.81,37.79h5.34a.17.17,0,0,1,.17.17v1A1.09,1.09,0,0,1,101.24,40H97.73A1.09,1.09,0,0,1,96.64,39V38a.17.17,0,0,1,.17-.17Z" transform="translate(198.97 77.83) rotate(180)"/><rect class="cls-7" x="36.14" y="41.76" width="30.19" height="30.19" rx="1.98"/><path class="cls-11" d="M50.49,40.41h1.1a.37.37,0,0,1,.37.37v3.43a.37.37,0,0,1-.37.37h-1.1a0,0,0,0,1,0,0V40.41A0,0,0,0,1,50.49,40.41Z" transform="translate(93.73 -8.73) rotate(90)"/><path class="cls-11" d="M50.49,69.12h1.1a.37.37,0,0,1,.37.37v3.43a.37.37,0,0,1-.37.37h-1.1a0,0,0,0,1,0,0V69.12A0,0,0,0,1,50.49,69.12Z" transform="translate(-19.98 122.45) rotate(-90)"/><path class="cls-11" d="M64.85,54.77H66a.37.37,0,0,1,.37.37v3.43A.37.37,0,0,1,66,59h-1.1a0,0,0,0,1,0,0V54.77A0,0,0,0,1,64.85,54.77Z" transform="translate(131.18 113.72) rotate(180)"/><path class="cls-11" d="M36.14,54.77h1.1a.37.37,0,0,1,.37.37v3.43a.37.37,0,0,1-.37.37h-1.1a0,0,0,0,1,0,0V54.77A0,0,0,0,1,36.14,54.77Z"/><rect class="cls-12" x="36.14" y="41.76" width="30.19" height="30.19" rx="1.98"/><rect class="cls-7" x="54.57" y="45.14" width="7.92" height="7.92" rx="2.22"/><rect class="cls-12" x="54.57" y="45.14" width="7.92" height="7.92" rx="2.22"/><rect class="cls-13" x="56.01" y="46.59" width="5.02" height="5.02" rx="1.41"/><rect class="cls-7" x="39.98" y="45.14" width="7.92" height="7.92" rx="2.22"/><rect class="cls-12" x="39.98" y="45.14" width="7.92" height="7.92" rx="2.22"/><rect class="cls-13" x="41.42" y="46.59" width="5.02" height="5.02" rx="1.41"/><rect class="cls-7" x="54.57" y="60.66" width="7.92" height="7.92" rx="2.22"/><rect class="cls-12" x="54.57" y="60.66" width="7.92" height="7.92" rx="2.22"/><rect class="cls-13" x="56.01" y="62.1" width="5.02" height="5.02" rx="1.41"/><rect class="cls-7" x="39.98" y="60.66" width="7.92" height="7.92" rx="2.22"/><rect class="cls-12" x="39.98" y="60.66" width="7.92" height="7.92" rx="2.22"/><rect class="cls-13" x="41.42" y="62.1" width="5.02" height="5.02" rx="1.41"/><rect class="cls-7" x="66.39" y="41.76" width="30.19" height="30.19" rx="1.98"/><path class="cls-11" d="M80.75,40.41h1.1a.37.37,0,0,1,.37.37v3.43a.37.37,0,0,1-.37.37h-1.1a0,0,0,0,1,0,0V40.41A0,0,0,0,1,80.75,40.41Z" transform="translate(123.99 -38.98) rotate(90)"/><path class="cls-11" d="M80.75,69.12h1.1a.37.37,0,0,1,.37.37v3.43a.37.37,0,0,1-.37.37h-1.1a0,0,0,0,1,0,0V69.12A0,0,0,0,1,80.75,69.12Z" transform="translate(10.27 152.7) rotate(-90)"/><path class="cls-11" d="M95.1,54.77h1.1a.37.37,0,0,1,.37.37v3.43a.37.37,0,0,1-.37.37H95.1a0,0,0,0,1,0,0V54.77A0,0,0,0,1,95.1,54.77Z" transform="translate(191.68 113.72) rotate(180)"/><path class="cls-11" d="M66.39,54.77h1.1a.37.37,0,0,1,.37.37v3.43a.37.37,0,0,1-.37.37h-1.1a0,0,0,0,1,0,0V54.77A0,0,0,0,1,66.39,54.77Z"/><rect class="cls-12" x="66.39" y="41.76" width="30.19" height="30.19" rx="1.98"/><rect class="cls-7" x="84.82" y="45.14" width="7.92" height="7.92" rx="2.22"/><rect class="cls-12" x="84.82" y="45.14" width="7.92" height="7.92" rx="2.22"/><rect class="cls-13" x="86.27" y="46.59" width="5.02" height="5.02" rx="1.41"/><rect class="cls-7" x="70.23" y="45.14" width="7.92" height="7.92" rx="2.22"/><rect class="cls-12" x="70.23" y="45.14" width="7.92" height="7.92" rx="2.22"/><rect class="cls-13" x="71.68" y="46.59" width="5.02" height="5.02" rx="1.41"/><rect class="cls-7" x="84.82" y="60.66" width="7.92" height="7.92" rx="2.22"/><rect class="cls-12" x="84.82" y="60.66" width="7.92" height="7.92" rx="2.22"/><rect class="cls-13" x="86.27" y="62.1" width="5.02" height="5.02" rx="1.41"/><rect class="cls-7" x="70.23" y="60.66" width="7.92" height="7.92" rx="2.22"/><rect class="cls-12" x="70.23" y="60.66" width="7.92" height="7.92" rx="2.22"/><rect class="cls-13" x="71.68" y="62.1" width="5.02" height="5.02" rx="1.41"/><path class="cls-5" d="M59.93,21.37H51.21l2.22-2.05a1.51,1.51,0,0,0,.51-1.11A1.76,1.76,0,0,0,51,17L45.9,21.8a1.69,1.69,0,0,0-.51,1.2,1.39,1.39,0,0,0,.51,1.11L51,28.9a2.11,2.11,0,0,0,1.2.43,1.65,1.65,0,0,0,1.71-1.63,1.38,1.38,0,0,0-.51-1.11l-2.22-2.05h8.72a5.76,5.76,0,0,1,6,5.56v8.81a1.7,1.7,0,0,0,1.71,1.62,1.64,1.64,0,0,0,1.71-1.62V30.1C69.34,25.31,65.15,21.37,59.93,21.37Z"/><path class="cls-6" d="M58.14,21.37H49.42l2.22-2.05a1.53,1.53,0,0,0,.52-1.11,1.7,1.7,0,0,0-1.71-1.63,1.66,1.66,0,0,0-1.2.43L44.12,21.8A1.66,1.66,0,0,0,43.6,23a1.37,1.37,0,0,0,.52,1.11l5.13,4.79a2.09,2.09,0,0,0,1.2.43,1.65,1.65,0,0,0,1.71-1.63,1.39,1.39,0,0,0-.52-1.11l-2.22-2.05h8.72a5.76,5.76,0,0,1,6,5.56v8.81a1.7,1.7,0,0,0,1.71,1.62,1.64,1.64,0,0,0,1.71-1.62V30.1C67.55,25.31,63.36,21.37,58.14,21.37Z"/></g></g></svg>