<svg xmlns="http://www.w3.org/2000/svg" xmlns:xlink="http://www.w3.org/1999/xlink" viewBox="0 0 133.92 116.37"><defs><style>.cls-1{fill:#089c02;}.cls-2{fill:#1fbe04;}.cls-3{fill:url(#무제_그라디언트_5);}.cls-14,.cls-4,.cls-7,.cls-8{opacity:0.5;}.cls-4{fill:url(#무제_그라디언트_3);}.cls-5,.cls-8{fill:#0a6503;}.cls-12,.cls-14,.cls-6{fill:#fff;}.cls-9{fill:#efefef;}.cls-10{fill:none;}.cls-10,.cls-12{stroke:#cccbcb;stroke-miterlimit:10;stroke-width:0.36px;}.cls-11{fill:#ec2024;}.cls-13{fill:#b2b2b2;}</style><linearGradient id="무제_그라디언트_5" x1="66.95" y1="-5863.4" x2="66.95" y2="-5769.88" gradientTransform="matrix(1, 0, 0, -1, 0, -5750.37)" gradientUnits="userSpaceOnUse"><stop offset="0" stop-color="#fff" stop-opacity="0.5"/><stop offset="0.5" stop-color="#fff" stop-opacity="0"/><stop offset="1" stop-color="#fff" stop-opacity="0"/></linearGradient><linearGradient id="무제_그라디언트_3" x1="74.07" y1="-5750.85" x2="67.68" y2="-5783.76" gradientTransform="matrix(1, 0, 0, -1, 0, -5750.37)" gradientUnits="userSpaceOnUse"><stop offset="0" stop-color="#fff"/><stop offset="1" stop-color="#fff" stop-opacity="0.39"/></linearGradient></defs><g id="레이어_2" data-name="레이어 2"><g id="Layer_1" data-name="Layer 1"><path class="cls-1" d="M16.48,115.48c-8.3,0-15.59-6.86-15.59-14.67,0,0,0-10.38,0-16.67,0-2.41.23-4.87,2-4.87,1,0,1.84,1,2.82,2.43a6.8,6.8,0,0,0,5.59,3.06h.43c1.79,0,2.83-.73,4.24-2.17,2.2-2.26,2.31-6.2,2.42-24.42C18.26,40,18.16,36,16,33.78c-1.41-1.44-2.45-2.18-4.23-2.18l-.44,0a6.77,6.77,0,0,0-5.59,3.05c-1,1.46-1.83,2.43-2.82,2.43C1.15,37.1.92,34.64.92,32.23c0-6.28,0-16.67,0-16.67C.89,7.75,8.18.89,16.48.89h84.93a14.53,14.53,0,0,1,14.36,14.67S116,32.61,116,33c0,5.37,1.64,5.37,3.23,5.37,1.75,0,2.35-.91,3.17-2.18.93-1.44,2.1-3.22,5.21-3.22,5.38,0,5.4,8.5,5.43,21.37l0,4,0,3.69c0,12.87-.05,21.37-5.43,21.37-3.12,0-4.28-1.79-5.21-3.23-.83-1.27-1.43-2.19-3.17-2.19C117.6,78,116,78,116,83.4c0,.37-.19,17.42-.19,17.42a14.54,14.54,0,0,1-14.36,14.66Z"/><path class="cls-2" d="M16.48,6.07h84.93a11.88,11.88,0,0,1,11.73,12c.06,5.89.19,17.07.19,17.42,0,5.63,1.75,8,5.86,8,3.16,0,4.42-2,5.36-3.38s1.31-2,3-2c2.76,0,2.77,9.07,2.8,18.67,0,.7,0,2,0,2.9,0-.45,0-.88,0-1.33,0,0,0-2.87,0-4.08,0-9.6,0-18.67-2.8-18.67-1.71,0-2.18.72-3,2S122.35,41,119.19,41c-4.11,0-5.86-2.41-5.86-8,0-.34-.13-11.53-.19-17.42a11.88,11.88,0,0,0-11.73-12H16.48c-6.78,0-13,5.72-13,12V18C3.58,11.74,9.73,6.07,16.48,6.07Z"/><path class="cls-2" d="M3.54,86.65c0-.33,0-.62,0-.87a9.36,9.36,0,0,0,7.56,4.14c.2,0,.4,0,.59,0,3,0,4.65-1.46,6.11-3,3-3.1,3.06-7.1,3.17-26.28V59.45c-.11,18.1-.2,22-3.17,25-1.46,1.5-3.14,3-6.11,3l-.59,0a9.36,9.36,0,0,1-7.56-4.14c0,.26,0,.54,0,.86,0,6.29,0,16.67,0,16.67v.09C3.53,97.45,3.54,91.05,3.54,86.65Z"/><path class="cls-3" d="M16.48,112.82c-6.78,0-13-5.73-13-12,0,0,0-10.38,0-16.67,0-.33,0-.61,0-.87a9.37,9.37,0,0,0,7.56,4.15l.6,0c3,0,4.64-1.47,6.1-3,3-3.1,3.06-7.1,3.17-26.27C20.88,39,20.86,35,17.82,31.9c-1.46-1.5-3.14-3-6.1-3-.2,0-.4,0-.6,0A9.36,9.36,0,0,0,3.56,33.1c0-.29,0-.58,0-.87,0-6.29,0-16.67,0-16.67,0-6.28,6.18-12,13-12h84.93a11.88,11.88,0,0,1,11.73,12c.06,5.89.19,17.08.19,17.42,0,5.64,1.75,8,5.86,8,3.16,0,4.42-2,5.36-3.38s1.31-2,3-2c2.76,0,2.77,9.07,2.8,18.68,0,1.2,0,4.08,0,4.08,0,1.26,0,2.51,0,3.72,0,9.6,0,18.67-2.8,18.67-1.71,0-2.18-.72-3-2s-2.2-3.38-5.36-3.38c-4.11,0-5.86,2.41-5.86,8,0,.34-.13,11.52-.19,17.39a11.89,11.89,0,0,1-11.73,12H16.48Z"/><path class="cls-4" d="M3.56,33.1A9.36,9.36,0,0,1,11.12,29c.2,0,.4,0,.6,0,3,0,4.64,1.46,6.1,3,2.87,2.94,3.05,10.94,3.16,27.55,32.22,7.24,46.82-3.2,80.87-3.2,20.34,0,14.33,1.23,28.54,3.4,0-.43,0-.85,0-1.29,0,0,0-2.87,0-4.08,0-9.6,0-18.67-2.8-18.67-1.71,0-2.18.72-3,2S122.36,41,119.2,41c-4.11,0-5.85-2.41-5.85-8.05,0-.34-.14-11.52-.2-17.41a11.88,11.88,0,0,0-11.73-12H16.48c-6.78,0-13,5.72-13,12,0,0,0,10.38,0,16.67C3.54,32.56,3.55,32.85,3.56,33.1Z"/><path class="cls-5" d="M101.41,1.79a13.63,13.63,0,0,1,13.47,13.77s.18,17,.18,17.42c0,5.56,1.75,6.27,4.13,6.27,4.58,0,3.26-5.41,8.38-5.41,4.93,0,4.47,10,4.55,24.17v.36c-.08,14.13.38,24.17-4.55,24.17-5.12,0-3.8-5.41-8.38-5.41-2.38,0-4.13.71-4.13,6.27,0,.37-.18,17.41-.18,17.41a13.62,13.62,0,0,1-13.47,13.78H16.48c-7.44,0-14.69-6.16-14.69-13.78,0,0,0-10.38,0-16.67,0-3,.46-4,1.06-4S4.34,81.3,5,82.2a7.59,7.59,0,0,0,6.27,3.46h.49c2.22,0,3.47-1,4.88-2.44,2.48-2.54,2.56-6.32,2.67-25-.11-18.71-.19-22.49-2.67-25-1.41-1.45-2.66-2.45-4.88-2.45l-.49,0A7.58,7.58,0,0,0,5,34.17c-.61.91-1.43,2-2.08,2s-1.06-1-1.06-4c0-6.29,0-16.67,0-16.67C1.79,8,9,1.79,16.48,1.79h84.93m0-1.79H16.48C7.7,0,0,7.27,0,15.56c0,0,0,10.39,0,16.67C0,34,0,38,2.87,38c1.54,0,2.64-1.46,3.56-2.82a5.8,5.8,0,0,1,4.9-2.66h.38c1.49,0,2.32.59,3.6,1.91,2,2,2.06,5.87,2.16,23.79C17.36,76.1,17.27,80,15.31,82,14,83.29,13.2,83.88,11.7,83.88l-.37,0a5.79,5.79,0,0,1-4.9-2.66c-.92-1.37-2-2.82-3.56-2.82A2.55,2.55,0,0,0,.41,80.5,13,13,0,0,0,0,84.14c0,6.29,0,16.66,0,16.66,0,8.3,7.7,15.57,16.48,15.57h84.93a15.43,15.43,0,0,0,15.25-15.57c0-.67.19-17,.19-17.4,0-4.5,1-4.5,2.34-4.5,1.2,0,1.56.46,2.42,1.78s2.36,3.64,6,3.64c6.27,0,6.29-8.86,6.32-22.27,0-1.19,0-2.42,0-3.68V58c0-1.27,0-2.5,0-3.69,0-13.41-.05-22.26-6.32-22.26-3.61,0-5,2.18-6,3.62s-1.22,1.78-2.42,1.78c-1.36,0-2.34,0-2.34-4.48,0-.38-.18-16.74-.19-17.44A15.42,15.42,0,0,0,101.41,0Z"/><path class="cls-5" d="M36.91,86.85a.77.77,0,0,1,.2.49c0,.07,0,.14,0,.22s0,.14,0,.2a.9.9,0,0,1-.23.38,1.15,1.15,0,0,1-.4.16l-.25,0-.26.06-.25,0H33.25c0,.37,0,.77,0,1.19s0,.91,0,1.47,0,1.21,0,2,0,1.6,0,2.57V97a1,1,0,0,0,0,.27v.13a.89.89,0,0,1,0,.15,3.53,3.53,0,0,0,0,.38.88.88,0,0,1,0,.17.7.7,0,0,1-.06.17s-.07.08-.07.11l-.05.1a.85.85,0,0,1-.34.34,1.3,1.3,0,0,1-.88.09.92.92,0,0,1-.46-.16,1.07,1.07,0,0,1-.23-.32,1,1,0,0,1-.13-.38,1.21,1.21,0,0,1-.05-.34V88.51H29.72l-.72,0-.47,0-.33,0-.37-.07a1.23,1.23,0,0,1-.58-.34.76.76,0,0,1-.2-.52v-.21a.6.6,0,0,1,0-.2.66.66,0,0,1,.29-.36l.22-.13a1.25,1.25,0,0,1,.3-.12,2.27,2.27,0,0,1,.53-.1,1.42,1.42,0,0,1,.29,0H30.2l1.19,0c.69,0,1.38,0,2.06,0s1.37,0,2,0a3.12,3.12,0,0,1,.44,0,1.62,1.62,0,0,1,.43.12,1.73,1.73,0,0,1,.31.14A.74.74,0,0,1,36.91,86.85Z"/><path class="cls-5" d="M48.29,87.28a18.66,18.66,0,0,1,.12,2c0,.76,0,1.52,0,2.29s-.09,1.49-.17,2.18a12,12,0,0,1-.31,1.65c-.08.25-.18.51-.29.78a6,6,0,0,1-.37.72,3.38,3.38,0,0,1-.7.85,4.36,4.36,0,0,1-.9.62,4.81,4.81,0,0,1-1,.41,5.23,5.23,0,0,1-1.08.16,4.69,4.69,0,0,1-1.8-.28,4.49,4.49,0,0,1-1.56-1,4.62,4.62,0,0,1-.86-1.11,5.85,5.85,0,0,1-.5-1.24A6.56,6.56,0,0,1,38.6,94c0-.46-.05-.94-.05-1.43,0-.22,0-.51,0-.85s0-.69,0-1.05V89.57c0-.35,0-.64,0-.88v-.51a5.07,5.07,0,0,1,0-.55,3.41,3.41,0,0,1,.1-.54,1.82,1.82,0,0,1,.21-.47,1,1,0,0,1,.45-.34,1.73,1.73,0,0,1,.6-.11,1.49,1.49,0,0,1,.59.13,1.06,1.06,0,0,1,.47.36.85.85,0,0,1,.12.28,1.52,1.52,0,0,1,.06.32c0,.4,0,.84,0,1.34s0,1,0,1.46,0,.9,0,1.29,0,.69,0,.88a16.4,16.4,0,0,0,.1,1.94,3.27,3.27,0,0,0,.5,1.43,1.61,1.61,0,0,0,.84.67,2.69,2.69,0,0,0,1,.09,2.22,2.22,0,0,0,.9-.34,1.84,1.84,0,0,0,.72-.81,1.57,1.57,0,0,0,.18-.44,3.46,3.46,0,0,0,.11-.47c0-.45.09-1,.13-1.58s.06-1.22.08-1.85,0-1.25,0-1.86,0-1.15,0-1.64a1.53,1.53,0,0,1,.2-.59,1.33,1.33,0,0,1,.41-.41,1.29,1.29,0,0,1,.73-.18,1.13,1.13,0,0,1,.61.19,1.44,1.44,0,0,1,.37.37A1.51,1.51,0,0,1,48.29,87.28Z"/><path class="cls-5" d="M59.08,98.16a.78.78,0,0,1,0,.34.52.52,0,0,1-.1.18,1,1,0,0,1-.15.14,2.36,2.36,0,0,1-.39.2l-.28.06a.67.67,0,0,1-.28,0,.8.8,0,0,1-.5-.21,2.61,2.61,0,0,1-.5-.56c-.06-.09-.12-.2-.19-.32a2.64,2.64,0,0,1-.2-.37l-2-3.77h-.29l-.28,0a4.3,4.3,0,0,1-.71,0q-.33,0-.69,0h-.34v3.23a2.26,2.26,0,0,1,0,.27v.27c0,.06,0,.14,0,.23s0,.19,0,.27a1.2,1.2,0,0,1-.16.4,1.26,1.26,0,0,1-.34.35,1.2,1.2,0,0,1-.91.12,1.44,1.44,0,0,1-.45-.17.41.41,0,0,1-.12-.14.56.56,0,0,1-.09-.17.6.6,0,0,1-.06-.19,1.34,1.34,0,0,0-.07-.18,1.47,1.47,0,0,1,0-.34V87.69a1.7,1.7,0,0,1,0-.22,1.25,1.25,0,0,1,0-.21,1.2,1.2,0,0,1,.13-.39.5.5,0,0,1,.18-.3.84.84,0,0,1,.33-.19,1.92,1.92,0,0,1,.65-.06l1.59,0c.52,0,1,0,1.57,0,.35,0,.71.06,1.1.12a4.5,4.5,0,0,1,1.08.27l.59.25a2.92,2.92,0,0,1,.54.38,3.73,3.73,0,0,1,.94,1.37,4.26,4.26,0,0,1,.32,1.63,3.58,3.58,0,0,1-.45,1.77A2.75,2.75,0,0,1,57,93.35s0,0-.1.05-.07,0-.09,0l1.64,3.3.16.29a1.46,1.46,0,0,0,.09.16.76.76,0,0,1,.09.18c0,.06.07.12.1.19a1.24,1.24,0,0,0,.1.2C59,97.92,59.05,98.05,59.08,98.16ZM54.61,91.8a1.67,1.67,0,0,0,.62-.12,1.89,1.89,0,0,0,.53-.31,1.71,1.71,0,0,0,.4-.45,1.16,1.16,0,0,0,.18-.57A1.47,1.47,0,0,0,55.88,89a2.31,2.31,0,0,0-1.41-.47c-.35,0-.73,0-1.14,0H52.16c0,.49,0,1,0,1.5s0,1.1,0,1.79Z"/><path class="cls-5" d="M70.24,97.59a5.32,5.32,0,0,1-.08.64.84.84,0,0,1-.35.55.88.88,0,0,1-.48.22,1.56,1.56,0,0,1-.53,0,2.08,2.08,0,0,1-.49-.19,1.23,1.23,0,0,1-.38-.33c-.4-.51-.77-1-1.11-1.55l-1-1.6L64.29,93c-.2-.32-.42-.68-.64-1.08s-.46-.77-.7-1.11l-.05,6.82v.16a1.78,1.78,0,0,1-.1.56,1.15,1.15,0,0,1-.33.48,1.06,1.06,0,0,1-.47.19,1.2,1.2,0,0,1-.74,0,1.26,1.26,0,0,1-.46-.39,1.57,1.57,0,0,1-.23-.58,2.09,2.09,0,0,1,0-.66v-.3l0-1.39,0-2.59c0-.38,0-.77,0-1.17V90.69c0-.51,0-1,0-1.62s0-1.11.06-1.61a1.8,1.8,0,0,1,.2-.7.74.74,0,0,1,.37-.42,1.23,1.23,0,0,1,.51-.17,2,2,0,0,1,.55,0l.18.08.17.1.17.14a1.21,1.21,0,0,1,.16.16c.06.06.11.13.16.19a1.33,1.33,0,0,0,.14.19c0,.07.07.14.11.2a1.77,1.77,0,0,0,.12.17l.2.29,4.13,6.5V93c0-.38,0-.77,0-1.17s0-.81,0-1.24,0-1,0-1.61,0-1.1,0-1.6a1.69,1.69,0,0,1,.18-.7.74.74,0,0,1,.31-.37,1.14,1.14,0,0,1,.48-.2,1.19,1.19,0,0,1,.53,0,1.06,1.06,0,0,1,.47.21l.11.13a.8.8,0,0,1,.08.16,1.48,1.48,0,0,1,.11.41,1.93,1.93,0,0,1,.06.45v4.55q0,2.33,0,4.56c0,.16,0,.33,0,.49A4,4,0,0,1,70.24,97.59Z"/><path class="cls-5" d="M79.31,86.73a5.29,5.29,0,0,1,2.17-.39,3.78,3.78,0,0,1,1.75.49A4.29,4.29,0,0,1,84.54,88a6.28,6.28,0,0,1,.88,1.64,7.37,7.37,0,0,1,.41,1.43A9.58,9.58,0,0,1,86,92.56,10.13,10.13,0,0,1,86,94a7.53,7.53,0,0,1-.26,1.32,6.59,6.59,0,0,1-.25.75c-.1.22-.21.45-.34.68A3.94,3.94,0,0,1,84,98a4.79,4.79,0,0,1-1.55.68,4.59,4.59,0,0,1-1.18.13A5.33,5.33,0,0,1,80,98.67a4.83,4.83,0,0,1-1.14-.45,4.13,4.13,0,0,1-1-.74A4.67,4.67,0,0,1,77,96.24a7.12,7.12,0,0,1-.55-1.48,8.42,8.42,0,0,1-.25-1.57,9.39,9.39,0,0,1,0-1.5,7,7,0,0,1,.26-1.41A6,6,0,0,1,78,87.58,3.66,3.66,0,0,1,79.31,86.73Zm4.18,7.64a6.6,6.6,0,0,0,.18-1.89,7.08,7.08,0,0,0-.34-2,4.12,4.12,0,0,0-.49-1,2.12,2.12,0,0,0-.7-.67,1.76,1.76,0,0,0-.93-.23,2.7,2.7,0,0,0-1.2.32,2,2,0,0,0-.67.53,3.11,3.11,0,0,0-.45.77,5.36,5.36,0,0,0-.26.89,4.84,4.84,0,0,0-.12.9,7.73,7.73,0,0,0,0,1,5.91,5.91,0,0,0,.12,1,5.63,5.63,0,0,0,.27,1,2.71,2.71,0,0,0,.49.82,2.53,2.53,0,0,0,1.08.74,2.21,2.21,0,0,0,1.22.06,2.14,2.14,0,0,0,1.5-1.3A3.41,3.41,0,0,0,83.49,94.37Z"/><path class="cls-5" d="M95.8,86.84a1,1,0,0,1,.2.5c0,.07,0,.14,0,.2l0,.19a.56.56,0,0,1-.23.37,1.82,1.82,0,0,1-.32.18.86.86,0,0,1-.23,0l-.26,0a.59.59,0,0,1-.23,0h-1l-3.74,0v3h.31a3.4,3.4,0,0,0,.42,0H91.9l1.24,0h.93l.39,0a2.79,2.79,0,0,1,.39.1.85.85,0,0,1,.47.34.75.75,0,0,1,.19.48v.21a.82.82,0,0,1,0,.21.71.71,0,0,1-.23.35.63.63,0,0,1-.34.16,1,1,0,0,1-.21.07l-.24,0-.24,0H89.85l0,4.15v.14a.91.91,0,0,1,0,.17l0,.17-.06.19-.06.19a1,1,0,0,1-.24.33,1,1,0,0,1-.48.2,1.3,1.3,0,0,1-.91-.11,1,1,0,0,1-.17-.13.54.54,0,0,1-.13-.21.19.19,0,0,1,0-.1l0-.11a.44.44,0,0,1-.07-.19c0-.06,0-.13,0-.19a1,1,0,0,0,0-.17,1.1,1.1,0,0,0,0-.18.71.71,0,0,1,0-.29V95.62l0-2.57c0-.38,0-.77,0-1.16V90.68c0-.43,0-.81,0-1.15s0-.69,0-1.09v-.09c0-.13,0-.25,0-.36a2.09,2.09,0,0,1,0-.35,1.9,1.9,0,0,1,.18-.7.85.85,0,0,1,.35-.43,1.18,1.18,0,0,1,.58-.16l.23,0v0h1.86q1.43,0,2.82,0h.49l.42,0a1.74,1.74,0,0,1,.39,0,3.45,3.45,0,0,1,.4.11A.84.84,0,0,1,95.8,86.84Z"/><path class="cls-5" d="M105.52,86.84a1,1,0,0,1,.19.5,1.27,1.27,0,0,1,0,.2,1.11,1.11,0,0,1,0,.19.54.54,0,0,1-.24.37,1.82,1.82,0,0,1-.32.18.79.79,0,0,1-.22,0l-.26,0a.59.59,0,0,1-.23,0h-1l-3.74,0v0l0,2.91h.32a3.4,3.4,0,0,0,.42,0h1.27l1.25,0h.92l.4,0a2.79,2.79,0,0,1,.39.1.83.83,0,0,1,.46.34.77.77,0,0,1,.2.48v.21a.56.56,0,0,1,0,.21.64.64,0,0,1-.23.35.6.6,0,0,1-.34.16l-.2.07-.24,0-.24,0H99.57l0,4.15v.14c0,.06,0,.12,0,.17l0,.17a1.06,1.06,0,0,0-.06.19,1.46,1.46,0,0,1-.07.19,1,1,0,0,1-.23.33,1,1,0,0,1-.48.2,1.3,1.3,0,0,1-.91-.11.7.7,0,0,1-.17-.13.54.54,0,0,1-.13-.21.19.19,0,0,1,0-.1l0-.11a.64.64,0,0,1-.08-.19l0-.19a1,1,0,0,0,0-.17l0-.18a1.41,1.41,0,0,1,0-.29V97l0-1.4,0-2.57c0-.38,0-.77,0-1.16V90.68c0-.43,0-.81,0-1.15s0-.69,0-1.09v-.09c0-.13,0-.25,0-.36a1.39,1.39,0,0,1,0-.35,2.12,2.12,0,0,1,.17-.7.92.92,0,0,1,.36-.43,1.17,1.17,0,0,1,.57-.16l.24,0v0h1.85c1,0,1.9,0,2.83,0h.49l.42,0a1.74,1.74,0,0,1,.39,0,2.85,2.85,0,0,1,.39.11A.87.87,0,0,1,105.52,86.84Z"/><path class="cls-6" d="M35.12,86.85a.77.77,0,0,1,.2.49,1.7,1.7,0,0,1,0,.22,1.06,1.06,0,0,1,0,.2.81.81,0,0,1-.23.38,1.09,1.09,0,0,1-.39.16l-.25,0a2.61,2.61,0,0,0-.27.06l-.25,0H31.46c0,.37,0,.77,0,1.19s0,.91,0,1.47,0,1.21,0,2,0,1.6,0,2.57V97a1.65,1.65,0,0,0,0,.27v.13a.89.89,0,0,1,0,.15,3.53,3.53,0,0,0-.05.38.88.88,0,0,1,0,.17,1.54,1.54,0,0,1-.05.17c-.05,0-.07.08-.07.11l-.06.1a.85.85,0,0,1-.34.34,1.28,1.28,0,0,1-.87.09,1,1,0,0,1-.47-.16,1.28,1.28,0,0,1-.23-.32,1,1,0,0,1-.12-.38.93.93,0,0,1-.06-.34V88.51H27.93l-.72,0-.46,0-.34,0-.36-.07a1.26,1.26,0,0,1-.59-.34.81.81,0,0,1-.2-.52v-.21a.42.42,0,0,1,0-.2.6.6,0,0,1,.28-.36l.23-.13a1.38,1.38,0,0,1,.29-.12,2.37,2.37,0,0,1,.54-.1,1.32,1.32,0,0,1,.28,0h1.5l1.18,0c.69,0,1.38,0,2.07,0s1.36,0,2,0a3.1,3.1,0,0,1,.45,0,1.86,1.86,0,0,1,.43.12,2,2,0,0,1,.3.14A.64.64,0,0,1,35.12,86.85Z"/><path class="cls-6" d="M46.5,87.28c.07.57.11,1.24.13,2s0,1.52,0,2.29-.09,1.49-.17,2.18a12.19,12.19,0,0,1-.3,1.65q-.14.38-.3.78a4,4,0,0,1-.37.72,3.57,3.57,0,0,1-.69.85,5,5,0,0,1-.9.62,4.89,4.89,0,0,1-1,.41,5,5,0,0,1-1.08.16,4.49,4.49,0,0,1-3.36-1.27,4.88,4.88,0,0,1-.86-1.11,5.85,5.85,0,0,1-.5-1.24A6.56,6.56,0,0,1,36.81,94c0-.46,0-.94,0-1.43,0-.22,0-.51,0-.85s0-.69,0-1.05V89.57c0-.35,0-.64,0-.88v-.51a5.06,5.06,0,0,1,0-.55,3.41,3.41,0,0,1,.1-.54,1.56,1.56,0,0,1,.22-.47.89.89,0,0,1,.44-.34,1.73,1.73,0,0,1,.6-.11,1.54,1.54,0,0,1,.6.13,1.09,1.09,0,0,1,.46.36,1.17,1.17,0,0,1,.13.28,2.69,2.69,0,0,1,0,.32c0,.4,0,.84,0,1.34v1.46q0,.7,0,1.29c0,.4,0,.69,0,.88a16.27,16.27,0,0,0,.11,1.94A3.15,3.15,0,0,0,40,95.6a1.61,1.61,0,0,0,.84.67,2.62,2.62,0,0,0,1,.09,2.32,2.32,0,0,0,.91-.34,1.91,1.91,0,0,0,.72-.81,2.53,2.53,0,0,0,.18-.44c0-.17.08-.33.1-.47,0-.45.09-1,.13-1.58s.06-1.22.09-1.85,0-1.25,0-1.86,0-1.15,0-1.64a1.52,1.52,0,0,1,.19-.59,1.6,1.6,0,0,1,.41-.41,1.33,1.33,0,0,1,.74-.18,1.07,1.07,0,0,1,.6.19,1.43,1.43,0,0,1,.61.9Z"/><path class="cls-6" d="M57.29,98.16a.78.78,0,0,1,0,.34.4.4,0,0,1-.1.18,1,1,0,0,1-.15.14,1.76,1.76,0,0,1-.39.2l-.28.06a.62.62,0,0,1-.27,0,.78.78,0,0,1-.5-.21,2.37,2.37,0,0,1-.5-.56l-.2-.32c-.07-.12-.14-.24-.2-.37l-2-3.77H52.4l-.29,0a4.3,4.3,0,0,1-.71,0c-.22,0-.45,0-.68,0h-.34v3.23c0,.1,0,.19,0,.27a2.35,2.35,0,0,0,0,.27,2,2,0,0,1,0,.23q0,.15,0,.27a1,1,0,0,1-.16.4,1,1,0,0,1-.34.35,1.2,1.2,0,0,1-.91.12,1.49,1.49,0,0,1-.44-.17.58.58,0,0,1-.13-.14.56.56,0,0,1-.09-.17l-.06-.19-.06-.18a1.11,1.11,0,0,1-.06-.34V87.69a1.7,1.7,0,0,1,0-.22l0-.21a1,1,0,0,1,.12-.39.55.55,0,0,1,.18-.3.84.84,0,0,1,.33-.19,2,2,0,0,1,.65-.06l1.59,0c.53,0,1.05,0,1.58,0,.34,0,.71.06,1.09.12a4.5,4.5,0,0,1,1.08.27l.59.25a2.92,2.92,0,0,1,.54.38,3.76,3.76,0,0,1,1,1.37,4.46,4.46,0,0,1,.32,1.63,3.49,3.49,0,0,1-.46,1.77,2.76,2.76,0,0,1-1.45,1.19.19.19,0,0,1-.1.05s-.08,0-.1,0l1.64,3.3.16.29a1.14,1.14,0,0,1,.09.16.76.76,0,0,1,.09.18,1.14,1.14,0,0,1,.1.19,1.24,1.24,0,0,0,.1.2C57.24,97.92,57.27,98.05,57.29,98.16ZM52.82,91.8a1.63,1.63,0,0,0,.62-.12,1.81,1.81,0,0,0,.54-.31,1.9,1.9,0,0,0,.4-.45,1.41,1.41,0,0,0,.18-.57A1.47,1.47,0,0,0,54.09,89a2.31,2.31,0,0,0-1.41-.47c-.34,0-.72,0-1.13,0H50.38c0,.49,0,1,0,1.5s0,1.1,0,1.79Z"/><path class="cls-6" d="M68.45,97.59a5.32,5.32,0,0,1-.08.64.84.84,0,0,1-.35.55.88.88,0,0,1-.48.22A1.58,1.58,0,0,1,67,99a2.26,2.26,0,0,1-.49-.19,1.19,1.19,0,0,1-.37-.33A17.82,17.82,0,0,1,65,96.9l-1-1.6L62.5,93c-.2-.32-.41-.68-.64-1.08a11.74,11.74,0,0,0-.7-1.11l0,6.82v.16a1.54,1.54,0,0,1-.1.56,1,1,0,0,1-.33.48,1,1,0,0,1-.46.19,1.19,1.19,0,0,1-.74,0,1.3,1.3,0,0,1-.47-.39,1.57,1.57,0,0,1-.23-.58,2.44,2.44,0,0,1,0-.66v-.3l0-1.39,0-2.59c0-.38,0-.77,0-1.17V90.69c0-.51,0-1,0-1.62s0-1.11.07-1.61a1.8,1.8,0,0,1,.19-.7.76.76,0,0,1,.38-.42,1.18,1.18,0,0,1,.51-.17,1.86,1.86,0,0,1,.54,0l.18.08.18.1.17.14.15.16c.06.06.11.13.16.19l.14.19.11.2.13.17.19.29,4.13,6.5V93c0-.38,0-.77,0-1.17s0-.81,0-1.24,0-1,0-1.61,0-1.1,0-1.6a1.69,1.69,0,0,1,.18-.7.78.78,0,0,1,.3-.37,1.14,1.14,0,0,1,.48-.2,1.23,1.23,0,0,1,.54,0,1,1,0,0,1,.46.21l.11.13.09.16a1.94,1.94,0,0,1,.11.41,2.58,2.58,0,0,1,.05.45c0,1.48,0,3,0,4.55s0,3.07,0,4.56c0,.16,0,.33,0,.49A4,4,0,0,1,68.45,97.59Z"/><path class="cls-6" d="M77.53,86.73a5.26,5.26,0,0,1,2.17-.39,3.71,3.71,0,0,1,1.74.49A4.17,4.17,0,0,1,82.75,88a6.61,6.61,0,0,1,.89,1.64,9.11,9.11,0,0,1,.41,1.43,11,11,0,0,1,.17,1.49A10.13,10.13,0,0,1,84.16,94a7.53,7.53,0,0,1-.26,1.32,5.07,5.07,0,0,1-.25.75,6.16,6.16,0,0,1-.34.68A3.83,3.83,0,0,1,82.16,98a4.74,4.74,0,0,1-1.54.68,4.64,4.64,0,0,1-1.18.13,5.34,5.34,0,0,1-1.2-.16,4.76,4.76,0,0,1-1.13-.45,3.77,3.77,0,0,1-1-.74,4.71,4.71,0,0,1-.92-1.24,7.74,7.74,0,0,1-.55-1.48,9.33,9.33,0,0,1-.25-1.57,12.51,12.51,0,0,1,0-1.5,7.84,7.84,0,0,1,.26-1.41,6.45,6.45,0,0,1,.6-1.44,5.63,5.63,0,0,1,.95-1.26A3.7,3.7,0,0,1,77.53,86.73Zm4.18,7.64a7,7,0,0,0,.18-1.89,7.46,7.46,0,0,0-.34-2,4.53,4.53,0,0,0-.5-1,2,2,0,0,0-.69-.67,1.8,1.8,0,0,0-.94-.23,2.7,2.7,0,0,0-1.2.32,2.16,2.16,0,0,0-.67.53,3.08,3.08,0,0,0-.44.77,4.57,4.57,0,0,0-.27.89,4.84,4.84,0,0,0-.12.9,7.79,7.79,0,0,0,0,1,7.07,7.07,0,0,0,.11,1,5.64,5.64,0,0,0,.28,1,2.9,2.9,0,0,0,.48.82,2.53,2.53,0,0,0,1.08.74,2.21,2.21,0,0,0,1.22.06,2.18,2.18,0,0,0,1.51-1.3A3.41,3.41,0,0,0,81.71,94.37Z"/><path class="cls-6" d="M94,86.84a.93.93,0,0,1,.2.5,1.27,1.27,0,0,1,0,.2,1.08,1.08,0,0,1,0,.19.56.56,0,0,1-.23.37,1.82,1.82,0,0,1-.32.18.87.87,0,0,1-.22,0l-.26,0a.59.59,0,0,1-.23,0H91.85l-3.73,0v0l0,2.91h.31a3.25,3.25,0,0,0,.42,0h1.28l1.24,0h.93l.39,0a2.6,2.6,0,0,1,.4.1.83.83,0,0,1,.46.34.77.77,0,0,1,.2.48v.21a.56.56,0,0,1,0,.21.71.71,0,0,1-.23.35.63.63,0,0,1-.34.16,1,1,0,0,1-.21.07l-.24,0-.24,0H88.07L88,97.59v.14a.91.91,0,0,1,0,.17,1.11,1.11,0,0,1,0,.17,1.07,1.07,0,0,0-.07.19,1.39,1.39,0,0,1-.06.19,1,1,0,0,1-.23.33,1,1,0,0,1-.48.2,1.3,1.3,0,0,1-.91-.11.7.7,0,0,1-.17-.13.55.55,0,0,1-.14-.21.26.26,0,0,1,0-.1l-.06-.11a.62.62,0,0,1-.07-.19l0-.19s0-.11,0-.17l0-.18a1.41,1.41,0,0,1,0-.29V97l0-1.4,0-2.57c0-.38,0-.77,0-1.16V90.68c0-.43,0-.81,0-1.15s0-.69,0-1.09v-.09c0-.13,0-.25,0-.36a2.07,2.07,0,0,1,0-.35,2.39,2.39,0,0,1,.18-.7.82.82,0,0,1,.36-.43,1.17,1.17,0,0,1,.57-.16l.23,0v0H89q1.43,0,2.82,0h.49l.42,0a1.9,1.9,0,0,1,.4,0,2.85,2.85,0,0,1,.39.11A.81.81,0,0,1,94,86.84Z"/><path class="cls-6" d="M103.73,86.84a1,1,0,0,1,.2.5c0,.07,0,.14,0,.2l0,.19a.56.56,0,0,1-.23.37,1.82,1.82,0,0,1-.32.18.86.86,0,0,1-.23,0l-.25,0a.64.64,0,0,1-.24,0h-1.05l-3.73,0v0l0,2.91h.31a3.4,3.4,0,0,0,.42,0h1.28l1.24,0H102l.39,0a2.79,2.79,0,0,1,.39.1.85.85,0,0,1,.47.34.75.75,0,0,1,.19.48v.21a.82.82,0,0,1,0,.21.71.71,0,0,1-.23.35.63.63,0,0,1-.34.16,1,1,0,0,1-.21.07l-.24,0-.24,0H97.78l0,4.15v.14a.91.91,0,0,1,0,.17l0,.17-.06.19-.06.19a.82.82,0,0,1-.72.53,1.3,1.3,0,0,1-.91-.11,1,1,0,0,1-.17-.13.54.54,0,0,1-.13-.21.19.19,0,0,1,0-.1l0-.11a.44.44,0,0,1-.07-.19c0-.06,0-.13,0-.19a1,1,0,0,0,0-.17,1.1,1.1,0,0,0,0-.18,1.41,1.41,0,0,1,0-.29V95.62l0-2.57c0-.38,0-.77,0-1.16V90.68c0-.43,0-.81,0-1.15s0-.69,0-1.09v-.09c0-.13,0-.25,0-.36a2.09,2.09,0,0,1,0-.35,1.9,1.9,0,0,1,.18-.7.82.82,0,0,1,.36-.43,1.11,1.11,0,0,1,.57-.16l.23,0v0h1.86q1.43,0,2.82,0h.49l.42,0a1.74,1.74,0,0,1,.39,0,3.45,3.45,0,0,1,.4.11A.84.84,0,0,1,103.73,86.84Z"/><rect class="cls-5" x="47.87" y="17.19" width="15.03" height="11" rx="1.17"/><rect class="cls-5" x="47.87" y="17.19" width="15.03" height="11" rx="1.17"/><rect class="cls-5" x="73.1" y="17.19" width="15.03" height="11" rx="1.17"/><rect class="cls-5" x="73.1" y="17.19" width="15.03" height="11" rx="1.17"/><path class="cls-5" d="M66.66,20.22h2a.68.68,0,0,1,.68.68v6.25a.68.68,0,0,1-.68.68h-2a0,0,0,0,1,0,0V20.22A0,0,0,0,1,66.66,20.22Z" transform="translate(92.04 -43.97) rotate(90)"/><g class="cls-7"><path class="cls-5" d="M72.6,63.92H63.4V60A4.61,4.61,0,0,1,68,55.4h0A4.61,4.61,0,0,1,72.6,60Z"/><rect class="cls-5" x="62.19" y="63.92" width="11.62" height="2.41" rx="0.35"/></g><path class="cls-5" d="M43.15,58h3a.81.81,0,0,1,.81.81v6.74a.81.81,0,0,1-.81.81h-3a0,0,0,0,1,0,0V58A0,0,0,0,1,43.15,58Z"/><path class="cls-5" d="M43.15,44.52h3a.81.81,0,0,1,.81.81v6.74a.81.81,0,0,1-.81.81h-3a0,0,0,0,1,0,0V44.52A0,0,0,0,1,43.15,44.52Z"/><path class="cls-5" d="M43.15,31h3a.81.81,0,0,1,.81.81v6.74a.81.81,0,0,1-.81.81h-3a0,0,0,0,1,0,0V31A0,0,0,0,1,43.15,31Z"/><path class="cls-5" d="M89.14,51.27h3a.81.81,0,0,1,.81.81v6.74a.81.81,0,0,1-.81.81h-3a0,0,0,0,1,0,0V51.27A0,0,0,0,1,89.14,51.27Z" transform="translate(182.07 110.89) rotate(180)"/><rect class="cls-5" x="43.15" y="22.69" width="49.69" height="54.99" rx="3.42"/><rect class="cls-5" x="43.15" y="22.69" width="49.69" height="54.99" rx="3.42"/><rect class="cls-8" x="43.15" y="28.19" width="49.77" height="41.01"/><path class="cls-5" d="M89.14,37.78h3a.81.81,0,0,1,.81.81v6.74a.81.81,0,0,1-.81.81h-3a0,0,0,0,1,0,0V37.78A0,0,0,0,1,89.14,37.78Z" transform="translate(182.07 83.91) rotate(180)"/><rect class="cls-9" x="46.08" y="17.19" width="15.03" height="11" rx="1.17"/><rect class="cls-10" x="46.08" y="17.19" width="15.03" height="11" rx="1.17"/><rect class="cls-9" x="71.32" y="17.19" width="15.03" height="11" rx="1.17"/><rect class="cls-10" x="71.32" y="17.19" width="15.03" height="11" rx="1.17"/><rect class="cls-9" x="41.37" y="22.69" width="49.69" height="54.99" rx="3.42"/><path class="cls-11" d="M64.87,20.22h2a.68.68,0,0,1,.68.68v6.25a.68.68,0,0,1-.68.68h-2a0,0,0,0,1,0,0V20.22A0,0,0,0,1,64.87,20.22Z" transform="translate(90.25 -42.18) rotate(90)"/><rect class="cls-10" x="41.37" y="22.69" width="49.69" height="54.99" rx="3.42"/><g class="cls-7"><path class="cls-12" d="M70.82,63.92H61.61V60a4.61,4.61,0,0,1,4.6-4.6h0A4.62,4.62,0,0,1,70.82,60Z"/><rect class="cls-13" x="60.4" y="63.92" width="11.62" height="2.41" rx="0.35"/></g><rect class="cls-14" x="41.37" y="28.19" width="49.77" height="41.01"/><path class="cls-11" d="M41.37,58h3a.81.81,0,0,1,.81.81v6.74a.81.81,0,0,1-.81.81h-3a0,0,0,0,1,0,0V58A0,0,0,0,1,41.37,58Z"/><path class="cls-11" d="M41.37,44.52h3a.81.81,0,0,1,.81.81v6.74a.81.81,0,0,1-.81.81h-3a0,0,0,0,1,0,0V44.52A0,0,0,0,1,41.37,44.52Z"/><path class="cls-11" d="M41.37,31h3a.81.81,0,0,1,.81.81v6.74a.81.81,0,0,1-.81.81h-3a0,0,0,0,1,0,0V31A0,0,0,0,1,41.37,31Z"/><path class="cls-11" d="M87.36,37.78h3a.81.81,0,0,1,.81.81v6.74a.81.81,0,0,1-.81.81h-3a0,0,0,0,1,0,0V37.78A0,0,0,0,1,87.36,37.78Z" transform="translate(178.5 83.91) rotate(180)"/><path class="cls-11" d="M87.36,51.27h3a.81.81,0,0,1,.81.81v6.74a.81.81,0,0,1-.81.81h-3a0,0,0,0,1,0,0V51.27A0,0,0,0,1,87.36,51.27Z" transform="translate(178.5 110.89) rotate(180)"/></g></g></svg>