<svg xmlns="http://www.w3.org/2000/svg" xmlns:xlink="http://www.w3.org/1999/xlink" viewBox="0 0 312.82 159.15"><defs><style>.cls-1{fill:#902188;stroke:#9a1f93;stroke-width:4px;}.cls-1,.cls-10,.cls-7{stroke-miterlimit:10;}.cls-2{fill:#ea13ff;}.cls-3{fill:url(#무제_그라디언트_5);}.cls-4{opacity:0.2;fill:url(#무제_그라디언트_3);}.cls-5{fill:#f599ff;}.cls-6{fill:#f276ff;}.cls-10,.cls-7{fill:none;}.cls-7{stroke:#f599ff;stroke-linecap:round;stroke-width:2.5px;opacity:0.6;}.cls-8{fill:#9a1f93;}.cls-9{fill:#fff;}.cls-10{stroke:#898989;stroke-width:2px;}</style><linearGradient id="무제_그라디언트_5" x1="2" y1="73.29" x2="310.82" y2="73.29" gradientUnits="userSpaceOnUse"><stop offset="0" stop-color="#fff" stop-opacity="0.5"/><stop offset="0.5" stop-color="#fff" stop-opacity="0"/><stop offset="1" stop-color="#fff" stop-opacity="0"/></linearGradient><linearGradient id="무제_그라디언트_3" x1="2.14" y1="43" x2="310.68" y2="43" gradientUnits="userSpaceOnUse"><stop offset="0" stop-color="#fff"/><stop offset="1" stop-color="#fff" stop-opacity="0.39"/></linearGradient></defs><g id="레이어_2" data-name="레이어 2"><g id="Layer_1" data-name="Layer 1"><path class="cls-1" d="M79.68,66c0,12.15-.16,24.3.08,36.44.08,4.22-1,7.46-3.73,9.86-5.29,0-6-7.36-12.35-4.78,0,5.55.32,11.81-.06,18-.92,14.78-7,20.14-18.62,18.85-8.49-.94-17.16-.16-25.75-.19-10.17,0-16.06-4.53-16.71-14.23-.45-6.76-1.53-13.83,1.72-20.61,3.28,2,6.15,6.26,10.49,4.49,5.47-2.23,4.52-7.6,4.51-12.3,0-9.78-.1-19.55,0-29.33.06-4.52.48-9.43-4.53-11.41-4.34-1.71-7.55,1.64-10.35,5C3.61,63.33,2.24,62,2.27,59.79c.18-13.62.07-27.25.11-40.87A20,20,0,0,1,5,9.14S7.84,2,15.69,2h266.6s10.5-1,10.66,8.89c.78,19-1.67,38.17,1.4,56.48,6.67,1.21,7.49-4.15,11.3-5,4.5,2.55,5.31,6.68,5.15,11.63-.27,8.59-.05,17.18-.09,25.77,0,4.47,1.1,9.9-3.64,12.24s-7.14-3.1-10.83-6.09c-6,9.81-2.16,19.91-3.29,29.4,0,0,.47,8.88-8.89,8.88H199.64c-12.4,0-17.63-5.23-17.76-17.77-.06-5-.07-10.07.07-15.1,0-.61,1.1-1.19,1.73-1.82,3.75,1,5,7.52,10.66,4.54,5.4-2.82,5.32-7.58,5.31-12.5,0-8.59-.07-17.18,0-25.77.05-5.26.18-11.18-4.62-14-4.11-2.37-7.5,2.84-11.64,4.73-2.88-5.91-1.29-11.79-1.47-17.43-.46-14.25-5.36-19.46-19.62-19.52-26.66-.11-53.32-.06-80,0-6.81,0-13.19,1.22-16.88,8,0,0-3.92,5.1-3.67,10.1s-1,18.44,0,19.25c1.38,1.12,5.34,1.66,7.42-2.75S79.68,61.35,79.68,66Z"/><path class="cls-2" d="M79.68,66c0,12.15-.16,24.3.08,36.44.08,4.22-1,7.46-3.73,9.86-5.29,0-6-7.36-12.35-4.78,0,5.55.32,11.81-.06,18-.92,14.78-7,20.14-18.62,18.85-8.49-.94-17.16-.16-25.75-.19-10.17,0-16.06-4.53-16.71-14.23-.45-6.76-1.53-13.83,1.72-20.61,3.28,2,6.15,6.26,10.49,4.49,5.47-2.23,4.52-7.6,4.51-12.3,0-9.78-.1-19.55,0-29.33.06-4.52.48-9.43-4.53-11.41-4.34-1.71-7.55,1.64-10.35,5C3.61,63.33,2.24,62,2.27,59.79c.18-13.62.07-27.25.11-40.87A20,20,0,0,1,5,9.14S7.84,2,15.69,2h266.6s10.5-1,10.66,8.89c.78,19-1.67,38.17,1.4,56.48,6.67,1.21,7.49-4.15,11.3-5,4.5,2.55,5.31,6.68,5.15,11.63-.27,8.59-.05,17.18-.09,25.77,0,4.47,1.1,9.9-3.64,12.24s-7.14-3.1-10.83-6.09c-6,9.81-2.16,19.91-3.29,29.4,0,0,.47,8.88-8.89,8.88H199.64c-12.4,0-17.63-5.23-17.76-17.77-.06-5-.07-10.07.07-15.1,0-.61,1.1-1.19,1.73-1.82,3.75,1,5,7.52,10.66,4.54,5.4-2.82,5.32-7.58,5.31-12.5,0-8.59-.07-17.18,0-25.77.05-5.26.18-11.18-4.62-14-4.11-2.37-7.5,2.84-11.64,4.73-2.88-5.91-1.29-11.79-1.47-17.43-.46-14.25-5.36-19.46-19.62-19.52-26.66-.11-53.32-.06-80,0-6.81,0-13.19,1.22-16.88,8,0,0-3.92,5.1-3.67,10.1s-1,18.44,0,19.25c1.38,1.12,5.34,1.66,7.42-2.75S79.68,61.35,79.68,66Z"/><path class="cls-3" d="M79.68,66c0,12.15-.16,24.3.08,36.44.08,4.22-1,7.46-3.73,9.86-5.29,0-6-7.36-12.35-4.78,0,5.55.32,11.81-.06,18-.92,14.78-7,20.14-18.62,18.85-8.49-.94-17.16-.16-25.75-.19-10.17,0-16.06-4.53-16.71-14.23-.45-6.76-1.53-13.83,1.72-20.61,3.28,2,6.15,6.26,10.49,4.49,5.47-2.23,4.52-7.6,4.51-12.3,0-9.78-.1-19.55,0-29.33.06-4.52.48-9.43-4.53-11.41-4.34-1.71-7.55,1.64-10.35,5C3.61,63.33,2.24,62,2.27,59.79c.18-13.62.07-27.25.11-40.87A20,20,0,0,1,5,9.14S7.84,2,15.69,2h266.6s10.5-1,10.66,8.89c.78,19-1.67,38.17,1.4,56.48,6.67,1.21,7.49-4.15,11.3-5,4.5,2.55,5.31,6.68,5.15,11.63-.27,8.59-.05,17.18-.09,25.77,0,4.47,1.1,9.9-3.64,12.24s-7.14-3.1-10.83-6.09c-6,9.81-2.16,19.91-3.29,29.4,0,0,.47,8.88-8.89,8.88H199.64c-12.4,0-17.63-5.23-17.76-17.77-.06-5-.07-10.07.07-15.1,0-.61,1.1-1.19,1.73-1.82,3.75,1,5,7.52,10.66,4.54,5.4-2.82,5.32-7.58,5.31-12.5,0-8.59-.07-17.18,0-25.77.05-5.26.18-11.18-4.62-14-4.11-2.37-7.5,2.84-11.64,4.73-2.88-5.91-1.29-11.79-1.47-17.43-.46-14.25-5.36-19.46-19.62-19.52-26.66-.11-53.32-.06-80,0-6.81,0-13.19,1.22-16.88,8,0,0-3.92,5.1-3.67,10.1s-1,18.44,0,19.25c1.38,1.12,5.34,1.66,7.42-2.75S79.68,61.35,79.68,66Z"/><path class="cls-4" d="M310.53,84h-111q0-4.11,0-8.22c.05-5.26.18-11.18-4.62-14-4.11-2.37-7.49,2.84-11.63,4.73-2.88-5.91-1.29-11.79-1.47-17.43-.46-14.25-5.37-19.46-19.63-19.52-26.66-.11-53.32-.06-80,0-6.82,0-13.2,1.22-16.89,8,0,0-3.91,5.1-3.66,10.1s-1,18.44,0,19.25C63,68.05,67,68.59,69.07,64.18S79.55,61.35,79.54,66c0,6,0,12-.05,18H19.08c0-3.93,0-7.85.07-11.78.06-4.52.48-9.43-4.54-11.41-4.34-1.71-7.54,1.64-10.34,5C3.48,63.33,2.11,62,2.14,59.79c.18-13.62.07-27.25.1-40.87A20,20,0,0,1,4.89,9.14S7.71,2,15.56,2H282.15s10.51-1,10.66,8.89c.78,19-1.66,38.17,1.4,56.48,6.68,1.21,7.49-4.15,11.3-5,4.51,2.55,5.31,6.68,5.15,11.63-.1,3.33-.13,6.66-.14,10"/><path class="cls-5" d="M5.47,117.23c0-.33,0-.62,0-.87A9.36,9.36,0,0,0,13,120.5c.21,0,.41,0,.6,0,3,0,4.64-1.46,6.11-3,3-3.1,3.06-7.1,3.17-26.28,0-.42,0-.84,0-1.25-.11,18.1-.2,22-3.16,25-1.47,1.5-3.14,3-6.11,3l-.6,0a9.39,9.39,0,0,1-7.56-4.14c0,.26,0,.54,0,.86,0,6.29,0,16.67,0,16.67v.09C5.46,128,5.47,121.63,5.47,117.23Z"/><path class="cls-6" d="M185.07,117.23c0-.33,0-.62,0-.87a9.36,9.36,0,0,0,7.56,4.14c.2,0,.4,0,.59,0,3,0,4.65-1.46,6.11-3,3-3.1,3.06-7.1,3.17-26.28V90c-.11,18.1-.2,22-3.17,25-1.46,1.5-3.14,3-6.11,3l-.59,0a9.39,9.39,0,0,1-7.56-4.14c0,.26,0,.54,0,.86,0,6.29,0,16.67,0,16.67v.09C185.06,128,185.07,121.63,185.07,117.23Z"/><path class="cls-7" d="M3.45,22.91a20.09,20.09,0,0,1,2.61-9.77S8.83,6,16.57,6H279.41s10.36-1,10.52,8.88c.76,19-1.65,38.17,1.38,56.49,6.58,1.2,7.38-4.15,11.14-5,4.44,2.56,5.23,6.69,5.08,11.64"/><path class="cls-8" d="M225.87,129.12a.91.91,0,0,1,0,.33.5.5,0,0,1-.1.18l-.15.15a2.14,2.14,0,0,1-.4.19l-.27.07a.89.89,0,0,1-.28,0,.85.85,0,0,1-.5-.22,2.35,2.35,0,0,1-.5-.55l-.2-.32c-.07-.12-.13-.25-.19-.38l-2-3.77H221l-.29,0a5.61,5.61,0,0,1-.7,0h-1v3.23a2.35,2.35,0,0,1,0,.27c0,.08,0,.17,0,.27a2.11,2.11,0,0,1,0,.23,2.45,2.45,0,0,1,0,.27,1.45,1.45,0,0,1-.16.4,1.41,1.41,0,0,1-.34.35,1.39,1.39,0,0,1-1.36-.06.53.53,0,0,1-.13-.13,1.3,1.3,0,0,1-.08-.17,1.07,1.07,0,0,1-.07-.19l-.06-.19a1,1,0,0,1-.05-.34V118.65a1.62,1.62,0,0,1,0-.22,1.25,1.25,0,0,1,0-.21,1,1,0,0,1,.13-.39.46.46,0,0,1,.18-.31.84.84,0,0,1,.33-.18,1.64,1.64,0,0,1,.65-.07c.53,0,1.06,0,1.59,0s1.05,0,1.57,0c.34,0,.71.06,1.1.11a5.18,5.18,0,0,1,1.08.28l.59.25a3.18,3.18,0,0,1,.53.38,3.56,3.56,0,0,1,.95,1.37,4.46,4.46,0,0,1,.32,1.63,3.52,3.52,0,0,1-.45,1.76,2.76,2.76,0,0,1-1.46,1.2.23.23,0,0,1-.1,0l-.1,0,1.65,3.31.16.28a.89.89,0,0,0,.09.16l.09.18a1.21,1.21,0,0,1,.09.2,1.65,1.65,0,0,0,.1.19Q225.84,129,225.87,129.12Zm-4.46-6.36a1.58,1.58,0,0,0,.61-.12,2.05,2.05,0,0,0,.54-.31,1.77,1.77,0,0,0,.4-.46,1.12,1.12,0,0,0,.18-.56,1.46,1.46,0,0,0-.46-1.33,2.32,2.32,0,0,0-1.42-.47c-.34,0-.72,0-1.13,0H219c0,.49,0,1,0,1.49s0,1.11,0,1.8Z"/><path class="cls-8" d="M229.77,119.4l0,2.8h4.2a2.7,2.7,0,0,1,.41.06l.39.1a1.23,1.23,0,0,1,.5.32.84.84,0,0,1,.18.52v.21a.64.64,0,0,1,0,.2.68.68,0,0,1-.24.36.57.57,0,0,1-.34.18,1.87,1.87,0,0,1-.46.09,2.83,2.83,0,0,1-.5,0H233l-3.31,0,0,3.5,3.55,0h1.34a1.47,1.47,0,0,0,.26.05.93.93,0,0,1,.23,0,1.07,1.07,0,0,1,.35.2.9.9,0,0,1,.24.37,1.23,1.23,0,0,1,0,.19.74.74,0,0,1,0,.21.79.79,0,0,1-.18.51,1,1,0,0,1-.5.33,2.18,2.18,0,0,1-.82.16l-.41,0h-.52c-.93,0-1.89,0-2.89,0h-1.77a1.06,1.06,0,0,1-.68-.15.77.77,0,0,1-.3-.34.12.12,0,0,1,0-.1l0-.06,0-.05a1.05,1.05,0,0,1-.05-.19,1.23,1.23,0,0,1,0-.19,1.1,1.1,0,0,1,0-.18l0-.17v-.29a.66.66,0,0,1,0-.14s0-.1,0-.15v-1.39l0-2.57v-2.38c0-.42,0-.81,0-1.14s0-.7,0-1.09v-.09q0-.2,0-.36v-.35a1.8,1.8,0,0,1,.2-.7,2.75,2.75,0,0,1,.15-.25.71.71,0,0,1,.23-.18,1.1,1.1,0,0,1,.55-.16l.21,0v0h4.65a2.75,2.75,0,0,0,.41,0l.41,0a1.72,1.72,0,0,1,.39,0l.4.12a1.16,1.16,0,0,1,.5.3,1,1,0,0,1,.16.5v.21a.65.65,0,0,1,0,.19.62.62,0,0,1-.21.37l-.16.09a.51.51,0,0,1-.18.09l-.23,0-.22,0a.87.87,0,0,1-.26,0h-1.06l-3.57,0Z"/><path class="cls-8" d="M244.86,118.38a3.88,3.88,0,0,1,1,1.49,4,4,0,0,1,.25,1.73,3.29,3.29,0,0,1-.52,1.51,2.81,2.81,0,0,1-1.36,1,6.33,6.33,0,0,1-1.41.43,15.21,15.21,0,0,1-1.53.19c-.25,0-.46,0-.64,0l-.6,0h-.48v3.7c0,.23-.08.46-.13.7a.86.86,0,0,1-.42.55,1.13,1.13,0,0,1-.48.13,2.82,2.82,0,0,1-.52,0,1.16,1.16,0,0,1-.42-.13.72.72,0,0,1-.28-.35,2.64,2.64,0,0,1-.13-.37,1.88,1.88,0,0,1-.06-.51v-9.88a1.69,1.69,0,0,1,0-.23c0-.07,0-.14,0-.21a1.17,1.17,0,0,0,0-.2.53.53,0,0,1,.06-.19.89.89,0,0,1,.08-.17.6.6,0,0,1,.11-.12.79.79,0,0,1,.28-.16,1.58,1.58,0,0,1,.56-.07h0l1.23-.07a9.35,9.35,0,0,1,1.12,0,4.45,4.45,0,0,0,.47,0l.41,0,.43,0,.43,0,.33.06.31,0,.31.07a.9.9,0,0,1,.32.13,2.57,2.57,0,0,1,.62.26Zm-1.07,3a1.39,1.39,0,0,0-.17-.75,1.61,1.61,0,0,0-.53-.54,3.38,3.38,0,0,0-.77-.34,6.25,6.25,0,0,0-.86-.18h-.29l-.4,0-.4,0h-.3l-.21,0h-.29c0,.37,0,.73,0,1.07v1.09c0,.22,0,.43,0,.65v.62l1.11,0a8.3,8.3,0,0,0,.95,0,5.17,5.17,0,0,0,1-.21,2.3,2.3,0,0,0,.79-.47A1.25,1.25,0,0,0,243.79,121.33Z"/><path class="cls-8" d="M250,119.4l0,2.8h4.19a2.52,2.52,0,0,1,.41.06l.4.1a1.23,1.23,0,0,1,.5.32.84.84,0,0,1,.18.52v.21a.65.65,0,0,1,0,.2.8.8,0,0,1-.57.54,2,2,0,0,1-.47.09,2.73,2.73,0,0,1-.5,0h-.84l-3.3,0,0,3.5,3.56,0h1.34a1.32,1.32,0,0,0,.26.05.85.85,0,0,1,.22,0,1.25,1.25,0,0,1,.36.2.87.87,0,0,1,.23.37l0,.19a1.48,1.48,0,0,1,0,.21.79.79,0,0,1-.18.51,1,1,0,0,1-.5.33,2.22,2.22,0,0,1-.82.16l-.41,0h-.52c-.93,0-1.89,0-2.9,0h-1.76a1,1,0,0,1-.68-.15.85.85,0,0,1-.31-.34.16.16,0,0,1,0-.1.09.09,0,0,0,0-.06l0-.05a.59.59,0,0,1,0-.19.62.62,0,0,1,0-.19l0-.18a1.22,1.22,0,0,0,0-.17v-.29c0-.05,0-.09,0-.14a.76.76,0,0,0,0-.15v-1.39l0-2.57v-2.38c0-.42,0-.81,0-1.14s0-.7,0-1.09v-.09q0-.2,0-.36c0-.12,0-.23,0-.35a1.65,1.65,0,0,1,.2-.7,1,1,0,0,1,.15-.25.58.58,0,0,1,.22-.18,1.12,1.12,0,0,1,.55-.16l.22,0v0h4.64a2.75,2.75,0,0,0,.41,0l.41,0a1.81,1.81,0,0,1,.4,0,2.91,2.91,0,0,1,.39.12,1.1,1.1,0,0,1,.5.3.92.92,0,0,1,.16.5v.21a.63.63,0,0,1,0,.19.7.7,0,0,1-.22.37l-.15.09a.56.56,0,0,1-.19.09l-.22,0-.22,0a.92.92,0,0,1-.26,0h-1.07l-3.57,0Z"/><path class="cls-8" d="M268.4,128.69l0,.2c0,.07,0,.14,0,.23a.87.87,0,0,1-.27.56.67.67,0,0,1-.22.13,1.41,1.41,0,0,1-.94.18,1.2,1.2,0,0,1-.45-.23.23.23,0,0,0-.05,0s0,0,0,0l0,0s0,0-.06,0a1,1,0,0,1-.14-.17s-.07-.11-.11-.17a.89.89,0,0,0-.08-.17l-.1-.17a.54.54,0,0,0-.07-.13.58.58,0,0,1-.05-.14.9.9,0,0,1-.09-.28l-.38-.88h-2.45c-.82,0-1.64,0-2.46,0l-.37.88a.39.39,0,0,0-.05.14.33.33,0,0,1,0,.14c0,.05-.05.1-.07.14a.49.49,0,0,1-.06.13l-.1.17-.09.17-.09.17-.15.17-.05,0a.1.1,0,0,1,0,0s0,0,0,0a.23.23,0,0,0-.05,0,1.37,1.37,0,0,1-.45.23,1.44,1.44,0,0,1-.95-.18.74.74,0,0,1-.21-.13.7.7,0,0,1-.14-.17.63.63,0,0,1-.13-.39,1.62,1.62,0,0,1,0-.23.75.75,0,0,1,0-.2,1.68,1.68,0,0,1,.09-.32l.05-.17,3.71-9.14.11-.29a.66.66,0,0,1,.09-.19.63.63,0,0,0,.09-.22,2.23,2.23,0,0,1,.2-.41.76.76,0,0,1,.12-.19l.14-.18a.67.67,0,0,1,.31-.23,1.68,1.68,0,0,1,.58-.09,1.72,1.72,0,0,1,.58.09.64.64,0,0,1,.3.23,4.5,4.5,0,0,1,.27.37,3.13,3.13,0,0,1,.2.41.63.63,0,0,0,.09.22,1.08,1.08,0,0,1,.08.19l.11.29,3.72,9.14.05.17A1.68,1.68,0,0,1,268.4,128.69Zm-4.23-4.38c-.16-.34-.32-.7-.48-1.07s-.33-.75-.51-1.13l-.14-.33-.14-.33c0,.11-.08.22-.13.33a2.52,2.52,0,0,1-.14.33c-.18.38-.35.76-.51,1.13l-.47,1.07-.32.79h3.16Z"/><path class="cls-8" d="M277.4,117.81a.73.73,0,0,1,.2.48,1.85,1.85,0,0,1,0,.23,1.2,1.2,0,0,1,0,.2.81.81,0,0,1-.23.38,1.09,1.09,0,0,1-.39.16l-.25,0-.27,0a1.06,1.06,0,0,1-.25,0H275l-.63,0h-.62c0,.37,0,.76,0,1.19s0,.91,0,1.47,0,1.21,0,2,0,1.59,0,2.57v1.36a1.42,1.42,0,0,0,0,.26v.14a1,1,0,0,1,0,.15,3.22,3.22,0,0,0-.05.38.91.91,0,0,1-.07.33.2.2,0,0,0-.07.11l-.06.11a.91.91,0,0,1-.34.34,1.28,1.28,0,0,1-.87.09,1.08,1.08,0,0,1-.47-.16,1.49,1.49,0,0,1-.23-.32,1,1,0,0,1-.12-.38,1,1,0,0,1-.06-.34v-9.18h-1.17l-.72,0-.46,0-.34-.05-.36-.08a1.18,1.18,0,0,1-.59-.34.76.76,0,0,1-.2-.51v-.22a.41.41,0,0,1,0-.19.55.55,0,0,1,.28-.36l.23-.14a1.31,1.31,0,0,1,.29-.11,3,3,0,0,1,.54-.11l.28,0h2.68c.69,0,1.38,0,2.07,0s1.36,0,2,0a3.06,3.06,0,0,1,.45.06,1.86,1.86,0,0,1,.43.12l.3.13A.78.78,0,0,1,277.4,117.81Z"/><path class="cls-9" d="M224.09,129.12a.73.73,0,0,1,0,.33.39.39,0,0,1-.1.18,1.06,1.06,0,0,1-.15.15,2.36,2.36,0,0,1-.39.19l-.28.07a.89.89,0,0,1-.28,0,.87.87,0,0,1-.5-.22,2.35,2.35,0,0,1-.5-.55l-.19-.32c-.07-.12-.14-.25-.2-.38l-2-3.77h-.29l-.28,0a5.77,5.77,0,0,1-.71,0h-1v3.5a2.26,2.26,0,0,0,0,.27c0,.06,0,.13,0,.23l0,.27a1.2,1.2,0,0,1-.16.4,1.08,1.08,0,0,1-1.25.47,1.33,1.33,0,0,1-.45-.18.37.37,0,0,1-.12-.13.7.7,0,0,1-.09-.17.6.6,0,0,1-.06-.19,1.46,1.46,0,0,0-.07-.19,1.4,1.4,0,0,1,0-.34V118.65a1.62,1.62,0,0,1,0-.22.66.66,0,0,1,0-.21,1,1,0,0,1,.12-.39.54.54,0,0,1,.18-.31.84.84,0,0,1,.33-.18,1.69,1.69,0,0,1,.65-.07c.54,0,1.07,0,1.59,0s1.05,0,1.57,0c.35,0,.71.06,1.1.11a5,5,0,0,1,1.08.28c.22.08.41.17.59.25a2.92,2.92,0,0,1,.54.38,3.65,3.65,0,0,1,.94,1.37,4.28,4.28,0,0,1,.33,1.63,3.53,3.53,0,0,1-.46,1.76,2.72,2.72,0,0,1-1.46,1.2.19.19,0,0,1-.09,0l-.1,0,1.64,3.31.16.28.09.16a.76.76,0,0,1,.09.18,1.24,1.24,0,0,1,.1.2.85.85,0,0,0,.1.19Q224,129,224.09,129.12Zm-4.47-6.36a1.63,1.63,0,0,0,.62-.12,2.17,2.17,0,0,0,.53-.31,1.6,1.6,0,0,0,.4-.46,1.12,1.12,0,0,0,.18-.56,1.43,1.43,0,0,0-.46-1.33,2.31,2.31,0,0,0-1.41-.47c-.35,0-.72,0-1.14,0h-1.17c0,.49,0,1,0,1.49s0,1.11,0,1.8Z"/><path class="cls-9" d="M228,119.4l0,2.8h4.2a2.7,2.7,0,0,1,.41.06l.4.1a1.3,1.3,0,0,1,.5.32.9.9,0,0,1,.17.52v.21a.64.64,0,0,1,0,.2.66.66,0,0,1-.23.36.61.61,0,0,1-.34.18,2,2,0,0,1-.47.09,2.73,2.73,0,0,1-.5,0h-.84l-3.3,0,0,3.5,3.56,0h1.34a1.32,1.32,0,0,0,.26.05.85.85,0,0,1,.22,0,1.25,1.25,0,0,1,.36.2.87.87,0,0,1,.23.37l0,.19a1.48,1.48,0,0,1,0,.21.79.79,0,0,1-.18.51,1,1,0,0,1-.5.33,2.22,2.22,0,0,1-.82.16l-.41,0h-.52c-.93,0-1.9,0-2.9,0h-1.76a1,1,0,0,1-.68-.15.79.79,0,0,1-.31-.34.16.16,0,0,1-.05-.1.09.09,0,0,0,0-.06l0-.05a1.06,1.06,0,0,1-.06-.19,1.21,1.21,0,0,1,0-.19,1.13,1.13,0,0,1,0-.18,1.22,1.22,0,0,0,0-.17v-.29c0-.05,0-.09,0-.14a.76.76,0,0,0,0-.15v-1.39l0-2.57v-2.38c0-.42,0-.81,0-1.14s0-.7,0-1.09v-.09q0-.2,0-.36c0-.12,0-.23,0-.35a1.79,1.79,0,0,1,.19-.7,1.53,1.53,0,0,1,.16-.25.58.58,0,0,1,.22-.18,1.12,1.12,0,0,1,.55-.16l.22,0v0h4.64a2.75,2.75,0,0,0,.41,0l.41,0a1.87,1.87,0,0,1,.4,0,2.91,2.91,0,0,1,.39.12,1.1,1.1,0,0,1,.5.3.92.92,0,0,1,.16.5v.21a.43.43,0,0,1,0,.19.62.62,0,0,1-.21.37l-.15.09a.66.66,0,0,1-.19.09l-.22,0-.23,0a.81.81,0,0,1-.25,0h-1.07l-3.57,0Z"/><path class="cls-9" d="M243.07,118.38a3.67,3.67,0,0,1,1,1.49,3.86,3.86,0,0,1,.25,1.73,3.18,3.18,0,0,1-.52,1.51,2.78,2.78,0,0,1-1.35,1,6.66,6.66,0,0,1-1.41.43c-.47.08-1,.15-1.54.19-.25,0-.46,0-.63,0l-.6,0h-.48v3.7c0,.23-.08.46-.14.7a.8.8,0,0,1-.42.55,1.13,1.13,0,0,1-.48.13,2.9,2.9,0,0,1-.52,0,1.16,1.16,0,0,1-.42-.13.76.76,0,0,1-.27-.35,2.61,2.61,0,0,1-.14-.37,1.88,1.88,0,0,1-.06-.51v-9.88a.86.86,0,0,1,0-.23l0-.21a1.17,1.17,0,0,0,.06-.2.87.87,0,0,1,.05-.19.89.89,0,0,1,.08-.17.68.68,0,0,1,.12-.12.83.83,0,0,1,.27-.16,1.69,1.69,0,0,1,.57-.07h0l1.23-.07a9.53,9.53,0,0,1,1.13,0,4.28,4.28,0,0,0,.46,0l.41,0,.43,0,.43,0,.33.06.31,0,.32.07a.93.93,0,0,1,.31.13,2.41,2.41,0,0,1,.62.26Zm-1.07,3a1.3,1.3,0,0,0-.17-.75,1.52,1.52,0,0,0-.53-.54,3.3,3.3,0,0,0-.76-.34,6.94,6.94,0,0,0-.86-.18h-.3l-.4,0-.4,0h-.29l-.22,0h-.28c0,.37,0,.73,0,1.07v1.09c0,.22,0,.43,0,.65v.62l1.1,0a8.19,8.19,0,0,0,1,0,5.17,5.17,0,0,0,1-.21,2.35,2.35,0,0,0,.8-.47A1.24,1.24,0,0,0,242,121.33Z"/><path class="cls-9" d="M248.23,119.4l0,2.8h4.2a2.7,2.7,0,0,1,.41.06l.39.1a1.23,1.23,0,0,1,.5.32.84.84,0,0,1,.18.52v.21a.45.45,0,0,1,0,.2.6.6,0,0,1-.23.36.57.57,0,0,1-.34.18,1.87,1.87,0,0,1-.46.09,2.92,2.92,0,0,1-.5,0h-.84l-3.31,0,0,3.5,3.55,0H253a1.47,1.47,0,0,0,.26.05.78.78,0,0,1,.22,0,1,1,0,0,1,.36.2.79.79,0,0,1,.23.37,1.25,1.25,0,0,1,0,.19.74.74,0,0,1,0,.21.79.79,0,0,1-.18.51,1,1,0,0,1-.5.33,2.18,2.18,0,0,1-.82.16l-.41,0h-.52c-.93,0-1.89,0-2.89,0H247a1.06,1.06,0,0,1-.68-.15.77.77,0,0,1-.3-.34.14.14,0,0,1-.06-.1.16.16,0,0,0,0-.06l0-.05a1.05,1.05,0,0,1,0-.19,1.23,1.23,0,0,1,0-.19l0-.18a1.11,1.11,0,0,0,0-.17v-.29a.66.66,0,0,1,0-.14s0-.1,0-.15v-1.39l0-2.57v-2.38c0-.42,0-.81,0-1.14s0-.7,0-1.09v-.09c0-.13,0-.25,0-.36s0-.23,0-.35a1.65,1.65,0,0,1,.2-.7,2.75,2.75,0,0,1,.15-.25.67.67,0,0,1,.22-.18,1.16,1.16,0,0,1,.56-.16l.21,0v0h4.65a2.68,2.68,0,0,0,.41,0l.41,0a1.72,1.72,0,0,1,.39,0,2.91,2.91,0,0,1,.39.12,1.05,1.05,0,0,1,.5.3.94.94,0,0,1,.17.5v.21a.65.65,0,0,1,0,.19.62.62,0,0,1-.21.37l-.16.09a.51.51,0,0,1-.18.09l-.23,0-.22,0a.87.87,0,0,1-.26,0h-1.06l-3.58,0Z"/><path class="cls-9" d="M266.61,128.69a2.05,2.05,0,0,1,0,.43.63.63,0,0,1-.13.39.7.7,0,0,1-.14.17.74.74,0,0,1-.21.13,1.45,1.45,0,0,1-.95.18,1.28,1.28,0,0,1-.45-.23.23.23,0,0,0,0,0s0,0,0,0l0,0,0,0-.15-.17-.1-.17c0-.06-.05-.12-.08-.17l-.1-.17-.07-.13a.35.35,0,0,1-.06-.14.9.9,0,0,1-.09-.28l-.37-.88h-2.46c-.81,0-1.63,0-2.45,0l-.38.88a.37.37,0,0,0,0,.14.58.58,0,0,1-.05.14l-.06.14-.06.13-.1.17-.1.17a.56.56,0,0,1-.09.17,1,1,0,0,1-.14.17l-.06,0,0,0s0,0,0,0a.23.23,0,0,0,0,0,1.2,1.2,0,0,1-.45.23,1.41,1.41,0,0,1-.94-.18.67.67,0,0,1-.22-.13.7.7,0,0,1-.14-.17.63.63,0,0,1-.13-.39c0-.09,0-.16,0-.23l0-.2a1.68,1.68,0,0,1,.09-.32l.05-.17,3.72-9.14.1-.29.09-.19a.63.63,0,0,0,.09-.22,3.13,3.13,0,0,1,.2-.41l.12-.19.15-.18a.64.64,0,0,1,.3-.23,1.72,1.72,0,0,1,.58-.09,1.68,1.68,0,0,1,.58.09.72.72,0,0,1,.31.23c.08.1.17.23.26.37a3.13,3.13,0,0,1,.2.41.63.63,0,0,0,.09.22,1.11,1.11,0,0,1,.09.19l.11.29,3.71,9.14,0,.17A1.68,1.68,0,0,1,266.61,128.69Zm-4.23-4.38-.47-1.07c-.16-.37-.33-.75-.51-1.13a2.52,2.52,0,0,1-.14-.33l-.15-.33a2.19,2.19,0,0,1-.12.33q-.08.18-.15.33l-.5,1.13c-.17.37-.32.73-.48,1.07l-.32.79h3.16Z"/><path class="cls-9" d="M275.62,117.81a.72.72,0,0,1,.19.48,1.85,1.85,0,0,1,0,.23,1.23,1.23,0,0,1,0,.2,1,1,0,0,1-.23.38,1.15,1.15,0,0,1-.4.16l-.25,0-.27,0a1,1,0,0,1-.25,0h-1.17l-.64,0H272c0,.37,0,.76,0,1.19s0,.91,0,1.47,0,1.21,0,2,0,1.59,0,2.57v1.36a1.71,1.71,0,0,0,0,.26v.14a.86.86,0,0,1,0,.15,1.89,1.89,0,0,0-.06.38,1,1,0,0,1,0,.17,1,1,0,0,1-.06.16.2.2,0,0,0-.07.11l-.05.11a1,1,0,0,1-.34.34,1.31,1.31,0,0,1-.88.09,1,1,0,0,1-.46-.16,1,1,0,0,1-.23-.32.91.91,0,0,1-.13-.38,1,1,0,0,1,0-.34v-9.18h-1.17l-.73,0-.46,0-.33-.05-.37-.08a1.23,1.23,0,0,1-.59-.34.75.75,0,0,1-.19-.51v-.22a.58.58,0,0,1,0-.19.57.57,0,0,1,.29-.36l.22-.14a1.21,1.21,0,0,1,.3-.11,2.87,2.87,0,0,1,.53-.11l.29,0h2.68c.69,0,1.37,0,2.06,0s1.37,0,2,0a3.11,3.11,0,0,1,.44.06,1.62,1.62,0,0,1,.43.12,2.08,2.08,0,0,1,.3.13A.83.83,0,0,1,275.62,117.81Z"/><path class="cls-8" d="M260.87,69.22h-4.26l2-2A3.93,3.93,0,1,0,253,61.69h0l-8.74,8.75a3.88,3.88,0,0,0-1.14,2.78A3.92,3.92,0,0,0,244.28,76L253,84.73a3.93,3.93,0,1,0,5.56-5.55l-2-2h4.26a11.79,11.79,0,1,1,0,23.57H217.66a3.93,3.93,0,0,0,0,7.86h43.21a19.65,19.65,0,1,0,0-39.29Z"/><path class="cls-9" d="M259.09,69.22h-4.26l2-2a3.93,3.93,0,0,0-5.56-5.56h0l-8.74,8.75a4,4,0,0,0-1.14,2.78A3.92,3.92,0,0,0,242.49,76l8.74,8.74a3.93,3.93,0,1,0,5.56-5.55l-2-2h4.26a11.79,11.79,0,0,1,0,23.57H215.88a3.93,3.93,0,0,0,0,7.86h43.21a19.65,19.65,0,0,0,0-39.29Z"/><rect class="cls-10" x="223.42" y="134.02" width="45.63" height="24.13" rx="12.06"/><rect class="cls-9" x="223.42" y="134.02" width="45.63" height="24.13" rx="12.06"/></g></g></svg>