<svg xmlns="http://www.w3.org/2000/svg" xmlns:xlink="http://www.w3.org/1999/xlink" viewBox="0 0 142.37 118.76"><defs><style>.cls-1{fill:#ea13ff;}.cls-2{fill:#f43fff;}.cls-3{opacity:0.33;fill:url(#무제_그라디언트_11);}.cls-3,.cls-4{isolation:isolate;}.cls-4{opacity:0.53;fill:url(#무제_그라디언트_3);}.cls-5{fill:#9a1f93;}.cls-6{fill:#fff;}</style><linearGradient id="무제_그라디언트_11" x1="71.18" y1="477.86" x2="71.18" y2="521.53" gradientTransform="matrix(1, 0, 0, -1, 0, 594.19)" gradientUnits="userSpaceOnUse"><stop offset="0" stop-color="#fff"/><stop offset="1" stop-color="#fff" stop-opacity="0"/></linearGradient><linearGradient id="무제_그라디언트_3" x1="82.94" y1="618.35" x2="71.35" y2="556.14" gradientTransform="matrix(1, 0, 0, -1, 0, 594.19)" gradientUnits="userSpaceOnUse"><stop offset="0" stop-color="#fff"/><stop offset="1" stop-color="#fff" stop-opacity="0.39"/></linearGradient></defs><g id="레이어_2" data-name="레이어 2"><g id="Layer_1" data-name="Layer 1"><path class="cls-1" d="M17.83,117.85c-9,0-16.87-7-16.87-15,0,0,0-10.6,0-17,0-2.46.25-5,2.11-5,1.07,0,2,1,3.05,2.48a7.5,7.5,0,0,0,6,3.11h.48c1.93,0,3.06-.74,4.58-2.21,2.39-2.31,2.49-6,2.61-24.93-.12-18.95-.22-22.6-2.61-24.9-1.52-1.47-2.65-2.22-4.59-2.22a3.77,3.77,0,0,0-.47,0,7.44,7.44,0,0,0-6,3.11c-1.06,1.48-2,2.48-3.05,2.48-1.86,0-2.11-2.51-2.11-5,0-6.42,0-17,0-17,0-8,7.88-15,16.87-15h63c33.43,0,60.62,26.24,60.62,58.47s-27.19,58.46-60.62,58.47Z"/><path class="cls-2" d="M17.83,6.18h63c31.42,0,57.05,24.34,57.75,54.48,0-.43,0-.85,0-1.28,0-30.73-25.92-55.74-57.78-55.75H17.83c-7.34,0-14,5.84-14,12.24v2.47C3.87,12,10.53,6.18,17.83,6.18Z"/><path class="cls-2" d="M4,89.56c0-.34,0-.63,0-.89a10.31,10.31,0,0,0,8.17,4.23c.22,0,.44,0,.65,0a8.81,8.81,0,0,0,6.6-3c3.29-3.17,3.32-7.25,3.44-26.82,0-.44,0-.86,0-1.28-.12,18.47-.21,22.44-3.43,25.54a8.82,8.82,0,0,1-6.6,3l-.65,0A10.29,10.29,0,0,1,4,86.12c0,.26,0,.55,0,.88,0,6.42,0,17,0,17v.09C4,100.58,4,94.05,4,89.56Z"/><path class="cls-3" d="M17.83,115.13c-7.34,0-14-5.84-14-12.25,0,0,0-10.59,0-17,0-.33,0-.62,0-.88A10.28,10.28,0,0,0,12,89.21l.64,0a8.87,8.87,0,0,0,6.61-3C22.57,83,22.59,79,22.72,59.39c-.13-19.59-.15-23.66-3.44-26.84a8.84,8.84,0,0,0-6.61-3l-.64,0a10.29,10.29,0,0,0-8.18,4.23c0-.29,0-.59,0-.88,0-6.42,0-17,0-17,0-6.4,6.68-12.25,14-12.25h63c31.86,0,57.78,25,57.78,55.75s-25.92,55.74-57.78,55.75Z"/><path class="cls-4" d="M3.84,33.78A10.33,10.33,0,0,1,12,29.54l.64,0c3.21,0,5,1.5,6.61,3,3.29,3.17,3.31,7.25,3.43,26.84,0,.52,0,1,0,1.51l3.13.28c43.3,3.85,55.42-8.5,81.93-6,16.54,1.6,25.34,5.52,30.58,8.86.14-1.56.22-3.12.22-4.71,0-30.73-25.92-55.74-57.79-55.75H17.83c-7.34,0-14,5.84-14,12.24,0,0,0,10.6,0,17C3.83,33.22,3.84,33.52,3.84,33.78Z"/><path class="cls-5" d="M80.78,1.82c33,0,59.66,25.78,59.66,57.56s-26.71,57.55-59.66,57.56H17.83c-8,0-15.9-6.29-15.9-14.06,0,0,0-10.59,0-17,0-3.07.49-4.05,1.14-4.05S4.7,83,5.35,83.9a8.38,8.38,0,0,0,6.79,3.51l.54,0c2.39,0,3.74-1,5.27-2.49,2.68-2.59,2.76-6.46,2.89-25.56-.13-19.09-.21-23-2.89-25.55-1.53-1.47-2.88-2.49-5.28-2.49l-.53,0a8.32,8.32,0,0,0-6.79,3.51C4.7,35.8,3.81,37,3.1,37S2,36,2,32.9c0-6.42,0-17,0-17,0-7.77,7.85-14.06,15.9-14.06h63m0-1.82H17.83C8.33,0,0,7.42,0,15.88c0,0,0,10.59,0,17,0,1.76,0,5.88,3.07,5.88C4.77,38.77,6,37.28,7,35.88a6.46,6.46,0,0,1,5.31-2.71h.41c1.62,0,2.51.6,3.9,1.94,2.12,2,2.22,6,2.34,24.29-.12,18.28-.22,22.22-2.34,24.27-1.4,1.34-2.29,1.94-3.89,1.94a3,3,0,0,1-.42,0A6.48,6.48,0,0,1,7,82.88C6,81.49,4.77,80,3.1,80A2.75,2.75,0,0,0,.44,82.16,12.5,12.5,0,0,0,0,85.87c0,6.41,0,17,0,17,0,8.46,8.33,15.88,17.83,15.88h63c34,0,61.59-26.65,61.59-59.38S114.74,0,80.78,0Z"/><path class="cls-5" d="M52.59,98.62a.78.78,0,0,1,0,.34.4.4,0,0,1-.11.18,1.17,1.17,0,0,1-.16.15,2.75,2.75,0,0,1-.42.2l-.3.06a.61.61,0,0,1-.3,0,.86.86,0,0,1-.54-.21,2.42,2.42,0,0,1-.54-.57,3.16,3.16,0,0,1-.21-.33,3.44,3.44,0,0,1-.22-.38l-2.14-3.83h-.3l-.31,0a5,5,0,0,1-.76,0H45.13v3.29c0,.1,0,.19,0,.27a2.53,2.53,0,0,0,0,.28c0,.06,0,.14,0,.23l0,.28a1.28,1.28,0,0,1-.17.41,1.24,1.24,0,0,1-.37.35,1.38,1.38,0,0,1-1,.13,2.22,2.22,0,0,1-.49-.18.86.86,0,0,1-.13-.14,1,1,0,0,1-.1-.17l-.07-.19-.06-.19a1.17,1.17,0,0,1-.06-.35V88a1.85,1.85,0,0,1,0-.23,1.18,1.18,0,0,1,0-.21,1.1,1.1,0,0,1,.13-.4.54.54,0,0,1,.2-.31,1,1,0,0,1,.35-.19,2.3,2.3,0,0,1,.71-.06l1.71,0c.57,0,1.13,0,1.7,0l1.18.12a5.89,5.89,0,0,1,1.17.28c.23.09.45.17.64.26a3.89,3.89,0,0,1,.58.38,3.73,3.73,0,0,1,1,1.4,4.25,4.25,0,0,1,.34,1.66,3.43,3.43,0,0,1-.49,1.8,2.89,2.89,0,0,1-1.57,1.21.16.16,0,0,1-.1,0l-.11,0,1.77,3.36.18.29s.06.11.09.17a1.62,1.62,0,0,1,.1.18c0,.06.07.13.11.2a1.24,1.24,0,0,0,.1.2C52.53,98.37,52.56,98.51,52.59,98.62Zm-4.82-6.48a1.84,1.84,0,0,0,.66-.12,1.9,1.9,0,0,0,.58-.31,2,2,0,0,0,.44-.47,1.14,1.14,0,0,0,.19-.57,1.46,1.46,0,0,0-.5-1.36,2.73,2.73,0,0,0-1.53-.48c-.37,0-.78,0-1.22,0H45.13c0,.49,0,1,0,1.51s0,1.13,0,1.83Z"/><path class="cls-5" d="M56.79,88.72l0,2.86h.77l1.41,0,1.37,0h1a3.06,3.06,0,0,1,.45.06l.42.1a1.23,1.23,0,0,1,.54.33.8.8,0,0,1,.19.53v.2a.66.66,0,0,1,0,.21.63.63,0,0,1-.25.37.67.67,0,0,1-.37.18,2.29,2.29,0,0,1-.5.09,2.47,2.47,0,0,1-.54,0h-.91l-3.57,0,0,3.57,3.83,0h1.2l.25,0a1.66,1.66,0,0,0,.28,0,1,1,0,0,1,.24,0,1.43,1.43,0,0,1,.39.2,1,1,0,0,1,.25.38l0,.2a1.41,1.41,0,0,1,0,.2.81.81,0,0,1-.2.53,1,1,0,0,1-.54.33,2.3,2.3,0,0,1-.88.16,3.31,3.31,0,0,1-.45,0l-.44,0h-.12q-1.5,0-3.12,0H55.48a1.12,1.12,0,0,1-.73-.14.93.93,0,0,1-.33-.35.15.15,0,0,1-.06-.11.1.1,0,0,0,0-.05l0-.06a1.05,1.05,0,0,1-.05-.19.65.65,0,0,1,0-.19l0-.18,0-.18v-.29a.76.76,0,0,1,0-.15.76.76,0,0,0,0-.15V96l0-2.62V91c0-.44,0-.83,0-1.17s0-.71,0-1.1v-.1l0-.37v-.35a1.68,1.68,0,0,1,.22-.71,1.64,1.64,0,0,1,.16-.26.76.76,0,0,1,.24-.18,1.17,1.17,0,0,1,.6-.16.72.72,0,0,1,.23,0v0h2.05l1.46,0,1.43,0h.07l.45,0a3.17,3.17,0,0,1,.44,0,2.15,2.15,0,0,1,.43,0,3.31,3.31,0,0,1,.42.12,1.12,1.12,0,0,1,.54.31.87.87,0,0,1,.17.51v.21a.43.43,0,0,1,0,.19.63.63,0,0,1-.23.38l-.16.09a.72.72,0,0,1-.2.09,1,1,0,0,1-.24,0l-.24,0a1.06,1.06,0,0,1-.29,0H60.65l-3.86,0Z"/><path class="cls-5" d="M73.08,87.69a3.79,3.79,0,0,1,1.08,1.52A3.58,3.58,0,0,1,74.43,91a3.19,3.19,0,0,1-.55,1.54,3,3,0,0,1-1.47,1.06,7.44,7.44,0,0,1-1.52.44c-.5.08-1.06.15-1.66.2-.27,0-.5,0-.69,0l-.64,0h-.26l-.26,0v3.76c0,.23-.09.47-.15.71a.9.9,0,0,1-.45.57,1.33,1.33,0,0,1-.52.12,2,2,0,0,1-.56,0,1.14,1.14,0,0,1-.45-.13.73.73,0,0,1-.3-.36c0-.11-.1-.23-.15-.37a1.9,1.9,0,0,1-.06-.52V88a.9.9,0,0,1,0-.24l0-.22a.66.66,0,0,0,.06-.2.66.66,0,0,1,.06-.2A.83.83,0,0,1,65,87a.49.49,0,0,1,.12-.13.76.76,0,0,1,.3-.16,1.87,1.87,0,0,1,.61-.08h0l1.33-.06a7.54,7.54,0,0,1,1.21,0,4.77,4.77,0,0,0,.5,0l.45,0,.46,0,.46,0,.36.06.34,0,.33.07a1.15,1.15,0,0,1,.34.13,2.54,2.54,0,0,1,.68.27C72.71,87.43,72.89,87.55,73.08,87.69Zm-1.15,3a1.32,1.32,0,0,0-.19-.77,1.61,1.61,0,0,0-.56-.54,3.45,3.45,0,0,0-.83-.35,7.62,7.62,0,0,0-.93-.18H69.1l-.43,0h-.75a.82.82,0,0,0-.23,0h-.31c0,.37,0,.73,0,1.08V91c0,.22,0,.43,0,.65v.64l1.19,0c.31,0,.65,0,1,0A5.2,5.2,0,0,0,70.66,92a2.49,2.49,0,0,0,.85-.47A1.24,1.24,0,0,0,71.93,90.69Z"/><path class="cls-5" d="M78.66,88.72l0,2.86h.77l1.41,0,1.37,0h1a3.11,3.11,0,0,1,.44.06l.43.1a1.23,1.23,0,0,1,.54.33.8.8,0,0,1,.19.53v.2a.46.46,0,0,1,0,.21.59.59,0,0,1-.25.37.64.64,0,0,1-.37.18,2.1,2.1,0,0,1-.5.09,2.47,2.47,0,0,1-.54,0h-.9l-3.57,0,0,3.57,3.84,0h1.19l.25,0a1.86,1.86,0,0,0,.28,0,.86.86,0,0,1,.24,0,1.19,1.19,0,0,1,.39.2A.87.87,0,0,1,85,98l0,.2a.69.69,0,0,1,0,.2.8.8,0,0,1-.19.53,1.11,1.11,0,0,1-.54.33,2.35,2.35,0,0,1-.89.16,3.17,3.17,0,0,1-.44,0l-.45,0h-.11c-1,0-2,0-3.13,0h-1.9a1.16,1.16,0,0,1-.74-.14.93.93,0,0,1-.33-.35.18.18,0,0,1,0-.11l0-.05s0,0,0-.06a1.06,1.06,0,0,1-.06-.19,1.37,1.37,0,0,1,0-.19l0-.18A1.1,1.1,0,0,0,76,98v-.29a.76.76,0,0,1,0-.15V96l0-2.62V91c0-.44,0-.83,0-1.17s0-.71,0-1.1v-.1l0-.37c0-.11,0-.23,0-.35a1.54,1.54,0,0,1,.21-.71,1.67,1.67,0,0,1,.17-.26.58.58,0,0,1,.24-.18,1.17,1.17,0,0,1,.6-.16.75.75,0,0,1,.23,0v0h2l1.47,0,1.42,0h.08l.44,0a3.24,3.24,0,0,1,.45,0,2,2,0,0,1,.42,0,3.31,3.31,0,0,1,.42.12,1.12,1.12,0,0,1,.54.31.88.88,0,0,1,.18.51v.21A.43.43,0,0,1,85,88a.63.63,0,0,1-.23.38l-.17.09a.53.53,0,0,1-.2.09,1,1,0,0,1-.24,0l-.24,0a1,1,0,0,1-.28,0H82.51l-3.85,0Z"/><path class="cls-5" d="M98.5,98.18l0,.21c0,.07,0,.14,0,.23a.67.67,0,0,1-.14.4.8.8,0,0,1-.15.17,1.28,1.28,0,0,1-.23.14,1.68,1.68,0,0,1-1,.18,1.35,1.35,0,0,1-.48-.24s0,0-.06,0l0,0,0,0-.06,0a1.2,1.2,0,0,1-.16-.17,1.74,1.74,0,0,0-.11-.18L96,98.57l-.1-.17-.08-.14a.38.38,0,0,1-.06-.13,1.5,1.5,0,0,1-.1-.3l-.4-.89H92.57c-.88,0-1.77,0-2.65,0l-.41.89a.88.88,0,0,0-.05.15.42.42,0,0,1,0,.15.83.83,0,0,0-.07.13l-.07.14-.1.17-.11.17a1.62,1.62,0,0,1-.1.18l-.15.17a.1.1,0,0,0-.06,0l0,0a.1.1,0,0,1,0,0l-.05,0a1.49,1.49,0,0,1-.49.24,1.64,1.64,0,0,1-1-.18,1,1,0,0,1-.23-.14.59.59,0,0,1-.15-.17.67.67,0,0,1-.14-.4,1.62,1.62,0,0,1,0-.23l0-.21a2.07,2.07,0,0,1,.1-.33l.05-.16,4-9.31.12-.29a.93.93,0,0,1,.1-.2.73.73,0,0,0,.09-.22,2.73,2.73,0,0,1,.22-.42.86.86,0,0,1,.13-.2l.15-.18a.83.83,0,0,1,.33-.24,2.25,2.25,0,0,1,1.26,0,.73.73,0,0,1,.32.24,4.65,4.65,0,0,1,.29.38,2.06,2.06,0,0,1,.21.42,1.12,1.12,0,0,0,.1.22.93.93,0,0,1,.1.2l.11.29,4,9.31.06.16C98.44,98,98.47,98.07,98.5,98.18Zm-4.57-4.46c-.17-.35-.34-.71-.51-1.09l-.55-1.14c-.05-.11-.11-.22-.16-.34l-.15-.34a2.44,2.44,0,0,1-.14.34l-.15.34c-.19.39-.38.77-.55,1.14s-.34.74-.51,1.09l-.35.8h3.42Z"/><path class="cls-5" d="M108.22,87.1a.76.76,0,0,1,.21.5c0,.07,0,.14,0,.22s0,.15,0,.21a.81.81,0,0,1-.25.38,1.14,1.14,0,0,1-.43.17l-.27,0-.28.06-.28,0h-2.62c0,.38,0,.78,0,1.21s0,.93,0,1.5,0,1.23,0,2,0,1.62,0,2.61v1.39a1.65,1.65,0,0,0,0,.27v.14a.44.44,0,0,1,0,.15,3.53,3.53,0,0,0,0,.38,1.1,1.1,0,0,1,0,.18l-.06.17c0,.05-.08.08-.08.11l-.06.11a.92.92,0,0,1-.36.34,1.52,1.52,0,0,1-1,.09,1.05,1.05,0,0,1-.5-.16,1.2,1.2,0,0,1-.25-.33.86.86,0,0,1-.13-.38,1,1,0,0,1-.06-.35V88.8h-1.27l-.78,0a3.64,3.64,0,0,1-.5,0l-.35,0-.4-.07a1.46,1.46,0,0,1-.64-.35.77.77,0,0,1-.21-.53V87.5a.48.48,0,0,1,0-.2.62.62,0,0,1,.31-.36,1.93,1.93,0,0,1,.24-.14,1.35,1.35,0,0,1,.32-.11,2.6,2.6,0,0,1,.58-.11l.31,0H101l1.28,0h2.22c.74,0,1.48,0,2.21,0l.48,0a2.75,2.75,0,0,1,.47.13,1.83,1.83,0,0,1,.32.14A.75.75,0,0,1,108.22,87.1Z"/><path class="cls-6" d="M50.59,98.62a.78.78,0,0,1,0,.34.46.46,0,0,1-.11.18,1.17,1.17,0,0,1-.16.15,2.75,2.75,0,0,1-.42.2l-.3.06a.61.61,0,0,1-.3,0,.86.86,0,0,1-.54-.21,2.42,2.42,0,0,1-.54-.57,3.16,3.16,0,0,1-.21-.33,3.44,3.44,0,0,1-.22-.38l-2.14-3.83H45.3l-.3,0a5,5,0,0,1-.77,0h-1.1v3.29c0,.1,0,.19,0,.27a2.53,2.53,0,0,0,0,.28c0,.06,0,.14,0,.23l0,.28a1.32,1.32,0,0,1-.18.41,1.34,1.34,0,0,1-.36.35,1.4,1.4,0,0,1-1,.13,2.34,2.34,0,0,1-.48-.18.86.86,0,0,1-.13-.14l-.1-.17-.07-.19-.06-.2a1.06,1.06,0,0,1-.06-.34V88a1.85,1.85,0,0,1,0-.23.66.66,0,0,1,0-.21,1.1,1.1,0,0,1,.13-.4.53.53,0,0,1,.19-.31,1.19,1.19,0,0,1,.36-.19,2.3,2.3,0,0,1,.71-.06l1.71,0c.57,0,1.13,0,1.7,0l1.18.12a5.89,5.89,0,0,1,1.17.28l.64.26a3.3,3.3,0,0,1,.57.38,3.75,3.75,0,0,1,1,1.4,4.25,4.25,0,0,1,.34,1.66,3.43,3.43,0,0,1-.49,1.8,2.93,2.93,0,0,1-1.57,1.21.16.16,0,0,1-.11,0l-.1,0,1.77,3.36.18.29a1,1,0,0,0,.09.17,1.62,1.62,0,0,1,.1.18c0,.06.07.13.11.2a1.24,1.24,0,0,0,.1.2C50.53,98.37,50.56,98.51,50.59,98.62Zm-4.82-6.48a1.84,1.84,0,0,0,.66-.12,2.3,2.3,0,0,0,.58-.31,2.18,2.18,0,0,0,.44-.47,1.29,1.29,0,0,0,.19-.57,1.46,1.46,0,0,0-.5-1.36,2.73,2.73,0,0,0-1.53-.48c-.37,0-.78,0-1.22,0H43.13c0,.49,0,1,0,1.51s0,1.13,0,1.83Z"/><path class="cls-6" d="M54.79,88.72l0,2.86h.77l1.41,0,1.37,0h1a3.25,3.25,0,0,1,.45.06l.42.1a1.23,1.23,0,0,1,.54.33.8.8,0,0,1,.19.52v.21a.66.66,0,0,1,0,.21.87.87,0,0,1-.62.55,2.29,2.29,0,0,1-.5.09,2.47,2.47,0,0,1-.54,0h-.91l-3.57,0,0,3.57,3.84,0h1.2l.25,0a1.51,1.51,0,0,0,.28,0,1,1,0,0,1,.24,0,1.24,1.24,0,0,1,.38.2.9.9,0,0,1,.26.38,1.23,1.23,0,0,1,0,.2.46.46,0,0,1,0,.2.8.8,0,0,1-.19.53,1,1,0,0,1-.54.33,2.31,2.31,0,0,1-.89.16l-.44,0-.44,0h-.12q-1.5,0-3.12,0H53.48a1.12,1.12,0,0,1-.73-.14.93.93,0,0,1-.33-.35.15.15,0,0,1-.06-.11l0-.05,0-.06a1.05,1.05,0,0,1-.05-.19.65.65,0,0,1,0-.19.57.57,0,0,1,0-.18l0-.18v-.29a.76.76,0,0,1,0-.15s0-.1,0-.15V96l0-2.62V91c0-.44,0-.83,0-1.17s0-.71,0-1.11v-.09c0-.13,0-.25,0-.37s0-.23,0-.35a1.68,1.68,0,0,1,.22-.71,1.64,1.64,0,0,1,.16-.26.76.76,0,0,1,.24-.18,1.17,1.17,0,0,1,.6-.16h2.27l1.47,0,1.43,0h.07l.45,0h.44a2,2,0,0,1,.42,0,3,3,0,0,1,.43.12,1.12,1.12,0,0,1,.54.31.94.94,0,0,1,.17.51v.21a.43.43,0,0,1,0,.19.63.63,0,0,1-.23.38l-.16.09a.72.72,0,0,1-.2.09,1,1,0,0,1-.24,0l-.25,0a1,1,0,0,1-.28,0H58.65l-3.86,0Z"/><path class="cls-6" d="M71.08,87.69a3.83,3.83,0,0,1,1.08,1.51A3.64,3.64,0,0,1,72.43,91a3.1,3.1,0,0,1-.56,1.54,3,3,0,0,1-1.46,1.06,7.62,7.62,0,0,1-1.52.44c-.51.08-1.06.15-1.66.2-.27,0-.5,0-.69,0l-.64,0h-.26a1.34,1.34,0,0,0-.26,0v3.76c0,.23-.09.47-.15.71a.9.9,0,0,1-.45.57,1.33,1.33,0,0,1-.52.12,2.53,2.53,0,0,1-.56,0,1.33,1.33,0,0,1-.45-.13.68.68,0,0,1-.3-.36c-.05-.11-.1-.23-.15-.37a1.9,1.9,0,0,1-.06-.52V88a1.77,1.77,0,0,1,0-.24,1.7,1.7,0,0,0,0-.22.66.66,0,0,0,.06-.2.66.66,0,0,1,.06-.2A.8.8,0,0,1,63,87l.13-.13a.69.69,0,0,1,.3-.16,1.83,1.83,0,0,1,.61-.08h0l1.33-.06a7.58,7.58,0,0,1,1.21,0,4.77,4.77,0,0,0,.5,0l.45,0,.46,0,.46,0a2.58,2.58,0,0,0,.36.05l.33.06.34.07a1.26,1.26,0,0,1,.34.13,2.68,2.68,0,0,1,.68.27C70.7,87.43,70.89,87.55,71.08,87.69Zm-1.15,3a1.32,1.32,0,0,0-.19-.77,1.56,1.56,0,0,0-.57-.54,3.38,3.38,0,0,0-.82-.35,7.62,7.62,0,0,0-.93-.18H67.1l-.43,0-.44,0h-.31a.82.82,0,0,0-.23,0h-.31c0,.37,0,.73,0,1.08V91c0,.22,0,.43,0,.65v.64l1.19,0c.31,0,.65,0,1,0A5,5,0,0,0,68.65,92a2.54,2.54,0,0,0,.86-.47A1.24,1.24,0,0,0,69.93,90.69Z"/><path class="cls-6" d="M76.66,88.72l0,2.86h.77l1.41,0,1.36,0h1a3.11,3.11,0,0,1,.44.06l.43.1a1.36,1.36,0,0,1,.54.33.85.85,0,0,1,.19.52v.21a.46.46,0,0,1,0,.21.83.83,0,0,1-.62.55,2.1,2.1,0,0,1-.5.09,2.47,2.47,0,0,1-.54,0h-.9l-3.57,0,0,3.57,3.84,0h1.19l.25,0a1.86,1.86,0,0,0,.28,0,.86.86,0,0,1,.24,0,1.19,1.19,0,0,1,.39.2A.87.87,0,0,1,83,98l0,.2a.69.69,0,0,1,0,.2.8.8,0,0,1-.19.53,1.11,1.11,0,0,1-.54.33,2.35,2.35,0,0,1-.89.16l-.44,0-.45,0h-.11c-1,0-2,0-3.13,0H75.34a1.13,1.13,0,0,1-.73-.14.93.93,0,0,1-.33-.35.18.18,0,0,1,0-.11l0-.05a.13.13,0,0,1,0-.06.6.6,0,0,1-.06-.19,1.37,1.37,0,0,1,0-.19l0-.18A.57.57,0,0,0,74,98v-.29s0-.1,0-.15a.76.76,0,0,0,0-.15V96l0-2.62V91c0-.44,0-.83,0-1.17s0-.71,0-1.11v-.09l0-.37c0-.11,0-.23,0-.35a1.54,1.54,0,0,1,.21-.71,1.67,1.67,0,0,1,.17-.26.58.58,0,0,1,.24-.18,1.16,1.16,0,0,1,.59-.16h2.28l1.46,0,1.43,0h.08l.44,0h.45a2,2,0,0,1,.42,0,3.31,3.31,0,0,1,.42.12,1.12,1.12,0,0,1,.54.31.88.88,0,0,1,.18.51v.21A.65.65,0,0,1,83,88a.63.63,0,0,1-.23.38l-.17.09a.53.53,0,0,1-.2.09,1,1,0,0,1-.24,0l-.24,0a1,1,0,0,1-.28,0H80.51l-3.85,0Z"/><path class="cls-6" d="M96.5,98.18l0,.21c0,.07,0,.14,0,.23a.69.69,0,0,1-.14.4,1.14,1.14,0,0,1-.15.17l-.23.14a1.68,1.68,0,0,1-1,.18,1.35,1.35,0,0,1-.48-.24s0,0-.06,0l0,0,0-.05-.06,0a1.2,1.2,0,0,1-.16-.17,1.74,1.74,0,0,0-.11-.18L94,98.57l-.1-.17-.08-.14a.38.38,0,0,1-.06-.13,1.5,1.5,0,0,1-.1-.3l-.4-.89H90.57c-.88,0-1.77,0-2.65,0l-.41.89a.88.88,0,0,0-.05.15.3.3,0,0,1,0,.15l-.06.13-.07.14c0,.06-.07.12-.11.17l-.1.17a1.62,1.62,0,0,1-.1.18l-.15.17a.15.15,0,0,0-.06,0l0,.05a.1.1,0,0,1,0,0l-.06,0a1.35,1.35,0,0,1-.48.24,1.64,1.64,0,0,1-1-.18,1,1,0,0,1-.23-.14.76.76,0,0,1-.15-.17.69.69,0,0,1-.14-.4,1.62,1.62,0,0,1,0-.23l0-.21a2.07,2.07,0,0,1,.1-.33l.05-.16,4-9.31.12-.29a.93.93,0,0,1,.1-.2,1.12,1.12,0,0,0,.09-.22,4.1,4.1,0,0,1,.21-.42,1.43,1.43,0,0,1,.14-.2l.15-.18a.83.83,0,0,1,.33-.24,2,2,0,0,1,.63-.09,1.93,1.93,0,0,1,.62.09.71.71,0,0,1,.33.24,4.65,4.65,0,0,1,.29.38,2.06,2.06,0,0,1,.21.42,1.12,1.12,0,0,0,.1.22.93.93,0,0,1,.1.2l.11.29,4,9.31.06.16C96.44,98,96.47,98.07,96.5,98.18Zm-4.57-4.46c-.17-.35-.34-.71-.51-1.09l-.55-1.14c-.05-.11-.11-.22-.16-.34l-.15-.34c0,.11-.09.23-.14.34l-.15.34c-.19.39-.38.77-.55,1.14s-.34.74-.51,1.09l-.35.8h3.41Z"/><path class="cls-6" d="M106.21,87.1a.73.73,0,0,1,.22.5c0,.07,0,.14,0,.22s0,.15,0,.21a.87.87,0,0,1-.25.38,1.14,1.14,0,0,1-.43.17l-.27,0-.29.06h-1.54c-.23,0-.46,0-.68,0h-.67c0,.38,0,.78,0,1.21s0,.93,0,1.5,0,1.23,0,2,0,1.63,0,2.62v1.39a1.65,1.65,0,0,0,0,.27v.14a1,1,0,0,1,0,.15c0,.11,0,.24-.06.38a.47.47,0,0,1,0,.17,1.21,1.21,0,0,1,0,.18c0,.05-.08.08-.08.11l-.06.11a.92.92,0,0,1-.36.34,1.52,1.52,0,0,1-1,.09,1.05,1.05,0,0,1-.5-.16,1,1,0,0,1-.25-.33,1,1,0,0,1-.14-.38,1.34,1.34,0,0,1,0-.35V88.8H98.45l-.78,0-.5,0-.36,0-.39-.07a1.46,1.46,0,0,1-.64-.35.77.77,0,0,1-.21-.53V87.5a.48.48,0,0,1,0-.2.62.62,0,0,1,.31-.36,1.93,1.93,0,0,1,.24-.14,1.35,1.35,0,0,1,.32-.11,2.49,2.49,0,0,1,.58-.11,1.51,1.51,0,0,1,.3,0H99l1.29,0h2.22c.74,0,1.48,0,2.21,0l.48,0a2.75,2.75,0,0,1,.47.13,1.79,1.79,0,0,1,.32.13A.75.75,0,0,1,106.21,87.1Z"/><path class="cls-5" d="M92.56,28a1.14,1.14,0,0,1-.08.54c0,.07-.07.2-.07.27a2.71,2.71,0,0,1-.71,1.14L82.11,39a3.28,3.28,0,0,1-4.29,0,2.83,2.83,0,0,1,0-4.05l4.44-4.19H67.09c-9.23,0-16.81,7.09-16.81,15.86a15.07,15.07,0,0,0,4.94,11.2,2.83,2.83,0,0,1,0,4,3.25,3.25,0,0,1-4.29,0,20.72,20.72,0,0,1-6.66-15.18c0-11.88,10.23-21.53,22.82-21.53H82.33L77.89,21a2.83,2.83,0,0,1,0-4,3.24,3.24,0,0,1,4.29,0l9.59,9a2.82,2.82,0,0,1,.71,1.15c0,.07.08.2.08.27Z"/><path class="cls-5" d="M108.65,46.88c0,11.87-10.23,21.52-22.82,21.52H70.6L75,72.58a2.7,2.7,0,0,1,0,4,3.13,3.13,0,0,1-2.15.81,3.25,3.25,0,0,1-2.14-.81l-9.51-9.11a2.75,2.75,0,0,1-.72-1.14c0-.07-.07-.21-.07-.27a1.46,1.46,0,0,1-.07-.54,1.24,1.24,0,0,1,.07-.54c0-.07.07-.21.07-.27a2.67,2.67,0,0,1,.72-1.15l9.58-9a3.24,3.24,0,0,1,4.29,0,2.7,2.7,0,0,1,0,4L70.67,62.8H85.9c9.23,0,16.81-7.08,16.81-15.85a15.06,15.06,0,0,0-4.93-11.2,2.7,2.7,0,0,1,0-4.05,3.24,3.24,0,0,1,4.29,0A20.72,20.72,0,0,1,108.65,46.88Z"/><path class="cls-6" d="M90.63,28a1.29,1.29,0,0,1-.07.54c0,.07-.08.2-.08.27a2.71,2.71,0,0,1-.71,1.14L80.18,39a3.28,3.28,0,0,1-4.29,0,2.83,2.83,0,0,1,0-4.05l4.44-4.19H65.16c-9.22,0-16.81,7.09-16.81,15.86a15.07,15.07,0,0,0,4.94,11.2,2.83,2.83,0,0,1,0,4,3.25,3.25,0,0,1-4.29,0,20.75,20.75,0,0,1-6.65-15.18c0-11.88,10.22-21.53,22.81-21.53H80.4L76,21a2.83,2.83,0,0,1,0-4,3.26,3.26,0,0,1,4.3,0l9.58,9a3,3,0,0,1,.72,1.15c0,.07.07.2.07.27Z"/><path class="cls-6" d="M106.72,46.88c0,11.87-10.23,21.52-22.82,21.52H68.67l4.43,4.18a2.7,2.7,0,0,1,0,4,3.12,3.12,0,0,1-2.14.81,3.26,3.26,0,0,1-2.15-.81L59.3,67.52a2.86,2.86,0,0,1-.72-1.14c0-.07-.07-.21-.07-.27a1.46,1.46,0,0,1-.07-.54,1.24,1.24,0,0,1,.07-.54c0-.07.07-.21.07-.27a2.76,2.76,0,0,1,.72-1.15l9.58-9a3.24,3.24,0,0,1,4.29,0,2.7,2.7,0,0,1,0,4L68.74,62.8H84c9.23,0,16.81-7.08,16.81-15.85a15.06,15.06,0,0,0-4.93-11.2,2.7,2.7,0,0,1,0-4.05,3.24,3.24,0,0,1,4.29,0A20.72,20.72,0,0,1,106.72,46.88Z"/></g></g></svg>