<svg xmlns="http://www.w3.org/2000/svg" xmlns:xlink="http://www.w3.org/1999/xlink" viewBox="0 0 133.92 116.37"><defs><style>.cls-1{fill:#0173d7;}.cls-2{fill:#0193e0;}.cls-3{fill:url(#무제_그라디언트_5);}.cls-4{opacity:0.5;fill:url(#무제_그라디언트_3);}.cls-5{fill:#002083;}.cls-6{fill:#fff;}.cls-7{fill:#efefef;}.cls-12,.cls-8{fill:none;stroke:#cccbcb;stroke-miterlimit:10;}.cls-8{stroke-width:0.2px;}.cls-9{fill:#b2b2b2;}.cls-10{fill:#a4a4a4;}.cls-11{fill:#ec2024;}.cls-12{stroke-width:0.21px;}.cls-13{fill:#cccbcb;}</style><linearGradient id="무제_그라디언트_5" x1="66.95" y1="-3327.58" x2="66.95" y2="-3234.06" gradientTransform="matrix(1, 0, 0, -1, 0, -3214.55)" gradientUnits="userSpaceOnUse"><stop offset="0" stop-color="#fff" stop-opacity="0.5"/><stop offset="0.5" stop-color="#fff" stop-opacity="0"/><stop offset="1" stop-color="#fff" stop-opacity="0"/></linearGradient><linearGradient id="무제_그라디언트_3" x1="74.07" y1="-3215.03" x2="67.68" y2="-3247.94" gradientTransform="matrix(1, 0, 0, -1, 0, -3214.55)" gradientUnits="userSpaceOnUse"><stop offset="0" stop-color="#fff"/><stop offset="1" stop-color="#fff" stop-opacity="0.39"/></linearGradient></defs><g id="레이어_2" data-name="레이어 2"><g id="Layer_1" data-name="Layer 1"><path class="cls-1" d="M16.48,115.48c-8.3,0-15.59-6.86-15.59-14.67,0,0,0-10.38,0-16.67,0-2.41.23-4.87,2-4.87,1,0,1.84,1,2.82,2.43a6.8,6.8,0,0,0,5.59,3.06h.43c1.79,0,2.83-.73,4.24-2.17,2.2-2.26,2.31-6.2,2.42-24.42C18.26,40,18.16,36,16,33.78c-1.41-1.44-2.45-2.18-4.23-2.18l-.44,0a6.77,6.77,0,0,0-5.59,3.05c-1,1.46-1.83,2.43-2.82,2.43C1.15,37.1.92,34.64.92,32.23c0-6.28,0-16.67,0-16.67C.89,7.75,8.18.89,16.48.89h84.93a14.53,14.53,0,0,1,14.36,14.67S116,32.61,116,33c0,5.37,1.64,5.37,3.23,5.37,1.75,0,2.35-.91,3.17-2.18.93-1.44,2.1-3.22,5.21-3.22,5.38,0,5.4,8.5,5.43,21.37l0,4,0,3.69c0,12.87-.05,21.37-5.43,21.37-3.12,0-4.28-1.79-5.21-3.23-.83-1.27-1.43-2.19-3.17-2.19C117.6,78,116,78,116,83.4c0,.37-.19,17.42-.19,17.42a14.54,14.54,0,0,1-14.36,14.66Z"/><path class="cls-2" d="M16.48,6.07h84.93a11.88,11.88,0,0,1,11.73,12c.06,5.89.19,17.07.19,17.42,0,5.63,1.75,8,5.86,8,3.16,0,4.42-2,5.36-3.38s1.31-2,3-2c2.76,0,2.77,9.07,2.8,18.67,0,.7,0,2,0,2.9,0-.45,0-.88,0-1.33,0,0,0-2.87,0-4.08,0-9.6,0-18.67-2.8-18.67-1.71,0-2.18.72-3,2S122.35,41,119.19,41c-4.11,0-5.86-2.41-5.86-8,0-.34-.13-11.53-.19-17.42a11.88,11.88,0,0,0-11.73-12H16.48c-6.78,0-13,5.72-13,12V18C3.58,11.74,9.73,6.07,16.48,6.07Z"/><path class="cls-2" d="M3.54,86.65c0-.33,0-.62,0-.87a9.36,9.36,0,0,0,7.56,4.14c.2,0,.4,0,.59,0,3,0,4.65-1.46,6.11-3,3-3.1,3.06-7.1,3.17-26.28V59.45c-.11,18.1-.2,22-3.17,25-1.46,1.5-3.14,3-6.11,3l-.59,0a9.36,9.36,0,0,1-7.56-4.14c0,.26,0,.54,0,.86,0,6.29,0,16.67,0,16.67v.09C3.53,97.45,3.54,91.05,3.54,86.65Z"/><path class="cls-3" d="M16.48,112.82c-6.78,0-13-5.73-13-12,0,0,0-10.38,0-16.67,0-.33,0-.61,0-.87a9.37,9.37,0,0,0,7.56,4.15l.6,0c3,0,4.64-1.47,6.1-3,3-3.1,3.06-7.1,3.17-26.27C20.88,39,20.86,35,17.82,31.9c-1.46-1.5-3.14-3-6.1-3-.2,0-.4,0-.6,0A9.36,9.36,0,0,0,3.56,33.1c0-.29,0-.58,0-.87,0-6.29,0-16.67,0-16.67,0-6.28,6.18-12,13-12h84.93a11.88,11.88,0,0,1,11.73,12c.06,5.89.19,17.08.19,17.42,0,5.64,1.75,8,5.86,8,3.16,0,4.42-2,5.36-3.38s1.31-2,3-2c2.76,0,2.77,9.07,2.8,18.68,0,1.2,0,4.08,0,4.08,0,1.26,0,2.51,0,3.72,0,9.6,0,18.67-2.8,18.67-1.71,0-2.18-.72-3-2s-2.2-3.38-5.36-3.38c-4.11,0-5.86,2.41-5.86,8,0,.34-.13,11.52-.19,17.39a11.89,11.89,0,0,1-11.73,12H16.48Z"/><path class="cls-4" d="M3.56,33.1A9.36,9.36,0,0,1,11.12,29c.2,0,.4,0,.6,0,3,0,4.64,1.46,6.1,3,2.87,2.94,3.05,10.94,3.16,27.55,32.22,7.24,46.82-3.2,80.87-3.2,20.34,0,14.33,1.23,28.54,3.4,0-.43,0-.85,0-1.29,0,0,0-2.87,0-4.08,0-9.6,0-18.67-2.8-18.67-1.71,0-2.18.72-3,2S122.36,41,119.2,41c-4.11,0-5.85-2.41-5.85-8.05,0-.34-.14-11.52-.2-17.41a11.88,11.88,0,0,0-11.73-12H16.48c-6.78,0-13,5.72-13,12,0,0,0,10.38,0,16.67C3.54,32.56,3.55,32.85,3.56,33.1Z"/><path class="cls-5" d="M101.41,1.79a13.63,13.63,0,0,1,13.47,13.77s.18,17,.18,17.42c0,5.56,1.75,6.27,4.13,6.27,4.58,0,3.26-5.41,8.38-5.41,4.93,0,4.47,10,4.55,24.17v.36c-.08,14.13.38,24.17-4.55,24.17-5.12,0-3.8-5.41-8.38-5.41-2.38,0-4.13.71-4.13,6.27,0,.37-.18,17.41-.18,17.41a13.62,13.62,0,0,1-13.47,13.78H16.48c-7.44,0-14.69-6.16-14.69-13.78,0,0,0-10.38,0-16.67,0-3,.46-4,1.06-4S4.34,81.3,5,82.2a7.59,7.59,0,0,0,6.27,3.46h.49c2.22,0,3.47-1,4.88-2.44,2.48-2.54,2.56-6.32,2.67-25-.11-18.71-.19-22.49-2.67-25-1.41-1.45-2.66-2.45-4.88-2.45l-.49,0A7.58,7.58,0,0,0,5,34.17c-.61.91-1.43,2-2.08,2s-1.06-1-1.06-4c0-6.29,0-16.67,0-16.67C1.79,8,9,1.79,16.48,1.79h84.93m0-1.79H16.48C7.7,0,0,7.27,0,15.56c0,0,0,10.39,0,16.67C0,34,0,38,2.87,38c1.54,0,2.64-1.46,3.56-2.82a5.8,5.8,0,0,1,4.9-2.66h.38c1.49,0,2.32.59,3.6,1.91,2,2,2.06,5.87,2.16,23.79C17.36,76.1,17.27,80,15.31,82,14,83.29,13.2,83.88,11.7,83.88l-.37,0a5.79,5.79,0,0,1-4.9-2.66c-.92-1.37-2-2.82-3.56-2.82A2.55,2.55,0,0,0,.41,80.5,13,13,0,0,0,0,84.14c0,6.29,0,16.66,0,16.66,0,8.3,7.7,15.57,16.48,15.57h84.93a15.43,15.43,0,0,0,15.25-15.57c0-.67.19-17,.19-17.4,0-4.5,1-4.5,2.34-4.5,1.2,0,1.56.46,2.42,1.78s2.36,3.64,6,3.64c6.27,0,6.29-8.86,6.32-22.27,0-1.19,0-2.42,0-3.68V58c0-1.27,0-2.5,0-3.69,0-13.41-.05-22.26-6.32-22.26-3.61,0-5,2.18-6,3.62s-1.22,1.78-2.42,1.78c-1.36,0-2.34,0-2.34-4.48,0-.38-.18-16.74-.19-17.44A15.42,15.42,0,0,0,101.41,0Z"/><path class="cls-5" d="M54.4,98.16a.78.78,0,0,1,0,.34.4.4,0,0,1-.1.18,1,1,0,0,1-.15.14,1.76,1.76,0,0,1-.39.2l-.28.06a.62.62,0,0,1-.27,0,.78.78,0,0,1-.5-.21,2.37,2.37,0,0,1-.5-.56L52,98c-.07-.12-.14-.24-.2-.37l-2-3.77h-.28l-.29,0a4.3,4.3,0,0,1-.71,0c-.22,0-.45,0-.68,0h-.34v3.23c0,.1,0,.19,0,.27a2.35,2.35,0,0,0,0,.27,2,2,0,0,1,0,.23q0,.15,0,.27a1,1,0,0,1-.16.4,1,1,0,0,1-.34.35A1.2,1.2,0,0,1,46,99a1.49,1.49,0,0,1-.44-.17.58.58,0,0,1-.13-.14.56.56,0,0,1-.09-.17l-.06-.19-.06-.18a1.06,1.06,0,0,1-.06-.34V87.69a1.7,1.7,0,0,1,0-.22l0-.21a1,1,0,0,1,.12-.39.55.55,0,0,1,.18-.3.84.84,0,0,1,.33-.19,2,2,0,0,1,.65-.06l1.59,0c.53,0,1,0,1.58,0,.34,0,.71.06,1.09.12a4.5,4.5,0,0,1,1.08.27l.59.25a3.5,3.5,0,0,1,.54.38,3.76,3.76,0,0,1,1,1.37,4.46,4.46,0,0,1,.32,1.63,3.49,3.49,0,0,1-.46,1.77,2.82,2.82,0,0,1-1.45,1.2l-.1,0s-.08,0-.1,0l1.64,3.3.16.29a1.14,1.14,0,0,1,.09.16.76.76,0,0,1,.09.18,1.14,1.14,0,0,1,.1.19,1.24,1.24,0,0,0,.1.2C54.35,97.92,54.38,98.05,54.4,98.16ZM49.93,91.8a1.84,1.84,0,0,0,.62-.11,2.26,2.26,0,0,0,.54-.32,1.9,1.9,0,0,0,.4-.45,1.41,1.41,0,0,0,.18-.57A1.48,1.48,0,0,0,51.2,89a2.31,2.31,0,0,0-1.41-.47c-.34,0-.72,0-1.13,0H47.49c0,.49,0,1,0,1.5s0,1.1,0,1.79Z"/><path class="cls-5" d="M56.4,97.05l0-1.41V93c0-.39,0-.78,0-1.18v-2.4c0-.33,0-.7,0-1.12v-.07l0-.37V87.5a2,2,0,0,1,.2-.7,1.11,1.11,0,0,1,.38-.43,1.28,1.28,0,0,1,.55-.14h.26l.22,0a.75.75,0,0,1,.41.22.81.81,0,0,1,.2.28c0,.08,0,.14.06.21s0,.13.05.2a2.32,2.32,0,0,1,0,.24,2.32,2.32,0,0,1,0,.43c0,.07,0,.14,0,.21v.3l-.1,9.27v.18s0,.08,0,.14,0,.11,0,.18l-.06.19-.06.21-.12.17a1.06,1.06,0,0,1-.15.15.86.86,0,0,1-.47.19A1.35,1.35,0,0,1,57,99a.86.86,0,0,1-.3-.36.14.14,0,0,1,0-.11l0,0,0-.06a1.21,1.21,0,0,1-.05-.18,1.49,1.49,0,0,1,0-.21,1.1,1.1,0,0,1,0-.18l0-.18a1.5,1.5,0,0,1,0-.3Z"/><path class="cls-5" d="M70.24,95.78a5.28,5.28,0,0,1-.21,1,3.6,3.6,0,0,1-.48,1,3,3,0,0,1-.88.8,2.28,2.28,0,0,1-.63.29,6.2,6.2,0,0,1-.77.2,7.67,7.67,0,0,1-.8.11c-.26,0-.5,0-.73,0a4.63,4.63,0,0,1-2.6-.78,4.8,4.8,0,0,1-1.52-1.8,7.41,7.41,0,0,1-.68-2.33,12.18,12.18,0,0,1-.06-2.4,10.79,10.79,0,0,1,.24-1.46,6.94,6.94,0,0,1,.56-1.52,5.26,5.26,0,0,1,.91-1.32,3.54,3.54,0,0,1,1.29-.9,5.35,5.35,0,0,1,1.53-.36,5.63,5.63,0,0,1,1.64.06,5,5,0,0,1,1.52.52,3,3,0,0,1,1.12,1A3.69,3.69,0,0,1,70.13,89a3.06,3.06,0,0,1,.06,1.27,1.07,1.07,0,0,1-.38.74.83.83,0,0,1-.62.16,1.3,1.3,0,0,1-.65-.28,1.15,1.15,0,0,1-.42-.62,5.24,5.24,0,0,0-.31-.76,1.52,1.52,0,0,0-.55-.58,1.93,1.93,0,0,0-.9-.3,2.3,2.3,0,0,0-.91.1,2.8,2.8,0,0,0-.83.45,3,3,0,0,0-.63.7,3.46,3.46,0,0,0-.46,1A6.61,6.61,0,0,0,63.29,92a7.12,7.12,0,0,0,0,1.13,7.59,7.59,0,0,0,.13,1.08A6.59,6.59,0,0,0,64,95.82a1.76,1.76,0,0,0,.44.51,2.34,2.34,0,0,0,.61.36,2.91,2.91,0,0,0,.72.17,2.07,2.07,0,0,0,.71-.06,2.41,2.41,0,0,0,.79-.33,1.72,1.72,0,0,0,.48-.49,1.74,1.74,0,0,0,.24-.62,4.18,4.18,0,0,0,.07-.72v0h-.68a2,2,0,0,1-.77-.15.83.83,0,0,1-.48-.34.68.68,0,0,1-.18-.48,1.27,1.27,0,0,1,0-.2,1.49,1.49,0,0,1,0-.21,1.58,1.58,0,0,1,.24-.36.86.86,0,0,1,.33-.14l.22-.06a1.37,1.37,0,0,1,.25,0h2.11a1.21,1.21,0,0,1,.45,0,.83.83,0,0,1,.4.19.76.76,0,0,1,.11.14.51.51,0,0,1,.09.16,1.38,1.38,0,0,1,.09.39l0,.23c0,.07,0,.14,0,.2v.74A10,10,0,0,1,70.24,95.78Z"/><path class="cls-5" d="M81.16,87.17a2.09,2.09,0,0,1,0,.24v.94l-.1,9.27v.18a1.3,1.3,0,0,1-.06.32,1.33,1.33,0,0,1-.05.19,1.72,1.72,0,0,0-.07.21.75.75,0,0,1-.25.32.86.86,0,0,1-.47.19,1.34,1.34,0,0,1-.91-.08.84.84,0,0,1-.32-.36.52.52,0,0,1-.07-.11.24.24,0,0,0,0-.11,1.21,1.21,0,0,1,0-.18,1.55,1.55,0,0,0,0-.21V97.8l0-.18a.34.34,0,0,1,0-.15v-.15a.58.58,0,0,0,0-.27l0-1.41V93.39h-1l-3.63,0,0,4.21v.18a1.3,1.3,0,0,1-.06.32,1.33,1.33,0,0,1,0,.19c0,.07-.05.14-.07.21a.68.68,0,0,1-.25.32.86.86,0,0,1-.47.19,1.34,1.34,0,0,1-.91-.08,1.19,1.19,0,0,1-.34-.36.36.36,0,0,1,0-.11l-.06-.11a1.21,1.21,0,0,1,0-.18l0-.21a1.1,1.1,0,0,0,0-.18l0-.18a1.5,1.5,0,0,1,0-.3v-.27l0-1.41,0-2.62c0-.39,0-.78,0-1.18V90.59c0-.43,0-.81,0-1.15s0-.7,0-1.12v-.07c0-.12,0-.24,0-.37s0-.25,0-.38,0-.24.07-.35a1.66,1.66,0,0,1,.13-.35.89.89,0,0,1,.14-.24,1.37,1.37,0,0,1,.22-.19,1.33,1.33,0,0,1,.57-.14h.25l.21,0a.75.75,0,0,1,.42.22.64.64,0,0,1,.19.28,1.69,1.69,0,0,1,.11.41,2.32,2.32,0,0,1,0,.24v.94l0,3h.33l.44,0,1.85,0,1.94,0h0c0-.54,0-1,0-1.54s0-1,0-1.53c0-.12,0-.24,0-.37s0-.25,0-.38a2,2,0,0,1,.07-.35A1.66,1.66,0,0,1,79,86.8a.47.47,0,0,1,.13-.24,1.26,1.26,0,0,1,.25-.19,1.12,1.12,0,0,1,.55-.14h.26l.2,0a.66.66,0,0,1,.41.22.46.46,0,0,1,.2.28c0,.08,0,.14.06.21S81.13,87.1,81.16,87.17Z"/><path class="cls-5" d="M92.46,86.85a.77.77,0,0,1,.2.49,1.7,1.7,0,0,1,0,.22c0,.08,0,.14,0,.2a.77.77,0,0,1-.23.38,1.09,1.09,0,0,1-.39.16l-.25,0a2.61,2.61,0,0,0-.27.06l-.25,0H88.8c0,.37,0,.77,0,1.19s0,.91,0,1.47,0,1.21,0,2,0,1.6,0,2.57V97a1.65,1.65,0,0,0,0,.27v.13a.89.89,0,0,1,0,.15,3.53,3.53,0,0,0,0,.38.88.88,0,0,1,0,.17,1.54,1.54,0,0,1,0,.17s-.07.08-.07.11l-.06.1a.85.85,0,0,1-.34.34,1.28,1.28,0,0,1-.87.09,1,1,0,0,1-.47-.16,1.28,1.28,0,0,1-.23-.32A1,1,0,0,1,86.5,98a.92.92,0,0,1-.06-.33V88.51H85.27l-.72,0c-.23,0-.38,0-.46,0l-.34,0-.36-.07A1.26,1.26,0,0,1,82.8,88a.81.81,0,0,1-.2-.52v-.21a.42.42,0,0,1,0-.2.6.6,0,0,1,.28-.36l.23-.13a1.38,1.38,0,0,1,.29-.12,3.08,3.08,0,0,1,.54-.1,1.32,1.32,0,0,1,.28,0h1.5l1.18,0c.69,0,1.38,0,2.07,0s1.36,0,2,0a3.26,3.26,0,0,1,.45,0,1.86,1.86,0,0,1,.43.12,2,2,0,0,1,.3.14A.64.64,0,0,1,92.46,86.85Z"/><path class="cls-6" d="M52.61,98.16a.78.78,0,0,1,0,.34.77.77,0,0,1-.1.18,1,1,0,0,1-.15.14,2.13,2.13,0,0,1-.4.2l-.27.06a.67.67,0,0,1-.28,0,.78.78,0,0,1-.5-.21,2.61,2.61,0,0,1-.5-.56l-.2-.32c-.07-.12-.13-.24-.19-.37l-2-3.77h-.29l-.29,0a4.18,4.18,0,0,1-.7,0q-.33,0-.69,0H45.7v3.23a2.26,2.26,0,0,1,0,.27c0,.09,0,.17,0,.27a2,2,0,0,1,0,.23,2.13,2.13,0,0,1,0,.27,1.45,1.45,0,0,1-.16.4,1.26,1.26,0,0,1-.34.35,1.21,1.21,0,0,1-.91.12,1.44,1.44,0,0,1-.45-.17.58.58,0,0,1-.13-.14.89.89,0,0,1-.08-.17,1.07,1.07,0,0,1-.07-.19l-.06-.18a1,1,0,0,1-.05-.34V87.69a1.7,1.7,0,0,1,0-.22,1.25,1.25,0,0,1,0-.21,1,1,0,0,1,.13-.39.46.46,0,0,1,.18-.3.84.84,0,0,1,.33-.19,1.89,1.89,0,0,1,.65-.06l1.59,0c.52,0,1,0,1.57,0,.34,0,.71.06,1.1.12a4.62,4.62,0,0,1,1.08.27l.59.25a3.89,3.89,0,0,1,.53.38,3.64,3.64,0,0,1,1,1.37,4.46,4.46,0,0,1,.32,1.63A3.58,3.58,0,0,1,52,92.16a2.85,2.85,0,0,1-1.46,1.2.23.23,0,0,1-.1,0,.29.29,0,0,0-.1,0L52,96.73l.16.29a1.46,1.46,0,0,0,.09.16l.09.18a1.11,1.11,0,0,1,.09.19l.1.2C52.56,97.92,52.59,98.05,52.61,98.16ZM48.15,91.8a1.78,1.78,0,0,0,.61-.11,2.08,2.08,0,0,0,.54-.32,1.9,1.9,0,0,0,.4-.45,1.16,1.16,0,0,0,.18-.57A1.48,1.48,0,0,0,49.42,89,2.31,2.31,0,0,0,48,88.55c-.35,0-.73,0-1.14,0H45.7c0,.49,0,1,0,1.5s0,1.1,0,1.79Z"/><path class="cls-6" d="M54.61,97.05l0-1.41,0-2.62c0-.39,0-.78,0-1.18v-2.4c0-.33,0-.7,0-1.12v-.07l0-.37c0-.12,0-.25,0-.38a2,2,0,0,1,.19-.7,1.2,1.2,0,0,1,.38-.43,1.28,1.28,0,0,1,.55-.14h.26l.23,0a.79.79,0,0,1,.41.22.8.8,0,0,1,.19.28L57,87c0,.06,0,.13,0,.2s0,.17,0,.24,0,.14,0,.21,0,.16,0,.22a1.48,1.48,0,0,0,0,.21v.3L57,97.62v.18a.76.76,0,0,1,0,.14.67.67,0,0,1,0,.18l-.06.19-.06.21a1.77,1.77,0,0,1-.12.17,1.06,1.06,0,0,1-.15.15.82.82,0,0,1-.46.19,1.35,1.35,0,0,1-.91-.08.81.81,0,0,1-.31-.36.18.18,0,0,1,0-.11.1.1,0,0,0,0,0,.16.16,0,0,1,0-.06,1.27,1.27,0,0,1-.06-.18,1.48,1.48,0,0,1,0-.21,1.13,1.13,0,0,1,0-.18,1.13,1.13,0,0,0,0-.18,1.5,1.5,0,0,1,0-.3Z"/><path class="cls-6" d="M68.46,95.78a5.3,5.3,0,0,1-.22,1,3.6,3.6,0,0,1-.48,1,2.85,2.85,0,0,1-.88.8,2.16,2.16,0,0,1-.63.29,5.77,5.77,0,0,1-.77.2,7.49,7.49,0,0,1-.79.11c-.27,0-.51,0-.74,0a4.6,4.6,0,0,1-2.59-.78,4.71,4.71,0,0,1-1.52-1.8,7.15,7.15,0,0,1-.68-2.33,12.18,12.18,0,0,1-.06-2.4,8.36,8.36,0,0,1,.24-1.46,6.91,6.91,0,0,1,.55-1.52,5.54,5.54,0,0,1,.91-1.32,3.66,3.66,0,0,1,1.3-.9,5.21,5.21,0,0,1,1.52-.36,5.69,5.69,0,0,1,1.65.06,5.07,5.07,0,0,1,1.52.52,2.91,2.91,0,0,1,1.11,1A4,4,0,0,1,68.35,89a3.05,3.05,0,0,1,.05,1.27A1.07,1.07,0,0,1,68,91a.84.84,0,0,1-.63.16,1.37,1.37,0,0,1-.65-.28,1.15,1.15,0,0,1-.42-.62,4.3,4.3,0,0,0-.3-.76,1.55,1.55,0,0,0-.56-.58,1.86,1.86,0,0,0-.9-.3,2.32,2.32,0,0,0-.91.1,2.75,2.75,0,0,0-.82.45,2.82,2.82,0,0,0-.64.7,3.76,3.76,0,0,0-.46,1A5.71,5.71,0,0,0,61.51,92a6.11,6.11,0,0,0,0,1.13,7.59,7.59,0,0,0,.14,1.08,6.56,6.56,0,0,0,.6,1.64,1.93,1.93,0,0,0,.44.51,2.39,2.39,0,0,0,.62.36,2.73,2.73,0,0,0,.71.17,2.15,2.15,0,0,0,.72-.06,2.35,2.35,0,0,0,.78-.33A1.76,1.76,0,0,0,66,96a2.22,2.22,0,0,0,.24-.62,4.2,4.2,0,0,0,.06-.72v0h-.68a2.07,2.07,0,0,1-.77-.15.9.9,0,0,1-.48-.34.68.68,0,0,1-.18-.48,1.27,1.27,0,0,1,0-.2,1.52,1.52,0,0,1,0-.21,1.22,1.22,0,0,1,.23-.36.84.84,0,0,1,.34-.14l.21-.06.25,0h2.11a1.28,1.28,0,0,1,.46,0,.88.88,0,0,1,.4.19l.11.14a.8.8,0,0,1,.08.16,1.38,1.38,0,0,1,.09.39,1.81,1.81,0,0,1,0,.23,1.41,1.41,0,0,1,0,.2v.74C68.51,95.05,68.49,95.41,68.46,95.78Z"/><path class="cls-6" d="M79.37,87.17a2.32,2.32,0,0,1,0,.24v.94l-.11,9.27v.18a1.81,1.81,0,0,1,0,.32,1.39,1.39,0,0,1-.06.19,1.72,1.72,0,0,1-.07.21.68.68,0,0,1-.25.32.82.82,0,0,1-.46.19,1.33,1.33,0,0,1-.91-.08.81.81,0,0,1-.33-.36l-.07-.11a.36.36,0,0,0,0-.11,1.27,1.27,0,0,1-.06-.18L77,98a1.09,1.09,0,0,0,0-.18l0-.18a.49.49,0,0,1,0-.15v-.15a.82.82,0,0,0,0-.27l0-1.41,0-2.25H76l-3.62,0,0,4.21v.18a1.81,1.81,0,0,1,0,.32.7.7,0,0,1-.06.19,1.72,1.72,0,0,1-.07.21.68.68,0,0,1-.25.32.82.82,0,0,1-.46.19,1.34,1.34,0,0,1-.91-.08,1.19,1.19,0,0,1-.34-.36.24.24,0,0,1,0-.11l-.05-.11a1.21,1.21,0,0,1,0-.18A1.55,1.55,0,0,1,70,98a1.1,1.1,0,0,0,0-.18l0-.18a.76.76,0,0,1,0-.3V95.64L70,93c0-.39,0-.78,0-1.18V90.59c0-.43,0-.81,0-1.15s0-.7,0-1.12v-.07a2.23,2.23,0,0,0,0-.37c0-.12,0-.25,0-.38a2,2,0,0,1,.06-.35,1.7,1.7,0,0,1,.14-.35.57.57,0,0,1,.14-.24,1.29,1.29,0,0,1,.21-.19,1.33,1.33,0,0,1,.57-.14h.25l.22,0a.73.73,0,0,1,.41.22.76.76,0,0,1,.2.28,1.6,1.6,0,0,1,.1.41,1.06,1.06,0,0,1,0,.24v.94l0,3h.34l.43,0,1.85,0,1.94,0h0c0-.54,0-1,0-1.54s0-1,0-1.53c0-.12,0-.24,0-.37l0-.38a2,2,0,0,1,.06-.35,1.66,1.66,0,0,1,.13-.35.48.48,0,0,1,.14-.24,1,1,0,0,1,.24-.19,1.15,1.15,0,0,1,.55-.14h.26l.21,0a.72.72,0,0,1,.41.22.44.44,0,0,1,.19.28c0,.08.05.14.07.21A.89.89,0,0,0,79.37,87.17Z"/><path class="cls-6" d="M90.68,86.85a.76.76,0,0,1,.19.49,1.7,1.7,0,0,1,0,.22,1.12,1.12,0,0,1,0,.2.87.87,0,0,1-.24.38,1,1,0,0,1-.39.16l-.25,0-.27.06-.25,0H87c0,.37,0,.77,0,1.19s0,.91,0,1.47,0,1.21,0,2,0,1.6,0,2.57V97a1.94,1.94,0,0,0,0,.27v.13a.81.81,0,0,1,0,.15,2,2,0,0,0-.06.38.47.47,0,0,1,0,.17,1.54,1.54,0,0,1,0,.17c-.05,0-.07.08-.07.11l0,.1a.92.92,0,0,1-.34.34,1.32,1.32,0,0,1-.88.09.89.89,0,0,1-.46-.16.92.92,0,0,1-.23-.32.86.86,0,0,1-.13-.38.91.91,0,0,1,0-.33V88.51H83.49l-.73,0-.46,0-.33,0-.37-.07A1.32,1.32,0,0,1,81,88a.8.8,0,0,1-.19-.52v-.21a.6.6,0,0,1,0-.2.62.62,0,0,1,.29-.36l.22-.13a1.25,1.25,0,0,1,.3-.12,3,3,0,0,1,.53-.1,1.42,1.42,0,0,1,.29,0H84l1.19,0c.69,0,1.37,0,2.06,0s1.37,0,2,0a3.1,3.1,0,0,1,.45,0,1.73,1.73,0,0,1,.43.12,1.38,1.38,0,0,1,.3.14A.68.68,0,0,1,90.68,86.85Z"/><rect class="cls-5" x="32.15" y="40.47" width="5.62" height="34.28" rx="1.44"/><rect class="cls-5" x="32.92" y="36.65" width="5.62" height="41.03" rx="1.57"/><path class="cls-5" d="M38.38,41.29H33.09a.17.17,0,0,1-.17-.17v-1A1.08,1.08,0,0,1,34,39.07h3.47a1.08,1.08,0,0,1,1.08,1.07v1A.17.17,0,0,1,38.38,41.29Z"/><rect class="cls-5" x="32.92" y="44.03" width="5.62" height="2.22" rx="0.17"/><rect class="cls-5" x="32.92" y="49" width="5.62" height="2.22" rx="0.17"/><rect class="cls-5" x="32.92" y="53.96" width="5.62" height="2.22" rx="0.17"/><rect class="cls-5" x="32.92" y="58.92" width="5.62" height="2.22" rx="0.17"/><rect class="cls-5" x="32.92" y="63.88" width="5.62" height="2.22" rx="0.17"/><rect class="cls-5" x="32.92" y="68.85" width="5.62" height="2.22" rx="0.17"/><path class="cls-5" d="M37.47,76H34A1.08,1.08,0,0,1,32.92,75V74a.18.18,0,0,1,.17-.17h5.29a.18.18,0,0,1,.17.17v1A1.08,1.08,0,0,1,37.47,76Z"/><rect class="cls-5" x="99.27" y="39.57" width="5.62" height="34.28" rx="1.44"/><rect class="cls-5" x="98.49" y="36.65" width="5.62" height="41.03" rx="1.57"/><path class="cls-5" d="M98.66,73H104a.17.17,0,0,1,.17.17v1A1.08,1.08,0,0,1,103,75.26H99.57a1.08,1.08,0,0,1-1.08-1.07v-1A.17.17,0,0,1,98.66,73Z"/><rect class="cls-5" x="98.49" y="68.08" width="5.62" height="2.22" rx="0.17"/><rect class="cls-5" x="98.49" y="63.11" width="5.62" height="2.22" rx="0.17"/><rect class="cls-5" x="98.49" y="58.15" width="5.62" height="2.22" rx="0.17"/><rect class="cls-5" x="98.49" y="53.19" width="5.62" height="2.22" rx="0.17"/><rect class="cls-5" x="98.49" y="48.22" width="5.62" height="2.22" rx="0.17"/><rect class="cls-5" x="98.49" y="43.26" width="5.62" height="2.22" rx="0.17"/><path class="cls-5" d="M99.57,38.3H103a1.08,1.08,0,0,1,1.08,1.07v1a.18.18,0,0,1-.17.17H98.66a.18.18,0,0,1-.17-.17v-1A1.08,1.08,0,0,1,99.57,38.3Z"/><rect class="cls-5" x="38.61" y="42.23" width="29.88" height="29.88" rx="1.96"/><path class="cls-5" d="M51.48,43.32V42.23h4.14v1.09a.38.38,0,0,1-.37.37h-3.4A.38.38,0,0,1,51.48,43.32Z"/><path class="cls-5" d="M55.62,71V72.1H51.48V71a.38.38,0,0,1,.37-.37h3.4A.38.38,0,0,1,55.62,71Z"/><path class="cls-5" d="M67.4,55.1h1.09v4.13H67.4a.36.36,0,0,1-.37-.37V55.47A.36.36,0,0,1,67.4,55.1Z"/><path class="cls-5" d="M39.7,59.23H38.61V55.1H39.7a.36.36,0,0,1,.37.37v3.39A.36.36,0,0,1,39.7,59.23Z"/><rect class="cls-5" x="38.61" y="42.23" width="29.88" height="29.88" rx="1.96"/><rect class="cls-5" x="56.85" y="45.57" width="7.84" height="7.84" rx="2.19"/><rect class="cls-5" x="56.85" y="45.57" width="7.84" height="7.84" rx="2.19"/><rect class="cls-5" x="58.28" y="47" width="4.97" height="4.97" rx="1.39"/><rect class="cls-5" x="42.41" y="45.57" width="7.84" height="7.84" rx="2.19"/><rect class="cls-5" x="42.41" y="45.57" width="7.84" height="7.84" rx="2.19"/><rect class="cls-5" x="43.84" y="47" width="4.97" height="4.97" rx="1.39"/><rect class="cls-5" x="56.85" y="60.92" width="7.84" height="7.84" rx="2.19"/><rect class="cls-5" x="56.85" y="60.92" width="7.84" height="7.84" rx="2.19"/><rect class="cls-5" x="58.28" y="62.35" width="4.97" height="4.97" rx="1.39"/><rect class="cls-5" x="42.41" y="60.92" width="7.84" height="7.84" rx="2.19"/><rect class="cls-5" x="42.41" y="60.92" width="7.84" height="7.84" rx="2.19"/><rect class="cls-5" x="43.84" y="62.35" width="4.97" height="4.97" rx="1.39"/><rect class="cls-5" x="68.55" y="42.23" width="29.88" height="29.88" rx="1.96"/><path class="cls-5" d="M81.42,43.32V42.23h4.14v1.09a.38.38,0,0,1-.37.37h-3.4A.38.38,0,0,1,81.42,43.32Z"/><path class="cls-5" d="M85.56,71V72.1H81.42V71a.38.38,0,0,1,.37-.37h3.4A.38.38,0,0,1,85.56,71Z"/><path class="cls-5" d="M97.34,55.1h1.09v4.13H97.34a.36.36,0,0,1-.37-.37V55.47A.36.36,0,0,1,97.34,55.1Z"/><path class="cls-5" d="M69.64,59.23H68.55V55.1h1.09a.36.36,0,0,1,.37.37v3.39A.36.36,0,0,1,69.64,59.23Z"/><rect class="cls-5" x="68.55" y="42.23" width="29.88" height="29.88" rx="1.96"/><rect class="cls-5" x="86.79" y="45.57" width="7.84" height="7.84" rx="2.19"/><rect class="cls-5" x="86.79" y="45.57" width="7.84" height="7.84" rx="2.19"/><rect class="cls-5" x="88.22" y="47" width="4.97" height="4.97" rx="1.39"/><rect class="cls-5" x="72.35" y="45.57" width="7.84" height="7.84" rx="2.19"/><rect class="cls-5" x="72.35" y="45.57" width="7.84" height="7.84" rx="2.19"/><rect class="cls-5" x="73.78" y="47" width="4.97" height="4.97" rx="1.39"/><rect class="cls-5" x="86.79" y="60.92" width="7.84" height="7.84" rx="2.19"/><rect class="cls-5" x="86.79" y="60.92" width="7.84" height="7.84" rx="2.19"/><rect class="cls-5" x="88.22" y="62.35" width="4.97" height="4.97" rx="1.39"/><rect class="cls-5" x="72.35" y="60.92" width="7.84" height="7.84" rx="2.19"/><rect class="cls-5" x="72.35" y="60.92" width="7.84" height="7.84" rx="2.19"/><rect class="cls-5" x="73.78" y="62.35" width="4.97" height="4.97" rx="1.39"/><rect class="cls-7" x="30.38" y="40.47" width="5.62" height="34.28" rx="1.44" transform="translate(66.39 115.23) rotate(180)"/><rect class="cls-7" x="97.5" y="39.57" width="5.62" height="34.28" rx="1.44"/><rect class="cls-8" x="30.38" y="40.47" width="5.62" height="34.28" rx="1.44" transform="translate(66.39 115.23) rotate(180)"/><rect class="cls-8" x="97.5" y="39.57" width="5.62" height="34.28" rx="1.44"/><rect class="cls-9" x="31.16" y="36.65" width="5.62" height="41.03" rx="1.57" transform="translate(67.94 114.33) rotate(-180)"/><path class="cls-10" d="M32.23,39.07h3.47a1.08,1.08,0,0,1,1.08,1.08v1a.17.17,0,0,1-.17.17H31.32a.17.17,0,0,1-.17-.17v-1A1.08,1.08,0,0,1,32.23,39.07Z"/><rect class="cls-10" x="31.16" y="44.03" width="5.62" height="2.22" rx="0.17"/><rect class="cls-10" x="31.16" y="49" width="5.62" height="2.22" rx="0.17"/><rect class="cls-10" x="31.16" y="53.96" width="5.62" height="2.22" rx="0.17"/><rect class="cls-10" x="31.16" y="58.92" width="5.62" height="2.22" rx="0.17"/><rect class="cls-10" x="31.16" y="63.88" width="5.62" height="2.22" rx="0.17"/><rect class="cls-10" x="31.16" y="68.85" width="5.62" height="2.22" rx="0.17"/><path class="cls-10" d="M31.32,73.81h5.29a.17.17,0,0,1,.17.17v1A1.08,1.08,0,0,1,35.71,76H32.23A1.08,1.08,0,0,1,31.16,75V74a.17.17,0,0,1,.17-.17Z"/><rect class="cls-9" x="96.72" y="36.65" width="5.62" height="41.03" rx="1.57"/><path class="cls-10" d="M97.8,73h3.47a1.08,1.08,0,0,1,1.08,1.08v1a.17.17,0,0,1-.17.17H96.89a.17.17,0,0,1-.17-.17v-1A1.08,1.08,0,0,1,97.8,73Z" transform="translate(199.07 148.3) rotate(180)"/><rect class="cls-10" x="96.72" y="68.08" width="5.62" height="2.22" rx="0.17" transform="translate(199.07 138.37) rotate(180)"/><rect class="cls-10" x="96.72" y="63.11" width="5.62" height="2.22" rx="0.17" transform="translate(199.07 128.45) rotate(180)"/><rect class="cls-10" x="96.72" y="58.15" width="5.62" height="2.22" rx="0.17" transform="translate(199.07 118.52) rotate(180)"/><rect class="cls-10" x="96.72" y="53.19" width="5.62" height="2.22" rx="0.17" transform="translate(199.07 108.59) rotate(180)"/><rect class="cls-10" x="96.72" y="48.22" width="5.62" height="2.22" rx="0.17" transform="translate(199.07 98.67) rotate(180)"/><rect class="cls-10" x="96.72" y="43.26" width="5.62" height="2.22" rx="0.17" transform="translate(199.07 88.74) rotate(180)"/><path class="cls-10" d="M96.89,38.3h5.29a.17.17,0,0,1,.17.17v1a1.08,1.08,0,0,1-1.08,1.08H97.8a1.08,1.08,0,0,1-1.08-1.08v-1a.17.17,0,0,1,.17-.17Z" transform="translate(199.07 78.82) rotate(-180)"/><rect class="cls-7" x="36.85" y="42.23" width="29.88" height="29.88" rx="1.96"/><path class="cls-11" d="M51.05,40.89h1.09a.37.37,0,0,1,.37.37v3.4a.37.37,0,0,1-.37.37H51.05a0,0,0,0,1,0,0V40.89A0,0,0,0,1,51.05,40.89Z" transform="translate(94.74 -8.82) rotate(90)"/><path class="cls-11" d="M51.05,69.3h1.09a.37.37,0,0,1,.37.37v3.4a.37.37,0,0,1-.37.37H51.05a0,0,0,0,1,0,0V69.3A0,0,0,0,1,51.05,69.3Z" transform="translate(-19.59 123.15) rotate(-90)"/><path class="cls-11" d="M65.26,55.1h1.09a.37.37,0,0,1,.37.37v3.4a.37.37,0,0,1-.37.37H65.26a0,0,0,0,1,0,0V55.1A0,0,0,0,1,65.26,55.1Z" transform="translate(131.98 114.33) rotate(180)"/><path class="cls-11" d="M36.85,55.1h1.09a.37.37,0,0,1,.37.37v3.4a.37.37,0,0,1-.37.37H36.85a0,0,0,0,1,0,0V55.1A0,0,0,0,1,36.85,55.1Z"/><rect class="cls-12" x="36.85" y="42.23" width="29.88" height="29.88" rx="1.96"/><rect class="cls-7" x="55.08" y="45.57" width="7.84" height="7.84" rx="2.19"/><rect class="cls-12" x="55.08" y="45.57" width="7.84" height="7.84" rx="2.19"/><rect class="cls-13" x="56.52" y="47" width="4.97" height="4.97" rx="1.39"/><rect class="cls-7" x="40.65" y="45.57" width="7.84" height="7.84" rx="2.19"/><rect class="cls-12" x="40.65" y="45.57" width="7.84" height="7.84" rx="2.19"/><rect class="cls-13" x="42.08" y="47" width="4.97" height="4.97" rx="1.39"/><rect class="cls-7" x="55.08" y="60.92" width="7.84" height="7.84" rx="2.19"/><rect class="cls-12" x="55.08" y="60.92" width="7.84" height="7.84" rx="2.19"/><rect class="cls-13" x="56.52" y="62.35" width="4.97" height="4.97" rx="1.39"/><rect class="cls-7" x="40.65" y="60.92" width="7.84" height="7.84" rx="2.19"/><rect class="cls-12" x="40.65" y="60.92" width="7.84" height="7.84" rx="2.19"/><rect class="cls-13" x="42.08" y="62.35" width="4.97" height="4.97" rx="1.39"/><rect class="cls-7" x="66.78" y="42.23" width="29.88" height="29.88" rx="1.96"/><path class="cls-11" d="M81,40.89h1.09a.37.37,0,0,1,.37.37v3.4a.37.37,0,0,1-.37.37H81a0,0,0,0,1,0,0V40.89A0,0,0,0,1,81,40.89Z" transform="translate(124.68 -38.76) rotate(90)"/><path class="cls-11" d="M81,69.3h1.09a.37.37,0,0,1,.37.37v3.4a.37.37,0,0,1-.37.37H81a0,0,0,0,1,0,0V69.3A0,0,0,0,1,81,69.3Z" transform="translate(10.35 153.09) rotate(-90)"/><path class="cls-11" d="M95.2,55.1h1.09a.37.37,0,0,1,.37.37v3.4a.37.37,0,0,1-.37.37H95.2a0,0,0,0,1,0,0V55.1A0,0,0,0,1,95.2,55.1Z" transform="translate(191.86 114.33) rotate(180)"/><path class="cls-11" d="M66.78,55.1h1.09a.37.37,0,0,1,.37.37v3.4a.37.37,0,0,1-.37.37H66.78a0,0,0,0,1,0,0V55.1A0,0,0,0,1,66.78,55.1Z"/><rect class="cls-12" x="66.78" y="42.23" width="29.88" height="29.88" rx="1.96"/><rect class="cls-7" x="85.02" y="45.57" width="7.84" height="7.84" rx="2.19"/><rect class="cls-12" x="85.02" y="45.57" width="7.84" height="7.84" rx="2.19"/><rect class="cls-13" x="86.46" y="47" width="4.97" height="4.97" rx="1.39"/><rect class="cls-7" x="70.58" y="45.57" width="7.84" height="7.84" rx="2.19"/><rect class="cls-12" x="70.58" y="45.57" width="7.84" height="7.84" rx="2.19"/><rect class="cls-13" x="72.02" y="47" width="4.97" height="4.97" rx="1.39"/><rect class="cls-7" x="85.02" y="60.92" width="7.84" height="7.84" rx="2.19"/><rect class="cls-12" x="85.02" y="60.92" width="7.84" height="7.84" rx="2.19"/><rect class="cls-13" x="86.46" y="62.35" width="4.97" height="4.97" rx="1.39"/><rect class="cls-7" x="70.58" y="60.92" width="7.84" height="7.84" rx="2.19"/><rect class="cls-12" x="70.58" y="60.92" width="7.84" height="7.84" rx="2.19"/><rect class="cls-13" x="72.02" y="62.35" width="4.97" height="4.97" rx="1.39"/><path class="cls-5" d="M66,30.57v8.72a1.63,1.63,0,0,0,1.7,1.61,1.68,1.68,0,0,0,1.69-1.61V30.57a5.7,5.7,0,0,1,5.92-5.5H84l-2.2,2a1.37,1.37,0,0,0-.51,1.1A1.63,1.63,0,0,0,83,29.81a2.07,2.07,0,0,0,1.19-.42l5.08-4.74a1.4,1.4,0,0,0,.5-1.1,1.7,1.7,0,0,0-.5-1.19l-5.08-4.74A1.71,1.71,0,0,0,83,17.2a1.68,1.68,0,0,0-1.69,1.61,1.49,1.49,0,0,0,.51,1.1l2.2,2H75.33C70.17,21.94,66,25.83,66,30.57Z"/><path class="cls-6" d="M64.26,30.57v8.72A1.63,1.63,0,0,0,66,40.9a1.68,1.68,0,0,0,1.69-1.61V30.57a5.7,5.7,0,0,1,5.93-5.5H82.2l-2.2,2a1.37,1.37,0,0,0-.51,1.1,1.63,1.63,0,0,0,1.69,1.61,2,2,0,0,0,1.19-.42l5.08-4.74a1.37,1.37,0,0,0,.51-1.1,1.67,1.67,0,0,0-.51-1.19l-5.08-4.74a1.71,1.71,0,0,0-1.19-.42,1.68,1.68,0,0,0-1.69,1.61,1.49,1.49,0,0,0,.51,1.1l2.2,2H73.57C68.4,21.94,64.26,25.83,64.26,30.57Z"/></g></g></svg>