<svg xmlns="http://www.w3.org/2000/svg" xmlns:xlink="http://www.w3.org/1999/xlink" viewBox="0 0 133.92 116.37"><defs><style>.cls-1{fill:#ff880d;}.cls-2{fill:#ffae14;}.cls-3{fill:url(#무제_그라디언트_5);}.cls-4,.cls-6{opacity:0.5;}.cls-4{fill:url(#무제_그라디언트_3);}.cls-5,.cls-6{fill:#ca641e;}.cls-7{fill:#efefef;}.cls-8{fill:none;stroke:#cccbcb;stroke-miterlimit:10;stroke-width:0.36px;}.cls-9{fill:#e8e7e7;}.cls-10{fill:#ec2024;}.cls-11{fill:#383838;fill-opacity:0.1;}.cls-12{fill:#f3f4f5;}.cls-13{fill:#a4a4a4;}.cls-14{fill:#fff;}</style><linearGradient id="무제_그라디언트_5" x1="66.95" y1="-7048.54" x2="66.95" y2="-6955.02" gradientTransform="matrix(1, 0, 0, -1, 0, -6935.52)" gradientUnits="userSpaceOnUse"><stop offset="0" stop-color="#fff" stop-opacity="0.5"/><stop offset="0.5" stop-color="#fff" stop-opacity="0"/><stop offset="1" stop-color="#fff" stop-opacity="0"/></linearGradient><linearGradient id="무제_그라디언트_3" x1="74.07" y1="-6936" x2="67.68" y2="-6968.91" gradientTransform="matrix(1, 0, 0, -1, 0, -6935.52)" gradientUnits="userSpaceOnUse"><stop offset="0" stop-color="#fff"/><stop offset="1" stop-color="#fff" stop-opacity="0.39"/></linearGradient></defs><g id="레이어_2" data-name="레이어 2"><g id="Layer_1" data-name="Layer 1"><path class="cls-1" d="M16.48,115.48c-8.3,0-15.59-6.86-15.59-14.67,0,0,0-10.38,0-16.67,0-2.41.23-4.87,2-4.87,1,0,1.84,1,2.82,2.43a6.8,6.8,0,0,0,5.59,3.06h.43c1.79,0,2.83-.73,4.24-2.17,2.2-2.26,2.31-6.2,2.42-24.42C18.26,40,18.16,36,16,33.78c-1.41-1.44-2.45-2.18-4.23-2.18l-.44,0a6.77,6.77,0,0,0-5.59,3.05c-1,1.46-1.83,2.43-2.82,2.43C1.15,37.1.92,34.64.92,32.23c0-6.28,0-16.67,0-16.67C.89,7.75,8.18.89,16.48.89h84.93a14.53,14.53,0,0,1,14.36,14.67S116,32.61,116,33c0,5.37,1.64,5.37,3.23,5.37,1.75,0,2.35-.91,3.17-2.18.93-1.44,2.1-3.22,5.21-3.22,5.38,0,5.4,8.5,5.43,21.37l0,4,0,3.69c0,12.87-.05,21.37-5.43,21.37-3.12,0-4.28-1.79-5.21-3.23-.83-1.27-1.43-2.19-3.17-2.19C117.6,78,116,78,116,83.4c0,.37-.19,17.42-.19,17.42a14.54,14.54,0,0,1-14.36,14.66Z"/><path class="cls-2" d="M16.48,6.07h84.93a11.88,11.88,0,0,1,11.73,12c.06,5.89.19,17.07.19,17.42,0,5.63,1.75,8,5.86,8,3.16,0,4.42-2,5.36-3.38s1.31-2,3-2c2.76,0,2.77,9.07,2.8,18.67,0,.7,0,2,0,2.9,0-.45,0-.88,0-1.33,0,0,0-2.87,0-4.08,0-9.6,0-18.67-2.8-18.67-1.71,0-2.18.72-3,2S122.35,41,119.19,41c-4.11,0-5.86-2.41-5.86-8,0-.34-.13-11.53-.19-17.42a11.88,11.88,0,0,0-11.73-12H16.48c-6.78,0-13,5.72-13,12V18C3.58,11.74,9.73,6.07,16.48,6.07Z"/><path class="cls-2" d="M3.54,86.65c0-.33,0-.62,0-.87a9.36,9.36,0,0,0,7.56,4.14c.2,0,.4,0,.59,0,3,0,4.65-1.46,6.11-3,3-3.1,3.06-7.1,3.17-26.28V59.45c-.11,18.1-.2,22-3.17,25-1.46,1.5-3.14,3-6.11,3l-.59,0a9.36,9.36,0,0,1-7.56-4.14c0,.26,0,.54,0,.86,0,6.29,0,16.67,0,16.67v.09C3.53,97.45,3.54,91.05,3.54,86.65Z"/><path class="cls-3" d="M16.48,112.82c-6.78,0-13-5.73-13-12,0,0,0-10.38,0-16.67,0-.33,0-.61,0-.87a9.37,9.37,0,0,0,7.56,4.15l.6,0c3,0,4.64-1.47,6.1-3,3-3.1,3.06-7.1,3.17-26.27C20.88,39,20.86,35,17.82,31.9c-1.46-1.5-3.14-3-6.1-3-.2,0-.4,0-.6,0A9.36,9.36,0,0,0,3.56,33.1c0-.29,0-.58,0-.87,0-6.29,0-16.67,0-16.67,0-6.28,6.18-12,13-12h84.93a11.88,11.88,0,0,1,11.73,12c.06,5.89.19,17.08.19,17.42,0,5.64,1.75,8,5.86,8,3.16,0,4.42-2,5.36-3.38s1.31-2,3-2c2.76,0,2.77,9.07,2.8,18.68,0,1.2,0,4.08,0,4.08,0,1.26,0,2.51,0,3.72,0,9.6,0,18.67-2.8,18.67-1.71,0-2.18-.72-3-2s-2.2-3.38-5.36-3.38c-4.11,0-5.86,2.41-5.86,8,0,.34-.13,11.52-.19,17.39a11.89,11.89,0,0,1-11.73,12H16.48Z"/><path class="cls-4" d="M3.56,33.1A9.36,9.36,0,0,1,11.12,29c.2,0,.4,0,.6,0,3,0,4.64,1.46,6.1,3,2.87,2.94,3.05,10.94,3.16,27.55,32.22,7.24,46.82-3.2,80.87-3.2,20.34,0,14.33,1.23,28.54,3.4,0-.43,0-.85,0-1.29,0,0,0-2.87,0-4.08,0-9.6,0-18.67-2.8-18.67-1.71,0-2.18.72-3,2S122.36,41,119.2,41c-4.11,0-5.85-2.41-5.85-8.05,0-.34-.14-11.52-.2-17.41a11.88,11.88,0,0,0-11.73-12H16.48c-6.78,0-13,5.72-13,12,0,0,0,10.38,0,16.67C3.54,32.56,3.55,32.85,3.56,33.1Z"/><path class="cls-5" d="M101.41,1.79a13.63,13.63,0,0,1,13.47,13.77s.18,17,.18,17.42c0,5.56,1.75,6.27,4.13,6.27,4.58,0,3.26-5.41,8.38-5.41,4.93,0,4.47,10,4.55,24.17v.36c-.08,14.13.38,24.17-4.55,24.17-5.12,0-3.8-5.41-8.38-5.41-2.38,0-4.13.71-4.13,6.27,0,.37-.18,17.41-.18,17.41a13.62,13.62,0,0,1-13.47,13.78H16.48c-7.44,0-14.69-6.16-14.69-13.78,0,0,0-10.38,0-16.67,0-3,.46-4,1.06-4S4.34,81.3,5,82.2a7.59,7.59,0,0,0,6.27,3.46h.49c2.22,0,3.47-1,4.88-2.44,2.48-2.54,2.56-6.32,2.67-25-.11-18.71-.19-22.49-2.67-25-1.41-1.45-2.66-2.45-4.88-2.45l-.49,0A7.58,7.58,0,0,0,5,34.17c-.61.91-1.43,2-2.08,2s-1.06-1-1.06-4c0-6.29,0-16.67,0-16.67C1.79,8,9,1.79,16.48,1.79h84.93m0-1.79H16.48C7.7,0,0,7.27,0,15.56c0,0,0,10.39,0,16.67C0,34,0,38,2.87,38c1.54,0,2.64-1.46,3.56-2.82a5.8,5.8,0,0,1,4.9-2.66h.38c1.49,0,2.32.59,3.6,1.91,2,2,2.06,5.87,2.16,23.79C17.36,76.1,17.27,80,15.31,82,14,83.29,13.2,83.88,11.7,83.88l-.37,0a5.79,5.79,0,0,1-4.9-2.66c-.92-1.37-2-2.82-3.56-2.82A2.55,2.55,0,0,0,.41,80.5,13,13,0,0,0,0,84.14c0,6.29,0,16.66,0,16.66,0,8.3,7.7,15.57,16.48,15.57h84.93a15.43,15.43,0,0,0,15.25-15.57c0-.67.19-17,.19-17.4,0-4.5,1-4.5,2.34-4.5,1.2,0,1.56.46,2.42,1.78s2.36,3.64,6,3.64c6.27,0,6.29-8.86,6.32-22.27,0-1.19,0-2.42,0-3.68V58c0-1.27,0-2.5,0-3.69,0-13.41-.05-22.26-6.32-22.26-3.61,0-5,2.18-6,3.62s-1.22,1.78-2.42,1.78c-1.36,0-2.34,0-2.34-4.48,0-.38-.18-16.74-.19-17.44A15.42,15.42,0,0,0,101.41,0Z"/><rect class="cls-5" x="47.79" y="17.47" width="15.03" height="11" rx="1.17"/><rect class="cls-5" x="47.79" y="17.47" width="15.03" height="11" rx="1.17"/><rect class="cls-5" x="73.03" y="17.47" width="15.03" height="11" rx="1.17"/><rect class="cls-5" x="73.03" y="17.47" width="15.03" height="11" rx="1.17"/><rect class="cls-5" x="43.08" y="22.97" width="49.69" height="54.99" rx="3.42"/><path class="cls-5" d="M66.58,20.5h2a.68.68,0,0,1,.68.68v6.25a.68.68,0,0,1-.68.68h-2a0,0,0,0,1,0,0V20.5A0,0,0,0,1,66.58,20.5Z" transform="translate(92.24 -43.62) rotate(90)"/><rect class="cls-5" x="43.08" y="22.97" width="49.69" height="54.99" rx="3.42"/><rect class="cls-6" x="43.08" y="28.47" width="49.77" height="41.01"/><path class="cls-5" d="M43.08,58.29h3a.81.81,0,0,1,.81.81v6.74a.81.81,0,0,1-.81.81h-3a0,0,0,0,1,0,0V58.29A0,0,0,0,1,43.08,58.29Z"/><path class="cls-5" d="M43.08,44.8h3a.81.81,0,0,1,.81.81v6.74a.81.81,0,0,1-.81.81h-3a0,0,0,0,1,0,0V44.8A0,0,0,0,1,43.08,44.8Z"/><path class="cls-5" d="M43.08,31.31h3a.81.81,0,0,1,.81.81v6.74a.81.81,0,0,1-.81.81h-3a0,0,0,0,1,0,0V31.31A0,0,0,0,1,43.08,31.31Z"/><path class="cls-5" d="M89.07,38.05h3a.81.81,0,0,1,.81.81V45.6a.81.81,0,0,1-.81.81h-3a0,0,0,0,1,0,0V38.05A0,0,0,0,1,89.07,38.05Z" transform="translate(181.93 84.46) rotate(180)"/><path class="cls-5" d="M89.07,51.55h3a.81.81,0,0,1,.81.81v6.74a.81.81,0,0,1-.81.81h-3a0,0,0,0,1,0,0V51.55A0,0,0,0,1,89.07,51.55Z" transform="translate(181.93 111.44) rotate(180)"/><rect class="cls-7" x="46.16" y="17.47" width="15.03" height="11" rx="1.17"/><rect class="cls-8" x="46.16" y="17.47" width="15.03" height="11" rx="1.17"/><rect class="cls-7" x="71.4" y="17.47" width="15.03" height="11" rx="1.17"/><rect class="cls-8" x="71.4" y="17.47" width="15.03" height="11" rx="1.17"/><rect class="cls-7" x="41.45" y="22.97" width="49.69" height="54.99" rx="3.42"/><rect class="cls-9" x="41.23" y="28.16" width="49.77" height="41.01"/><path class="cls-10" d="M41.23,58.29h3a.81.81,0,0,1,.81.81v6.74a.81.81,0,0,1-.81.81h-3a0,0,0,0,1,0,0V58.29A0,0,0,0,1,41.23,58.29Z"/><path class="cls-10" d="M41.23,44.8h3a.81.81,0,0,1,.81.81v6.74a.81.81,0,0,1-.81.81h-3a0,0,0,0,1,0,0V44.8A0,0,0,0,1,41.23,44.8Z"/><path class="cls-10" d="M41.23,31.31h3a.81.81,0,0,1,.81.81v6.74a.81.81,0,0,1-.81.81h-3a0,0,0,0,1,0,0V31.31A0,0,0,0,1,41.23,31.31Z"/><path class="cls-10" d="M87.22,37.75h3a.81.81,0,0,1,.81.81v6.74a.81.81,0,0,1-.81.81h-3a0,0,0,0,1,0,0V37.75A0,0,0,0,1,87.22,37.75Z" transform="translate(178.22 83.84) rotate(180)"/><path class="cls-10" d="M87.22,51.24h3A.81.81,0,0,1,91,52v6.74a.81.81,0,0,1-.81.81h-3a0,0,0,0,1,0,0V51.24A0,0,0,0,1,87.22,51.24Z" transform="translate(178.22 110.82) rotate(180)"/><rect class="cls-11" x="51.95" y="33.87" width="28.97" height="28.97" rx="8.11"/><rect class="cls-12" x="51.57" y="34.49" width="28.71" height="28.71" rx="8.04"/><rect class="cls-13" x="64.13" y="46.95" width="3.42" height="3.42" rx="0.96"/><path class="cls-13" d="M77.56,48.94a10.42,10.42,0,0,1-3.06,7.17.89.89,0,0,1-1,.26.87.87,0,0,1-.6-.77.92.92,0,0,1,.3-.77,8,8,0,0,0,1.93-3,8.66,8.66,0,0,0-1.89-9.31,1,1,0,0,1-.34-.8A.86.86,0,0,1,73.5,41a.89.89,0,0,1,1,.22,10.36,10.36,0,0,1,2.49,4A11.14,11.14,0,0,1,77.56,48.94Z"/><path class="cls-13" d="M74.31,48.79A8,8,0,0,1,72,54.36a.92.92,0,0,1-1.35.1.93.93,0,0,1,0-1.35,6.12,6.12,0,0,0,1.78-3.85,6.23,6.23,0,0,0-1.72-5,1.09,1.09,0,0,1-.36-.67.89.89,0,0,1,.51-.9.91.91,0,0,1,1.05.19A8.14,8.14,0,0,1,73.85,46,8.51,8.51,0,0,1,74.31,48.79Z"/><path class="cls-13" d="M71.22,48.5a5.8,5.8,0,0,1-1.63,4.18.91.91,0,1,1-1.32-1.25,3.88,3.88,0,0,0,1.13-3,3.82,3.82,0,0,0-1.09-2.52,1,1,0,0,1-.31-.65.9.9,0,0,1,1.54-.69,5.62,5.62,0,0,1,1.58,3C71.18,47.94,71.2,48.3,71.22,48.5Z"/><path class="cls-13" d="M54.13,48.38a10.35,10.35,0,0,1,3.06-7.16.89.89,0,0,1,1-.26.87.87,0,0,1,.6.77.92.92,0,0,1-.3.77,8,8,0,0,0-1.93,3,8.66,8.66,0,0,0,1.89,9.31,1,1,0,0,1,.34.8.86.86,0,0,1-.59.77.89.89,0,0,1-1-.22,10.44,10.44,0,0,1-2.49-4A11.16,11.16,0,0,1,54.13,48.38Z"/><path class="cls-13" d="M57.38,48.54A8.08,8.08,0,0,1,59.7,43,.91.91,0,1,1,61,44.21,6.36,6.36,0,0,0,61,53.05a1.09,1.09,0,0,1,.36.66.91.91,0,0,1-1.56.72,8.09,8.09,0,0,1-1.92-3.07A8.51,8.51,0,0,1,57.38,48.54Z"/><path class="cls-13" d="M60.46,48.83a5.85,5.85,0,0,1,1.64-4.18.91.91,0,1,1,1.32,1.24,3.91,3.91,0,0,0-1.13,3,3.84,3.84,0,0,0,1.09,2.52,1,1,0,0,1,.31.65.91.91,0,0,1-1.54.69,5.59,5.59,0,0,1-1.58-3C60.51,49.38,60.49,49,60.46,48.83Z"/><path class="cls-10" d="M65,20.5h2a.68.68,0,0,1,.68.68v6.25a.68.68,0,0,1-.68.68H65a0,0,0,0,1,0,0V20.5A0,0,0,0,1,65,20.5Z" transform="translate(90.61 -41.98) rotate(90)"/><rect class="cls-8" x="41.45" y="22.97" width="49.69" height="54.99" rx="3.42"/><path class="cls-5" d="M104.11,28.82c.34.14,1.56-.72,1.78-2.08s-1-2.58-1.89-3.3c-.63-.54-.56-1-.56-1a.5.5,0,0,0-.42-.58.5.5,0,0,0-.58.42l-1,6.26a2.45,2.45,0,0,0-1.27-.26c-1.11.06-2,.77-1.93,1.6a1.82,1.82,0,0,0,2.09,1.4,2,2,0,0,0,1.89-1.24s0-.08,0-.15L103,25a2.7,2.7,0,0,1,1.62,1.82C104.72,27.94,103.49,28.56,104.11,28.82Z"/><path class="cls-5" d="M35.64,16.3a1.33,1.33,0,0,0-1.12,0L29.21,18.6a1.33,1.33,0,0,0-.76,1.49l1.14,5.13a2.57,2.57,0,0,0-1.6-.13,2.25,2.25,0,0,0-1.9,2.54,2.26,2.26,0,0,0,2.8,1.49,2.26,2.26,0,0,0,1.9-2.54l-1.09-4.9L35.83,19l1,4.59a2.66,2.66,0,0,0-1.6-.13A2.26,2.26,0,0,0,33.36,26,2.44,2.44,0,0,0,38.06,25l-1.73-7.77A1.35,1.35,0,0,0,35.64,16.3Z"/><path class="cls-14" d="M103.1,28.82c.35.14,1.57-.72,1.79-2.08s-1-2.58-1.9-3.3c-.63-.54-.56-1-.56-1a.5.5,0,0,0-.42-.58.51.51,0,0,0-.58.42l-1,6.26a2.5,2.5,0,0,0-1.27-.26c-1.12.06-2,.77-1.94,1.6a1.83,1.83,0,0,0,2.09,1.4,2,2,0,0,0,1.89-1.24.85.85,0,0,0,0-.15L102,25a2.73,2.73,0,0,1,1.62,1.82C103.71,27.94,102.48,28.56,103.1,28.82Z"/><path class="cls-14" d="M34.74,16.3a1.33,1.33,0,0,0-1.12,0L28.31,18.6a1.32,1.32,0,0,0-.75,1.49l1.14,5.13a2.59,2.59,0,0,0-1.6-.13,2.24,2.24,0,0,0-1.9,2.54A2.26,2.26,0,0,0,28,29.12a2.26,2.26,0,0,0,1.9-2.54l-1.09-4.9L34.94,19l1,4.59a2.65,2.65,0,0,0-1.6-.13A2.27,2.27,0,0,0,32.46,26,2.44,2.44,0,0,0,37.16,25l-1.73-7.77A1.32,1.32,0,0,0,34.74,16.3Z"/><path class="cls-5" d="M39.1,93.88a3.06,3.06,0,0,1,.14.56,4.49,4.49,0,0,1,0,.64,4.44,4.44,0,0,1,0,.63,3.49,3.49,0,0,1-.12.55A3.23,3.23,0,0,1,38,97.93a5.63,5.63,0,0,1-2,1,6.62,6.62,0,0,1-2.27.21,5.14,5.14,0,0,1-2.08-.58,3.82,3.82,0,0,1-1-.79,5,5,0,0,1-.7-1,1.25,1.25,0,0,1-.13-.45,1.38,1.38,0,0,1,0-.5,1.14,1.14,0,0,1,.24-.43.78.78,0,0,1,.44-.26,2.46,2.46,0,0,1,.4,0,1.31,1.31,0,0,1,.44.07,1.14,1.14,0,0,1,.4.19,1,1,0,0,1,.28.37,2.4,2.4,0,0,0,.56.69,4.18,4.18,0,0,0,.78.51,3.23,3.23,0,0,0,1.19.16,3.18,3.18,0,0,0,1.09-.27,2.09,2.09,0,0,0,.79-.64,1.42,1.42,0,0,0,.31-.92,1.75,1.75,0,0,0-.13-.7,1.26,1.26,0,0,0-.35-.47,2.24,2.24,0,0,0-.53-.31,5.63,5.63,0,0,0-.69-.21,8.29,8.29,0,0,0-.87-.13l-.88-.09a8.49,8.49,0,0,1-.88-.14,4.55,4.55,0,0,1-.84-.27,2.6,2.6,0,0,1-1.25-1,3.72,3.72,0,0,1-.51-1.5,3.81,3.81,0,0,1,.19-1.6,3.12,3.12,0,0,1,2.23-2.11,7.23,7.23,0,0,1,1.76-.26,7.92,7.92,0,0,1,1.08,0,7.19,7.19,0,0,1,1.05.17,6.63,6.63,0,0,1,.95.33,3.34,3.34,0,0,1,.76.46,2.94,2.94,0,0,1,.46.47,2.49,2.49,0,0,1,.36.63,1.28,1.28,0,0,1,.08.63.73.73,0,0,1-.39.52.83.83,0,0,1-.54.15,1.09,1.09,0,0,1-.49-.16,2.77,2.77,0,0,1-.45-.31L36.55,89a2.71,2.71,0,0,0-1.2-.48A4.72,4.72,0,0,0,34,88.43a4.1,4.1,0,0,0-.73.18,1.93,1.93,0,0,0-.58.34,1.47,1.47,0,0,0-.38.53,1.35,1.35,0,0,0-.09.7.83.83,0,0,0,.17.49,1.28,1.28,0,0,0,.37.32,1.92,1.92,0,0,0,.49.19,3.45,3.45,0,0,0,.54.11c.53.07,1.07.13,1.61.16a5.42,5.42,0,0,1,1.57.36,4,4,0,0,1,1.34.82A2.82,2.82,0,0,1,39.1,93.88Z"/><path class="cls-5" d="M48.8,87.56a3.71,3.71,0,0,1,1,1.49,3.84,3.84,0,0,1,.25,1.72,3.25,3.25,0,0,1-.52,1.51,2.74,2.74,0,0,1-1.35,1,7.18,7.18,0,0,1-1.42.43,15.21,15.21,0,0,1-1.53.19c-.25,0-.46,0-.64,0L44,94h-.24l-.25,0v3.7c0,.22-.08.46-.13.7A.82.82,0,0,1,43,99a1.13,1.13,0,0,1-.48.12,2.21,2.21,0,0,1-.52,0,1.15,1.15,0,0,1-.42-.14.74.74,0,0,1-.28-.35c0-.1-.09-.23-.13-.36a1.88,1.88,0,0,1-.06-.51V87.86a.86.86,0,0,1,0-.23l0-.22a.87.87,0,0,0,.05-.19,1.17,1.17,0,0,1,.06-.2.8.8,0,0,1,.08-.16.43.43,0,0,1,.11-.12.9.9,0,0,1,.28-.17,1.91,1.91,0,0,1,.56-.07h0l1.23-.06a6.61,6.61,0,0,1,1.13,0,3.91,3.91,0,0,0,.46,0l.41,0,.43,0,.43.06.33.05a1.7,1.7,0,0,1,.31.06l.32.07a.91.91,0,0,1,.31.12,2.1,2.1,0,0,1,.62.27ZM47.73,90.5a1.43,1.43,0,0,0-.17-.75,1.58,1.58,0,0,0-.53-.53,2.85,2.85,0,0,0-.77-.34,6.44,6.44,0,0,0-.85-.18h-.3l-.4,0H44l-.21,0h-.29c0,.37,0,.72,0,1.06v1.1c0,.21,0,.43,0,.64v.63l1.11,0c.29,0,.6,0,1-.05a4.5,4.5,0,0,0,1-.22,2.18,2.18,0,0,0,.8-.46A1.24,1.24,0,0,0,47.73,90.5Z"/><path class="cls-5" d="M54,88.58l0,2.8h.71l1.31,0,1.26,0h.92a2.9,2.9,0,0,1,.41.06l.39.1a1.23,1.23,0,0,1,.5.32.82.82,0,0,1,.18.52v.2a.46.46,0,0,1,0,.21.6.6,0,0,1-.23.36.52.52,0,0,1-.34.17,1.87,1.87,0,0,1-.46.09,2.2,2.2,0,0,1-.5.06H57.2l-3.31,0,0,3.5,3.55,0h1.11l.23,0,.26,0a.78.78,0,0,1,.22,0,1,1,0,0,1,.36.2.79.79,0,0,1,.23.37l0,.19a1.41,1.41,0,0,1,0,.2.82.82,0,0,1-.18.52.89.89,0,0,1-.5.32,2,2,0,0,1-.82.16,2.75,2.75,0,0,1-.41,0l-.41,0h-.11c-.93,0-1.89,0-2.89,0H52.75a1,1,0,0,1-.68-.14.83.83,0,0,1-.3-.34.15.15,0,0,1-.06-.11l0-.05,0,0a1.33,1.33,0,0,1,0-.19,1.37,1.37,0,0,1,0-.19l0-.18a1.1,1.1,0,0,0,0-.18v-.28a.76.76,0,0,1,0-.15V95.74l0-2.57V90.79c0-.43,0-.81,0-1.14s0-.7,0-1.09v-.09c0-.13,0-.25,0-.37s0-.23,0-.35a1.61,1.61,0,0,1,.2-.69,1.18,1.18,0,0,1,.15-.25.67.67,0,0,1,.22-.18,1.06,1.06,0,0,1,.56-.16.62.62,0,0,1,.21,0v0h1.89l1.36,0,1.32,0h.08l.41,0a2.75,2.75,0,0,1,.41,0,1.72,1.72,0,0,1,.39,0,2.91,2.91,0,0,1,.39.12,1.1,1.1,0,0,1,.5.3.89.89,0,0,1,.16.5v.21a.57.57,0,0,1,0,.18.66.66,0,0,1-.22.38l-.15.09-.19.09a.78.78,0,0,1-.22,0l-.22,0-.26,0H57.54l-3.58,0Z"/><path class="cls-5" d="M72.34,97.86c0,.08,0,.14,0,.21a1.48,1.48,0,0,1,0,.22.64.64,0,0,1-.13.4,1,1,0,0,1-.14.17,1.07,1.07,0,0,1-.21.13,1.45,1.45,0,0,1-1,.18,1.37,1.37,0,0,1-.45-.23.23.23,0,0,0,0,0l0,0,0,0a.09.09,0,0,0-.06,0,1.77,1.77,0,0,1-.14-.17,1.63,1.63,0,0,0-.11-.17.89.89,0,0,0-.08-.17l-.09-.17-.08-.14a.5.5,0,0,1,0-.13,1,1,0,0,1-.09-.29l-.37-.87H64.39l-.37.87a.88.88,0,0,0,0,.15.43.43,0,0,1,0,.14,1.39,1.39,0,0,0-.06.13.91.91,0,0,1-.07.14l-.09.17-.1.17-.09.17a1.77,1.77,0,0,1-.14.17.09.09,0,0,0-.06,0l0,0,0,0a.23.23,0,0,0,0,0,1.37,1.37,0,0,1-.45.23,1.45,1.45,0,0,1-1-.18,1.07,1.07,0,0,1-.21-.13,1,1,0,0,1-.14-.17.64.64,0,0,1-.13-.4,1.48,1.48,0,0,1,0-.22c0-.07,0-.13,0-.21a2.23,2.23,0,0,1,.09-.32l0-.16,3.72-9.14.1-.29.09-.2a.58.58,0,0,0,.09-.21,3.13,3.13,0,0,1,.2-.41,1.32,1.32,0,0,1,.12-.2l.15-.18a.8.8,0,0,1,.3-.23,1.91,1.91,0,0,1,1.16,0,.8.8,0,0,1,.3.23,4.17,4.17,0,0,1,.27.38,3.13,3.13,0,0,1,.2.41.58.58,0,0,0,.09.21l.09.2.1.29,3.72,9.14,0,.16A2.23,2.23,0,0,1,72.34,97.86Zm-4.23-4.37c-.16-.35-.31-.71-.47-1.07s-.33-.75-.51-1.13L67,91c0-.11-.09-.22-.14-.33,0,.11-.08.22-.12.33l-.15.33c-.18.38-.35.76-.51,1.13s-.31.72-.47,1.07l-.32.78h3.16Z"/><path class="cls-5" d="M82.45,97.79a.57.57,0,0,1,0,.54.8.8,0,0,1-.3.43l-.2.15a1.24,1.24,0,0,1-.2.1.76.76,0,0,1-.46.07.45.45,0,0,1-.2,0L80.93,99l-.18-.11a1.33,1.33,0,0,1-.19-.14l-.2-.16a1.21,1.21,0,0,1-.16-.16L80,98.2,79.9,98l-.22-.23-3.43-3.59.06,3.59V98a.77.77,0,0,1,0,.15,1,1,0,0,1,0,.17,2,2,0,0,1-.12.41.45.45,0,0,1-.1.18L75.9,99a.79.79,0,0,1-.47.19,1.08,1.08,0,0,1-.49.06,1.28,1.28,0,0,1-.45-.13,1,1,0,0,1-.33-.36.58.58,0,0,0,0-.09.9.9,0,0,0,0-.12.63.63,0,0,1-.11-.36c0-.07,0-.14,0-.19a.69.69,0,0,0,0-.2.71.71,0,0,1,0-.14v-.15a.86.86,0,0,0,0-.15V95.83l0-2.63c0-.76,0-1.58,0-2.46,0-.43,0-.81,0-1.15s0-.7,0-1.12V88.4a2.56,2.56,0,0,0,0-.39c0-.12,0-.24,0-.36a1.71,1.71,0,0,1,.16-.72.9.9,0,0,1,.65-.54l.3-.07.24,0,.22,0a.88.88,0,0,1,.43.19.64.64,0,0,1,.1.13,1.59,1.59,0,0,1,.08.18,1,1,0,0,1,.12.41l0,.21a1.85,1.85,0,0,1,0,.24v.73l0,2.18.56-.52c.18-.18.37-.37.54-.57l1-1,1-.93,0-.06.29-.27.3-.26a1.46,1.46,0,0,1,.66-.43.89.89,0,0,1,.59-.13l.29.07a1.35,1.35,0,0,1,.26.15,1.19,1.19,0,0,0,.18.15A.4.4,0,0,1,82,87a.57.57,0,0,1,.18.38.78.78,0,0,1-.07.35l-.11.18a.94.94,0,0,1-.12.18l-.16.2-.16.18-.15.16a1.21,1.21,0,0,0-.16.16L81,89,77.7,92.45l.56.56.57.58.5.51.39.41q.48.49.93,1c.3.32.59.66.87,1l.06.05.26.3.24.29A1.67,1.67,0,0,1,82.45,97.79Z"/><path class="cls-5" d="M86.42,88.58l0,2.8h.72l1.3,0,1.27,0h.91a2.7,2.7,0,0,1,.41.06l.39.1a1.17,1.17,0,0,1,.5.32.82.82,0,0,1,.18.52v.2a.66.66,0,0,1,0,.21.62.62,0,0,1-.24.36.52.52,0,0,1-.34.17,1.87,1.87,0,0,1-.46.09,2.14,2.14,0,0,1-.5.06h-.84l-3.3,0,0,3.5,3.55,0H91l.23,0,.26,0a.85.85,0,0,1,.23,0,.92.92,0,0,1,.35.2.9.9,0,0,1,.24.37,1.11,1.11,0,0,1,0,.19.46.46,0,0,1,0,.2.87.87,0,0,1-.17.52.92.92,0,0,1-.5.32,2,2,0,0,1-.83.16,2.68,2.68,0,0,1-.41,0l-.41,0h-.11c-.92,0-1.89,0-2.89,0H85.2a1,1,0,0,1-.68-.14.83.83,0,0,1-.3-.34.14.14,0,0,1,0-.11l0-.05,0,0a.7.7,0,0,1-.06-.19,1.37,1.37,0,0,1,0-.19,1.1,1.1,0,0,1,0-.18l0-.18v-.28a.76.76,0,0,1,0-.15.61.61,0,0,0,0-.14V95.74l0-2.57V90.79c0-.43,0-.81,0-1.14s0-.7,0-1.09v-.09l0-.37c0-.11,0-.23,0-.35a1.59,1.59,0,0,1,.19-.69,1.83,1.83,0,0,1,.15-.25.71.71,0,0,1,.23-.18,1,1,0,0,1,.55-.16.56.56,0,0,1,.21,0v0h1.9l1.36,0,1.32,0h.07l.41,0a2.75,2.75,0,0,1,.41,0,1.72,1.72,0,0,1,.39,0,2.64,2.64,0,0,1,.4.12,1.1,1.1,0,0,1,.5.3,1,1,0,0,1,.16.5v.21a.39.39,0,0,1,0,.18.64.64,0,0,1-.21.38.6.6,0,0,0-.15.09l-.19.09a.85.85,0,0,1-.22,0l-.23,0-.26,0H90l-3.57,0Z"/><path class="cls-5" d="M103,98.29a.66.66,0,0,1-.13.52.67.67,0,0,1-.15.14,1.66,1.66,0,0,1-.4.2,2.61,2.61,0,0,1-.27.06.54.54,0,0,1-.28,0,.78.78,0,0,1-.5-.21,2.57,2.57,0,0,1-.5-.55l-.2-.33c-.07-.12-.13-.24-.19-.37l-2-3.77H98.1l-.29,0a4.13,4.13,0,0,1-.7,0h-1v3.24a2.17,2.17,0,0,1,0,.26c0,.09,0,.18,0,.27a2.27,2.27,0,0,1,0,.24,2.11,2.11,0,0,1,0,.26,1.34,1.34,0,0,1-.16.4,1.14,1.14,0,0,1-.34.35,1.21,1.21,0,0,1-.91.13,1.77,1.77,0,0,1-.45-.18.8.8,0,0,1-.13-.13L94,98.69a1.46,1.46,0,0,1-.07-.19l-.06-.19a1,1,0,0,1,0-.34V87.83a1.77,1.77,0,0,1,0-.23,1.23,1.23,0,0,1,0-.2,1.1,1.1,0,0,1,.13-.4.46.46,0,0,1,.18-.3,1,1,0,0,1,.33-.19,1.89,1.89,0,0,1,.65-.06l1.59,0c.52,0,1,0,1.57,0l1.1.12a4.63,4.63,0,0,1,1.08.28c.21.08.41.16.59.25a3.2,3.2,0,0,1,.53.37,3.6,3.6,0,0,1,1,1.38,4.41,4.41,0,0,1,.32,1.62,3.53,3.53,0,0,1-.45,1.77,2.76,2.76,0,0,1-1.46,1.2.15.15,0,0,1-.1,0l-.1,0,1.65,3.3.16.29a.89.89,0,0,0,.09.16l.09.18a.93.93,0,0,1,.09.2l.1.19C102.94,98.05,103,98.19,103,98.29Zm-4.46-6.36a1.57,1.57,0,0,0,.61-.11,2.05,2.05,0,0,0,.54-.31,2.17,2.17,0,0,0,.4-.46,1.12,1.12,0,0,0,.18-.56,1.46,1.46,0,0,0-.46-1.33,2.39,2.39,0,0,0-1.42-.48c-.34,0-.72,0-1.13,0H96.08c0,.49,0,1,0,1.49s0,1.1,0,1.79Z"/><path class="cls-14" d="M37.32,93.88a3.06,3.06,0,0,1,.13.56,4.06,4.06,0,0,1,0,1.27,3.49,3.49,0,0,1-.12.55,3.23,3.23,0,0,1-1.14,1.67,5.58,5.58,0,0,1-1.95,1,6.65,6.65,0,0,1-2.27.21,5.09,5.09,0,0,1-2.08-.58,4.05,4.05,0,0,1-1-.79,5,5,0,0,1-.69-1,1.25,1.25,0,0,1-.14-.45,1.19,1.19,0,0,1,.05-.5,1.12,1.12,0,0,1,.23-.43.84.84,0,0,1,.45-.26,2.35,2.35,0,0,1,.4,0,1.35,1.35,0,0,1,.44.07,1.18,1.18,0,0,1,.39.19.89.89,0,0,1,.28.37,2.44,2.44,0,0,0,.57.69,3.81,3.81,0,0,0,.77.51,3.26,3.26,0,0,0,1.19.16,3.18,3.18,0,0,0,1.09-.27,2.2,2.2,0,0,0,.8-.64,1.47,1.47,0,0,0,.3-.92,1.76,1.76,0,0,0-.12-.7,1.38,1.38,0,0,0-.35-.47A2.32,2.32,0,0,0,34,93.7a5.63,5.63,0,0,0-.69-.21,8.1,8.1,0,0,0-.86-.13l-.89-.09a8.3,8.3,0,0,1-.87-.14,4.12,4.12,0,0,1-.84-.27,2.52,2.52,0,0,1-1.25-1,3.44,3.44,0,0,1-.51-1.5,3.66,3.66,0,0,1,.19-1.6,3.31,3.31,0,0,1,.85-1.37,3.43,3.43,0,0,1,1.37-.74,7.31,7.31,0,0,1,1.76-.26,7.8,7.8,0,0,1,1.08,0,7.19,7.19,0,0,1,1,.17,6.23,6.23,0,0,1,1,.33,3.14,3.14,0,0,1,.76.46,2.94,2.94,0,0,1,.46.47,2.22,2.22,0,0,1,.36.63,1.28,1.28,0,0,1,.08.63.74.74,0,0,1-.38.52.84.84,0,0,1-.55.15,1.13,1.13,0,0,1-.49-.16,3.19,3.19,0,0,1-.44-.31l-.4-.32a2.72,2.72,0,0,0-1.19-.48,4.75,4.75,0,0,0-1.34-.06,4,4,0,0,0-.74.18,2.06,2.06,0,0,0-.58.34,1.46,1.46,0,0,0-.47,1.23.9.9,0,0,0,.17.49A1.42,1.42,0,0,0,31,91a2,2,0,0,0,.5.19,3.12,3.12,0,0,0,.53.11c.54.07,1.07.13,1.61.16a5.35,5.35,0,0,1,1.57.36,3.93,3.93,0,0,1,1.34.82A2.94,2.94,0,0,1,37.32,93.88Z"/><path class="cls-14" d="M47,87.56a3.73,3.73,0,0,1,1,1.49,4.14,4.14,0,0,1,.25,1.72,3.25,3.25,0,0,1-.52,1.51,2.77,2.77,0,0,1-1.36,1,7.3,7.3,0,0,1-1.41.43c-.47.08-1,.15-1.54.19-.25,0-.46,0-.63,0l-.6,0H42l-.24,0v3.7c0,.22-.08.46-.14.7a.82.82,0,0,1-.42.55,1.13,1.13,0,0,1-.48.12,2.23,2.23,0,0,1-.52,0,1.3,1.3,0,0,1-.42-.14.67.67,0,0,1-.27-.35,2.46,2.46,0,0,1-.14-.36,1.88,1.88,0,0,1-.06-.51V87.86a1.64,1.64,0,0,1,0-.23l0-.22a.53.53,0,0,0,.06-.19,1.17,1.17,0,0,1,0-.2c0-.06.05-.11.08-.16a.34.34,0,0,1,.12-.12.79.79,0,0,1,.28-.17,1.86,1.86,0,0,1,.56-.07h0l1.24-.06a6.49,6.49,0,0,1,1.12,0,4.07,4.07,0,0,0,.47,0l.41,0,.43,0,.42.06.33.05a1.8,1.8,0,0,1,.32.06l.31.07a.84.84,0,0,1,.31.12,2.3,2.3,0,0,1,.63.27C46.66,87.31,46.84,87.43,47,87.56ZM45.94,90.5a1.26,1.26,0,0,0-.17-.75,1.55,1.55,0,0,0-.52-.53,3.16,3.16,0,0,0-.77-.34,6.58,6.58,0,0,0-.86-.18h-.29l-.4,0h-.7l-.22,0h-.28c0,.37,0,.72,0,1.06v1.1c0,.21,0,.43,0,.64v.63l1.11,0c.28,0,.6,0,.94-.05a4.26,4.26,0,0,0,1-.22,2.18,2.18,0,0,0,.8-.46A1.19,1.19,0,0,0,45.94,90.5Z"/><path class="cls-14" d="M52.18,88.58l0,2.8h.72l1.3,0,1.27,0h.91a2.7,2.7,0,0,1,.41.06l.39.1a1.23,1.23,0,0,1,.5.32.82.82,0,0,1,.18.52v.2a.66.66,0,0,1,0,.21.68.68,0,0,1-.24.36.52.52,0,0,1-.34.17,1.87,1.87,0,0,1-.46.09,2.14,2.14,0,0,1-.5.06h-.84l-3.3,0,0,3.5,3.55,0h1.11l.23,0,.26,0a.85.85,0,0,1,.23,0,.92.92,0,0,1,.35.2.9.9,0,0,1,.24.37,1.11,1.11,0,0,1,0,.19.46.46,0,0,1,0,.2.87.87,0,0,1-.17.52.92.92,0,0,1-.5.32,2,2,0,0,1-.83.16,2.68,2.68,0,0,1-.41,0l-.41,0h-.11c-.92,0-1.89,0-2.89,0H51a1,1,0,0,1-.68-.14.83.83,0,0,1-.3-.34.14.14,0,0,1,0-.11l0-.05,0,0a.7.7,0,0,1-.06-.19,1.37,1.37,0,0,1,0-.19,1.1,1.1,0,0,1,0-.18l0-.18v-.28a.76.76,0,0,1,0-.15.61.61,0,0,0,0-.14V95.74l0-2.57V90.79c0-.43,0-.81,0-1.14s0-.7,0-1.09v-.09l0-.37c0-.11,0-.23,0-.35a1.59,1.59,0,0,1,.19-.69,1.83,1.83,0,0,1,.15-.25.71.71,0,0,1,.23-.18,1,1,0,0,1,.55-.16.56.56,0,0,1,.21,0v0h1.9l1.36,0,1.32,0h.07l.41,0a2.75,2.75,0,0,1,.41,0,1.72,1.72,0,0,1,.39,0,3,3,0,0,1,.4.12,1.1,1.1,0,0,1,.5.3,1,1,0,0,1,.16.5v.21a.39.39,0,0,1,0,.18.64.64,0,0,1-.21.38.6.6,0,0,0-.15.09l-.19.09a.85.85,0,0,1-.22,0l-.23,0-.26,0H55.75l-3.57,0Z"/><path class="cls-14" d="M70.56,97.86a1.65,1.65,0,0,1,0,.21,1.48,1.48,0,0,1,0,.22.7.7,0,0,1-.12.4l-.15.17a1.07,1.07,0,0,1-.21.13,1.12,1.12,0,0,1-1.39,0l-.06,0,0,0,0,0a.1.1,0,0,0,0,0,1,1,0,0,1-.14-.17,1.63,1.63,0,0,1-.11-.17c0-.06-.05-.12-.08-.17l-.1-.17s0-.09-.07-.14a.52.52,0,0,1-.06-.13,1.28,1.28,0,0,1-.08-.29l-.38-.87H62.61l-.38.87a.42.42,0,0,0,0,.15.48.48,0,0,1,0,.14l-.06.13-.06.14-.1.17-.1.17a.7.7,0,0,1-.09.17,1,1,0,0,1-.14.17.1.1,0,0,0-.05,0l0,0,0,0a.13.13,0,0,0-.06,0A1.12,1.12,0,0,1,60,99a.91.91,0,0,1-.22-.13,1.77,1.77,0,0,1-.14-.17.7.7,0,0,1-.12-.4,1.48,1.48,0,0,1,0-.22,1.65,1.65,0,0,1,0-.21c0-.1.06-.21.09-.32l.06-.16,3.71-9.14.11-.29a.72.72,0,0,1,.09-.2,1.46,1.46,0,0,0,.09-.21,2.22,2.22,0,0,1,.19-.41,1.37,1.37,0,0,1,.13-.2l.14-.18a.8.8,0,0,1,.3-.23,1.72,1.72,0,0,1,.58-.09,1.68,1.68,0,0,1,.58.09.76.76,0,0,1,.31.23l.27.38a3.14,3.14,0,0,1,.19.41,1.46,1.46,0,0,0,.09.21.72.72,0,0,1,.09.2l.11.29,3.71,9.14.06.16Zm-4.24-4.37-.47-1.07c-.16-.37-.33-.75-.51-1.13L65.2,91l-.15-.33a2.19,2.19,0,0,1-.12.33l-.14.33c-.18.38-.35.76-.51,1.13l-.48,1.07-.32.78h3.16Z"/><path class="cls-14" d="M80.67,97.79a.57.57,0,0,1,0,.54.8.8,0,0,1-.3.43l-.2.15L80,99a.8.8,0,0,1-.47.07.41.41,0,0,1-.19,0L79.15,99,79,98.84a1.33,1.33,0,0,1-.19-.14l-.19-.16a.81.81,0,0,1-.16-.16,1.29,1.29,0,0,1-.16-.18L78.11,98l-.21-.23-3.43-3.59,0,3.59V98a.39.39,0,0,1,0,.15l0,.17a2.85,2.85,0,0,1-.13.41.44.44,0,0,1-.09.18l-.14.15a.76.76,0,0,1-.46.19,1.1,1.1,0,0,1-.49.06,1.33,1.33,0,0,1-.46-.13.88.88,0,0,1-.32-.36l0-.09s0,0,0-.12a.72.72,0,0,1-.11-.36,1.54,1.54,0,0,1,0-.19l0-.2a.78.78,0,0,1,0-.14v-.15a1,1,0,0,0,0-.15v-.15l0-1.41,0-2.63c0-.76,0-1.58,0-2.46,0-.43,0-.81,0-1.15s0-.7,0-1.12V88.4a2.56,2.56,0,0,0,0-.39c0-.12,0-.24,0-.36a1.87,1.87,0,0,1,.16-.72.93.93,0,0,1,.38-.43.82.82,0,0,1,.28-.11l.29-.07.24,0,.22,0a.88.88,0,0,1,.43.19.64.64,0,0,1,.1.13.75.75,0,0,1,.08.18,1.1,1.1,0,0,1,.13.41,1.49,1.49,0,0,1,0,.21,1.85,1.85,0,0,1,0,.24v.73l0,2.18c.19-.17.38-.34.56-.52s.37-.37.55-.57l1-1,1-.93,0-.06.3-.27.29-.26a1.46,1.46,0,0,1,.66-.43.91.91,0,0,1,.59-.13l.3.07a1.74,1.74,0,0,1,.26.15l.17.15a.54.54,0,0,1,.15.15.68.68,0,0,1,.18.38.78.78,0,0,1-.08.35l-.1.18-.13.18-.16.2-.16.18-.15.16-.15.16-.23.23-3.34,3.41.56.56.56.58.5.51.39.41c.33.33.63.66.93,1s.59.66.88,1l.05.05a3.65,3.65,0,0,1,.27.3l.23.29A1.83,1.83,0,0,1,80.67,97.79Z"/><path class="cls-14" d="M84.63,88.58l0,2.8h.71l1.3,0,1.27,0h.91a2.52,2.52,0,0,1,.41.06l.4.1a1.23,1.23,0,0,1,.5.32.82.82,0,0,1,.18.52v.2a.65.65,0,0,1,0,.21.6.6,0,0,1-.23.36.52.52,0,0,1-.34.17,2,2,0,0,1-.47.09,2.07,2.07,0,0,1-.5.06h-.84l-3.3,0,0,3.5,3.56,0h1.11l.23,0,.26,0a.78.78,0,0,1,.22,0,1,1,0,0,1,.36.2.87.87,0,0,1,.23.37l0,.19a1.41,1.41,0,0,1,0,.2.82.82,0,0,1-.18.52.89.89,0,0,1-.5.32,2,2,0,0,1-.82.16,2.75,2.75,0,0,1-.41,0l-.41,0h-.11c-.93,0-1.89,0-2.9,0H83.42a1,1,0,0,1-.68-.14.93.93,0,0,1-.31-.34.18.18,0,0,1-.05-.11.1.1,0,0,0,0-.05l0,0a1.33,1.33,0,0,1,0-.19.65.65,0,0,1,0-.19l0-.18a.57.57,0,0,0,0-.18v-.28s0-.1,0-.15a.61.61,0,0,0,0-.14V95.74l0-2.57V90.79c0-.43,0-.81,0-1.14s0-.7,0-1.09v-.09c0-.13,0-.25,0-.37s0-.23,0-.35a1.61,1.61,0,0,1,.2-.69.87.87,0,0,1,.15-.25.67.67,0,0,1,.22-.18,1,1,0,0,1,.55-.16.65.65,0,0,1,.22,0v0h1.89l1.36,0,1.32,0h.07l.41,0a2.68,2.68,0,0,1,.41,0,1.75,1.75,0,0,1,.4,0,2.91,2.91,0,0,1,.39.12,1.1,1.1,0,0,1,.5.3.89.89,0,0,1,.16.5v.21a.57.57,0,0,1,0,.18.72.72,0,0,1-.22.38.6.6,0,0,0-.15.09L90,88.4a.78.78,0,0,1-.22,0l-.22,0-.26,0H88.2l-3.57,0Z"/><path class="cls-14" d="M101.21,98.29a.76.76,0,0,1,0,.34.52.52,0,0,1-.1.18.67.67,0,0,1-.15.14,1.78,1.78,0,0,1-.39.2l-.28.06a.54.54,0,0,1-.28,0,.8.8,0,0,1-.5-.21,2.57,2.57,0,0,1-.5-.55l-.19-.33c-.07-.12-.14-.24-.2-.37L96.6,94h-.29A2.66,2.66,0,0,0,96,94a4.25,4.25,0,0,1-.71,0h-1v3.5a2.44,2.44,0,0,0,0,.27c0,.06,0,.14,0,.24l0,.26a1.12,1.12,0,0,1-.16.4,1,1,0,0,1-.34.35,1.2,1.2,0,0,1-.91.13,2.11,2.11,0,0,1-.45-.18.74.74,0,0,1-.12-.13,1,1,0,0,1-.09-.17.7.7,0,0,1-.06-.19,1.07,1.07,0,0,0-.07-.19A1.4,1.4,0,0,1,92,98V87.83a1.77,1.77,0,0,1,0-.23,1.2,1.2,0,0,1,0-.2,1.07,1.07,0,0,1,.12-.4.55.55,0,0,1,.18-.3,1,1,0,0,1,.33-.19,2,2,0,0,1,.65-.06l1.59,0c.53,0,1,0,1.57,0l1.1.12a4.5,4.5,0,0,1,1.08.28,5.51,5.51,0,0,1,.59.25,2.94,2.94,0,0,1,.54.37,3.69,3.69,0,0,1,.94,1.38,4.23,4.23,0,0,1,.33,1.62,3.54,3.54,0,0,1-.46,1.77,2.72,2.72,0,0,1-1.46,1.2.13.13,0,0,1-.09,0l-.1,0,1.64,3.3.16.29.09.16a.76.76,0,0,1,.09.18.93.93,0,0,1,.1.2,1.14,1.14,0,0,0,.1.19A3.86,3.86,0,0,0,101.21,98.29Zm-4.47-6.36a1.62,1.62,0,0,0,.62-.11,2.17,2.17,0,0,0,.53-.31,2.22,2.22,0,0,0,.41-.46,1.22,1.22,0,0,0,.17-.56A1.43,1.43,0,0,0,98,89.16a2.38,2.38,0,0,0-1.41-.48c-.35,0-.72,0-1.14,0H94.29c0,.49,0,1,0,1.49s0,1.1,0,1.79Z"/></g></g></svg>