<svg xmlns="http://www.w3.org/2000/svg" xmlns:xlink="http://www.w3.org/1999/xlink" viewBox="0 0 149.33 116.4"><defs><style>.cls-1{fill:#ea13ff;}.cls-2{fill:#f43fff;}.cls-3{opacity:0.33;isolation:isolate;fill:url(#무제_그라디언트_11);}.cls-4{fill:url(#무제_그라디언트_3);}.cls-5{fill:#9a1f93;}.cls-6{fill:#fff;}</style><linearGradient id="무제_그라디언트_11" x1="74.36" y1="480.18" x2="74.36" y2="522.97" gradientTransform="matrix(1, 0, 0, -1, 0, 594.19)" gradientUnits="userSpaceOnUse"><stop offset="0" stop-color="#fff"/><stop offset="1" stop-color="#fff" stop-opacity="0"/></linearGradient><linearGradient id="무제_그라디언트_3" x1="90.38" y1="624.49" x2="78" y2="558" gradientTransform="matrix(1, 0, 0, -1, 0, 594.19)" gradientUnits="userSpaceOnUse"><stop offset="0" stop-color="#fff"/><stop offset="1" stop-color="#fff" stop-opacity="0.39"/></linearGradient></defs><g id="레이어_2" data-name="레이어 2"><g id="Layer_1" data-name="Layer 1"><path class="cls-1" d="M56.64,115.51C25.9,115.34.89,89.63.89,58.2S25.9,1.07,56.64.89l7.93,0h52.26a14.53,14.53,0,0,1,14.35,14.67s.2,17,.2,17.41c0,5.38,1.64,5.38,3.23,5.38s2.34-.92,3.16-2.19c.94-1.43,2.1-3.22,5.22-3.22,5.38,0,5.4,8.5,5.43,21.38v7.73c0,12.87,0,21.37-5.43,21.37-3.12,0-4.28-1.78-5.22-3.22C137,79,136.35,78,134.61,78s-3.23,0-3.23,5.38c0,.37-.19,17.42-.19,17.42a14.53,14.53,0,0,1-14.36,14.66H64.57l-7.92,0Z"/><path class="cls-2" d="M56.66,6.07h59.55a11.9,11.9,0,0,1,11.75,12c.06,5.89.19,17.08.19,17.42,0,5.64,1.74,8,5.85,8,3.16,0,4.44-2,5.36-3.38s1.32-2,3-2c2.76,0,2.78,9.08,2.8,18.68v1.58l0-4.08c0-9.61,0-18.68-2.8-18.68-1.71,0-2.17.72-3,2S137.16,41,134,41c-4.11,0-5.85-2.41-5.85-8.05,0-.34-.13-11.53-.19-17.42a11.9,11.9,0,0,0-11.75-12H56.66C27.36,3.73,3.52,28.24,3.52,58.2c0,.42,0,.84,0,1.25C4.21,30.07,27.77,6.23,56.66,6.07Z"/><path class="cls-3" d="M89.49,112.84H56.66C27.36,112.67,3.52,88.16,3.52,58.2S27.36,3.73,56.66,3.56h59.55a11.9,11.9,0,0,1,11.75,12c.06,5.89.19,17.08.19,17.42,0,5.64,1.74,8.05,5.85,8.05,3.16,0,4.44-2,5.36-3.39s1.32-2,3-2c2.76,0,2.78,9.07,2.8,18.68l0,4.08c0,1.27,0,2.52,0,3.72,0,9.61,0,18.68-2.8,18.68-1.71,0-2.17-.72-3-2s-2.2-3.38-5.36-3.38c-4.11,0-5.85,2.41-5.85,8,0,.34-.13,11.53-.19,17.4a11.9,11.9,0,0,1-11.75,12Z"/><path class="cls-4" d="M94.16,51.86c21.63.33,40.94,4.49,51.05,6.31,0-.81,0-2.75,0-3.7,0-9.6,0-18.67-2.8-18.67-1.71,0-2.17.72-3,2s-2.19,3.39-5.36,3.39c-4.11,0-5.85-2.41-5.85-8.05,0-.34-.13-11.53-.19-17.42a11.9,11.9,0,0,0-11.75-12H56.66C30.82,3.89,9.23,23,4.5,48,17.81,74.12,68.78,51.48,94.16,51.86Z"/><path class="cls-5" d="M56.65,1.79h60.18a13.63,13.63,0,0,1,13.46,13.78s.19,17,.19,17.41c0,5.56,1.75,6.27,4.13,6.27,4.58,0,3.26-5.4,8.38-5.4,4.93,0,4.47,10,4.55,24.16v.36c-.08,14.13.38,24.17-4.55,24.17-5.12,0-3.8-5.41-8.38-5.41-2.38,0-4.13.71-4.13,6.28,0,.37-.19,17.4-.19,17.4a13.62,13.62,0,0,1-13.46,13.78H64.57l-7.92,0C26.32,114.44,1.79,89.25,1.79,58.2S26.32,2,56.65,1.79m0-1.79h0C25.41.18,0,26.29,0,58.2s25.41,58,56.64,58.2h60.19a15.43,15.43,0,0,0,15.25-15.57c0-.68.19-17,.19-17.41,0-4.49,1-4.49,2.34-4.49,1.2,0,1.56.46,2.42,1.78s2.36,3.64,6,3.64c6.27,0,6.29-8.86,6.33-22.27,0-1.19,0-2.42,0-3.68V58c0-1.27,0-2.5,0-3.69,0-13.41-.06-22.26-6.33-22.26-3.6,0-5,2.18-6,3.62s-1.22,1.78-2.42,1.78c-1.36,0-2.34,0-2.34-4.48,0-.38-.19-16.74-.19-17.44A15.42,15.42,0,0,0,116.83,0H56.65Z"/><path class="cls-5" d="M50.83,48.58V27.2a6.27,6.27,0,0,1,9.41-5.43L78.75,32.46l16,9.26a7.93,7.93,0,0,1,0,13.72l-16,9.26L60.24,75.39A6.27,6.27,0,0,1,50.83,70Z"/><path class="cls-6" d="M48.88,48.58V27.2a6.27,6.27,0,0,1,9.4-5.43L76.8,32.46l16,9.26a7.92,7.92,0,0,1,0,13.72l-16,9.26L58.28,75.39A6.27,6.27,0,0,1,48.88,70Z"/><path class="cls-5" d="M57.78,92.2a3,3,0,0,1,.13.57,4.23,4.23,0,0,1,.05.63,4.34,4.34,0,0,1-.05.63,3.56,3.56,0,0,1-.11.55,3.19,3.19,0,0,1-1.14,1.67,5.71,5.71,0,0,1-2,1,6.63,6.63,0,0,1-2.27.22,5.14,5.14,0,0,1-2.08-.59,3.82,3.82,0,0,1-1-.79,4.41,4.41,0,0,1-.7-1,1.08,1.08,0,0,1-.13-.45,1.2,1.2,0,0,1,0-.5,1.37,1.37,0,0,1,.23-.43.91.91,0,0,1,.45-.26,2.41,2.41,0,0,1,.4,0,1.61,1.61,0,0,1,.44.06,1.41,1.41,0,0,1,.39.19,1,1,0,0,1,.29.37,2.4,2.4,0,0,0,.56.69,3.49,3.49,0,0,0,.78.51,3.23,3.23,0,0,0,1.19.16,3,3,0,0,0,1.09-.27,2.15,2.15,0,0,0,.79-.63,1.51,1.51,0,0,0,.3-.92,1.81,1.81,0,0,0-.12-.71,1.23,1.23,0,0,0-.35-.46,2.14,2.14,0,0,0-.53-.32,5.63,5.63,0,0,0-.69-.21,8.7,8.7,0,0,0-.87-.13l-.88-.08c-.3,0-.59-.09-.88-.15a4.55,4.55,0,0,1-.84-.27,2.56,2.56,0,0,1-1.25-1,3.72,3.72,0,0,1-.51-1.5,3.81,3.81,0,0,1,.19-1.6,3.33,3.33,0,0,1,.86-1.37A3.39,3.39,0,0,1,51,84.94a7.8,7.8,0,0,1,2.84-.22,6,6,0,0,1,1.06.18,5.19,5.19,0,0,1,.94.32,3,3,0,0,1,.76.46,2.69,2.69,0,0,1,.47.48,2.57,2.57,0,0,1,.36.62,1.3,1.3,0,0,1,.08.64.74.74,0,0,1-.39.51.91.91,0,0,1-.54.16,1.19,1.19,0,0,1-.49-.17,2.26,2.26,0,0,1-.45-.31l-.39-.32a2.76,2.76,0,0,0-1.2-.48,5.13,5.13,0,0,0-1.34-.06,3.9,3.9,0,0,0-.73.18,1.93,1.93,0,0,0-.58.34,1.56,1.56,0,0,0-.38.53,1.48,1.48,0,0,0-.1.71.92.92,0,0,0,.17.48,1.18,1.18,0,0,0,.38.32,2.39,2.39,0,0,0,.49.2,5.12,5.12,0,0,0,.54.1c.53.07,1.07.13,1.6.16a5.49,5.49,0,0,1,1.58.36A4,4,0,0,1,57,91,2.84,2.84,0,0,1,57.78,92.2Z"/><path class="cls-5" d="M68.53,85.31a.73.73,0,0,1,.2.48,1.62,1.62,0,0,1,0,.22,1.18,1.18,0,0,1,0,.21.74.74,0,0,1-.23.37.78.78,0,0,1-.39.16,1.14,1.14,0,0,1-.25.06l-.27,0-.25,0H66.12l-.63,0h-.62c0,.37,0,.76,0,1.19s0,.91,0,1.47,0,1.21,0,2,0,1.59,0,2.57v1.36a1.61,1.61,0,0,0,0,.26v.14a.44.44,0,0,1,0,.15,3.33,3.33,0,0,0,0,.37.88.88,0,0,1,0,.17,1.09,1.09,0,0,1,0,.17.2.2,0,0,0-.07.11l-.06.11a.91.91,0,0,1-.34.34,1.28,1.28,0,0,1-.87.09,1.08,1.08,0,0,1-.47-.16,1.32,1.32,0,0,1-.23-.33.94.94,0,0,1-.12-.37,1,1,0,0,1-.06-.34V87H61.34c-.25,0-.49,0-.72,0l-.46,0-.33-.06a2.23,2.23,0,0,1-.37-.07,1.18,1.18,0,0,1-.59-.34.77.77,0,0,1-.2-.52V85.7a.65.65,0,0,1,0-.2.58.58,0,0,1,.29-.35,1.43,1.43,0,0,1,.22-.14,1.31,1.31,0,0,1,.29-.11,2.44,2.44,0,0,1,.54-.11l.29,0h1.49c.37,0,.77,0,1.18,0q1,0,2.07,0c.68,0,1.36,0,2,0l.45,0A2.61,2.61,0,0,1,68,85a1.6,1.6,0,0,1,.3.13A.67.67,0,0,1,68.53,85.31Z"/><path class="cls-5" d="M78.86,96.19a1.5,1.5,0,0,1,0,.2,1.55,1.55,0,0,1,0,.22.7.7,0,0,1-.12.4,2.09,2.09,0,0,1-.14.17.8.8,0,0,1-.22.13,1.12,1.12,0,0,1-1.39,0L77,97.21s0,0,0,0l0,0,0,0a1,1,0,0,1-.14-.17s-.07-.11-.11-.17,0-.12-.08-.17l-.1-.17c0-.05,0-.09-.07-.13a.39.39,0,0,1,0-.14,1,1,0,0,1-.09-.28L75.82,95H73.37c-.82,0-1.64,0-2.46,0l-.38.88a.57.57,0,0,0,0,.14.39.39,0,0,1,0,.14l-.06.14-.06.13-.1.17-.1.17a.56.56,0,0,1-.09.17,1,1,0,0,1-.14.17l0,0,0,0s0,0,0,0l-.06.05a1.12,1.12,0,0,1-1.39,0,.8.8,0,0,1-.22-.13A2.09,2.09,0,0,1,68,97a.7.7,0,0,1-.12-.4,1.55,1.55,0,0,1,0-.22,1.5,1.5,0,0,1,0-.2l.09-.33L68,95.7l3.71-9.14.11-.29a.66.66,0,0,1,.09-.19,1.65,1.65,0,0,0,.09-.22,3.14,3.14,0,0,1,.19-.41,1.37,1.37,0,0,1,.13-.2,2.09,2.09,0,0,1,.14-.17.73.73,0,0,1,.3-.24,1.74,1.74,0,0,1,.59-.09,1.72,1.72,0,0,1,.58.09.73.73,0,0,1,.3.24l.27.37a3.14,3.14,0,0,1,.19.41,1.65,1.65,0,0,0,.09.22.66.66,0,0,1,.09.19l.11.29,3.71,9.14.06.16Zm-4.24-4.38-.47-1.07c-.16-.37-.33-.75-.51-1.13,0-.1-.09-.21-.14-.33s-.1-.22-.14-.33c0,.11-.08.22-.13.33s-.09.23-.14.33c-.18.38-.35.76-.51,1.13l-.47,1.07-.33.79H75Z"/><path class="cls-5" d="M89.54,96.61a.76.76,0,0,1,0,.34.35.35,0,0,1-.1.18,1.06,1.06,0,0,1-.15.15,2,2,0,0,1-.39.19l-.28.06a.62.62,0,0,1-.27,0,.85.85,0,0,1-.5-.22,2.33,2.33,0,0,1-.5-.55l-.2-.32c-.07-.12-.14-.25-.2-.38l-2-3.77h-.29l-.28,0a5.77,5.77,0,0,1-.71,0,3.86,3.86,0,0,0-.68,0h-.34v3.23c0,.09,0,.18,0,.27a2.17,2.17,0,0,0,0,.26,2.27,2.27,0,0,1,0,.24l0,.26a1,1,0,0,1-.16.41,1.1,1.1,0,0,1-.34.34,1.2,1.2,0,0,1-.91.13,2.11,2.11,0,0,1-.45-.18.77.77,0,0,1-.12-.13A.7.7,0,0,1,80.5,97l-.06-.19-.06-.19a1.06,1.06,0,0,1-.06-.34V86.15a1.85,1.85,0,0,1,0-.23l0-.2a1,1,0,0,1,.12-.39.54.54,0,0,1,.18-.31,1,1,0,0,1,.33-.19,2,2,0,0,1,.65-.06l1.59,0c.53,0,1,0,1.58,0,.34,0,.71.06,1.09.11a5,5,0,0,1,1.08.28c.22.08.42.17.59.25a3.54,3.54,0,0,1,.54.37,3.79,3.79,0,0,1,1,1.38,4.41,4.41,0,0,1,.32,1.62,3.44,3.44,0,0,1-.46,1.77,2.73,2.73,0,0,1-1.45,1.2.18.18,0,0,1-.1,0l-.1,0,1.64,3.31.16.28.09.16a.76.76,0,0,1,.09.18,1.24,1.24,0,0,1,.1.2,1.14,1.14,0,0,0,.1.19C89.49,96.37,89.51,96.51,89.54,96.61Zm-4.47-6.35a1.63,1.63,0,0,0,.62-.12,2.23,2.23,0,0,0,.54-.31,2,2,0,0,0,.4-.46,1.37,1.37,0,0,0,.18-.56,1.46,1.46,0,0,0-.47-1.33A2.38,2.38,0,0,0,84.93,87c-.34,0-.72,0-1.13,0H82.63c0,.49,0,1,0,1.49v1.8Z"/><path class="cls-5" d="M99.68,85.31a.73.73,0,0,1,.2.48,1.62,1.62,0,0,1,0,.22.66.66,0,0,1,0,.21.74.74,0,0,1-.23.37.78.78,0,0,1-.39.16,1.14,1.14,0,0,1-.25.06l-.27,0-.25,0H97.27l-.63,0H96c0,.37,0,.76,0,1.19s0,.91,0,1.47,0,1.21,0,2,0,1.59,0,2.57v1.36a1.61,1.61,0,0,0,0,.26v.14A.44.44,0,0,1,96,96a3.33,3.33,0,0,0,0,.37.88.88,0,0,1,0,.17,1.09,1.09,0,0,1-.05.17.2.2,0,0,0-.07.11l-.06.11a1,1,0,0,1-.33.34,1.32,1.32,0,0,1-.88.09,1,1,0,0,1-.46-.16,1.15,1.15,0,0,1-.24-.33.94.94,0,0,1-.12-.37,1,1,0,0,1-.06-.34V87H92.49c-.25,0-.49,0-.72,0l-.46,0L91,86.84a2.45,2.45,0,0,1-.37-.07,1.18,1.18,0,0,1-.59-.34.77.77,0,0,1-.2-.52V85.7a.65.65,0,0,1,0-.2.58.58,0,0,1,.29-.35,1.43,1.43,0,0,1,.22-.14,1.31,1.31,0,0,1,.29-.11,2.44,2.44,0,0,1,.54-.11l.29,0H93c.37,0,.77,0,1.18,0q1,0,2.07,0c.68,0,1.36,0,2,0l.45,0a2.35,2.35,0,0,1,.43.13,1.36,1.36,0,0,1,.3.13A.67.67,0,0,1,99.68,85.31Z"/><path class="cls-6" d="M56,92.2a3,3,0,0,1,.14.57,4.26,4.26,0,0,1,0,.63,4.35,4.35,0,0,1,0,.63,3.49,3.49,0,0,1-.12.55,3.19,3.19,0,0,1-1.14,1.67,5.54,5.54,0,0,1-2,1,6.63,6.63,0,0,1-2.27.22,5.14,5.14,0,0,1-2.08-.59,4,4,0,0,1-1-.79,5.12,5.12,0,0,1-.7-1,1.25,1.25,0,0,1-.13-.45,1.2,1.2,0,0,1,0-.5,1.06,1.06,0,0,1,.23-.43.84.84,0,0,1,.44-.26,2.54,2.54,0,0,1,.41,0,1.59,1.59,0,0,1,.43.06,1.34,1.34,0,0,1,.4.19A1,1,0,0,1,49,94a2.4,2.4,0,0,0,.56.69,3.73,3.73,0,0,0,.78.51,3.23,3.23,0,0,0,1.19.16,3,3,0,0,0,1.09-.27,2.07,2.07,0,0,0,.79-.63,1.46,1.46,0,0,0,.31-.92,1.64,1.64,0,0,0-.13-.71,1.23,1.23,0,0,0-.35-.46A1.82,1.82,0,0,0,52.7,92a5.63,5.63,0,0,0-.69-.21,7.91,7.91,0,0,0-.87-.13l-.88-.08q-.45-.06-.87-.15a4.12,4.12,0,0,1-.84-.27,2.52,2.52,0,0,1-1.25-1,3.44,3.44,0,0,1-.51-1.5,3.81,3.81,0,0,1,.18-1.6,3.12,3.12,0,0,1,2.23-2.11A7.76,7.76,0,0,1,51,84.68a7.92,7.92,0,0,1,1.08,0,6.06,6.06,0,0,1,1.05.18,5.3,5.3,0,0,1,.95.32,3.34,3.34,0,0,1,.76.46,2.66,2.66,0,0,1,.46.48,2,2,0,0,1,.36.62,1.3,1.3,0,0,1,.08.64.75.75,0,0,1-.38.51.93.93,0,0,1-.55.16,1.25,1.25,0,0,1-.49-.17,3,3,0,0,1-.45-.31l-.39-.32a2.71,2.71,0,0,0-1.2-.48,5.12,5.12,0,0,0-1.34-.06,4.1,4.1,0,0,0-.73.18,2.06,2.06,0,0,0-.58.34,1.41,1.41,0,0,0-.37.53,1.37,1.37,0,0,0-.1.71.84.84,0,0,0,.17.48,1.14,1.14,0,0,0,.37.32,2.39,2.39,0,0,0,.49.2,5.12,5.12,0,0,0,.54.1c.54.07,1.07.13,1.61.16a5.42,5.42,0,0,1,1.57.36,4.2,4.2,0,0,1,1.34.82A2.82,2.82,0,0,1,56,92.2Z"/><path class="cls-6" d="M66.75,85.31a.72.72,0,0,1,.19.48,1.62,1.62,0,0,1,0,.22,1.25,1.25,0,0,1,0,.21.82.82,0,0,1-.23.37.86.86,0,0,1-.4.16,1,1,0,0,1-.25.06l-.27,0-.25,0H64.34l-.64,0h-.61c0,.37,0,.76,0,1.19s0,.91,0,1.47,0,1.21,0,2,0,1.59,0,2.57v1.36a.94.94,0,0,0,0,.26v.14a1,1,0,0,1,0,.15,3.18,3.18,0,0,0-.06.37.91.91,0,0,1,0,.17,1.15,1.15,0,0,1-.06.17.2.2,0,0,0-.07.11l0,.11a1,1,0,0,1-.34.34,1.31,1.31,0,0,1-.88.09,1,1,0,0,1-.46-.16.94.94,0,0,1-.23-.33,1,1,0,0,1-.13-.37,1.27,1.27,0,0,1-.05-.34V87H59.56c-.26,0-.5,0-.73,0l-.46,0L58,86.84a2.45,2.45,0,0,1-.37-.07,1.23,1.23,0,0,1-.59-.34.76.76,0,0,1-.19-.52V85.7a.64.64,0,0,1,0-.2.58.58,0,0,1,.29-.35l.22-.14a1.21,1.21,0,0,1,.3-.11,2.23,2.23,0,0,1,.53-.11l.29,0H60c.38,0,.77,0,1.19,0,.69,0,1.38,0,2.06,0s1.37,0,2.05,0l.44,0a2.13,2.13,0,0,1,.43.13,1.36,1.36,0,0,1,.3.13A.7.7,0,0,1,66.75,85.31Z"/><path class="cls-6" d="M77.07,96.19l0,.2c0,.07,0,.14,0,.22A.64.64,0,0,1,77,97a.7.7,0,0,1-.14.17.74.74,0,0,1-.21.13,1.45,1.45,0,0,1-.95.18,1.37,1.37,0,0,1-.45-.23l0-.05s0,0,0,0l0,0-.06,0a1.77,1.77,0,0,1-.14-.17s-.07-.11-.11-.17a.89.89,0,0,0-.08-.17l-.1-.17a.54.54,0,0,0-.07-.13.78.78,0,0,1,0-.14,1,1,0,0,1-.09-.28L74,95H71.58c-.82,0-1.64,0-2.46,0l-.37.88a.34.34,0,0,0,0,.14.37.37,0,0,1,0,.14.42.42,0,0,0-.06.14l-.07.13-.1.17c0,.05-.06.11-.09.17l-.09.17-.15.17,0,0,0,0,0,0a.23.23,0,0,0,0,.05,1.37,1.37,0,0,1-.45.23,1.45,1.45,0,0,1-1-.18.74.74,0,0,1-.21-.13.7.7,0,0,1-.14-.17.64.64,0,0,1-.13-.4,1.55,1.55,0,0,1,0-.22,1.62,1.62,0,0,1,0-.2,2,2,0,0,1,.09-.33l0-.16,3.71-9.14.11-.29.09-.19a.63.63,0,0,0,.09-.22,3.13,3.13,0,0,1,.2-.41.82.82,0,0,1,.12-.2,2.09,2.09,0,0,0,.14-.17.83.83,0,0,1,.31-.24,1.91,1.91,0,0,1,1.16,0,.73.73,0,0,1,.3.24,3,3,0,0,1,.27.37,3.13,3.13,0,0,1,.2.41.63.63,0,0,0,.09.22l.09.19.1.29,3.72,9.14,0,.16A2,2,0,0,1,77.07,96.19Zm-4.23-4.38-.48-1.07-.5-1.13-.15-.33c0-.11-.09-.22-.14-.33,0,.11-.08.22-.13.33a2.52,2.52,0,0,1-.14.33c-.18.38-.35.76-.51,1.13l-.47,1.07L70,92.6h3.16Z"/><path class="cls-6" d="M87.75,96.61a.94.94,0,0,1,0,.34.61.61,0,0,1-.1.18,1.06,1.06,0,0,1-.15.15,2.14,2.14,0,0,1-.4.19,1.31,1.31,0,0,1-.27.06.66.66,0,0,1-.28,0,.85.85,0,0,1-.5-.22,2.57,2.57,0,0,1-.5-.55l-.2-.32c-.07-.12-.13-.25-.19-.38l-2-3.77h-.28l-.29,0a5.61,5.61,0,0,1-.7,0,4,4,0,0,0-.69,0h-.34v3.23a2.44,2.44,0,0,1,0,.27c0,.08,0,.17,0,.26a2.27,2.27,0,0,1,0,.24,2.11,2.11,0,0,1,0,.26,1.39,1.39,0,0,1-.16.41,1.22,1.22,0,0,1-.34.34,1.21,1.21,0,0,1-.91.13,1.77,1.77,0,0,1-.45-.18.53.53,0,0,1-.13-.13L78.71,97l-.06-.19-.06-.19a1,1,0,0,1,0-.34V86.15a1.85,1.85,0,0,1,0-.23,1.23,1.23,0,0,1,0-.2,1,1,0,0,1,.13-.39.46.46,0,0,1,.18-.31,1,1,0,0,1,.33-.19,1.89,1.89,0,0,1,.65-.06l1.59,0c.52,0,1,0,1.57,0,.34,0,.71.06,1.1.11a5.18,5.18,0,0,1,1.08.28l.59.25a3.93,3.93,0,0,1,.53.37,3.67,3.67,0,0,1,1,1.38,4.41,4.41,0,0,1,.32,1.62,3.53,3.53,0,0,1-.45,1.77,2.76,2.76,0,0,1-1.46,1.2.15.15,0,0,1-.1,0l-.1,0,1.65,3.31.16.28a.89.89,0,0,0,.09.16l.09.18a1.21,1.21,0,0,1,.09.2c0,.07.07.13.1.19S87.73,96.51,87.75,96.61Zm-4.46-6.35a1.58,1.58,0,0,0,.61-.12,2.05,2.05,0,0,0,.54-.31,2,2,0,0,0,.4-.46,1.12,1.12,0,0,0,.18-.56,1.46,1.46,0,0,0-.46-1.33A2.39,2.39,0,0,0,83.14,87c-.34,0-.72,0-1.13,0H80.84c0,.49,0,1,0,1.49s0,1.1,0,1.8Z"/><path class="cls-6" d="M97.9,85.31a.72.72,0,0,1,.19.48V86l0,.21a.82.82,0,0,1-.23.37.86.86,0,0,1-.4.16,1,1,0,0,1-.25.06l-.26,0-.25,0H95.49l-.64,0h-.61c0,.37,0,.76,0,1.19v1.47c0,.56,0,1.21,0,2s0,1.59,0,2.57v1.36a.94.94,0,0,0,0,.26v.14a1,1,0,0,1,0,.15,3.18,3.18,0,0,0-.06.37.91.91,0,0,1,0,.17,1.15,1.15,0,0,1-.06.17.3.3,0,0,0-.07.11l0,.11a.91.91,0,0,1-.34.34,1.3,1.3,0,0,1-.88.09,1,1,0,0,1-.46-.16.94.94,0,0,1-.23-.33,1,1,0,0,1-.13-.37,1.27,1.27,0,0,1-.05-.34V87H90.71c-.26,0-.5,0-.73,0l-.46,0-.33-.06a2.45,2.45,0,0,1-.37-.07,1.23,1.23,0,0,1-.59-.34.76.76,0,0,1-.19-.52V85.7a.64.64,0,0,1,0-.2.58.58,0,0,1,.29-.35l.22-.14a1.21,1.21,0,0,1,.3-.11,2.23,2.23,0,0,1,.53-.11l.29,0h1.49c.38,0,.77,0,1.19,0,.69,0,1.38,0,2.06,0s1.37,0,2,0l.44,0a2.13,2.13,0,0,1,.43.13,1.69,1.69,0,0,1,.31.13A.77.77,0,0,1,97.9,85.31Z"/><path class="cls-5" d="M50.83,48.58V27.2a6.27,6.27,0,0,1,9.41-5.43L78.75,32.46l16,9.26a7.93,7.93,0,0,1,0,13.72l-16,9.26L60.24,75.39A6.27,6.27,0,0,1,50.83,70Z"/><path class="cls-6" d="M48.88,48.58V27.2a6.27,6.27,0,0,1,9.4-5.43L76.8,32.46l16,9.26a7.92,7.92,0,0,1,0,13.72l-16,9.26L58.28,75.39A6.27,6.27,0,0,1,48.88,70Z"/><path class="cls-5" d="M57.78,92.2a3,3,0,0,1,.13.57,4.23,4.23,0,0,1,.05.63,4.34,4.34,0,0,1-.05.63,3.56,3.56,0,0,1-.11.55,3.19,3.19,0,0,1-1.14,1.67,5.71,5.71,0,0,1-2,1,6.63,6.63,0,0,1-2.27.22,5.14,5.14,0,0,1-2.08-.59,3.82,3.82,0,0,1-1-.79,4.41,4.41,0,0,1-.7-1,1.08,1.08,0,0,1-.13-.45,1.2,1.2,0,0,1,0-.5,1.37,1.37,0,0,1,.23-.43.91.91,0,0,1,.45-.26,2.41,2.41,0,0,1,.4,0,1.61,1.61,0,0,1,.44.06,1.41,1.41,0,0,1,.39.19,1,1,0,0,1,.29.37,2.4,2.4,0,0,0,.56.69,3.49,3.49,0,0,0,.78.51,3.23,3.23,0,0,0,1.19.16,3,3,0,0,0,1.09-.27,2.15,2.15,0,0,0,.79-.63,1.51,1.51,0,0,0,.3-.92,1.81,1.81,0,0,0-.12-.71,1.23,1.23,0,0,0-.35-.46,2.14,2.14,0,0,0-.53-.32,5.63,5.63,0,0,0-.69-.21,8.7,8.7,0,0,0-.87-.13l-.88-.08c-.3,0-.59-.09-.88-.15a4.55,4.55,0,0,1-.84-.27,2.56,2.56,0,0,1-1.25-1,3.72,3.72,0,0,1-.51-1.5,3.81,3.81,0,0,1,.19-1.6,3.33,3.33,0,0,1,.86-1.37A3.39,3.39,0,0,1,51,84.94a7.8,7.8,0,0,1,2.84-.22,6,6,0,0,1,1.06.18,5.19,5.19,0,0,1,.94.32,3,3,0,0,1,.76.46,2.69,2.69,0,0,1,.47.48,2.57,2.57,0,0,1,.36.62,1.3,1.3,0,0,1,.08.64.74.74,0,0,1-.39.51.91.91,0,0,1-.54.16,1.19,1.19,0,0,1-.49-.17,2.26,2.26,0,0,1-.45-.31l-.39-.32a2.76,2.76,0,0,0-1.2-.48,5.13,5.13,0,0,0-1.34-.06,3.9,3.9,0,0,0-.73.18,1.93,1.93,0,0,0-.58.34,1.56,1.56,0,0,0-.38.53,1.48,1.48,0,0,0-.1.71.92.92,0,0,0,.17.48,1.18,1.18,0,0,0,.38.32,2.39,2.39,0,0,0,.49.2,5.12,5.12,0,0,0,.54.1c.53.07,1.07.13,1.6.16a5.49,5.49,0,0,1,1.58.36A4,4,0,0,1,57,91,2.84,2.84,0,0,1,57.78,92.2Z"/><path class="cls-5" d="M68.53,85.31a.73.73,0,0,1,.2.48,1.62,1.62,0,0,1,0,.22,1.18,1.18,0,0,1,0,.21.74.74,0,0,1-.23.37.78.78,0,0,1-.39.16,1.14,1.14,0,0,1-.25.06l-.27,0-.25,0H66.12l-.63,0h-.62c0,.37,0,.76,0,1.19s0,.91,0,1.47,0,1.21,0,2,0,1.59,0,2.57v1.36a1.61,1.61,0,0,0,0,.26v.14a.44.44,0,0,1,0,.15,3.33,3.33,0,0,0,0,.37.88.88,0,0,1,0,.17,1.09,1.09,0,0,1,0,.17.2.2,0,0,0-.07.11l-.06.11a.91.91,0,0,1-.34.34,1.28,1.28,0,0,1-.87.09,1.08,1.08,0,0,1-.47-.16,1.32,1.32,0,0,1-.23-.33.94.94,0,0,1-.12-.37,1,1,0,0,1-.06-.34V87H61.34c-.25,0-.49,0-.72,0l-.46,0-.33-.06a2.23,2.23,0,0,1-.37-.07,1.18,1.18,0,0,1-.59-.34.77.77,0,0,1-.2-.52V85.7a.65.65,0,0,1,0-.2.58.58,0,0,1,.29-.35,1.43,1.43,0,0,1,.22-.14,1.31,1.31,0,0,1,.29-.11,2.44,2.44,0,0,1,.54-.11l.29,0h1.49c.37,0,.77,0,1.18,0q1,0,2.07,0c.68,0,1.36,0,2,0l.45,0A2.61,2.61,0,0,1,68,85a1.6,1.6,0,0,1,.3.13A.67.67,0,0,1,68.53,85.31Z"/><path class="cls-5" d="M78.86,96.19a1.5,1.5,0,0,1,0,.2,1.55,1.55,0,0,1,0,.22.7.7,0,0,1-.12.4,2.09,2.09,0,0,1-.14.17.8.8,0,0,1-.22.13,1.12,1.12,0,0,1-1.39,0L77,97.21s0,0,0,0l0,0,0,0a1,1,0,0,1-.14-.17s-.07-.11-.11-.17,0-.12-.08-.17l-.1-.17c0-.05,0-.09-.07-.13a.39.39,0,0,1,0-.14,1,1,0,0,1-.09-.28L75.82,95H73.37c-.82,0-1.64,0-2.46,0l-.38.88a.57.57,0,0,0,0,.14.39.39,0,0,1,0,.14l-.06.14-.06.13-.1.17-.1.17a.56.56,0,0,1-.09.17,1,1,0,0,1-.14.17l0,0,0,0s0,0,0,0l-.06.05a1.12,1.12,0,0,1-1.39,0,.8.8,0,0,1-.22-.13A2.09,2.09,0,0,1,68,97a.7.7,0,0,1-.12-.4,1.55,1.55,0,0,1,0-.22,1.5,1.5,0,0,1,0-.2l.09-.33L68,95.7l3.71-9.14.11-.29a.66.66,0,0,1,.09-.19,1.65,1.65,0,0,0,.09-.22,3.14,3.14,0,0,1,.19-.41,1.37,1.37,0,0,1,.13-.2,2.09,2.09,0,0,1,.14-.17.73.73,0,0,1,.3-.24,1.74,1.74,0,0,1,.59-.09,1.72,1.72,0,0,1,.58.09.73.73,0,0,1,.3.24l.27.37a3.14,3.14,0,0,1,.19.41,1.65,1.65,0,0,0,.09.22.66.66,0,0,1,.09.19l.11.29,3.71,9.14.06.16Zm-4.24-4.38-.47-1.07c-.16-.37-.33-.75-.51-1.13,0-.1-.09-.21-.14-.33s-.1-.22-.14-.33c0,.11-.08.22-.13.33s-.09.23-.14.33c-.18.38-.35.76-.51,1.13l-.47,1.07-.33.79H75Z"/><path class="cls-5" d="M89.54,96.61a.76.76,0,0,1,0,.34.35.35,0,0,1-.1.18,1.06,1.06,0,0,1-.15.15,2,2,0,0,1-.39.19l-.28.06a.62.62,0,0,1-.27,0,.85.85,0,0,1-.5-.22,2.33,2.33,0,0,1-.5-.55l-.2-.32c-.07-.12-.14-.25-.2-.38l-2-3.77h-.29l-.28,0a5.77,5.77,0,0,1-.71,0,3.86,3.86,0,0,0-.68,0h-.34v3.23c0,.09,0,.18,0,.27a2.17,2.17,0,0,0,0,.26,2.27,2.27,0,0,1,0,.24l0,.26a1,1,0,0,1-.16.41,1.1,1.1,0,0,1-.34.34,1.2,1.2,0,0,1-.91.13,2.11,2.11,0,0,1-.45-.18.77.77,0,0,1-.12-.13A.7.7,0,0,1,80.5,97l-.06-.19-.06-.19a1.06,1.06,0,0,1-.06-.34V86.15a1.85,1.85,0,0,1,0-.23l0-.2a1,1,0,0,1,.12-.39.54.54,0,0,1,.18-.31,1,1,0,0,1,.33-.19,2,2,0,0,1,.65-.06l1.59,0c.53,0,1,0,1.58,0,.34,0,.71.06,1.09.11a5,5,0,0,1,1.08.28c.22.08.42.17.59.25a3.54,3.54,0,0,1,.54.37,3.79,3.79,0,0,1,1,1.38,4.41,4.41,0,0,1,.32,1.62,3.44,3.44,0,0,1-.46,1.77,2.73,2.73,0,0,1-1.45,1.2.18.18,0,0,1-.1,0l-.1,0,1.64,3.31.16.28.09.16a.76.76,0,0,1,.09.18,1.24,1.24,0,0,1,.1.2,1.14,1.14,0,0,0,.1.19C89.49,96.37,89.51,96.51,89.54,96.61Zm-4.47-6.35a1.63,1.63,0,0,0,.62-.12,2.23,2.23,0,0,0,.54-.31,2,2,0,0,0,.4-.46,1.37,1.37,0,0,0,.18-.56,1.46,1.46,0,0,0-.47-1.33A2.38,2.38,0,0,0,84.93,87c-.34,0-.72,0-1.13,0H82.63c0,.49,0,1,0,1.49v1.8Z"/><path class="cls-5" d="M99.68,85.31a.73.73,0,0,1,.2.48,1.62,1.62,0,0,1,0,.22.66.66,0,0,1,0,.21.74.74,0,0,1-.23.37.78.78,0,0,1-.39.16,1.14,1.14,0,0,1-.25.06l-.27,0-.25,0H97.27l-.63,0H96c0,.37,0,.76,0,1.19s0,.91,0,1.47,0,1.21,0,2,0,1.59,0,2.57v1.36a1.61,1.61,0,0,0,0,.26v.14A.44.44,0,0,1,96,96a3.33,3.33,0,0,0,0,.37.88.88,0,0,1,0,.17,1.09,1.09,0,0,1-.05.17.2.2,0,0,0-.07.11l-.06.11a1,1,0,0,1-.33.34,1.32,1.32,0,0,1-.88.09,1,1,0,0,1-.46-.16,1.15,1.15,0,0,1-.24-.33.94.94,0,0,1-.12-.37,1,1,0,0,1-.06-.34V87H92.49c-.25,0-.49,0-.72,0l-.46,0L91,86.84a2.45,2.45,0,0,1-.37-.07,1.18,1.18,0,0,1-.59-.34.77.77,0,0,1-.2-.52V85.7a.65.65,0,0,1,0-.2.58.58,0,0,1,.29-.35,1.43,1.43,0,0,1,.22-.14,1.31,1.31,0,0,1,.29-.11,2.44,2.44,0,0,1,.54-.11l.29,0H93c.37,0,.77,0,1.18,0q1,0,2.07,0c.68,0,1.36,0,2,0l.45,0a2.35,2.35,0,0,1,.43.13,1.36,1.36,0,0,1,.3.13A.67.67,0,0,1,99.68,85.31Z"/><path class="cls-6" d="M56,92.2a3,3,0,0,1,.14.57,4.26,4.26,0,0,1,0,.63,4.35,4.35,0,0,1,0,.63,3.49,3.49,0,0,1-.12.55,3.19,3.19,0,0,1-1.14,1.67,5.54,5.54,0,0,1-2,1,6.63,6.63,0,0,1-2.27.22,5.14,5.14,0,0,1-2.08-.59,4,4,0,0,1-1-.79,5.12,5.12,0,0,1-.7-1,1.25,1.25,0,0,1-.13-.45,1.2,1.2,0,0,1,0-.5,1.06,1.06,0,0,1,.23-.43.84.84,0,0,1,.44-.26,2.54,2.54,0,0,1,.41,0,1.59,1.59,0,0,1,.43.06,1.34,1.34,0,0,1,.4.19A1,1,0,0,1,49,94a2.4,2.4,0,0,0,.56.69,3.73,3.73,0,0,0,.78.51,3.23,3.23,0,0,0,1.19.16,3,3,0,0,0,1.09-.27,2.07,2.07,0,0,0,.79-.63,1.46,1.46,0,0,0,.31-.92,1.64,1.64,0,0,0-.13-.71,1.23,1.23,0,0,0-.35-.46A1.82,1.82,0,0,0,52.7,92a5.63,5.63,0,0,0-.69-.21,7.91,7.91,0,0,0-.87-.13l-.88-.08q-.45-.06-.87-.15a4.12,4.12,0,0,1-.84-.27,2.52,2.52,0,0,1-1.25-1,3.44,3.44,0,0,1-.51-1.5,3.81,3.81,0,0,1,.18-1.6,3.12,3.12,0,0,1,2.23-2.11A7.76,7.76,0,0,1,51,84.68a7.92,7.92,0,0,1,1.08,0,6.06,6.06,0,0,1,1.05.18,5.3,5.3,0,0,1,.95.32,3.34,3.34,0,0,1,.76.46,2.66,2.66,0,0,1,.46.48,2,2,0,0,1,.36.62,1.3,1.3,0,0,1,.08.64.75.75,0,0,1-.38.51.93.93,0,0,1-.55.16,1.25,1.25,0,0,1-.49-.17,3,3,0,0,1-.45-.31l-.39-.32a2.71,2.71,0,0,0-1.2-.48,5.12,5.12,0,0,0-1.34-.06,4.1,4.1,0,0,0-.73.18,2.06,2.06,0,0,0-.58.34,1.41,1.41,0,0,0-.37.53,1.37,1.37,0,0,0-.1.71.84.84,0,0,0,.17.48,1.14,1.14,0,0,0,.37.32,2.39,2.39,0,0,0,.49.2,5.12,5.12,0,0,0,.54.1c.54.07,1.07.13,1.61.16a5.42,5.42,0,0,1,1.57.36,4.2,4.2,0,0,1,1.34.82A2.82,2.82,0,0,1,56,92.2Z"/><path class="cls-6" d="M66.75,85.31a.72.72,0,0,1,.19.48,1.62,1.62,0,0,1,0,.22,1.25,1.25,0,0,1,0,.21.82.82,0,0,1-.23.37.86.86,0,0,1-.4.16,1,1,0,0,1-.25.06l-.27,0-.25,0H64.34l-.64,0h-.61c0,.37,0,.76,0,1.19s0,.91,0,1.47,0,1.21,0,2,0,1.59,0,2.57v1.36a.94.94,0,0,0,0,.26v.14a1,1,0,0,1,0,.15,3.18,3.18,0,0,0-.06.37.91.91,0,0,1,0,.17,1.15,1.15,0,0,1-.06.17.2.2,0,0,0-.07.11l0,.11a1,1,0,0,1-.34.34,1.31,1.31,0,0,1-.88.09,1,1,0,0,1-.46-.16.94.94,0,0,1-.23-.33,1,1,0,0,1-.13-.37,1.27,1.27,0,0,1-.05-.34V87H59.56c-.26,0-.5,0-.73,0l-.46,0L58,86.84a2.45,2.45,0,0,1-.37-.07,1.23,1.23,0,0,1-.59-.34.76.76,0,0,1-.19-.52V85.7a.64.64,0,0,1,0-.2.58.58,0,0,1,.29-.35l.22-.14a1.21,1.21,0,0,1,.3-.11,2.23,2.23,0,0,1,.53-.11l.29,0H60c.38,0,.77,0,1.19,0,.69,0,1.38,0,2.06,0s1.37,0,2.05,0l.44,0a2.13,2.13,0,0,1,.43.13,1.36,1.36,0,0,1,.3.13A.7.7,0,0,1,66.75,85.31Z"/><path class="cls-6" d="M77.07,96.19l0,.2c0,.07,0,.14,0,.22A.64.64,0,0,1,77,97a.7.7,0,0,1-.14.17.74.74,0,0,1-.21.13,1.45,1.45,0,0,1-.95.18,1.37,1.37,0,0,1-.45-.23l0-.05s0,0,0,0l0,0-.06,0a1.77,1.77,0,0,1-.14-.17s-.07-.11-.11-.17a.89.89,0,0,0-.08-.17l-.1-.17a.54.54,0,0,0-.07-.13.78.78,0,0,1,0-.14,1,1,0,0,1-.09-.28L74,95H71.58c-.82,0-1.64,0-2.46,0l-.37.88a.34.34,0,0,0,0,.14.37.37,0,0,1,0,.14.42.42,0,0,0-.06.14l-.07.13-.1.17c0,.05-.06.11-.09.17l-.09.17-.15.17,0,0,0,0,0,0a.23.23,0,0,0,0,.05,1.37,1.37,0,0,1-.45.23,1.45,1.45,0,0,1-1-.18.74.74,0,0,1-.21-.13.7.7,0,0,1-.14-.17.64.64,0,0,1-.13-.4,1.55,1.55,0,0,1,0-.22,1.62,1.62,0,0,1,0-.2,2,2,0,0,1,.09-.33l0-.16,3.71-9.14.11-.29.09-.19a.63.63,0,0,0,.09-.22,3.13,3.13,0,0,1,.2-.41.82.82,0,0,1,.12-.2,2.09,2.09,0,0,0,.14-.17.83.83,0,0,1,.31-.24,1.91,1.91,0,0,1,1.16,0,.73.73,0,0,1,.3.24,3,3,0,0,1,.27.37,3.13,3.13,0,0,1,.2.41.63.63,0,0,0,.09.22l.09.19.1.29,3.72,9.14,0,.16A2,2,0,0,1,77.07,96.19Zm-4.23-4.38-.48-1.07-.5-1.13-.15-.33c0-.11-.09-.22-.14-.33,0,.11-.08.22-.13.33a2.52,2.52,0,0,1-.14.33c-.18.38-.35.76-.51,1.13l-.47,1.07L70,92.6h3.16Z"/><path class="cls-6" d="M87.75,96.61a.94.94,0,0,1,0,.34.61.61,0,0,1-.1.18,1.06,1.06,0,0,1-.15.15,2.14,2.14,0,0,1-.4.19,1.31,1.31,0,0,1-.27.06.66.66,0,0,1-.28,0,.85.85,0,0,1-.5-.22,2.57,2.57,0,0,1-.5-.55l-.2-.32c-.07-.12-.13-.25-.19-.38l-2-3.77h-.28l-.29,0a5.61,5.61,0,0,1-.7,0,4,4,0,0,0-.69,0h-.34v3.23a2.44,2.44,0,0,1,0,.27c0,.08,0,.17,0,.26a2.27,2.27,0,0,1,0,.24,2.11,2.11,0,0,1,0,.26,1.39,1.39,0,0,1-.16.41,1.22,1.22,0,0,1-.34.34,1.21,1.21,0,0,1-.91.13,1.77,1.77,0,0,1-.45-.18.53.53,0,0,1-.13-.13L78.71,97l-.06-.19-.06-.19a1,1,0,0,1,0-.34V86.15a1.85,1.85,0,0,1,0-.23,1.23,1.23,0,0,1,0-.2,1,1,0,0,1,.13-.39.46.46,0,0,1,.18-.31,1,1,0,0,1,.33-.19,1.89,1.89,0,0,1,.65-.06l1.59,0c.52,0,1,0,1.57,0,.34,0,.71.06,1.1.11a5.18,5.18,0,0,1,1.08.28l.59.25a3.93,3.93,0,0,1,.53.37,3.67,3.67,0,0,1,1,1.38,4.41,4.41,0,0,1,.32,1.62,3.53,3.53,0,0,1-.45,1.77,2.76,2.76,0,0,1-1.46,1.2.15.15,0,0,1-.1,0l-.1,0,1.65,3.31.16.28a.89.89,0,0,0,.09.16l.09.18a1.21,1.21,0,0,1,.09.2c0,.07.07.13.1.19S87.73,96.51,87.75,96.61Zm-4.46-6.35a1.58,1.58,0,0,0,.61-.12,2.05,2.05,0,0,0,.54-.31,2,2,0,0,0,.4-.46,1.12,1.12,0,0,0,.18-.56,1.46,1.46,0,0,0-.46-1.33A2.39,2.39,0,0,0,83.14,87c-.34,0-.72,0-1.13,0H80.84c0,.49,0,1,0,1.49s0,1.1,0,1.8Z"/><path class="cls-6" d="M97.9,85.31a.72.72,0,0,1,.19.48V86l0,.21a.82.82,0,0,1-.23.37.86.86,0,0,1-.4.16,1,1,0,0,1-.25.06l-.26,0-.25,0H95.49l-.64,0h-.61c0,.37,0,.76,0,1.19v1.47c0,.56,0,1.21,0,2s0,1.59,0,2.57v1.36a.94.94,0,0,0,0,.26v.14a1,1,0,0,1,0,.15,3.18,3.18,0,0,0-.06.37.91.91,0,0,1,0,.17,1.15,1.15,0,0,1-.06.17.3.3,0,0,0-.07.11l0,.11a.91.91,0,0,1-.34.34,1.3,1.3,0,0,1-.88.09,1,1,0,0,1-.46-.16.94.94,0,0,1-.23-.33,1,1,0,0,1-.13-.37,1.27,1.27,0,0,1-.05-.34V87H90.71c-.26,0-.5,0-.73,0l-.46,0-.33-.06a2.45,2.45,0,0,1-.37-.07,1.23,1.23,0,0,1-.59-.34.76.76,0,0,1-.19-.52V85.7a.64.64,0,0,1,0-.2.58.58,0,0,1,.29-.35l.22-.14a1.21,1.21,0,0,1,.3-.11,2.23,2.23,0,0,1,.53-.11l.29,0h1.49c.38,0,.77,0,1.19,0,.69,0,1.38,0,2.06,0s1.37,0,2,0l.44,0a2.13,2.13,0,0,1,.43.13,1.69,1.69,0,0,1,.31.13A.77.77,0,0,1,97.9,85.31Z"/></g></g></svg>