<svg xmlns="http://www.w3.org/2000/svg" xmlns:xlink="http://www.w3.org/1999/xlink" viewBox="0 0 133.92 116.37"><defs><style>.cls-1{fill:#0173d7;}.cls-2{fill:#0193e0;}.cls-3{fill:url(#무제_그라디언트_5);}.cls-4{opacity:0.5;fill:url(#무제_그라디언트_3);}.cls-5{fill:#002083;}.cls-6{fill:#fff;}.cls-7{fill:#efefef;}.cls-12,.cls-14,.cls-15,.cls-8{fill:none;stroke-miterlimit:10;}.cls-12,.cls-8{stroke:#cccbcb;}.cls-8{stroke-width:0.2px;}.cls-9{fill:#b2b2b2;}.cls-10{fill:#a4a4a4;}.cls-11{fill:#ec2024;}.cls-12{stroke-width:0.21px;}.cls-13{fill:#cccbcb;}.cls-14{stroke:#002083;stroke-width:2px;}.cls-15{stroke:#fff;stroke-width:2.89px;}</style><linearGradient id="무제_그라디언트_5" x1="66.95" y1="-4003.03" x2="66.95" y2="-3909.51" gradientTransform="matrix(1, 0, 0, -1, 0, -3890)" gradientUnits="userSpaceOnUse"><stop offset="0" stop-color="#fff" stop-opacity="0.5"/><stop offset="0.5" stop-color="#fff" stop-opacity="0"/><stop offset="1" stop-color="#fff" stop-opacity="0"/></linearGradient><linearGradient id="무제_그라디언트_3" x1="74.07" y1="-3890.49" x2="67.68" y2="-3923.39" gradientTransform="matrix(1, 0, 0, -1, 0, -3890)" gradientUnits="userSpaceOnUse"><stop offset="0" stop-color="#fff"/><stop offset="1" stop-color="#fff" stop-opacity="0.39"/></linearGradient></defs><g id="레이어_2" data-name="레이어 2"><g id="Layer_1" data-name="Layer 1"><path class="cls-1" d="M16.48,115.48c-8.3,0-15.59-6.86-15.59-14.67,0,0,0-10.38,0-16.67,0-2.41.23-4.87,2-4.87,1,0,1.84,1,2.82,2.43a6.8,6.8,0,0,0,5.59,3.06h.43c1.79,0,2.83-.73,4.24-2.17,2.2-2.26,2.31-6.2,2.42-24.42C18.26,40,18.16,36,16,33.78c-1.41-1.44-2.45-2.18-4.23-2.18l-.44,0a6.77,6.77,0,0,0-5.59,3.05c-1,1.46-1.83,2.43-2.82,2.43C1.15,37.1.92,34.64.92,32.23c0-6.28,0-16.67,0-16.67C.89,7.75,8.18.89,16.48.89h84.93a14.53,14.53,0,0,1,14.36,14.67S116,32.61,116,33c0,5.37,1.64,5.37,3.23,5.37,1.75,0,2.35-.91,3.17-2.18.93-1.44,2.1-3.22,5.21-3.22,5.38,0,5.4,8.5,5.43,21.37l0,4,0,3.69c0,12.87-.05,21.37-5.43,21.37-3.12,0-4.28-1.79-5.21-3.23-.83-1.27-1.43-2.19-3.17-2.19C117.6,78,116,78,116,83.4c0,.37-.19,17.42-.19,17.42a14.54,14.54,0,0,1-14.36,14.66Z"/><path class="cls-2" d="M16.48,6.07h84.93a11.88,11.88,0,0,1,11.73,12c.06,5.89.19,17.07.19,17.42,0,5.63,1.75,8,5.86,8,3.16,0,4.42-2,5.36-3.38s1.31-2,3-2c2.76,0,2.77,9.07,2.8,18.67,0,.7,0,2,0,2.9,0-.45,0-.88,0-1.33,0,0,0-2.87,0-4.08,0-9.6,0-18.67-2.8-18.67-1.71,0-2.18.72-3,2S122.35,41,119.19,41c-4.11,0-5.86-2.41-5.86-8,0-.34-.13-11.53-.19-17.42a11.88,11.88,0,0,0-11.73-12H16.48c-6.78,0-13,5.72-13,12V18C3.58,11.74,9.73,6.07,16.48,6.07Z"/><path class="cls-2" d="M3.54,86.65c0-.33,0-.62,0-.87a9.36,9.36,0,0,0,7.56,4.14c.2,0,.4,0,.59,0,3,0,4.65-1.46,6.11-3,3-3.1,3.06-7.1,3.17-26.28V59.45c-.11,18.1-.2,22-3.17,25-1.46,1.5-3.14,3-6.11,3l-.59,0a9.36,9.36,0,0,1-7.56-4.14c0,.26,0,.54,0,.86,0,6.29,0,16.67,0,16.67v.09C3.53,97.45,3.54,91.05,3.54,86.65Z"/><path class="cls-3" d="M16.48,112.82c-6.78,0-13-5.73-13-12,0,0,0-10.38,0-16.67,0-.33,0-.61,0-.87a9.37,9.37,0,0,0,7.56,4.15l.6,0c3,0,4.64-1.47,6.1-3,3-3.1,3.06-7.1,3.17-26.27C20.88,39,20.86,35,17.82,31.9c-1.46-1.5-3.14-3-6.1-3-.2,0-.4,0-.6,0A9.36,9.36,0,0,0,3.56,33.1c0-.29,0-.58,0-.87,0-6.29,0-16.67,0-16.67,0-6.28,6.18-12,13-12h84.93a11.88,11.88,0,0,1,11.73,12c.06,5.89.19,17.08.19,17.42,0,5.64,1.75,8,5.86,8,3.16,0,4.42-2,5.36-3.38s1.31-2,3-2c2.76,0,2.77,9.07,2.8,18.68,0,1.2,0,4.08,0,4.08,0,1.26,0,2.51,0,3.72,0,9.6,0,18.67-2.8,18.67-1.71,0-2.18-.72-3-2s-2.2-3.38-5.36-3.38c-4.11,0-5.86,2.41-5.86,8,0,.34-.13,11.52-.19,17.39a11.89,11.89,0,0,1-11.73,12H16.48Z"/><path class="cls-4" d="M3.56,33.1A9.36,9.36,0,0,1,11.12,29c.2,0,.4,0,.6,0,3,0,4.64,1.46,6.1,3,2.87,2.94,3.05,10.94,3.16,27.55,32.22,7.24,46.82-3.2,80.87-3.2,20.34,0,14.33,1.23,28.54,3.4,0-.43,0-.85,0-1.29,0,0,0-2.87,0-4.08,0-9.6,0-18.67-2.8-18.67-1.71,0-2.18.72-3,2S122.36,41,119.2,41c-4.11,0-5.85-2.41-5.85-8.05,0-.34-.14-11.52-.2-17.41a11.88,11.88,0,0,0-11.73-12H16.48c-6.78,0-13,5.72-13,12,0,0,0,10.38,0,16.67C3.54,32.56,3.55,32.85,3.56,33.1Z"/><path class="cls-5" d="M101.41,1.79a13.63,13.63,0,0,1,13.47,13.77s.18,17,.18,17.42c0,5.56,1.75,6.27,4.13,6.27,4.58,0,3.26-5.41,8.38-5.41,4.93,0,4.47,10,4.55,24.17v.36c-.08,14.13.38,24.17-4.55,24.17-5.12,0-3.8-5.41-8.38-5.41-2.38,0-4.13.71-4.13,6.27,0,.37-.18,17.41-.18,17.41a13.62,13.62,0,0,1-13.47,13.78H16.48c-7.44,0-14.69-6.16-14.69-13.78,0,0,0-10.38,0-16.67,0-3,.46-4,1.06-4S4.34,81.3,5,82.2a7.59,7.59,0,0,0,6.27,3.46h.49c2.22,0,3.47-1,4.88-2.44,2.48-2.54,2.56-6.32,2.67-25-.11-18.71-.19-22.49-2.67-25-1.41-1.45-2.66-2.45-4.88-2.45l-.49,0A7.58,7.58,0,0,0,5,34.17c-.61.91-1.43,2-2.08,2s-1.06-1-1.06-4c0-6.29,0-16.67,0-16.67C1.79,8,9,1.79,16.48,1.79h84.93m0-1.79H16.48C7.7,0,0,7.27,0,15.56c0,0,0,10.39,0,16.67C0,34,0,38,2.87,38c1.54,0,2.64-1.46,3.56-2.82a5.8,5.8,0,0,1,4.9-2.66h.38c1.49,0,2.32.59,3.6,1.91,2,2,2.06,5.87,2.16,23.79C17.36,76.1,17.27,80,15.31,82,14,83.29,13.2,83.88,11.7,83.88l-.37,0a5.79,5.79,0,0,1-4.9-2.66c-.92-1.37-2-2.82-3.56-2.82A2.55,2.55,0,0,0,.41,80.5,13,13,0,0,0,0,84.14c0,6.29,0,16.66,0,16.66,0,8.3,7.7,15.57,16.48,15.57h84.93a15.43,15.43,0,0,0,15.25-15.57c0-.67.19-17,.19-17.4,0-4.5,1-4.5,2.34-4.5,1.2,0,1.56.46,2.42,1.78s2.36,3.64,6,3.64c6.27,0,6.29-8.86,6.32-22.27,0-1.19,0-2.42,0-3.68V58c0-1.27,0-2.5,0-3.69,0-13.41-.05-22.26-6.32-22.26-3.61,0-5,2.18-6,3.62s-1.22,1.78-2.42,1.78c-1.36,0-2.34,0-2.34-4.48,0-.38-.18-16.74-.19-17.44A15.42,15.42,0,0,0,101.41,0Z"/><path class="cls-5" d="M54.7,93.75a2.72,2.72,0,0,1,.13.56,4.06,4.06,0,0,1,0,1.27,3.12,3.12,0,0,1-.12.54,3.16,3.16,0,0,1-1.14,1.67,5.6,5.6,0,0,1-2,1,6.65,6.65,0,0,1-2.27.21,5.1,5.1,0,0,1-2.08-.59,3.64,3.64,0,0,1-1-.78,5,5,0,0,1-.69-1,1.25,1.25,0,0,1-.14-.45,1.19,1.19,0,0,1,0-.5,1.05,1.05,0,0,1,.23-.43.78.78,0,0,1,.45-.26,1.64,1.64,0,0,1,.4,0A1.67,1.67,0,0,1,47,95a1.44,1.44,0,0,1,.39.2.89.89,0,0,1,.28.37,2.27,2.27,0,0,0,.57.68,3.43,3.43,0,0,0,.77.51,3.06,3.06,0,0,0,1.19.16,3,3,0,0,0,1.09-.26,2.2,2.2,0,0,0,.8-.64,1.49,1.49,0,0,0,.3-.92,1.76,1.76,0,0,0-.12-.7,1.38,1.38,0,0,0-.35-.47,2,2,0,0,0-.54-.31,4.3,4.3,0,0,0-.69-.21,5,5,0,0,0-.86-.13c-.3,0-.59,0-.89-.09a8.3,8.3,0,0,1-.87-.14,4.12,4.12,0,0,1-.84-.27,2.53,2.53,0,0,1-1.25-1,3.35,3.35,0,0,1-.51-1.5,3.68,3.68,0,0,1,.19-1.6,3.27,3.27,0,0,1,.85-1.36,3.31,3.31,0,0,1,1.37-.74,7.31,7.31,0,0,1,1.76-.26,9.74,9.74,0,0,1,1.08,0,8.85,8.85,0,0,1,1,.18,6.22,6.22,0,0,1,1,.32,3.16,3.16,0,0,1,.76.47,2.94,2.94,0,0,1,.46.47,2.22,2.22,0,0,1,.36.63,1.28,1.28,0,0,1,.08.63.76.76,0,0,1-.38.52.84.84,0,0,1-.55.15,1.28,1.28,0,0,1-.49-.16,3.19,3.19,0,0,1-.44-.31l-.4-.32A2.85,2.85,0,0,0,51,88.35a4.72,4.72,0,0,0-1.34,0,4,4,0,0,0-.74.18,1.85,1.85,0,0,0-.58.34,1.46,1.46,0,0,0-.47,1.23.84.84,0,0,0,.17.48,1.26,1.26,0,0,0,.37.32,2,2,0,0,0,.5.2,4.52,4.52,0,0,0,.53.11c.54.07,1.07.12,1.61.16a4.78,4.78,0,0,1,1.57.36,4,4,0,0,1,1.34.82A2.88,2.88,0,0,1,54.7,93.75Z"/><path class="cls-5" d="M65.45,86.85a.77.77,0,0,1,.2.49c0,.07,0,.14,0,.22s0,.15,0,.2a.85.85,0,0,1-.23.38,1.15,1.15,0,0,1-.4.16l-.25,0-.26.06-.25,0H61.79c0,.37,0,.77,0,1.19s0,.91,0,1.47,0,1.21,0,2,0,1.6,0,2.57V97a1.65,1.65,0,0,0,0,.27v.13a1.37,1.37,0,0,1,0,.16,3,3,0,0,0-.05.37.88.88,0,0,1,0,.17.7.7,0,0,1-.06.17s-.07.08-.07.11l0,.1a.85.85,0,0,1-.34.34,1.3,1.3,0,0,1-.88.09.92.92,0,0,1-.46-.16,1.07,1.07,0,0,1-.23-.32,1.27,1.27,0,0,1-.13-.37,1.33,1.33,0,0,1,0-.34V88.51H58.26l-.72,0a3.24,3.24,0,0,1-.47,0l-.33,0-.36-.07a1.26,1.26,0,0,1-.59-.34.76.76,0,0,1-.2-.52v-.21a.42.42,0,0,1,0-.2.6.6,0,0,1,.28-.36l.22-.13a1.44,1.44,0,0,1,.3-.12,2.27,2.27,0,0,1,.53-.1,1.46,1.46,0,0,1,.29,0h1.49l1.19,0H62c.69,0,1.37,0,2.05,0l.44,0a2.11,2.11,0,0,1,.43.12,1.73,1.73,0,0,1,.31.14A.74.74,0,0,1,65.45,86.85Z"/><path class="cls-5" d="M69.16,86.73a5.32,5.32,0,0,1,2.17-.39,3.91,3.91,0,0,1,1.75.49A4.17,4.17,0,0,1,74.39,88a6.28,6.28,0,0,1,.88,1.64,7.37,7.37,0,0,1,.41,1.43,8.51,8.51,0,0,1,.17,1.49,10.13,10.13,0,0,1,0,1.46,7.53,7.53,0,0,1-.26,1.32,5.07,5.07,0,0,1-.25.75,6.16,6.16,0,0,1-.34.68A3.84,3.84,0,0,1,73.8,98a4.79,4.79,0,0,1-1.55.68,4.57,4.57,0,0,1-1.17.13,5.34,5.34,0,0,1-1.2-.16,5,5,0,0,1-1.14-.45,4.13,4.13,0,0,1-1-.74,4.67,4.67,0,0,1-.91-1.24,6.92,6.92,0,0,1-.55-1.48A8.42,8.42,0,0,1,66,93.19a9.39,9.39,0,0,1,0-1.5,7,7,0,0,1,.26-1.41,6.26,6.26,0,0,1,1.55-2.7A3.66,3.66,0,0,1,69.16,86.73Zm4.18,7.64a6.26,6.26,0,0,0,.18-1.89,6.74,6.74,0,0,0-.34-2,4.12,4.12,0,0,0-.49-1,2.09,2.09,0,0,0-.69-.67,1.8,1.8,0,0,0-.94-.23,2.7,2.7,0,0,0-1.2.32,2.16,2.16,0,0,0-.67.53,3.46,3.46,0,0,0-.45.77,5.36,5.36,0,0,0-.26.89,4.84,4.84,0,0,0-.12.9c0,.31,0,.63,0,1a5.91,5.91,0,0,0,.12,1,4.86,4.86,0,0,0,.28,1,2.5,2.5,0,0,0,.48.82,2.53,2.53,0,0,0,1.08.74,2.21,2.21,0,0,0,1.22.06,2.14,2.14,0,0,0,1.5-1.3A3.09,3.09,0,0,0,73.34,94.37Z"/><path class="cls-5" d="M85.4,87.42a4,4,0,0,1,1.25,3.22,3.25,3.25,0,0,1-.52,1.51,2.67,2.67,0,0,1-1.35,1,6.06,6.06,0,0,1-1.42.43,15.06,15.06,0,0,1-1.53.2c-.25,0-.46,0-.64,0l-.59,0h-.25l-.24,0v3.7c0,.22-.08.45-.13.69a.84.84,0,0,1-.42.56,1.13,1.13,0,0,1-.48.12,2.18,2.18,0,0,1-.52,0,1.16,1.16,0,0,1-.42-.13.73.73,0,0,1-.28-.35c0-.11-.09-.23-.13-.36a1.88,1.88,0,0,1-.06-.51V87.73a1.69,1.69,0,0,1,0-.23l0-.22a1.05,1.05,0,0,0,0-.19,1,1,0,0,1,.06-.2.8.8,0,0,1,.08-.16A.69.69,0,0,1,78,86.6a.9.9,0,0,1,.28-.16,1.62,1.62,0,0,1,.56-.07h0l1.23-.06a6.61,6.61,0,0,1,1.13,0l.46,0c.14,0,.28,0,.41,0l.43,0c.14,0,.29,0,.43.06l.33,0,.31,0,.32.07a1.2,1.2,0,0,1,.31.13,2.1,2.1,0,0,1,.62.27C85.05,87.17,85.22,87.29,85.4,87.42Zm-1.07,3a1.43,1.43,0,0,0-.17-.75,1.58,1.58,0,0,0-.53-.53,2.57,2.57,0,0,0-.77-.34,4.3,4.3,0,0,0-.85-.18h-.3l-.4,0-.4,0h-.8c0,.37,0,.72,0,1.06v1.1c0,.21,0,.43,0,.64v.63l1.11,0a8.34,8.34,0,0,0,1-.06,4,4,0,0,0,1-.21,2.43,2.43,0,0,0,.8-.46A1.26,1.26,0,0,0,84.33,90.37Z"/><path class="cls-6" d="M52.91,93.75a2.72,2.72,0,0,1,.13.56,4.06,4.06,0,0,1,0,1.27,3.19,3.19,0,0,1-.11.54,3.16,3.16,0,0,1-1.14,1.67,5.73,5.73,0,0,1-2,1,6.62,6.62,0,0,1-2.27.21,5.14,5.14,0,0,1-2.08-.59,3.59,3.59,0,0,1-1-.78,4.63,4.63,0,0,1-.7-1,1.08,1.08,0,0,1-.13-.45,1.21,1.21,0,0,1,.27-.93.78.78,0,0,1,.45-.26,1.64,1.64,0,0,1,.4,0,1.61,1.61,0,0,1,.44.06,1.44,1.44,0,0,1,.39.2.91.91,0,0,1,.29.37,2.24,2.24,0,0,0,.56.68,3.27,3.27,0,0,0,.78.51,3,3,0,0,0,1.19.16,3,3,0,0,0,1.09-.26,2.17,2.17,0,0,0,.79-.64,1.49,1.49,0,0,0,.3-.92,1.76,1.76,0,0,0-.12-.7,1.26,1.26,0,0,0-.35-.47,2.11,2.11,0,0,0-.53-.31,4.3,4.3,0,0,0-.69-.21,5.23,5.23,0,0,0-.87-.13c-.29,0-.59,0-.88-.09A8.49,8.49,0,0,1,46.3,93a4.55,4.55,0,0,1-.84-.27,2.58,2.58,0,0,1-1.25-1,3.62,3.62,0,0,1-.51-1.5,3.83,3.83,0,0,1,.19-1.6,3.14,3.14,0,0,1,2.22-2.1,7.31,7.31,0,0,1,1.76-.26,9.74,9.74,0,0,1,1.08,0,8.67,8.67,0,0,1,1.06.18,6.09,6.09,0,0,1,.94.32,3.37,3.37,0,0,1,1.23.94,2.84,2.84,0,0,1,.36.63,1.28,1.28,0,0,1,.08.63.75.75,0,0,1-.39.52.83.83,0,0,1-.54.15,1.18,1.18,0,0,1-.49-.16,2.77,2.77,0,0,1-.45-.31l-.39-.32a2.89,2.89,0,0,0-1.2-.49,4.71,4.71,0,0,0-1.34,0,3.9,3.9,0,0,0-.73.18,1.74,1.74,0,0,0-.58.34,1.47,1.47,0,0,0-.38.53,1.44,1.44,0,0,0-.1.7.92.92,0,0,0,.17.48,1.18,1.18,0,0,0,.38.32,1.94,1.94,0,0,0,.49.2,5.17,5.17,0,0,0,.54.11c.53.07,1.07.12,1.6.16a4.9,4.9,0,0,1,1.58.36,3.88,3.88,0,0,1,1.33.82A2.79,2.79,0,0,1,52.91,93.75Z"/><path class="cls-6" d="M63.66,86.85a.77.77,0,0,1,.2.49,1.7,1.7,0,0,1,0,.22.94.94,0,0,1,0,.2.77.77,0,0,1-.23.38,1,1,0,0,1-.39.16l-.25,0-.27.06-.25,0H60c0,.37,0,.77,0,1.19s0,.91,0,1.47,0,1.21,0,2,0,1.6,0,2.57V97a1.65,1.65,0,0,0,0,.27v.13a.53.53,0,0,1,0,.16,3,3,0,0,0,0,.37.88.88,0,0,1,0,.17,1.54,1.54,0,0,1,0,.17s-.07.08-.07.11l-.06.1a.85.85,0,0,1-.34.34,1.28,1.28,0,0,1-.87.09,1,1,0,0,1-.47-.16,1.28,1.28,0,0,1-.23-.32A1,1,0,0,1,57.7,98a1,1,0,0,1-.06-.34V88.51H56.47l-.72,0a2.92,2.92,0,0,1-.46,0l-.33,0-.37-.07A1.26,1.26,0,0,1,54,88a.81.81,0,0,1-.2-.52v-.21a.59.59,0,0,1,0-.2.62.62,0,0,1,.29-.36l.22-.13a1.38,1.38,0,0,1,.29-.12,2.37,2.37,0,0,1,.54-.1,1.32,1.32,0,0,1,.28,0H57l1.18,0h2.07c.68,0,1.36,0,2,0l.45,0a2.54,2.54,0,0,1,.43.12,1.64,1.64,0,0,1,.3.14A.64.64,0,0,1,63.66,86.85Z"/><path class="cls-6" d="M67.38,86.73a5.29,5.29,0,0,1,2.17-.39,3.83,3.83,0,0,1,1.74.49A4.17,4.17,0,0,1,72.6,88a6.3,6.3,0,0,1,.89,1.64,8.15,8.15,0,0,1,.41,1.43,11,11,0,0,1,.17,1.49A8.87,8.87,0,0,1,74,94a8.59,8.59,0,0,1-.25,1.32c-.08.27-.16.52-.25.75s-.21.45-.34.68A3.87,3.87,0,0,1,72,98a4.74,4.74,0,0,1-1.54.68,4.64,4.64,0,0,1-1.18.13,5.41,5.41,0,0,1-1.2-.16A4.76,4.76,0,0,1,67,98.22a3.77,3.77,0,0,1-1-.74,4.46,4.46,0,0,1-.91-1.24,6.94,6.94,0,0,1-.56-1.48,9.33,9.33,0,0,1-.25-1.57,12.51,12.51,0,0,1,0-1.5,7.84,7.84,0,0,1,.26-1.41,6.45,6.45,0,0,1,.6-1.44,5.39,5.39,0,0,1,1-1.26A3.58,3.58,0,0,1,67.38,86.73Zm4.18,7.64a7,7,0,0,0,.18-1.89,7.46,7.46,0,0,0-.34-2,4.52,4.52,0,0,0-.49-1,2.12,2.12,0,0,0-.7-.67,1.8,1.8,0,0,0-.94-.23,2.7,2.7,0,0,0-1.2.32,2.16,2.16,0,0,0-.67.53,3.08,3.08,0,0,0-.44.77,5.38,5.38,0,0,0-.27.89,7.43,7.43,0,0,0-.12.9,7.79,7.79,0,0,0,0,1,7.07,7.07,0,0,0,.11,1A5.64,5.64,0,0,0,67,95a2.9,2.9,0,0,0,.48.82,2.53,2.53,0,0,0,1.08.74,2.24,2.24,0,0,0,1.23.06,2.18,2.18,0,0,0,1.5-1.3A3.41,3.41,0,0,0,71.56,94.37Z"/><path class="cls-6" d="M83.61,87.42a3.83,3.83,0,0,1,1,1.5,4.12,4.12,0,0,1,.25,1.72,3.37,3.37,0,0,1-.52,1.51,2.7,2.7,0,0,1-1.36,1,6.13,6.13,0,0,1-1.41.43c-.47.09-1,.15-1.54.2-.25,0-.46,0-.63,0l-.6,0h-.24l-.24,0v3.7c0,.22-.08.45-.14.69a.84.84,0,0,1-.42.56,1.13,1.13,0,0,1-.48.12,2.2,2.2,0,0,1-.52,0,1.29,1.29,0,0,1-.42-.13.71.71,0,0,1-.27-.35,3,3,0,0,1-.14-.36,1.88,1.88,0,0,1-.06-.51V87.73a1.64,1.64,0,0,1,0-.23l0-.22a.6.6,0,0,0,.06-.19,1,1,0,0,1,.05-.2c0-.06,0-.11.08-.16a.49.49,0,0,1,.12-.13.83.83,0,0,1,.27-.16,1.69,1.69,0,0,1,.57-.07h0l1.24-.06a6.49,6.49,0,0,1,1.12,0l.47,0,.41,0,.42,0c.15,0,.29,0,.43.06l.33,0,.32,0,.31.07a1.07,1.07,0,0,1,.31.13,2.3,2.3,0,0,1,.63.27C83.26,87.17,83.44,87.29,83.61,87.42Zm-1.07,3a1.34,1.34,0,0,0-.17-.75,1.55,1.55,0,0,0-.52-.53,2.82,2.82,0,0,0-.77-.34,4.39,4.39,0,0,0-.86-.18h-.29l-.41,0-.4,0h-.79c0,.37,0,.72,0,1.06v1.1c0,.21,0,.43,0,.64v.63l1.1,0a8.21,8.21,0,0,0,.95-.06,3.88,3.88,0,0,0,1-.21,2.33,2.33,0,0,0,.8-.46A1.22,1.22,0,0,0,82.54,90.37Z"/><rect class="cls-5" x="30.42" y="29.08" width="5.79" height="35.3" rx="1.48" transform="translate(66.63 93.46) rotate(180)"/><rect class="cls-5" x="31.21" y="25.14" width="5.79" height="42.25" rx="1.62" transform="translate(68.22 92.54) rotate(-180)"/><path class="cls-5" d="M32.32,27.64H35.9A1.11,1.11,0,0,1,37,28.74v1a.17.17,0,0,1-.17.17H31.39a.17.17,0,0,1-.17-.17v-1a1.11,1.11,0,0,1,1.11-1.11Z"/><rect class="cls-5" x="31.21" y="32.75" width="5.79" height="2.29" rx="0.17"/><rect class="cls-5" x="31.21" y="37.86" width="5.79" height="2.29" rx="0.17"/><rect class="cls-5" x="31.21" y="42.97" width="5.79" height="2.29" rx="0.17"/><rect class="cls-5" x="31.21" y="48.08" width="5.79" height="2.29" rx="0.17"/><rect class="cls-5" x="31.21" y="53.19" width="5.79" height="2.29" rx="0.17"/><rect class="cls-5" x="31.21" y="58.3" width="5.79" height="2.29" rx="0.17"/><path class="cls-5" d="M31.39,63.41h5.45a.17.17,0,0,1,.17.17v1A1.11,1.11,0,0,1,35.9,65.7H32.32a1.11,1.11,0,0,1-1.11-1.11v-1a.17.17,0,0,1,.17-.17Z"/><rect class="cls-5" x="99.53" y="28.16" width="5.79" height="35.3" rx="1.48"/><rect class="cls-5" x="98.73" y="25.14" width="5.79" height="42.25" rx="1.62"/><path class="cls-5" d="M99.84,62.61h3.58a1.11,1.11,0,0,1,1.11,1.11v1a.17.17,0,0,1-.17.17H98.9a.17.17,0,0,1-.17-.17v-1a1.11,1.11,0,0,1,1.11-1.11Z" transform="translate(203.25 127.52) rotate(180)"/><rect class="cls-5" x="98.73" y="57.5" width="5.79" height="2.29" rx="0.17" transform="translate(203.25 117.3) rotate(180)"/><rect class="cls-5" x="98.73" y="52.39" width="5.79" height="2.29" rx="0.17" transform="translate(203.25 107.07) rotate(180)"/><rect class="cls-5" x="98.73" y="47.28" width="5.79" height="2.29" rx="0.17" transform="translate(203.25 96.85) rotate(180)"/><rect class="cls-5" x="98.73" y="42.17" width="5.79" height="2.29" rx="0.17" transform="translate(203.25 86.63) rotate(180)"/><rect class="cls-5" x="98.73" y="37.06" width="5.79" height="2.29" rx="0.17" transform="translate(203.25 76.41) rotate(180)"/><rect class="cls-5" x="98.73" y="31.95" width="5.79" height="2.29" rx="0.17" transform="translate(203.25 66.19) rotate(180)"/><path class="cls-5" d="M98.9,26.84h5.45a.17.17,0,0,1,.17.17v1a1.11,1.11,0,0,1-1.11,1.11H99.84A1.11,1.11,0,0,1,98.73,28V27a.17.17,0,0,1,.17-.17Z" transform="translate(203.25 55.97) rotate(180)"/><rect class="cls-5" x="37.07" y="30.89" width="30.76" height="30.76" rx="2.02"/><path class="cls-5" d="M51.7,29.51h1.12a.38.38,0,0,1,.38.38v3.5a.38.38,0,0,1-.38.38H51.7a0,0,0,0,1,0,0V29.51A0,0,0,0,1,51.7,29.51Z" transform="translate(84.09 -20.81) rotate(90)"/><path class="cls-5" d="M51.7,58.77h1.12a.38.38,0,0,1,.38.38v3.5a.38.38,0,0,1-.38.38H51.7a0,0,0,0,1,0,0V58.77A0,0,0,0,1,51.7,58.77Z" transform="translate(-8.44 113.35) rotate(-90)"/><path class="cls-5" d="M66.33,44.14h1.12a.38.38,0,0,1,.38.38V48a.38.38,0,0,1-.38.38H66.33a0,0,0,0,1,0,0V44.14A0,0,0,0,1,66.33,44.14Z" transform="translate(134.16 92.54) rotate(180)"/><path class="cls-5" d="M37.07,44.14h1.12a.38.38,0,0,1,.38.38V48a.38.38,0,0,1-.38.38H37.07a0,0,0,0,1,0,0V44.14A0,0,0,0,1,37.07,44.14Z"/><rect class="cls-5" x="37.07" y="30.89" width="30.76" height="30.76" rx="2.02"/><rect class="cls-5" x="55.85" y="34.33" width="8.07" height="8.07" rx="2.26"/><rect class="cls-5" x="55.85" y="34.33" width="8.07" height="8.07" rx="2.26"/><rect class="cls-5" x="57.33" y="35.8" width="5.12" height="5.12" rx="1.43"/><rect class="cls-5" x="40.99" y="34.33" width="8.07" height="8.07" rx="2.26"/><rect class="cls-5" x="40.99" y="34.33" width="8.07" height="8.07" rx="2.26"/><rect class="cls-5" x="42.46" y="35.8" width="5.12" height="5.12" rx="1.43"/><rect class="cls-5" x="55.85" y="50.14" width="8.07" height="8.07" rx="2.26"/><rect class="cls-5" x="55.85" y="50.14" width="8.07" height="8.07" rx="2.26"/><rect class="cls-5" x="57.33" y="51.61" width="5.12" height="5.12" rx="1.43"/><rect class="cls-5" x="40.99" y="50.14" width="8.07" height="8.07" rx="2.26"/><rect class="cls-5" x="40.99" y="50.14" width="8.07" height="8.07" rx="2.26"/><rect class="cls-5" x="42.46" y="51.61" width="5.12" height="5.12" rx="1.43"/><rect class="cls-5" x="67.9" y="30.89" width="30.76" height="30.76" rx="2.02"/><path class="cls-5" d="M82.53,29.51h1.12a.38.38,0,0,1,.38.38v3.5a.38.38,0,0,1-.38.38H82.53a0,0,0,0,1,0,0V29.51A0,0,0,0,1,82.53,29.51Z" transform="translate(114.92 -51.64) rotate(90)"/><path class="cls-5" d="M82.53,58.77h1.12a.38.38,0,0,1,.38.38v3.5a.38.38,0,0,1-.38.38H82.53a0,0,0,0,1,0,0V58.77A0,0,0,0,1,82.53,58.77Z" transform="translate(22.38 144.18) rotate(-90)"/><path class="cls-5" d="M97.16,44.14h1.12a.38.38,0,0,1,.38.38V48a.38.38,0,0,1-.38.38H97.16a0,0,0,0,1,0,0V44.14A0,0,0,0,1,97.16,44.14Z" transform="translate(195.82 92.54) rotate(180)"/><path class="cls-5" d="M67.9,44.14H69a.38.38,0,0,1,.38.38V48a.38.38,0,0,1-.38.38H67.9a0,0,0,0,1,0,0V44.14A0,0,0,0,1,67.9,44.14Z"/><rect class="cls-5" x="67.9" y="30.89" width="30.76" height="30.76" rx="2.02"/><rect class="cls-5" x="86.68" y="34.33" width="8.07" height="8.07" rx="2.26"/><rect class="cls-5" x="86.68" y="34.33" width="8.07" height="8.07" rx="2.26"/><rect class="cls-5" x="88.16" y="35.8" width="5.12" height="5.12" rx="1.43"/><rect class="cls-5" x="71.81" y="34.33" width="8.07" height="8.07" rx="2.26"/><rect class="cls-5" x="71.81" y="34.33" width="8.07" height="8.07" rx="2.26"/><rect class="cls-5" x="73.29" y="35.8" width="5.12" height="5.12" rx="1.43"/><rect class="cls-5" x="86.68" y="50.14" width="8.07" height="8.07" rx="2.26"/><rect class="cls-5" x="86.68" y="50.14" width="8.07" height="8.07" rx="2.26"/><rect class="cls-5" x="88.16" y="51.61" width="5.12" height="5.12" rx="1.43"/><rect class="cls-5" x="71.81" y="50.14" width="8.07" height="8.07" rx="2.26"/><rect class="cls-5" x="71.81" y="50.14" width="8.07" height="8.07" rx="2.26"/><rect class="cls-5" x="73.29" y="51.61" width="5.12" height="5.12" rx="1.43"/><rect class="cls-7" x="28.6" y="29.08" width="5.79" height="35.3" rx="1.48" transform="translate(62.99 93.46) rotate(180)"/><rect class="cls-7" x="97.71" y="28.16" width="5.79" height="35.3" rx="1.48"/><rect class="cls-8" x="28.6" y="29.08" width="5.79" height="35.3" rx="1.48" transform="translate(62.99 93.46) rotate(180)"/><rect class="cls-8" x="97.71" y="28.16" width="5.79" height="35.3" rx="1.48"/><rect class="cls-9" x="29.39" y="25.14" width="5.79" height="42.25" rx="1.62" transform="translate(64.58 92.54) rotate(-180)"/><path class="cls-10" d="M30.5,27.64h3.58a1.11,1.11,0,0,1,1.11,1.11v1a.17.17,0,0,1-.17.17H29.57a.17.17,0,0,1-.17-.17v-1a1.11,1.11,0,0,1,1.11-1.11Z"/><rect class="cls-10" x="29.39" y="32.75" width="5.79" height="2.29" rx="0.17"/><rect class="cls-10" x="29.39" y="37.86" width="5.79" height="2.29" rx="0.17"/><rect class="cls-10" x="29.39" y="42.97" width="5.79" height="2.29" rx="0.17"/><rect class="cls-10" x="29.39" y="48.08" width="5.79" height="2.29" rx="0.17"/><rect class="cls-10" x="29.39" y="53.19" width="5.79" height="2.29" rx="0.17"/><rect class="cls-10" x="29.39" y="58.3" width="5.79" height="2.29" rx="0.17"/><path class="cls-10" d="M29.57,63.41H35a.17.17,0,0,1,.17.17v1a1.11,1.11,0,0,1-1.11,1.11H30.5a1.11,1.11,0,0,1-1.11-1.11v-1a.17.17,0,0,1,.17-.17Z"/><rect class="cls-9" x="96.91" y="25.14" width="5.79" height="42.25" rx="1.62"/><path class="cls-10" d="M98,62.61h3.58a1.11,1.11,0,0,1,1.11,1.11v1a.17.17,0,0,1-.17.17H97.08a.17.17,0,0,1-.17-.17v-1A1.11,1.11,0,0,1,98,62.61Z" transform="translate(199.61 127.52) rotate(180)"/><rect class="cls-10" x="96.91" y="57.5" width="5.79" height="2.29" rx="0.17" transform="translate(199.61 117.3) rotate(180)"/><rect class="cls-10" x="96.91" y="52.39" width="5.79" height="2.29" rx="0.17" transform="translate(199.61 107.07) rotate(180)"/><rect class="cls-10" x="96.91" y="47.28" width="5.79" height="2.29" rx="0.17" transform="translate(199.61 96.85) rotate(180)"/><rect class="cls-10" x="96.91" y="42.17" width="5.79" height="2.29" rx="0.17" transform="translate(199.61 86.63) rotate(180)"/><rect class="cls-10" x="96.91" y="37.06" width="5.79" height="2.29" rx="0.17" transform="translate(199.61 76.41) rotate(180)"/><rect class="cls-10" x="96.91" y="31.95" width="5.79" height="2.29" rx="0.17" transform="translate(199.61 66.19) rotate(180)"/><path class="cls-10" d="M97.08,26.84h5.45a.17.17,0,0,1,.17.17v1a1.11,1.11,0,0,1-1.11,1.11H98A1.11,1.11,0,0,1,96.91,28V27A.17.17,0,0,1,97.08,26.84Z" transform="translate(199.61 55.97) rotate(180)"/><rect class="cls-7" x="35.25" y="30.89" width="30.76" height="30.76" rx="2.02"/><path class="cls-11" d="M49.88,29.51H51a.38.38,0,0,1,.38.38v3.5a.38.38,0,0,1-.38.38H49.88a0,0,0,0,1,0,0V29.51A0,0,0,0,1,49.88,29.51Z" transform="translate(82.27 -18.99) rotate(90)"/><path class="cls-11" d="M49.88,58.77H51a.38.38,0,0,1,.38.38v3.5A.38.38,0,0,1,51,63H49.88a0,0,0,0,1,0,0V58.77A0,0,0,0,1,49.88,58.77Z" transform="translate(-10.26 111.53) rotate(-90)"/><path class="cls-11" d="M64.51,44.14h1.12a.38.38,0,0,1,.38.38V48a.38.38,0,0,1-.38.38H64.51a0,0,0,0,1,0,0V44.14A0,0,0,0,1,64.51,44.14Z" transform="translate(130.52 92.54) rotate(180)"/><path class="cls-11" d="M35.25,44.14h1.12a.38.38,0,0,1,.38.38V48a.38.38,0,0,1-.38.38H35.25a0,0,0,0,1,0,0V44.14A0,0,0,0,1,35.25,44.14Z"/><rect class="cls-12" x="35.25" y="30.89" width="30.76" height="30.76" rx="2.02"/><rect class="cls-7" x="54.03" y="34.33" width="8.07" height="8.07" rx="2.26"/><rect class="cls-12" x="54.03" y="34.33" width="8.07" height="8.07" rx="2.26"/><rect class="cls-13" x="55.51" y="35.8" width="5.12" height="5.12" rx="1.43"/><rect class="cls-7" x="39.17" y="34.33" width="8.07" height="8.07" rx="2.26"/><rect class="cls-12" x="39.17" y="34.33" width="8.07" height="8.07" rx="2.26"/><rect class="cls-13" x="40.64" y="35.8" width="5.12" height="5.12" rx="1.43"/><rect class="cls-7" x="54.03" y="50.14" width="8.07" height="8.07" rx="2.26"/><rect class="cls-12" x="54.03" y="50.14" width="8.07" height="8.07" rx="2.26"/><rect class="cls-13" x="55.51" y="51.61" width="5.12" height="5.12" rx="1.43"/><rect class="cls-7" x="39.17" y="50.14" width="8.07" height="8.07" rx="2.26"/><rect class="cls-12" x="39.17" y="50.14" width="8.07" height="8.07" rx="2.26"/><rect class="cls-13" x="40.64" y="51.61" width="5.12" height="5.12" rx="1.43"/><rect class="cls-7" x="66.08" y="30.89" width="30.76" height="30.76" rx="2.02"/><path class="cls-11" d="M80.71,29.51h1.12a.38.38,0,0,1,.38.38v3.5a.38.38,0,0,1-.38.38H80.71a0,0,0,0,1,0,0V29.51A0,0,0,0,1,80.71,29.51Z" transform="translate(113.1 -49.82) rotate(90)"/><path class="cls-11" d="M80.71,58.77h1.12a.38.38,0,0,1,.38.38v3.5a.38.38,0,0,1-.38.38H80.71a0,0,0,0,1,0,0V58.77A0,0,0,0,1,80.71,58.77Z" transform="translate(20.56 142.36) rotate(-90)"/><path class="cls-11" d="M95.34,44.14h1.12a.38.38,0,0,1,.38.38V48a.38.38,0,0,1-.38.38H95.34a0,0,0,0,1,0,0V44.14A0,0,0,0,1,95.34,44.14Z" transform="translate(192.18 92.54) rotate(180)"/><path class="cls-11" d="M66.08,44.14H67.2a.38.38,0,0,1,.38.38V48a.38.38,0,0,1-.38.38H66.08a0,0,0,0,1,0,0V44.14A0,0,0,0,1,66.08,44.14Z"/><rect class="cls-12" x="66.08" y="30.89" width="30.76" height="30.76" rx="2.02"/><rect class="cls-7" x="84.86" y="34.33" width="8.07" height="8.07" rx="2.26"/><rect class="cls-12" x="84.86" y="34.33" width="8.07" height="8.07" rx="2.26"/><rect class="cls-13" x="86.34" y="35.8" width="5.12" height="5.12" rx="1.43"/><rect class="cls-7" x="69.99" y="34.33" width="8.07" height="8.07" rx="2.26"/><rect class="cls-12" x="69.99" y="34.33" width="8.07" height="8.07" rx="2.26"/><rect class="cls-13" x="71.47" y="35.8" width="5.12" height="5.12" rx="1.43"/><rect class="cls-7" x="84.86" y="50.14" width="8.07" height="8.07" rx="2.26"/><rect class="cls-12" x="84.86" y="50.14" width="8.07" height="8.07" rx="2.26"/><rect class="cls-13" x="86.34" y="51.61" width="5.12" height="5.12" rx="1.43"/><rect class="cls-7" x="69.99" y="50.14" width="8.07" height="8.07" rx="2.26"/><rect class="cls-12" x="69.99" y="50.14" width="8.07" height="8.07" rx="2.26"/><rect class="cls-13" x="71.47" y="51.61" width="5.12" height="5.12" rx="1.43"/><circle class="cls-14" cx="68.47" cy="47.49" r="27.67"/><line class="cls-14" x1="48.01" y1="65.1" x2="92.47" y2="32.19"/><circle class="cls-15" cx="64.42" cy="47.49" r="27.67"/><line class="cls-15" x1="43.96" y1="65.1" x2="88.42" y2="32.19"/></g></g></svg>