<svg xmlns="http://www.w3.org/2000/svg" xmlns:xlink="http://www.w3.org/1999/xlink" viewBox="0 0 133.92 116.37"><defs><style>.cls-1{fill:#0173d7;}.cls-2{fill:#0193e0;}.cls-3{fill:url(#무제_그라디언트_5);}.cls-4{opacity:0.5;fill:url(#무제_그라디언트_3);}.cls-5{fill:#002083;}.cls-6{fill:#fff;}.cls-7{fill:#efefef;}.cls-12,.cls-8{fill:none;stroke:#cccbcb;stroke-miterlimit:10;}.cls-8{stroke-width:0.2px;}.cls-9{fill:#b2b2b2;}.cls-10{fill:#a4a4a4;}.cls-11{fill:#ec2024;}.cls-12{stroke-width:0.21px;}.cls-13{fill:#cccbcb;}</style><linearGradient id="무제_그라디언트_5" x1="66.95" y1="-2652.36" x2="66.95" y2="-2558.84" gradientTransform="matrix(1, 0, 0, -1, 0, -2539.33)" gradientUnits="userSpaceOnUse"><stop offset="0" stop-color="#fff" stop-opacity="0.5"/><stop offset="0.5" stop-color="#fff" stop-opacity="0"/><stop offset="1" stop-color="#fff" stop-opacity="0"/></linearGradient><linearGradient id="무제_그라디언트_3" x1="74.07" y1="-2539.81" x2="67.68" y2="-2572.72" gradientTransform="matrix(1, 0, 0, -1, 0, -2539.33)" gradientUnits="userSpaceOnUse"><stop offset="0" stop-color="#fff"/><stop offset="1" stop-color="#fff" stop-opacity="0.39"/></linearGradient></defs><g id="레이어_2" data-name="레이어 2"><g id="Layer_1" data-name="Layer 1"><path class="cls-1" d="M16.48,115.48c-8.3,0-15.59-6.86-15.59-14.67,0,0,0-10.38,0-16.67,0-2.41.23-4.87,2-4.87,1,0,1.84,1,2.82,2.43a6.8,6.8,0,0,0,5.59,3.06h.43c1.79,0,2.83-.73,4.24-2.17,2.2-2.26,2.31-6.2,2.42-24.42C18.26,40,18.16,36,16,33.78c-1.41-1.44-2.45-2.18-4.23-2.18l-.44,0a6.77,6.77,0,0,0-5.59,3.05c-1,1.46-1.83,2.43-2.82,2.43C1.15,37.1.92,34.64.92,32.23c0-6.28,0-16.67,0-16.67C.89,7.75,8.18.89,16.48.89h84.93a14.53,14.53,0,0,1,14.36,14.67S116,32.61,116,33c0,5.37,1.64,5.37,3.23,5.37,1.75,0,2.35-.91,3.17-2.18.93-1.44,2.1-3.22,5.21-3.22,5.38,0,5.4,8.5,5.43,21.37l0,4,0,3.69c0,12.87-.05,21.37-5.43,21.37-3.12,0-4.28-1.79-5.21-3.23-.83-1.27-1.43-2.19-3.17-2.19C117.6,78,116,78,116,83.4c0,.37-.19,17.42-.19,17.42a14.54,14.54,0,0,1-14.36,14.66Z"/><path class="cls-2" d="M16.48,6.07h84.93a11.88,11.88,0,0,1,11.73,12c.06,5.89.19,17.07.19,17.42,0,5.63,1.75,8,5.86,8,3.16,0,4.42-2,5.36-3.38s1.31-2,3-2c2.76,0,2.77,9.07,2.8,18.67,0,.7,0,2,0,2.9,0-.45,0-.88,0-1.33,0,0,0-2.87,0-4.08,0-9.6,0-18.67-2.8-18.67-1.71,0-2.18.72-3,2S122.35,41,119.19,41c-4.11,0-5.86-2.41-5.86-8,0-.34-.13-11.53-.19-17.42a11.88,11.88,0,0,0-11.73-12H16.48c-6.78,0-13,5.72-13,12V18C3.58,11.74,9.73,6.07,16.48,6.07Z"/><path class="cls-2" d="M3.54,86.65c0-.33,0-.62,0-.87a9.36,9.36,0,0,0,7.56,4.14c.2,0,.4,0,.59,0,3,0,4.65-1.46,6.11-3,3-3.1,3.06-7.1,3.17-26.28V59.45c-.11,18.1-.2,22-3.17,25-1.46,1.5-3.14,3-6.11,3l-.59,0a9.36,9.36,0,0,1-7.56-4.14c0,.26,0,.54,0,.86,0,6.29,0,16.67,0,16.67v.09C3.53,97.45,3.54,91.05,3.54,86.65Z"/><path class="cls-3" d="M16.48,112.82c-6.78,0-13-5.73-13-12,0,0,0-10.38,0-16.67,0-.33,0-.61,0-.87a9.37,9.37,0,0,0,7.56,4.15l.6,0c3,0,4.64-1.47,6.1-3,3-3.1,3.06-7.1,3.17-26.27C20.88,39,20.86,35,17.82,31.9c-1.46-1.5-3.14-3-6.1-3-.2,0-.4,0-.6,0A9.36,9.36,0,0,0,3.56,33.1c0-.29,0-.58,0-.87,0-6.29,0-16.67,0-16.67,0-6.28,6.18-12,13-12h84.93a11.88,11.88,0,0,1,11.73,12c.06,5.89.19,17.08.19,17.42,0,5.64,1.75,8,5.86,8,3.16,0,4.42-2,5.36-3.38s1.31-2,3-2c2.76,0,2.77,9.07,2.8,18.68,0,1.2,0,4.08,0,4.08,0,1.26,0,2.51,0,3.72,0,9.6,0,18.67-2.8,18.67-1.71,0-2.18-.72-3-2s-2.2-3.38-5.36-3.38c-4.11,0-5.86,2.41-5.86,8,0,.34-.13,11.52-.19,17.39a11.89,11.89,0,0,1-11.73,12H16.48Z"/><path class="cls-4" d="M3.56,33.1A9.36,9.36,0,0,1,11.12,29c.2,0,.4,0,.6,0,3,0,4.64,1.46,6.1,3,2.87,2.94,3.05,10.94,3.16,27.55,32.22,7.24,46.82-3.2,80.87-3.2,20.34,0,14.33,1.23,28.54,3.4,0-.43,0-.85,0-1.29,0,0,0-2.87,0-4.08,0-9.6,0-18.67-2.8-18.67-1.71,0-2.18.72-3,2S122.36,41,119.2,41c-4.11,0-5.85-2.41-5.85-8.05,0-.34-.14-11.52-.2-17.41a11.88,11.88,0,0,0-11.73-12H16.48c-6.78,0-13,5.72-13,12,0,0,0,10.38,0,16.67C3.54,32.56,3.55,32.85,3.56,33.1Z"/><path class="cls-5" d="M101.41,1.79a13.63,13.63,0,0,1,13.47,13.77s.18,17,.18,17.42c0,5.56,1.75,6.27,4.13,6.27,4.58,0,3.26-5.41,8.38-5.41,4.93,0,4.47,10,4.55,24.17v.36c-.08,14.13.38,24.17-4.55,24.17-5.12,0-3.8-5.41-8.38-5.41-2.38,0-4.13.71-4.13,6.27,0,.37-.18,17.41-.18,17.41a13.62,13.62,0,0,1-13.47,13.78H16.48c-7.44,0-14.69-6.16-14.69-13.78,0,0,0-10.38,0-16.67,0-3,.46-4,1.06-4S4.34,81.3,5,82.2a7.59,7.59,0,0,0,6.27,3.46h.49c2.22,0,3.47-1,4.88-2.44,2.48-2.54,2.56-6.32,2.67-25-.11-18.71-.19-22.49-2.67-25-1.41-1.45-2.66-2.45-4.88-2.45l-.49,0A7.58,7.58,0,0,0,5,34.17c-.61.91-1.43,2-2.08,2s-1.06-1-1.06-4c0-6.29,0-16.67,0-16.67C1.79,8,9,1.79,16.48,1.79h84.93m0-1.79H16.48C7.7,0,0,7.27,0,15.56c0,0,0,10.39,0,16.67C0,34,0,38,2.87,38c1.54,0,2.64-1.46,3.56-2.82a5.8,5.8,0,0,1,4.9-2.66h.38c1.49,0,2.32.59,3.6,1.91,2,2,2.06,5.87,2.16,23.79C17.36,76.1,17.27,80,15.31,82,14,83.29,13.2,83.88,11.7,83.88l-.37,0a5.79,5.79,0,0,1-4.9-2.66c-.92-1.37-2-2.82-3.56-2.82A2.55,2.55,0,0,0,.41,80.5,13,13,0,0,0,0,84.14c0,6.29,0,16.66,0,16.66,0,8.3,7.7,15.57,16.48,15.57h84.93a15.43,15.43,0,0,0,15.25-15.57c0-.67.19-17,.19-17.4,0-4.5,1-4.5,2.34-4.5,1.2,0,1.56.46,2.42,1.78s2.36,3.64,6,3.64c6.27,0,6.29-8.86,6.32-22.27,0-1.19,0-2.42,0-3.68V58c0-1.27,0-2.5,0-3.69,0-13.41-.05-22.26-6.32-22.26-3.61,0-5,2.18-6,3.62s-1.22,1.78-2.42,1.78c-1.36,0-2.34,0-2.34-4.48,0-.38-.18-16.74-.19-17.44A15.42,15.42,0,0,0,101.41,0Z"/><path class="cls-5" d="M37.39,86.84a1,1,0,0,1,.2.5,1.27,1.27,0,0,1,0,.2,1.08,1.08,0,0,1,0,.19.54.54,0,0,1-.23.37,1.82,1.82,0,0,1-.32.18.87.87,0,0,1-.22,0l-.26,0a.59.59,0,0,1-.23,0H35.23l-3.73,0v0l0,2.91h.31a3.25,3.25,0,0,0,.42,0h1.28l1.24,0h.93l.39,0a1.92,1.92,0,0,1,.4.09.83.83,0,0,1,.46.34.77.77,0,0,1,.2.49v.2a.86.86,0,0,1,0,.21.71.71,0,0,1-.23.35.63.63,0,0,1-.34.16,1,1,0,0,1-.21.07l-.24,0-.24,0H31.45l-.06,4.15v.14a.91.91,0,0,1,0,.17,1.11,1.11,0,0,1,0,.17,1.07,1.07,0,0,0-.07.19,1.39,1.39,0,0,1-.06.19,1,1,0,0,1-.23.33,1,1,0,0,1-.48.2,1.29,1.29,0,0,1-.91-.11.7.7,0,0,1-.17-.13.55.55,0,0,1-.14-.21.26.26,0,0,1,0-.1l-.06-.11a.62.62,0,0,1-.07-.19,1,1,0,0,0,0-.18v-.18l0-.18a1.41,1.41,0,0,1,0-.29V97l0-1.4V93.05c0-.38,0-.77,0-1.16V90.68c0-.43,0-.81,0-1.15s0-.69.05-1.09v-.09c0-.13,0-.25,0-.36a2.07,2.07,0,0,1,0-.35,2.48,2.48,0,0,1,.18-.7.82.82,0,0,1,.36-.43,1.17,1.17,0,0,1,.57-.16l.23,0v0h1.86q1.43,0,2.82,0h.49l.42,0a1.9,1.9,0,0,1,.4,0,2.85,2.85,0,0,1,.39.11A.81.81,0,0,1,37.39,86.84Z"/><path class="cls-5" d="M41.93,86.73a5.29,5.29,0,0,1,2.17-.39,3.71,3.71,0,0,1,1.74.49A4.17,4.17,0,0,1,47.15,88,6.47,6.47,0,0,1,48,89.64a8.15,8.15,0,0,1,.41,1.43,9.58,9.58,0,0,1,.17,1.49,10.13,10.13,0,0,1,0,1.46,10,10,0,0,1-.26,1.32,6.59,6.59,0,0,1-.25.75c-.1.22-.21.45-.34.68A3.76,3.76,0,0,1,46.56,98,4.74,4.74,0,0,1,45,98.7a4.59,4.59,0,0,1-1.18.13,5.49,5.49,0,0,1-1.2-.16,4.76,4.76,0,0,1-1.13-.45,4.13,4.13,0,0,1-1-.74,4.67,4.67,0,0,1-.91-1.24,6.94,6.94,0,0,1-.56-1.48,9.33,9.33,0,0,1-.25-1.57,12.51,12.51,0,0,1,0-1.5,8.83,8.83,0,0,1,.26-1.41,6.45,6.45,0,0,1,.6-1.44,5.39,5.39,0,0,1,1-1.26A3.58,3.58,0,0,1,41.93,86.73Zm4.18,7.64a7,7,0,0,0,.18-1.89,7.46,7.46,0,0,0-.34-2,4.52,4.52,0,0,0-.49-1,2.12,2.12,0,0,0-.7-.67,1.8,1.8,0,0,0-.94-.23,2.69,2.69,0,0,0-1.19.32,2,2,0,0,0-.67.53,2.83,2.83,0,0,0-.45.77,6.55,6.55,0,0,0-.27.89,5.81,5.81,0,0,0-.11.9,7.73,7.73,0,0,0,0,1,7.07,7.07,0,0,0,.11,1,5.64,5.64,0,0,0,.28,1,2.9,2.9,0,0,0,.48.82,2.53,2.53,0,0,0,1.08.74,2.24,2.24,0,0,0,1.23.06,2.18,2.18,0,0,0,1.5-1.3A3.41,3.41,0,0,0,46.11,94.37Z"/><path class="cls-5" d="M59.29,98.16a1,1,0,0,1,0,.34.77.77,0,0,1-.1.18,1,1,0,0,1-.15.14,2.13,2.13,0,0,1-.4.2l-.27.06a.66.66,0,0,1-.28,0,.78.78,0,0,1-.5-.21,2.61,2.61,0,0,1-.5-.56l-.2-.32c-.07-.12-.13-.24-.19-.37l-2-3.77H54.4l-.29,0a4.18,4.18,0,0,1-.7,0q-.33,0-.69,0h-.34v3.23a2.26,2.26,0,0,1,0,.27,2.35,2.35,0,0,0,0,.27,2,2,0,0,1,0,.23,2.13,2.13,0,0,1,0,.27,1.45,1.45,0,0,1-.16.4,1.26,1.26,0,0,1-.34.35,1.23,1.23,0,0,1-.92.12,1.49,1.49,0,0,1-.44-.17.58.58,0,0,1-.13-.14l-.09-.17-.06-.18-.06-.19a1,1,0,0,1-.05-.34V87.47l0-.21a.86.86,0,0,1,.13-.39.49.49,0,0,1,.17-.3,1,1,0,0,1,.34-.19,1.89,1.89,0,0,1,.65-.06l1.59,0,1.57,0c.34,0,.71.06,1.1.12a4.75,4.75,0,0,1,1.08.27l.59.25a3.89,3.89,0,0,1,.53.38,3.76,3.76,0,0,1,1,1.37,4.46,4.46,0,0,1,.32,1.63,3.49,3.49,0,0,1-.46,1.77,2.78,2.78,0,0,1-1.45,1.2.23.23,0,0,1-.1,0,.29.29,0,0,0-.1,0l1.65,3.3.16.29a1.46,1.46,0,0,0,.09.16l.09.18.09.19c0,.07.07.14.1.2S59.27,98.05,59.29,98.16ZM54.83,91.8a1.78,1.78,0,0,0,.61-.11,2.08,2.08,0,0,0,.54-.32,1.9,1.9,0,0,0,.4-.45,1.16,1.16,0,0,0,.18-.57A1.46,1.46,0,0,0,56.09,89a2.27,2.27,0,0,0-1.41-.47c-.34,0-.72,0-1.13,0H52.38c0,.49,0,1,0,1.5s0,1.1,0,1.79Z"/><path class="cls-5" d="M73.49,87a1.75,1.75,0,0,1,0,.72l-.06.35-.06.35,0,.07c-.17.74-.36,1.51-.56,2.33s-.4,1.58-.57,2.31-.29,1.25-.44,2-.32,1.37-.49,2l-.18.61q-.1.3-.24.6a2.8,2.8,0,0,1-.3.48,1,1,0,0,1-.38.3.81.81,0,0,1-.46.07,1.11,1.11,0,0,1-.53-.22,1.8,1.8,0,0,1-.63-.84c-.14-.36-.28-.68-.42-1a3.41,3.41,0,0,1-.21-.56c-.1-.28-.2-.59-.31-.93s-.21-.67-.31-1a6.57,6.57,0,0,0-.26-.7c-.11.26-.21.56-.32.89s-.21.66-.3,1-.19.61-.26.87-.14.44-.17.56l-.32.79a2.83,2.83,0,0,1-.41.73,1.1,1.1,0,0,1-.58.4,1,1,0,0,1-.8-.2,1.15,1.15,0,0,1-.5-.61q-.09-.25-.18-.48a2.9,2.9,0,0,1-.14-.48L62.72,96,62,93.14c-.1-.37-.19-.75-.28-1.13s-.19-.79-.31-1.21q-.09-.3-.15-.6c0-.19-.09-.41-.13-.64s-.09-.5-.14-.8-.12-.64-.19-1a2.46,2.46,0,0,1,0-.37,1.4,1.4,0,0,1,0-.35.81.81,0,0,1,.25-.46.55.55,0,0,1,.22-.14,1.07,1.07,0,0,1,.27-.09,1.31,1.31,0,0,1,.44-.07.81.81,0,0,1,.45.14.7.7,0,0,1,.25.23l.21.38c0,.08,0,.15.07.22s0,.13.08.2,0,.16.05.23a1.29,1.29,0,0,0,0,.19,17.41,17.41,0,0,0,.39,1.8c.15.58.3,1.14.43,1.68,0,.21.1.48.18.79s.14.65.21,1,.14.66.21,1a6.83,6.83,0,0,0,.22.73c.15-.53.31-1.07.47-1.61s.34-1.07.53-1.62a7.61,7.61,0,0,1,.29-.78,2.48,2.48,0,0,1,.35-.58.94.94,0,0,1,.45-.3,1,1,0,0,1,.59,0,1.11,1.11,0,0,1,.53.54,6.58,6.58,0,0,1,.42.84c.1.26.21.54.31.83L69,93c.1.28.2.55.3.8a5.78,5.78,0,0,0,.28.64c0-.13.08-.3.13-.5s.1-.42.15-.65l.15-.69c.05-.22.1-.43.14-.62.16-.65.32-1.29.49-1.94s.32-1.29.48-1.92l.09-.3a.65.65,0,0,0,0-.19,1.2,1.2,0,0,1,0-.23,1.18,1.18,0,0,1,.07-.2c0-.07.05-.14.07-.22a1.54,1.54,0,0,1,.08-.19.76.76,0,0,1,.12-.19.33.33,0,0,1,.12-.14l.14-.09a.86.86,0,0,1,.43-.14,1.33,1.33,0,0,1,.45.07,1.16,1.16,0,0,1,.52.23A.73.73,0,0,1,73.49,87Z"/><path class="cls-5" d="M84.57,97.73a4.35,4.35,0,0,1,0,.43.69.69,0,0,1-.12.39.8.8,0,0,1-.15.17.77.77,0,0,1-.21.14,1.49,1.49,0,0,1-1,.17,1.1,1.1,0,0,1-.44-.23l-.06,0a.11.11,0,0,1,0-.05.08.08,0,0,1,0,0s0,0,0,0a1.14,1.14,0,0,1-.15-.17l-.1-.17s0-.11-.08-.16l-.1-.17s-.05-.1-.07-.14a.52.52,0,0,1-.06-.13,2.33,2.33,0,0,1-.09-.29l-.37-.87H76.62l-.38.87a.43.43,0,0,0,0,.14.44.44,0,0,1,0,.15l-.06.13L76,98a1,1,0,0,0-.1.17,1.4,1.4,0,0,1-.1.16.56.56,0,0,1-.09.17.7.7,0,0,1-.14.17.12.12,0,0,0,0,0l0,0a.07.07,0,0,1,0,.05l0,0A1.07,1.07,0,0,1,75,99a1.46,1.46,0,0,1-.94-.17.69.69,0,0,1-.22-.14.75.75,0,0,1-.14-.17.69.69,0,0,1-.12-.39v-.22l0-.21a1.92,1.92,0,0,1,.09-.32l0-.16,3.72-9.15.11-.28a1.19,1.19,0,0,1,.08-.2.67.67,0,0,0,.09-.21,2.61,2.61,0,0,1,.2-.41,1,1,0,0,1,.13-.2l.14-.18a.8.8,0,0,1,.3-.23,1.72,1.72,0,0,1,.58-.09,1.68,1.68,0,0,1,.58.09.84.84,0,0,1,.31.23c.08.11.17.23.26.38a2,2,0,0,1,.2.41,1,1,0,0,0,.09.21.72.72,0,0,1,.09.2l.11.28,3.71,9.15.06.16Zm-4.24-4.37-.47-1.08c-.16-.37-.33-.74-.51-1.12,0-.11-.1-.22-.14-.33s-.1-.23-.15-.33a3.43,3.43,0,0,1-.12.33c0,.11-.1.22-.14.33-.18.38-.35.75-.51,1.12l-.48,1.08-.32.78h3.16Z"/><path class="cls-5" d="M95.25,98.16a.78.78,0,0,1,0,.34.52.52,0,0,1-.1.18,1,1,0,0,1-.15.14,2.36,2.36,0,0,1-.39.2l-.28.06a.67.67,0,0,1-.28,0,.8.8,0,0,1-.5-.21,2.61,2.61,0,0,1-.5-.56c-.06-.09-.12-.2-.19-.32s-.14-.24-.2-.37l-2-3.77h-.29l-.28,0a4.3,4.3,0,0,1-.71,0q-.33,0-.69,0h-.34v3.5a2.35,2.35,0,0,0,0,.27c0,.06,0,.14,0,.23s0,.19,0,.27a1.2,1.2,0,0,1-.16.4,1.13,1.13,0,0,1-.34.35,1.2,1.2,0,0,1-.91.12,1.54,1.54,0,0,1-.45-.17.85.85,0,0,1-.21-.31.64.64,0,0,1-.06-.18,1.07,1.07,0,0,0-.07-.19,1.4,1.4,0,0,1,0-.34V87.69a1.7,1.7,0,0,1,0-.22,1.18,1.18,0,0,1,0-.21,1,1,0,0,1,.12-.39.55.55,0,0,1,.18-.3.84.84,0,0,1,.33-.19,2,2,0,0,1,.65-.06l1.59,0c.52,0,1,0,1.57,0,.35,0,.71.06,1.1.12a4.5,4.5,0,0,1,1.08.27l.59.25a3.5,3.5,0,0,1,.54.38,3.73,3.73,0,0,1,.94,1.37,4.28,4.28,0,0,1,.33,1.63,3.59,3.59,0,0,1-.46,1.77,2.81,2.81,0,0,1-1.46,1.2.19.19,0,0,1-.09,0s-.08,0-.1,0l1.64,3.3.16.29a1.14,1.14,0,0,1,.09.16.76.76,0,0,1,.09.18,1.14,1.14,0,0,1,.1.19,1.24,1.24,0,0,0,.1.2C95.19,97.92,95.22,98.05,95.25,98.16ZM90.78,91.8a1.84,1.84,0,0,0,.62-.11,2.2,2.2,0,0,0,.53-.32,2,2,0,0,0,.41-.45,1.26,1.26,0,0,0,.17-.57A1.45,1.45,0,0,0,92.05,89a2.31,2.31,0,0,0-1.41-.47c-.35,0-.72,0-1.14,0H88.33c0,.49,0,1,0,1.5s0,1.1,0,1.79Z"/><path class="cls-5" d="M106.09,91.77a9.82,9.82,0,0,1,0,1.21c0,.42-.07.82-.13,1.21a7.08,7.08,0,0,1-.67,2,4.5,4.5,0,0,1-1.41,1.64,5.43,5.43,0,0,1-2.19,1,15,15,0,0,1-2.45.32,7.61,7.61,0,0,1-.83,0,3.59,3.59,0,0,1-.81-.1,1,1,0,0,1-.49-.19A.47.47,0,0,1,97,98.7a1.51,1.51,0,0,1-.09-.18,1.08,1.08,0,0,1-.08-.19c0-.07,0-.13-.06-.21l0-.17s0-.1,0-.15V87.37a.78.78,0,0,1,0-.21,1.27,1.27,0,0,1,.11-.41.55.55,0,0,1,.19-.31.71.71,0,0,1,.22-.13l.19-.08a.36.36,0,0,1,.23,0,.38.38,0,0,0,.26,0l3,.08a4.58,4.58,0,0,1,2.11.54,5.57,5.57,0,0,1,1.59,1.3,6.08,6.08,0,0,1,1,1.76A6.69,6.69,0,0,1,106.09,91.77Zm-3.32,3.39a4.23,4.23,0,0,0,.5-1.23,6.17,6.17,0,0,0,.14-1.42,5.92,5.92,0,0,0-.2-1.41,4.53,4.53,0,0,0-.5-1.23,2.06,2.06,0,0,0-.64-.64,3.06,3.06,0,0,0-.88-.39,6.37,6.37,0,0,0-1-.18,9.87,9.87,0,0,0-1.07-.06c0,.35,0,.68,0,1v1c0,.43,0,.85,0,1.25V96.7l1.07-.07a4.61,4.61,0,0,0,1-.2A3.16,3.16,0,0,0,102,96,3.11,3.11,0,0,0,102.77,95.16Z"/><path class="cls-6" d="M35.61,86.84a1,1,0,0,1,.19.5,1.27,1.27,0,0,1,0,.2,1.11,1.11,0,0,1,0,.19.54.54,0,0,1-.23.37,2.45,2.45,0,0,1-.33.18.79.79,0,0,1-.22,0l-.26,0a.59.59,0,0,1-.23,0h-1l-3.74,0v0l0,2.91H30a3.4,3.4,0,0,0,.42,0H31.7l1.25,0h.92l.4,0a1.83,1.83,0,0,1,.39.09.83.83,0,0,1,.46.34.72.72,0,0,1,.2.49v.2a.82.82,0,0,1,0,.21.75.75,0,0,1-.24.35.6.6,0,0,1-.34.16l-.2.07-.24,0-.24,0H29.66l-.05,4.15v.14c0,.06,0,.12,0,.17l0,.17a1.06,1.06,0,0,0-.06.19,1.46,1.46,0,0,1-.07.19,1,1,0,0,1-.23.33,1,1,0,0,1-.48.2,1.3,1.3,0,0,1-.91-.11.7.7,0,0,1-.17-.13.54.54,0,0,1-.13-.21.19.19,0,0,1,0-.1l-.05-.11a.64.64,0,0,1-.08-.19l0-.18a1.09,1.09,0,0,0,0-.18,1.13,1.13,0,0,0,0-.18,1.41,1.41,0,0,1,0-.29V97l0-1.4,0-2.57c0-.38,0-.77,0-1.16V90.68c0-.43,0-.81,0-1.15s0-.69,0-1.09v-.09c0-.13,0-.25,0-.36a1.39,1.39,0,0,1,0-.35,2.18,2.18,0,0,1,.17-.7.92.92,0,0,1,.36-.43,1.17,1.17,0,0,1,.57-.16l.24,0v0h1.85c1,0,1.9,0,2.83,0h.49l.42,0a1.74,1.74,0,0,1,.39,0,2.85,2.85,0,0,1,.39.11A.87.87,0,0,1,35.61,86.84Z"/><path class="cls-6" d="M40.14,86.73a5.32,5.32,0,0,1,2.17-.39,3.78,3.78,0,0,1,1.75.49A4.17,4.17,0,0,1,45.37,88a6.44,6.44,0,0,1,.88,1.64,7.37,7.37,0,0,1,.41,1.43,8.51,8.51,0,0,1,.17,1.49,10.13,10.13,0,0,1,0,1.46,7.53,7.53,0,0,1-.26,1.32,5.07,5.07,0,0,1-.25.75c-.1.22-.21.45-.34.68A3.84,3.84,0,0,1,44.78,98a4.79,4.79,0,0,1-1.55.68,4.59,4.59,0,0,1-1.18.13,5.33,5.33,0,0,1-1.19-.16,4.83,4.83,0,0,1-1.14-.45,4.13,4.13,0,0,1-1-.74,4.67,4.67,0,0,1-.91-1.24,6.92,6.92,0,0,1-.55-1.48A8.42,8.42,0,0,1,37,93.19a9.39,9.39,0,0,1,0-1.5,7,7,0,0,1,.26-1.41,6.26,6.26,0,0,1,1.55-2.7A3.66,3.66,0,0,1,40.14,86.73Zm4.18,7.64a6.26,6.26,0,0,0,.18-1.89,6.74,6.74,0,0,0-.34-2,4.12,4.12,0,0,0-.49-1,2.12,2.12,0,0,0-.7-.67,1.76,1.76,0,0,0-.93-.23,2.7,2.7,0,0,0-1.2.32,2,2,0,0,0-.67.53,3.46,3.46,0,0,0-.45.77,5.36,5.36,0,0,0-.26.89,4.84,4.84,0,0,0-.12.9c0,.31,0,.63,0,1a5.91,5.91,0,0,0,.12,1,5.63,5.63,0,0,0,.27,1,2.71,2.71,0,0,0,.49.82,2.53,2.53,0,0,0,1.08.74,2.21,2.21,0,0,0,1.22.06,2.14,2.14,0,0,0,1.5-1.3A3.41,3.41,0,0,0,44.32,94.37Z"/><path class="cls-6" d="M57.51,98.16a.78.78,0,0,1,0,.34.52.52,0,0,1-.1.18,1,1,0,0,1-.15.14,2.36,2.36,0,0,1-.39.2l-.28.06a.67.67,0,0,1-.28,0,.8.8,0,0,1-.5-.21,2.61,2.61,0,0,1-.5-.56c-.06-.09-.12-.2-.19-.32s-.14-.24-.2-.37l-2-3.77h-.29l-.28,0a4.3,4.3,0,0,1-.71,0q-.33,0-.69,0h-.34v3.23a2.26,2.26,0,0,1,0,.27v.27c0,.06,0,.14,0,.23s0,.19,0,.27a1.2,1.2,0,0,1-.16.4,1.13,1.13,0,0,1-.34.35,1.2,1.2,0,0,1-.91.12,1.44,1.44,0,0,1-.45-.17.41.41,0,0,1-.12-.14.56.56,0,0,1-.09-.17.64.64,0,0,1-.06-.18,1.07,1.07,0,0,0-.07-.19,1.4,1.4,0,0,1-.05-.34V87.69a1.7,1.7,0,0,1,0-.22,1.25,1.25,0,0,1,0-.21,1.2,1.2,0,0,1,.13-.39.55.55,0,0,1,.18-.3.84.84,0,0,1,.33-.19,1.92,1.92,0,0,1,.65-.06l1.59,0c.52,0,1,0,1.57,0,.35,0,.71.06,1.1.12a4.5,4.5,0,0,1,1.08.27l.59.25a3.5,3.5,0,0,1,.54.38A3.73,3.73,0,0,1,57,88.76a4.26,4.26,0,0,1,.32,1.63,3.58,3.58,0,0,1-.45,1.77,2.81,2.81,0,0,1-1.46,1.2.19.19,0,0,1-.09,0c-.05,0-.08,0-.1,0l1.64,3.3L57,97a1.46,1.46,0,0,0,.09.16.76.76,0,0,1,.09.18,1.14,1.14,0,0,1,.1.19,1.24,1.24,0,0,0,.1.2C57.45,97.92,57.48,98.05,57.51,98.16ZM53,91.8a1.88,1.88,0,0,0,.62-.11,2.2,2.2,0,0,0,.53-.32,1.71,1.71,0,0,0,.4-.45,1.16,1.16,0,0,0,.18-.57A1.45,1.45,0,0,0,54.31,89a2.31,2.31,0,0,0-1.41-.47c-.35,0-.73,0-1.14,0H50.59c0,.49,0,1,0,1.5s0,1.1,0,1.79Z"/><path class="cls-6" d="M71.71,87a2.17,2.17,0,0,1,0,.72c0,.12,0,.23-.07.35s0,.23-.06.35l0,.07c-.16.74-.35,1.51-.56,2.33s-.4,1.58-.56,2.31-.3,1.25-.45,2-.32,1.37-.48,2c-.06.2-.12.41-.19.61a5,5,0,0,1-.24.6,2.27,2.27,0,0,1-.29.48,1.08,1.08,0,0,1-.39.3.77.77,0,0,1-.45.07,1.08,1.08,0,0,1-.53-.22,1.76,1.76,0,0,1-.64-.84,9,9,0,0,0-.42-1c0-.09-.11-.27-.21-.56s-.2-.59-.3-.93-.22-.67-.32-1a4.91,4.91,0,0,0-.26-.7c-.1.26-.21.56-.32.89s-.2.66-.3,1l-.26.87c-.08.26-.13.44-.17.56s-.2.5-.31.79a2.83,2.83,0,0,1-.41.73,1.14,1.14,0,0,1-.58.4,1,1,0,0,1-.81-.2,1.25,1.25,0,0,1-.5-.61q-.09-.25-.18-.48c0-.16-.1-.32-.14-.48L60.93,96l-.73-2.88c-.09-.37-.19-.75-.28-1.13s-.19-.79-.31-1.21q-.09-.3-.15-.6c0-.19-.08-.41-.12-.64s-.09-.5-.15-.8-.11-.64-.18-1a2.52,2.52,0,0,1,0-.37A1.06,1.06,0,0,1,59,87a.71.71,0,0,1,.25-.46.6.6,0,0,1,.21-.14,1.22,1.22,0,0,1,.27-.09,1.33,1.33,0,0,1,.45-.07.78.78,0,0,1,.44.14.7.7,0,0,1,.25.23l.22.38c0,.08.05.15.07.22s.05.13.07.2,0,.16.05.23a1.29,1.29,0,0,1,0,.19c.11.61.24,1.22.39,1.8s.3,1.14.43,1.68l.18.79.21,1c.08.34.15.66.22,1a5.28,5.28,0,0,0,.21.73l.48-1.61c.16-.53.33-1.07.52-1.62q.15-.43.3-.78a2.18,2.18,0,0,1,.35-.58,1,1,0,0,1,.44-.3,1,1,0,0,1,.59,0,1.16,1.16,0,0,1,.54.54,8.16,8.16,0,0,1,.41.84c.11.26.21.54.31.83s.2.57.31.85.19.55.29.8a5.68,5.68,0,0,0,.29.64l.12-.5c0-.2.1-.42.15-.65s.11-.46.15-.69.1-.43.15-.62c.15-.65.31-1.29.48-1.94s.33-1.29.48-1.92l.09-.3a1.33,1.33,0,0,0,0-.19,1.11,1.11,0,0,1,0-.23c0-.07.05-.14.07-.2a1.42,1.42,0,0,0,.07-.22c0-.06.05-.13.08-.19a.76.76,0,0,1,.12-.19.44.44,0,0,1,.13-.14.42.42,0,0,1,.14-.09.83.83,0,0,1,.43-.14,1.31,1.31,0,0,1,.44.07,1.11,1.11,0,0,1,.52.23A.8.8,0,0,1,71.71,87Z"/><path class="cls-6" d="M82.78,97.73l0,.21v.22a.69.69,0,0,1-.12.39.75.75,0,0,1-.14.17.69.69,0,0,1-.22.14,1.46,1.46,0,0,1-.94.17,1.07,1.07,0,0,1-.45-.23l0,0a.07.07,0,0,1,0-.05l0,0,0,0a.7.7,0,0,1-.14-.17s-.07-.11-.11-.17l-.08-.16a1,1,0,0,0-.1-.17s0-.1-.07-.14a.5.5,0,0,1-.05-.13,1,1,0,0,1-.09-.29l-.38-.87H74.83l-.37.87a.48.48,0,0,0,0,.14.83.83,0,0,1,0,.15l-.07.13a1.47,1.47,0,0,1-.06.14l-.1.17-.09.16-.09.17a1.14,1.14,0,0,1-.15.17s0,0,0,0a.08.08,0,0,1,0,0,.11.11,0,0,1,0,.05l-.06,0a1.1,1.1,0,0,1-.44.23,1.49,1.49,0,0,1-1-.17.77.77,0,0,1-.21-.14.8.8,0,0,1-.15-.17.69.69,0,0,1-.12-.39,4.35,4.35,0,0,1,0-.43l.09-.32.06-.16,3.71-9.15.11-.28a.72.72,0,0,1,.09-.2,2.2,2.2,0,0,0,.09-.21,2.63,2.63,0,0,1,.19-.41,1,1,0,0,1,.13-.2l.14-.18a.84.84,0,0,1,.31-.23,1.68,1.68,0,0,1,.58-.09,1.72,1.72,0,0,1,.58.09.8.8,0,0,1,.3.23l.27.38a2,2,0,0,1,.19.41,2.2,2.2,0,0,0,.09.21.72.72,0,0,1,.09.2l.11.28,3.72,9.15,0,.16A1.92,1.92,0,0,1,82.78,97.73Zm-4.23-4.37-.48-1.08c-.16-.37-.33-.74-.51-1.12,0-.11-.09-.22-.14-.33s-.09-.23-.14-.33l-.13.33-.14.33c-.18.38-.35.75-.51,1.12L76,93.36l-.32.78h3.16Z"/><path class="cls-6" d="M93.46,98.16a.78.78,0,0,1,0,.34.51.51,0,0,1-.09.18l-.16.14a1.76,1.76,0,0,1-.39.2l-.27.06a.66.66,0,0,1-.28,0,.78.78,0,0,1-.5-.21,2.61,2.61,0,0,1-.5-.56L91,98a2.58,2.58,0,0,1-.19-.37l-2-3.77h-.28l-.29,0a4.18,4.18,0,0,1-.7,0c-.23,0-.45,0-.69,0h-.34v3.23a2.26,2.26,0,0,1,0,.27,2.35,2.35,0,0,0,0,.27,3.73,3.73,0,0,1,0,.5,1,1,0,0,1-.16.4,1,1,0,0,1-.34.35,1.2,1.2,0,0,1-.91.12,1.49,1.49,0,0,1-.44-.17.58.58,0,0,1-.13-.14l-.09-.17-.06-.18-.06-.19a1.06,1.06,0,0,1-.06-.34V87.69c0-.07,0-.14,0-.22s0-.15,0-.21a1,1,0,0,1,.12-.39.55.55,0,0,1,.18-.3.84.84,0,0,1,.33-.19,2,2,0,0,1,.66-.06l1.59,0,1.57,0c.34,0,.71.06,1.1.12a4.75,4.75,0,0,1,1.08.27l.59.25a3.89,3.89,0,0,1,.53.38,3.76,3.76,0,0,1,1,1.37,4.46,4.46,0,0,1,.32,1.63,3.49,3.49,0,0,1-.46,1.77,2.78,2.78,0,0,1-1.45,1.2l-.1,0a.29.29,0,0,0-.1,0l1.65,3.3L93,97a1.46,1.46,0,0,0,.09.16,1.42,1.42,0,0,1,.08.18,1.14,1.14,0,0,1,.1.19c0,.07.07.14.1.2S93.44,98.05,93.46,98.16ZM89,91.8a1.78,1.78,0,0,0,.61-.11,2.08,2.08,0,0,0,.54-.32,1.9,1.9,0,0,0,.4-.45,1.16,1.16,0,0,0,.18-.57A1.46,1.46,0,0,0,90.26,89a2.27,2.27,0,0,0-1.41-.47c-.34,0-.72,0-1.13,0H86.55c0,.49,0,1,0,1.5s0,1.1,0,1.79Z"/><path class="cls-6" d="M104.3,91.77a8.18,8.18,0,0,1,0,1.21c0,.42-.07.82-.13,1.21a7.39,7.39,0,0,1-.66,2,4.5,4.5,0,0,1-1.41,1.64,5.54,5.54,0,0,1-2.2,1,14.82,14.82,0,0,1-2.45.32,7.61,7.61,0,0,1-.83,0,3.59,3.59,0,0,1-.81-.1.93.93,0,0,1-.48-.19.5.5,0,0,1-.15-.14,1.42,1.42,0,0,1-.08-.18.46.46,0,0,1-.08-.19l-.07-.21a1,1,0,0,1,0-.17.76.76,0,0,1,0-.15V87.37a.76.76,0,0,1,0-.21,1.59,1.59,0,0,1,.11-.41.56.56,0,0,1,.2-.31.8.8,0,0,1,.21-.13l.2-.08a.33.33,0,0,1,.22,0,.37.37,0,0,0,.26,0l3,.08a4.55,4.55,0,0,1,2.11.54,5.44,5.44,0,0,1,1.59,1.3,6.11,6.11,0,0,1,1,1.76A6.35,6.35,0,0,1,104.3,91.77ZM101,95.16a4,4,0,0,0,.5-1.23,5.66,5.66,0,0,0,.14-1.42,5.92,5.92,0,0,0-.19-1.41,4.87,4.87,0,0,0-.5-1.23,2.09,2.09,0,0,0-.65-.64,3.12,3.12,0,0,0-.87-.39,6.5,6.5,0,0,0-1-.18,9.69,9.69,0,0,0-1.06-.06c0,.35,0,.68,0,1v1c0,.43,0,.85,0,1.25V96.7l1.06-.07a4.48,4.48,0,0,0,1-.2,3.21,3.21,0,0,0,.88-.46A3.08,3.08,0,0,0,101,95.16Z"/><rect class="cls-5" x="30.84" y="40.08" width="5.68" height="34.64" rx="1.45" transform="translate(67.36 114.81) rotate(180)"/><rect class="cls-5" x="31.62" y="36.22" width="5.68" height="41.46" rx="1.59" transform="translate(68.92 113.9) rotate(-180)"/><path class="cls-5" d="M32.71,38.66h3.51a1.09,1.09,0,0,1,1.09,1.09v1a.17.17,0,0,1-.17.17H31.79a.17.17,0,0,1-.17-.17v-1a1.09,1.09,0,0,1,1.09-1.09Z"/><rect class="cls-5" x="31.62" y="43.68" width="5.68" height="2.25" rx="0.17"/><rect class="cls-5" x="31.62" y="48.69" width="5.68" height="2.25" rx="0.17"/><rect class="cls-5" x="31.62" y="53.71" width="5.68" height="2.25" rx="0.17"/><rect class="cls-5" x="31.62" y="58.72" width="5.68" height="2.25" rx="0.17"/><rect class="cls-5" x="31.62" y="63.74" width="5.68" height="2.25" rx="0.17"/><rect class="cls-5" x="31.62" y="68.76" width="5.68" height="2.25" rx="0.17"/><path class="cls-5" d="M31.79,73.77h5.34a.17.17,0,0,1,.17.17v1A1.09,1.09,0,0,1,36.21,76H32.71a1.09,1.09,0,0,1-1.09-1.09v-1a.17.17,0,0,1,.17-.17Z"/><rect class="cls-5" x="98.66" y="39.17" width="5.68" height="34.64" rx="1.45"/><rect class="cls-5" x="97.87" y="36.22" width="5.68" height="41.46" rx="1.59"/><path class="cls-5" d="M99,73h3.51a1.09,1.09,0,0,1,1.09,1.09v1a.17.17,0,0,1-.17.17H98a.17.17,0,0,1-.17-.17v-1A1.09,1.09,0,0,1,99,73Z" transform="translate(201.43 148.23) rotate(180)"/><rect class="cls-5" x="97.87" y="67.98" width="5.68" height="2.25" rx="0.17" transform="translate(201.43 138.2) rotate(180)"/><rect class="cls-5" x="97.87" y="62.96" width="5.68" height="2.25" rx="0.17" transform="translate(201.43 128.16) rotate(180)"/><rect class="cls-5" x="97.87" y="57.94" width="5.68" height="2.25" rx="0.17" transform="translate(201.43 118.13) rotate(180)"/><rect class="cls-5" x="97.87" y="52.93" width="5.68" height="2.25" rx="0.17" transform="translate(201.43 108.1) rotate(180)"/><rect class="cls-5" x="97.87" y="47.91" width="5.68" height="2.25" rx="0.17" transform="translate(201.43 98.07) rotate(180)"/><rect class="cls-5" x="97.87" y="42.9" width="5.68" height="2.25" rx="0.17" transform="translate(201.43 88.04) rotate(180)"/><path class="cls-5" d="M98,37.88h5.34a.17.17,0,0,1,.17.17v1a1.09,1.09,0,0,1-1.09,1.09H99A1.09,1.09,0,0,1,97.87,39v-1a.17.17,0,0,1,.17-.17Z" transform="translate(201.43 78.01) rotate(180)"/><rect class="cls-5" x="37.37" y="41.86" width="30.19" height="30.19" rx="1.98"/><path class="cls-5" d="M51.72,40.5h1.1a.37.37,0,0,1,.37.37v3.43a.37.37,0,0,1-.37.37h-1.1a0,0,0,0,1,0,0V40.5A0,0,0,0,1,51.72,40.5Z" transform="translate(95.05 -9.87) rotate(90)"/><path class="cls-5" d="M51.72,69.21h1.1a.37.37,0,0,1,.37.37V73a.37.37,0,0,1-.37.37h-1.1a0,0,0,0,1,0,0V69.21A0,0,0,0,1,51.72,69.21Z" transform="translate(-18.84 123.77) rotate(-90)"/><path class="cls-5" d="M66.08,54.86h1.1a.37.37,0,0,1,.37.37v3.43a.37.37,0,0,1-.37.37h-1.1a0,0,0,0,1,0,0V54.86A0,0,0,0,1,66.08,54.86Z" transform="translate(133.63 113.9) rotate(180)"/><path class="cls-5" d="M37.37,54.86h1.1a.37.37,0,0,1,.37.37v3.43a.37.37,0,0,1-.37.37h-1.1a0,0,0,0,1,0,0V54.86A0,0,0,0,1,37.37,54.86Z"/><rect class="cls-5" x="37.37" y="41.86" width="30.19" height="30.19" rx="1.98"/><rect class="cls-5" x="55.8" y="45.23" width="7.92" height="7.92" rx="2.22"/><rect class="cls-5" x="55.8" y="45.23" width="7.92" height="7.92" rx="2.22"/><rect class="cls-5" x="57.24" y="46.68" width="5.02" height="5.02" rx="1.41"/><rect class="cls-5" x="41.21" y="45.23" width="7.92" height="7.92" rx="2.22"/><rect class="cls-5" x="41.21" y="45.23" width="7.92" height="7.92" rx="2.22"/><rect class="cls-5" x="42.65" y="46.68" width="5.02" height="5.02" rx="1.41"/><rect class="cls-5" x="55.8" y="60.75" width="7.92" height="7.92" rx="2.22"/><rect class="cls-5" x="55.8" y="60.75" width="7.92" height="7.92" rx="2.22"/><rect class="cls-5" x="57.24" y="62.19" width="5.02" height="5.02" rx="1.41"/><rect class="cls-5" x="41.21" y="60.75" width="7.92" height="7.92" rx="2.22"/><rect class="cls-5" x="41.21" y="60.75" width="7.92" height="7.92" rx="2.22"/><rect class="cls-5" x="42.65" y="62.19" width="5.02" height="5.02" rx="1.41"/><rect class="cls-5" x="67.62" y="41.86" width="30.19" height="30.19" rx="1.98"/><path class="cls-5" d="M82,40.5h1.1a.37.37,0,0,1,.37.37v3.43a.37.37,0,0,1-.37.37H82a0,0,0,0,1,0,0V40.5A0,0,0,0,1,82,40.5Z" transform="translate(125.31 -40.12) rotate(90)"/><path class="cls-5" d="M82,69.21h1.1a.37.37,0,0,1,.37.37V73a.37.37,0,0,1-.37.37H82a0,0,0,0,1,0,0V69.21A0,0,0,0,1,82,69.21Z" transform="translate(11.41 154.02) rotate(-90)"/><path class="cls-5" d="M96.33,54.86h1.1a.37.37,0,0,1,.37.37v3.43a.37.37,0,0,1-.37.37h-1.1a0,0,0,0,1,0,0V54.86A0,0,0,0,1,96.33,54.86Z" transform="translate(194.14 113.9) rotate(180)"/><path class="cls-5" d="M67.62,54.86h1.1a.37.37,0,0,1,.37.37v3.43a.37.37,0,0,1-.37.37h-1.1a0,0,0,0,1,0,0V54.86A0,0,0,0,1,67.62,54.86Z"/><rect class="cls-5" x="67.62" y="41.86" width="30.19" height="30.19" rx="1.98"/><rect class="cls-5" x="86.05" y="45.23" width="7.92" height="7.92" rx="2.22"/><rect class="cls-5" x="86.05" y="45.23" width="7.92" height="7.92" rx="2.22"/><rect class="cls-5" x="87.5" y="46.68" width="5.02" height="5.02" rx="1.41"/><rect class="cls-5" x="71.46" y="45.23" width="7.92" height="7.92" rx="2.22"/><rect class="cls-5" x="71.46" y="45.23" width="7.92" height="7.92" rx="2.22"/><rect class="cls-5" x="72.91" y="46.68" width="5.02" height="5.02" rx="1.41"/><rect class="cls-5" x="86.05" y="60.75" width="7.92" height="7.92" rx="2.22"/><rect class="cls-5" x="86.05" y="60.75" width="7.92" height="7.92" rx="2.22"/><rect class="cls-5" x="87.5" y="62.19" width="5.02" height="5.02" rx="1.41"/><rect class="cls-5" x="71.46" y="60.75" width="7.92" height="7.92" rx="2.22"/><rect class="cls-5" x="71.46" y="60.75" width="7.92" height="7.92" rx="2.22"/><rect class="cls-5" x="72.91" y="62.19" width="5.02" height="5.02" rx="1.41"/><rect class="cls-7" x="29.05" y="40.08" width="5.68" height="34.64" rx="1.45" transform="translate(63.79 114.81) rotate(180)"/><rect class="cls-7" x="96.87" y="39.17" width="5.68" height="34.64" rx="1.45"/><rect class="cls-8" x="29.05" y="40.08" width="5.68" height="34.64" rx="1.45" transform="translate(63.79 114.81) rotate(180)"/><rect class="cls-8" x="96.87" y="39.17" width="5.68" height="34.64" rx="1.45"/><rect class="cls-9" x="29.83" y="36.22" width="5.68" height="41.46" rx="1.59" transform="translate(65.35 113.9) rotate(-180)"/><path class="cls-10" d="M30.92,38.66h3.51a1.09,1.09,0,0,1,1.09,1.09v1a.17.17,0,0,1-.17.17H30a.17.17,0,0,1-.17-.17v-1A1.09,1.09,0,0,1,30.92,38.66Z"/><rect class="cls-10" x="29.83" y="43.68" width="5.68" height="2.25" rx="0.17"/><rect class="cls-10" x="29.83" y="48.69" width="5.68" height="2.25" rx="0.17"/><rect class="cls-10" x="29.83" y="53.71" width="5.68" height="2.25" rx="0.17"/><rect class="cls-10" x="29.83" y="58.72" width="5.68" height="2.25" rx="0.17"/><rect class="cls-10" x="29.83" y="63.74" width="5.68" height="2.25" rx="0.17"/><rect class="cls-10" x="29.83" y="68.76" width="5.68" height="2.25" rx="0.17"/><path class="cls-10" d="M30,73.77h5.34a.17.17,0,0,1,.17.17v1A1.09,1.09,0,0,1,34.43,76H30.92a1.09,1.09,0,0,1-1.09-1.09v-1a.17.17,0,0,1,.17-.17Z"/><rect class="cls-9" x="96.09" y="36.22" width="5.68" height="41.46" rx="1.59"/><path class="cls-10" d="M97.17,73h3.51a1.09,1.09,0,0,1,1.09,1.09v1a.17.17,0,0,1-.17.17H96.26a.17.17,0,0,1-.17-.17v-1A1.09,1.09,0,0,1,97.17,73Z" transform="translate(197.86 148.23) rotate(180)"/><rect class="cls-10" x="96.09" y="67.98" width="5.68" height="2.25" rx="0.17" transform="translate(197.86 138.2) rotate(180)"/><rect class="cls-10" x="96.09" y="62.96" width="5.68" height="2.25" rx="0.17" transform="translate(197.86 128.16) rotate(180)"/><rect class="cls-10" x="96.09" y="57.94" width="5.68" height="2.25" rx="0.17" transform="translate(197.86 118.13) rotate(180)"/><rect class="cls-10" x="96.09" y="52.93" width="5.68" height="2.25" rx="0.17" transform="translate(197.86 108.1) rotate(180)"/><rect class="cls-10" x="96.09" y="47.91" width="5.68" height="2.25" rx="0.17" transform="translate(197.86 98.07) rotate(180)"/><rect class="cls-10" x="96.09" y="42.9" width="5.68" height="2.25" rx="0.17" transform="translate(197.86 88.04) rotate(180)"/><path class="cls-10" d="M96.26,37.88h5.34a.17.17,0,0,1,.17.17v1a1.09,1.09,0,0,1-1.09,1.09H97.17A1.09,1.09,0,0,1,96.09,39v-1a.17.17,0,0,1,.17-.17Z" transform="translate(197.86 78.01) rotate(180)"/><rect class="cls-7" x="35.58" y="41.86" width="30.19" height="30.19" rx="1.98"/><path class="cls-11" d="M49.94,40.5H51a.37.37,0,0,1,.37.37v3.43a.37.37,0,0,1-.37.37h-1.1a0,0,0,0,1,0,0V40.5A0,0,0,0,1,49.94,40.5Z" transform="translate(93.27 -8.08) rotate(90)"/><path class="cls-11" d="M49.94,69.21H51a.37.37,0,0,1,.37.37V73a.37.37,0,0,1-.37.37h-1.1a0,0,0,0,1,0,0V69.21A0,0,0,0,1,49.94,69.21Z" transform="translate(-20.63 121.98) rotate(-90)"/><path class="cls-11" d="M64.29,54.86h1.1a.37.37,0,0,1,.37.37v3.43a.37.37,0,0,1-.37.37h-1.1a0,0,0,0,1,0,0V54.86A0,0,0,0,1,64.29,54.86Z" transform="translate(130.06 113.9) rotate(180)"/><path class="cls-11" d="M35.58,54.86h1.1a.37.37,0,0,1,.37.37v3.43a.37.37,0,0,1-.37.37h-1.1a0,0,0,0,1,0,0V54.86A0,0,0,0,1,35.58,54.86Z"/><rect class="cls-12" x="35.58" y="41.86" width="30.19" height="30.19" rx="1.98"/><rect class="cls-7" x="54.01" y="45.23" width="7.92" height="7.92" rx="2.22"/><rect class="cls-12" x="54.01" y="45.23" width="7.92" height="7.92" rx="2.22"/><rect class="cls-13" x="55.46" y="46.68" width="5.02" height="5.02" rx="1.41"/><rect class="cls-7" x="39.42" y="45.23" width="7.92" height="7.92" rx="2.22"/><rect class="cls-12" x="39.42" y="45.23" width="7.92" height="7.92" rx="2.22"/><rect class="cls-13" x="40.87" y="46.68" width="5.02" height="5.02" rx="1.41"/><rect class="cls-7" x="54.01" y="60.75" width="7.92" height="7.92" rx="2.22"/><rect class="cls-12" x="54.01" y="60.75" width="7.92" height="7.92" rx="2.22"/><rect class="cls-13" x="55.46" y="62.19" width="5.02" height="5.02" rx="1.41"/><rect class="cls-7" x="39.42" y="60.75" width="7.92" height="7.92" rx="2.22"/><rect class="cls-12" x="39.42" y="60.75" width="7.92" height="7.92" rx="2.22"/><rect class="cls-13" x="40.87" y="62.19" width="5.02" height="5.02" rx="1.41"/><rect class="cls-7" x="65.83" y="41.86" width="30.19" height="30.19" rx="1.98"/><path class="cls-11" d="M80.19,40.5h1.1a.37.37,0,0,1,.37.37v3.43a.37.37,0,0,1-.37.37h-1.1a0,0,0,0,1,0,0V40.5A0,0,0,0,1,80.19,40.5Z" transform="translate(123.52 -38.33) rotate(90)"/><path class="cls-11" d="M80.19,69.21h1.1a.37.37,0,0,1,.37.37V73a.37.37,0,0,1-.37.37h-1.1a0,0,0,0,1,0,0V69.21A0,0,0,0,1,80.19,69.21Z" transform="translate(9.62 152.23) rotate(-90)"/><path class="cls-11" d="M94.55,54.86h1.1a.37.37,0,0,1,.37.37v3.43a.37.37,0,0,1-.37.37h-1.1a0,0,0,0,1,0,0V54.86A0,0,0,0,1,94.55,54.86Z" transform="translate(190.57 113.9) rotate(180)"/><path class="cls-11" d="M65.83,54.86h1.1a.37.37,0,0,1,.37.37v3.43a.37.37,0,0,1-.37.37h-1.1a0,0,0,0,1,0,0V54.86A0,0,0,0,1,65.83,54.86Z"/><rect class="cls-12" x="65.83" y="41.86" width="30.19" height="30.19" rx="1.98"/><rect class="cls-7" x="84.26" y="45.23" width="7.92" height="7.92" rx="2.22"/><rect class="cls-12" x="84.26" y="45.23" width="7.92" height="7.92" rx="2.22"/><rect class="cls-13" x="85.71" y="46.68" width="5.02" height="5.02" rx="1.41"/><rect class="cls-7" x="69.67" y="45.23" width="7.92" height="7.92" rx="2.22"/><rect class="cls-12" x="69.67" y="45.23" width="7.92" height="7.92" rx="2.22"/><rect class="cls-13" x="71.12" y="46.68" width="5.02" height="5.02" rx="1.41"/><rect class="cls-7" x="84.26" y="60.75" width="7.92" height="7.92" rx="2.22"/><rect class="cls-12" x="84.26" y="60.75" width="7.92" height="7.92" rx="2.22"/><rect class="cls-13" x="85.71" y="62.19" width="5.02" height="5.02" rx="1.41"/><rect class="cls-7" x="69.67" y="60.75" width="7.92" height="7.92" rx="2.22"/><rect class="cls-12" x="69.67" y="60.75" width="7.92" height="7.92" rx="2.22"/><rect class="cls-13" x="71.12" y="62.19" width="5.02" height="5.02" rx="1.41"/><path class="cls-5" d="M66.34,17.32,59,24.66a1.78,1.78,0,0,0,0,2.48,1.76,1.76,0,0,0,2.48,0l4.36-4.33v16a1.75,1.75,0,1,0,3.5,0v-16l4.34,4.33a1.75,1.75,0,0,0,2.47,0,1.74,1.74,0,0,0,0-2.5l-7.31-7.32a1.78,1.78,0,0,0-1.25-.52A1.68,1.68,0,0,0,66.34,17.32Z"/><path class="cls-6" d="M64.55,17.32l-7.33,7.34a1.75,1.75,0,0,0,2.48,2.48l4.35-4.33v16a1.76,1.76,0,1,0,3.51,0v-16l4.33,4.33a1.76,1.76,0,0,0,2.48-2.5l-7.31-7.32a1.82,1.82,0,0,0-1.26-.52A1.69,1.69,0,0,0,64.55,17.32Z"/></g></g></svg>