<svg xmlns="http://www.w3.org/2000/svg" width="85" height="66" viewBox="-11 -12 85 66"><defs><style>.cls-1{fill:#002083;}.cls-2{fill:#fff;}.cls-3{fill:#efefef;}.cls-4,.cls-8{fill:none;stroke:#cccbcb;stroke-miterlimit:10;}.cls-4{stroke-width:0.2px;}.cls-5{fill:#b2b2b2;}.cls-6{fill:#a4a4a4;}.cls-7{fill:#ec2024;}.cls-8{stroke-width:0.21px;}.cls-9{fill:#cccbcb;}</style></defs><title>backward</title><g id="레이어_2" data-name="레이어 2"><g id="레이어_1-2" data-name="레이어 1"><path class="cls-1" d="M5.76,43.18a1.83,1.83,0,0,1-1.38,2.59A7,7,0,0,1,3,45.92a7.25,7.25,0,0,1-1.61-.08A.52.52,0,0,1,1,45.38a.45.45,0,0,1,0-.18V39.52c0-.75.67-.78,1.35-.77h.82A4.21,4.21,0,0,1,4.53,39l.32.14a.9.9,0,0,1,.27.2,1.75,1.75,0,0,1-.18,2.8A1.9,1.9,0,0,1,5.76,43.18ZM4.26,44.5a1.17,1.17,0,0,0-.19-1.57A1.81,1.81,0,0,0,3,42.64c-.38,0-.63,0-.62.34s0,.7,0,1,0,.44.1.58a1.16,1.16,0,0,0,.78.18C3.6,44.74,4.1,44.69,4.26,44.5Zm-1.9-4c0,.25,0,.5,0,.74,0,.54.81.43,1.24.36a.8.8,0,0,0,.78-.79c0-.6-.36-.8-1-.82C2.56,39.94,2.34,39.85,2.36,40.47Z"/><path class="cls-1" d="M12.76,45.36a.36.36,0,0,1-.07.22.49.49,0,0,1-.2.17.76.76,0,0,1-.53.1.6.6,0,0,1-.25-.13l-.05,0-.05-.05a1.15,1.15,0,0,1-.14-.19l-.1-.19a.51.51,0,0,1-.07-.15,1,1,0,0,1-.05-.16L11,44.44c-.91,0-1.84,0-2.75,0l-.21.49s0,.11-.05.16a1,1,0,0,1-.07.15l-.11.19a.72.72,0,0,1-.13.19l0,.05,0,0a.6.6,0,0,1-.25.13.76.76,0,0,1-.53-.1.49.49,0,0,1-.2-.17.36.36,0,0,1-.07-.22,1.79,1.79,0,0,1,0-.24,1,1,0,0,1,0-.18l0-.09,2.08-5.12.06-.16c0-.08.07-.14.1-.23A1.2,1.2,0,0,1,9,39.11a1.13,1.13,0,0,1,.15-.21.52.52,0,0,1,.17-.13,1,1,0,0,1,.65,0,.52.52,0,0,1,.17.13l.15.21a1.2,1.2,0,0,1,.11.23c0,.09.07.15.1.23l.06.16,2.08,5.12,0,.09a1,1,0,0,1,.05.18A1.79,1.79,0,0,1,12.76,45.36Zm-2.39-2.69c-.17-.38-.35-.8-.55-1.23l-.16-.37c0,.12-.1.25-.15.37-.2.43-.38.85-.55,1.23l-.18.44h1.77Z"/><path class="cls-1" d="M17.27,45.83a3.39,3.39,0,0,1-2.77-.68c-.93-.77-1-2.27-.9-3.36A3.64,3.64,0,0,1,15.32,39a2.67,2.67,0,0,1,2.83.26c.42.37,1.08,1.47.19,1.69-.37.1-.58-.17-.77-.41a1.32,1.32,0,0,0-2.21.34,3.37,3.37,0,0,0,0,3.06,1.52,1.52,0,0,0,2,.44c.22-.11.49-.43.8-.52a.6.6,0,0,1,.72.3C19.23,44.88,18.06,45.64,17.27,45.83Z"/><path class="cls-1" d="M24.59,45.38a.41.41,0,0,1-.17.24.9.9,0,0,1-.22.14.45.45,0,0,1-.26,0,.4.4,0,0,1-.21-.07l-.21-.14a1.9,1.9,0,0,1-.2-.18l-.17-.19L23,45.09l-1.92-2,0,2v.09a1.35,1.35,0,0,1,0,.18,2,2,0,0,1-.07.23.4.4,0,0,1-.13.18.47.47,0,0,1-.26.11.69.69,0,0,1-.53,0,.51.51,0,0,1-.18-.2l0,0a.25.25,0,0,0,0-.07.41.41,0,0,1-.06-.2l0-.22a.86.86,0,0,1,0-.16,1,1,0,0,0,0-.17V42.51q0-.65,0-1.38c0-.48,0-.81,0-1.27v0c0-.14,0-.29,0-.42a.93.93,0,0,1,.09-.4.49.49,0,0,1,.21-.24.86.86,0,0,1,.32-.1,2.06,2.06,0,0,1,.26,0,.43.43,0,0,1,.24.11A.35.35,0,0,1,21,39a.52.52,0,0,1,.07.23,2,2,0,0,1,0,.25v1.63c.21-.19.42-.39.62-.61.36-.37.71-.73,1.07-1.07l0,0c.11-.1.22-.21.33-.3a.88.88,0,0,1,.37-.24.54.54,0,0,1,.33-.07.65.65,0,0,1,.31.12,1,1,0,0,1,.18.17.32.32,0,0,1,.1.21.48.48,0,0,1,0,.2,2.26,2.26,0,0,1-.13.2,1.24,1.24,0,0,1-.18.21c-.05.07-.12.12-.17.18l-.13.13-1.87,1.91,1.13,1.15c.36.37.69.74,1,1.11l0,0a4.09,4.09,0,0,1,.28.33.91.91,0,0,1,.21.37A.32.32,0,0,1,24.59,45.38Z"/><path class="cls-1" d="M32.57,39.52c0,.13,0,.26-.07.39v0c-.18.82-.44,1.79-.63,2.6s-.34,1.54-.52,2.2a4,4,0,0,1-.24.68c-.19.4-.51.65-.93.35s-.43-.69-.59-1S29.12,43.32,29,43c-.24.59-.5,1.59-.59,1.85-.2.54-.48,1.41-1.18,1a.71.71,0,0,1-.28-.34c-.06-.19-.14-.36-.18-.54l-.2-.75-.41-1.61c-.1-.41-.2-.84-.33-1.31s-.18-.83-.34-1.72a1.35,1.35,0,0,1,0-.4.4.4,0,0,1,.14-.26.53.53,0,0,1,.27-.13.81.81,0,0,1,.25,0,.49.49,0,0,1,.25.08.43.43,0,0,1,.14.13l.12.21.08.24c0,.09,0,.16.05.23.12.69.31,1.36.46,2s.31,1.54.46,1.95c.17-.59.35-1.2.56-1.81s.43-1.09.94-.9c.22.09.4.45.53.77.23.59.47,1.35.67,1.75.09-.3.22-1,.32-1.38.17-.72.37-1.46.54-2.16l.05-.17c0-.07,0-.14,0-.23s.05-.15.08-.24a1.06,1.06,0,0,1,.11-.21.45.45,0,0,1,.15-.13.52.52,0,0,1,.24-.08.77.77,0,0,1,.25,0,.64.64,0,0,1,.29.13.42.42,0,0,1,.12.26A.9.9,0,0,1,32.57,39.52Z"/><path class="cls-1" d="M38.79,45.36a.36.36,0,0,1-.07.22.49.49,0,0,1-.2.17.76.76,0,0,1-.53.1.6.6,0,0,1-.25-.13l-.05,0,0-.05a1.15,1.15,0,0,1-.14-.19l-.1-.19a.51.51,0,0,1-.07-.15,1,1,0,0,1,0-.16l-.21-.49c-.91,0-1.84,0-2.75,0l-.21.49s0,.11,0,.16a1,1,0,0,1-.07.15l-.11.19a.72.72,0,0,1-.13.19l0,.05-.05,0a.6.6,0,0,1-.25.13.76.76,0,0,1-.53-.1.49.49,0,0,1-.2-.17.36.36,0,0,1-.07-.22,1.79,1.79,0,0,1,0-.24,1,1,0,0,1,.05-.18l0-.09,2.08-5.12.06-.16c0-.08.07-.14.1-.23a1.2,1.2,0,0,1,.11-.23,1.13,1.13,0,0,1,.15-.21.52.52,0,0,1,.17-.13,1,1,0,0,1,.65,0,.52.52,0,0,1,.17.13l.15.21a1.2,1.2,0,0,1,.11.23c0,.09.07.15.1.23l.06.16,2.08,5.12,0,.09a1,1,0,0,1,.05.18A1.79,1.79,0,0,1,38.79,45.36ZM36.4,42.67c-.17-.38-.35-.8-.55-1.23l-.16-.37c0,.12-.1.25-.15.37-.2.43-.38.85-.55,1.23l-.18.44h1.77Z"/><path class="cls-1" d="M44.73,45.55a.42.42,0,0,1-.14.18,1.13,1.13,0,0,1-.22.11.65.65,0,0,1-.31,0,.47.47,0,0,1-.28-.12,1.36,1.36,0,0,1-.28-.31c-.06-.11-.15-.24-.22-.39l-1.11-2.11-.32,0c-.28,0-.52,0-.78,0h-.19v1.81c0,.1,0,.19,0,.3s0,.19,0,.28a.61.61,0,0,1-.28.42.68.68,0,0,1-.51.07.69.69,0,0,1-.25-.1.52.52,0,0,1-.12-.17c0-.07,0-.15-.07-.21a.63.63,0,0,1,0-.19V39.5a1.79,1.79,0,0,1,0-.24.71.71,0,0,1,.07-.22.32.32,0,0,1,.1-.17.71.71,0,0,1,.55-.14c.59,0,1.19,0,1.77,0a3.92,3.92,0,0,1,1.22.22l.33.14a1.21,1.21,0,0,1,.3.21A2.32,2.32,0,0,1,44.66,41a1.69,1.69,0,0,1-1.07,1.66l-.11,0,.92,1.85.09.16.1.19c0,.07.07.15.11.22s0,.17,0,.23A.39.39,0,0,1,44.73,45.55ZM42.25,41.8a1,1,0,0,0,1-.81c.05-.66-.4-1-1-1-.39,0-.88,0-1.29,0,0,.55,0,1.07,0,1.84Z"/><path class="cls-1" d="M50.74,43.14a3.08,3.08,0,0,1-1.16,2,4.74,4.74,0,0,1-2.6.72,3.15,3.15,0,0,1-.92,0,.55.55,0,0,1-.27-.11.4.4,0,0,1-.13-.18.83.83,0,0,1-.08-.22,1.41,1.41,0,0,1,0-.18V39.45a1,1,0,0,1,0-.25.7.7,0,0,1,.06-.23.36.36,0,0,1,.11-.17.57.57,0,0,1,.23-.12c.08,0,.17,0,.27,0l1.67,0a3.19,3.19,0,0,1,2.9,3.09A6.22,6.22,0,0,1,50.74,43.14Zm-1.81-2.42c-.36-.59-1.24-.7-2-.71,0,.38,0,.73,0,1.13s0,.94,0,1.36v2A2.19,2.19,0,0,0,49,43.68,3.11,3.11,0,0,0,48.93,40.72Z"/><path class="cls-2" d="M4.76,43.18a1.83,1.83,0,0,1-1.38,2.59A7,7,0,0,1,2,45.92a7.25,7.25,0,0,1-1.61-.08A.52.52,0,0,1,0,45.38a.45.45,0,0,1,0-.18V39.52c0-.75.67-.78,1.35-.77h.82A4.21,4.21,0,0,1,3.53,39l.32.14a.9.9,0,0,1,.27.2,1.75,1.75,0,0,1-.18,2.8A1.9,1.9,0,0,1,4.76,43.18ZM3.26,44.5a1.17,1.17,0,0,0-.19-1.57A1.81,1.81,0,0,0,2,42.64c-.38,0-.63,0-.62.34s0,.7,0,1,0,.44.1.58a1.16,1.16,0,0,0,.78.18C2.6,44.74,3.1,44.69,3.26,44.5Zm-1.9-4c0,.25,0,.5,0,.74,0,.54.81.43,1.24.36a.8.8,0,0,0,.78-.79c0-.6-.36-.8-1-.82C1.56,39.94,1.34,39.85,1.36,40.47Z"/><path class="cls-2" d="M11.76,45.36a.36.36,0,0,1-.07.22.49.49,0,0,1-.2.17.76.76,0,0,1-.53.1.6.6,0,0,1-.25-.13l-.05,0-.05-.05a1.15,1.15,0,0,1-.14-.19l-.1-.19a.51.51,0,0,1-.07-.15,1,1,0,0,1-.05-.16L10,44.44c-.91,0-1.84,0-2.75,0l-.21.49s0,.11,0,.16a1,1,0,0,1-.07.15l-.11.19a.72.72,0,0,1-.13.19l0,.05,0,0a.6.6,0,0,1-.25.13.76.76,0,0,1-.53-.1.49.49,0,0,1-.2-.17.36.36,0,0,1-.07-.22,1.79,1.79,0,0,1,0-.24,1,1,0,0,1,0-.18l0-.09,2.08-5.12.06-.16c0-.08.07-.14.1-.23A1.2,1.2,0,0,1,8,39.11a1.13,1.13,0,0,1,.15-.21.52.52,0,0,1,.17-.13,1,1,0,0,1,.65,0,.52.52,0,0,1,.17.13l.15.21a1.2,1.2,0,0,1,.11.23c0,.09.07.15.1.23l.06.16,2.08,5.12,0,.09a1,1,0,0,1,.05.18A1.79,1.79,0,0,1,11.76,45.36ZM9.37,42.67c-.17-.38-.35-.8-.55-1.23l-.16-.37c0,.12-.1.25-.15.37-.2.43-.38.85-.55,1.23l-.18.44H9.55Z"/><path class="cls-2" d="M16.27,45.83a3.39,3.39,0,0,1-2.77-.68c-.93-.77-1-2.27-.9-3.36A3.64,3.64,0,0,1,14.32,39a2.67,2.67,0,0,1,2.83.26c.42.37,1.08,1.47.19,1.69-.37.1-.58-.17-.77-.41a1.32,1.32,0,0,0-2.21.34,3.37,3.37,0,0,0,0,3.06,1.52,1.52,0,0,0,2,.44c.22-.11.49-.43.8-.52a.6.6,0,0,1,.72.3C18.23,44.88,17.06,45.64,16.27,45.83Z"/><path class="cls-2" d="M23.59,45.38a.41.41,0,0,1-.17.24.9.9,0,0,1-.22.14.45.45,0,0,1-.26,0,.4.4,0,0,1-.21-.07l-.21-.14a1.9,1.9,0,0,1-.2-.18l-.17-.19L22,45.09l-1.92-2,0,2v.09a1.35,1.35,0,0,1,0,.18,2,2,0,0,1-.07.23.4.4,0,0,1-.13.18.47.47,0,0,1-.26.11.69.69,0,0,1-.53,0,.51.51,0,0,1-.18-.2l0,0a.25.25,0,0,0,0-.07.41.41,0,0,1-.06-.2l0-.22a.86.86,0,0,1,0-.16,1,1,0,0,0,0-.17V42.51q0-.65,0-1.38c0-.48,0-.81,0-1.27v0c0-.14,0-.29,0-.42a.93.93,0,0,1,.09-.4.49.49,0,0,1,.21-.24.86.86,0,0,1,.32-.1,2.06,2.06,0,0,1,.26,0,.43.43,0,0,1,.24.11A.35.35,0,0,1,20,39a.52.52,0,0,1,.07.23,2,2,0,0,1,0,.25v1.63c.21-.19.42-.39.62-.61.36-.37.71-.73,1.07-1.07l0,0c.11-.1.22-.21.33-.3a.88.88,0,0,1,.37-.24.54.54,0,0,1,.33-.07.65.65,0,0,1,.31.12,1,1,0,0,1,.18.17.32.32,0,0,1,.1.21.48.48,0,0,1,0,.2,2.26,2.26,0,0,1-.13.2,1.24,1.24,0,0,1-.18.21c-.05.07-.12.12-.17.18l-.13.13-1.87,1.91,1.13,1.15c.36.37.69.74,1,1.11l0,0a4.09,4.09,0,0,1,.28.33.91.91,0,0,1,.21.37A.32.32,0,0,1,23.59,45.38Z"/><path class="cls-2" d="M31.57,39.52c0,.13-.05.26-.07.39v0c-.18.82-.44,1.79-.63,2.6s-.34,1.54-.52,2.2a4,4,0,0,1-.24.68c-.19.4-.51.65-.93.35s-.43-.69-.59-1S28.12,43.32,28,43c-.24.59-.5,1.59-.59,1.85-.2.54-.48,1.41-1.18,1a.71.71,0,0,1-.28-.34c-.06-.19-.14-.36-.18-.54l-.2-.75-.41-1.61c-.1-.41-.2-.84-.33-1.31s-.18-.83-.34-1.72a1.35,1.35,0,0,1,0-.4.4.4,0,0,1,.14-.26.53.53,0,0,1,.27-.13.81.81,0,0,1,.25,0,.49.49,0,0,1,.25.08.43.43,0,0,1,.14.13l.12.21.08.24c0,.09,0,.16.05.23.12.69.31,1.36.46,2s.31,1.54.46,1.95c.17-.59.35-1.2.56-1.81s.43-1.09.94-.9c.22.09.4.45.53.77.23.59.47,1.35.67,1.75.09-.3.22-1,.32-1.38.17-.72.37-1.46.54-2.16l.05-.17c0-.07,0-.14,0-.23s.05-.15.08-.24a1.06,1.06,0,0,1,.11-.21.45.45,0,0,1,.15-.13.52.52,0,0,1,.24-.08.77.77,0,0,1,.25,0,.64.64,0,0,1,.29.13.42.42,0,0,1,.12.26A.9.9,0,0,1,31.57,39.52Z"/><path class="cls-2" d="M37.79,45.36a.36.36,0,0,1-.07.22.49.49,0,0,1-.2.17.76.76,0,0,1-.53.1.6.6,0,0,1-.25-.13l-.05,0,0-.05a1.15,1.15,0,0,1-.14-.19l-.1-.19a.51.51,0,0,1-.07-.15,1,1,0,0,1,0-.16l-.21-.49c-.91,0-1.84,0-2.75,0l-.21.49s0,.11,0,.16a1,1,0,0,1-.07.15l-.11.19a.72.72,0,0,1-.13.19l0,.05-.05,0a.6.6,0,0,1-.25.13.76.76,0,0,1-.53-.1.49.49,0,0,1-.2-.17.36.36,0,0,1-.07-.22,1.79,1.79,0,0,1,0-.24,1,1,0,0,1,.05-.18l0-.09,2.08-5.12.06-.16c0-.08.07-.14.1-.23a1.2,1.2,0,0,1,.11-.23,1.13,1.13,0,0,1,.15-.21.52.52,0,0,1,.17-.13,1,1,0,0,1,.65,0,.52.52,0,0,1,.17.13l.15.21a1.2,1.2,0,0,1,.11.23c0,.09.07.15.1.23l.06.16,2.08,5.12,0,.09a1,1,0,0,1,.05.18A1.79,1.79,0,0,1,37.79,45.36ZM35.4,42.67c-.17-.38-.35-.8-.55-1.23l-.16-.37c0,.12-.1.25-.15.37-.2.43-.38.85-.55,1.23l-.18.44h1.77Z"/><path class="cls-2" d="M43.73,45.55a.42.42,0,0,1-.14.18,1.13,1.13,0,0,1-.22.11.65.65,0,0,1-.31,0,.47.47,0,0,1-.28-.12,1.36,1.36,0,0,1-.28-.31c-.06-.11-.15-.24-.22-.39l-1.11-2.11-.32,0c-.28,0-.52,0-.78,0h-.19v1.81c0,.1,0,.19,0,.3s0,.19,0,.28a.61.61,0,0,1-.28.42.68.68,0,0,1-.51.07.69.69,0,0,1-.25-.1.52.52,0,0,1-.12-.17c0-.07,0-.15-.07-.21a.63.63,0,0,1,0-.19V39.5a1.79,1.79,0,0,1,0-.24.71.71,0,0,1,.07-.22.32.32,0,0,1,.1-.17.71.71,0,0,1,.55-.14c.59,0,1.19,0,1.77,0a3.92,3.92,0,0,1,1.22.22l.33.14a1.21,1.21,0,0,1,.3.21A2.32,2.32,0,0,1,43.66,41a1.69,1.69,0,0,1-1.07,1.66l-.11,0,.92,1.85.09.16.1.19c0,.07.07.15.11.22s0,.17,0,.23A.39.39,0,0,1,43.73,45.55ZM41.25,41.8a1,1,0,0,0,1-.81c.05-.66-.4-1-1-1-.39,0-.88,0-1.29,0,0,.55,0,1.07,0,1.84Z"/><path class="cls-2" d="M49.74,43.14a3.08,3.08,0,0,1-1.16,2,4.74,4.74,0,0,1-2.6.72,3.15,3.15,0,0,1-.92,0,.55.55,0,0,1-.27-.11.4.4,0,0,1-.13-.18.83.83,0,0,1-.08-.22,1.41,1.41,0,0,1,0-.18V39.45a1,1,0,0,1,0-.25.7.7,0,0,1,.06-.23.36.36,0,0,1,.11-.17.57.57,0,0,1,.23-.12c.08,0,.17,0,.27,0l1.67,0a3.19,3.19,0,0,1,2.9,3.09A6.22,6.22,0,0,1,49.74,43.14Zm-1.81-2.42c-.36-.59-1.24-.7-2-.71,0,.38,0,.73,0,1.13s0,.94,0,1.36v2A2.19,2.19,0,0,0,48,43.68,3.11,3.11,0,0,0,47.93,40.72Z"/><rect class="cls-1" x="5.34" y="2.16" width="3.18" height="19.4" rx="1.45" ry="1.45" transform="translate(13.87 23.72) rotate(180)"/><rect class="cls-1" x="5.78" width="3.18" height="23.21" rx="1.59" ry="1.59" transform="translate(14.75 23.21) rotate(180)"/><path class="cls-1" d="M6.87,1.37h1A1.09,1.09,0,0,1,9,2.46v0a.17.17,0,0,1-.17.17H6a.17.17,0,0,1-.17-.17v0A1.09,1.09,0,0,1,6.87,1.37Z"/><rect class="cls-1" x="5.78" y="4.18" width="3.18" height="1.26" rx="0.17" ry="0.17"/><rect class="cls-1" x="5.78" y="6.99" width="3.18" height="1.26" rx="0.17" ry="0.17"/><rect class="cls-1" x="5.78" y="9.79" width="3.18" height="1.26" rx="0.17" ry="0.17"/><rect class="cls-1" x="5.78" y="12.6" width="3.18" height="1.26" rx="0.17" ry="0.17"/><rect class="cls-1" x="5.78" y="15.41" width="3.18" height="1.26" rx="0.17" ry="0.17"/><rect class="cls-1" x="5.78" y="18.22" width="3.18" height="1.26" rx="0.17" ry="0.17"/><path class="cls-1" d="M6,21H8.79a.17.17,0,0,1,.17.17v0a1.09,1.09,0,0,1-1.09,1.09h-1a1.09,1.09,0,0,1-1.09-1.09v0A.17.17,0,0,1,6,21Z"/><rect class="cls-1" x="43.31" y="1.66" width="3.18" height="19.4" rx="1.45" ry="1.45"/><rect class="cls-1" x="42.88" width="3.18" height="23.21" rx="1.59" ry="1.59"/><path class="cls-1" d="M44,20.59h1a1.09,1.09,0,0,1,1.09,1.09v0a.17.17,0,0,1-.17.17H43a.17.17,0,0,1-.17-.17v0A1.09,1.09,0,0,1,44,20.59Z" transform="translate(88.93 42.43) rotate(180)"/><rect class="cls-1" x="42.88" y="17.78" width="3.18" height="1.26" rx="0.17" ry="0.17" transform="translate(88.93 36.82) rotate(180)"/><rect class="cls-1" x="42.88" y="14.97" width="3.18" height="1.26" rx="0.17" ry="0.17" transform="translate(88.93 31.2) rotate(180)"/><rect class="cls-1" x="42.88" y="12.16" width="3.18" height="1.26" rx="0.17" ry="0.17" transform="translate(88.93 25.58) rotate(180)"/><rect class="cls-1" x="42.88" y="9.36" width="3.18" height="1.26" rx="0.17" ry="0.17" transform="translate(88.93 19.97) rotate(180)"/><rect class="cls-1" x="42.88" y="6.55" width="3.18" height="1.26" rx="0.17" ry="0.17" transform="translate(88.93 14.35) rotate(180)"/><rect class="cls-1" x="42.88" y="3.74" width="3.18" height="1.26" rx="0.17" ry="0.17" transform="translate(88.93 8.74) rotate(180)"/><path class="cls-1" d="M43,.93h2.84a.17.17,0,0,1,.17.17v0A1.09,1.09,0,0,1,45,2.19H44A1.09,1.09,0,0,1,42.88,1.1v0A.17.17,0,0,1,43,.93Z" transform="translate(88.93 3.12) rotate(180)"/><rect class="cls-1" x="9" y="3.16" width="16.9" height="16.9" rx="1.98" ry="1.98"/><path class="cls-1" d="M17,2.4h.45a.37.37,0,0,1,.37.37V4.37a.37.37,0,0,1-.37.37H17a0,0,0,0,1,0,0V2.4A0,0,0,0,1,17,2.4Z" transform="translate(21.02 -13.88) rotate(90)"/><path class="cls-1" d="M17,18.47h.45a.37.37,0,0,1,.37.37v1.59a.37.37,0,0,1-.37.37H17a0,0,0,0,1,0,0V18.47A0,0,0,0,1,17,18.47Z" transform="translate(-2.19 37.09) rotate(-90)"/><path class="cls-1" d="M25.07,10.44h.45a.37.37,0,0,1,.37.37V12.4a.37.37,0,0,1-.37.37h-.45a0,0,0,0,1,0,0V10.44A0,0,0,0,1,25.07,10.44Z" transform="translate(50.98 23.21) rotate(180)"/><path class="cls-1" d="M9,10.44h.45a.37.37,0,0,1,.37.37V12.4a.37.37,0,0,1-.37.37H9a0,0,0,0,1,0,0V10.44A0,0,0,0,1,9,10.44Z"/><rect class="cls-1" x="9" y="3.16" width="16.9" height="16.9" rx="1.98" ry="1.98"/><rect class="cls-1" x="19.32" y="5.05" width="4.43" height="4.43" rx="2.22" ry="2.22"/><rect class="cls-1" x="19.32" y="5.05" width="4.43" height="4.43" rx="2.22" ry="2.22"/><rect class="cls-1" x="20.13" y="5.86" width="2.81" height="2.81" rx="1.41" ry="1.41"/><rect class="cls-1" x="11.15" y="5.05" width="4.43" height="4.43" rx="2.22" ry="2.22"/><rect class="cls-1" x="11.15" y="5.05" width="4.43" height="4.43" rx="2.22" ry="2.22"/><rect class="cls-1" x="11.96" y="5.86" width="2.81" height="2.81" rx="1.41" ry="1.41"/><rect class="cls-1" x="19.32" y="13.73" width="4.43" height="4.43" rx="2.22" ry="2.22"/><rect class="cls-1" x="19.32" y="13.73" width="4.43" height="4.43" rx="2.22" ry="2.22"/><rect class="cls-1" x="20.13" y="14.54" width="2.81" height="2.81" rx="1.41" ry="1.41"/><rect class="cls-1" x="11.15" y="13.73" width="4.43" height="4.43" rx="2.22" ry="2.22"/><rect class="cls-1" x="11.15" y="13.73" width="4.43" height="4.43" rx="2.22" ry="2.22"/><rect class="cls-1" x="11.96" y="14.54" width="2.81" height="2.81" rx="1.41" ry="1.41"/><rect class="cls-1" x="25.94" y="3.16" width="16.9" height="16.9" rx="1.98" ry="1.98"/><path class="cls-1" d="M34,2.4h.45a.37.37,0,0,1,.37.37V4.37a.37.37,0,0,1-.37.37H34a0,0,0,0,1,0,0V2.4A0,0,0,0,1,34,2.4Z" transform="translate(37.96 -30.82) rotate(90)"/><path class="cls-1" d="M34,18.47h.45a.37.37,0,0,1,.37.37v1.59a.37.37,0,0,1-.37.37H34a0,0,0,0,1,0,0V18.47A0,0,0,0,1,34,18.47Z" transform="translate(14.74 54.03) rotate(-90)"/><path class="cls-1" d="M42,10.44h.45a.37.37,0,0,1,.37.37V12.4a.37.37,0,0,1-.37.37H42a0,0,0,0,1,0,0V10.44A0,0,0,0,1,42,10.44Z" transform="translate(84.85 23.21) rotate(180)"/><path class="cls-1" d="M25.94,10.44h.45a.37.37,0,0,1,.37.37V12.4a.37.37,0,0,1-.37.37h-.45a0,0,0,0,1,0,0V10.44A0,0,0,0,1,25.94,10.44Z"/><rect class="cls-1" x="25.94" y="3.16" width="16.9" height="16.9" rx="1.98" ry="1.98"/><rect class="cls-1" x="36.26" y="5.05" width="4.43" height="4.43" rx="2.22" ry="2.22"/><rect class="cls-1" x="36.26" y="5.05" width="4.43" height="4.43" rx="2.22" ry="2.22"/><rect class="cls-1" x="37.07" y="5.86" width="2.81" height="2.81" rx="1.41" ry="1.41"/><rect class="cls-1" x="28.09" y="5.05" width="4.43" height="4.43" rx="2.22" ry="2.22"/><rect class="cls-1" x="28.09" y="5.05" width="4.43" height="4.43" rx="2.22" ry="2.22"/><rect class="cls-1" x="28.9" y="5.86" width="2.81" height="2.81" rx="1.41" ry="1.41"/><rect class="cls-1" x="36.26" y="13.73" width="4.43" height="4.43" rx="2.22" ry="2.22"/><rect class="cls-1" x="36.26" y="13.73" width="4.43" height="4.43" rx="2.22" ry="2.22"/><rect class="cls-1" x="37.07" y="14.54" width="2.81" height="2.81" rx="1.41" ry="1.41"/><rect class="cls-1" x="28.09" y="13.73" width="4.43" height="4.43" rx="2.22" ry="2.22"/><rect class="cls-1" x="28.09" y="13.73" width="4.43" height="4.43" rx="2.22" ry="2.22"/><rect class="cls-1" x="28.9" y="14.54" width="2.81" height="2.81" rx="1.41" ry="1.41"/><rect class="cls-3" x="4.34" y="2.16" width="3.18" height="19.4" rx="1.45" ry="1.45" transform="translate(11.87 23.72) rotate(180)"/><rect class="cls-3" x="42.31" y="1.66" width="3.18" height="19.4" rx="1.45" ry="1.45"/><rect class="cls-4" x="4.34" y="2.16" width="3.18" height="19.4" rx="1.45" ry="1.45" transform="translate(11.87 23.72) rotate(180)"/><rect class="cls-4" x="42.31" y="1.66" width="3.18" height="19.4" rx="1.45" ry="1.45"/><rect class="cls-5" x="4.78" width="3.18" height="23.21" rx="1.59" ry="1.59" transform="translate(12.75 23.21) rotate(180)"/><path class="cls-6" d="M5.87,1.37h1A1.09,1.09,0,0,1,8,2.46v0a.17.17,0,0,1-.17.17H5a.17.17,0,0,1-.17-.17v0A1.09,1.09,0,0,1,5.87,1.37Z"/><rect class="cls-6" x="4.78" y="4.18" width="3.18" height="1.26" rx="0.17" ry="0.17"/><rect class="cls-6" x="4.78" y="6.99" width="3.18" height="1.26" rx="0.17" ry="0.17"/><rect class="cls-6" x="4.78" y="9.79" width="3.18" height="1.26" rx="0.17" ry="0.17"/><rect class="cls-6" x="4.78" y="12.6" width="3.18" height="1.26" rx="0.17" ry="0.17"/><rect class="cls-6" x="4.78" y="15.41" width="3.18" height="1.26" rx="0.17" ry="0.17"/><rect class="cls-6" x="4.78" y="18.22" width="3.18" height="1.26" rx="0.17" ry="0.17"/><path class="cls-6" d="M5,21H7.79a.17.17,0,0,1,.17.17v0a1.09,1.09,0,0,1-1.09,1.09h-1a1.09,1.09,0,0,1-1.09-1.09v0A.17.17,0,0,1,5,21Z"/><rect class="cls-5" x="41.88" width="3.18" height="23.21" rx="1.59" ry="1.59"/><path class="cls-6" d="M43,20.59h1a1.09,1.09,0,0,1,1.09,1.09v0a.17.17,0,0,1-.17.17H42a.17.17,0,0,1-.17-.17v0A1.09,1.09,0,0,1,43,20.59Z" transform="translate(86.93 42.43) rotate(180)"/><rect class="cls-6" x="41.88" y="17.78" width="3.18" height="1.26" rx="0.17" ry="0.17" transform="translate(86.93 36.82) rotate(180)"/><rect class="cls-6" x="41.88" y="14.97" width="3.18" height="1.26" rx="0.17" ry="0.17" transform="translate(86.93 31.2) rotate(180)"/><rect class="cls-6" x="41.88" y="12.16" width="3.18" height="1.26" rx="0.17" ry="0.17" transform="translate(86.93 25.58) rotate(180)"/><rect class="cls-6" x="41.88" y="9.36" width="3.18" height="1.26" rx="0.17" ry="0.17" transform="translate(86.93 19.97) rotate(180)"/><rect class="cls-6" x="41.88" y="6.55" width="3.18" height="1.26" rx="0.17" ry="0.17" transform="translate(86.93 14.35) rotate(180)"/><rect class="cls-6" x="41.88" y="3.74" width="3.18" height="1.26" rx="0.17" ry="0.17" transform="translate(86.93 8.74) rotate(180)"/><path class="cls-6" d="M42,.93h2.84a.17.17,0,0,1,.17.17v0A1.09,1.09,0,0,1,44,2.19H43A1.09,1.09,0,0,1,41.88,1.1v0A.17.17,0,0,1,42,.93Z" transform="translate(86.93 3.12) rotate(180)"/><rect class="cls-3" x="8" y="3.16" width="16.9" height="16.9" rx="1.98" ry="1.98"/><path class="cls-7" d="M16,2.4h.45a.37.37,0,0,1,.37.37V4.37a.37.37,0,0,1-.37.37H16a0,0,0,0,1,0,0V2.4A0,0,0,0,1,16,2.4Z" transform="translate(20.02 -12.88) rotate(90)"/><path class="cls-7" d="M16,18.47h.45a.37.37,0,0,1,.37.37v1.59a.37.37,0,0,1-.37.37H16a0,0,0,0,1,0,0V18.47A0,0,0,0,1,16,18.47Z" transform="translate(-3.19 36.09) rotate(-90)"/><path class="cls-7" d="M24.07,10.44h.45a.37.37,0,0,1,.37.37V12.4a.37.37,0,0,1-.37.37h-.45a0,0,0,0,1,0,0V10.44A0,0,0,0,1,24.07,10.44Z" transform="translate(48.98 23.21) rotate(180)"/><path class="cls-7" d="M8,10.44h.45a.37.37,0,0,1,.37.37V12.4a.37.37,0,0,1-.37.37H8a0,0,0,0,1,0,0V10.44A0,0,0,0,1,8,10.44Z"/><rect class="cls-8" x="8" y="3.16" width="16.9" height="16.9" rx="1.98" ry="1.98"/><rect class="cls-3" x="18.32" y="5.05" width="4.43" height="4.43" rx="2.22" ry="2.22"/><rect class="cls-8" x="18.32" y="5.05" width="4.43" height="4.43" rx="2.22" ry="2.22"/><rect class="cls-9" x="19.13" y="5.86" width="2.81" height="2.81" rx="1.41" ry="1.41"/><rect class="cls-3" x="10.15" y="5.05" width="4.43" height="4.43" rx="2.22" ry="2.22"/><rect class="cls-8" x="10.15" y="5.05" width="4.43" height="4.43" rx="2.22" ry="2.22"/><rect class="cls-9" x="10.96" y="5.86" width="2.81" height="2.81" rx="1.41" ry="1.41"/><rect class="cls-3" x="18.32" y="13.73" width="4.43" height="4.43" rx="2.22" ry="2.22"/><rect class="cls-8" x="18.32" y="13.73" width="4.43" height="4.43" rx="2.22" ry="2.22"/><rect class="cls-9" x="19.13" y="14.54" width="2.81" height="2.81" rx="1.41" ry="1.41"/><rect class="cls-3" x="10.15" y="13.73" width="4.43" height="4.43" rx="2.22" ry="2.22"/><rect class="cls-8" x="10.15" y="13.73" width="4.43" height="4.43" rx="2.22" ry="2.22"/><rect class="cls-9" x="10.96" y="14.54" width="2.81" height="2.81" rx="1.41" ry="1.41"/><rect class="cls-3" x="24.94" y="3.16" width="16.9" height="16.9" rx="1.98" ry="1.98"/><path class="cls-7" d="M33,2.4h.45a.37.37,0,0,1,.37.37V4.37a.37.37,0,0,1-.37.37H33a0,0,0,0,1,0,0V2.4A0,0,0,0,1,33,2.4Z" transform="translate(36.96 -29.82) rotate(90)"/><path class="cls-7" d="M33,18.47h.45a.37.37,0,0,1,.37.37v1.59a.37.37,0,0,1-.37.37H33a0,0,0,0,1,0,0V18.47A0,0,0,0,1,33,18.47Z" transform="translate(13.74 53.03) rotate(-90)"/><path class="cls-7" d="M41,10.44h.45a.37.37,0,0,1,.37.37V12.4a.37.37,0,0,1-.37.37H41a0,0,0,0,1,0,0V10.44A0,0,0,0,1,41,10.44Z" transform="translate(82.85 23.21) rotate(180)"/><path class="cls-7" d="M24.94,10.44h.45a.37.37,0,0,1,.37.37V12.4a.37.37,0,0,1-.37.37h-.45a0,0,0,0,1,0,0V10.44A0,0,0,0,1,24.94,10.44Z"/><rect class="cls-8" x="24.94" y="3.16" width="16.9" height="16.9" rx="1.98" ry="1.98"/><rect class="cls-3" x="35.26" y="5.05" width="4.43" height="4.43" rx="2.22" ry="2.22"/><rect class="cls-8" x="35.26" y="5.05" width="4.43" height="4.43" rx="2.22" ry="2.22"/><rect class="cls-9" x="36.07" y="5.86" width="2.81" height="2.81" rx="1.41" ry="1.41"/><rect class="cls-3" x="27.09" y="5.05" width="4.43" height="4.43" rx="2.22" ry="2.22"/><rect class="cls-8" x="27.09" y="5.05" width="4.43" height="4.43" rx="2.22" ry="2.22"/><rect class="cls-9" x="27.9" y="5.86" width="2.81" height="2.81" rx="1.41" ry="1.41"/><rect class="cls-3" x="35.26" y="13.73" width="4.43" height="4.43" rx="2.22" ry="2.22"/><rect class="cls-8" x="35.26" y="13.73" width="4.43" height="4.43" rx="2.22" ry="2.22"/><rect class="cls-9" x="36.07" y="14.54" width="2.81" height="2.81" rx="1.41" ry="1.41"/><rect class="cls-3" x="27.09" y="13.73" width="4.43" height="4.43" rx="2.22" ry="2.22"/><rect class="cls-8" x="27.09" y="13.73" width="4.43" height="4.43" rx="2.22" ry="2.22"/><rect class="cls-9" x="27.9" y="14.54" width="2.81" height="2.81" rx="1.41" ry="1.41"/><path class="cls-1" d="M26.62,33.58l4.11-4.1a1,1,0,0,0,0-1.39,1,1,0,0,0-1.39,0L26.9,30.51v-9a1,1,0,0,0-2,0v9l-2.43-2.42a1,1,0,0,0-1.39,0,1,1,0,0,0-.29.7,1,1,0,0,0,.29.7l4.1,4.09a1,1,0,0,0,.7.3A.94.94,0,0,0,26.62,33.58Z"/><path class="cls-2" d="M25.62,33.58l4.11-4.1a1,1,0,0,0,0-1.39,1,1,0,0,0-1.39,0L25.9,30.51v-9a1,1,0,0,0-2,0v9l-2.43-2.42a1,1,0,0,0-1.39,0,1,1,0,0,0-.29.7,1,1,0,0,0,.29.7l4.1,4.09a1,1,0,0,0,.7.3A.94.94,0,0,0,25.62,33.58Z"/></g></g></svg>