<svg xmlns="http://www.w3.org/2000/svg" width="85" height="66" viewBox="-14 -8 85 66"><defs><style>.cls-1{fill:#9a1f93;}.cls-2{fill:#fff;}.cls-3,.cls-4{fill:none;stroke-linecap:round;stroke-linejoin:round;stroke-width:2.09px;}.cls-3{stroke:#9a1f93;}.cls-4{stroke:#ea13ff;}.cls-5{fill:#ea13ff;}</style></defs><title>delay</title><g id="레이어_2" data-name="레이어 2"><g id="레이어_1-2" data-name="레이어 1"><path class="cls-1" d="M13.45,40.39a3.08,3.08,0,0,1-1.16,2,4.74,4.74,0,0,1-2.6.72,3.15,3.15,0,0,1-.92,0A.55.55,0,0,1,8.5,43a.4.4,0,0,1-.13-.18.83.83,0,0,1-.08-.22,1.41,1.41,0,0,1,0-.18V36.7a1,1,0,0,1,0-.25.7.7,0,0,1,.06-.23.36.36,0,0,1,.11-.17.57.57,0,0,1,.23-.12c.08,0,.17,0,.27,0l1.67,0A3.19,3.19,0,0,1,13.53,39,6.22,6.22,0,0,1,13.45,40.39ZM11.64,38c-.36-.59-1.24-.7-2-.71,0,.38,0,.73,0,1.13s0,.94,0,1.36v2a2.19,2.19,0,0,0,2.05-.86A3.11,3.11,0,0,0,11.64,38Z"/><path class="cls-1" d="M15.72,37.17l0,1.57h.4c.54,0,.92,0,1.44,0h.51a2.11,2.11,0,0,1,.45.09.62.62,0,0,1,.28.18.46.46,0,0,1,.1.29.9.9,0,0,1,0,.23.31.31,0,0,1-.13.2.35.35,0,0,1-.19.1l-.26,0a1.27,1.27,0,0,1-.28,0H15.68l0,2,2,0h.75l.27,0a.75.75,0,0,1,.2.11.43.43,0,0,1,.13.21.77.77,0,0,1,0,.22.45.45,0,0,1-.1.29.55.55,0,0,1-.28.18,1.14,1.14,0,0,1-.46.09l-.46,0H15a.61.61,0,0,1-.38-.08.4.4,0,0,1-.17-.19.11.11,0,0,1,0-.06l0-.06a.78.78,0,0,1,0-.21l0-.2v-.16s0-.11,0-.16v-.78l0-1.44V38.41c0-.48,0-.81,0-1.25v0c0-.14,0-.27,0-.4a1,1,0,0,1,.11-.39.49.49,0,0,1,.21-.24.56.56,0,0,1,.31-.09h2.72l.46,0a1.33,1.33,0,0,1,.44.09.57.57,0,0,1,.28.17.49.49,0,0,1,.09.28.75.75,0,0,1,0,.22.35.35,0,0,1-.12.21,1.09,1.09,0,0,1-.19.1l-.25,0a1.42,1.42,0,0,1-.29,0H15.72Z"/><path class="cls-1" d="M24.48,42.59a.49.49,0,0,1-.11.28.53.53,0,0,1-.26.18,1.42,1.42,0,0,1-.45.08l-.47,0h0c-.52,0-1,0-1.59,0s-1.44.14-1.65-.43a.65.65,0,0,1,0-.19,11.7,11.7,0,0,1,0-1.32l0-1.45V38.43c0-.48,0-.81,0-1.26v-.05c0-.13,0-.27,0-.4a.88.88,0,0,1,.11-.39.49.49,0,0,1,.21-.24.56.56,0,0,1,.31-.09l.26,0a.51.51,0,0,1,.23.12.56.56,0,0,1,.11.17,1.19,1.19,0,0,1,.05.22,2.42,2.42,0,0,1,0,.25.93.93,0,0,0,0,.23v.18l0,4.71,2,0h.47l.27,0,.26.05a.39.39,0,0,1,.18.1.41.41,0,0,1,.14.2A1.46,1.46,0,0,1,24.48,42.59Z"/><path class="cls-1" d="M31.47,42.61a.36.36,0,0,1-.07.22.49.49,0,0,1-.2.17.76.76,0,0,1-.53.1.6.6,0,0,1-.25-.13l-.05,0-.05-.05a1.15,1.15,0,0,1-.14-.19l-.1-.19a.51.51,0,0,1-.07-.15,1,1,0,0,1-.05-.16l-.21-.49c-.91,0-1.84,0-2.75,0l-.21.49s0,.11-.05.16a1,1,0,0,1-.07.15l-.11.19a.72.72,0,0,1-.13.19l-.05.05-.05,0a.6.6,0,0,1-.25.13.76.76,0,0,1-.53-.1.49.49,0,0,1-.2-.17.36.36,0,0,1-.07-.22,1.79,1.79,0,0,1,0-.24,1,1,0,0,1,.05-.18l0-.09L27.46,37l.06-.16c0-.08.07-.14.1-.23a1.2,1.2,0,0,1,.11-.23,1.13,1.13,0,0,1,.15-.21.52.52,0,0,1,.17-.13,1,1,0,0,1,.65,0,.52.52,0,0,1,.17.13l.15.21a1.2,1.2,0,0,1,.11.23c0,.09.07.15.1.23l.06.16,2.08,5.12,0,.09a1,1,0,0,1,.05.18A1.79,1.79,0,0,1,31.47,42.61Zm-2.39-2.69c-.17-.38-.35-.8-.55-1.23l-.16-.37c0,.12-.1.25-.15.37-.2.43-.38.85-.55,1.23l-.18.44h1.77Z"/><path class="cls-1" d="M36.62,36.61a1.25,1.25,0,0,1-.09.25,1,1,0,0,1-.15.24l-.14.22-.13.17-1.28,1.85-.23.29v2.66a1.33,1.33,0,0,0,0,.21c0,.06,0,.12-.06.19a.14.14,0,0,0,0,.06.33.33,0,0,0,0,.06.58.58,0,0,1-.17.18.76.76,0,0,1-.5,0,.4.4,0,0,1-.24-.1.54.54,0,0,1-.14-.16c0-.08-.06-.14-.07-.21a.58.58,0,0,1,0-.18V39.66l-.22-.34-1.3-1.84-.11-.18-.15-.21a1.16,1.16,0,0,1-.14-.24,1.19,1.19,0,0,1-.11-.26.46.46,0,0,1,0-.2.43.43,0,0,1,.12-.22,1.1,1.1,0,0,1,.21-.14.47.47,0,0,1,.32-.08.63.63,0,0,1,.35.13,1.67,1.67,0,0,1,.33.32c.1.13.2.24.29.38l0,0c.32.42.59.8.89,1.25l.15.22a1.38,1.38,0,0,1,.13-.2c.31-.45.57-.84.89-1.26l0,0c.1-.12.19-.25.29-.38a1.3,1.3,0,0,1,.35-.31A.81.81,0,0,1,36,36a.53.53,0,0,1,.33.08,1.27,1.27,0,0,1,.21.14.54.54,0,0,1,.13.22A.32.32,0,0,1,36.62,36.61Z"/><path class="cls-2" d="M12.45,40.39a3.08,3.08,0,0,1-1.16,2,4.74,4.74,0,0,1-2.6.72,3.15,3.15,0,0,1-.92,0A.55.55,0,0,1,7.5,43a.4.4,0,0,1-.13-.18.83.83,0,0,1-.08-.22,1.41,1.41,0,0,1,0-.18V36.7a1,1,0,0,1,0-.25.7.7,0,0,1,.06-.23.36.36,0,0,1,.11-.17.57.57,0,0,1,.23-.12c.08,0,.17,0,.27,0l1.67,0A3.19,3.19,0,0,1,12.53,39,6.22,6.22,0,0,1,12.45,40.39ZM10.64,38c-.36-.59-1.24-.7-2-.71,0,.38,0,.73,0,1.13s0,.94,0,1.36v2a2.19,2.19,0,0,0,2.05-.86A3.11,3.11,0,0,0,10.64,38Z"/><path class="cls-2" d="M14.72,37.17l0,1.57h.4c.54,0,.92,0,1.44,0h.51a2.11,2.11,0,0,1,.45.09.62.62,0,0,1,.28.18.46.46,0,0,1,.1.29.9.9,0,0,1,0,.23.31.31,0,0,1-.13.2.35.35,0,0,1-.19.1l-.26,0a1.27,1.27,0,0,1-.28,0H14.68l0,2,2,0h.75l.27,0a.75.75,0,0,1,.2.11.43.43,0,0,1,.13.21.77.77,0,0,1,0,.22.45.45,0,0,1-.1.29.55.55,0,0,1-.28.18,1.14,1.14,0,0,1-.46.09l-.46,0H14a.61.61,0,0,1-.38-.08.4.4,0,0,1-.17-.19.11.11,0,0,1,0-.06l0-.06a.78.78,0,0,1,0-.21l0-.2v-.16s0-.11,0-.16v-.78l0-1.44V38.41c0-.48,0-.81,0-1.25v0c0-.14,0-.27,0-.4a1,1,0,0,1,.11-.39.49.49,0,0,1,.21-.24.56.56,0,0,1,.31-.09h2.72l.46,0a1.33,1.33,0,0,1,.44.09.57.57,0,0,1,.28.17.49.49,0,0,1,.09.28.75.75,0,0,1,0,.22.35.35,0,0,1-.12.21,1.09,1.09,0,0,1-.19.1l-.25,0a1.42,1.42,0,0,1-.29,0H14.72Z"/><path class="cls-2" d="M23.48,42.59a.49.49,0,0,1-.11.28.53.53,0,0,1-.26.18,1.42,1.42,0,0,1-.45.08l-.47,0h0c-.52,0-1,0-1.59,0s-1.44.14-1.65-.43a.65.65,0,0,1,0-.19,11.7,11.7,0,0,1,0-1.32l0-1.45V38.43c0-.48,0-.81,0-1.26v-.05c0-.13,0-.27,0-.4a.88.88,0,0,1,.11-.39.49.49,0,0,1,.21-.24.56.56,0,0,1,.31-.09l.26,0a.51.51,0,0,1,.23.12.56.56,0,0,1,.11.17,1.19,1.19,0,0,1,.05.22,2.42,2.42,0,0,1,0,.25.93.93,0,0,0,0,.23v.18l0,4.71,2,0h.47l.27,0,.26.05a.39.39,0,0,1,.18.1.41.41,0,0,1,.14.2A1.46,1.46,0,0,1,23.48,42.59Z"/><path class="cls-2" d="M30.47,42.61a.36.36,0,0,1-.07.22.49.49,0,0,1-.2.17.76.76,0,0,1-.53.1.6.6,0,0,1-.25-.13l-.05,0-.05-.05a1.15,1.15,0,0,1-.14-.19l-.1-.19a.51.51,0,0,1-.07-.15,1,1,0,0,1-.05-.16l-.21-.49c-.91,0-1.84,0-2.75,0l-.21.49s0,.11-.05.16a1,1,0,0,1-.07.15l-.11.19a.72.72,0,0,1-.13.19l-.05.05-.05,0a.6.6,0,0,1-.25.13.76.76,0,0,1-.53-.1.49.49,0,0,1-.2-.17.36.36,0,0,1-.07-.22,1.79,1.79,0,0,1,0-.24,1,1,0,0,1,.05-.18l0-.09L26.46,37l.06-.16c0-.08.07-.14.1-.23a1.2,1.2,0,0,1,.11-.23,1.13,1.13,0,0,1,.15-.21.52.52,0,0,1,.17-.13,1,1,0,0,1,.65,0,.52.52,0,0,1,.17.13l.15.21a1.2,1.2,0,0,1,.11.23c0,.09.07.15.1.23l.06.16,2.08,5.12,0,.09a1,1,0,0,1,.05.18A1.79,1.79,0,0,1,30.47,42.61Zm-2.39-2.69c-.17-.38-.35-.8-.55-1.23l-.16-.37c0,.12-.1.25-.15.37-.2.43-.38.85-.55,1.23l-.18.44h1.77Z"/><path class="cls-2" d="M35.62,36.61a1.25,1.25,0,0,1-.09.25,1,1,0,0,1-.15.24l-.14.22-.13.17-1.28,1.85-.23.29v2.66a1.33,1.33,0,0,0,0,.21c0,.06,0,.12-.06.19a.14.14,0,0,0,0,.06.33.33,0,0,0,0,.06.58.58,0,0,1-.17.18.76.76,0,0,1-.5,0,.4.4,0,0,1-.24-.1.54.54,0,0,1-.14-.16c0-.08-.06-.14-.07-.21a.58.58,0,0,1,0-.18V39.66l-.22-.34-1.3-1.84-.11-.18-.15-.21a1.16,1.16,0,0,1-.14-.24,1.19,1.19,0,0,1-.11-.26.46.46,0,0,1,0-.2.43.43,0,0,1,.12-.22,1.1,1.1,0,0,1,.21-.14.47.47,0,0,1,.32-.08.63.63,0,0,1,.35.13,1.67,1.67,0,0,1,.33.32c.1.13.2.24.29.38l0,0c.32.42.59.8.89,1.25l.15.22a1.38,1.38,0,0,1,.13-.2c.31-.45.57-.84.89-1.26l0,0c.1-.12.19-.25.29-.38a1.3,1.3,0,0,1,.35-.31A.81.81,0,0,1,35,36a.53.53,0,0,1,.33.08,1.27,1.27,0,0,1,.21.14.54.54,0,0,1,.13.22A.32.32,0,0,1,35.62,36.61Z"/><circle class="cls-1" cx="22.93" cy="15.61" r="15.61"/><circle class="cls-2" cx="21.87" cy="15.61" r="15.61"/><circle class="cls-1" cx="9.73" cy="9.7" r="8.66"/><circle class="cls-2" cx="8.66" cy="9.7" r="8.66"/><polyline class="cls-3" points="22.77 7.3 22.77 16.7 26.34 19.31"/><line class="cls-3" x1="9.56" y1="5.46" x2="9.56" y2="10.62"/><circle class="cls-1" cx="9.56" cy="14.14" r="1.09"/><polyline class="cls-4" points="21.7 7.3 21.7 16.7 25.28 19.31"/><line class="cls-4" x1="8.63" y1="5.46" x2="8.63" y2="10.62"/><circle class="cls-5" cx="8.63" cy="14.14" r="1.09"/></g></g></svg>