<svg xmlns="http://www.w3.org/2000/svg" width="85" height="66" viewBox="-21 -12 76.5 59.4"><defs><style>.cls-1{fill:#9a1f93;}.cls-2{fill:#fff;}</style></defs><title>end</title><g id="레이어_2" data-name="레이어 2"><g id="레이어_1-2" data-name="레이어 1"><path class="cls-1" d="M7.7,33.59l0,1.57H10a2.11,2.11,0,0,1,.45.09.62.62,0,0,1,.28.18.46.46,0,0,1,.1.29.9.9,0,0,1,0,.23.31.31,0,0,1-.13.2.35.35,0,0,1-.19.1l-.26.05a1.27,1.27,0,0,1-.28,0H7.66l0,2,2,0h.75l.27,0a.75.75,0,0,1,.2.11.43.43,0,0,1,.13.21.77.77,0,0,1,0,.22.45.45,0,0,1-.1.29.55.55,0,0,1-.28.18,1.14,1.14,0,0,1-.46.09l-.46,0H9.63q-.78,0-1.62,0H7a.61.61,0,0,1-.38-.08.4.4,0,0,1-.17-.19.11.11,0,0,1,0-.06l0-.06a.78.78,0,0,1,0-.21l0-.2v-.16s0-.11,0-.16V37.6l0-1.44V34.83c0-.48,0-.81,0-1.25v0c0-.14,0-.27,0-.4a1,1,0,0,1,.11-.39.49.49,0,0,1,.21-.24A.56.56,0,0,1,7,32.41H9.75l.46,0a1.33,1.33,0,0,1,.44.09.57.57,0,0,1,.28.17A.49.49,0,0,1,11,33a.75.75,0,0,1,0,.22.35.35,0,0,1-.12.21,1.09,1.09,0,0,1-.19.1l-.25,0a1.42,1.42,0,0,1-.29,0H7.7Z"/><path class="cls-1" d="M17,39.38a.79.79,0,0,1-1-.19,21,21,0,0,1-1.2-1.76l-.84-1.27c-.23-.36-.48-.84-.75-1.23l0,3.82v.09a.76.76,0,0,1-.24.58.57.57,0,0,1-.26.11c-.66.12-.86-.47-.82-.94v-.17l0-.78V36.19c0-.42,0-.87,0-1.34s0-1.26,0-1.81a.88.88,0,0,1,.11-.39.44.44,0,0,1,.21-.24.92.92,0,0,1,.59-.08.93.93,0,0,1,.2.1,1.45,1.45,0,0,1,.18.17,2.62,2.62,0,0,1,.17.21,1.48,1.48,0,0,0,.13.21l.11.16,2.31,3.64v-.66c0-.42,0-.87,0-1.35s0-1.24,0-1.8a.94.94,0,0,1,.1-.39.68.68,0,0,1,1-.2.46.46,0,0,1,.11.16,1,1,0,0,1,.06.23,1.07,1.07,0,0,1,0,.25c0,1.66,0,3.44,0,5.1,0,.19,0,.36,0,.55A.85.85,0,0,1,17,39.38Z"/><path class="cls-1" d="M23.25,36.81a3.08,3.08,0,0,1-1.16,2,4.74,4.74,0,0,1-2.6.72,3.15,3.15,0,0,1-.92,0,.55.55,0,0,1-.27-.11.4.4,0,0,1-.13-.18.83.83,0,0,1-.08-.22,1.41,1.41,0,0,1,0-.18V33.12a1,1,0,0,1,0-.25.7.7,0,0,1,.06-.23.36.36,0,0,1,.11-.17.57.57,0,0,1,.23-.12c.08,0,.17,0,.27,0l1.67,0a3.19,3.19,0,0,1,2.9,3.09A6.22,6.22,0,0,1,23.25,36.81Zm-1.81-2.42c-.36-.59-1.24-.7-2-.71,0,.38,0,.73,0,1.13s0,.94,0,1.36v2a2.19,2.19,0,0,0,2-.86A3.11,3.11,0,0,0,21.44,34.39Z"/><path class="cls-2" d="M6.7,33.59l0,1.57H9a2.11,2.11,0,0,1,.45.09.62.62,0,0,1,.28.18.46.46,0,0,1,.1.29.9.9,0,0,1,0,.23.31.31,0,0,1-.13.2.35.35,0,0,1-.19.1l-.26.05a1.27,1.27,0,0,1-.28,0H6.66l0,2,2,0h.75l.27,0a.75.75,0,0,1,.2.11.43.43,0,0,1,.13.21.77.77,0,0,1,0,.22.45.45,0,0,1-.1.29.55.55,0,0,1-.28.18,1.14,1.14,0,0,1-.46.09l-.46,0H8.63q-.78,0-1.62,0H6a.61.61,0,0,1-.38-.08.4.4,0,0,1-.17-.19.11.11,0,0,1,0-.06l0-.06a.78.78,0,0,1,0-.21l0-.2v-.16s0-.11,0-.16V37.6l0-1.44V34.83c0-.48,0-.81,0-1.25v0c0-.14,0-.27,0-.4a1,1,0,0,1,.11-.39.49.49,0,0,1,.21-.24A.56.56,0,0,1,6,32.41H8.75l.46,0a1.33,1.33,0,0,1,.44.09.57.57,0,0,1,.28.17A.49.49,0,0,1,10,33a.75.75,0,0,1,0,.22.35.35,0,0,1-.12.21,1.09,1.09,0,0,1-.19.1l-.25,0a1.42,1.42,0,0,1-.29,0H6.7Z"/><path class="cls-2" d="M16,39.38a.79.79,0,0,1-1-.19,21,21,0,0,1-1.2-1.76l-.84-1.27c-.23-.36-.48-.84-.75-1.23l0,3.82v.09a.76.76,0,0,1-.24.58.57.57,0,0,1-.26.11c-.66.12-.86-.47-.82-.94v-.17l0-.78V36.19c0-.42,0-.87,0-1.34s0-1.26,0-1.81a.88.88,0,0,1,.11-.39.44.44,0,0,1,.21-.24.92.92,0,0,1,.59-.08.93.93,0,0,1,.2.1,1.45,1.45,0,0,1,.18.17,2.62,2.62,0,0,1,.17.21,1.48,1.48,0,0,0,.13.21l.11.16,2.31,3.64v-.66c0-.42,0-.87,0-1.35s0-1.24,0-1.8a.94.94,0,0,1,.1-.39.68.68,0,0,1,1-.2.46.46,0,0,1,.11.16,1,1,0,0,1,.06.23,1.07,1.07,0,0,1,0,.25c0,1.66,0,3.44,0,5.1,0,.19,0,.36,0,.55A.85.85,0,0,1,16,39.38Z"/><path class="cls-2" d="M22.25,36.81a3.08,3.08,0,0,1-1.16,2,4.74,4.74,0,0,1-2.6.72,3.15,3.15,0,0,1-.92,0,.55.55,0,0,1-.27-.11.4.4,0,0,1-.13-.18.83.83,0,0,1-.08-.22,1.41,1.41,0,0,1,0-.18V33.12a1,1,0,0,1,0-.25.7.7,0,0,1,.06-.23.36.36,0,0,1,.11-.17.57.57,0,0,1,.23-.12c.08,0,.17,0,.27,0l1.67,0a3.19,3.19,0,0,1,2.9,3.09A6.22,6.22,0,0,1,22.25,36.81Zm-1.81-2.42c-.36-.59-1.24-.7-2-.71,0,.38,0,.73,0,1.13s0,.94,0,1.36v2a2.19,2.19,0,0,0,2-.86A3.11,3.11,0,0,0,20.44,34.39Z"/><rect class="cls-1" x="1.12" width="27.56" height="27.56" rx="5.97" ry="5.97"/><rect class="cls-2" width="27.56" height="27.56" rx="5.97" ry="5.97"/></g></g></svg>