<svg xmlns="http://www.w3.org/2000/svg" width="85" height="66" viewBox="-13 -12 85 66"><defs><style>.cls-1{fill:#002083;}.cls-2{fill:#fff;}.cls-3{fill:#efefef;}.cls-4,.cls-8{fill:none;stroke:#cccbcb;stroke-miterlimit:10;}.cls-4{stroke-width:0.2px;}.cls-5{fill:#b2b2b2;}.cls-6{fill:#a4a4a4;}.cls-7{fill:#ec2024;}.cls-8{stroke-width:0.21px;}.cls-9{fill:#cccbcb;}</style></defs><title>forward</title><g id="레이어_2" data-name="레이어 2"><g id="레이어_1-2" data-name="레이어 1"><path class="cls-1" d="M5.77,39.49c0,.08,0,.16,0,.22a.32.32,0,0,1-.13.21l-.18.1-.27,0a1.23,1.23,0,0,1-.27,0H2.37v1.66H4.7a1.63,1.63,0,0,1,.44.08.45.45,0,0,1,.25.19.37.37,0,0,1,.12.27.9.9,0,0,1,0,.23.52.52,0,0,1-.13.2.48.48,0,0,1-.19.09,1.83,1.83,0,0,1-.25.06l-.28,0H2.34l0,2.32v.08a1.37,1.37,0,0,1,0,.19,1.29,1.29,0,0,1-.07.21.57.57,0,0,1-.13.19.67.67,0,0,1-.27.11A.75.75,0,0,1,1.31,46a.46.46,0,0,1-.17-.19.21.21,0,0,1,0-.06l0-.06A.56.56,0,0,1,1,45.43a1.5,1.5,0,0,0,0-.2.43.43,0,0,1,0-.16V42.69c0-.42,0-.87,0-1.33s0-.81,0-1.25v0c0-.14,0-.27,0-.4a1,1,0,0,1,.1-.39.48.48,0,0,1,.2-.24.62.62,0,0,1,.32-.09h2.8L5,39a1.38,1.38,0,0,1,.44.09.56.56,0,0,1,.26.17A.59.59,0,0,1,5.77,39.49Z"/><path class="cls-1" d="M11.62,40.78A5.24,5.24,0,0,1,11.77,44a3.36,3.36,0,0,1-.33.8,2.31,2.31,0,0,1-1.51,1.08,2.74,2.74,0,0,1-2.51-.68,4.24,4.24,0,0,1-1-3.24,3.25,3.25,0,0,1,1.75-2.78A2.44,2.44,0,0,1,11.62,40.78Zm-1.16.48c-.29-.86-.87-1.36-1.86-.89a2,2,0,0,0-.84,1.73,3.14,3.14,0,0,0,.48,2.11,1.32,1.32,0,0,0,1.29.45,1.2,1.2,0,0,0,.83-.73,2,2,0,0,0,.19-.5A4.35,4.35,0,0,0,10.46,41.26Z"/><path class="cls-1" d="M17.9,45.74a.42.42,0,0,1-.14.18l-.22.11a.65.65,0,0,1-.31,0,.45.45,0,0,1-.27-.12,1.36,1.36,0,0,1-.28-.31c-.06-.11-.15-.24-.22-.39l-1.11-2.11-.32,0c-.28,0-.52,0-.78,0h-.19V45c0,.1,0,.19,0,.3s0,.19,0,.28a.61.61,0,0,1-.28.42.68.68,0,0,1-.51.07.69.69,0,0,1-.25-.1.52.52,0,0,1-.12-.17c0-.07,0-.15-.07-.21a.63.63,0,0,1,0-.19V39.69a1.79,1.79,0,0,1,0-.24.71.71,0,0,1,.07-.22.32.32,0,0,1,.1-.17.71.71,0,0,1,.55-.14c.59,0,1.19,0,1.77,0a3.92,3.92,0,0,1,1.22.22l.33.14a1.21,1.21,0,0,1,.3.21,2.35,2.35,0,0,1,.7,1.68,1.69,1.69,0,0,1-1.07,1.66l-.1,0,.91,1.85.09.16.1.19c0,.07.07.15.11.22s0,.17.05.23A.39.39,0,0,1,17.9,45.74ZM15.43,42a1,1,0,0,0,1-.81c.06-.66-.39-1-1-1-.39,0-.88,0-1.29,0,0,.55,0,1.07,0,1.84Z"/><path class="cls-1" d="M25.87,39.71c0,.13-.05.26-.07.39v0c-.18.82-.44,1.79-.63,2.6-.16.66-.34,1.54-.52,2.2a4,4,0,0,1-.24.68c-.19.4-.51.65-.93.35s-.43-.69-.58-1-.46-1.44-.62-1.78c-.23.59-.49,1.59-.58,1.85-.2.54-.48,1.41-1.18,1a.71.71,0,0,1-.28-.34c-.06-.19-.14-.36-.18-.54l-.2-.75-.41-1.61c-.1-.41-.2-.84-.33-1.31s-.18-.83-.34-1.72a1.35,1.35,0,0,1,0-.4.4.4,0,0,1,.14-.26.53.53,0,0,1,.27-.13.81.81,0,0,1,.25,0,.49.49,0,0,1,.25.08.43.43,0,0,1,.14.13l.12.21c0,.09.05.16.08.24s0,.16,0,.23c.12.69.31,1.36.46,1.95s.31,1.54.46,2c.17-.59.35-1.2.56-1.81s.43-1.09.93-.9c.22.09.4.45.53.77.23.59.47,1.35.67,1.75.09-.3.22-1,.32-1.38.17-.72.37-1.46.54-2.16l0-.17c0-.07,0-.14.05-.23s.05-.15.08-.24a1.06,1.06,0,0,1,.11-.21A.45.45,0,0,1,25,39a.52.52,0,0,1,.24-.08.77.77,0,0,1,.25,0,.64.64,0,0,1,.29.13.42.42,0,0,1,.12.26A.9.9,0,0,1,25.87,39.71Z"/><path class="cls-1" d="M32.09,45.55a.36.36,0,0,1-.07.22.49.49,0,0,1-.2.17.76.76,0,0,1-.53.1.6.6,0,0,1-.25-.13s0,0-.05,0l0,0a1.15,1.15,0,0,1-.14-.19l-.1-.19a.51.51,0,0,1-.07-.15,1,1,0,0,1-.05-.16l-.21-.49H27.63l-.21.49c0,.05,0,.11-.05.16a1,1,0,0,1-.07.15l-.11.19a.72.72,0,0,1-.13.19l0,0s0,0-.05,0a.6.6,0,0,1-.25.13.76.76,0,0,1-.53-.1.49.49,0,0,1-.2-.17.36.36,0,0,1-.07-.22,1.79,1.79,0,0,1,0-.24,1,1,0,0,1,.05-.18L26,45l2.08-5.12.06-.16c0-.08.07-.14.1-.23a1.2,1.2,0,0,1,.11-.23,1.13,1.13,0,0,1,.15-.21.43.43,0,0,1,.17-.13,1,1,0,0,1,.65,0,.64.64,0,0,1,.17.13,1.91,1.91,0,0,1,.14.21,2.53,2.53,0,0,1,.12.23,1.57,1.57,0,0,0,.09.23l.06.16L32,45l0,.09a1,1,0,0,1,0,.18A1.79,1.79,0,0,1,32.09,45.55ZM29.7,42.86l-.54-1.23c-.06-.12-.11-.25-.16-.37,0,.12-.11.25-.16.37l-.54,1.23-.18.44h1.77Z"/><path class="cls-1" d="M38,45.74a.42.42,0,0,1-.14.18l-.22.11a.65.65,0,0,1-.31,0,.45.45,0,0,1-.27-.12,1.7,1.7,0,0,1-.29-.31c0-.11-.15-.24-.21-.39l-1.11-2.11-.32,0c-.28,0-.52,0-.78,0h-.19V45c0,.1,0,.19,0,.3s0,.19,0,.28a.61.61,0,0,1-.28.42.68.68,0,0,1-.51.07.69.69,0,0,1-.25-.1.52.52,0,0,1-.12-.17c0-.07,0-.15-.07-.21a.63.63,0,0,1,0-.19V39.69a1.79,1.79,0,0,1,0-.24.71.71,0,0,1,.07-.22.32.32,0,0,1,.1-.17.71.71,0,0,1,.55-.14c.59,0,1.19,0,1.77,0a3.92,3.92,0,0,1,1.22.22l.33.14a1.21,1.21,0,0,1,.3.21A2.35,2.35,0,0,1,38,41.2a1.69,1.69,0,0,1-1.07,1.66l-.1,0,.91,1.85.09.16.1.19.11.22c0,.08,0,.17,0,.23A.39.39,0,0,1,38,45.74ZM35.56,42a1,1,0,0,0,1-.81c.06-.66-.39-1-1-1-.39,0-.88,0-1.29,0,0,.55,0,1.07,0,1.84Z"/><path class="cls-1" d="M44,43.33a3.1,3.1,0,0,1-1.15,2,4.74,4.74,0,0,1-2.6.72,3.15,3.15,0,0,1-.92,0,.55.55,0,0,1-.27-.11.4.4,0,0,1-.13-.18.83.83,0,0,1-.08-.22,1.41,1.41,0,0,1,0-.18V39.64a1,1,0,0,1,0-.25.7.7,0,0,1,.06-.23.36.36,0,0,1,.11-.17.57.57,0,0,1,.23-.12c.08,0,.17,0,.27,0l1.67,0A3.19,3.19,0,0,1,44.12,42,6.22,6.22,0,0,1,44,43.33Zm-1.81-2.42c-.35-.59-1.23-.7-2-.71,0,.38,0,.73,0,1.13s0,.94,0,1.36v2a2.18,2.18,0,0,0,2-.86A3.11,3.11,0,0,0,42.23,40.91Z"/><path class="cls-2" d="M4.77,39.49c0,.08,0,.16,0,.22a.32.32,0,0,1-.13.21l-.18.1-.27,0a1.23,1.23,0,0,1-.27,0H1.37v1.66H3.7a1.63,1.63,0,0,1,.44.08.45.45,0,0,1,.25.19.37.37,0,0,1,.12.27.9.9,0,0,1,0,.23.52.52,0,0,1-.13.2.48.48,0,0,1-.19.09,1.83,1.83,0,0,1-.25.06l-.28,0H1.34l0,2.32v.08a1.37,1.37,0,0,1,0,.19,1.29,1.29,0,0,1-.07.21.57.57,0,0,1-.13.19A.67.67,0,0,1,.82,46,.75.75,0,0,1,.31,46a.46.46,0,0,1-.17-.19l0-.06,0-.06A.56.56,0,0,1,0,45.43a1.5,1.5,0,0,0,0-.2.43.43,0,0,1,0-.16V42.69c0-.42,0-.87,0-1.33s0-.81,0-1.25v0c0-.14,0-.27,0-.4a1,1,0,0,1,.1-.39A.48.48,0,0,1,.39,39a.62.62,0,0,1,.32-.09h2.8L4,39a1.38,1.38,0,0,1,.44.09.56.56,0,0,1,.26.17A.59.59,0,0,1,4.77,39.49Z"/><path class="cls-2" d="M10.62,40.78A5.24,5.24,0,0,1,10.77,44a3.36,3.36,0,0,1-.33.8,2.31,2.31,0,0,1-1.51,1.08,2.74,2.74,0,0,1-2.51-.68,4.24,4.24,0,0,1-1-3.24,3.25,3.25,0,0,1,1.75-2.78A2.44,2.44,0,0,1,10.62,40.78Zm-1.16.48c-.29-.86-.87-1.36-1.86-.89a2,2,0,0,0-.84,1.73,3.14,3.14,0,0,0,.48,2.11,1.32,1.32,0,0,0,1.29.45,1.2,1.2,0,0,0,.83-.73,2,2,0,0,0,.19-.5A4.35,4.35,0,0,0,9.46,41.26Z"/><path class="cls-2" d="M16.9,45.74a.42.42,0,0,1-.14.18l-.22.11a.65.65,0,0,1-.31,0,.45.45,0,0,1-.27-.12,1.36,1.36,0,0,1-.28-.31c-.06-.11-.15-.24-.22-.39l-1.11-2.11-.32,0c-.28,0-.52,0-.78,0h-.19V45c0,.1,0,.19,0,.3s0,.19,0,.28a.61.61,0,0,1-.28.42.68.68,0,0,1-.51.07.69.69,0,0,1-.25-.1.52.52,0,0,1-.12-.17c0-.07,0-.15-.07-.21a.63.63,0,0,1,0-.19V39.69a1.79,1.79,0,0,1,0-.24.71.71,0,0,1,.07-.22.32.32,0,0,1,.1-.17.71.71,0,0,1,.55-.14c.59,0,1.19,0,1.77,0a3.92,3.92,0,0,1,1.22.22l.33.14a1.21,1.21,0,0,1,.3.21,2.35,2.35,0,0,1,.7,1.68,1.69,1.69,0,0,1-1.07,1.66l-.1,0,.91,1.85.09.16.1.19c0,.07.07.15.11.22s0,.17.05.23A.39.39,0,0,1,16.9,45.74ZM14.43,42a1,1,0,0,0,1-.81c.06-.66-.39-1-1-1-.39,0-.88,0-1.29,0,0,.55,0,1.07,0,1.84Z"/><path class="cls-2" d="M24.87,39.71c0,.13-.05.26-.07.39v0c-.18.82-.44,1.79-.63,2.6-.16.66-.34,1.54-.52,2.2a4,4,0,0,1-.24.68c-.19.4-.51.65-.93.35s-.43-.69-.58-1-.46-1.44-.62-1.78c-.23.59-.49,1.59-.58,1.85-.2.54-.48,1.41-1.18,1a.71.71,0,0,1-.28-.34c-.06-.19-.14-.36-.18-.54l-.2-.75-.41-1.61c-.1-.41-.2-.84-.33-1.31s-.18-.83-.34-1.72a1.35,1.35,0,0,1,0-.4.4.4,0,0,1,.14-.26.53.53,0,0,1,.27-.13.81.81,0,0,1,.25,0,.49.49,0,0,1,.25.08.43.43,0,0,1,.14.13l.12.21c0,.09.05.16.08.24s0,.16,0,.23c.12.69.31,1.36.46,1.95s.31,1.54.46,2c.17-.59.35-1.2.56-1.81s.43-1.09.93-.9c.22.09.4.45.53.77.23.59.47,1.35.67,1.75.09-.3.22-1,.32-1.38.17-.72.37-1.46.54-2.16l0-.17c0-.07,0-.14.05-.23s.05-.15.08-.24a1.06,1.06,0,0,1,.11-.21A.45.45,0,0,1,24,39a.52.52,0,0,1,.24-.08.77.77,0,0,1,.25,0,.64.64,0,0,1,.29.13.42.42,0,0,1,.12.26A.9.9,0,0,1,24.87,39.71Z"/><path class="cls-2" d="M31.09,45.55a.36.36,0,0,1-.07.22.49.49,0,0,1-.2.17.76.76,0,0,1-.53.1.6.6,0,0,1-.25-.13s0,0-.05,0l0,0a1.15,1.15,0,0,1-.14-.19l-.1-.19a.51.51,0,0,1-.07-.15,1,1,0,0,1-.05-.16l-.21-.49H26.63l-.21.49c0,.05,0,.11-.05.16a1,1,0,0,1-.07.15l-.11.19a.72.72,0,0,1-.13.19l0,0s0,0-.05,0a.6.6,0,0,1-.25.13.76.76,0,0,1-.53-.1.49.49,0,0,1-.2-.17.36.36,0,0,1-.07-.22,1.79,1.79,0,0,1,0-.24,1,1,0,0,1,.05-.18L25,45l2.08-5.12.06-.16c0-.08.07-.14.1-.23a1.2,1.2,0,0,1,.11-.23,1.13,1.13,0,0,1,.15-.21.43.43,0,0,1,.17-.13,1,1,0,0,1,.65,0,.64.64,0,0,1,.17.13,1.91,1.91,0,0,1,.14.21,2.53,2.53,0,0,1,.12.23,1.57,1.57,0,0,0,.09.23l.06.16L31,45l0,.09a1,1,0,0,1,.05.18A1.79,1.79,0,0,1,31.09,45.55ZM28.7,42.86l-.54-1.23c-.06-.12-.11-.25-.16-.37,0,.12-.11.25-.16.37l-.54,1.23-.18.44h1.77Z"/><path class="cls-2" d="M37,45.74a.42.42,0,0,1-.14.18l-.22.11a.65.65,0,0,1-.31,0,.45.45,0,0,1-.27-.12,1.7,1.7,0,0,1-.29-.31c0-.11-.15-.24-.21-.39l-1.11-2.11-.32,0c-.28,0-.52,0-.78,0h-.19V45c0,.1,0,.19,0,.3s0,.19,0,.28a.61.61,0,0,1-.28.42.68.68,0,0,1-.51.07.69.69,0,0,1-.25-.1.52.52,0,0,1-.12-.17c0-.07-.05-.15-.07-.21a.63.63,0,0,1,0-.19V39.69a1.79,1.79,0,0,1,0-.24.71.71,0,0,1,.07-.22.32.32,0,0,1,.1-.17.71.71,0,0,1,.55-.14c.59,0,1.19,0,1.77,0a3.92,3.92,0,0,1,1.22.22l.33.14a1.21,1.21,0,0,1,.3.21A2.35,2.35,0,0,1,37,41.2a1.69,1.69,0,0,1-1.07,1.66l-.1,0,.91,1.85.09.16.1.19.11.22c0,.08,0,.17,0,.23A.39.39,0,0,1,37,45.74ZM34.56,42a1,1,0,0,0,1-.81c.06-.66-.39-1-1-1-.39,0-.88,0-1.29,0,0,.55,0,1.07,0,1.84Z"/><path class="cls-2" d="M43,43.33a3.1,3.1,0,0,1-1.15,2,4.74,4.74,0,0,1-2.6.72,3.15,3.15,0,0,1-.92,0,.55.55,0,0,1-.27-.11.4.4,0,0,1-.13-.18.83.83,0,0,1-.08-.22,1.41,1.41,0,0,1,0-.18V39.64a1,1,0,0,1,0-.25.7.7,0,0,1,.06-.23.36.36,0,0,1,.11-.17.57.57,0,0,1,.23-.12c.08,0,.17,0,.27,0l1.67,0A3.19,3.19,0,0,1,43.12,42,6.22,6.22,0,0,1,43,43.33Zm-1.81-2.42c-.35-.59-1.23-.7-2-.71,0,.38,0,.73,0,1.13s0,.94,0,1.36v2a2.18,2.18,0,0,0,2-.86A3.11,3.11,0,0,0,41.23,40.91Z"/><rect class="cls-1" x="2" y="13.04" width="3.18" height="19.4" rx="1.45" ry="1.45" transform="translate(7.18 45.47) rotate(180)"/><rect class="cls-1" x="2.44" y="10.87" width="3.18" height="23.21" rx="1.59" ry="1.59" transform="translate(8.05 44.96) rotate(-180)"/><path class="cls-1" d="M3.52,12.24h1a1.09,1.09,0,0,1,1.09,1.09v0a.17.17,0,0,1-.17.17H2.61a.17.17,0,0,1-.17-.17v0a1.09,1.09,0,0,1,1.09-1.09Z"/><rect class="cls-1" x="2.44" y="15.05" width="3.18" height="1.26" rx="0.17" ry="0.17"/><rect class="cls-1" x="2.44" y="17.86" width="3.18" height="1.26" rx="0.17" ry="0.17"/><rect class="cls-1" x="2.44" y="20.67" width="3.18" height="1.26" rx="0.17" ry="0.17"/><rect class="cls-1" x="2.44" y="23.47" width="3.18" height="1.26" rx="0.17" ry="0.17"/><rect class="cls-1" x="2.44" y="26.28" width="3.18" height="1.26" rx="0.17" ry="0.17"/><rect class="cls-1" x="2.44" y="29.09" width="3.18" height="1.26" rx="0.17" ry="0.17"/><path class="cls-1" d="M2.61,31.9H5.45a.17.17,0,0,1,.17.17v0a1.09,1.09,0,0,1-1.09,1.09h-1a1.09,1.09,0,0,1-1.09-1.09v0A.17.17,0,0,1,2.61,31.9Z"/><rect class="cls-1" x="39.97" y="12.53" width="3.18" height="19.4" rx="1.45" ry="1.45"/><rect class="cls-1" x="39.53" y="10.87" width="3.18" height="23.21" rx="1.59" ry="1.59"/><path class="cls-1" d="M40.62,31.46h1a1.09,1.09,0,0,1,1.09,1.09v0a.17.17,0,0,1-.17.17H39.7a.17.17,0,0,1-.17-.17v0a1.09,1.09,0,0,1,1.09-1.09Z" transform="translate(82.24 64.18) rotate(180)"/><rect class="cls-1" x="39.53" y="28.65" width="3.18" height="1.26" rx="0.17" ry="0.17" transform="translate(82.24 58.56) rotate(180)"/><rect class="cls-1" x="39.53" y="25.84" width="3.18" height="1.26" rx="0.17" ry="0.17" transform="translate(82.24 52.94) rotate(180)"/><rect class="cls-1" x="39.53" y="23.04" width="3.18" height="1.26" rx="0.17" ry="0.17" transform="translate(82.24 47.33) rotate(180)"/><rect class="cls-1" x="39.53" y="20.23" width="3.18" height="1.26" rx="0.17" ry="0.17" transform="translate(82.24 41.71) rotate(180)"/><rect class="cls-1" x="39.53" y="17.42" width="3.18" height="1.26" rx="0.17" ry="0.17" transform="translate(82.24 36.1) rotate(180)"/><rect class="cls-1" x="39.53" y="14.61" width="3.18" height="1.26" rx="0.17" ry="0.17" transform="translate(82.24 30.48) rotate(180)"/><path class="cls-1" d="M39.7,11.8h2.84a.17.17,0,0,1,.17.17v0a1.09,1.09,0,0,1-1.09,1.09h-1A1.09,1.09,0,0,1,39.53,12v0a.17.17,0,0,1,.17-.17Z" transform="translate(82.24 24.87) rotate(-180)"/><rect class="cls-1" x="5.65" y="14.03" width="16.9" height="16.9" rx="1.98" ry="1.98"/><path class="cls-1" d="M13.69,13.27h.45a.37.37,0,0,1,.37.37v1.59a.37.37,0,0,1-.37.37h-.45a0,0,0,0,1,0,0V13.27A0,0,0,0,1,13.69,13.27Z" transform="translate(28.55 0.34) rotate(90)"/><path class="cls-1" d="M13.69,29.35h.45a.37.37,0,0,1,.37.37v1.59a.37.37,0,0,1-.37.37h-.45a0,0,0,0,1,0,0V29.35A0,0,0,0,1,13.69,29.35Z" transform="translate(-16.41 44.62) rotate(-90)"/><path class="cls-1" d="M21.73,21.31h.45a.37.37,0,0,1,.37.37v1.59a.37.37,0,0,1-.37.37h-.45a0,0,0,0,1,0,0V21.31A0,0,0,0,1,21.73,21.31Z" transform="translate(44.28 44.96) rotate(180)"/><path class="cls-1" d="M5.65,21.31h.45a.37.37,0,0,1,.37.37v1.59a.37.37,0,0,1-.37.37H5.65a0,0,0,0,1,0,0V21.31A0,0,0,0,1,5.65,21.31Z"/><rect class="cls-1" x="5.65" y="14.03" width="16.9" height="16.9" rx="1.98" ry="1.98"/><rect class="cls-1" x="15.97" y="15.92" width="4.43" height="4.43" rx="2.22" ry="2.22"/><rect class="cls-1" x="15.97" y="15.92" width="4.43" height="4.43" rx="2.22" ry="2.22"/><rect class="cls-1" x="16.78" y="16.73" width="2.81" height="2.81" rx="1.41" ry="1.41"/><rect class="cls-1" x="7.8" y="15.92" width="4.43" height="4.43" rx="2.22" ry="2.22"/><rect class="cls-1" x="7.8" y="15.92" width="4.43" height="4.43" rx="2.22" ry="2.22"/><rect class="cls-1" x="8.61" y="16.73" width="2.81" height="2.81" rx="1.41" ry="1.41"/><rect class="cls-1" x="15.97" y="24.61" width="4.43" height="4.43" rx="2.22" ry="2.22"/><rect class="cls-1" x="15.97" y="24.61" width="4.43" height="4.43" rx="2.22" ry="2.22"/><rect class="cls-1" x="16.78" y="25.42" width="2.81" height="2.81" rx="1.41" ry="1.41"/><rect class="cls-1" x="7.8" y="24.61" width="4.43" height="4.43" rx="2.22" ry="2.22"/><rect class="cls-1" x="7.8" y="24.61" width="4.43" height="4.43" rx="2.22" ry="2.22"/><rect class="cls-1" x="8.61" y="25.42" width="2.81" height="2.81" rx="1.41" ry="1.41"/><rect class="cls-1" x="22.59" y="14.03" width="16.9" height="16.9" rx="1.98" ry="1.98"/><path class="cls-1" d="M30.63,13.27h.45a.37.37,0,0,1,.37.37v1.59a.37.37,0,0,1-.37.37h-.45a0,0,0,0,1,0,0V13.27A0,0,0,0,1,30.63,13.27Z" transform="translate(45.48 -16.6) rotate(90)"/><path class="cls-1" d="M30.63,29.35h.45a.37.37,0,0,1,.37.37v1.59a.37.37,0,0,1-.37.37h-.45a0,0,0,0,1,0,0V29.35A0,0,0,0,1,30.63,29.35Z" transform="translate(0.53 61.56) rotate(-90)"/><path class="cls-1" d="M38.67,21.31h.45a.37.37,0,0,1,.37.37v1.59a.37.37,0,0,1-.37.37h-.45a0,0,0,0,1,0,0V21.31A0,0,0,0,1,38.67,21.31Z" transform="translate(78.16 44.96) rotate(180)"/><path class="cls-1" d="M22.59,21.31H23a.37.37,0,0,1,.37.37v1.59a.37.37,0,0,1-.37.37h-.45a0,0,0,0,1,0,0V21.31A0,0,0,0,1,22.59,21.31Z"/><rect class="cls-1" x="22.59" y="14.03" width="16.9" height="16.9" rx="1.98" ry="1.98"/><rect class="cls-1" x="32.91" y="15.92" width="4.43" height="4.43" rx="2.22" ry="2.22"/><rect class="cls-1" x="32.91" y="15.92" width="4.43" height="4.43" rx="2.22" ry="2.22"/><rect class="cls-1" x="33.72" y="16.73" width="2.81" height="2.81" rx="1.41" ry="1.41"/><rect class="cls-1" x="24.74" y="15.92" width="4.43" height="4.43" rx="2.22" ry="2.22"/><rect class="cls-1" x="24.74" y="15.92" width="4.43" height="4.43" rx="2.22" ry="2.22"/><rect class="cls-1" x="25.55" y="16.73" width="2.81" height="2.81" rx="1.41" ry="1.41"/><rect class="cls-1" x="32.91" y="24.61" width="4.43" height="4.43" rx="2.22" ry="2.22"/><rect class="cls-1" x="32.91" y="24.61" width="4.43" height="4.43" rx="2.22" ry="2.22"/><rect class="cls-1" x="33.72" y="25.42" width="2.81" height="2.81" rx="1.41" ry="1.41"/><rect class="cls-1" x="24.74" y="24.61" width="4.43" height="4.43" rx="2.22" ry="2.22"/><rect class="cls-1" x="24.74" y="24.61" width="4.43" height="4.43" rx="2.22" ry="2.22"/><rect class="cls-1" x="25.55" y="25.42" width="2.81" height="2.81" rx="1.41" ry="1.41"/><rect class="cls-3" x="1" y="13.04" width="3.18" height="19.4" rx="1.45" ry="1.45" transform="translate(5.18 45.47) rotate(180)"/><rect class="cls-3" x="38.97" y="12.53" width="3.18" height="19.4" rx="1.45" ry="1.45"/><rect class="cls-4" x="1" y="13.04" width="3.18" height="19.4" rx="1.45" ry="1.45" transform="translate(5.18 45.47) rotate(180)"/><rect class="cls-4" x="38.97" y="12.53" width="3.18" height="19.4" rx="1.45" ry="1.45"/><rect class="cls-5" x="1.44" y="10.87" width="3.18" height="23.21" rx="1.59" ry="1.59" transform="translate(6.05 44.96) rotate(180)"/><path class="cls-6" d="M2.52,12.24h1a1.09,1.09,0,0,1,1.09,1.09v0a.17.17,0,0,1-.17.17H1.61a.17.17,0,0,1-.17-.17v0A1.09,1.09,0,0,1,2.52,12.24Z"/><rect class="cls-6" x="1.44" y="15.05" width="3.18" height="1.26" rx="0.17" ry="0.17"/><rect class="cls-6" x="1.44" y="17.86" width="3.18" height="1.26" rx="0.17" ry="0.17"/><rect class="cls-6" x="1.44" y="20.67" width="3.18" height="1.26" rx="0.17" ry="0.17"/><rect class="cls-6" x="1.44" y="23.47" width="3.18" height="1.26" rx="0.17" ry="0.17"/><rect class="cls-6" x="1.44" y="26.28" width="3.18" height="1.26" rx="0.17" ry="0.17"/><rect class="cls-6" x="1.44" y="29.09" width="3.18" height="1.26" rx="0.17" ry="0.17"/><path class="cls-6" d="M1.61,31.9H4.45a.17.17,0,0,1,.17.17v0a1.09,1.09,0,0,1-1.09,1.09h-1a1.09,1.09,0,0,1-1.09-1.09v0a.17.17,0,0,1,.17-.17Z"/><rect class="cls-5" x="38.53" y="10.87" width="3.18" height="23.21" rx="1.59" ry="1.59"/><path class="cls-6" d="M39.62,31.46h1a1.09,1.09,0,0,1,1.09,1.09v0a.17.17,0,0,1-.17.17H38.7a.17.17,0,0,1-.17-.17v0A1.09,1.09,0,0,1,39.62,31.46Z" transform="translate(80.24 64.18) rotate(180)"/><rect class="cls-6" x="38.53" y="28.65" width="3.18" height="1.26" rx="0.17" ry="0.17" transform="translate(80.24 58.56) rotate(180)"/><rect class="cls-6" x="38.53" y="25.84" width="3.18" height="1.26" rx="0.17" ry="0.17" transform="translate(80.24 52.94) rotate(180)"/><rect class="cls-6" x="38.53" y="23.04" width="3.18" height="1.26" rx="0.17" ry="0.17" transform="translate(80.24 47.33) rotate(180)"/><rect class="cls-6" x="38.53" y="20.23" width="3.18" height="1.26" rx="0.17" ry="0.17" transform="translate(80.24 41.71) rotate(180)"/><rect class="cls-6" x="38.53" y="17.42" width="3.18" height="1.26" rx="0.17" ry="0.17" transform="translate(80.24 36.1) rotate(180)"/><rect class="cls-6" x="38.53" y="14.61" width="3.18" height="1.26" rx="0.17" ry="0.17" transform="translate(80.24 30.48) rotate(180)"/><path class="cls-6" d="M38.7,11.8h2.84a.17.17,0,0,1,.17.17v0a1.09,1.09,0,0,1-1.09,1.09h-1A1.09,1.09,0,0,1,38.53,12v0A.17.17,0,0,1,38.7,11.8Z" transform="translate(80.24 24.87) rotate(-180)"/><rect class="cls-3" x="4.65" y="14.03" width="16.9" height="16.9" rx="1.98" ry="1.98"/><path class="cls-7" d="M12.69,13.27h.45a.37.37,0,0,1,.37.37v1.59a.37.37,0,0,1-.37.37h-.45a0,0,0,0,1,0,0V13.27A0,0,0,0,1,12.69,13.27Z" transform="translate(27.55 1.34) rotate(90)"/><path class="cls-7" d="M12.69,29.35h.45a.37.37,0,0,1,.37.37v1.59a.37.37,0,0,1-.37.37h-.45a0,0,0,0,1,0,0V29.35A0,0,0,0,1,12.69,29.35Z" transform="translate(-17.41 43.62) rotate(-90)"/><path class="cls-7" d="M20.73,21.31h.45a.37.37,0,0,1,.37.37v1.59a.37.37,0,0,1-.37.37h-.45a0,0,0,0,1,0,0V21.31A0,0,0,0,1,20.73,21.31Z" transform="translate(42.28 44.96) rotate(180)"/><path class="cls-7" d="M4.65,21.31h.45a.37.37,0,0,1,.37.37v1.59a.37.37,0,0,1-.37.37H4.65a0,0,0,0,1,0,0V21.31A0,0,0,0,1,4.65,21.31Z"/><rect class="cls-8" x="4.65" y="14.03" width="16.9" height="16.9" rx="1.98" ry="1.98"/><rect class="cls-3" x="14.97" y="15.92" width="4.43" height="4.43" rx="2.22" ry="2.22"/><rect class="cls-8" x="14.97" y="15.92" width="4.43" height="4.43" rx="2.22" ry="2.22"/><rect class="cls-9" x="15.78" y="16.73" width="2.81" height="2.81" rx="1.41" ry="1.41"/><rect class="cls-3" x="6.8" y="15.92" width="4.43" height="4.43" rx="2.22" ry="2.22"/><rect class="cls-8" x="6.8" y="15.92" width="4.43" height="4.43" rx="2.22" ry="2.22"/><rect class="cls-9" x="7.61" y="16.73" width="2.81" height="2.81" rx="1.41" ry="1.41"/><rect class="cls-3" x="14.97" y="24.61" width="4.43" height="4.43" rx="2.22" ry="2.22"/><rect class="cls-8" x="14.97" y="24.61" width="4.43" height="4.43" rx="2.22" ry="2.22"/><rect class="cls-9" x="15.78" y="25.42" width="2.81" height="2.81" rx="1.41" ry="1.41"/><rect class="cls-3" x="6.8" y="24.61" width="4.43" height="4.43" rx="2.22" ry="2.22"/><rect class="cls-8" x="6.8" y="24.61" width="4.43" height="4.43" rx="2.22" ry="2.22"/><rect class="cls-9" x="7.61" y="25.42" width="2.81" height="2.81" rx="1.41" ry="1.41"/><rect class="cls-3" x="21.59" y="14.03" width="16.9" height="16.9" rx="1.98" ry="1.98"/><path class="cls-7" d="M29.63,13.27h.45a.37.37,0,0,1,.37.37v1.59a.37.37,0,0,1-.37.37h-.45a0,0,0,0,1,0,0V13.27A0,0,0,0,1,29.63,13.27Z" transform="translate(44.48 -15.6) rotate(90)"/><path class="cls-7" d="M29.63,29.35h.45a.37.37,0,0,1,.37.37v1.59a.37.37,0,0,1-.37.37h-.45a0,0,0,0,1,0,0V29.35A0,0,0,0,1,29.63,29.35Z" transform="translate(-0.47 60.56) rotate(-90)"/><path class="cls-7" d="M37.67,21.31h.45a.37.37,0,0,1,.37.37v1.59a.37.37,0,0,1-.37.37h-.45a0,0,0,0,1,0,0V21.31A0,0,0,0,1,37.67,21.31Z" transform="translate(76.16 44.96) rotate(180)"/><path class="cls-7" d="M21.59,21.31H22a.37.37,0,0,1,.37.37v1.59a.37.37,0,0,1-.37.37h-.45a0,0,0,0,1,0,0V21.31A0,0,0,0,1,21.59,21.31Z"/><rect class="cls-8" x="21.59" y="14.03" width="16.9" height="16.9" rx="1.98" ry="1.98"/><rect class="cls-3" x="31.91" y="15.92" width="4.43" height="4.43" rx="2.22" ry="2.22"/><rect class="cls-8" x="31.91" y="15.92" width="4.43" height="4.43" rx="2.22" ry="2.22"/><rect class="cls-9" x="32.72" y="16.73" width="2.81" height="2.81" rx="1.41" ry="1.41"/><rect class="cls-3" x="23.74" y="15.92" width="4.43" height="4.43" rx="2.22" ry="2.22"/><rect class="cls-8" x="23.74" y="15.92" width="4.43" height="4.43" rx="2.22" ry="2.22"/><rect class="cls-9" x="24.55" y="16.73" width="2.81" height="2.81" rx="1.41" ry="1.41"/><rect class="cls-3" x="31.91" y="24.61" width="4.43" height="4.43" rx="2.22" ry="2.22"/><rect class="cls-8" x="31.91" y="24.61" width="4.43" height="4.43" rx="2.22" ry="2.22"/><rect class="cls-9" x="32.72" y="25.42" width="2.81" height="2.81" rx="1.41" ry="1.41"/><rect class="cls-3" x="23.74" y="24.61" width="4.43" height="4.43" rx="2.22" ry="2.22"/><rect class="cls-8" x="23.74" y="24.61" width="4.43" height="4.43" rx="2.22" ry="2.22"/><rect class="cls-9" x="24.55" y="25.42" width="2.81" height="2.81" rx="1.41" ry="1.41"/><path class="cls-1" d="M21.87.29,17.77,4.4a1,1,0,0,0,0,1.39,1,1,0,0,0,1.38,0l2.44-2.43v9a1,1,0,0,0,2,0v-9L26,5.79a1,1,0,0,0,1.39,0,1,1,0,0,0,.29-.7,1,1,0,0,0-.29-.7L23.28.29A1,1,0,0,0,22.57,0,1,1,0,0,0,21.87.29Z"/><path class="cls-2" d="M20.87.29,16.77,4.4a1,1,0,0,0,0,1.39,1,1,0,0,0,1.38,0l2.44-2.43v9a1,1,0,0,0,2,0v-9L25,5.79a1,1,0,0,0,1.39,0,1,1,0,0,0,.29-.7,1,1,0,0,0-.29-.7L22.28.29A1,1,0,0,0,21.57,0,1,1,0,0,0,20.87.29Z"/></g></g></svg>