<svg xmlns="http://www.w3.org/2000/svg" width="85" height="66" viewBox="-15 -12 85 66"><defs><style>.cls-1{fill:#002083;}.cls-2{fill:#fff;}.cls-3{fill:#efefef;}.cls-4,.cls-8{fill:none;stroke:#cccbcb;stroke-miterlimit:10;}.cls-4{stroke-width:0.2px;}.cls-5{fill:#b2b2b2;}.cls-6{fill:#a4a4a4;}.cls-7{fill:#ec2024;}.cls-8{stroke-width:0.21px;}.cls-9{fill:#cccbcb;}</style></defs><title>left</title><g id="레이어_2" data-name="레이어 2"><g id="레이어_1-2" data-name="레이어 1"><path class="cls-1" d="M13.31,45.65a.49.49,0,0,1-.11.28.53.53,0,0,1-.26.18,1.42,1.42,0,0,1-.45.08l-.47,0H10.39c-.52,0-1.44.14-1.65-.43a.65.65,0,0,1,0-.19,11.7,11.7,0,0,1,0-1.32l0-1.45V41.49c0-.48,0-.81,0-1.26v0c0-.13,0-.27,0-.4a.88.88,0,0,1,.11-.39.51.51,0,0,1,.21-.23.49.49,0,0,1,.31-.09,1.1,1.1,0,0,1,.26,0,.49.49,0,0,1,.23.11.56.56,0,0,1,.11.17,1.19,1.19,0,0,1,0,.22,2.42,2.42,0,0,1,0,.25.93.93,0,0,0,0,.23v.18L10,45l2,0h.47l.27,0,.26,0a.39.39,0,0,1,.18.1.41.41,0,0,1,.14.2A1.46,1.46,0,0,1,13.31,45.65Z"/><path class="cls-1" d="M15.48,40.23l0,1.57h2.35a2.11,2.11,0,0,1,.45.09.62.62,0,0,1,.28.18.46.46,0,0,1,.1.29.9.9,0,0,1,0,.23.31.31,0,0,1-.13.2.35.35,0,0,1-.19.1L18,43a1.27,1.27,0,0,1-.28,0H15.44l0,2,2,0h.75l.27.05a.75.75,0,0,1,.2.11.43.43,0,0,1,.13.21.77.77,0,0,1,0,.22.45.45,0,0,1-.1.29.55.55,0,0,1-.28.18,1.14,1.14,0,0,1-.46.09l-.46,0H14.8a.61.61,0,0,1-.38-.08.4.4,0,0,1-.17-.19.11.11,0,0,1,0-.06l0-.06a.78.78,0,0,1,0-.21l0-.2v-.16s0-.11,0-.16v-.78l0-1.44V41.47c0-.48,0-.81,0-1.25v0c0-.14,0-.27,0-.4a1,1,0,0,1,.11-.38.45.45,0,0,1,.21-.24.57.57,0,0,1,.31-.1.23.23,0,0,1,.12,0v0H16c.53,0,1,0,1.5,0h0a3.54,3.54,0,0,1,.46,0,1.33,1.33,0,0,1,.44.09.5.5,0,0,1,.28.16.49.49,0,0,1,.09.28.75.75,0,0,1,0,.22.35.35,0,0,1-.12.21,1.09,1.09,0,0,1-.19.1l-.25,0a1.42,1.42,0,0,1-.29,0H15.48Z"/><path class="cls-1" d="M24.38,39.62a1.36,1.36,0,0,1,0,.21.32.32,0,0,1-.13.21l-.18.1-.27,0a1.18,1.18,0,0,1-.27,0H21v1.66H23.3a1.63,1.63,0,0,1,.44.08.51.51,0,0,1,.26.19.4.4,0,0,1,.11.27.9.9,0,0,1,0,.23.41.41,0,0,1-.32.29,1.53,1.53,0,0,1-.25.06l-.28,0h-2.3l0,2.32v.08a1.37,1.37,0,0,1,0,.19,1.29,1.29,0,0,1-.07.21.57.57,0,0,1-.13.19.67.67,0,0,1-.27.11.75.75,0,0,1-.51-.06.46.46,0,0,1-.17-.19l0-.06,0-.06a.56.56,0,0,1-.06-.21,1.5,1.5,0,0,0,0-.2.43.43,0,0,1,0-.16V42.81c0-.42,0-.87,0-1.33s0-.81,0-1.25v0c0-.14,0-.27,0-.4a1,1,0,0,1,.1-.39.45.45,0,0,1,.2-.23.54.54,0,0,1,.32-.09h.13l1,0h1.63a3.46,3.46,0,0,0,.46,0,1.34,1.34,0,0,1,.44.1.53.53,0,0,1,.26.16A.55.55,0,0,1,24.38,39.62Z"/><path class="cls-1" d="M30.67,39.62a1.79,1.79,0,0,1,0,.23.48.48,0,0,1-.13.21.73.73,0,0,1-.22.09,2.11,2.11,0,0,1-.29.06h-1.5c0,.82,0,1.82,0,4V45a.71.71,0,0,0,0,.15.92.92,0,0,1,0,.16q0,.09,0,.21a.72.72,0,0,1,0,.19s0,.05,0,.06l0,.06a.5.5,0,0,1-.19.19.73.73,0,0,1-.49,0,.47.47,0,0,1-.26-.09.55.55,0,0,1-.13-.18.65.65,0,0,1-.07-.21.68.68,0,0,1,0-.19V40.27c-.16,0-1.14,0-1.32,0a3.24,3.24,0,0,1-.39-.07.63.63,0,0,1-.33-.19.44.44,0,0,1-.11-.29.86.86,0,0,1,0-.23.39.39,0,0,1,.16-.19,1,1,0,0,1,.29-.14,1.91,1.91,0,0,1,.3-.07h.33c.47,0,.87,0,1.33,0,.77,0,1.54,0,2.3,0a1.66,1.66,0,0,1,.49.11.69.69,0,0,1,.3.18A.43.43,0,0,1,30.67,39.62Z"/><path class="cls-2" d="M12.31,45.65a.49.49,0,0,1-.11.28.53.53,0,0,1-.26.18,1.42,1.42,0,0,1-.45.08l-.47,0H9.39c-.52,0-1.44.14-1.65-.43a.65.65,0,0,1,0-.19,11.7,11.7,0,0,1,0-1.32l0-1.45V41.49c0-.48,0-.81,0-1.26v0c0-.13,0-.27,0-.4a.88.88,0,0,1,.11-.39.51.51,0,0,1,.21-.23.49.49,0,0,1,.31-.09,1.1,1.1,0,0,1,.26,0,.49.49,0,0,1,.23.11.56.56,0,0,1,.11.17,1.19,1.19,0,0,1,0,.22,2.42,2.42,0,0,1,0,.25.93.93,0,0,0,0,.23v.18L9,45l2,0h.47l.27,0,.26,0a.39.39,0,0,1,.18.1.41.41,0,0,1,.14.2A1.46,1.46,0,0,1,12.31,45.65Z"/><path class="cls-2" d="M14.48,40.23l0,1.57h2.35a2.11,2.11,0,0,1,.45.09.62.62,0,0,1,.28.18.46.46,0,0,1,.1.29.9.9,0,0,1,0,.23.31.31,0,0,1-.13.2.35.35,0,0,1-.19.1L17,43a1.27,1.27,0,0,1-.28,0H14.44l0,2,2,0h.75l.27.05a.75.75,0,0,1,.2.11.43.43,0,0,1,.13.21.77.77,0,0,1,0,.22.45.45,0,0,1-.1.29.55.55,0,0,1-.28.18,1.14,1.14,0,0,1-.46.09l-.46,0H13.8a.61.61,0,0,1-.38-.08.4.4,0,0,1-.17-.19.11.11,0,0,1,0-.06l0-.06a.78.78,0,0,1,0-.21l0-.2v-.16s0-.11,0-.16v-.78l0-1.44V41.47c0-.48,0-.81,0-1.25v0c0-.14,0-.27,0-.4a1,1,0,0,1,.11-.38.45.45,0,0,1,.21-.24.57.57,0,0,1,.31-.1.23.23,0,0,1,.12,0v0H15c.53,0,1,0,1.5,0h0a3.54,3.54,0,0,1,.46,0,1.33,1.33,0,0,1,.44.09.5.5,0,0,1,.28.16.49.49,0,0,1,.09.28.75.75,0,0,1,0,.22.35.35,0,0,1-.12.21,1.09,1.09,0,0,1-.19.1l-.25,0a1.42,1.42,0,0,1-.29,0H14.48Z"/><path class="cls-2" d="M23.38,39.62a1.36,1.36,0,0,1,0,.21.32.32,0,0,1-.13.21l-.18.1-.27,0a1.18,1.18,0,0,1-.27,0H20v1.66H22.3a1.63,1.63,0,0,1,.44.08.51.51,0,0,1,.26.19.4.4,0,0,1,.11.27.9.9,0,0,1,0,.23.41.41,0,0,1-.32.29,1.53,1.53,0,0,1-.25.06l-.28,0h-2.3l0,2.32v.08a1.37,1.37,0,0,1,0,.19,1.29,1.29,0,0,1-.07.21.57.57,0,0,1-.13.19.67.67,0,0,1-.27.11.75.75,0,0,1-.51-.06.46.46,0,0,1-.17-.19l0-.06,0-.06a.56.56,0,0,1-.06-.21,1.5,1.5,0,0,0,0-.2.43.43,0,0,1,0-.16V42.81c0-.42,0-.87,0-1.33s0-.81,0-1.25v0c0-.14,0-.27,0-.4a1,1,0,0,1,.1-.39.45.45,0,0,1,.2-.23.54.54,0,0,1,.32-.09h.13l1,0h1.63a3.46,3.46,0,0,0,.46,0,1.34,1.34,0,0,1,.44.1.53.53,0,0,1,.26.16A.55.55,0,0,1,23.38,39.62Z"/><path class="cls-2" d="M29.67,39.62a1.79,1.79,0,0,1,0,.23.48.48,0,0,1-.13.21.73.73,0,0,1-.22.09,2.11,2.11,0,0,1-.29.06h-1.5c0,.82,0,1.82,0,4V45a.71.71,0,0,0,0,.15.92.92,0,0,1,0,.16q0,.09,0,.21a.72.72,0,0,1,0,.19s0,.05,0,.06l0,.06a.5.5,0,0,1-.19.19.73.73,0,0,1-.49,0,.47.47,0,0,1-.26-.09.55.55,0,0,1-.13-.18.65.65,0,0,1-.07-.21.68.68,0,0,1,0-.19V40.27c-.16,0-1.14,0-1.32,0a3.24,3.24,0,0,1-.39-.07.63.63,0,0,1-.33-.19.44.44,0,0,1-.11-.29.86.86,0,0,1,0-.23.39.39,0,0,1,.16-.19,1,1,0,0,1,.29-.14,1.91,1.91,0,0,1,.3-.07h.33c.47,0,.87,0,1.33,0,.77,0,1.54,0,2.3,0a1.66,1.66,0,0,1,.49.11.69.69,0,0,1,.3.18A.43.43,0,0,1,29.67,39.62Z"/><rect class="cls-1" x="1.1" y="13.11" width="3.18" height="19.4" rx="1.45" ry="1.45" transform="translate(5.38 45.61) rotate(180)"/><rect class="cls-1" x="1.54" y="10.94" width="3.18" height="23.21" rx="1.59" ry="1.59" transform="translate(6.25 45.1) rotate(180)"/><path class="cls-1" d="M2.62,12.31h1A1.09,1.09,0,0,1,4.72,13.4v0a.17.17,0,0,1-.17.17H1.71a.17.17,0,0,1-.17-.17v0A1.09,1.09,0,0,1,2.62,12.31Z"/><rect class="cls-1" x="1.54" y="15.12" width="3.18" height="1.26" rx="0.17" ry="0.17"/><rect class="cls-1" x="1.54" y="17.93" width="3.18" height="1.26" rx="0.17" ry="0.17"/><rect class="cls-1" x="1.54" y="20.74" width="3.18" height="1.26" rx="0.17" ry="0.17"/><rect class="cls-1" x="1.54" y="23.54" width="3.18" height="1.26" rx="0.17" ry="0.17"/><rect class="cls-1" x="1.54" y="26.35" width="3.18" height="1.26" rx="0.17" ry="0.17"/><rect class="cls-1" x="1.54" y="29.16" width="3.18" height="1.26" rx="0.17" ry="0.17"/><path class="cls-1" d="M1.71,32H4.55a.17.17,0,0,1,.17.17v0a1.09,1.09,0,0,1-1.09,1.09h-1a1.09,1.09,0,0,1-1.09-1.09v0A.17.17,0,0,1,1.71,32Z"/><rect class="cls-1" x="39.07" y="12.6" width="3.18" height="19.4" rx="1.45" ry="1.45"/><rect class="cls-1" x="38.63" y="10.94" width="3.18" height="23.21" rx="1.59" ry="1.59"/><path class="cls-1" d="M39.72,31.53h1a1.09,1.09,0,0,1,1.09,1.09v0a.17.17,0,0,1-.17.17H38.8a.17.17,0,0,1-.17-.17v0a1.09,1.09,0,0,1,1.09-1.09Z" transform="translate(80.44 64.32) rotate(180)"/><rect class="cls-1" x="38.63" y="28.72" width="3.18" height="1.26" rx="0.17" ry="0.17" transform="translate(80.44 58.7) rotate(180)"/><rect class="cls-1" x="38.63" y="25.91" width="3.18" height="1.26" rx="0.17" ry="0.17" transform="translate(80.44 53.09) rotate(180)"/><rect class="cls-1" x="38.63" y="23.11" width="3.18" height="1.26" rx="0.17" ry="0.17" transform="translate(80.44 47.47) rotate(180)"/><rect class="cls-1" x="38.63" y="20.3" width="3.18" height="1.26" rx="0.17" ry="0.17" transform="translate(80.44 41.85) rotate(180)"/><rect class="cls-1" x="38.63" y="17.49" width="3.18" height="1.26" rx="0.17" ry="0.17" transform="translate(80.44 36.24) rotate(180)"/><rect class="cls-1" x="38.63" y="14.68" width="3.18" height="1.26" rx="0.17" ry="0.17" transform="translate(80.44 30.62) rotate(180)"/><path class="cls-1" d="M38.8,11.88h2.84a.17.17,0,0,1,.17.17v0a1.09,1.09,0,0,1-1.09,1.09h-1A1.09,1.09,0,0,1,38.63,12v0a.17.17,0,0,1,.17-.17Z" transform="translate(80.44 25.01) rotate(180)"/><rect class="cls-1" x="4.75" y="14.1" width="16.9" height="16.9" rx="1.98" ry="1.98"/><path class="cls-1" d="M12.79,13.34h.45a.37.37,0,0,1,.37.37v1.59a.37.37,0,0,1-.37.37h-.45a0,0,0,0,1,0,0V13.34A0,0,0,0,1,12.79,13.34Z" transform="translate(27.72 1.31) rotate(90)"/><path class="cls-1" d="M12.79,29.42h.45a.37.37,0,0,1,.37.37v1.59a.37.37,0,0,1-.37.37h-.45a0,0,0,0,1,0,0V29.42A0,0,0,0,1,12.79,29.42Z" transform="translate(-17.38 43.79) rotate(-90)"/><path class="cls-1" d="M20.83,21.38h.45a.37.37,0,0,1,.37.37v1.59a.37.37,0,0,1-.37.37h-.45a0,0,0,0,1,0,0V21.38A0,0,0,0,1,20.83,21.38Z" transform="translate(42.48 45.1) rotate(180)"/><path class="cls-1" d="M4.75,21.38h.45a.37.37,0,0,1,.37.37v1.59a.37.37,0,0,1-.37.37H4.75a0,0,0,0,1,0,0V21.38A0,0,0,0,1,4.75,21.38Z"/><rect class="cls-1" x="4.75" y="14.1" width="16.9" height="16.9" rx="1.98" ry="1.98"/><rect class="cls-1" x="15.07" y="15.99" width="4.43" height="4.43" rx="2.22" ry="2.22"/><rect class="cls-1" x="15.07" y="15.99" width="4.43" height="4.43" rx="2.22" ry="2.22"/><rect class="cls-1" x="15.88" y="16.8" width="2.81" height="2.81" rx="1.41" ry="1.41"/><rect class="cls-1" x="6.9" y="15.99" width="4.43" height="4.43" rx="2.22" ry="2.22"/><rect class="cls-1" x="6.9" y="15.99" width="4.43" height="4.43" rx="2.22" ry="2.22"/><rect class="cls-1" x="7.71" y="16.8" width="2.81" height="2.81" rx="1.41" ry="1.41"/><rect class="cls-1" x="15.07" y="24.68" width="4.43" height="4.43" rx="2.22" ry="2.22"/><rect class="cls-1" x="15.07" y="24.68" width="4.43" height="4.43" rx="2.22" ry="2.22"/><rect class="cls-1" x="15.88" y="25.49" width="2.81" height="2.81" rx="1.41" ry="1.41"/><rect class="cls-1" x="6.9" y="24.68" width="4.43" height="4.43" rx="2.22" ry="2.22"/><rect class="cls-1" x="6.9" y="24.68" width="4.43" height="4.43" rx="2.22" ry="2.22"/><rect class="cls-1" x="7.71" y="25.49" width="2.81" height="2.81" rx="1.41" ry="1.41"/><rect class="cls-1" x="21.69" y="14.1" width="16.9" height="16.9" rx="1.98" ry="1.98"/><path class="cls-1" d="M29.73,13.34h.45a.37.37,0,0,1,.37.37v1.59a.37.37,0,0,1-.37.37h-.45a0,0,0,0,1,0,0V13.34A0,0,0,0,1,29.73,13.34Z" transform="translate(44.65 -15.63) rotate(90)"/><path class="cls-1" d="M29.73,29.42h.45a.37.37,0,0,1,.37.37v1.59a.37.37,0,0,1-.37.37h-.45a0,0,0,0,1,0,0V29.42A0,0,0,0,1,29.73,29.42Z" transform="translate(-0.44 60.73) rotate(-90)"/><path class="cls-1" d="M37.77,21.38h.45a.37.37,0,0,1,.37.37v1.59a.37.37,0,0,1-.37.37h-.45a0,0,0,0,1,0,0V21.38A0,0,0,0,1,37.77,21.38Z" transform="translate(76.36 45.1) rotate(180)"/><path class="cls-1" d="M21.69,21.38h.45a.37.37,0,0,1,.37.37v1.59a.37.37,0,0,1-.37.37h-.45a0,0,0,0,1,0,0V21.38A0,0,0,0,1,21.69,21.38Z"/><rect class="cls-1" x="21.69" y="14.1" width="16.9" height="16.9" rx="1.98" ry="1.98"/><rect class="cls-1" x="32.01" y="15.99" width="4.43" height="4.43" rx="2.22" ry="2.22"/><rect class="cls-1" x="32.01" y="15.99" width="4.43" height="4.43" rx="2.22" ry="2.22"/><rect class="cls-1" x="32.82" y="16.8" width="2.81" height="2.81" rx="1.41" ry="1.41"/><rect class="cls-1" x="23.84" y="15.99" width="4.43" height="4.43" rx="2.22" ry="2.22"/><rect class="cls-1" x="23.84" y="15.99" width="4.43" height="4.43" rx="2.22" ry="2.22"/><rect class="cls-1" x="24.65" y="16.8" width="2.81" height="2.81" rx="1.41" ry="1.41"/><rect class="cls-1" x="32.01" y="24.68" width="4.43" height="4.43" rx="2.22" ry="2.22"/><rect class="cls-1" x="32.01" y="24.68" width="4.43" height="4.43" rx="2.22" ry="2.22"/><rect class="cls-1" x="32.82" y="25.49" width="2.81" height="2.81" rx="1.41" ry="1.41"/><rect class="cls-1" x="23.84" y="24.68" width="4.43" height="4.43" rx="2.22" ry="2.22"/><rect class="cls-1" x="23.84" y="24.68" width="4.43" height="4.43" rx="2.22" ry="2.22"/><rect class="cls-1" x="24.65" y="25.49" width="2.81" height="2.81" rx="1.41" ry="1.41"/><rect class="cls-3" x="0.1" y="13.11" width="3.18" height="19.4" rx="1.45" ry="1.45" transform="translate(3.38 45.61) rotate(180)"/><rect class="cls-3" x="38.07" y="12.6" width="3.18" height="19.4" rx="1.45" ry="1.45"/><rect class="cls-4" x="0.1" y="13.11" width="3.18" height="19.4" rx="1.45" ry="1.45" transform="translate(3.38 45.61) rotate(180)"/><rect class="cls-4" x="38.07" y="12.6" width="3.18" height="19.4" rx="1.45" ry="1.45"/><rect class="cls-5" x="0.54" y="10.94" width="3.18" height="23.21" rx="1.59" ry="1.59" transform="translate(4.25 45.1) rotate(180)"/><path class="cls-6" d="M1.62,12.31h1A1.09,1.09,0,0,1,3.72,13.4v0a.17.17,0,0,1-.17.17H.71a.17.17,0,0,1-.17-.17v0a1.09,1.09,0,0,1,1.09-1.09Z"/><rect class="cls-6" x="0.54" y="15.12" width="3.18" height="1.26" rx="0.17" ry="0.17"/><rect class="cls-6" x="0.54" y="17.93" width="3.18" height="1.26" rx="0.17" ry="0.17"/><rect class="cls-6" x="0.54" y="20.74" width="3.18" height="1.26" rx="0.17" ry="0.17"/><rect class="cls-6" x="0.54" y="23.54" width="3.18" height="1.26" rx="0.17" ry="0.17"/><rect class="cls-6" x="0.54" y="26.35" width="3.18" height="1.26" rx="0.17" ry="0.17"/><rect class="cls-6" x="0.54" y="29.16" width="3.18" height="1.26" rx="0.17" ry="0.17"/><path class="cls-6" d="M.71,32H3.55a.17.17,0,0,1,.17.17v0a1.09,1.09,0,0,1-1.09,1.09h-1A1.09,1.09,0,0,1,.54,32.14v0A.17.17,0,0,1,.71,32Z"/><rect class="cls-5" x="37.63" y="10.94" width="3.18" height="23.21" rx="1.59" ry="1.59"/><path class="cls-6" d="M38.72,31.53h1a1.09,1.09,0,0,1,1.09,1.09v0a.17.17,0,0,1-.17.17H37.8a.17.17,0,0,1-.17-.17v0a1.09,1.09,0,0,1,1.09-1.09Z" transform="translate(78.44 64.32) rotate(180)"/><rect class="cls-6" x="37.63" y="28.72" width="3.18" height="1.26" rx="0.17" ry="0.17" transform="translate(78.44 58.7) rotate(180)"/><rect class="cls-6" x="37.63" y="25.91" width="3.18" height="1.26" rx="0.17" ry="0.17" transform="translate(78.44 53.09) rotate(180)"/><rect class="cls-6" x="37.63" y="23.11" width="3.18" height="1.26" rx="0.17" ry="0.17" transform="translate(78.44 47.47) rotate(180)"/><rect class="cls-6" x="37.63" y="20.3" width="3.18" height="1.26" rx="0.17" ry="0.17" transform="translate(78.44 41.85) rotate(180)"/><rect class="cls-6" x="37.63" y="17.49" width="3.18" height="1.26" rx="0.17" ry="0.17" transform="translate(78.44 36.24) rotate(180)"/><rect class="cls-6" x="37.63" y="14.68" width="3.18" height="1.26" rx="0.17" ry="0.17" transform="translate(78.44 30.62) rotate(180)"/><path class="cls-6" d="M37.8,11.88h2.84a.17.17,0,0,1,.17.17v0a1.09,1.09,0,0,1-1.09,1.09h-1A1.09,1.09,0,0,1,37.63,12v0a.17.17,0,0,1,.17-.17Z" transform="translate(78.44 25.01) rotate(180)"/><rect class="cls-3" x="3.75" y="14.1" width="16.9" height="16.9" rx="1.98" ry="1.98"/><path class="cls-7" d="M11.79,13.34h.45a.37.37,0,0,1,.37.37v1.59a.37.37,0,0,1-.37.37h-.45a0,0,0,0,1,0,0V13.34A0,0,0,0,1,11.79,13.34Z" transform="translate(26.72 2.31) rotate(90)"/><path class="cls-7" d="M11.79,29.42h.45a.37.37,0,0,1,.37.37v1.59a.37.37,0,0,1-.37.37h-.45a0,0,0,0,1,0,0V29.42A0,0,0,0,1,11.79,29.42Z" transform="translate(-18.38 42.79) rotate(-90)"/><path class="cls-7" d="M19.83,21.38h.45a.37.37,0,0,1,.37.37v1.59a.37.37,0,0,1-.37.37h-.45a0,0,0,0,1,0,0V21.38A0,0,0,0,1,19.83,21.38Z" transform="translate(40.48 45.1) rotate(180)"/><path class="cls-7" d="M3.75,21.38h.45a.37.37,0,0,1,.37.37v1.59a.37.37,0,0,1-.37.37H3.75a0,0,0,0,1,0,0V21.38A0,0,0,0,1,3.75,21.38Z"/><rect class="cls-8" x="3.75" y="14.1" width="16.9" height="16.9" rx="1.98" ry="1.98"/><rect class="cls-3" x="14.07" y="15.99" width="4.43" height="4.43" rx="2.22" ry="2.22"/><rect class="cls-8" x="14.07" y="15.99" width="4.43" height="4.43" rx="2.22" ry="2.22"/><rect class="cls-9" x="14.88" y="16.8" width="2.81" height="2.81" rx="1.41" ry="1.41"/><rect class="cls-3" x="5.9" y="15.99" width="4.43" height="4.43" rx="2.22" ry="2.22"/><rect class="cls-8" x="5.9" y="15.99" width="4.43" height="4.43" rx="2.22" ry="2.22"/><rect class="cls-9" x="6.71" y="16.8" width="2.81" height="2.81" rx="1.41" ry="1.41"/><rect class="cls-3" x="14.07" y="24.68" width="4.43" height="4.43" rx="2.22" ry="2.22"/><rect class="cls-8" x="14.07" y="24.68" width="4.43" height="4.43" rx="2.22" ry="2.22"/><rect class="cls-9" x="14.88" y="25.49" width="2.81" height="2.81" rx="1.41" ry="1.41"/><rect class="cls-3" x="5.9" y="24.68" width="4.43" height="4.43" rx="2.22" ry="2.22"/><rect class="cls-8" x="5.9" y="24.68" width="4.43" height="4.43" rx="2.22" ry="2.22"/><rect class="cls-9" x="6.71" y="25.49" width="2.81" height="2.81" rx="1.41" ry="1.41"/><rect class="cls-3" x="20.69" y="14.1" width="16.9" height="16.9" rx="1.98" ry="1.98"/><path class="cls-7" d="M28.73,13.34h.45a.37.37,0,0,1,.37.37v1.59a.37.37,0,0,1-.37.37h-.45a0,0,0,0,1,0,0V13.34A0,0,0,0,1,28.73,13.34Z" transform="translate(43.65 -14.63) rotate(90)"/><path class="cls-7" d="M28.73,29.42h.45a.37.37,0,0,1,.37.37v1.59a.37.37,0,0,1-.37.37h-.45a0,0,0,0,1,0,0V29.42A0,0,0,0,1,28.73,29.42Z" transform="translate(-1.44 59.73) rotate(-90)"/><path class="cls-7" d="M36.77,21.38h.45a.37.37,0,0,1,.37.37v1.59a.37.37,0,0,1-.37.37h-.45a0,0,0,0,1,0,0V21.38A0,0,0,0,1,36.77,21.38Z" transform="translate(74.36 45.1) rotate(180)"/><path class="cls-7" d="M20.69,21.38h.45a.37.37,0,0,1,.37.37v1.59a.37.37,0,0,1-.37.37h-.45a0,0,0,0,1,0,0V21.38A0,0,0,0,1,20.69,21.38Z"/><rect class="cls-8" x="20.69" y="14.1" width="16.9" height="16.9" rx="1.98" ry="1.98"/><rect class="cls-3" x="31.01" y="15.99" width="4.43" height="4.43" rx="2.22" ry="2.22"/><rect class="cls-8" x="31.01" y="15.99" width="4.43" height="4.43" rx="2.22" ry="2.22"/><rect class="cls-9" x="31.82" y="16.8" width="2.81" height="2.81" rx="1.41" ry="1.41"/><rect class="cls-3" x="22.84" y="15.99" width="4.43" height="4.43" rx="2.22" ry="2.22"/><rect class="cls-8" x="22.84" y="15.99" width="4.43" height="4.43" rx="2.22" ry="2.22"/><rect class="cls-9" x="23.65" y="16.8" width="2.81" height="2.81" rx="1.41" ry="1.41"/><rect class="cls-3" x="31.01" y="24.68" width="4.43" height="4.43" rx="2.22" ry="2.22"/><rect class="cls-8" x="31.01" y="24.68" width="4.43" height="4.43" rx="2.22" ry="2.22"/><rect class="cls-9" x="31.82" y="25.49" width="2.81" height="2.81" rx="1.41" ry="1.41"/><rect class="cls-3" x="22.84" y="24.68" width="4.43" height="4.43" rx="2.22" ry="2.22"/><rect class="cls-8" x="22.84" y="24.68" width="4.43" height="4.43" rx="2.22" ry="2.22"/><rect class="cls-9" x="23.65" y="25.49" width="2.81" height="2.81" rx="1.41" ry="1.41"/><path class="cls-1" d="M17.07,2.68H12.19l1.25-1.15a.83.83,0,0,0,.28-.62,1,1,0,0,0-1-.91,1,1,0,0,0-.67.24L9.22,2.92a1,1,0,0,0-.29.67.77.77,0,0,0,.29.62L12.09,6.9a1.2,1.2,0,0,0,.67.23.92.92,0,0,0,1-.9.79.79,0,0,0-.28-.63L12.19,4.45h4.88a3.23,3.23,0,0,1,3.36,3.12V12.5a1,1,0,0,0,.95.91.93.93,0,0,0,1-.91V7.57A5.09,5.09,0,0,0,17.07,2.68Z"/><path class="cls-2" d="M16.07,2.68H11.19l1.25-1.15a.83.83,0,0,0,.28-.62,1,1,0,0,0-1-.91,1,1,0,0,0-.67.24L8.22,2.92a1,1,0,0,0-.29.67.77.77,0,0,0,.29.62L11.09,6.9a1.2,1.2,0,0,0,.67.23.92.92,0,0,0,1-.9.79.79,0,0,0-.28-.63L11.19,4.45h4.88a3.23,3.23,0,0,1,3.36,3.12V12.5a1,1,0,0,0,.95.91.93.93,0,0,0,1-.91V7.57A5.09,5.09,0,0,0,16.07,2.68Z"/></g></g></svg>