<svg xmlns="http://www.w3.org/2000/svg" viewBox="0 0 55.58 50.95"><defs><style>.cls-1,.cls-5{font-size:10px;font-family:BMJUAOTF-KSCpc-EUC-H, BM JUA_OTF;}.cls-1,.cls-7{fill:#002083;}.cls-2{letter-spacing:-0.04em;}.cls-3{letter-spacing:-0.06em;}.cls-4{letter-spacing:0.02em;}.cls-5{fill:#fff;}.cls-13,.cls-15,.cls-6,.cls-9{fill:none;stroke-miterlimit:10;}.cls-6{stroke:#002083;stroke-width:2px;}.cls-8{fill:#efefef;}.cls-13,.cls-9{stroke:#cccbcb;}.cls-9{stroke-width:0.2px;}.cls-10{fill:#b2b2b2;}.cls-11{fill:#a4a4a4;}.cls-12{fill:#ec2024;}.cls-13{stroke-width:0.21px;}.cls-14{fill:#cccbcb;}.cls-15{stroke:#fff;stroke-width:2.92px;}</style></defs><title>자산 4</title><g id="레이어_2" data-name="레이어 2"><g id="레이어_1-2" data-name="레이어 1"><text class="cls-1" transform="translate(16.14 43.8)"><tspan class="cls-2">S</tspan><tspan class="cls-3" x="5.68" y="0">T</tspan><tspan class="cls-4" x="11.51" y="0">O</tspan><tspan x="18.04" y="0">P</tspan></text><text class="cls-5" transform="translate(15.56 44.38)"><tspan class="cls-2">S</tspan><tspan class="cls-3" x="5.68" y="0">T</tspan><tspan class="cls-4" x="11.51" y="0">O</tspan><tspan x="18.04" y="0">P</tspan></text><circle class="cls-6" cx="28.79" cy="16.83" r="15.83"/><line class="cls-6" x1="16.3" y1="26.54" x2="41.73" y2="7.71"/><rect class="cls-7" x="7.44" y="7.64" width="3.18" height="19.4" rx="1.45" ry="1.45"/><rect class="cls-7" x="7.87" y="5.47" width="3.18" height="23.21" rx="1.59" ry="1.59"/><path class="cls-7" d="M10.89,8.1H8a.18.18,0,0,1-.17-.17h0A1.09,1.09,0,0,1,9,6.84h1a1.09,1.09,0,0,1,1.09,1.09h0A.18.18,0,0,1,10.89,8.1Z"/><rect class="cls-7" x="7.87" y="9.65" width="3.18" height="1.26" rx="0.17" ry="0.17"/><rect class="cls-7" x="7.87" y="12.46" width="3.18" height="1.26" rx="0.17" ry="0.17"/><rect class="cls-7" x="7.87" y="15.27" width="3.18" height="1.26" rx="0.17" ry="0.17"/><rect class="cls-7" x="7.87" y="18.07" width="3.18" height="1.26" rx="0.17" ry="0.17"/><rect class="cls-7" x="7.87" y="20.88" width="3.18" height="1.26" rx="0.17" ry="0.17"/><rect class="cls-7" x="7.87" y="23.69" width="3.18" height="1.26" rx="0.17" ry="0.17"/><path class="cls-7" d="M10,27.75H9a1.08,1.08,0,0,1-1.09-1.08h0A.17.17,0,0,1,8,26.5h2.85a.17.17,0,0,1,.17.17h0A1.08,1.08,0,0,1,10,27.75Z"/><rect class="cls-7" x="45.41" y="7.13" width="3.18" height="19.4" rx="1.45" ry="1.45"/><rect class="cls-7" x="44.97" y="5.47" width="3.18" height="23.21" rx="1.59" ry="1.59"/><path class="cls-7" d="M45.14,26.06H48a.18.18,0,0,1,.17.17h0a1.09,1.09,0,0,1-1.09,1.09h-1A1.09,1.09,0,0,1,45,26.23h0A.17.17,0,0,1,45.14,26.06Z"/><rect class="cls-7" x="44.97" y="23.25" width="3.18" height="1.26" rx="0.17" ry="0.17"/><rect class="cls-7" x="44.97" y="20.45" width="3.18" height="1.26" rx="0.17" ry="0.17"/><rect class="cls-7" x="44.97" y="17.64" width="3.18" height="1.26" rx="0.17" ry="0.17"/><rect class="cls-7" x="44.97" y="14.83" width="3.18" height="1.26" rx="0.17" ry="0.17"/><rect class="cls-7" x="44.97" y="12.02" width="3.18" height="1.26" rx="0.17" ry="0.17"/><rect class="cls-7" x="44.97" y="9.21" width="3.18" height="1.26" rx="0.17" ry="0.17"/><path class="cls-7" d="M46.05,6.41h1a1.09,1.09,0,0,1,1.09,1.08h0a.17.17,0,0,1-.17.17H45.14A.16.16,0,0,1,45,7.49h0A1.09,1.09,0,0,1,46.05,6.41Z"/><rect class="cls-7" x="11.09" y="8.63" width="16.9" height="16.9" rx="1.98" ry="1.98"/><path class="cls-7" d="M18.37,9.08V8.63h2.34v.45a.37.37,0,0,1-.37.38H18.75A.38.38,0,0,1,18.37,9.08Z"/><path class="cls-7" d="M20.71,25.08v.45H18.37v-.45a.38.38,0,0,1,.38-.38h1.59A.37.37,0,0,1,20.71,25.08Z"/><path class="cls-7" d="M27.54,15.91H28v2.34h-.45a.37.37,0,0,1-.37-.37v-1.6A.37.37,0,0,1,27.54,15.91Z"/><path class="cls-7" d="M11.54,18.25h-.45V15.91h.45a.38.38,0,0,1,.38.37v1.6A.38.38,0,0,1,11.54,18.25Z"/><rect class="cls-7" x="11.09" y="8.63" width="16.9" height="16.9" rx="1.98" ry="1.98"/><rect class="cls-7" x="21.41" y="10.52" width="4.43" height="4.43" rx="2.22" ry="2.22"/><rect class="cls-7" x="21.41" y="10.52" width="4.43" height="4.43" rx="2.22" ry="2.22"/><rect class="cls-7" x="22.22" y="11.33" width="2.81" height="2.81" rx="1.41" ry="1.41"/><rect class="cls-7" x="13.24" y="10.52" width="4.43" height="4.43" rx="2.22" ry="2.22"/><rect class="cls-7" x="13.24" y="10.52" width="4.43" height="4.43" rx="2.22" ry="2.22"/><rect class="cls-7" x="14.05" y="11.33" width="2.81" height="2.81" rx="1.41" ry="1.41"/><rect class="cls-7" x="21.41" y="19.21" width="4.43" height="4.43" rx="2.22" ry="2.22"/><rect class="cls-7" x="21.41" y="19.21" width="4.43" height="4.43" rx="2.22" ry="2.22"/><rect class="cls-7" x="22.22" y="20.02" width="2.81" height="2.81" rx="1.41" ry="1.41"/><rect class="cls-7" x="13.24" y="19.21" width="4.43" height="4.43" rx="2.22" ry="2.22"/><rect class="cls-7" x="13.24" y="19.21" width="4.43" height="4.43" rx="2.22" ry="2.22"/><rect class="cls-7" x="14.05" y="20.02" width="2.81" height="2.81" rx="1.41" ry="1.41"/><rect class="cls-7" x="28.03" y="8.63" width="16.9" height="16.9" rx="1.98" ry="1.98"/><path class="cls-7" d="M35.31,9.08V8.63h2.34v.45a.38.38,0,0,1-.37.38h-1.6A.38.38,0,0,1,35.31,9.08Z"/><path class="cls-7" d="M37.65,25.08v.45H35.31v-.45a.38.38,0,0,1,.37-.38h1.6A.38.38,0,0,1,37.65,25.08Z"/><path class="cls-7" d="M44.48,15.91h.45v2.34h-.45a.38.38,0,0,1-.38-.37v-1.6A.38.38,0,0,1,44.48,15.91Z"/><path class="cls-7" d="M28.48,18.25H28V15.91h.45a.38.38,0,0,1,.38.37v1.6A.38.38,0,0,1,28.48,18.25Z"/><rect class="cls-7" x="28.03" y="8.63" width="16.9" height="16.9" rx="1.98" ry="1.98"/><rect class="cls-7" x="38.35" y="10.52" width="4.43" height="4.43" rx="2.22" ry="2.22"/><rect class="cls-7" x="38.35" y="10.52" width="4.43" height="4.43" rx="2.22" ry="2.22"/><rect class="cls-7" x="39.16" y="11.33" width="2.81" height="2.81" rx="1.41" ry="1.41"/><rect class="cls-7" x="30.18" y="10.52" width="4.43" height="4.43" rx="2.22" ry="2.22"/><rect class="cls-7" x="30.18" y="10.52" width="4.43" height="4.43" rx="2.22" ry="2.22"/><rect class="cls-7" x="30.99" y="11.33" width="2.81" height="2.81" rx="1.41" ry="1.41"/><rect class="cls-7" x="38.35" y="19.21" width="4.43" height="4.43" rx="2.22" ry="2.22"/><rect class="cls-7" x="38.35" y="19.21" width="4.43" height="4.43" rx="2.22" ry="2.22"/><rect class="cls-7" x="39.16" y="20.02" width="2.81" height="2.81" rx="1.41" ry="1.41"/><rect class="cls-7" x="30.18" y="19.21" width="4.43" height="4.43" rx="2.22" ry="2.22"/><rect class="cls-7" x="30.18" y="19.21" width="4.43" height="4.43" rx="2.22" ry="2.22"/><rect class="cls-7" x="30.99" y="20.02" width="2.81" height="2.81" rx="1.41" ry="1.41"/><rect class="cls-8" x="7" y="8.2" width="3.18" height="19.4" rx="1.45" ry="1.45" transform="translate(17.17 35.8) rotate(180)"/><rect class="cls-8" x="44.96" y="7.69" width="3.18" height="19.4" rx="1.45" ry="1.45"/><rect class="cls-9" x="7" y="8.2" width="3.18" height="19.4" rx="1.45" ry="1.45" transform="translate(17.17 35.8) rotate(180)"/><rect class="cls-9" x="44.96" y="7.69" width="3.18" height="19.4" rx="1.45" ry="1.45"/><rect class="cls-10" x="7.43" y="6.04" width="3.18" height="23.21" rx="1.59" ry="1.59" transform="translate(18.05 35.29) rotate(-180)"/><path class="cls-11" d="M8.52,7.41h1A1.09,1.09,0,0,1,10.62,8.5v0a.17.17,0,0,1-.17.17H7.6a.17.17,0,0,1-.17-.17v0A1.09,1.09,0,0,1,8.52,7.41Z"/><rect class="cls-11" x="7.43" y="10.22" width="3.18" height="1.26" rx="0.17" ry="0.17"/><rect class="cls-11" x="7.43" y="13.02" width="3.18" height="1.26" rx="0.17" ry="0.17"/><rect class="cls-11" x="7.43" y="15.83" width="3.18" height="1.26" rx="0.17" ry="0.17"/><rect class="cls-11" x="7.43" y="18.64" width="3.18" height="1.26" rx="0.17" ry="0.17"/><rect class="cls-11" x="7.43" y="21.45" width="3.18" height="1.26" rx="0.17" ry="0.17"/><rect class="cls-11" x="7.43" y="24.26" width="3.18" height="1.26" rx="0.17" ry="0.17"/><path class="cls-11" d="M7.6,27.06h2.84a.17.17,0,0,1,.17.17v0a1.09,1.09,0,0,1-1.09,1.09h-1a1.09,1.09,0,0,1-1.09-1.09v0a.17.17,0,0,1,.17-.17Z"/><rect class="cls-10" x="44.53" y="6.04" width="3.18" height="23.21" rx="1.59" ry="1.59"/><path class="cls-11" d="M45.61,26.63h1a1.09,1.09,0,0,1,1.09,1.09v0a.17.17,0,0,1-.17.17H44.7a.17.17,0,0,1-.17-.17v0a1.09,1.09,0,0,1,1.09-1.09Z" transform="translate(92.24 54.51) rotate(180)"/><rect class="cls-11" x="44.53" y="23.82" width="3.18" height="1.26" rx="0.17" ry="0.17" transform="translate(92.24 48.89) rotate(180)"/><rect class="cls-11" x="44.53" y="21.01" width="3.18" height="1.26" rx="0.17" ry="0.17" transform="translate(92.24 43.28) rotate(180)"/><rect class="cls-11" x="44.53" y="18.2" width="3.18" height="1.26" rx="0.17" ry="0.17" transform="translate(92.24 37.66) rotate(180)"/><rect class="cls-11" x="44.53" y="15.4" width="3.18" height="1.26" rx="0.17" ry="0.17" transform="translate(92.24 32.05) rotate(180)"/><rect class="cls-11" x="44.53" y="12.59" width="3.18" height="1.26" rx="0.17" ry="0.17" transform="translate(92.24 26.43) rotate(180)"/><rect class="cls-11" x="44.53" y="9.78" width="3.18" height="1.26" rx="0.17" ry="0.17" transform="translate(92.24 20.82) rotate(180)"/><path class="cls-11" d="M44.7,7h2.84a.17.17,0,0,1,.17.17v0a1.09,1.09,0,0,1-1.09,1.09h-1a1.09,1.09,0,0,1-1.09-1.09v0A.17.17,0,0,1,44.7,7Z" transform="translate(92.24 15.2) rotate(-180)"/><rect class="cls-8" x="10.65" y="9.2" width="16.9" height="16.9" rx="1.98" ry="1.98"/><path class="cls-12" d="M18.69,8.44h.45a.37.37,0,0,1,.37.37v1.59a.37.37,0,0,1-.37.37h-.45a0,0,0,0,1,0,0V8.44A0,0,0,0,1,18.69,8.44Z" transform="translate(28.71 -9.49) rotate(90)"/><path class="cls-12" d="M18.69,24.51h.45a.37.37,0,0,1,.37.37v1.59a.37.37,0,0,1-.37.37h-.45a0,0,0,0,1,0,0V24.51A0,0,0,0,1,18.69,24.51Z" transform="translate(-6.58 44.79) rotate(-90)"/><path class="cls-12" d="M26.73,16.48h.45a.37.37,0,0,1,.37.37v1.59a.37.37,0,0,1-.37.37h-.45a0,0,0,0,1,0,0V16.48A0,0,0,0,1,26.73,16.48Z" transform="translate(54.28 35.29) rotate(180)"/><path class="cls-12" d="M10.65,16.48h.45a.37.37,0,0,1,.37.37v1.59a.37.37,0,0,1-.37.37h-.45a0,0,0,0,1,0,0V16.48A0,0,0,0,1,10.65,16.48Z"/><rect class="cls-13" x="10.65" y="9.2" width="16.9" height="16.9" rx="1.98" ry="1.98"/><rect class="cls-8" x="20.97" y="11.09" width="4.43" height="4.43" rx="2.22" ry="2.22"/><rect class="cls-13" x="20.97" y="11.09" width="4.43" height="4.43" rx="2.22" ry="2.22"/><rect class="cls-14" x="21.78" y="11.9" width="2.81" height="2.81" rx="1.41" ry="1.41"/><rect class="cls-8" x="12.8" y="11.09" width="4.43" height="4.43" rx="2.22" ry="2.22"/><rect class="cls-13" x="12.8" y="11.09" width="4.43" height="4.43" rx="2.22" ry="2.22"/><rect class="cls-14" x="13.61" y="11.9" width="2.81" height="2.81" rx="1.41" ry="1.41"/><rect class="cls-8" x="20.97" y="19.77" width="4.43" height="4.43" rx="2.22" ry="2.22"/><rect class="cls-13" x="20.97" y="19.77" width="4.43" height="4.43" rx="2.22" ry="2.22"/><rect class="cls-14" x="21.78" y="20.58" width="2.81" height="2.81" rx="1.41" ry="1.41"/><rect class="cls-8" x="12.8" y="19.77" width="4.43" height="4.43" rx="2.22" ry="2.22"/><rect class="cls-13" x="12.8" y="19.77" width="4.43" height="4.43" rx="2.22" ry="2.22"/><rect class="cls-14" x="13.61" y="20.58" width="2.81" height="2.81" rx="1.41" ry="1.41"/><rect class="cls-8" x="27.59" y="9.2" width="16.9" height="16.9" rx="1.98" ry="1.98"/><path class="cls-12" d="M35.63,8.44h.45a.37.37,0,0,1,.37.37v1.59a.37.37,0,0,1-.37.37h-.45a0,0,0,0,1,0,0V8.44A0,0,0,0,1,35.63,8.44Z" transform="translate(45.65 -26.43) rotate(90)"/><path class="cls-12" d="M35.63,24.51h.45a.37.37,0,0,1,.37.37v1.59a.37.37,0,0,1-.37.37h-.45a0,0,0,0,1,0,0V24.51A0,0,0,0,1,35.63,24.51Z" transform="translate(10.36 61.72) rotate(-90)"/><path class="cls-12" d="M43.66,16.48h.45a.37.37,0,0,1,.37.37v1.59a.37.37,0,0,1-.37.37h-.45a0,0,0,0,1,0,0V16.48A0,0,0,0,1,43.66,16.48Z" transform="translate(88.15 35.29) rotate(180)"/><path class="cls-12" d="M27.59,16.48H28a.37.37,0,0,1,.37.37v1.59a.37.37,0,0,1-.37.37h-.45a0,0,0,0,1,0,0V16.48A0,0,0,0,1,27.59,16.48Z"/><rect class="cls-13" x="27.59" y="9.2" width="16.9" height="16.9" rx="1.98" ry="1.98"/><rect class="cls-8" x="37.91" y="11.09" width="4.43" height="4.43" rx="2.22" ry="2.22"/><rect class="cls-13" x="37.91" y="11.09" width="4.43" height="4.43" rx="2.22" ry="2.22"/><rect class="cls-14" x="38.72" y="11.9" width="2.81" height="2.81" rx="1.41" ry="1.41"/><rect class="cls-8" x="29.74" y="11.09" width="4.43" height="4.43" rx="2.22" ry="2.22"/><rect class="cls-13" x="29.74" y="11.09" width="4.43" height="4.43" rx="2.22" ry="2.22"/><rect class="cls-14" x="30.55" y="11.9" width="2.81" height="2.81" rx="1.41" ry="1.41"/><rect class="cls-8" x="37.91" y="19.77" width="4.43" height="4.43" rx="2.22" ry="2.22"/><rect class="cls-13" x="37.91" y="19.77" width="4.43" height="4.43" rx="2.22" ry="2.22"/><rect class="cls-14" x="38.72" y="20.58" width="2.81" height="2.81" rx="1.41" ry="1.41"/><rect class="cls-8" x="29.74" y="19.77" width="4.43" height="4.43" rx="2.22" ry="2.22"/><rect class="cls-13" x="29.74" y="19.77" width="4.43" height="4.43" rx="2.22" ry="2.22"/><rect class="cls-14" x="30.55" y="20.58" width="2.81" height="2.81" rx="1.41" ry="1.41"/><circle class="cls-15" cx="27.79" cy="17.54" r="15.66"/><line class="cls-15" x1="15.43" y1="27.16" x2="40.6" y2="8.52"/></g></g></svg>