<svg xmlns="http://www.w3.org/2000/svg" viewBox="0 0 55.58 50.63"><defs><style>.cls-1,.cls-3{font-size:10px;font-family:BMJUAOTF-KSCpc-EUC-H, BM JUA_OTF;}.cls-1,.cls-4{fill:#002083;}.cls-2{letter-spacing:-0.08em;}.cls-12,.cls-3{fill:#fff;}.cls-5{fill:#efefef;}.cls-10,.cls-6{fill:none;stroke:#cccbcb;stroke-miterlimit:10;}.cls-6{stroke-width:0.2px;}.cls-7{fill:#b2b2b2;}.cls-8{fill:#a4a4a4;}.cls-9{fill:#ec2024;}.cls-10{stroke-width:0.21px;}.cls-11{fill:#cccbcb;}</style></defs><title>자산 3</title><g id="레이어_2" data-name="레이어 2"><g id="레이어_1-2" data-name="레이어 1"><text class="cls-1" transform="translate(6.11 43.82)">FOR<tspan class="cls-2" x="17.74" y="0">W</tspan><tspan x="24.91" y="0">ARD</tspan></text><text class="cls-3" transform="translate(5.53 44.06)">FOR<tspan class="cls-2" x="17.74" y="0">W</tspan><tspan x="24.91" y="0">ARD</tspan></text><rect class="cls-4" x="7.44" y="12.98" width="3.18" height="19.4" rx="1.45" ry="1.45"/><rect class="cls-4" x="7.87" y="10.82" width="3.18" height="23.21" rx="1.59" ry="1.59"/><path class="cls-4" d="M10.89,13.44H8a.17.17,0,0,1-.17-.17h0A1.09,1.09,0,0,1,9,12.19h1a1.09,1.09,0,0,1,1.09,1.08h0A.17.17,0,0,1,10.89,13.44Z"/><rect class="cls-4" x="7.87" y="15" width="3.18" height="1.26" rx="0.17" ry="0.17"/><rect class="cls-4" x="7.87" y="17.8" width="3.18" height="1.26" rx="0.17" ry="0.17"/><rect class="cls-4" x="7.87" y="20.61" width="3.18" height="1.26" rx="0.17" ry="0.17"/><rect class="cls-4" x="7.87" y="23.42" width="3.18" height="1.26" rx="0.17" ry="0.17"/><rect class="cls-4" x="7.87" y="26.23" width="3.18" height="1.26" rx="0.17" ry="0.17"/><rect class="cls-4" x="7.87" y="29.03" width="3.18" height="1.26" rx="0.17" ry="0.17"/><path class="cls-4" d="M10,33.1H9A1.09,1.09,0,0,1,7.87,32h0A.18.18,0,0,1,8,31.84h2.85a.18.18,0,0,1,.17.17h0A1.09,1.09,0,0,1,10,33.1Z"/><rect class="cls-4" x="45.41" y="12.47" width="3.18" height="19.4" rx="1.45" ry="1.45"/><rect class="cls-4" x="44.97" y="10.82" width="3.18" height="23.21" rx="1.59" ry="1.59"/><path class="cls-4" d="M45.14,31.41H48a.17.17,0,0,1,.17.17h0a1.09,1.09,0,0,1-1.09,1.08h-1A1.09,1.09,0,0,1,45,31.58h0A.16.16,0,0,1,45.14,31.41Z"/><rect class="cls-4" x="44.97" y="28.6" width="3.18" height="1.26" rx="0.17" ry="0.17"/><rect class="cls-4" x="44.97" y="25.79" width="3.18" height="1.26" rx="0.17" ry="0.17"/><rect class="cls-4" x="44.97" y="22.98" width="3.18" height="1.26" rx="0.17" ry="0.17"/><rect class="cls-4" x="44.97" y="20.17" width="3.18" height="1.26" rx="0.17" ry="0.17"/><rect class="cls-4" x="44.97" y="17.37" width="3.18" height="1.26" rx="0.17" ry="0.17"/><rect class="cls-4" x="44.97" y="14.56" width="3.18" height="1.26" rx="0.17" ry="0.17"/><path class="cls-4" d="M46.05,11.75h1a1.09,1.09,0,0,1,1.09,1.09h0A.18.18,0,0,1,48,13H45.14a.17.17,0,0,1-.17-.17h0A1.09,1.09,0,0,1,46.05,11.75Z"/><rect class="cls-4" x="11.09" y="13.97" width="16.9" height="16.9" rx="1.98" ry="1.98"/><path class="cls-4" d="M18.37,14.43V14h2.34v.46a.37.37,0,0,1-.37.37H18.75A.38.38,0,0,1,18.37,14.43Z"/><path class="cls-4" d="M20.71,30.42v.46H18.37v-.46a.38.38,0,0,1,.38-.37h1.59A.37.37,0,0,1,20.71,30.42Z"/><path class="cls-4" d="M27.54,21.25H28V23.6h-.45a.37.37,0,0,1-.37-.38V21.63A.37.37,0,0,1,27.54,21.25Z"/><path class="cls-4" d="M11.54,23.6h-.45V21.25h.45a.38.38,0,0,1,.38.38v1.59A.38.38,0,0,1,11.54,23.6Z"/><rect class="cls-4" x="11.09" y="13.97" width="16.9" height="16.9" rx="1.98" ry="1.98"/><rect class="cls-4" x="21.41" y="15.87" width="4.43" height="4.43" rx="2.22" ry="2.22"/><rect class="cls-4" x="21.41" y="15.87" width="4.43" height="4.43" rx="2.22" ry="2.22"/><rect class="cls-4" x="22.22" y="16.68" width="2.81" height="2.81" rx="1.41" ry="1.41"/><rect class="cls-4" x="13.24" y="15.87" width="4.43" height="4.43" rx="2.22" ry="2.22"/><rect class="cls-4" x="13.24" y="15.87" width="4.43" height="4.43" rx="2.22" ry="2.22"/><rect class="cls-4" x="14.05" y="16.68" width="2.81" height="2.81" rx="1.41" ry="1.41"/><rect class="cls-4" x="21.41" y="24.55" width="4.43" height="4.43" rx="2.22" ry="2.22"/><rect class="cls-4" x="21.41" y="24.55" width="4.43" height="4.43" rx="2.22" ry="2.22"/><rect class="cls-4" x="22.22" y="25.36" width="2.81" height="2.81" rx="1.41" ry="1.41"/><rect class="cls-4" x="13.24" y="24.55" width="4.43" height="4.43" rx="2.22" ry="2.22"/><rect class="cls-4" x="13.24" y="24.55" width="4.43" height="4.43" rx="2.22" ry="2.22"/><rect class="cls-4" x="14.05" y="25.36" width="2.81" height="2.81" rx="1.41" ry="1.41"/><rect class="cls-4" x="28.03" y="13.97" width="16.9" height="16.9" rx="1.98" ry="1.98"/><path class="cls-4" d="M35.31,14.43V14h2.34v.46a.38.38,0,0,1-.37.37h-1.6A.38.38,0,0,1,35.31,14.43Z"/><path class="cls-4" d="M37.65,30.42v.46H35.31v-.46a.38.38,0,0,1,.37-.37h1.6A.38.38,0,0,1,37.65,30.42Z"/><path class="cls-4" d="M44.48,21.25h.45V23.6h-.45a.38.38,0,0,1-.38-.38V21.63A.38.38,0,0,1,44.48,21.25Z"/><path class="cls-4" d="M28.48,23.6H28V21.25h.45a.38.38,0,0,1,.38.38v1.59A.38.38,0,0,1,28.48,23.6Z"/><rect class="cls-4" x="28.03" y="13.97" width="16.9" height="16.9" rx="1.98" ry="1.98"/><rect class="cls-4" x="38.35" y="15.87" width="4.43" height="4.43" rx="2.22" ry="2.22"/><rect class="cls-4" x="38.35" y="15.87" width="4.43" height="4.43" rx="2.22" ry="2.22"/><rect class="cls-4" x="39.16" y="16.68" width="2.81" height="2.81" rx="1.41" ry="1.41"/><rect class="cls-4" x="30.18" y="15.87" width="4.43" height="4.43" rx="2.22" ry="2.22"/><rect class="cls-4" x="30.18" y="15.87" width="4.43" height="4.43" rx="2.22" ry="2.22"/><rect class="cls-4" x="30.99" y="16.68" width="2.81" height="2.81" rx="1.41" ry="1.41"/><rect class="cls-4" x="38.35" y="24.55" width="4.43" height="4.43" rx="2.22" ry="2.22"/><rect class="cls-4" x="38.35" y="24.55" width="4.43" height="4.43" rx="2.22" ry="2.22"/><rect class="cls-4" x="39.16" y="25.36" width="2.81" height="2.81" rx="1.41" ry="1.41"/><rect class="cls-4" x="30.18" y="24.55" width="4.43" height="4.43" rx="2.22" ry="2.22"/><rect class="cls-4" x="30.18" y="24.55" width="4.43" height="4.43" rx="2.22" ry="2.22"/><rect class="cls-4" x="30.99" y="25.36" width="2.81" height="2.81" rx="1.41" ry="1.41"/><rect class="cls-5" x="7" y="13.55" width="3.18" height="19.4" rx="1.45" ry="1.45" transform="translate(17.17 46.49) rotate(180)"/><rect class="cls-5" x="44.96" y="13.04" width="3.18" height="19.4" rx="1.45" ry="1.45"/><rect class="cls-6" x="7" y="13.55" width="3.18" height="19.4" rx="1.45" ry="1.45" transform="translate(17.17 46.49) rotate(180)"/><rect class="cls-6" x="44.96" y="13.04" width="3.18" height="19.4" rx="1.45" ry="1.45"/><rect class="cls-7" x="7.43" y="11.38" width="3.18" height="23.21" rx="1.59" ry="1.59" transform="translate(18.05 45.98) rotate(-180)"/><path class="cls-8" d="M8.52,12.75h1a1.09,1.09,0,0,1,1.09,1.09v0a.17.17,0,0,1-.17.17H7.6a.17.17,0,0,1-.17-.17v0a1.09,1.09,0,0,1,1.09-1.09Z"/><rect class="cls-8" x="7.43" y="15.56" width="3.18" height="1.26" rx="0.17" ry="0.17"/><rect class="cls-8" x="7.43" y="18.37" width="3.18" height="1.26" rx="0.17" ry="0.17"/><rect class="cls-8" x="7.43" y="21.18" width="3.18" height="1.26" rx="0.17" ry="0.17"/><rect class="cls-8" x="7.43" y="23.98" width="3.18" height="1.26" rx="0.17" ry="0.17"/><rect class="cls-8" x="7.43" y="26.79" width="3.18" height="1.26" rx="0.17" ry="0.17"/><rect class="cls-8" x="7.43" y="29.6" width="3.18" height="1.26" rx="0.17" ry="0.17"/><path class="cls-8" d="M7.6,32.41h2.84a.17.17,0,0,1,.17.17v0a1.09,1.09,0,0,1-1.09,1.09h-1a1.09,1.09,0,0,1-1.09-1.09v0A.17.17,0,0,1,7.6,32.41Z"/><rect class="cls-7" x="44.53" y="11.38" width="3.18" height="23.21" rx="1.59" ry="1.59"/><path class="cls-8" d="M45.61,32h1a1.09,1.09,0,0,1,1.09,1.09v0a.17.17,0,0,1-.17.17H44.7a.17.17,0,0,1-.17-.17v0A1.09,1.09,0,0,1,45.61,32Z" transform="translate(92.24 65.2) rotate(180)"/><rect class="cls-8" x="44.53" y="29.16" width="3.18" height="1.26" rx="0.17" ry="0.17" transform="translate(92.24 59.58) rotate(180)"/><rect class="cls-8" x="44.53" y="26.36" width="3.18" height="1.26" rx="0.17" ry="0.17" transform="translate(92.24 53.97) rotate(180)"/><rect class="cls-8" x="44.53" y="23.55" width="3.18" height="1.26" rx="0.17" ry="0.17" transform="translate(92.24 48.35) rotate(180)"/><rect class="cls-8" x="44.53" y="20.74" width="3.18" height="1.26" rx="0.17" ry="0.17" transform="translate(92.24 42.74) rotate(180)"/><rect class="cls-8" x="44.53" y="17.93" width="3.18" height="1.26" rx="0.17" ry="0.17" transform="translate(92.24 37.12) rotate(180)"/><rect class="cls-8" x="44.53" y="15.12" width="3.18" height="1.26" rx="0.17" ry="0.17" transform="translate(92.24 31.51) rotate(180)"/><path class="cls-8" d="M44.7,12.32h2.84a.17.17,0,0,1,.17.17v0a1.09,1.09,0,0,1-1.09,1.09h-1a1.09,1.09,0,0,1-1.09-1.09v0a.17.17,0,0,1,.17-.17Z" transform="translate(92.24 25.89) rotate(180)"/><rect class="cls-5" x="10.65" y="14.54" width="16.9" height="16.9" rx="1.98" ry="1.98"/><path class="cls-9" d="M18.69,13.78h.45a.37.37,0,0,1,.37.37v1.59a.37.37,0,0,1-.37.37h-.45a0,0,0,0,1,0,0V13.78A0,0,0,0,1,18.69,13.78Z" transform="translate(34.06 -4.15) rotate(90)"/><path class="cls-9" d="M18.69,29.86h.45a.37.37,0,0,1,.37.37v1.59a.37.37,0,0,1-.37.37h-.45a0,0,0,0,1,0,0V29.86A0,0,0,0,1,18.69,29.86Z" transform="translate(-11.93 50.13) rotate(-90)"/><path class="cls-9" d="M26.73,21.82h.45a.37.37,0,0,1,.37.37v1.59a.37.37,0,0,1-.37.37h-.45a0,0,0,0,1,0,0V21.82A0,0,0,0,1,26.73,21.82Z" transform="translate(54.28 45.98) rotate(180)"/><path class="cls-9" d="M10.65,21.82h.45a.37.37,0,0,1,.37.37v1.59a.37.37,0,0,1-.37.37h-.45a0,0,0,0,1,0,0V21.82A0,0,0,0,1,10.65,21.82Z"/><rect class="cls-10" x="10.65" y="14.54" width="16.9" height="16.9" rx="1.98" ry="1.98"/><rect class="cls-5" x="20.97" y="16.43" width="4.43" height="4.43" rx="2.22" ry="2.22"/><rect class="cls-10" x="20.97" y="16.43" width="4.43" height="4.43" rx="2.22" ry="2.22"/><rect class="cls-11" x="21.78" y="17.24" width="2.81" height="2.81" rx="1.41" ry="1.41"/><rect class="cls-5" x="12.8" y="16.43" width="4.43" height="4.43" rx="2.22" ry="2.22"/><rect class="cls-10" x="12.8" y="16.43" width="4.43" height="4.43" rx="2.22" ry="2.22"/><rect class="cls-11" x="13.61" y="17.24" width="2.81" height="2.81" rx="1.41" ry="1.41"/><rect class="cls-5" x="20.97" y="25.12" width="4.43" height="4.43" rx="2.22" ry="2.22"/><rect class="cls-10" x="20.97" y="25.12" width="4.43" height="4.43" rx="2.22" ry="2.22"/><rect class="cls-11" x="21.78" y="25.93" width="2.81" height="2.81" rx="1.41" ry="1.41"/><rect class="cls-5" x="12.8" y="25.12" width="4.43" height="4.43" rx="2.22" ry="2.22"/><rect class="cls-10" x="12.8" y="25.12" width="4.43" height="4.43" rx="2.22" ry="2.22"/><rect class="cls-11" x="13.61" y="25.93" width="2.81" height="2.81" rx="1.41" ry="1.41"/><rect class="cls-5" x="27.59" y="14.54" width="16.9" height="16.9" rx="1.98" ry="1.98"/><path class="cls-9" d="M35.63,13.78h.45a.37.37,0,0,1,.37.37v1.59a.37.37,0,0,1-.37.37h-.45a0,0,0,0,1,0,0V13.78A0,0,0,0,1,35.63,13.78Z" transform="translate(50.99 -21.09) rotate(90)"/><path class="cls-9" d="M35.63,29.86h.45a.37.37,0,0,1,.37.37v1.59a.37.37,0,0,1-.37.37h-.45a0,0,0,0,1,0,0V29.86A0,0,0,0,1,35.63,29.86Z" transform="translate(5.01 67.07) rotate(-90)"/><path class="cls-9" d="M43.66,21.82h.45a.37.37,0,0,1,.37.37v1.59a.37.37,0,0,1-.37.37h-.45a0,0,0,0,1,0,0V21.82A0,0,0,0,1,43.66,21.82Z" transform="translate(88.15 45.98) rotate(180)"/><path class="cls-9" d="M27.59,21.82H28a.37.37,0,0,1,.37.37v1.59a.37.37,0,0,1-.37.37h-.45a0,0,0,0,1,0,0V21.82A0,0,0,0,1,27.59,21.82Z"/><rect class="cls-10" x="27.59" y="14.54" width="16.9" height="16.9" rx="1.98" ry="1.98"/><rect class="cls-5" x="37.91" y="16.43" width="4.43" height="4.43" rx="2.22" ry="2.22"/><rect class="cls-10" x="37.91" y="16.43" width="4.43" height="4.43" rx="2.22" ry="2.22"/><rect class="cls-11" x="38.72" y="17.24" width="2.81" height="2.81" rx="1.41" ry="1.41"/><rect class="cls-5" x="29.74" y="16.43" width="4.43" height="4.43" rx="2.22" ry="2.22"/><rect class="cls-10" x="29.74" y="16.43" width="4.43" height="4.43" rx="2.22" ry="2.22"/><rect class="cls-11" x="30.55" y="17.24" width="2.81" height="2.81" rx="1.41" ry="1.41"/><rect class="cls-5" x="37.91" y="25.12" width="4.43" height="4.43" rx="2.22" ry="2.22"/><rect class="cls-10" x="37.91" y="25.12" width="4.43" height="4.43" rx="2.22" ry="2.22"/><rect class="cls-11" x="38.72" y="25.93" width="2.81" height="2.81" rx="1.41" ry="1.41"/><rect class="cls-5" x="29.74" y="25.12" width="4.43" height="4.43" rx="2.22" ry="2.22"/><rect class="cls-10" x="29.74" y="25.12" width="4.43" height="4.43" rx="2.22" ry="2.22"/><rect class="cls-11" x="30.55" y="25.93" width="2.81" height="2.81" rx="1.41" ry="1.41"/><path class="cls-4" d="M27.29.29,23.19,4.4a1,1,0,0,0,0,1.39,1,1,0,0,0,1.38,0L27,3.36v9a1,1,0,0,0,2,0v-9L31.4,5.79a1,1,0,0,0,1.39,0,1,1,0,0,0,.29-.7,1,1,0,0,0-.29-.7L28.7.29A1,1,0,0,0,28,0,1,1,0,0,0,27.29.29Z"/><path class="cls-12" d="M26.89.75,22.78,4.86a1,1,0,0,0,1.39,1.39l2.44-2.43v9a1,1,0,1,0,2,0v-9L31,6.25a1,1,0,0,0,1.39,0,1,1,0,0,0,.29-.7,1,1,0,0,0-.29-.7L28.29.75a1,1,0,0,0-.7-.29A1,1,0,0,0,26.89.75Z"/></g></g></svg>