<svg xmlns="http://www.w3.org/2000/svg" width="85" height="66" viewBox="-14 -7 76.5 59.4"><defs><style>.cls-1{fill:#9a1f93;}.cls-2{fill:#fff;}</style></defs><title>repeat</title><g id="레이어_2" data-name="레이어 2"><g id="레이어_1-2" data-name="레이어 1"><path class="cls-1" d="M6.63,46.38a.58.58,0,0,1-.16.19,1.23,1.23,0,0,1-.23.11.78.78,0,0,1-.34,0,.53.53,0,0,1-.3-.12,1.49,1.49,0,0,1-.3-.32,4.21,4.21,0,0,1-.24-.4l-1.2-2.14-.34,0c-.3,0-.56,0-.84,0H2.47V45.6c0,.1,0,.19,0,.3s0,.2,0,.29a.65.65,0,0,1-.3.43.78.78,0,0,1-.55.07.72.72,0,0,1-.27-.1.55.55,0,0,1-.13-.18l-.08-.21a.63.63,0,0,1,0-.19V40.22a1.79,1.79,0,0,1,0-.24.53.53,0,0,1,.08-.22.28.28,0,0,1,.11-.18.78.78,0,0,1,.59-.14c.63,0,1.28,0,1.91,0a4.15,4.15,0,0,1,1.31.23l.36.14a1.18,1.18,0,0,1,.32.21,2.3,2.3,0,0,1,.77,1.71A1.72,1.72,0,0,1,5.4,43.45l-.12,0,1,1.88.1.17.1.19a2.39,2.39,0,0,1,.12.22c0,.09,0,.18.06.24A.39.39,0,0,1,6.63,46.38ZM4,42.57a1,1,0,0,0,1-.83c0-.67-.44-1-1.14-1-.42,0-.95,0-1.39,0,0,.56,0,1.09,0,1.88Z"/><path class="cls-1" d="M9,40.65l0,1.6h2.54a2.4,2.4,0,0,1,.48.09.64.64,0,0,1,.3.18.47.47,0,0,1,.11.3.9.9,0,0,1,0,.23.29.29,0,0,1-.14.21.38.38,0,0,1-.21.1l-.28.05a1.39,1.39,0,0,1-.3,0H9l0,2,2.14,0h.81l.29,0a.75.75,0,0,1,.22.11.39.39,0,0,1,.14.21.85.85,0,0,1,0,.23.41.41,0,0,1-.11.29.65.65,0,0,1-.3.19,1.3,1.3,0,0,1-.49.09l-.5,0H8.27a.71.71,0,0,1-.41-.08.44.44,0,0,1-.18-.2.09.09,0,0,1,0-.06l0-.06a.78.78,0,0,1,0-.21,1.55,1.55,0,0,0,0-.21v-.16s0-.11,0-.16v-.8l0-1.46V41.91c0-.48,0-.82,0-1.27v0c0-.14,0-.27,0-.41a.89.89,0,0,1,.12-.39A.47.47,0,0,1,8,39.54a.6.6,0,0,1,.33-.09h2.93l.5,0a1.51,1.51,0,0,1,.47.09.61.61,0,0,1,.31.18.49.49,0,0,1,.09.28.75.75,0,0,1,0,.22.32.32,0,0,1-.13.22,1.23,1.23,0,0,1-.2.1l-.27,0a1.67,1.67,0,0,1-.31,0H9Z"/><path class="cls-1" d="M18.88,41.9a1.68,1.68,0,0,1-1.13,1.46,6.06,6.06,0,0,1-1.79.36l-.74,0h-.29v2.1c0,.26,0,.56-.34.72a1.1,1.1,0,0,1-.6.06.5.5,0,0,1-.42-.28,1.14,1.14,0,0,1-.12-.5V40.24a1.9,1.9,0,0,1,0-.25l.07-.22a.41.41,0,0,1,.12-.17.7.7,0,0,1,.5-.13h0a11.41,11.41,0,0,1,1.42,0l.53,0,.52,0,.38.06a1.12,1.12,0,0,1,.38.12,1.88,1.88,0,0,1,.38.15,2.36,2.36,0,0,1,.31.2A2.26,2.26,0,0,1,18.88,41.9Zm-2.81-1.18-.84,0h-.3c0,.42,0,.79,0,1.23,0,.25,0,.49,0,.73h.67c.69,0,1.8-.12,1.87-.88S16.77,40.8,16.07,40.72Z"/><path class="cls-1" d="M21.24,40.65l0,1.6h2.54a2.4,2.4,0,0,1,.48.09.73.73,0,0,1,.31.18.51.51,0,0,1,.1.3.9.9,0,0,1,0,.23.29.29,0,0,1-.14.21.38.38,0,0,1-.2.1l-.28.05a1.55,1.55,0,0,1-.31,0H21.2l0,2,2.15,0h.81l.29,0a.82.82,0,0,1,.21.11.39.39,0,0,1,.14.21.85.85,0,0,1,0,.23.45.45,0,0,1-.1.29.74.74,0,0,1-.31.19,1.3,1.3,0,0,1-.49.09l-.5,0H20.51a.71.71,0,0,1-.41-.08.5.5,0,0,1-.18-.2.15.15,0,0,1,0-.06l0-.06a.78.78,0,0,1,0-.21l0-.21v-.16s0-.11,0-.16v-.8l0-1.46V41.91c0-.48,0-.82,0-1.27v0c0-.14,0-.27,0-.41a1,1,0,0,1,.12-.39.47.47,0,0,1,.23-.25.6.6,0,0,1,.33-.09h2.94l.49,0a1.57,1.57,0,0,1,.48.09.58.58,0,0,1,.3.18.5.5,0,0,1,.1.28.51.51,0,0,1,0,.22.32.32,0,0,1-.13.22.92.92,0,0,1-.2.1l-.27,0a1.62,1.62,0,0,1-.31,0H21.24Z"/><path class="cls-1" d="M32.37,46.19a.36.36,0,0,1-.07.22.69.69,0,0,1-.22.18.87.87,0,0,1-.57.1.54.54,0,0,1-.27-.14l-.06,0-.05,0a1.25,1.25,0,0,1-.15-.19,1.3,1.3,0,0,0-.11-.19.56.56,0,0,1-.07-.16.52.52,0,0,1-.06-.16l-.22-.5h-3l-.23.5s0,.11-.05.16a.6.6,0,0,1-.08.16,1.22,1.22,0,0,1-.12.19.58.58,0,0,1-.14.19l-.05,0s0,0-.05,0a.64.64,0,0,1-.27.14.9.9,0,0,1-.58-.1.64.64,0,0,1-.21-.18.32.32,0,0,1-.08-.22,2.11,2.11,0,0,1,0-.25l.06-.18,0-.09L28,40.46l.07-.16c0-.09.08-.15.11-.24a.85.85,0,0,1,.12-.23.89.89,0,0,1,.16-.22.55.55,0,0,1,.18-.13,1.19,1.19,0,0,1,.7,0,.59.59,0,0,1,.19.13l.16.22a2.53,2.53,0,0,1,.12.23c0,.09.07.15.1.24l.07.16,2.24,5.21,0,.09a1,1,0,0,1,.05.18A2.11,2.11,0,0,1,32.37,46.19Zm-2.58-2.74c-.18-.39-.37-.81-.59-1.25L29,41.82l-.16.38c-.22.44-.41.86-.6,1.25l-.19.45H30Z"/><path class="cls-1" d="M37.91,40a1.79,1.79,0,0,1,0,.24.48.48,0,0,1-.14.22.85.85,0,0,1-.24.09,2.44,2.44,0,0,1-.31.06H35.58c0,.84,0,1.85,0,4.09v.78a.71.71,0,0,0,0,.15.92.92,0,0,1,0,.16c0,.06,0,.13,0,.22a.77.77,0,0,1,0,.19s0,0,0,.06l0,.06a.55.55,0,0,1-.21.19.78.78,0,0,1-.53.06.5.5,0,0,1-.28-.1.79.79,0,0,1-.14-.18.65.65,0,0,1-.07-.21.75.75,0,0,1,0-.2V40.69c-.18,0-1.23,0-1.43,0a3.67,3.67,0,0,1-.42-.07.73.73,0,0,1-.36-.19.46.46,0,0,1-.11-.3.86.86,0,0,1,0-.23.4.4,0,0,1,.17-.21,1,1,0,0,1,.31-.14,1.5,1.5,0,0,1,.33-.06h1.79c.83,0,1.66,0,2.48,0a1.66,1.66,0,0,1,.53.1.63.63,0,0,1,.32.2A.37.37,0,0,1,37.91,40Z"/><path class="cls-2" d="M5.54,46.38a.45.45,0,0,1-.15.19,1.23,1.23,0,0,1-.23.11.78.78,0,0,1-.34,0,.53.53,0,0,1-.3-.12,1.49,1.49,0,0,1-.3-.32,4.21,4.21,0,0,1-.24-.4l-1.2-2.14-.34,0c-.3,0-.56,0-.84,0H1.39V45.6c0,.1,0,.19,0,.3s0,.2,0,.29a.65.65,0,0,1-.3.43.78.78,0,0,1-.55.07.72.72,0,0,1-.27-.1.55.55,0,0,1-.13-.18L0,46.2A.63.63,0,0,1,0,46V40.22A1.79,1.79,0,0,1,0,40a.53.53,0,0,1,.08-.22.28.28,0,0,1,.11-.18.78.78,0,0,1,.59-.14c.63,0,1.28,0,1.91,0A4.15,4.15,0,0,1,4,39.7l.36.14a1.18,1.18,0,0,1,.32.21,2.3,2.3,0,0,1,.77,1.71,1.72,1.72,0,0,1-1.15,1.69l-.12,0,1,1.88.1.17.1.19a2.39,2.39,0,0,1,.12.22c0,.09,0,.18.06.24A.3.3,0,0,1,5.54,46.38ZM2.87,42.57a1,1,0,0,0,1-.83c.05-.67-.44-1-1.14-1-.42,0-.95,0-1.39,0,0,.56,0,1.09,0,1.88Z"/><path class="cls-2" d="M7.92,40.65l0,1.6h2.54a2.4,2.4,0,0,1,.48.09.64.64,0,0,1,.3.18.47.47,0,0,1,.11.3.9.9,0,0,1,0,.23.29.29,0,0,1-.14.21.38.38,0,0,1-.21.1l-.28.05a1.39,1.39,0,0,1-.3,0H7.88l0,2,2.14,0h.81l.29,0a.75.75,0,0,1,.22.11.39.39,0,0,1,.14.21.85.85,0,0,1,0,.23.41.41,0,0,1-.11.29.65.65,0,0,1-.3.19,1.3,1.3,0,0,1-.49.09l-.5,0H7.19a.71.71,0,0,1-.41-.08.44.44,0,0,1-.18-.2.09.09,0,0,1,0-.06l0-.06a.78.78,0,0,1,0-.21,1.55,1.55,0,0,0,0-.21v-.16s0-.11,0-.16v-.8l0-1.46V41.91c0-.48,0-.82,0-1.27v0c0-.14,0-.27,0-.41a.89.89,0,0,1,.12-.39.47.47,0,0,1,.23-.25.6.6,0,0,1,.33-.09h2.93l.5,0a1.51,1.51,0,0,1,.47.09.61.61,0,0,1,.31.18.49.49,0,0,1,.09.28.75.75,0,0,1,0,.22.32.32,0,0,1-.13.22,1.23,1.23,0,0,1-.2.1l-.27,0a1.67,1.67,0,0,1-.31,0H7.92Z"/><path class="cls-2" d="M17.8,41.9a1.68,1.68,0,0,1-1.13,1.46,6.06,6.06,0,0,1-1.79.36l-.74,0h-.29v2.1c0,.26-.06.56-.34.72a1.1,1.1,0,0,1-.6.06.5.5,0,0,1-.42-.28,1.14,1.14,0,0,1-.12-.5V40.24a1.9,1.9,0,0,1,0-.25l.07-.22a.41.41,0,0,1,.12-.17.7.7,0,0,1,.5-.13h0a11.41,11.41,0,0,1,1.42,0l.53,0,.52,0,.38.06a1.12,1.12,0,0,1,.38.12,1.88,1.88,0,0,1,.38.15,2.36,2.36,0,0,1,.31.2A2.26,2.26,0,0,1,17.8,41.9ZM15,40.72l-.84,0h-.3c0,.42,0,.79,0,1.23,0,.25,0,.49,0,.73h.67c.69,0,1.8-.12,1.87-.88S15.69,40.8,15,40.72Z"/><path class="cls-2" d="M20.16,40.65l0,1.6h2.54a2.4,2.4,0,0,1,.48.09.73.73,0,0,1,.31.18.51.51,0,0,1,.1.3.9.9,0,0,1,0,.23.29.29,0,0,1-.14.21.38.38,0,0,1-.2.1l-.28.05a1.55,1.55,0,0,1-.31,0h-2.5l0,2,2.15,0h.81l.29,0a.82.82,0,0,1,.21.11.39.39,0,0,1,.14.21.85.85,0,0,1,0,.23.45.45,0,0,1-.1.29.74.74,0,0,1-.31.19,1.3,1.3,0,0,1-.49.09l-.5,0H19.43a.71.71,0,0,1-.41-.08.5.5,0,0,1-.18-.2.15.15,0,0,1,0-.06l0-.06a.78.78,0,0,1,0-.21l0-.21v-.16s0-.11,0-.16v-.8l0-1.46V41.91c0-.48,0-.82,0-1.27v0c0-.14,0-.27,0-.41a1,1,0,0,1,.12-.39.47.47,0,0,1,.23-.25.6.6,0,0,1,.33-.09h2.94l.49,0a1.57,1.57,0,0,1,.48.09.58.58,0,0,1,.3.18.5.5,0,0,1,.1.28.51.51,0,0,1,0,.22.32.32,0,0,1-.13.22.92.92,0,0,1-.2.1l-.27,0a1.62,1.62,0,0,1-.31,0H20.16Z"/><path class="cls-2" d="M31.29,46.19a.36.36,0,0,1-.07.22.69.69,0,0,1-.22.18.87.87,0,0,1-.57.1.54.54,0,0,1-.27-.14l-.06,0-.05,0a1.25,1.25,0,0,1-.15-.19l-.11-.19a.56.56,0,0,1-.07-.16.52.52,0,0,1-.06-.16l-.22-.5h-3l-.23.5s0,.11,0,.16a.6.6,0,0,1-.08.16,1.22,1.22,0,0,1-.12.19.58.58,0,0,1-.14.19s0,0-.05,0,0,0-.05,0a.64.64,0,0,1-.27.14.9.9,0,0,1-.58-.1.64.64,0,0,1-.21-.18.32.32,0,0,1-.08-.22,2.11,2.11,0,0,1,0-.25l.06-.18,0-.09L27,40.46,27,40.3c0-.09.08-.15.11-.24a.85.85,0,0,1,.12-.23.89.89,0,0,1,.16-.22.55.55,0,0,1,.18-.13,1.19,1.19,0,0,1,.7,0,.59.59,0,0,1,.19.13l.16.22a2.53,2.53,0,0,1,.12.23c0,.09.07.15.1.24l.07.16,2.24,5.21,0,.09a1,1,0,0,1,.05.18A2.11,2.11,0,0,1,31.29,46.19Zm-2.58-2.74-.59-1.25L28,41.82l-.16.38c-.22.44-.41.86-.6,1.25L27,43.9h1.91Z"/><path class="cls-2" d="M36.83,40a1.79,1.79,0,0,1,0,.24.48.48,0,0,1-.14.22.85.85,0,0,1-.24.09,2.44,2.44,0,0,1-.31.06H34.5c0,.84,0,1.85,0,4.09v.78a.71.71,0,0,0,0,.15.92.92,0,0,1,0,.16c0,.06,0,.13,0,.22a.77.77,0,0,1-.05.19s0,0,0,.06l0,.06a.55.55,0,0,1-.21.19.78.78,0,0,1-.53.06.5.5,0,0,1-.28-.1.79.79,0,0,1-.14-.18.65.65,0,0,1-.07-.21.75.75,0,0,1,0-.2V40.69c-.18,0-1.23,0-1.43,0a3.67,3.67,0,0,1-.42-.07.73.73,0,0,1-.36-.19.46.46,0,0,1-.11-.3.86.86,0,0,1,0-.23.4.4,0,0,1,.17-.21,1,1,0,0,1,.31-.14,1.5,1.5,0,0,1,.33-.06h1.79c.83,0,1.66,0,2.48,0a1.66,1.66,0,0,1,.53.1.63.63,0,0,1,.32.2A.37.37,0,0,1,36.83,40Z"/><path class="cls-1" d="M28.51,6.65a.71.71,0,0,1,0,.3s0,.11,0,.15a1.46,1.46,0,0,1-.4.64L22.66,12.8a1.8,1.8,0,0,1-2.4,0,1.57,1.57,0,0,1,0-2.26L22.74,8.2H14.25a9.17,9.17,0,0,0-9.41,8.87A8.44,8.44,0,0,0,7.6,23.34a1.58,1.58,0,0,1,0,2.27,1.82,1.82,0,0,1-2.4,0,11.62,11.62,0,0,1-3.72-8.5c0-6.65,5.72-12,12.77-12h8.53L20.3,2.72a1.58,1.58,0,0,1,0-2.27,1.82,1.82,0,0,1,2.4,0l5.37,5.06a1.6,1.6,0,0,1,.4.65s0,.11,0,.15Z"/><path class="cls-1" d="M37.52,17.22c0,6.65-5.73,12.05-12.78,12.05H16.21l2.49,2.34a1.52,1.52,0,0,1,0,2.27,1.76,1.76,0,0,1-1.2.45,1.84,1.84,0,0,1-1.21-.45L11,28.78a1.57,1.57,0,0,1-.4-.64s0-.11,0-.15a.78.78,0,0,1,0-.3.73.73,0,0,1,0-.31s0-.11,0-.15a1.53,1.53,0,0,1,.4-.64l5.36-5.06a1.84,1.84,0,0,1,2.41,0,1.52,1.52,0,0,1,0,2.27l-2.49,2.34h8.53a9.17,9.17,0,0,0,9.41-8.88A8.44,8.44,0,0,0,31.43,11a1.51,1.51,0,0,1,0-2.26,1.8,1.8,0,0,1,2.4,0A11.55,11.55,0,0,1,37.52,17.22Z"/><path class="cls-2" d="M27.43,6.65a.71.71,0,0,1,0,.3s0,.11,0,.15a1.46,1.46,0,0,1-.4.64L21.58,12.8a1.8,1.8,0,0,1-2.4,0,1.57,1.57,0,0,1,0-2.26L21.66,8.2H13.17a9.17,9.17,0,0,0-9.41,8.87,8.44,8.44,0,0,0,2.76,6.27,1.56,1.56,0,0,1,0,2.27,1.82,1.82,0,0,1-2.4,0A11.62,11.62,0,0,1,.4,17.11c0-6.65,5.72-12,12.77-12H21.7L19.22,2.72a1.58,1.58,0,0,1,0-2.27,1.82,1.82,0,0,1,2.4,0L27,5.51a1.6,1.6,0,0,1,.4.65s0,.11,0,.15Z"/><path class="cls-2" d="M36.44,17.22c0,6.65-5.73,12.05-12.78,12.05H15.13l2.49,2.34a1.52,1.52,0,0,1,0,2.27,1.76,1.76,0,0,1-1.2.45,1.85,1.85,0,0,1-1.21-.45l-5.32-5.1a1.57,1.57,0,0,1-.4-.64s0-.11,0-.15a.78.78,0,0,1,0-.3.73.73,0,0,1,0-.31s0-.11,0-.15a1.53,1.53,0,0,1,.4-.64l5.36-5.06a1.84,1.84,0,0,1,2.41,0,1.52,1.52,0,0,1,0,2.27l-2.49,2.34H23.7a9.17,9.17,0,0,0,9.41-8.88A8.44,8.44,0,0,0,30.35,11a1.51,1.51,0,0,1,0-2.26,1.8,1.8,0,0,1,2.4,0A11.55,11.55,0,0,1,36.44,17.22Z"/></g></g></svg>