<svg xmlns="http://www.w3.org/2000/svg" width="85" height="66" viewBox="-23 -11 76 59"><defs><style>.cls-1{fill:#9a1f93;}.cls-2{fill:#fff;}</style></defs><title>repeat_forever</title><g id="레이어_2" data-name="레이어 2"><g id="레이어_1-2" data-name="레이어 1"><path class="cls-1" d="M7.77,38.58a.42.42,0,0,1-.14.18,1.13,1.13,0,0,1-.22.11.65.65,0,0,1-.31,0,.47.47,0,0,1-.28-.12,1.36,1.36,0,0,1-.28-.31c-.06-.11-.15-.24-.22-.39L5.21,36l-.32,0c-.28,0-.52,0-.78,0H3.92v1.81c0,.1,0,.19,0,.3s0,.19,0,.28a.61.61,0,0,1-.28.42.68.68,0,0,1-.51.07.69.69,0,0,1-.25-.1.52.52,0,0,1-.12-.17c0-.07,0-.15-.07-.21a.63.63,0,0,1,0-.19V32.53a1.79,1.79,0,0,1,0-.24.71.71,0,0,1,.07-.22.32.32,0,0,1,.1-.17.71.71,0,0,1,.55-.14c.59,0,1.19,0,1.77,0A3.92,3.92,0,0,1,6.36,32l.33.14a1.21,1.21,0,0,1,.3.21A2.32,2.32,0,0,1,7.7,34,1.69,1.69,0,0,1,6.63,35.7l-.11,0,.92,1.85.09.16.1.19c0,.07.07.15.11.22s0,.17,0,.23A.39.39,0,0,1,7.77,38.58ZM5.29,34.83a1,1,0,0,0,1-.81c0-.66-.4-1-1-1-.39,0-.88,0-1.29,0,0,.55,0,1.07,0,1.84Z"/><path class="cls-1" d="M10,33l0,1.57h.4c.54,0,.92,0,1.44,0h.51a2.11,2.11,0,0,1,.45.09.62.62,0,0,1,.28.18.46.46,0,0,1,.1.29.9.9,0,0,1,0,.23.31.31,0,0,1-.13.2.35.35,0,0,1-.19.1l-.26.05a1.27,1.27,0,0,1-.28,0H9.93l0,2,2,0h.75l.27,0a.75.75,0,0,1,.2.11.43.43,0,0,1,.13.21.77.77,0,0,1,0,.22.45.45,0,0,1-.1.29.55.55,0,0,1-.28.18,1.14,1.14,0,0,1-.46.09l-.46,0H11.9q-.78,0-1.62,0h-1a.61.61,0,0,1-.38-.08.4.4,0,0,1-.17-.19.11.11,0,0,1,0-.06l0-.06a.78.78,0,0,1,0-.21l0-.2V37.9s0-.11,0-.16V37l0-1.44V34.19c0-.48,0-.81,0-1.25v0c0-.14,0-.27,0-.4a1,1,0,0,1,.11-.39A.49.49,0,0,1,9,31.86a.56.56,0,0,1,.31-.09h1.18c.53,0,1,0,1.5,0h0l.46,0a1.33,1.33,0,0,1,.44.09.57.57,0,0,1,.28.17.49.49,0,0,1,.09.28.75.75,0,0,1,0,.22.35.35,0,0,1-.12.21,1.09,1.09,0,0,1-.19.1l-.25,0a1.42,1.42,0,0,1-.29,0H10Z"/><path class="cls-1" d="M19.12,34.18a1.62,1.62,0,0,1-1.05,1.43,4.9,4.9,0,0,1-1.65.35l-.69,0h-.27v2.07c0,.25-.05.55-.31.7a1,1,0,0,1-.56.06.45.45,0,0,1-.39-.27,1.14,1.14,0,0,1-.11-.49V32.55a1.9,1.9,0,0,1,0-.25l.06-.22a.46.46,0,0,1,.11-.16.64.64,0,0,1,.47-.13h0a9.87,9.87,0,0,1,1.32,0l.49,0,.48.05.36.06a1.18,1.18,0,0,1,.35.11,1.6,1.6,0,0,1,.35.15l.29.2A2.27,2.27,0,0,1,19.12,34.18ZM16.52,33l-.78,0h-.28c0,.41,0,.77,0,1.21,0,.24,0,.48,0,.71h.62c.64,0,1.67-.11,1.74-.86S17.17,33.1,16.52,33Z"/><path class="cls-1" d="M21.31,33l0,1.57h.4c.54,0,.92,0,1.44,0h.51a2.11,2.11,0,0,1,.45.09.62.62,0,0,1,.28.18.46.46,0,0,1,.1.29.9.9,0,0,1,0,.23.31.31,0,0,1-.13.2.35.35,0,0,1-.19.1l-.26.05a1.27,1.27,0,0,1-.28,0H21.27l0,2,2,0H24l.27,0a.75.75,0,0,1,.2.11.43.43,0,0,1,.13.21.77.77,0,0,1,0,.22.45.45,0,0,1-.1.29.55.55,0,0,1-.28.18,1.14,1.14,0,0,1-.46.09l-.46,0h-.06q-.78,0-1.62,0h-1a.61.61,0,0,1-.38-.08.4.4,0,0,1-.17-.19.11.11,0,0,1,0-.06l0-.06a.78.78,0,0,1,0-.21l0-.2V37.9s0-.11,0-.16V37l0-1.44V34.19c0-.48,0-.81,0-1.25v0c0-.14,0-.27,0-.4a1,1,0,0,1,.11-.39.49.49,0,0,1,.21-.24.56.56,0,0,1,.31-.09h1.18c.53,0,1,0,1.5,0h0l.46,0a1.33,1.33,0,0,1,.44.09.57.57,0,0,1,.28.17.49.49,0,0,1,.09.28.75.75,0,0,1,0,.22.35.35,0,0,1-.12.21,1.09,1.09,0,0,1-.19.1l-.25,0a1.42,1.42,0,0,1-.29,0H21.31Z"/><path class="cls-1" d="M31.62,38.39a.36.36,0,0,1-.07.22.49.49,0,0,1-.2.17.76.76,0,0,1-.53.1.6.6,0,0,1-.25-.13l-.05,0s0,0-.05-.05a1.15,1.15,0,0,1-.14-.19l-.1-.19a.51.51,0,0,1-.07-.15,1,1,0,0,1-.05-.16l-.21-.49H27.15l-.21.49s0,.11-.05.16a1,1,0,0,1-.07.15l-.11.19a.72.72,0,0,1-.13.19s0,0,0,.05l-.05,0a.6.6,0,0,1-.25.13.76.76,0,0,1-.53-.1.49.49,0,0,1-.2-.17.36.36,0,0,1-.07-.22,1.79,1.79,0,0,1,0-.24A1,1,0,0,1,25.5,38l0-.09,2.08-5.12.06-.16c0-.08.07-.14.1-.23a1.2,1.2,0,0,1,.11-.23,1.13,1.13,0,0,1,.15-.21.52.52,0,0,1,.17-.13,1,1,0,0,1,.65,0,.52.52,0,0,1,.17.13,1.91,1.91,0,0,1,.15.21,1.2,1.2,0,0,1,.11.23c0,.09.07.15.1.23l.06.16,2.08,5.12,0,.09a1,1,0,0,1,.05.18A1.79,1.79,0,0,1,31.62,38.39ZM29.23,35.7c-.17-.38-.35-.8-.55-1.23l-.16-.37c0,.12-.1.25-.15.37-.2.43-.38.85-.55,1.23l-.18.44h1.77Z"/><path class="cls-1" d="M36.75,32.33a1.79,1.79,0,0,1,0,.24.48.48,0,0,1-.13.21.73.73,0,0,1-.22.09,2.11,2.11,0,0,1-.29.06h-1.5c0,.82,0,1.82,0,4v.76a.71.71,0,0,0,0,.15.92.92,0,0,1,0,.16l0,.21a.72.72,0,0,1,0,.19s0,.05,0,.06l0,.06a.5.5,0,0,1-.19.19.73.73,0,0,1-.49,0,.47.47,0,0,1-.26-.09.55.55,0,0,1-.13-.18.65.65,0,0,1-.07-.21.68.68,0,0,1,0-.19V33c-.16,0-1.14,0-1.32,0a3.24,3.24,0,0,1-.39-.07.63.63,0,0,1-.33-.19.44.44,0,0,1-.11-.29.86.86,0,0,1,0-.23.37.37,0,0,1,.16-.2,1,1,0,0,1,.29-.14,1.22,1.22,0,0,1,.3-.06h1.66c.77,0,1.54,0,2.3,0a1.38,1.38,0,0,1,.49.1.62.62,0,0,1,.3.19A.4.4,0,0,1,36.75,32.33Z"/><path class="cls-2" d="M6.77,38.58a.42.42,0,0,1-.14.18,1.13,1.13,0,0,1-.22.11.65.65,0,0,1-.31,0,.47.47,0,0,1-.28-.12,1.36,1.36,0,0,1-.28-.31c-.06-.11-.15-.24-.22-.39L4.21,36l-.32,0c-.28,0-.52,0-.78,0H2.92v1.81c0,.1,0,.19,0,.3s0,.19,0,.28a.61.61,0,0,1-.28.42.68.68,0,0,1-.51.07.69.69,0,0,1-.25-.1.52.52,0,0,1-.12-.17c0-.07-.05-.15-.07-.21a.63.63,0,0,1,0-.19V32.53a1.79,1.79,0,0,1,0-.24.71.71,0,0,1,.07-.22.32.32,0,0,1,.1-.17.71.71,0,0,1,.55-.14c.59,0,1.19,0,1.77,0A3.92,3.92,0,0,1,5.36,32l.33.14a1.21,1.21,0,0,1,.3.21A2.32,2.32,0,0,1,6.7,34,1.69,1.69,0,0,1,5.63,35.7l-.11,0,.92,1.85.09.16.1.19c0,.07.07.15.11.22s0,.17,0,.23A.39.39,0,0,1,6.77,38.58ZM4.29,34.83a1,1,0,0,0,1-.81c0-.66-.4-1-1-1-.39,0-.88,0-1.29,0,0,.55,0,1.07,0,1.84Z"/><path class="cls-2" d="M9,33l0,1.57h.4c.54,0,.92,0,1.44,0h.51a2.11,2.11,0,0,1,.45.09.62.62,0,0,1,.28.18.46.46,0,0,1,.1.29.9.9,0,0,1,0,.23.31.31,0,0,1-.13.2.35.35,0,0,1-.19.1l-.26.05a1.27,1.27,0,0,1-.28,0H8.93l0,2,2,0h.75l.27,0a.75.75,0,0,1,.2.11.43.43,0,0,1,.13.21.77.77,0,0,1,0,.22.45.45,0,0,1-.1.29.55.55,0,0,1-.28.18,1.14,1.14,0,0,1-.46.09l-.46,0H10.9q-.78,0-1.62,0h-1a.61.61,0,0,1-.38-.08.4.4,0,0,1-.17-.19.11.11,0,0,1,0-.06l0-.06a.78.78,0,0,1,0-.21l0-.2V37.9s0-.11,0-.16V37l0-1.44V34.19c0-.48,0-.81,0-1.25v0c0-.14,0-.27,0-.4a1,1,0,0,1,.11-.39A.49.49,0,0,1,8,31.86a.56.56,0,0,1,.31-.09H9.48c.53,0,1,0,1.5,0h0l.46,0a1.33,1.33,0,0,1,.44.09.57.57,0,0,1,.28.17.49.49,0,0,1,.09.28.75.75,0,0,1,0,.22.35.35,0,0,1-.12.21,1.09,1.09,0,0,1-.19.1l-.25,0a1.42,1.42,0,0,1-.29,0H9Z"/><path class="cls-2" d="M18.12,34.18a1.62,1.62,0,0,1-1.05,1.43,4.9,4.9,0,0,1-1.65.35l-.69,0h-.27v2.07c0,.25-.05.55-.31.7a1,1,0,0,1-.56.06.45.45,0,0,1-.39-.27,1.14,1.14,0,0,1-.11-.49V32.55a1.9,1.9,0,0,1,0-.25l.06-.22a.46.46,0,0,1,.11-.16.64.64,0,0,1,.47-.13h0a9.87,9.87,0,0,1,1.32,0l.49,0,.48.05.36.06a1.18,1.18,0,0,1,.35.11,1.6,1.6,0,0,1,.35.15l.29.2A2.27,2.27,0,0,1,18.12,34.18ZM15.52,33l-.78,0h-.28c0,.41,0,.77,0,1.21,0,.24,0,.48,0,.71h.62c.64,0,1.67-.11,1.74-.86S16.17,33.1,15.52,33Z"/><path class="cls-2" d="M20.31,33l0,1.57h.4c.54,0,.92,0,1.44,0h.51a2.11,2.11,0,0,1,.45.09.62.62,0,0,1,.28.18.46.46,0,0,1,.1.29.9.9,0,0,1,0,.23.31.31,0,0,1-.13.2.35.35,0,0,1-.19.1l-.26.05a1.27,1.27,0,0,1-.28,0H20.27l0,2,2,0H23l.27,0a.75.75,0,0,1,.2.11.43.43,0,0,1,.13.21.77.77,0,0,1,0,.22.45.45,0,0,1-.1.29.55.55,0,0,1-.28.18,1.14,1.14,0,0,1-.46.09l-.46,0h-.06q-.78,0-1.62,0h-1a.61.61,0,0,1-.38-.08.4.4,0,0,1-.17-.19.11.11,0,0,1,0-.06l0-.06a.78.78,0,0,1,0-.21l0-.2V37.9s0-.11,0-.16V37l0-1.44V34.19c0-.48,0-.81,0-1.25v0c0-.14,0-.27,0-.4a1,1,0,0,1,.11-.39.49.49,0,0,1,.21-.24.56.56,0,0,1,.31-.09h1.18c.53,0,1,0,1.5,0h0l.46,0a1.33,1.33,0,0,1,.44.09.57.57,0,0,1,.28.17.49.49,0,0,1,.09.28.75.75,0,0,1,0,.22.35.35,0,0,1-.12.21,1.09,1.09,0,0,1-.19.1l-.25,0a1.42,1.42,0,0,1-.29,0H20.31Z"/><path class="cls-2" d="M30.62,38.39a.36.36,0,0,1-.07.22.49.49,0,0,1-.2.17.76.76,0,0,1-.53.1.6.6,0,0,1-.25-.13l-.05,0s0,0-.05-.05a1.15,1.15,0,0,1-.14-.19l-.1-.19a.51.51,0,0,1-.07-.15,1,1,0,0,1-.05-.16l-.21-.49H26.15l-.21.49s0,.11-.05.16a1,1,0,0,1-.07.15l-.11.19a.72.72,0,0,1-.13.19s0,0,0,.05l-.05,0a.6.6,0,0,1-.25.13.76.76,0,0,1-.53-.1.49.49,0,0,1-.2-.17.36.36,0,0,1-.07-.22,1.79,1.79,0,0,1,0-.24A1,1,0,0,1,24.5,38l0-.09,2.08-5.12.06-.16c0-.08.07-.14.1-.23a1.2,1.2,0,0,1,.11-.23,1.13,1.13,0,0,1,.15-.21.52.52,0,0,1,.17-.13,1,1,0,0,1,.65,0,.52.52,0,0,1,.17.13,1.91,1.91,0,0,1,.15.21,1.2,1.2,0,0,1,.11.23c0,.09.07.15.1.23l.06.16,2.08,5.12,0,.09a1,1,0,0,1,.05.18A1.79,1.79,0,0,1,30.62,38.39ZM28.23,35.7c-.17-.38-.35-.8-.55-1.23l-.16-.37c0,.12-.1.25-.15.37-.2.43-.38.85-.55,1.23l-.18.44h1.77Z"/><path class="cls-2" d="M35.75,32.33a1.79,1.79,0,0,1,0,.24.48.48,0,0,1-.13.21.73.73,0,0,1-.22.09,2.11,2.11,0,0,1-.29.06h-1.5c0,.82,0,1.82,0,4v.76a.71.71,0,0,0,0,.15.92.92,0,0,1,0,.16l0,.21a.72.72,0,0,1,0,.19s0,.05,0,.06l0,.06a.5.5,0,0,1-.19.19.73.73,0,0,1-.49,0,.47.47,0,0,1-.26-.09.55.55,0,0,1-.13-.18.65.65,0,0,1-.07-.21.68.68,0,0,1,0-.19V33c-.16,0-1.14,0-1.32,0a3.24,3.24,0,0,1-.39-.07.63.63,0,0,1-.33-.19.44.44,0,0,1-.11-.29.86.86,0,0,1,0-.23.37.37,0,0,1,.16-.2,1,1,0,0,1,.29-.14,1.22,1.22,0,0,1,.3-.06h1.66c.77,0,1.54,0,2.3,0a1.38,1.38,0,0,1,.49.1.62.62,0,0,1,.3.19A.4.4,0,0,1,35.75,32.33Z"/><path class="cls-1" d="M27.39,4.86H25l1.1-1.1A2.2,2.2,0,1,0,23,.64h0L18.1,5.54a2.21,2.21,0,0,0,0,3.11L23,13.54a2.2,2.2,0,1,0,3.11-3.11L25,9.33h2.39a6.6,6.6,0,1,1,0,13.2H3.2a2.2,2.2,0,1,0,0,4.4H27.39a11,11,0,0,0,0-22Z"/><path class="cls-2" d="M26.39,4.86H24l1.1-1.1A2.2,2.2,0,1,0,22,.64h0L17.1,5.54a2.21,2.21,0,0,0,0,3.11L22,13.54a2.2,2.2,0,1,0,3.11-3.11L24,9.33h2.39a6.6,6.6,0,1,1,0,13.2H2.2a2.2,2.2,0,1,0,0,4.4H26.39a11,11,0,0,0,0-22Z"/></g></g></svg>