<svg xmlns="http://www.w3.org/2000/svg" width="85" height="66" viewBox="-15 -12 85 66"><defs><style>.cls-1{fill:#002083;}.cls-2{fill:#fff;}.cls-3{fill:#efefef;}.cls-4,.cls-8{fill:none;stroke:#cccbcb;stroke-miterlimit:10;}.cls-4{stroke-width:0.2px;}.cls-5{fill:#b2b2b2;}.cls-6{fill:#a4a4a4;}.cls-7{fill:#ec2024;}.cls-8{stroke-width:0.21px;}.cls-9{fill:#cccbcb;}</style></defs><title>right</title><g id="레이어_2" data-name="레이어 2"><g id="레이어_1-2" data-name="레이어 1"><path class="cls-1" d="M13.52,45.52a.42.42,0,0,1-.14.18l-.22.11a.65.65,0,0,1-.31,0,.47.47,0,0,1-.28-.12,1.36,1.36,0,0,1-.28-.31c-.06-.11-.15-.24-.22-.39L11,42.91l-.32,0c-.28,0-.52,0-.78,0H9.67v1.81c0,.1,0,.19,0,.3s0,.19,0,.28a.61.61,0,0,1-.28.42.68.68,0,0,1-.51.07.69.69,0,0,1-.25-.1.52.52,0,0,1-.12-.17c0-.07-.05-.15-.07-.21a.63.63,0,0,1,0-.19V39.47a1.79,1.79,0,0,1,0-.24A.71.71,0,0,1,8.47,39a.32.32,0,0,1,.1-.17.71.71,0,0,1,.55-.14c.59,0,1.19,0,1.77,0a3.92,3.92,0,0,1,1.22.22l.33.14a1.21,1.21,0,0,1,.3.21A2.32,2.32,0,0,1,13.45,41a1.69,1.69,0,0,1-1.07,1.66l-.11,0,.92,1.85.09.16.1.19c0,.07.07.15.11.22s0,.17,0,.23A.39.39,0,0,1,13.52,45.52ZM11,41.77A1,1,0,0,0,12,41c.05-.66-.4-1-1-1-.39,0-.88,0-1.29,0,0,.55,0,1.07,0,1.84Z"/><path class="cls-1" d="M14.66,44.71V42.45c0-.42,0-.88,0-1.36s0-.81,0-1.27v0c0-.13,0-.28,0-.42a1.15,1.15,0,0,1,.11-.39.6.6,0,0,1,.21-.24.71.71,0,0,1,.31-.08l.27,0a.4.4,0,0,1,.23.12A.38.38,0,0,1,16,39a2,2,0,0,1,.06.23,2.29,2.29,0,0,1,0,.25c0,.09,0,.16,0,.24v.17L16,45v.1s0,.1,0,.18,0,.14-.07.22a.52.52,0,0,1-.15.18.48.48,0,0,1-.26.11.8.8,0,0,1-.51,0,.48.48,0,0,1-.17-.2.09.09,0,0,1,0-.06l0-.06a.78.78,0,0,1,0-.22l0-.2a.49.49,0,0,1,0-.17Z"/><path class="cls-1" d="M21.53,45.57a3.25,3.25,0,0,1-1.64.34c-2.4-.08-2.84-2.39-2.72-4.09.08-1,.55-2.47,1.68-2.91a2.86,2.86,0,0,1,3.25.68,2.1,2.1,0,0,1,.28,1.34c-.12.79-1,.56-1.16,0a1.17,1.17,0,0,0-.48-.75,1.36,1.36,0,0,0-1.83.53,3.35,3.35,0,0,0-.34,2.39,3.66,3.66,0,0,0,.34.92,1.33,1.33,0,0,0,1.39.55,1.07,1.07,0,0,0,.88-1.21H20.8a1.22,1.22,0,0,1-.43-.08.49.49,0,0,1-.27-.19.39.39,0,0,1-.1-.27,1.79,1.79,0,0,1,0-.23.67.67,0,0,1,.13-.2.57.57,0,0,1,.19-.08,1.67,1.67,0,0,1,.26-.06h1.18a.79.79,0,0,1,.48.13.5.5,0,0,1,.11.17,1.19,1.19,0,0,1,.05.22,2.12,2.12,0,0,1,0,.24v.41A2.34,2.34,0,0,1,21.53,45.57Z"/><path class="cls-1" d="M28.53,39.43v.41L28.47,45v.1a.82.82,0,0,1,0,.18,1.11,1.11,0,0,1-.07.22.4.4,0,0,1-.14.18.48.48,0,0,1-.26.11.79.79,0,0,1-.51,0,.44.44,0,0,1-.18-.2l0-.06a.14.14,0,0,0,0-.06.79.79,0,0,1,0-.22,1.5,1.5,0,0,0,0-.2.5.5,0,0,1,0-.17.34.34,0,0,0,0-.15V42.66H24.6l0,2.36v.1a.82.82,0,0,1,0,.18,1.11,1.11,0,0,1-.07.22.4.4,0,0,1-.14.18.48.48,0,0,1-.26.11.79.79,0,0,1-.51,0,.61.61,0,0,1-.19-.2.14.14,0,0,1,0-.06l0-.06a.79.79,0,0,1,0-.22,1.62,1.62,0,0,0,0-.2.49.49,0,0,1,0-.17v-.94l0-1.47c0-.42,0-.88,0-1.36s0-.81,0-1.27v0c0-.13,0-.28,0-.42a1,1,0,0,1,.11-.39.58.58,0,0,1,.2-.24.72.72,0,0,1,.32-.08l.26,0a.37.37,0,0,1,.23.12.31.31,0,0,1,.11.16,1,1,0,0,1,.06.23,2.18,2.18,0,0,1,0,.25v.41l0,1.65H25l2.12,0h0c0-.59,0-1.12,0-1.72,0-.13,0-.28,0-.42a1,1,0,0,1,.11-.39.48.48,0,0,1,.21-.24.65.65,0,0,1,.31-.08l.26,0a.37.37,0,0,1,.23.12.26.26,0,0,1,.11.16c0,.08,0,.15.07.23A2.18,2.18,0,0,1,28.53,39.43Z"/><path class="cls-1" d="M35,39.27a1.79,1.79,0,0,1,0,.24.48.48,0,0,1-.13.21.73.73,0,0,1-.22.09,2.11,2.11,0,0,1-.29.06H32.8c0,.82,0,1.82,0,4v.76a.71.71,0,0,0,0,.15.92.92,0,0,1,0,.16l0,.21a.72.72,0,0,1,0,.19s0,0,0,.06l0,.06a.5.5,0,0,1-.19.19.73.73,0,0,1-.49.05.47.47,0,0,1-.26-.09.55.55,0,0,1-.13-.18.65.65,0,0,1-.07-.21.68.68,0,0,1,0-.19V39.93c-.16,0-1.14,0-1.32,0a3.24,3.24,0,0,1-.39-.07.63.63,0,0,1-.33-.19.44.44,0,0,1-.11-.29.86.86,0,0,1,0-.23.37.37,0,0,1,.16-.2,1,1,0,0,1,.29-.14,1.22,1.22,0,0,1,.3-.06h1.66c.77,0,1.54,0,2.3,0a1.38,1.38,0,0,1,.49.1.62.62,0,0,1,.3.19A.4.4,0,0,1,35,39.27Z"/><path class="cls-2" d="M12.52,45.52a.42.42,0,0,1-.14.18l-.22.11a.65.65,0,0,1-.31,0,.47.47,0,0,1-.28-.12,1.36,1.36,0,0,1-.28-.31c-.06-.11-.15-.24-.22-.39L10,42.91l-.32,0c-.28,0-.52,0-.78,0H8.67v1.81c0,.1,0,.19,0,.3s0,.19,0,.28a.61.61,0,0,1-.28.42.68.68,0,0,1-.51.07.69.69,0,0,1-.25-.1.52.52,0,0,1-.12-.17c0-.07-.05-.15-.07-.21a.63.63,0,0,1,0-.19V39.47a1.79,1.79,0,0,1,0-.24A.71.71,0,0,1,7.47,39a.32.32,0,0,1,.1-.17.71.71,0,0,1,.55-.14c.59,0,1.19,0,1.77,0a3.92,3.92,0,0,1,1.22.22l.33.14a1.21,1.21,0,0,1,.3.21A2.32,2.32,0,0,1,12.45,41a1.69,1.69,0,0,1-1.07,1.66l-.11,0,.92,1.85.09.16.1.19c0,.07.07.15.11.22s0,.17,0,.23A.39.39,0,0,1,12.52,45.52ZM10,41.77A1,1,0,0,0,11,41c.05-.66-.4-1-1-1-.39,0-.88,0-1.29,0,0,.55,0,1.07,0,1.84Z"/><path class="cls-2" d="M13.66,44.71V42.45c0-.42,0-.88,0-1.36s0-.81,0-1.27v0c0-.13,0-.28,0-.42a1.15,1.15,0,0,1,.11-.39.6.6,0,0,1,.21-.24.71.71,0,0,1,.31-.08l.27,0a.4.4,0,0,1,.23.12A.38.38,0,0,1,15,39a2,2,0,0,1,.06.23,2.29,2.29,0,0,1,0,.25c0,.09,0,.16,0,.24v.17L15,45v.1s0,.1,0,.18,0,.14-.07.22a.52.52,0,0,1-.15.18.48.48,0,0,1-.26.11.8.8,0,0,1-.51,0,.48.48,0,0,1-.17-.2.09.09,0,0,1,0-.06l0-.06a.78.78,0,0,1,0-.22l0-.2a.49.49,0,0,1,0-.17Z"/><path class="cls-2" d="M20.53,45.57a3.25,3.25,0,0,1-1.64.34c-2.4-.08-2.84-2.39-2.72-4.09.08-1,.55-2.47,1.68-2.91a2.86,2.86,0,0,1,3.25.68,2.1,2.1,0,0,1,.28,1.34c-.12.79-1,.56-1.16,0a1.17,1.17,0,0,0-.48-.75,1.36,1.36,0,0,0-1.83.53,3.35,3.35,0,0,0-.34,2.39,3.66,3.66,0,0,0,.34.92,1.33,1.33,0,0,0,1.39.55,1.07,1.07,0,0,0,.88-1.21H19.8a1.22,1.22,0,0,1-.43-.08.49.49,0,0,1-.27-.19.39.39,0,0,1-.1-.27,1.79,1.79,0,0,1,0-.23.67.67,0,0,1,.13-.2.57.57,0,0,1,.19-.08,1.67,1.67,0,0,1,.26-.06h1.18a.79.79,0,0,1,.48.13.5.5,0,0,1,.11.17,1.19,1.19,0,0,1,.05.22,2.12,2.12,0,0,1,0,.24v.41A2.34,2.34,0,0,1,20.53,45.57Z"/><path class="cls-2" d="M27.53,39.43v.41L27.47,45v.1a.82.82,0,0,1,0,.18,1.11,1.11,0,0,1-.07.22.4.4,0,0,1-.14.18.48.48,0,0,1-.26.11.79.79,0,0,1-.51,0,.44.44,0,0,1-.18-.2l0-.06a.14.14,0,0,0,0-.06.79.79,0,0,1,0-.22,1.5,1.5,0,0,0,0-.2.5.5,0,0,1,0-.17.34.34,0,0,0,0-.15V42.66H23.6l0,2.36v.1a.82.82,0,0,1,0,.18,1.11,1.11,0,0,1-.07.22.4.4,0,0,1-.14.18.48.48,0,0,1-.26.11.79.79,0,0,1-.51,0,.61.61,0,0,1-.19-.2.14.14,0,0,1,0-.06l0-.06a.79.79,0,0,1,0-.22,1.62,1.62,0,0,0,0-.2.49.49,0,0,1,0-.17v-.94l0-1.47c0-.42,0-.88,0-1.36s0-.81,0-1.27v0c0-.13,0-.28,0-.42a1,1,0,0,1,.11-.39.58.58,0,0,1,.2-.24.72.72,0,0,1,.32-.08l.26,0a.37.37,0,0,1,.23.12.31.31,0,0,1,.11.16,1,1,0,0,1,.06.23,2.18,2.18,0,0,1,0,.25v.41l0,1.65H24l2.12,0h0c0-.59,0-1.12,0-1.72,0-.13,0-.28,0-.42a1,1,0,0,1,.11-.39.48.48,0,0,1,.21-.24.65.65,0,0,1,.31-.08l.26,0a.37.37,0,0,1,.23.12.26.26,0,0,1,.11.16c0,.08,0,.15.07.23A2.18,2.18,0,0,1,27.53,39.43Z"/><path class="cls-2" d="M34,39.27a1.79,1.79,0,0,1,0,.24.48.48,0,0,1-.13.21.73.73,0,0,1-.22.09,2.11,2.11,0,0,1-.29.06H31.8c0,.82,0,1.82,0,4v.76a.71.71,0,0,0,0,.15.92.92,0,0,1,0,.16q0,.09,0,.21a.72.72,0,0,1,0,.19s0,0,0,.06l0,.06a.5.5,0,0,1-.19.19.73.73,0,0,1-.49.05.47.47,0,0,1-.26-.09.55.55,0,0,1-.13-.18.65.65,0,0,1-.07-.21.68.68,0,0,1,0-.19V39.93c-.16,0-1.14,0-1.32,0a3.24,3.24,0,0,1-.39-.07.63.63,0,0,1-.33-.19.44.44,0,0,1-.11-.29.86.86,0,0,1,0-.23.37.37,0,0,1,.16-.2,1,1,0,0,1,.29-.14,1.22,1.22,0,0,1,.3-.06h1.66c.77,0,1.54,0,2.3,0a1.38,1.38,0,0,1,.49.1.62.62,0,0,1,.3.19A.4.4,0,0,1,34,39.27Z"/><rect class="cls-1" x="1.09" y="13.03" width="3.15" height="19.19" rx="1.44" ry="1.44"/><rect class="cls-1" x="1.52" y="10.89" width="3.15" height="22.97" rx="1.57" ry="1.57"/><path class="cls-1" d="M4.5,13.49H1.69a.18.18,0,0,1-.17-.17h0A1.08,1.08,0,0,1,2.6,12.24h1a1.08,1.08,0,0,1,1.08,1.08h0A.18.18,0,0,1,4.5,13.49Z"/><rect class="cls-1" x="1.52" y="15.02" width="3.15" height="1.24" rx="0.17" ry="0.17"/><rect class="cls-1" x="1.52" y="17.8" width="3.15" height="1.24" rx="0.17" ry="0.17"/><rect class="cls-1" x="1.52" y="20.58" width="3.15" height="1.24" rx="0.17" ry="0.17"/><rect class="cls-1" x="1.52" y="23.36" width="3.15" height="1.24" rx="0.17" ry="0.17"/><rect class="cls-1" x="1.52" y="26.14" width="3.15" height="1.24" rx="0.17" ry="0.17"/><rect class="cls-1" x="1.52" y="28.92" width="3.15" height="1.24" rx="0.17" ry="0.17"/><path class="cls-1" d="M3.59,32.94h-1a1.08,1.08,0,0,1-1.08-1.08h0a.18.18,0,0,1,.17-.17H4.5a.18.18,0,0,1,.17.17h0A1.08,1.08,0,0,1,3.59,32.94Z"/><rect class="cls-1" x="38.66" y="12.53" width="3.15" height="19.19" rx="1.44" ry="1.44"/><rect class="cls-1" x="38.23" y="10.89" width="3.15" height="22.97" rx="1.57" ry="1.57"/><path class="cls-1" d="M38.4,31.26h2.81a.18.18,0,0,1,.17.17h0a1.09,1.09,0,0,1-1.08,1.08h-1a1.08,1.08,0,0,1-1.07-1.08h0A.17.17,0,0,1,38.4,31.26Z"/><rect class="cls-1" x="38.23" y="28.48" width="3.15" height="1.24" rx="0.17" ry="0.17"/><rect class="cls-1" x="38.23" y="25.71" width="3.15" height="1.24" rx="0.17" ry="0.17"/><rect class="cls-1" x="38.23" y="22.93" width="3.15" height="1.24" rx="0.17" ry="0.17"/><rect class="cls-1" x="38.23" y="20.15" width="3.15" height="1.24" rx="0.17" ry="0.17"/><rect class="cls-1" x="38.23" y="17.37" width="3.15" height="1.24" rx="0.17" ry="0.17"/><rect class="cls-1" x="38.23" y="14.59" width="3.15" height="1.24" rx="0.17" ry="0.17"/><path class="cls-1" d="M39.3,11.81h1a1.09,1.09,0,0,1,1.08,1.08h0a.18.18,0,0,1-.17.17H38.4a.17.17,0,0,1-.17-.17h0A1.08,1.08,0,0,1,39.3,11.81Z"/><rect class="cls-1" x="4.71" y="14.01" width="16.73" height="16.73" rx="1.96" ry="1.96"/><path class="cls-1" d="M11.91,14.46V14h2.32v.45a.38.38,0,0,1-.37.37H12.28A.38.38,0,0,1,11.91,14.46Z"/><path class="cls-1" d="M14.23,30.29v.45H11.91v-.45a.38.38,0,0,1,.37-.37h1.58A.38.38,0,0,1,14.23,30.29Z"/><path class="cls-1" d="M21,21.22h.45v2.31H21a.37.37,0,0,1-.37-.37V21.59A.37.37,0,0,1,21,21.22Z"/><path class="cls-1" d="M5.15,23.53H4.71V21.22h.44a.36.36,0,0,1,.37.37v1.57A.36.36,0,0,1,5.15,23.53Z"/><rect class="cls-1" x="4.71" y="14.01" width="16.73" height="16.73" rx="1.96" ry="1.96"/><rect class="cls-1" x="14.92" y="15.88" width="4.39" height="4.39" rx="2.19" ry="2.19"/><rect class="cls-1" x="14.92" y="15.88" width="4.39" height="4.39" rx="2.19" ry="2.19"/><rect class="cls-1" x="15.72" y="16.69" width="2.78" height="2.78" rx="1.39" ry="1.39"/><rect class="cls-1" x="6.83" y="15.88" width="4.39" height="4.39" rx="2.19" ry="2.19"/><rect class="cls-1" x="6.83" y="15.88" width="4.39" height="4.39" rx="2.19" ry="2.19"/><rect class="cls-1" x="7.63" y="16.69" width="2.78" height="2.78" rx="1.39" ry="1.39"/><rect class="cls-1" x="14.92" y="24.48" width="4.39" height="4.39" rx="2.19" ry="2.19"/><rect class="cls-1" x="14.92" y="24.48" width="4.39" height="4.39" rx="2.19" ry="2.19"/><rect class="cls-1" x="15.72" y="25.28" width="2.78" height="2.78" rx="1.39" ry="1.39"/><rect class="cls-1" x="6.83" y="24.48" width="4.39" height="4.39" rx="2.19" ry="2.19"/><rect class="cls-1" x="6.83" y="24.48" width="4.39" height="4.39" rx="2.19" ry="2.19"/><rect class="cls-1" x="7.63" y="25.28" width="2.78" height="2.78" rx="1.39" ry="1.39"/><rect class="cls-1" x="21.47" y="14.01" width="16.73" height="16.73" rx="1.96" ry="1.96"/><path class="cls-1" d="M28.67,14.46V14H31v.45a.38.38,0,0,1-.37.37H29A.38.38,0,0,1,28.67,14.46Z"/><path class="cls-1" d="M31,30.29v.45H28.67v-.45a.38.38,0,0,1,.37-.37h1.58A.38.38,0,0,1,31,30.29Z"/><path class="cls-1" d="M37.75,21.22h.44v2.31h-.44a.37.37,0,0,1-.38-.37V21.59A.37.37,0,0,1,37.75,21.22Z"/><path class="cls-1" d="M21.91,23.53h-.44V21.22h.44a.36.36,0,0,1,.37.37v1.57A.36.36,0,0,1,21.91,23.53Z"/><rect class="cls-1" x="21.47" y="14.01" width="16.73" height="16.73" rx="1.96" ry="1.96"/><rect class="cls-1" x="31.68" y="15.88" width="4.39" height="4.39" rx="2.19" ry="2.19"/><rect class="cls-1" x="31.68" y="15.88" width="4.39" height="4.39" rx="2.19" ry="2.19"/><rect class="cls-1" x="32.48" y="16.69" width="2.78" height="2.78" rx="1.39" ry="1.39"/><rect class="cls-1" x="23.59" y="15.88" width="4.39" height="4.39" rx="2.19" ry="2.19"/><rect class="cls-1" x="23.59" y="15.88" width="4.39" height="4.39" rx="2.19" ry="2.19"/><rect class="cls-1" x="24.4" y="16.69" width="2.78" height="2.78" rx="1.39" ry="1.39"/><rect class="cls-1" x="31.68" y="24.48" width="4.39" height="4.39" rx="2.19" ry="2.19"/><rect class="cls-1" x="31.68" y="24.48" width="4.39" height="4.39" rx="2.19" ry="2.19"/><rect class="cls-1" x="32.48" y="25.28" width="2.78" height="2.78" rx="1.39" ry="1.39"/><rect class="cls-1" x="23.59" y="24.48" width="4.39" height="4.39" rx="2.19" ry="2.19"/><rect class="cls-1" x="23.59" y="24.48" width="4.39" height="4.39" rx="2.19" ry="2.19"/><rect class="cls-1" x="24.4" y="25.28" width="2.78" height="2.78" rx="1.39" ry="1.39"/><rect class="cls-3" x="0.1" y="13.03" width="3.15" height="19.19" rx="1.44" ry="1.44" transform="translate(3.34 45.25) rotate(180)"/><rect class="cls-3" x="37.67" y="12.53" width="3.15" height="19.19" rx="1.44" ry="1.44"/><rect class="cls-4" x="0.1" y="13.03" width="3.15" height="19.19" rx="1.44" ry="1.44" transform="translate(3.34 45.25) rotate(180)"/><rect class="cls-4" x="37.67" y="12.53" width="3.15" height="19.19" rx="1.44" ry="1.44"/><rect class="cls-5" x="0.53" y="10.89" width="3.15" height="22.97" rx="1.57" ry="1.57" transform="translate(4.21 44.75) rotate(180)"/><path class="cls-6" d="M1.61,12.24h1a1.08,1.08,0,0,1,1.08,1.08v0a.17.17,0,0,1-.17.17H.7a.17.17,0,0,1-.17-.17v0a1.08,1.08,0,0,1,1.08-1.08Z"/><rect class="cls-6" x="0.53" y="15.02" width="3.15" height="1.24" rx="0.17" ry="0.17"/><rect class="cls-6" x="0.53" y="17.8" width="3.15" height="1.24" rx="0.17" ry="0.17"/><rect class="cls-6" x="0.53" y="20.58" width="3.15" height="1.24" rx="0.17" ry="0.17"/><rect class="cls-6" x="0.53" y="23.36" width="3.15" height="1.24" rx="0.17" ry="0.17"/><rect class="cls-6" x="0.53" y="26.14" width="3.15" height="1.24" rx="0.17" ry="0.17"/><rect class="cls-6" x="0.53" y="28.92" width="3.15" height="1.24" rx="0.17" ry="0.17"/><path class="cls-6" d="M.7,31.69H3.51a.17.17,0,0,1,.17.17v0A1.08,1.08,0,0,1,2.6,32.94h-1A1.08,1.08,0,0,1,.53,31.86v0a.17.17,0,0,1,.17-.17Z"/><rect class="cls-5" x="37.24" y="10.89" width="3.15" height="22.97" rx="1.57" ry="1.57"/><path class="cls-6" d="M38.31,31.26h1a1.08,1.08,0,0,1,1.08,1.08v0a.17.17,0,0,1-.17.17H37.41a.17.17,0,0,1-.17-.17v0A1.08,1.08,0,0,1,38.31,31.26Z" transform="translate(77.63 63.77) rotate(180)"/><rect class="cls-6" x="37.24" y="28.48" width="3.15" height="1.24" rx="0.17" ry="0.17" transform="translate(77.63 58.21) rotate(180)"/><rect class="cls-6" x="37.24" y="25.71" width="3.15" height="1.24" rx="0.17" ry="0.17" transform="translate(77.63 52.65) rotate(180)"/><rect class="cls-6" x="37.24" y="22.93" width="3.15" height="1.24" rx="0.17" ry="0.17" transform="translate(77.63 47.1) rotate(180)"/><rect class="cls-6" x="37.24" y="20.15" width="3.15" height="1.24" rx="0.17" ry="0.17" transform="translate(77.63 41.54) rotate(180)"/><rect class="cls-6" x="37.24" y="17.37" width="3.15" height="1.24" rx="0.17" ry="0.17" transform="translate(77.63 35.98) rotate(180)"/><rect class="cls-6" x="37.24" y="14.59" width="3.15" height="1.24" rx="0.17" ry="0.17" transform="translate(77.63 30.43) rotate(180)"/><path class="cls-6" d="M37.41,11.81h2.81a.17.17,0,0,1,.17.17v0a1.08,1.08,0,0,1-1.08,1.08h-1A1.08,1.08,0,0,1,37.24,12v0a.17.17,0,0,1,.17-.17Z" transform="translate(77.63 24.87) rotate(180)"/><rect class="cls-3" x="3.72" y="14.01" width="16.73" height="16.73" rx="1.96" ry="1.96"/><path class="cls-7" d="M11.67,13.26h.45a.37.37,0,0,1,.37.37v1.58a.37.37,0,0,1-.37.37h-.45a0,0,0,0,1,0,0V13.26A0,0,0,0,1,11.67,13.26Z" transform="translate(26.5 2.34) rotate(90)"/><path class="cls-7" d="M11.67,29.17h.45a.37.37,0,0,1,.37.37v1.58a.37.37,0,0,1-.37.37h-.45a0,0,0,0,1,0,0V29.17A0,0,0,0,1,11.67,29.17Z" transform="translate(-18.25 42.41) rotate(-90)"/><path class="cls-7" d="M19.62,21.22h.45a.37.37,0,0,1,.37.37v1.58a.37.37,0,0,1-.37.37h-.45a0,0,0,0,1,0,0V21.22A0,0,0,0,1,19.62,21.22Z" transform="translate(40.06 44.75) rotate(180)"/><path class="cls-7" d="M3.72,21.22h.45a.37.37,0,0,1,.37.37v1.58a.37.37,0,0,1-.37.37H3.72a0,0,0,0,1,0,0V21.22A0,0,0,0,1,3.72,21.22Z"/><rect class="cls-8" x="3.72" y="14.01" width="16.73" height="16.73" rx="1.96" ry="1.96"/><rect class="cls-3" x="13.93" y="15.88" width="4.39" height="4.39" rx="2.19" ry="2.19"/><rect class="cls-8" x="13.93" y="15.88" width="4.39" height="4.39" rx="2.19" ry="2.19"/><rect class="cls-9" x="14.73" y="16.69" width="2.78" height="2.78" rx="1.39" ry="1.39"/><rect class="cls-3" x="5.84" y="15.88" width="4.39" height="4.39" rx="2.19" ry="2.19"/><rect class="cls-8" x="5.84" y="15.88" width="4.39" height="4.39" rx="2.19" ry="2.19"/><rect class="cls-9" x="6.64" y="16.69" width="2.78" height="2.78" rx="1.39" ry="1.39"/><rect class="cls-3" x="13.93" y="24.48" width="4.39" height="4.39" rx="2.19" ry="2.19"/><rect class="cls-8" x="13.93" y="24.48" width="4.39" height="4.39" rx="2.19" ry="2.19"/><rect class="cls-9" x="14.73" y="25.28" width="2.78" height="2.78" rx="1.39" ry="1.39"/><rect class="cls-3" x="5.84" y="24.48" width="4.39" height="4.39" rx="2.19" ry="2.19"/><rect class="cls-8" x="5.84" y="24.48" width="4.39" height="4.39" rx="2.19" ry="2.19"/><rect class="cls-9" x="6.64" y="25.28" width="2.78" height="2.78" rx="1.39" ry="1.39"/><rect class="cls-3" x="20.48" y="14.01" width="16.73" height="16.73" rx="1.96" ry="1.96"/><path class="cls-7" d="M28.43,13.26h.45a.37.37,0,0,1,.37.37v1.58a.37.37,0,0,1-.37.37h-.45a0,0,0,0,1,0,0V13.26A0,0,0,0,1,28.43,13.26Z" transform="translate(43.26 -14.42) rotate(90)"/><path class="cls-7" d="M28.43,29.17h.45a.37.37,0,0,1,.37.37v1.58a.37.37,0,0,1-.37.37h-.45a0,0,0,0,1,0,0V29.17A0,0,0,0,1,28.43,29.17Z" transform="translate(-1.49 59.17) rotate(-90)"/><path class="cls-7" d="M36.38,21.22h.45a.37.37,0,0,1,.37.37v1.58a.37.37,0,0,1-.37.37h-.45a0,0,0,0,1,0,0V21.22A0,0,0,0,1,36.38,21.22Z" transform="translate(73.59 44.75) rotate(180)"/><path class="cls-7" d="M20.48,21.22h.45a.37.37,0,0,1,.37.37v1.58a.37.37,0,0,1-.37.37h-.45a0,0,0,0,1,0,0V21.22A0,0,0,0,1,20.48,21.22Z"/><rect class="cls-8" x="20.48" y="14.01" width="16.73" height="16.73" rx="1.96" ry="1.96"/><rect class="cls-3" x="30.69" y="15.88" width="4.39" height="4.39" rx="2.19" ry="2.19"/><rect class="cls-8" x="30.69" y="15.88" width="4.39" height="4.39" rx="2.19" ry="2.19"/><rect class="cls-9" x="31.49" y="16.69" width="2.78" height="2.78" rx="1.39" ry="1.39"/><rect class="cls-3" x="22.6" y="15.88" width="4.39" height="4.39" rx="2.19" ry="2.19"/><rect class="cls-8" x="22.6" y="15.88" width="4.39" height="4.39" rx="2.19" ry="2.19"/><rect class="cls-9" x="23.41" y="16.69" width="2.78" height="2.78" rx="1.39" ry="1.39"/><rect class="cls-3" x="30.69" y="24.48" width="4.39" height="4.39" rx="2.19" ry="2.19"/><rect class="cls-8" x="30.69" y="24.48" width="4.39" height="4.39" rx="2.19" ry="2.19"/><rect class="cls-9" x="31.49" y="25.28" width="2.78" height="2.78" rx="1.39" ry="1.39"/><rect class="cls-3" x="22.6" y="24.48" width="4.39" height="4.39" rx="2.19" ry="2.19"/><rect class="cls-8" x="22.6" y="24.48" width="4.39" height="4.39" rx="2.19" ry="2.19"/><rect class="cls-9" x="23.41" y="25.28" width="2.78" height="2.78" rx="1.39" ry="1.39"/><path class="cls-1" d="M20.05,7.49v4.88a.91.91,0,0,0,.95.9,1,1,0,0,0,.95-.9V7.49a3.19,3.19,0,0,1,3.31-3.08H30.1L28.86,5.54a.8.8,0,0,0-.28.62.91.91,0,0,0,1,.9,1.07,1.07,0,0,0,.66-.24L33,4.17a.77.77,0,0,0,.29-.62A1,1,0,0,0,33,2.89L30.19.24A.9.9,0,0,0,29.53,0a1,1,0,0,0-1,.9.87.87,0,0,0,.28.62L30.1,2.65H25.26A5,5,0,0,0,20.05,7.49Z"/><path class="cls-2" d="M19.06,7.49v4.88a.91.91,0,0,0,1,.9,1,1,0,0,0,.95-.9V7.49a3.19,3.19,0,0,1,3.31-3.08h4.84L27.88,5.54a.78.78,0,0,0-.29.62.91.91,0,0,0,.95.9,1.07,1.07,0,0,0,.66-.24l2.85-2.65a.79.79,0,0,0,.28-.62,1,1,0,0,0-.28-.66L29.2.24A.9.9,0,0,0,28.54,0a1,1,0,0,0-.95.9.84.84,0,0,0,.29.62l1.23,1.13H24.27A5,5,0,0,0,19.06,7.49Z"/></g></g></svg>