<svg xmlns="http://www.w3.org/2000/svg" xmlns:xlink="http://www.w3.org/1999/xlink" width="85" height="66" viewBox="-14 -7 76.5 59.4"><defs>style>.cls-1{fill:#0a6503;}.cls-2{fill:#fff;}</style></defs><g id="레이어_2" data-name="레이어 2"><g id="레이어_1-2" data-name="레이어 1"><rect class="cls-1" x="12.67" y="0.73" width="8.41" height="6.16" rx="1.17"/><rect class="cls-1" x="12.67" y="0.73" width="8.41" height="6.16" rx="1.17"/><rect class="cls-1" x="26.8" y="0.73" width="8.41" height="6.16" rx="1.17"/><rect class="cls-1" x="26.8" y="0.73" width="8.41" height="6.16" rx="1.17"/><rect class="cls-1" x="10.04" y="3.81" width="27.82" height="30.79" rx="3.42"/><path class="cls-1" d="M23.19,2.43H24a.68.68,0,0,1,.68.68V6A.68.68,0,0,1,24,6.7h-.82a0,0,0,0,1,0,0V2.43A0,0,0,0,1,23.19,2.43Z" transform="translate(28.51 -19.38) rotate(90)"/><rect class="cls-1" x="10.04" y="3.81" width="27.82" height="30.79" rx="3.42"/><rect class="cls-2" x="10.04" y="6.89" width="27.87" height="22.96"/><path class="cls-1" d="M10,23.59h1.31a.81.81,0,0,1,.81.81v3.06a.81.81,0,0,1-.81.81H10a0,0,0,0,1,0,0V23.59A0,0,0,0,1,10,23.59Z"/><path class="cls-1" d="M10,16h1.31a.81.81,0,0,1,.81.81V19.9a.81.81,0,0,1-.81.81H10a0,0,0,0,1,0,0V16A0,0,0,0,1,10,16Z"/><path class="cls-1" d="M10,8.48h1.31a.81.81,0,0,1,.81.81v3.06a.81.81,0,0,1-.81.81H10a0,0,0,0,1,0,0V8.48A0,0,0,0,1,10,8.48Z"/><path class="cls-1" d="M35.78,12.26H37.1a.81.81,0,0,1,.81.81v3.06a.81.81,0,0,1-.81.81H35.78a0,0,0,0,1,0,0V12.26A0,0,0,0,1,35.78,12.26Z" transform="translate(73.69 29.19) rotate(180)"/><path class="cls-1" d="M35.78,19.81H37.1a.81.81,0,0,1,.81.81v3.06a.81.81,0,0,1-.81.81H35.78a0,0,0,0,1,0,0V19.81A0,0,0,0,1,35.78,19.81Z" transform="translate(73.69 44.3) rotate(180)"/><rect class="cls-3" x="11.76" y="0.73" width="8.41" height="6.16" rx="1.17"/><rect class="cls-4" x="11.76" y="0.73" width="8.41" height="6.16" rx="1.17"/><rect class="cls-3" x="25.89" y="0.73" width="8.41" height="6.16" rx="1.17"/><rect class="cls-4" x="25.89" y="0.73" width="8.41" height="6.16" rx="1.17"/><rect class="cls-3" x="9.12" y="3.81" width="27.82" height="30.79" rx="3.42"/><rect class="cls-5" x="9" y="6.72" width="27.87" height="22.96"/><path class="cls-6" d="M9,23.59h1.31a.81.81,0,0,1,.81.81v3.06a.81.81,0,0,1-.81.81H9a0,0,0,0,1,0,0V23.59a0,0,0,0,1,0,0Z"/><path class="cls-6" d="M9,16h1.31a.81.81,0,0,1,.81.81V19.9a.81.81,0,0,1-.81.81H9a0,0,0,0,1,0,0V16A0,0,0,0,1,9,16Z"/><path class="cls-6" d="M9,8.48h1.31a.81.81,0,0,1,.81.81v3.06a.81.81,0,0,1-.81.81H9a0,0,0,0,1,0,0V8.48A0,0,0,0,1,9,8.48Z"/><path class="cls-6" d="M34.74,12.08h1.31a.81.81,0,0,1,.81.81V16a.81.81,0,0,1-.81.81H34.74a0,0,0,0,1,0,0V12.08A0,0,0,0,1,34.74,12.08Z" transform="translate(71.61 28.84) rotate(180)"/><path class="cls-6" d="M34.74,19.64h1.31a.81.81,0,0,1,.81.81v3.06a.81.81,0,0,1-.81.81H34.74a0,0,0,0,1,0,0V19.64A0,0,0,0,1,34.74,19.64Z" transform="translate(71.61 43.95) rotate(180)"/><rect class="cls-7" x="15" y="9.91" width="16.22" height="16.22" rx="8.11"/><rect class="cls-8" x="14.79" y="10.26" width="16.07" height="16.07" rx="8.04"/><rect class="cls-9" x="21.82" y="17.24" width="1.92" height="1.92" rx="0.96"/><path class="cls-9" d="M29.34,18.35a5.82,5.82,0,0,1-1.71,4,.5.5,0,0,1-.56.15.5.5,0,0,1-.34-.43.54.54,0,0,1,.17-.43A4.38,4.38,0,0,0,28,20a4.82,4.82,0,0,0-1.06-5.21.6.6,0,0,1-.19-.45.52.52,0,0,1,.88-.31A5.87,5.87,0,0,1,29,16.23,6.24,6.24,0,0,1,29.34,18.35Z"/><path class="cls-9" d="M27.52,18.27a4.54,4.54,0,0,1-1.3,3.12.51.51,0,1,1-.74-.7,3.56,3.56,0,0,0,0-5,.62.62,0,0,1-.2-.37.51.51,0,0,1,.87-.4,4.56,4.56,0,0,1,1.08,1.72A4.94,4.94,0,0,1,27.52,18.27Z"/><path class="cls-9" d="M25.79,18.11a3.28,3.28,0,0,1-.91,2.34.51.51,0,0,1-.74,0,.5.5,0,0,1,0-.73,2.21,2.21,0,0,0,0-3.08.57.57,0,0,1-.18-.36.5.5,0,0,1,.3-.49.51.51,0,0,1,.57.1,3.19,3.19,0,0,1,.88,1.68A4,4,0,0,1,25.79,18.11Z"/><path class="cls-9" d="M16.22,18a5.82,5.82,0,0,1,1.71-4,.5.5,0,0,1,.56-.14.46.46,0,0,1,.33.42.52.52,0,0,1-.17.44,4.67,4.67,0,0,0-1.08,1.66,4.84,4.84,0,0,0,1.07,5.21.57.57,0,0,1,.18.45.5.5,0,0,1-.33.44.48.48,0,0,1-.54-.13,5.87,5.87,0,0,1-1.4-2.22A6.21,6.21,0,0,1,16.22,18Z"/><path class="cls-9" d="M18,18.13A4.48,4.48,0,0,1,19.34,15a.51.51,0,0,1,.75-.06.52.52,0,0,1,0,.76,3.4,3.4,0,0,0-1,2.15,3.51,3.51,0,0,0,1,2.79.63.63,0,0,1,.21.37.51.51,0,0,1-.29.51.49.49,0,0,1-.59-.11A4.64,4.64,0,0,1,18,18.13Z"/><path class="cls-9" d="M19.77,18.29A3.26,3.26,0,0,1,20.68,16a.51.51,0,1,1,.74.7,2.18,2.18,0,0,0-.63,1.66,2.12,2.12,0,0,0,.61,1.41.53.53,0,0,1,.17.37.5.5,0,0,1-.86.38,3.12,3.12,0,0,1-.88-1.67A4.48,4.48,0,0,1,19.77,18.29Z"/><path class="cls-6" d="M22.28,2.43h.82a.68.68,0,0,1,.68.68V6a.68.68,0,0,1-.68.68h-.82a0,0,0,0,1,0,0V2.43A0,0,0,0,1,22.28,2.43Z" transform="translate(27.6 -18.47) rotate(90)"/><rect class="cls-4" x="9.12" y="3.81" width="27.82" height="30.79" rx="3.42"/><path class="cls-1" d="M44.2,7.09c.19.08.88-.41,1-1.17s-.58-1.44-1.06-1.85-.31-.54-.31-.54a.28.28,0,0,0-.24-.32.27.27,0,0,0-.32.23L42.7,7A1.48,1.48,0,0,0,42,6.8c-.63,0-1.11.44-1.09.9a1,1,0,0,0,1.17.78,1.11,1.11,0,0,0,1.06-.7l0-.08L43.59,5a1.51,1.51,0,0,1,.91,1C44.54,6.6,43.85,6.94,44.2,7.09Z"/><path class="cls-1" d="M5.87.08a.73.73,0,0,0-.63,0l-3,1.31a.75.75,0,0,0-.43.83l.64,2.87A1.43,1.43,0,0,0,1.59,5,1.27,1.27,0,0,0,.52,6.42a1.28,1.28,0,0,0,1.57.84A1.29,1.29,0,0,0,3.16,5.83L2.54,3.09,6,1.59l.57,2.57a1.46,1.46,0,0,0-.9-.07A1.26,1.26,0,0,0,4.59,5.51a1.27,1.27,0,0,0,1.57.84A1.27,1.27,0,0,0,7.22,4.92L6.25.58A.72.72,0,0,0,5.87.08Z"/><path class="cls-10" d="M43.64,7.09c.19.08.88-.41,1-1.17s-.58-1.44-1.06-1.85-.32-.54-.32-.54A.27.27,0,0,0,43,3.21a.28.28,0,0,0-.33.23L42.14,7a1.48,1.48,0,0,0-.71-.15c-.63,0-1.11.44-1.09.9a1,1,0,0,0,1.17.78,1.11,1.11,0,0,0,1.06-.7l0-.08L43,5a1.51,1.51,0,0,1,.91,1C44,6.6,43.29,6.94,43.64,7.09Z"/><path class="cls-10" d="M5.37.08a.73.73,0,0,0-.63,0l-3,1.31a.75.75,0,0,0-.43.83L2,5.07A1.43,1.43,0,0,0,1.09,5,1.27,1.27,0,0,0,0,6.42a1.28,1.28,0,0,0,1.57.84A1.29,1.29,0,0,0,2.66,5.83L2,3.09l3.44-1.5.57,2.57a1.46,1.46,0,0,0-.9-.07A1.26,1.26,0,0,0,4.09,5.51a1.27,1.27,0,0,0,1.57.84A1.27,1.27,0,0,0,6.72,4.92L5.75.58A.72.72,0,0,0,5.37.08Z"/><path class="cls-1" d="M7.81,44.84c-.43,1.5-2.8,2-4.16,1.27a2.26,2.26,0,0,1-.94-1A.64.64,0,0,1,3,44.17a.74.74,0,0,1,.85.33,1.67,1.67,0,0,0,.74.67c.88.3,1.89-.16,1.89-.93s-.38-.81-.94-1a9.19,9.19,0,0,1-1.94-.35,1.91,1.91,0,0,1-.4-3.08A2.79,2.79,0,0,1,5,39.3a3.36,3.36,0,0,1,2.14.56c.34.27.8,1,.29,1.26s-.77-.16-1-.36A2.14,2.14,0,0,0,5,40.46c-.58.07-1,.38-1,1,0,.43.49.57.88.62a7.53,7.53,0,0,1,1.77.29A1.9,1.9,0,0,1,7.8,43.51,2.41,2.41,0,0,1,7.81,44.84Z"/><path class="cls-1" d="M13.93,41.77a1.62,1.62,0,0,1-1,1.43,4.85,4.85,0,0,1-1.64.35l-.69,0h-.27v2.07c0,.25,0,.55-.31.7a1,1,0,0,1-.56.06A.45.45,0,0,1,9,46.16a1.14,1.14,0,0,1-.11-.49V40.14a1.9,1.9,0,0,1,0-.25L9,39.67a.46.46,0,0,1,.11-.16.7.7,0,0,1,.47-.13h0a11.89,11.89,0,0,1,1.32,0l.49,0,.47.06.37,0a1,1,0,0,1,.34.12,1.22,1.22,0,0,1,.35.14l.29.2A2.27,2.27,0,0,1,13.93,41.77Zm-2.59-1.16-.78,0h-.28c0,.41,0,.77,0,1.21,0,.24,0,.48,0,.71h.62c.64,0,1.66-.11,1.73-.86S12,40.69,11.34,40.61Z"/><path class="cls-1" d="M16.13,40.54l0,1.57h2.34a2.11,2.11,0,0,1,.45.09.62.62,0,0,1,.28.18.46.46,0,0,1,.1.29.9.9,0,0,1,0,.23.31.31,0,0,1-.13.2.35.35,0,0,1-.19.1l-.26,0a1.27,1.27,0,0,1-.28,0H16.09l0,2,2,0h.75l.27.05a.75.75,0,0,1,.2.11.43.43,0,0,1,.13.21.77.77,0,0,1,0,.22.45.45,0,0,1-.1.29.55.55,0,0,1-.28.18,1.14,1.14,0,0,1-.46.09l-.46,0H15.45a.61.61,0,0,1-.38-.08.4.4,0,0,1-.17-.19.11.11,0,0,1,0-.06l0-.06a.78.78,0,0,1,0-.21l0-.2v-.16c0-.05,0-.11,0-.16v-.78l0-1.44V41.78c0-.48,0-.81,0-1.25v-.05c0-.14,0-.27,0-.4a1,1,0,0,1,.11-.39.43.43,0,0,1,.21-.23.5.5,0,0,1,.31-.1.23.23,0,0,1,.12,0v0h2.6c.14,0,.3,0,.45,0a1.63,1.63,0,0,1,.44.08.57.57,0,0,1,.28.17.49.49,0,0,1,.09.28.75.75,0,0,1,0,.22.35.35,0,0,1-.12.21,1.09,1.09,0,0,1-.19.1l-.25,0a1.42,1.42,0,0,1-.29,0H16.13Z"/><path class="cls-1" d="M26.43,46a.36.36,0,0,1-.07.22.49.49,0,0,1-.2.17.76.76,0,0,1-.53.1.6.6,0,0,1-.25-.13l-.05-.05s0,0,0,0a1.15,1.15,0,0,1-.14-.19l-.1-.19a.51.51,0,0,1-.07-.15,1,1,0,0,1,0-.16l-.21-.49H22l-.21.49c0,.05,0,.11-.05.16a1,1,0,0,1-.07.15l-.11.19a.72.72,0,0,1-.13.19s0,0,0,0l-.05.05a.6.6,0,0,1-.25.13.76.76,0,0,1-.53-.1.49.49,0,0,1-.2-.17.36.36,0,0,1-.07-.22,1.79,1.79,0,0,1,0-.24,1,1,0,0,1,.05-.18l0-.09,2.08-5.12.06-.16c0-.08.07-.14.1-.23a1.2,1.2,0,0,1,.11-.23c0-.08.1-.14.14-.21a.64.64,0,0,1,.17-.13,1.23,1.23,0,0,1,.66,0,.86.86,0,0,1,.17.13c0,.07.09.13.14.21a1.2,1.2,0,0,1,.11.23c0,.09.07.15.1.23l.06.16,2.08,5.12,0,.09a1,1,0,0,1,.05.18A1.79,1.79,0,0,1,26.43,46ZM24,43.29l-.54-1.23a3,3,0,0,1-.16-.37c0,.12-.11.25-.16.37l-.55,1.23-.17.44h1.76Z"/><path class="cls-1" d="M32.08,46a.41.41,0,0,1-.17.24.9.9,0,0,1-.22.14.45.45,0,0,1-.26,0,.44.44,0,0,1-.21-.07L31,46.21a1.9,1.9,0,0,1-.2-.18,1.62,1.62,0,0,0-.17-.19l-.12-.13-1.91-2,0,2v.09a1.35,1.35,0,0,1,0,.18,2,2,0,0,1-.07.23.4.4,0,0,1-.13.18.47.47,0,0,1-.26.11.69.69,0,0,1-.53,0,.51.51,0,0,1-.18-.2l0,0a.25.25,0,0,0,0-.07.41.41,0,0,1-.06-.2l0-.22a.86.86,0,0,1,0-.16,1,1,0,0,0,0-.17V43.13q0-.65,0-1.38c0-.48,0-.81,0-1.27v0c0-.14,0-.29,0-.42a.86.86,0,0,1,.09-.39.47.47,0,0,1,.21-.25.85.85,0,0,1,.32-.09l.26,0a.52.52,0,0,1,.24.11.35.35,0,0,1,.1.17.52.52,0,0,1,.07.23,2,2,0,0,1,0,.25V41.7c.21-.19.42-.39.62-.61.36-.37.71-.73,1.07-1.07l0,0,.32-.3a.78.78,0,0,1,.37-.23.54.54,0,0,1,.33-.08.61.61,0,0,1,.31.12,1,1,0,0,1,.18.17.32.32,0,0,1,.1.21.48.48,0,0,1,0,.2,2.26,2.26,0,0,1-.13.2,1.24,1.24,0,0,1-.18.21,1.45,1.45,0,0,1-.17.18l-.13.13-1.86,1.91,1.13,1.15c.35.37.68.74,1,1.11l0,0a4.09,4.09,0,0,1,.28.33.91.91,0,0,1,.21.37A.32.32,0,0,1,32.08,46Z"/><path class="cls-1" d="M34.3,40.54l0,1.57h2.34a2.11,2.11,0,0,1,.45.09.62.62,0,0,1,.28.18.46.46,0,0,1,.1.29.9.9,0,0,1,0,.23.31.31,0,0,1-.13.2.35.35,0,0,1-.19.1l-.26,0a1.27,1.27,0,0,1-.28,0H34.26l0,2,2,0H37l.27.05a.75.75,0,0,1,.2.11.43.43,0,0,1,.13.21.77.77,0,0,1,0,.22.45.45,0,0,1-.1.29.55.55,0,0,1-.28.18,1.14,1.14,0,0,1-.46.09l-.46,0H33.62a.61.61,0,0,1-.38-.08.4.4,0,0,1-.17-.19.11.11,0,0,1,0-.06l0-.06a.78.78,0,0,1,0-.21l0-.2v-.16c0-.05,0-.11,0-.16v-.78l0-1.44V41.78c0-.48,0-.81,0-1.25v-.05c0-.14,0-.27,0-.4a1,1,0,0,1,.11-.39.43.43,0,0,1,.21-.23.5.5,0,0,1,.31-.1.23.23,0,0,1,.12,0v0h2.59c.15,0,.31,0,.46,0a1.63,1.63,0,0,1,.44.08.57.57,0,0,1,.28.17.49.49,0,0,1,.09.28.75.75,0,0,1,0,.22.35.35,0,0,1-.12.21,1.09,1.09,0,0,1-.19.1l-.25,0a1.42,1.42,0,0,1-.29,0H34.3Z"/><path class="cls-1" d="M43.55,46.17a.42.42,0,0,1-.14.18,1.13,1.13,0,0,1-.22.11.65.65,0,0,1-.31,0,.47.47,0,0,1-.28-.12,1.36,1.36,0,0,1-.28-.31l-.22-.39L41,43.56l-.32,0c-.28,0-.52,0-.78,0h-.19V45.4c0,.1,0,.19,0,.3s0,.19,0,.28a.61.61,0,0,1-.28.42.68.68,0,0,1-.51.07.69.69,0,0,1-.25-.1.52.52,0,0,1-.12-.17c0-.07-.05-.15-.07-.21a.63.63,0,0,1,0-.19V40.12a1.79,1.79,0,0,1,0-.24.71.71,0,0,1,.07-.22.32.32,0,0,1,.1-.17.75.75,0,0,1,.55-.14c.59,0,1.19,0,1.77,0a4.23,4.23,0,0,1,1.21.22l.33.14a1.21,1.21,0,0,1,.3.21,2.32,2.32,0,0,1,.71,1.68,1.69,1.69,0,0,1-1.07,1.66l-.11,0,.92,1.85.09.16.1.19c0,.07.07.15.11.22s0,.17,0,.23A.39.39,0,0,1,43.55,46.17Zm-2.47-3.75a1,1,0,0,0,1-.81c.05-.66-.4-1-1-1-.39,0-.88,0-1.29,0,0,.55,0,1.07,0,1.84Z"/><path class="cls-10" d="M6.81,44.84c-.43,1.5-2.8,2-4.16,1.27a2.26,2.26,0,0,1-.94-1A.64.64,0,0,1,2,44.17a.74.74,0,0,1,.85.33,1.64,1.64,0,0,0,.75.67c.88.3,1.89-.16,1.89-.93s-.38-.81-1-1a9.19,9.19,0,0,1-1.94-.35,1.91,1.91,0,0,1-.4-3.08A2.79,2.79,0,0,1,4,39.3a3.33,3.33,0,0,1,2.14.56c.34.27.8,1,.3,1.26s-.77-.16-1-.36A2.17,2.17,0,0,0,4,40.46c-.58.07-1,.38-1,1,0,.43.49.57.88.62a7.69,7.69,0,0,1,1.78.29A1.91,1.91,0,0,1,6.8,43.51,2.41,2.41,0,0,1,6.81,44.84Z"/><path class="cls-10" d="M12.93,41.77a1.62,1.62,0,0,1-1,1.43,4.9,4.9,0,0,1-1.65.35l-.69,0H9.28v2.07c0,.25,0,.55-.31.7a1,1,0,0,1-.56.06A.45.45,0,0,1,8,46.16a1.14,1.14,0,0,1-.11-.49V40.14a1.9,1.9,0,0,1,0-.25L8,39.67a.46.46,0,0,1,.11-.16.7.7,0,0,1,.47-.13h0a11.89,11.89,0,0,1,1.32,0l.49,0,.48.06.36,0a1,1,0,0,1,.35.12,1.22,1.22,0,0,1,.35.14l.29.2A2.26,2.26,0,0,1,12.93,41.77Zm-2.59-1.16-.78,0H9.28c0,.41,0,.77,0,1.21,0,.24,0,.48,0,.71H9.9c.64,0,1.67-.11,1.74-.86S11,40.69,10.34,40.61Z"/><path class="cls-10" d="M15.13,40.54l0,1.57h2.35a2.24,2.24,0,0,1,.45.09.59.59,0,0,1,.27.18.42.42,0,0,1,.11.29.61.61,0,0,1,0,.23.25.25,0,0,1-.13.2.35.35,0,0,1-.18.1,1.46,1.46,0,0,1-.27,0,1.18,1.18,0,0,1-.27,0H15.09l0,2,2,0h.74l.28.05a.68.68,0,0,1,.19.11.43.43,0,0,1,.13.21.52.52,0,0,1,0,.22.46.46,0,0,1-.11.29.48.48,0,0,1-.27.18,1.18,1.18,0,0,1-.46.09l-.46,0H14.45a.61.61,0,0,1-.38-.08.4.4,0,0,1-.17-.19.11.11,0,0,1,0-.06l0-.06a.78.78,0,0,1,0-.21l0-.2v-.16c0-.05,0-.11,0-.16v-.78l0-1.44V41.78c0-.48,0-.81,0-1.25v-.05c0-.14,0-.27,0-.4a1,1,0,0,1,.11-.39.43.43,0,0,1,.21-.23.5.5,0,0,1,.31-.1.23.23,0,0,1,.12,0v0h2.6c.15,0,.31,0,.45,0a1.7,1.7,0,0,1,.45.08.55.55,0,0,1,.27.17.43.43,0,0,1,.09.28,1.48,1.48,0,0,1,0,.22.32.32,0,0,1-.13.21l-.18.1-.25,0a1.46,1.46,0,0,1-.29,0H15.13Z"/><path class="cls-10" d="M25.43,46a.36.36,0,0,1-.07.22.49.49,0,0,1-.2.17.76.76,0,0,1-.53.1.67.67,0,0,1-.25-.13s0,0,0-.05l-.06,0a1.15,1.15,0,0,1-.14-.19,1.07,1.07,0,0,0-.09-.19.37.37,0,0,1-.08-.15.94.94,0,0,1,0-.16l-.21-.49H21l-.21.49c0,.05,0,.11-.05.16a1,1,0,0,1-.07.15l-.11.19a.72.72,0,0,1-.13.19s0,0,0,0l-.05.05a.6.6,0,0,1-.25.13.76.76,0,0,1-.53-.1.49.49,0,0,1-.2-.17.36.36,0,0,1-.07-.22,1.79,1.79,0,0,1,0-.24,1,1,0,0,1,.05-.18l0-.09,2.08-5.12.06-.16c0-.08.07-.14.1-.23a1.2,1.2,0,0,1,.11-.23,1.59,1.59,0,0,1,.15-.21.52.52,0,0,1,.17-.13,1.2,1.2,0,0,1,.65,0,.52.52,0,0,1,.17.13c.05.07.1.13.15.21a1.2,1.2,0,0,1,.11.23c0,.09.07.15.1.23l.06.16,2.07,5.12,0,.09a1,1,0,0,1,.05.18A1.79,1.79,0,0,1,25.43,46Zm-2.38-2.69c-.17-.38-.35-.8-.55-1.23l-.16-.37c0,.12-.1.25-.15.37-.2.43-.38.85-.55,1.23l-.18.44h1.77Z"/><path class="cls-10" d="M31.09,46a.46.46,0,0,1-.17.24.9.9,0,0,1-.22.14.45.45,0,0,1-.26,0,.4.4,0,0,1-.21-.07L30,46.21a1.9,1.9,0,0,1-.2-.18l-.17-.19-.12-.13-1.92-2,0,2v.09a1.35,1.35,0,0,1,0,.18,2,2,0,0,1-.07.23.4.4,0,0,1-.13.18.47.47,0,0,1-.26.11.69.69,0,0,1-.53,0,.51.51,0,0,1-.18-.2l0,0a.25.25,0,0,0,0-.07.41.41,0,0,1-.06-.2l0-.22a.86.86,0,0,1,0-.16,1,1,0,0,0,0-.17V43.13q0-.65,0-1.38c0-.48,0-.81,0-1.27v0c0-.14,0-.29,0-.42a.86.86,0,0,1,.09-.39.47.47,0,0,1,.21-.25.85.85,0,0,1,.32-.09l.26,0a.52.52,0,0,1,.24.11.35.35,0,0,1,.1.17.52.52,0,0,1,.07.23,2,2,0,0,1,0,.25V41.7c.21-.19.42-.39.62-.61.36-.37.71-.73,1.07-1.07l0,0,.33-.3a.78.78,0,0,1,.37-.23.54.54,0,0,1,.33-.08.65.65,0,0,1,.31.12,1,1,0,0,1,.18.17.32.32,0,0,1,.1.21.48.48,0,0,1,0,.2,2.26,2.26,0,0,1-.13.2,1.24,1.24,0,0,1-.18.21c-.05.07-.12.12-.17.18l-.13.13-1.87,1.91,1.13,1.15c.36.37.69.74,1,1.11l0,0a4.09,4.09,0,0,1,.28.33.91.91,0,0,1,.21.37A.35.35,0,0,1,31.09,46Z"/><path class="cls-10" d="M33.3,40.54l0,1.57h2.35a2.24,2.24,0,0,1,.45.09.59.59,0,0,1,.27.18.42.42,0,0,1,.11.29.61.61,0,0,1,0,.23.27.27,0,0,1-.13.2.35.35,0,0,1-.18.1,1.46,1.46,0,0,1-.27,0,1.18,1.18,0,0,1-.27,0H33.26l0,2,2,0H36l.28.05a.68.68,0,0,1,.19.11.43.43,0,0,1,.13.21.75.75,0,0,1,0,.22.46.46,0,0,1-.11.29.48.48,0,0,1-.27.18,1.18,1.18,0,0,1-.46.09l-.46,0H32.62a.61.61,0,0,1-.38-.08.4.4,0,0,1-.17-.19.11.11,0,0,1,0-.06l0-.06a.78.78,0,0,1,0-.21l0-.2v-.16c0-.05,0-.11,0-.16v-.78l0-1.44V41.78c0-.48,0-.81,0-1.25v-.05c0-.14,0-.27,0-.4a1,1,0,0,1,.11-.39.43.43,0,0,1,.21-.23.5.5,0,0,1,.31-.1.23.23,0,0,1,.12,0v0h2.6c.15,0,.31,0,.45,0a1.7,1.7,0,0,1,.45.08.55.55,0,0,1,.27.17.43.43,0,0,1,.09.28.75.75,0,0,1,0,.22.27.27,0,0,1-.12.21l-.18.1-.25,0a1.52,1.52,0,0,1-.29,0H33.3Z"/><path class="cls-10" d="M42.55,46.17a.49.49,0,0,1-.13.18l-.23.11a.63.63,0,0,1-.31,0,.45.45,0,0,1-.27-.12,1.36,1.36,0,0,1-.28-.31c-.06-.11-.15-.24-.22-.39L40,43.56l-.32,0c-.28,0-.52,0-.78,0h-.19V45.4c0,.1,0,.19,0,.3s0,.19,0,.28a.61.61,0,0,1-.28.42.68.68,0,0,1-.51.07.69.69,0,0,1-.25-.1.52.52,0,0,1-.12-.17c0-.07-.05-.15-.07-.21a.63.63,0,0,1,0-.19V40.12a1.79,1.79,0,0,1,0-.24.71.71,0,0,1,.07-.22.32.32,0,0,1,.1-.17.75.75,0,0,1,.55-.14c.59,0,1.19,0,1.77,0a4.23,4.23,0,0,1,1.22.22l.33.14a1.21,1.21,0,0,1,.3.21,2.35,2.35,0,0,1,.7,1.68,1.69,1.69,0,0,1-1.06,1.66l-.11,0,.91,1.85.09.16.11.19a2.14,2.14,0,0,0,.1.22,1.2,1.2,0,0,1,0,.23A.3.3,0,0,1,42.55,46.17Zm-2.47-3.75a1,1,0,0,0,1-.81c.05-.66-.4-1-1-1-.39,0-.88,0-1.29,0,0,.55,0,1.07,0,1.84Z"/></g></g></svg>