<svg xmlns="http://www.w3.org/2000/svg" width="85" height="66" viewBox="-24 -11 76 59"><defs><style>.cls-1{fill:#9a1f93;}.cls-2{fill:#fff;}</style></defs><title>start</title><g id="레이어_2" data-name="레이어 2"><g id="레이어_1-2" data-name="레이어 1"><path class="cls-1" d="M2.29,15.49v-12a3.5,3.5,0,0,1,5.26-3l10.37,6,9,5.19a4.43,4.43,0,0,1,0,7.67l-9,5.19-10.37,6a3.5,3.5,0,0,1-5.26-3Z"/><path class="cls-2" d="M1.19,15.49v-12a3.5,3.5,0,0,1,5.26-3l10.37,6,9,5.19a4.42,4.42,0,0,1,0,7.67l-9,5.19-10.37,6a3.5,3.5,0,0,1-5.26-3Z"/><path class="cls-1" d="M6.18,41.24c-.43,1.5-2.81,2-4.17,1.27a2.26,2.26,0,0,1-.94-1,.64.64,0,0,1,.33-.92.74.74,0,0,1,.85.33,1.64,1.64,0,0,0,.75.67c.88.3,1.89-.16,1.89-.93s-.38-.81-.95-1A9.19,9.19,0,0,1,2,39.34a1.91,1.91,0,0,1-.4-3.08,2.74,2.74,0,0,1,1.75-.56,3.37,3.37,0,0,1,2.15.56c.34.27.8,1,.29,1.26s-.77-.16-1-.36a2.17,2.17,0,0,0-1.42-.3c-.58.07-1,.38-1,1,0,.43.49.57.88.62A7.69,7.69,0,0,1,5,38.75a1.9,1.9,0,0,1,1.19,1.16A2.41,2.41,0,0,1,6.18,41.24Z"/><path class="cls-1" d="M12.3,36.32a1.79,1.79,0,0,1,0,.24.48.48,0,0,1-.13.21.73.73,0,0,1-.22.09,2.11,2.11,0,0,1-.29.06h-1.5c0,.82,0,1.82,0,4v.76a.71.71,0,0,0,0,.15.92.92,0,0,1,0,.16q0,.09,0,.21a.72.72,0,0,1,0,.19s0,0,0,.06l0,.06a.5.5,0,0,1-.19.19.73.73,0,0,1-.49,0,.47.47,0,0,1-.26-.09.55.55,0,0,1-.13-.18.65.65,0,0,1-.07-.21.68.68,0,0,1,0-.19V37c-.16,0-1.14,0-1.32,0a3.24,3.24,0,0,1-.39-.07.63.63,0,0,1-.33-.19.44.44,0,0,1-.11-.29.86.86,0,0,1,0-.23.37.37,0,0,1,.16-.2,1,1,0,0,1,.29-.14,1.22,1.22,0,0,1,.3-.06H9.1c.77,0,1.54,0,2.3,0a1.38,1.38,0,0,1,.49.1.62.62,0,0,1,.3.19A.4.4,0,0,1,12.3,36.32Z"/><path class="cls-1" d="M18,42.38a.36.36,0,0,1-.07.22.49.49,0,0,1-.2.17.76.76,0,0,1-.53.1.6.6,0,0,1-.25-.13s0,0-.05-.05l-.05,0a1.15,1.15,0,0,1-.14-.19l-.1-.19a.51.51,0,0,1-.07-.15,1,1,0,0,1-.05-.16l-.21-.49H13.52l-.21.49s0,.11-.05.16a1,1,0,0,1-.07.15l-.11.19a.72.72,0,0,1-.13.19l0,0s0,0-.05.05a.6.6,0,0,1-.25.13.76.76,0,0,1-.53-.1.49.49,0,0,1-.2-.17.36.36,0,0,1-.07-.22,1.79,1.79,0,0,1,0-.24,1,1,0,0,1,0-.18.78.78,0,0,0,0-.09L14,36.75l.06-.16c0-.08.07-.14.1-.23a1.2,1.2,0,0,1,.11-.23,1.13,1.13,0,0,1,.15-.21.52.52,0,0,1,.17-.13,1,1,0,0,1,.65,0,.52.52,0,0,1,.17.13,1.91,1.91,0,0,1,.15.21,1.2,1.2,0,0,1,.11.23c0,.09.07.15.1.23l.06.16,2.08,5.12a.78.78,0,0,0,0,.09,1,1,0,0,1,0,.18A1.79,1.79,0,0,1,18,42.38ZM15.6,39.69c-.17-.38-.35-.8-.55-1.23l-.16-.37c0,.12-.1.25-.15.37-.2.43-.38.85-.55,1.23l-.18.44h1.77Z"/><path class="cls-1" d="M23.93,42.57a.42.42,0,0,1-.14.18l-.22.11a.65.65,0,0,1-.31,0,.47.47,0,0,1-.28-.12,1.36,1.36,0,0,1-.28-.31c-.06-.11-.15-.24-.22-.39L21.37,40l-.32,0c-.28,0-.52,0-.78,0h-.19V41.8c0,.1,0,.19,0,.3s0,.19,0,.28a.61.61,0,0,1-.28.42.68.68,0,0,1-.51.07.69.69,0,0,1-.25-.1.52.52,0,0,1-.12-.17c0-.07-.05-.15-.07-.21a.63.63,0,0,1,0-.19V36.52a1.79,1.79,0,0,1,0-.24.71.71,0,0,1,.07-.22.32.32,0,0,1,.1-.17.71.71,0,0,1,.55-.14c.59,0,1.19,0,1.77,0a3.92,3.92,0,0,1,1.22.22l.33.14a1.21,1.21,0,0,1,.3.21A2.32,2.32,0,0,1,23.86,38a1.69,1.69,0,0,1-1.07,1.66l-.11,0,.92,1.85.09.16.1.19.11.22c0,.08,0,.17.05.23A.39.39,0,0,1,23.93,42.57Zm-2.48-3.75a1,1,0,0,0,1-.81c0-.66-.4-1-1.05-1-.39,0-.88,0-1.29,0,0,.55,0,1.07,0,1.84Z"/><path class="cls-1" d="M29.74,36.32a1.79,1.79,0,0,1,0,.24.48.48,0,0,1-.13.21.73.73,0,0,1-.22.09,2.11,2.11,0,0,1-.29.06h-1.5c0,.82,0,1.82,0,4v.76a.71.71,0,0,0,0,.15.92.92,0,0,1,0,.16q0,.09,0,.21a.72.72,0,0,1,0,.19s0,0,0,.06l0,.06a.5.5,0,0,1-.19.19.73.73,0,0,1-.49,0,.47.47,0,0,1-.26-.09.55.55,0,0,1-.13-.18.65.65,0,0,1-.07-.21.68.68,0,0,1,0-.19V37c-.16,0-1.14,0-1.32,0a3.24,3.24,0,0,1-.39-.07.63.63,0,0,1-.33-.19.44.44,0,0,1-.11-.29.86.86,0,0,1,0-.23.37.37,0,0,1,.16-.2,1,1,0,0,1,.29-.14,1.22,1.22,0,0,1,.3-.06h1.66c.77,0,1.54,0,2.3,0a1.38,1.38,0,0,1,.49.1.62.62,0,0,1,.3.19A.4.4,0,0,1,29.74,36.32Z"/><path class="cls-2" d="M5.18,41.24c-.43,1.5-2.81,2-4.17,1.27a2.26,2.26,0,0,1-.94-1,.64.64,0,0,1,.33-.92.74.74,0,0,1,.85.33,1.64,1.64,0,0,0,.75.67c.88.3,1.89-.16,1.89-.93s-.38-.81-1-1A9.19,9.19,0,0,1,1,39.34a1.91,1.91,0,0,1-.4-3.08,2.74,2.74,0,0,1,1.75-.56,3.37,3.37,0,0,1,2.15.56c.34.27.8,1,.29,1.26s-.77-.16-1-.36a2.17,2.17,0,0,0-1.42-.3c-.58.07-1,.38-1,1,0,.43.49.57.88.62A7.69,7.69,0,0,1,4,38.75a1.9,1.9,0,0,1,1.19,1.16A2.41,2.41,0,0,1,5.18,41.24Z"/><path class="cls-2" d="M11.3,36.32a1.79,1.79,0,0,1,0,.24.48.48,0,0,1-.13.21.73.73,0,0,1-.22.09,2.11,2.11,0,0,1-.29.06H9.14c0,.82,0,1.82,0,4v.76a.71.71,0,0,0,0,.15.92.92,0,0,1,0,.16q0,.09,0,.21a.72.72,0,0,1,0,.19s0,0,0,.06l0,.06a.5.5,0,0,1-.19.19.73.73,0,0,1-.49,0,.47.47,0,0,1-.26-.09.55.55,0,0,1-.13-.18.65.65,0,0,1-.07-.21.68.68,0,0,1,0-.19V37c-.16,0-1.14,0-1.32,0a3.24,3.24,0,0,1-.39-.07.63.63,0,0,1-.33-.19.44.44,0,0,1-.11-.29.86.86,0,0,1,0-.23.37.37,0,0,1,.16-.2,1,1,0,0,1,.29-.14,1.22,1.22,0,0,1,.3-.06H8.1c.77,0,1.54,0,2.3,0a1.38,1.38,0,0,1,.49.1.62.62,0,0,1,.3.19A.4.4,0,0,1,11.3,36.32Z"/><path class="cls-2" d="M17,42.38a.36.36,0,0,1-.07.22.49.49,0,0,1-.2.17.76.76,0,0,1-.53.1.6.6,0,0,1-.25-.13s0,0,0-.05l-.05,0a1.15,1.15,0,0,1-.14-.19l-.1-.19a.51.51,0,0,1-.07-.15,1,1,0,0,1,0-.16l-.21-.49H12.52l-.21.49s0,.11-.05.16a1,1,0,0,1-.07.15l-.11.19a.72.72,0,0,1-.13.19l0,0s0,0-.05.05a.6.6,0,0,1-.25.13.76.76,0,0,1-.53-.1.49.49,0,0,1-.2-.17.36.36,0,0,1-.07-.22,1.79,1.79,0,0,1,0-.24,1,1,0,0,1,0-.18.78.78,0,0,0,0-.09L13,36.75l.06-.16c0-.08.07-.14.1-.23a1.2,1.2,0,0,1,.11-.23,1.13,1.13,0,0,1,.15-.21.52.52,0,0,1,.17-.13,1,1,0,0,1,.65,0,.52.52,0,0,1,.17.13,1.91,1.91,0,0,1,.15.21,1.2,1.2,0,0,1,.11.23c0,.09.07.15.1.23l.06.16,2.08,5.12a.78.78,0,0,0,0,.09,1,1,0,0,1,0,.18A1.79,1.79,0,0,1,17,42.38ZM14.6,39.69c-.17-.38-.35-.8-.55-1.23l-.16-.37c0,.12-.1.25-.15.37-.2.43-.38.85-.55,1.23l-.18.44h1.77Z"/><path class="cls-2" d="M22.93,42.57a.42.42,0,0,1-.14.18l-.22.11a.65.65,0,0,1-.31,0,.47.47,0,0,1-.28-.12,1.36,1.36,0,0,1-.28-.31c-.06-.11-.15-.24-.22-.39L20.37,40l-.32,0c-.28,0-.52,0-.78,0h-.19V41.8c0,.1,0,.19,0,.3s0,.19,0,.28a.61.61,0,0,1-.28.42.68.68,0,0,1-.51.07.69.69,0,0,1-.25-.1.52.52,0,0,1-.12-.17c0-.07-.05-.15-.07-.21a.63.63,0,0,1,0-.19V36.52a1.79,1.79,0,0,1,0-.24.71.71,0,0,1,.07-.22.32.32,0,0,1,.1-.17.71.71,0,0,1,.55-.14c.59,0,1.19,0,1.77,0a3.92,3.92,0,0,1,1.22.22l.33.14a1.21,1.21,0,0,1,.3.21A2.32,2.32,0,0,1,22.86,38a1.69,1.69,0,0,1-1.07,1.66l-.11,0,.92,1.85.09.16.1.19.11.22c0,.08,0,.17.05.23A.39.39,0,0,1,22.93,42.57Zm-2.48-3.75a1,1,0,0,0,1-.81c0-.66-.4-1-1.05-1-.39,0-.88,0-1.29,0,0,.55,0,1.07,0,1.84Z"/><path class="cls-2" d="M28.74,36.32a1.79,1.79,0,0,1,0,.24.48.48,0,0,1-.13.21.73.73,0,0,1-.22.09,2.11,2.11,0,0,1-.29.06h-1.5c0,.82,0,1.82,0,4v.76a.71.71,0,0,0,0,.15.92.92,0,0,1,0,.16q0,.09,0,.21a.72.72,0,0,1,0,.19s0,0,0,.06l0,.06a.5.5,0,0,1-.19.19.73.73,0,0,1-.49,0,.47.47,0,0,1-.26-.09.55.55,0,0,1-.13-.18.65.65,0,0,1-.07-.21.68.68,0,0,1,0-.19V37c-.16,0-1.14,0-1.32,0a3.24,3.24,0,0,1-.39-.07.63.63,0,0,1-.33-.19.44.44,0,0,1-.11-.29.86.86,0,0,1,0-.23.37.37,0,0,1,.16-.2,1,1,0,0,1,.29-.14,1.22,1.22,0,0,1,.3-.06h1.66c.77,0,1.54,0,2.3,0a1.38,1.38,0,0,1,.49.1.62.62,0,0,1,.3.19A.4.4,0,0,1,28.74,36.32Z"/><path class="cls-1" d="M2.29,15.49v-12a3.5,3.5,0,0,1,5.26-3l10.37,6,9,5.19a4.43,4.43,0,0,1,0,7.67l-9,5.19-10.37,6a3.5,3.5,0,0,1-5.26-3Z"/><path class="cls-2" d="M1.19,15.49v-12a3.5,3.5,0,0,1,5.26-3l10.37,6,9,5.19a4.42,4.42,0,0,1,0,7.67l-9,5.19-10.37,6a3.5,3.5,0,0,1-5.26-3Z"/><path class="cls-1" d="M6.18,41.24c-.43,1.5-2.81,2-4.17,1.27a2.26,2.26,0,0,1-.94-1,.64.64,0,0,1,.33-.92.74.74,0,0,1,.85.33,1.64,1.64,0,0,0,.75.67c.88.3,1.89-.16,1.89-.93s-.38-.81-.95-1A9.19,9.19,0,0,1,2,39.34a1.91,1.91,0,0,1-.4-3.08,2.74,2.74,0,0,1,1.75-.56,3.37,3.37,0,0,1,2.15.56c.34.27.8,1,.29,1.26s-.77-.16-1-.36a2.17,2.17,0,0,0-1.42-.3c-.58.07-1,.38-1,1,0,.43.49.57.88.62A7.69,7.69,0,0,1,5,38.75a1.9,1.9,0,0,1,1.19,1.16A2.41,2.41,0,0,1,6.18,41.24Z"/><path class="cls-1" d="M12.3,36.32a1.79,1.79,0,0,1,0,.24.48.48,0,0,1-.13.21.73.73,0,0,1-.22.09,2.11,2.11,0,0,1-.29.06h-1.5c0,.82,0,1.82,0,4v.76a.71.71,0,0,0,0,.15.92.92,0,0,1,0,.16q0,.09,0,.21a.72.72,0,0,1,0,.19s0,0,0,.06l0,.06a.5.5,0,0,1-.19.19.73.73,0,0,1-.49,0,.47.47,0,0,1-.26-.09.55.55,0,0,1-.13-.18.65.65,0,0,1-.07-.21.68.68,0,0,1,0-.19V37c-.16,0-1.14,0-1.32,0a3.24,3.24,0,0,1-.39-.07.63.63,0,0,1-.33-.19.44.44,0,0,1-.11-.29.86.86,0,0,1,0-.23.37.37,0,0,1,.16-.2,1,1,0,0,1,.29-.14,1.22,1.22,0,0,1,.3-.06H9.1c.77,0,1.54,0,2.3,0a1.38,1.38,0,0,1,.49.1.62.62,0,0,1,.3.19A.4.4,0,0,1,12.3,36.32Z"/><path class="cls-1" d="M18,42.38a.36.36,0,0,1-.07.22.49.49,0,0,1-.2.17.76.76,0,0,1-.53.1.6.6,0,0,1-.25-.13s0,0-.05-.05l-.05,0a1.15,1.15,0,0,1-.14-.19l-.1-.19a.51.51,0,0,1-.07-.15,1,1,0,0,1-.05-.16l-.21-.49H13.52l-.21.49s0,.11-.05.16a1,1,0,0,1-.07.15l-.11.19a.72.72,0,0,1-.13.19l0,0s0,0-.05.05a.6.6,0,0,1-.25.13.76.76,0,0,1-.53-.1.49.49,0,0,1-.2-.17.36.36,0,0,1-.07-.22,1.79,1.79,0,0,1,0-.24,1,1,0,0,1,0-.18.78.78,0,0,0,0-.09L14,36.75l.06-.16c0-.08.07-.14.1-.23a1.2,1.2,0,0,1,.11-.23,1.13,1.13,0,0,1,.15-.21.52.52,0,0,1,.17-.13,1,1,0,0,1,.65,0,.52.52,0,0,1,.17.13,1.91,1.91,0,0,1,.15.21,1.2,1.2,0,0,1,.11.23c0,.09.07.15.1.23l.06.16,2.08,5.12a.78.78,0,0,0,0,.09,1,1,0,0,1,0,.18A1.79,1.79,0,0,1,18,42.38ZM15.6,39.69c-.17-.38-.35-.8-.55-1.23l-.16-.37c0,.12-.1.25-.15.37-.2.43-.38.85-.55,1.23l-.18.44h1.77Z"/><path class="cls-1" d="M23.93,42.57a.42.42,0,0,1-.14.18l-.22.11a.65.65,0,0,1-.31,0,.47.47,0,0,1-.28-.12,1.36,1.36,0,0,1-.28-.31c-.06-.11-.15-.24-.22-.39L21.37,40l-.32,0c-.28,0-.52,0-.78,0h-.19V41.8c0,.1,0,.19,0,.3s0,.19,0,.28a.61.61,0,0,1-.28.42.68.68,0,0,1-.51.07.69.69,0,0,1-.25-.1.52.52,0,0,1-.12-.17c0-.07-.05-.15-.07-.21a.63.63,0,0,1,0-.19V36.52a1.79,1.79,0,0,1,0-.24.71.71,0,0,1,.07-.22.32.32,0,0,1,.1-.17.71.71,0,0,1,.55-.14c.59,0,1.19,0,1.77,0a3.92,3.92,0,0,1,1.22.22l.33.14a1.21,1.21,0,0,1,.3.21A2.32,2.32,0,0,1,23.86,38a1.69,1.69,0,0,1-1.07,1.66l-.11,0,.92,1.85.09.16.1.19.11.22c0,.08,0,.17.05.23A.39.39,0,0,1,23.93,42.57Zm-2.48-3.75a1,1,0,0,0,1-.81c0-.66-.4-1-1.05-1-.39,0-.88,0-1.29,0,0,.55,0,1.07,0,1.84Z"/><path class="cls-1" d="M29.74,36.32a1.79,1.79,0,0,1,0,.24.48.48,0,0,1-.13.21.73.73,0,0,1-.22.09,2.11,2.11,0,0,1-.29.06h-1.5c0,.82,0,1.82,0,4v.76a.71.71,0,0,0,0,.15.92.92,0,0,1,0,.16q0,.09,0,.21a.72.72,0,0,1,0,.19s0,0,0,.06l0,.06a.5.5,0,0,1-.19.19.73.73,0,0,1-.49,0,.47.47,0,0,1-.26-.09.55.55,0,0,1-.13-.18.65.65,0,0,1-.07-.21.68.68,0,0,1,0-.19V37c-.16,0-1.14,0-1.32,0a3.24,3.24,0,0,1-.39-.07.63.63,0,0,1-.33-.19.44.44,0,0,1-.11-.29.86.86,0,0,1,0-.23.37.37,0,0,1,.16-.2,1,1,0,0,1,.29-.14,1.22,1.22,0,0,1,.3-.06h1.66c.77,0,1.54,0,2.3,0a1.38,1.38,0,0,1,.49.1.62.62,0,0,1,.3.19A.4.4,0,0,1,29.74,36.32Z"/><path class="cls-2" d="M5.18,41.24c-.43,1.5-2.81,2-4.17,1.27a2.26,2.26,0,0,1-.94-1,.64.64,0,0,1,.33-.92.74.74,0,0,1,.85.33,1.64,1.64,0,0,0,.75.67c.88.3,1.89-.16,1.89-.93s-.38-.81-1-1A9.19,9.19,0,0,1,1,39.34a1.91,1.91,0,0,1-.4-3.08,2.74,2.74,0,0,1,1.75-.56,3.37,3.37,0,0,1,2.15.56c.34.27.8,1,.29,1.26s-.77-.16-1-.36a2.17,2.17,0,0,0-1.42-.3c-.58.07-1,.38-1,1,0,.43.49.57.88.62A7.69,7.69,0,0,1,4,38.75a1.9,1.9,0,0,1,1.19,1.16A2.41,2.41,0,0,1,5.18,41.24Z"/><path class="cls-2" d="M11.3,36.32a1.79,1.79,0,0,1,0,.24.48.48,0,0,1-.13.21.73.73,0,0,1-.22.09,2.11,2.11,0,0,1-.29.06H9.14c0,.82,0,1.82,0,4v.76a.71.71,0,0,0,0,.15.92.92,0,0,1,0,.16q0,.09,0,.21a.72.72,0,0,1,0,.19s0,0,0,.06l0,.06a.5.5,0,0,1-.19.19.73.73,0,0,1-.49,0,.47.47,0,0,1-.26-.09.55.55,0,0,1-.13-.18.65.65,0,0,1-.07-.21.68.68,0,0,1,0-.19V37c-.16,0-1.14,0-1.32,0a3.24,3.24,0,0,1-.39-.07.63.63,0,0,1-.33-.19.44.44,0,0,1-.11-.29.86.86,0,0,1,0-.23.37.37,0,0,1,.16-.2,1,1,0,0,1,.29-.14,1.22,1.22,0,0,1,.3-.06H8.1c.77,0,1.54,0,2.3,0a1.38,1.38,0,0,1,.49.1.62.62,0,0,1,.3.19A.4.4,0,0,1,11.3,36.32Z"/><path class="cls-2" d="M17,42.38a.36.36,0,0,1-.07.22.49.49,0,0,1-.2.17.76.76,0,0,1-.53.1.6.6,0,0,1-.25-.13s0,0,0-.05l-.05,0a1.15,1.15,0,0,1-.14-.19l-.1-.19a.51.51,0,0,1-.07-.15,1,1,0,0,1,0-.16l-.21-.49H12.52l-.21.49s0,.11-.05.16a1,1,0,0,1-.07.15l-.11.19a.72.72,0,0,1-.13.19l0,0s0,0-.05.05a.6.6,0,0,1-.25.13.76.76,0,0,1-.53-.1.49.49,0,0,1-.2-.17.36.36,0,0,1-.07-.22,1.79,1.79,0,0,1,0-.24,1,1,0,0,1,0-.18.78.78,0,0,0,0-.09L13,36.75l.06-.16c0-.08.07-.14.1-.23a1.2,1.2,0,0,1,.11-.23,1.13,1.13,0,0,1,.15-.21.52.52,0,0,1,.17-.13,1,1,0,0,1,.65,0,.52.52,0,0,1,.17.13,1.91,1.91,0,0,1,.15.21,1.2,1.2,0,0,1,.11.23c0,.09.07.15.1.23l.06.16,2.08,5.12a.78.78,0,0,0,0,.09,1,1,0,0,1,0,.18A1.79,1.79,0,0,1,17,42.38ZM14.6,39.69c-.17-.38-.35-.8-.55-1.23l-.16-.37c0,.12-.1.25-.15.37-.2.43-.38.85-.55,1.23l-.18.44h1.77Z"/><path class="cls-2" d="M22.93,42.57a.42.42,0,0,1-.14.18l-.22.11a.65.65,0,0,1-.31,0,.47.47,0,0,1-.28-.12,1.36,1.36,0,0,1-.28-.31c-.06-.11-.15-.24-.22-.39L20.37,40l-.32,0c-.28,0-.52,0-.78,0h-.19V41.8c0,.1,0,.19,0,.3s0,.19,0,.28a.61.61,0,0,1-.28.42.68.68,0,0,1-.51.07.69.69,0,0,1-.25-.1.52.52,0,0,1-.12-.17c0-.07-.05-.15-.07-.21a.63.63,0,0,1,0-.19V36.52a1.79,1.79,0,0,1,0-.24.71.71,0,0,1,.07-.22.32.32,0,0,1,.1-.17.71.71,0,0,1,.55-.14c.59,0,1.19,0,1.77,0a3.92,3.92,0,0,1,1.22.22l.33.14a1.21,1.21,0,0,1,.3.21A2.32,2.32,0,0,1,22.86,38a1.69,1.69,0,0,1-1.07,1.66l-.11,0,.92,1.85.09.16.1.19.11.22c0,.08,0,.17.05.23A.39.39,0,0,1,22.93,42.57Zm-2.48-3.75a1,1,0,0,0,1-.81c0-.66-.4-1-1.05-1-.39,0-.88,0-1.29,0,0,.55,0,1.07,0,1.84Z"/><path class="cls-2" d="M28.74,36.32a1.79,1.79,0,0,1,0,.24.48.48,0,0,1-.13.21.73.73,0,0,1-.22.09,2.11,2.11,0,0,1-.29.06h-1.5c0,.82,0,1.82,0,4v.76a.71.71,0,0,0,0,.15.92.92,0,0,1,0,.16q0,.09,0,.21a.72.72,0,0,1,0,.19s0,0,0,.06l0,.06a.5.5,0,0,1-.19.19.73.73,0,0,1-.49,0,.47.47,0,0,1-.26-.09.55.55,0,0,1-.13-.18.65.65,0,0,1-.07-.21.68.68,0,0,1,0-.19V37c-.16,0-1.14,0-1.32,0a3.24,3.24,0,0,1-.39-.07.63.63,0,0,1-.33-.19.44.44,0,0,1-.11-.29.86.86,0,0,1,0-.23.37.37,0,0,1,.16-.2,1,1,0,0,1,.29-.14,1.22,1.22,0,0,1,.3-.06h1.66c.77,0,1.54,0,2.3,0a1.38,1.38,0,0,1,.49.1.62.62,0,0,1,.3.19A.4.4,0,0,1,28.74,36.32Z"/></g></g></svg>