<svg xmlns="http://www.w3.org/2000/svg" viewBox="0 0 43.05 45.77"><defs><style>.cls-1{fill:#002083;}.cls-2{fill:#fff;}.cls-3{fill:#efefef;}.cls-10,.cls-11,.cls-4,.cls-8{fill:none;stroke-miterlimit:10;}.cls-4,.cls-8{stroke:#cccbcb;}.cls-4{stroke-width:0.2px;}.cls-5{fill:#b2b2b2;}.cls-6{fill:#a4a4a4;}.cls-7{fill:#ec2024;}.cls-8{stroke-width:0.21px;}.cls-9{fill:#cccbcb;}.cls-10{stroke:#002083;stroke-width:2px;}.cls-11{stroke:#fff;stroke-width:2.89px;}</style></defs><g id="레이어_2" data-name="레이어 2"><g id="레이어_1-2" data-name="레이어 1"><path class="cls-1" d="M14.72,44.16c-.43,1.5-2.81,2-4.17,1.27a2.26,2.26,0,0,1-.94-1,.64.64,0,0,1,.33-.92.74.74,0,0,1,.85.33,1.64,1.64,0,0,0,.75.67c.88.3,1.89-.16,1.89-.93s-.38-.81-.95-1a9.19,9.19,0,0,1-1.94-.35,1.9,1.9,0,0,1-.4-3.07,2.74,2.74,0,0,1,1.75-.56,3.37,3.37,0,0,1,2.15.56c.34.27.8,1,.29,1.26s-.77-.16-1.05-.36a2.17,2.17,0,0,0-1.42-.3c-.58.07-1,.38-1,1,0,.43.49.57.88.62a7.69,7.69,0,0,1,1.78.29,1.87,1.87,0,0,1,1.19,1.15A2.41,2.41,0,0,1,14.72,44.16Z"/><path class="cls-1" d="M20.84,39.25a1.79,1.79,0,0,1,0,.24.48.48,0,0,1-.13.21.73.73,0,0,1-.22.09,2.11,2.11,0,0,1-.29.06h-1.5c0,.82,0,1.82,0,4v.76a.71.71,0,0,0,0,.15.92.92,0,0,1,0,.16q0,.09,0,.21a.72.72,0,0,1,0,.19s0,0,0,.06l0,.06a.5.5,0,0,1-.19.19.73.73,0,0,1-.49.05.47.47,0,0,1-.26-.09.55.55,0,0,1-.13-.18.65.65,0,0,1-.07-.21.68.68,0,0,1,0-.19V39.91c-.16,0-1.14,0-1.32,0a3.24,3.24,0,0,1-.39-.07.63.63,0,0,1-.33-.19.44.44,0,0,1-.11-.29.86.86,0,0,1,0-.23.37.37,0,0,1,.16-.2,1,1,0,0,1,.29-.14,1.22,1.22,0,0,1,.3-.06h1.66c.77,0,1.54,0,2.3,0a1.38,1.38,0,0,1,.49.1.62.62,0,0,1,.3.19A.4.4,0,0,1,20.84,39.25Z"/><path class="cls-1" d="M26.23,40.54a5.2,5.2,0,0,1,.15,3.18,3.36,3.36,0,0,1-.33.8,2.31,2.31,0,0,1-1.51,1.08A2.75,2.75,0,0,1,22,44.92a4.23,4.23,0,0,1-1-3.23,3.25,3.25,0,0,1,1.75-2.78A2.45,2.45,0,0,1,26.23,40.54ZM25.06,41c-.29-.86-.86-1.36-1.86-.89a2,2,0,0,0-.84,1.73,3.12,3.12,0,0,0,.48,2.1,1.32,1.32,0,0,0,1.29.45,1.21,1.21,0,0,0,.84-.73,2,2,0,0,0,.18-.5A4.1,4.1,0,0,0,25.06,41Z"/><path class="cls-1" d="M32.6,41.1a1.6,1.6,0,0,1-1.05,1.42,4.9,4.9,0,0,1-1.65.35l-.69,0h-.27V45c0,.25-.05.55-.31.7a1,1,0,0,1-.56.06.45.45,0,0,1-.39-.27,1.14,1.14,0,0,1-.11-.49V39.47a1.9,1.9,0,0,1,0-.25l.06-.22a.46.46,0,0,1,.11-.16.64.64,0,0,1,.47-.13h0a9.87,9.87,0,0,1,1.32,0l.49,0,.48.05.36.06a1.18,1.18,0,0,1,.35.11,1.6,1.6,0,0,1,.35.15l.29.2A2.27,2.27,0,0,1,32.6,41.1ZM30,39.94l-.78,0h-.28c0,.41,0,.77,0,1.21,0,.24,0,.48,0,.71h.62c.64,0,1.67-.12,1.74-.86S30.65,40,30,39.94Z"/><path class="cls-2" d="M13.72,44.16c-.43,1.5-2.81,2-4.17,1.27a2.26,2.26,0,0,1-.94-1,.64.64,0,0,1,.33-.92.74.74,0,0,1,.85.33,1.64,1.64,0,0,0,.75.67c.88.3,1.89-.16,1.89-.93s-.38-.81-.95-1a9.19,9.19,0,0,1-1.94-.35,1.9,1.9,0,0,1-.4-3.07,2.74,2.74,0,0,1,1.75-.56,3.37,3.37,0,0,1,2.15.56c.34.27.8,1,.29,1.26s-.77-.16-1.05-.36a2.17,2.17,0,0,0-1.42-.3c-.58.07-1,.38-1,1,0,.43.49.57.88.62a7.69,7.69,0,0,1,1.78.29,1.87,1.87,0,0,1,1.19,1.15A2.41,2.41,0,0,1,13.72,44.16Z"/><path class="cls-2" d="M19.84,39.25a1.79,1.79,0,0,1,0,.24.48.48,0,0,1-.13.21.73.73,0,0,1-.22.09,2.11,2.11,0,0,1-.29.06h-1.5c0,.82,0,1.82,0,4v.76a.71.71,0,0,0,0,.15.92.92,0,0,1,0,.16q0,.09,0,.21a.72.72,0,0,1,0,.19s0,0,0,.06l0,.06a.5.5,0,0,1-.19.19.73.73,0,0,1-.49.05.47.47,0,0,1-.26-.09.55.55,0,0,1-.13-.18.65.65,0,0,1-.07-.21.68.68,0,0,1,0-.19V39.91c-.16,0-1.14,0-1.32,0a3.24,3.24,0,0,1-.39-.07.63.63,0,0,1-.33-.19.44.44,0,0,1-.11-.29.86.86,0,0,1,0-.23.37.37,0,0,1,.16-.2,1,1,0,0,1,.29-.14,1.22,1.22,0,0,1,.3-.06h1.66c.77,0,1.54,0,2.3,0a1.38,1.38,0,0,1,.49.1.62.62,0,0,1,.3.19A.4.4,0,0,1,19.84,39.25Z"/><path class="cls-2" d="M25.23,40.54a5.2,5.2,0,0,1,.15,3.18,3.36,3.36,0,0,1-.33.8,2.31,2.31,0,0,1-1.51,1.08A2.75,2.75,0,0,1,21,44.92a4.23,4.23,0,0,1-1-3.23,3.25,3.25,0,0,1,1.75-2.78A2.45,2.45,0,0,1,25.23,40.54ZM24.06,41c-.29-.86-.86-1.36-1.86-.89a2,2,0,0,0-.84,1.73,3.12,3.12,0,0,0,.48,2.1,1.32,1.32,0,0,0,1.29.45,1.21,1.21,0,0,0,.84-.73,2,2,0,0,0,.18-.5A4.1,4.1,0,0,0,24.06,41Z"/><path class="cls-2" d="M31.6,41.1a1.6,1.6,0,0,1-1.05,1.42,4.9,4.9,0,0,1-1.65.35l-.69,0h-.27V45c0,.25-.05.55-.31.7a1,1,0,0,1-.56.06.45.45,0,0,1-.39-.27,1.14,1.14,0,0,1-.11-.49V39.47a1.9,1.9,0,0,1,0-.25l.06-.22a.46.46,0,0,1,.11-.16.64.64,0,0,1,.47-.13h0a9.87,9.87,0,0,1,1.32,0l.49,0,.48.05.36.06a1.18,1.18,0,0,1,.35.11,1.6,1.6,0,0,1,.35.15l.29.2A2.27,2.27,0,0,1,31.6,41.1ZM29,39.94l-.78,0h-.28c0,.41,0,.77,0,1.21,0,.24,0,.48,0,.71h.62c.64,0,1.67-.12,1.74-.86S29.65,40,29,39.94Z"/><rect class="cls-1" x="1.12" y="6.63" width="3.24" height="19.76" rx="1.48" transform="translate(5.48 33.02) rotate(180)"/><rect class="cls-1" x="1.57" y="4.42" width="3.24" height="23.66" rx="1.62" transform="translate(6.37 32.5) rotate(180)"/><path class="cls-1" d="M2.67,5.82h1A1.11,1.11,0,0,1,4.81,6.93v0a.17.17,0,0,1-.17.17H1.74a.17.17,0,0,1-.17-.17v0A1.11,1.11,0,0,1,2.67,5.82Z"/><rect class="cls-1" x="1.57" y="8.68" width="3.24" height="1.28" rx="0.17"/><rect class="cls-1" x="1.57" y="11.54" width="3.24" height="1.28" rx="0.17"/><rect class="cls-1" x="1.57" y="14.4" width="3.24" height="1.28" rx="0.17"/><rect class="cls-1" x="1.57" y="17.27" width="3.24" height="1.28" rx="0.17"/><rect class="cls-1" x="1.57" y="20.13" width="3.24" height="1.28" rx="0.17"/><rect class="cls-1" x="1.57" y="22.99" width="3.24" height="1.28" rx="0.17"/><path class="cls-1" d="M1.74,25.85h2.9a.17.17,0,0,1,.17.17v0A1.11,1.11,0,0,1,3.7,27.13h-1A1.11,1.11,0,0,1,1.57,26v0A.17.17,0,0,1,1.74,25.85Z"/><rect class="cls-1" x="39.81" y="6.11" width="3.24" height="19.76" rx="1.48"/><rect class="cls-1" x="39.36" y="4.42" width="3.24" height="23.66" rx="1.62"/><path class="cls-1" d="M40.47,25.4h1a1.11,1.11,0,0,1,1.11,1.11v0a.17.17,0,0,1-.17.17h-2.9a.17.17,0,0,1-.17-.17v0A1.11,1.11,0,0,1,40.47,25.4Z" transform="translate(81.97 52.09) rotate(180)"/><rect class="cls-1" x="39.36" y="22.54" width="3.24" height="1.28" rx="0.17" transform="translate(81.97 46.37) rotate(180)"/><rect class="cls-1" x="39.36" y="19.68" width="3.24" height="1.28" rx="0.17" transform="translate(81.97 40.64) rotate(180)"/><rect class="cls-1" x="39.36" y="16.82" width="3.24" height="1.28" rx="0.17" transform="translate(81.97 34.92) rotate(180)"/><rect class="cls-1" x="39.36" y="13.96" width="3.24" height="1.28" rx="0.17" transform="translate(81.97 29.2) rotate(180)"/><rect class="cls-1" x="39.36" y="11.1" width="3.24" height="1.28" rx="0.17" transform="translate(81.97 23.48) rotate(180)"/><rect class="cls-1" x="39.36" y="8.24" width="3.24" height="1.28" rx="0.17" transform="translate(81.97 17.75) rotate(180)"/><path class="cls-1" d="M39.54,5.38h2.9a.17.17,0,0,1,.17.17v0A1.11,1.11,0,0,1,41.5,6.66h-1a1.11,1.11,0,0,1-1.11-1.11v0a.17.17,0,0,1,.17-.17Z" transform="translate(81.97 12.03) rotate(180)"/><rect class="cls-1" x="4.84" y="7.64" width="17.22" height="17.22" rx="2.02"/><path class="cls-1" d="M13,6.87h.46a.38.38,0,0,1,.38.38V8.87a.38.38,0,0,1-.38.38H13a0,0,0,0,1,0,0V6.87A0,0,0,0,1,13,6.87Z" transform="translate(21.52 -5.39) rotate(90)"/><path class="cls-1" d="M13,23.25h.46a.38.38,0,0,1,.38.38v1.62a.38.38,0,0,1-.38.38H13a0,0,0,0,1,0,0V23.25A0,0,0,0,1,13,23.25Z" transform="translate(-10.99 37.9) rotate(-90)"/><path class="cls-1" d="M21.22,15.06h.46a.38.38,0,0,1,.38.38v1.62a.38.38,0,0,1-.38.38h-.46a0,0,0,0,1,0,0V15.06A0,0,0,0,1,21.22,15.06Z" transform="translate(43.29 32.5) rotate(180)"/><path class="cls-1" d="M4.84,15.06h.46a.38.38,0,0,1,.38.38v1.62a.38.38,0,0,1-.38.38H4.84a0,0,0,0,1,0,0V15.06A0,0,0,0,1,4.84,15.06Z"/><rect class="cls-1" x="4.84" y="7.64" width="17.22" height="17.22" rx="2.02"/><rect class="cls-1" x="15.36" y="9.57" width="4.52" height="4.52" rx="2.26"/><rect class="cls-1" x="15.36" y="9.57" width="4.52" height="4.52" rx="2.26"/><rect class="cls-1" x="16.18" y="10.39" width="2.87" height="2.87" rx="1.43"/><rect class="cls-1" x="7.04" y="9.57" width="4.52" height="4.52" rx="2.26"/><rect class="cls-1" x="7.04" y="9.57" width="4.52" height="4.52" rx="2.26"/><rect class="cls-1" x="7.86" y="10.39" width="2.87" height="2.87" rx="1.43"/><rect class="cls-1" x="15.36" y="18.42" width="4.52" height="4.52" rx="2.26"/><rect class="cls-1" x="15.36" y="18.42" width="4.52" height="4.52" rx="2.26"/><rect class="cls-1" x="16.18" y="19.24" width="2.87" height="2.87" rx="1.43"/><rect class="cls-1" x="7.04" y="18.42" width="4.52" height="4.52" rx="2.26"/><rect class="cls-1" x="7.04" y="18.42" width="4.52" height="4.52" rx="2.26"/><rect class="cls-1" x="7.86" y="19.24" width="2.87" height="2.87" rx="1.43"/><rect class="cls-1" x="22.1" y="7.64" width="17.22" height="17.22" rx="2.02"/><path class="cls-1" d="M30.29,6.87h.46a.38.38,0,0,1,.38.38V8.87a.38.38,0,0,1-.38.38h-.46a0,0,0,0,1,0,0V6.87A0,0,0,0,1,30.29,6.87Z" transform="translate(38.78 -22.65) rotate(90)"/><path class="cls-1" d="M30.29,23.25h.46a.38.38,0,0,1,.38.38v1.62a.38.38,0,0,1-.38.38h-.46a0,0,0,0,1,0,0V23.25A0,0,0,0,1,30.29,23.25Z" transform="translate(6.27 55.16) rotate(-90)"/><path class="cls-1" d="M38.48,15.06h.46a.38.38,0,0,1,.38.38v1.62a.38.38,0,0,1-.38.38h-.46a0,0,0,0,1,0,0V15.06A0,0,0,0,1,38.48,15.06Z" transform="translate(77.81 32.5) rotate(180)"/><path class="cls-1" d="M22.1,15.06h.46a.38.38,0,0,1,.38.38v1.62a.38.38,0,0,1-.38.38H22.1a0,0,0,0,1,0,0V15.06A0,0,0,0,1,22.1,15.06Z"/><rect class="cls-1" x="22.1" y="7.64" width="17.22" height="17.22" rx="2.02"/><rect class="cls-1" x="32.62" y="9.57" width="4.52" height="4.52" rx="2.26"/><rect class="cls-1" x="32.62" y="9.57" width="4.52" height="4.52" rx="2.26"/><rect class="cls-1" x="33.44" y="10.39" width="2.87" height="2.87" rx="1.43"/><rect class="cls-1" x="24.3" y="9.57" width="4.52" height="4.52" rx="2.26"/><rect class="cls-1" x="24.3" y="9.57" width="4.52" height="4.52" rx="2.26"/><rect class="cls-1" x="25.12" y="10.39" width="2.87" height="2.87" rx="1.43"/><rect class="cls-1" x="32.62" y="18.42" width="4.52" height="4.52" rx="2.26"/><rect class="cls-1" x="32.62" y="18.42" width="4.52" height="4.52" rx="2.26"/><rect class="cls-1" x="33.44" y="19.24" width="2.87" height="2.87" rx="1.43"/><rect class="cls-1" x="24.3" y="18.42" width="4.52" height="4.52" rx="2.26"/><rect class="cls-1" x="24.3" y="18.42" width="4.52" height="4.52" rx="2.26"/><rect class="cls-1" x="25.12" y="19.24" width="2.87" height="2.87" rx="1.43"/><rect class="cls-3" x="0.1" y="6.63" width="3.24" height="19.76" rx="1.48" transform="translate(3.44 33.02) rotate(180)"/><rect class="cls-3" x="38.79" y="6.11" width="3.24" height="19.76" rx="1.48"/><rect class="cls-4" x="0.1" y="6.63" width="3.24" height="19.76" rx="1.48" transform="translate(3.44 33.02) rotate(180)"/><rect class="cls-4" x="38.79" y="6.11" width="3.24" height="19.76" rx="1.48"/><rect class="cls-5" x="0.55" y="4.42" width="3.24" height="23.66" rx="1.62" transform="translate(4.34 32.5) rotate(-180)"/><path class="cls-6" d="M1.65,5.82h1A1.11,1.11,0,0,1,3.79,6.93v0a.17.17,0,0,1-.17.17H.72a.17.17,0,0,1-.17-.17v0A1.11,1.11,0,0,1,1.65,5.82Z"/><rect class="cls-6" x="0.55" y="8.68" width="3.24" height="1.28" rx="0.17"/><rect class="cls-6" x="0.55" y="11.54" width="3.24" height="1.28" rx="0.17"/><rect class="cls-6" x="0.55" y="14.4" width="3.24" height="1.28" rx="0.17"/><rect class="cls-6" x="0.55" y="17.27" width="3.24" height="1.28" rx="0.17"/><rect class="cls-6" x="0.55" y="20.13" width="3.24" height="1.28" rx="0.17"/><rect class="cls-6" x="0.55" y="22.99" width="3.24" height="1.28" rx="0.17"/><path class="cls-6" d="M.72,25.85h2.9a.17.17,0,0,1,.17.17v0a1.11,1.11,0,0,1-1.11,1.11h-1A1.11,1.11,0,0,1,.55,26v0A.17.17,0,0,1,.72,25.85Z"/><rect class="cls-5" x="38.34" y="4.42" width="3.24" height="23.66" rx="1.62"/><path class="cls-6" d="M39.45,25.4h1a1.11,1.11,0,0,1,1.11,1.11v0a.17.17,0,0,1-.17.17h-2.9a.17.17,0,0,1-.17-.17v0a1.11,1.11,0,0,1,1.11-1.11Z" transform="translate(79.93 52.09) rotate(180)"/><rect class="cls-6" x="38.34" y="22.54" width="3.24" height="1.28" rx="0.17" transform="translate(79.93 46.37) rotate(180)"/><rect class="cls-6" x="38.34" y="19.68" width="3.24" height="1.28" rx="0.17" transform="translate(79.93 40.64) rotate(180)"/><rect class="cls-6" x="38.34" y="16.82" width="3.24" height="1.28" rx="0.17" transform="translate(79.93 34.92) rotate(180)"/><rect class="cls-6" x="38.34" y="13.96" width="3.24" height="1.28" rx="0.17" transform="translate(79.93 29.2) rotate(180)"/><rect class="cls-6" x="38.34" y="11.1" width="3.24" height="1.28" rx="0.17" transform="translate(79.93 23.48) rotate(180)"/><rect class="cls-6" x="38.34" y="8.24" width="3.24" height="1.28" rx="0.17" transform="translate(79.93 17.75) rotate(180)"/><path class="cls-6" d="M38.52,5.38h2.9a.17.17,0,0,1,.17.17v0a1.11,1.11,0,0,1-1.11,1.11h-1a1.11,1.11,0,0,1-1.11-1.11v0a.17.17,0,0,1,.17-.17Z" transform="translate(79.93 12.03) rotate(180)"/><rect class="cls-3" x="3.83" y="7.64" width="17.22" height="17.22" rx="2.02"/><path class="cls-7" d="M12,6.87h.46a.38.38,0,0,1,.38.38V8.87a.38.38,0,0,1-.38.38H12a0,0,0,0,1,0,0V6.87A0,0,0,0,1,12,6.87Z" transform="translate(20.5 -4.37) rotate(90)"/><path class="cls-7" d="M12,23.25h.46a.38.38,0,0,1,.38.38v1.62a.38.38,0,0,1-.38.38H12a0,0,0,0,1,0,0V23.25A0,0,0,0,1,12,23.25Z" transform="translate(-12.01 36.88) rotate(-90)"/><path class="cls-7" d="M20.21,15.06h.46a.38.38,0,0,1,.38.38v1.62a.38.38,0,0,1-.38.38h-.46a0,0,0,0,1,0,0V15.06A0,0,0,0,1,20.21,15.06Z" transform="translate(41.25 32.5) rotate(180)"/><path class="cls-7" d="M3.83,15.06h.46a.38.38,0,0,1,.38.38v1.62a.38.38,0,0,1-.38.38H3.83a0,0,0,0,1,0,0V15.06A0,0,0,0,1,3.83,15.06Z"/><rect class="cls-8" x="3.83" y="7.64" width="17.22" height="17.22" rx="2.02"/><rect class="cls-3" x="14.34" y="9.57" width="4.52" height="4.52" rx="2.26"/><rect class="cls-8" x="14.34" y="9.57" width="4.52" height="4.52" rx="2.26"/><rect class="cls-9" x="15.17" y="10.39" width="2.87" height="2.87" rx="1.43"/><rect class="cls-3" x="6.02" y="9.57" width="4.52" height="4.52" rx="2.26"/><rect class="cls-8" x="6.02" y="9.57" width="4.52" height="4.52" rx="2.26"/><rect class="cls-9" x="6.84" y="10.39" width="2.87" height="2.87" rx="1.43"/><rect class="cls-3" x="14.34" y="18.42" width="4.52" height="4.52" rx="2.26"/><rect class="cls-8" x="14.34" y="18.42" width="4.52" height="4.52" rx="2.26"/><rect class="cls-9" x="15.17" y="19.24" width="2.87" height="2.87" rx="1.43"/><rect class="cls-3" x="6.02" y="18.42" width="4.52" height="4.52" rx="2.26"/><rect class="cls-8" x="6.02" y="18.42" width="4.52" height="4.52" rx="2.26"/><rect class="cls-9" x="6.84" y="19.24" width="2.87" height="2.87" rx="1.43"/><rect class="cls-3" x="21.09" y="7.64" width="17.22" height="17.22" rx="2.02"/><path class="cls-7" d="M29.28,6.87h.46a.38.38,0,0,1,.38.38V8.87a.38.38,0,0,1-.38.38h-.46a0,0,0,0,1,0,0V6.87A0,0,0,0,1,29.28,6.87Z" transform="translate(37.76 -21.63) rotate(90)"/><path class="cls-7" d="M29.28,23.25h.46a.38.38,0,0,1,.38.38v1.62a.38.38,0,0,1-.38.38h-.46a0,0,0,0,1,0,0V23.25A0,0,0,0,1,29.28,23.25Z" transform="translate(5.25 54.14) rotate(-90)"/><path class="cls-7" d="M37.47,15.06h.46a.38.38,0,0,1,.38.38v1.62a.38.38,0,0,1-.38.38h-.46a0,0,0,0,1,0,0V15.06A0,0,0,0,1,37.47,15.06Z" transform="translate(75.77 32.5) rotate(180)"/><path class="cls-7" d="M21.09,15.06h.46a.38.38,0,0,1,.38.38v1.62a.38.38,0,0,1-.38.38h-.46a0,0,0,0,1,0,0V15.06A0,0,0,0,1,21.09,15.06Z"/><rect class="cls-8" x="21.09" y="7.64" width="17.22" height="17.22" rx="2.02"/><rect class="cls-3" x="31.6" y="9.57" width="4.52" height="4.52" rx="2.26"/><rect class="cls-8" x="31.6" y="9.57" width="4.52" height="4.52" rx="2.26"/><rect class="cls-9" x="32.43" y="10.39" width="2.87" height="2.87" rx="1.43"/><rect class="cls-3" x="23.28" y="9.57" width="4.52" height="4.52" rx="2.26"/><rect class="cls-8" x="23.28" y="9.57" width="4.52" height="4.52" rx="2.26"/><rect class="cls-9" x="24.1" y="10.39" width="2.87" height="2.87" rx="1.43"/><rect class="cls-3" x="31.6" y="18.42" width="4.52" height="4.52" rx="2.26"/><rect class="cls-8" x="31.6" y="18.42" width="4.52" height="4.52" rx="2.26"/><rect class="cls-9" x="32.43" y="19.24" width="2.87" height="2.87" rx="1.43"/><rect class="cls-3" x="23.28" y="18.42" width="4.52" height="4.52" rx="2.26"/><rect class="cls-8" x="23.28" y="18.42" width="4.52" height="4.52" rx="2.26"/><rect class="cls-9" x="24.1" y="19.24" width="2.87" height="2.87" rx="1.43"/><circle class="cls-10" cx="22.43" cy="16.93" r="15.49"/><line class="cls-10" x1="10.97" y1="26.8" x2="35.86" y2="8.37"/><circle class="cls-11" cx="20.16" cy="16.93" r="15.49"/><line class="cls-11" x1="8.7" y1="26.8" x2="33.59" y2="8.37"/></g></g></svg>