<svg xmlns="http://www.w3.org/2000/svg" viewBox="0 0 1144.23 211.93"><defs><style>.cls-1{fill:#fff;}.cls-2{fill:#b6d141;stroke:#aabc3f;}.cls-2,.cls-3,.cls-4,.cls-5,.cls-6,.cls-7{stroke-miterlimit:10;}.cls-2,.cls-6,.cls-7{stroke-width:2.59px;}.cls-3{fill:#409dea;stroke:#3789b7;}.cls-3,.cls-4,.cls-5{stroke-width:3.21px;}.cls-4{fill:#ffca4c;stroke:#e8a623;}.cls-5{fill:#f77b6f;stroke:#d65e58;}.cls-6{fill:#ff9a48;stroke:#e2823b;}.cls-7{fill:#f47ae3;stroke:#e073d5;}</style></defs><title>Asset 23</title><g id="Layer_2" data-name="Layer 2"><g id="시작하기_배경"><path class="cls-1" d="M624.41,174.57q-.46-2-1.14-5.24a20.08,20.08,0,0,0-2.37-6l0-.09a41.25,41.25,0,0,0-1.83-3.83,38.19,38.19,0,0,0-2-3.72c-.29-.48-.4-.7-.4-.7q-.23-.46-.48-.91l-1.87-3.32-12.89-25.93a52.82,52.82,0,0,0,12.73-15,66.54,66.54,0,0,0,8.62-33.23,77.56,77.56,0,0,0-5.68-28.9,69,69,0,0,0-17.58-25.5l-.07-.06A61.15,61.15,0,0,0,589,14.61q-.78-.45-1.6-.84c-2.74-1.28-5.76-2.56-8.92-3.79a82.68,82.68,0,0,0-18.84-4.85c-5.5-.76-10.83-1.32-15.85-1.67l-.49,0c-7.22-.33-14.49-.49-21.63-.49-6.74,0-13.58-.08-20.34-.23-.88,0-1.75-.05-2.58-.05a39.36,39.36,0,0,0-13.45,2.05,32.82,32.82,0,0,0-9.51,5.16,35.23,35.23,0,0,0-7.86-3.56,64.53,64.53,0,0,0-7.08-2.05,43.9,43.9,0,0,0-8.63-1.07c-2.09-.16-4.23-.25-6.39-.25-1.28,0-2.49-.05-3.58-.15q-.92-.08-1.84-.08h-.68c-6.12-.16-12.07-.24-17.69-.24s-11.72.08-18.15.24c-3.45,0-6.18,0-8.39.14-1.53.07-3,.1-4.44.1H379.16q-.57,0-1.13,0c-.55,0-1.11,0-1.7,0a33.79,33.79,0,0,0-17,4.62,28.89,28.89,0,0,0-5.5,3.8,30.69,30.69,0,0,0-2.72-1.73,43.22,43.22,0,0,0-6.79-3.07,46.05,46.05,0,0,0-9.42-2.65c-2.44-.41-5-.71-7.62-.92l-.86,0c-9-.32-18.29-.52-27.5-.6q-4.55,0-9.12,0c-6.14,0-12.4.05-18.6.16h-.24c-5.22.15-10.3.23-15.08.23H236.2a51.12,51.12,0,0,0-6.11.37A55.57,55.57,0,0,0,219.7,5.16a37.73,37.73,0,0,0-7.62,3.06c-.7.37-1.34.73-2,1.08l-.22-.23a20.1,20.1,0,0,0-1.5-1.35,33.73,33.73,0,0,0-14.9-7,37.93,37.93,0,0,0-14.95,0A37.67,37.67,0,0,0,165,6.33a30.47,30.47,0,0,0-11.34,13.8,42.57,42.57,0,0,0-3.95,16.46c-.3,6.38-.5,13.3-.58,20.59l-17-26.77-.41-.62L129.12,26q-.42-.62-.89-1.2l-.09-.12c-.14-.23-.36-.63-.67-1.23a20.12,20.12,0,0,0-2.31-3.6c-.43-.53-.86-1.09-1.27-1.67l-.05-.07a41.58,41.58,0,0,0-3.37-4,37.57,37.57,0,0,0-3.65-3.74c-.94-.83-1.94-1.68-3-2.51a20.13,20.13,0,0,0-2.27-1.58c-1.2-.71-2.42-1.39-3.64-2l-.11-.05c-1.24-.61-2.49-1.18-3.74-1.68a20.17,20.17,0,0,0-3-1A38.24,38.24,0,0,0,92.48.64,48,48,0,0,0,87,1,35.83,35.83,0,0,0,72.17,5.88a32.83,32.83,0,0,0-7.87,6.48,26.72,26.72,0,0,0-2.19-2.22A29.72,29.72,0,0,0,46.25,2.26c-1.46-.24-3-.42-4.52-.54h-.1c-1.54-.12-3.19-.17-4.92-.17a36.24,36.24,0,0,0-16.29,4,20,20,0,0,0-2.69,1.62,35.31,35.31,0,0,0-11.25,13l-.16.33A44.68,44.68,0,0,0,1.8,37.26q0,.55,0,1.1c0,1.39,0,2.77-.09,4.08S1.51,45,1.39,46.28c-.06.65-.1,1.31-.1,2v.37C1,54.21.82,59.39.82,64V95.59c0,5-.08,10-.23,14.93,0,.16,0,.32,0,.48L.35,145.57.12,164.11c0,.08,0,2.86,0,2.86a36.67,36.67,0,0,0,.16,7.44q.09.69.22,1.37c0,.17.06.34.08.5.08.8.18,1.61.31,2.42a34.66,34.66,0,0,0,.5,4.21,32.76,32.76,0,0,0,1.83,6.38q.29.72.63,1.41t.87,1.61a22.18,22.18,0,0,0,1.6,2.87,31,31,0,0,0,10,10.87,20.1,20.1,0,0,0,2.79,1.56,38.14,38.14,0,0,0,16,3.5,40.37,40.37,0,0,0,8.23-.86A30.84,30.84,0,0,0,59,203a32.67,32.67,0,0,0,3.59-3.56A35.69,35.69,0,0,0,74,208.13a32.53,32.53,0,0,0,14.3,3.17,41.81,41.81,0,0,0,8.06-.82,33.54,33.54,0,0,0,14.84-6.62l.47-.38A34.36,34.36,0,0,0,122,188.61a42.28,42.28,0,0,0,2.44-14.12v-2l.17-21.76,1,1.58q6.78,10.53,13.45,20.94a248,248,0,0,0,15.76,21.85,35.78,35.78,0,0,0,10.78,9.44,44.58,44.58,0,0,0,11.82,4.73,38.9,38.9,0,0,0,9.11,1.08,39.82,39.82,0,0,0,5.23-.35,32.64,32.64,0,0,0,16.14-7,31.45,31.45,0,0,0,11.9-19.44,90.44,90.44,0,0,0,1.35-10.82,65.84,65.84,0,0,0,0-9.27c-.12-1.6-.18-3.28-.18-5,0-.05,0-.11,0-.16-.16-19.5-.28-39.68-.35-60,0-9.71-.07-19.56-.09-29.47,1.67.39,3.56.76,5.74,1.11l4.33.7.36.06c1.2.17,3.19.41,7.93.65,1.9.1,3.88.19,5.93.26v101.2a34.4,34.4,0,0,0,1.13,8.78,33.62,33.62,0,0,0,3.33,9.6,34.73,34.73,0,0,0,6.85,9.5,20.07,20.07,0,0,0,1.89,1.67,31.47,31.47,0,0,0,15.08,6.07,39.89,39.89,0,0,0,7.71.77A35.91,35.91,0,0,0,297,205.43a20.19,20.19,0,0,0,1.89-1.08A31.83,31.83,0,0,0,310.47,192l.16-.32a20.09,20.09,0,0,0,2.19-4.08,35.23,35.23,0,0,0,1.64-5.25l0-.11a30.5,30.5,0,0,0,.68-5.41,14.68,14.68,0,0,1,.24-1.67q.06-.26.11-.53a30.28,30.28,0,0,0,.61-5.87V167a20.14,20.14,0,0,0-.23-3c0-.12,0-.28,0-.5v-17.9c0-13.24,0-24.28.12-33.76q.12-14.57.23-25.62c.06-5.77.1-10.86.11-15.44h11.7a43.42,43.42,0,0,0,6.17-.44,20,20,0,0,0,2-.39c.74-.18,1.25-.27,1.48-.31q1.41-.2,2.82-.49c0,3.3-.06,6.92-.06,11v31.19L340,145c0,.09,0,18.35,0,18.35a35.14,35.14,0,0,0-.24,4.07v3.77a20.09,20.09,0,0,0,.38,3.89c0,.17.06.34.08.5.08.83.19,1.67.32,2.5A34.52,34.52,0,0,0,341,182a32.74,32.74,0,0,0,1.83,6.38q.29.72.63,1.41t.87,1.61a22.33,22.33,0,0,0,2,3.45A30.78,30.78,0,0,0,356.19,205a32.51,32.51,0,0,0,18.17,5.21c.81,0,1.64,0,2.47-.08h10c1.27,0,2.68,0,4.24.1,2.13.09,4.86.13,8.12.13,6.64.16,13.26.23,19.67.23s12.79-.08,19-.23H439q.92,0,1.84-.08c1.09-.1,2.29-.15,3.58-.15,2.14,0,4.27-.08,6.35-.24a47.36,47.36,0,0,0,16.49-3.19,32,32,0,0,0,7.73-3.62c.46.4.93.79,1.41,1.16a20.17,20.17,0,0,0,1.94,1.29,41.29,41.29,0,0,0,11.48,4.57l.57.12a41.89,41.89,0,0,0,8.19.84,34.33,34.33,0,0,0,18.34-5.1l.59-.38A34.78,34.78,0,0,0,528,194.7a35.77,35.77,0,0,0,4.71-12.11q.08-.41.13-.83c.22-1.59.39-3.28.51-5.09s.16-3.09.16-4.3c0-.79,0-1.48.07-2.11.11-1.58.17-3.24.17-5v-19.7l18.38,34.94a69.59,69.59,0,0,0,3.4,6.42q1.52,2.52,2.78,4.54l.16.26a52.06,52.06,0,0,0,10.34,11.61,30.52,30.52,0,0,0,16.71,7.51,28.7,28.7,0,0,0,5.13.47,28,28,0,0,0,5.48-.54c1.45-.29,2.94-.63,4.55-1a20,20,0,0,0,2.41-.76,46.19,46.19,0,0,0,9.09-4.62q.73-.49,1.42-1a36.23,36.23,0,0,0,4.5-4.27l.07-.08a26.94,26.94,0,0,0,5.22-9.22A30.7,30.7,0,0,0,624.8,177,20.2,20.2,0,0,0,624.41,174.57Zm-164-105.38.71-.07q1-.08,2-.22v2l-.29-.09q-2.28-.62-4.62-1.18Q459.33,69.43,460.41,69.19Zm-.27,74q-.81-.2-1.64-.34a39.06,39.06,0,0,0-6.33-.5h-14.5L411,142.11l.06-6.27,23.73-.13h11a51.62,51.62,0,0,0,9.5-.89,48.18,48.18,0,0,0,7.85-1.52v10.33c-.92-.16-1.85-.29-2.78-.37Zm88.62-69.66c-.11.11-.23.22-.37.33a6.31,6.31,0,0,1-1.74,1,1.84,1.84,0,0,1-.74.12H533.83q0-1.59,0-3.08c3.11.06,6.06.19,8.79.38l.55,0a16,16,0,0,1,5.56,1C548.77,73.44,548.77,73.5,548.77,73.56Z"/><path class="cls-1" d="M1144,35.54v-.09c-.11-1.29-.27-2.68-.47-4.13q0-.27-.08-.54c-.27-1.6-.61-3.16-1-4.67-.33-1.2-.71-2.46-1.14-3.75a20.13,20.13,0,0,0-.79-2,30.33,30.33,0,0,0-7.25-10.21,29.72,29.72,0,0,0-15.86-7.89c-1.46-.24-3-.42-4.52-.54h-.1c-1.54-.12-3.19-.17-4.92-.17a36.24,36.24,0,0,0-16.29,4,20,20,0,0,0-2.69,1.62,35.31,35.31,0,0,0-11.25,13l-.16.33A44.68,44.68,0,0,0,1073,37.26q0,.55,0,1.1c0,1.12,0,2.23-.07,3.31a101,101,0,0,0-6.37-8.47,93.29,93.29,0,0,0-26.69-21.77A81,81,0,0,0,1003,1.78L963.51.83H963a20.09,20.09,0,0,0-4.2.44h-.51a25.32,25.32,0,0,0-8,1.29q-.6.2-1.19.44l-2.83,1.16a31.12,31.12,0,0,0-7.45,4.47,27.2,27.2,0,0,0-9,12.6,39.51,39.51,0,0,0-2.31,8.31A75.85,75.85,0,0,0,906.8,12.06,71.57,71.57,0,0,0,875,3c-1.28-.07-2.59-.11-3.89-.11-10.2,0-21.25,2.2-32.86,6.52l-.14.05A69,69,0,0,0,813.74,25.2a96.81,96.81,0,0,0-8.43,9.64c-.6-1-1.22-1.9-1.87-2.84a71.13,71.13,0,0,0-10.92-12.6A64,64,0,0,0,772,7a86.34,86.34,0,0,0-23-5.24c-2.74-.24-5.52-.37-8.25-.37a91.89,91.89,0,0,0-15.25,1.28,68.64,68.64,0,0,0-23,8.13,88.46,88.46,0,0,0-21.64,17,108.32,108.32,0,0,0-15,20.68A112.7,112.7,0,0,0,656.2,71a108.46,108.46,0,0,0-4.31,22.29v.16c-.51,7-.73,14.5-.64,22.29a140.51,140.51,0,0,0,2.61,25.43,104.37,104.37,0,0,0,8.33,25.23,68.39,68.39,0,0,0,18.13,23.13,92.68,92.68,0,0,0,19.1,12.19,101.46,101.46,0,0,0,42.32,10h1.4a94,94,0,0,0,19.4-2l.42-.09A91.5,91.5,0,0,0,800.65,190a58.47,58.47,0,0,0,8.47-9.25c1.11,1.23,2.25,2.43,3.44,3.58a76.52,76.52,0,0,0,17.6,13.12,86.28,86.28,0,0,0,19.52,7.68,87.66,87.66,0,0,0,20.5,2.75h1.22a83.4,83.4,0,0,0,46.34-14.23,69.33,69.33,0,0,0,10.46-8.78q.29.89.49,1.61a30,30,0,0,0,2.37,6,37.75,37.75,0,0,0,2,3.86,25.71,25.71,0,0,0,7.12,7.69,32.63,32.63,0,0,0,14.44,6.16,74.21,74.21,0,0,0,14.21,1.67l2.62,0c3.36,0,6.74-.14,10.06-.41a221.06,221.06,0,0,0,35.1-4.51,93.72,93.72,0,0,0,36.75-16.32,82.13,82.13,0,0,0,17.91-17.8c0,.51.09,1,.15,1.53s.13.92.22,1.37c0,.17.06.34.08.5.08.8.18,1.61.31,2.42a34.54,34.54,0,0,0,.5,4.21,32.74,32.74,0,0,0,1.83,6.38q.29.72.63,1.41t.87,1.61a22.22,22.22,0,0,0,1.6,2.87,31,31,0,0,0,10,10.87,20.15,20.15,0,0,0,2.79,1.56,38.14,38.14,0,0,0,16,3.5,40.37,40.37,0,0,0,8.23-.86,30.84,30.84,0,0,0,15.59-7.24,32.43,32.43,0,0,0,4.58-4.76,43.14,43.14,0,0,0,2.89-4.22,20.13,20.13,0,0,0,1.85-4c.43-1.29.81-2.54,1.14-3.76,0-.15.07-.23.07-.23a20.11,20.11,0,0,0,1.2-4.27c.21-1.27.37-2.4.49-3.44v-.1a36.18,36.18,0,0,0,.24-4V172L1144,49.9c0-.08,0-4.24,0-4.24,0-.42,0-.69,0-.83v-.09c.13-1.47.2-3.06.2-4.73C1144.23,38.55,1144.17,37,1144,35.54ZM773.49,123.38a37.17,37.17,0,0,0-10.87,5c-2.14,1.43-4.24,3-6.23,4.56l-4.47,3.55c-.44.34-.7.52-.8.58l-.42.22a17.84,17.84,0,0,1-6,2,15.78,15.78,0,0,1-2.26.17,15.1,15.1,0,0,1-3.31-.37,16.64,16.64,0,0,1-5.44-2.26,11.26,11.26,0,0,1-3.39-3.38l-.26-.39a24.42,24.42,0,0,1-3.78-9,59.83,59.83,0,0,1-1.31-14.2,74.2,74.2,0,0,1,1.95-15.2A68.91,68.91,0,0,1,731.57,81a12.12,12.12,0,0,1,3.82-4.78,12.47,12.47,0,0,1,5.34-2.44,9.57,9.57,0,0,1,1.66-.15,11.37,11.37,0,0,1,3.57.62,8.35,8.35,0,0,1,3.82,2.84c1.3,1.66,2.7,3.33,4.14,5a44.81,44.81,0,0,0,7.24,6.58,32.72,32.72,0,0,0,12,5.44,29.6,29.6,0,0,0,6.57.73,31.93,31.93,0,0,0,4.08-.28,161.71,161.71,0,0,0,.14,20.29c.16,2.37.4,4.75.68,7.12-.5,0-1,0-1.51,0A33,33,0,0,0,773.49,123.38Zm107.41.68q-.1.38-.18.77a23.67,23.67,0,0,1-2.23,6.35q-.27.49-.51,1c-2.6,5.46-4.84,6-5.91,6.19l-.33.07a8.53,8.53,0,0,1-2,.24,10,10,0,0,1-3.19-.57,11.86,11.86,0,0,1-5.35-3.8,17.43,17.43,0,0,1-2.9-5,52.18,52.18,0,0,1-2.63-9.19,66.59,66.59,0,0,1-1.18-10.32,94.51,94.51,0,0,1,.19-10.57q0-.36,0-.73a51.21,51.21,0,0,1,1.12-8.45,52.64,52.64,0,0,1,2.56-8.53,17.9,17.9,0,0,1,2.77-4.81A6.56,6.56,0,0,1,863.37,75c4.14-2,6.29-2.15,6.86-2.15a5.43,5.43,0,0,1,2.3.36,8.46,8.46,0,0,1,2.57,2.65,37,37,0,0,1,4.1,8.48,74.61,74.61,0,0,1,3.44,20.43A69.36,69.36,0,0,1,880.9,124.06Zm133-5.43a32.45,32.45,0,0,1-3.91,9.89,21.34,21.34,0,0,1-4.76,5.38,22.32,22.32,0,0,1-6.11,3.18l-.4.13V96.06c0-5.17.08-10.53.23-15.92,0-.19,0-.38,0-.56V75q.93.22,1.84.47a22.44,22.44,0,0,1,6.11,2.65,7.25,7.25,0,0,1,2.21,2.14,41.65,41.65,0,0,1,4.21,10.56,62.26,62.26,0,0,1,2,14A55.11,55.11,0,0,1,1013.86,118.63Z"/><path class="cls-2" d="M20.22,164.36l.23-18.61.24-34.62q.23-7.54.24-15.54V64q0-6.59.47-14.84v-.94q.23-2.35.35-4.83t.12-5.06a24.71,24.71,0,0,1,2.59-9.19,15.36,15.36,0,0,1,4.95-5.65,16.3,16.3,0,0,1,7.3-1.88q1.88,0,3.42.12t2.94.35a9.63,9.63,0,0,1,5.42,2.83,10.55,10.55,0,0,1,2.59,3.77c.31.94.59,1.85.82,2.71s.43,1.77.59,2.71q.23,1.65.35,3.06T53,40q0,1.65-.12,2.94c-.08.87-.12,1.77-.12,2.71v4L51.31,171.9v2.36a16.64,16.64,0,0,1-.12,1.77q-.12,1.06-.35,2.47A22.32,22.32,0,0,0,50,181c-.23.86-.51,1.77-.82,2.71a22.74,22.74,0,0,1-1.53,2.24,12.2,12.2,0,0,1-2,2q-1.89,1.88-6.12,2.59a18.48,18.48,0,0,1-12-1.18,10.47,10.47,0,0,1-4-4.71,2,2,0,0,1-.71-1.41,2.77,2.77,0,0,0-.47-.71,2.69,2.69,0,0,1-.47-.71,12.57,12.57,0,0,1-.71-2.47,15,15,0,0,1-.24-2.71,23.78,23.78,0,0,1-.35-2.36q-.12-1.18-.35-2.36a16.93,16.93,0,0,1,0-4Z"/><path class="cls-3" d="M201.11,171.43a70.06,70.06,0,0,1-1.06,8.48,11.49,11.49,0,0,1-4.59,7.3,12.34,12.34,0,0,1-6.36,2.83,18.83,18.83,0,0,1-6.95-.35,24.34,24.34,0,0,1-6.48-2.59,15.69,15.69,0,0,1-4.95-4.36A226.57,226.57,0,0,1,156,162.36q-6.71-10.48-13.54-21.08l-19.79-29.91q-4-6.36-8.48-14.25T105,82.4l-.71,90v2.12a22.11,22.11,0,0,1-1.29,7.42,14.41,14.41,0,0,1-4.36,6.24,13.71,13.71,0,0,1-6.12,2.59q-5.89,1.17-9.77-.71a15.29,15.29,0,0,1-6.12-5.18,20.09,20.09,0,0,1-3.06-7.65,28.72,28.72,0,0,1-.35-8.6v-4l.47-18.37.24-34.15q.23-7.54.24-15.43V80.52q-.24-10.12.12-21.43t.82-21.2a22.55,22.55,0,0,1,2.59-9.19q.94-3.3,4.95-5.65a15.8,15.8,0,0,1,6.71-2.12,21.36,21.36,0,0,1,7.18.24c.78.32,1.57.67,2.36,1.06s1.57.82,2.36,1.3q1.18.94,2.24,1.88a17.37,17.37,0,0,1,2,2.12A21.3,21.3,0,0,1,107.6,30q.94,1.3,1.88,2.47.71,1.41,1.41,2.59a20.83,20.83,0,0,0,1.65,2.36l2.59,3.77,54.41,85.73V111.37q0-7.54-.12-15.43t-.35-16.37q0-9.89.12-21.2t.59-21.2A22.66,22.66,0,0,1,172.14,28a10.28,10.28,0,0,1,4-4.95,17.57,17.57,0,0,1,6.36-2.59,17.86,17.86,0,0,1,7.07,0,13.78,13.78,0,0,1,6.12,2.83,15.66,15.66,0,0,1,1.41,1.65,9.34,9.34,0,0,1,1.18,2.12,21.46,21.46,0,0,1,1.41,5.42,28.5,28.5,0,0,1,.71,5.89q0,29.44.12,60.06t.35,60.06q0,3.3.24,6.48A45.38,45.38,0,0,1,201.11,171.43Z"/><path class="cls-4" d="M344.31,29.88a9.78,9.78,0,0,1,2.59,6.36q0,1.41-.12,2.94a24.17,24.17,0,0,1-.35,2.71,11.23,11.23,0,0,1-3.06,4.95A13.23,13.23,0,0,1,338.18,49a24.18,24.18,0,0,1-3.3.71,35.83,35.83,0,0,0-3.53.71,23.14,23.14,0,0,1-3.3.24H312.51q-4.24.24-8.36.24H296q.23,7.3.23,15.66t-.12,19.43Q296,97,295.91,111.61t-.12,33.92v17.9A19.27,19.27,0,0,0,296,167v1.77a10.74,10.74,0,0,1-.24,2,36.68,36.68,0,0,0-.71,4.95,10.46,10.46,0,0,1-.23,2.24,14.92,14.92,0,0,1-.71,2.24q-.94.94-.94,1.41l-.71,1.41a12.16,12.16,0,0,1-4.48,4.47,16.9,16.9,0,0,1-11.54,1.18,12.27,12.27,0,0,1-6.12-2.12,14.34,14.34,0,0,1-3.06-4.24,13.1,13.1,0,0,1-1.65-4.95,14.05,14.05,0,0,1-.71-4.47V51.78H259q-4.48,0-9.54-.12T240,51.31q-4.48-.23-6.12-.47l-4.36-.71q-2.95-.47-4.83-.94a16.43,16.43,0,0,1-7.77-4.47,10.3,10.3,0,0,1-2.59-6.83V35.06a6.88,6.88,0,0,1,.47-2.59,7.78,7.78,0,0,1,3.77-4.71A23.46,23.46,0,0,1,221.48,26a17.31,17.31,0,0,1,3.89-1.53A35.31,35.31,0,0,1,232.43,23a30.86,30.86,0,0,1,3.77-.24h19.67q7.42,0,15.66-.24,13.66-.23,27.2-.12t27,.59q3.06.24,5.89.71a25.82,25.82,0,0,1,5.65,1.65,23,23,0,0,1,4,1.77A9.35,9.35,0,0,1,344.31,29.88Z"/><path class="cls-5" d="M392.12,50.84l-.47,37h9.42q9.65-.23,17.19-.24t16.72.24h1.18q2.83,0,5.54.12t5.3.12a39.71,39.71,0,0,1,5.42.82q2.59.59,5.18,1.3a16,16,0,0,1,6.6,4.24,11,11,0,0,1,2.36,6.83V104a7.25,7.25,0,0,1-.47,2.71,8,8,0,0,1-3.06,4.71q-1.18,1.65-4.47,2.36a28,28,0,0,1-6.12,1.18,31.43,31.43,0,0,1-6.59.71H434.75l-43.57.24L390.7,162l46.87.47h14.6a19,19,0,0,1,3.06.24,20.37,20.37,0,0,0,3.42.59,12.44,12.44,0,0,1,2.94.59,13.64,13.64,0,0,1,4.71,2.59,11.26,11.26,0,0,1,3.06,4.95q.23,1.17.35,2.47a10.8,10.8,0,0,1-.12,2.71,11,11,0,0,1-2.35,6.83,12.66,12.66,0,0,1-6.59,4.24,27.23,27.23,0,0,1-10.83,2.12c-1.73.15-3.53.24-5.42.24s-3.69.08-5.42.24h-1.41q-18.37.47-38.16,0-4.71,0-7.54-.12t-5.06-.12H376.1a13.62,13.62,0,0,1-8.95-1.88,11,11,0,0,1-4-4.48,2,2,0,0,1-.71-1.41,2.75,2.75,0,0,0-.47-.71,2.69,2.69,0,0,1-.47-.71,12.56,12.56,0,0,1-.71-2.47,13.76,13.76,0,0,1-.24-2.47q-.24-1.18-.35-2.36t-.35-2.35v-3.77a14.58,14.58,0,0,1,.12-1.88,15.58,15.58,0,0,0,.12-1.88V145.29l.47-33.92V80q0-8.48.12-15.07T361,50.6V49.43q.23-2.59.35-4.83T361.5,40a21.86,21.86,0,0,1,2.59-9.19,21.3,21.3,0,0,1,2-3.3A8.14,8.14,0,0,1,369,25.17a14,14,0,0,1,7.3-2.12,12.74,12.74,0,0,1,2.83.24V23h11.89q2.47,0,5.3-.12t7.77-.12q9.42-.23,17.9-.24t17.43.24h.94q2.59.24,5.42.24t5.42.24a23.5,23.5,0,0,1,5.18.59,44,44,0,0,1,5.18,1.53,14.2,14.2,0,0,1,6.6,4A12.13,12.13,0,0,1,470.31,36v2.71a6.62,6.62,0,0,1-.47,2.47A8.55,8.55,0,0,1,467,46.13a19.06,19.06,0,0,0-2,1.18,10.33,10.33,0,0,1-2.47,1.18,12.1,12.1,0,0,1-2.95.59q-1.53.12-2.94.35a14.12,14.12,0,0,1-3.42.47h-14l-47.11.24Z"/><path class="cls-6" d="M604.8,179a10.68,10.68,0,0,1-.47,4.47,6.85,6.85,0,0,1-1.3,2.36,16.1,16.1,0,0,1-2,1.88,26.65,26.65,0,0,1-5.18,2.59q-1.89.47-3.65.82a8.24,8.24,0,0,1-3.65-.12,10.48,10.48,0,0,1-6.59-2.83,32,32,0,0,1-6.59-7.3q-1.18-1.89-2.59-4.24a49.11,49.11,0,0,1-2.59-4.95L544,122q-1.89,0-3.77.12t-3.77.35a62,62,0,0,1-9.3.24,88.83,88.83,0,0,0-9.07,0h-4.48v42.63q0,1.89-.12,3.53c-.08,1.1-.12,2.27-.12,3.53q0,1.17-.12,3.06t-.35,3.53a15.71,15.71,0,0,1-2.12,5.3,14.71,14.71,0,0,1-4.47,4.59q-4.95,3.06-12,1.65a21.07,21.07,0,0,1-5.89-2.35,7.11,7.11,0,0,1-1.65-1.77,12.18,12.18,0,0,1-1.18-2.24,22.66,22.66,0,0,1-.82-2.47,23.14,23.14,0,0,0-.82-2.47,15.61,15.61,0,0,1-.71-4.48V40.95c0-.94,0-1.92.12-2.94a22.46,22.46,0,0,1,.35-2.71,13.28,13.28,0,0,1,1.65-5.18,6.69,6.69,0,0,1,2.35-4,11.78,11.78,0,0,1,4.36-2.47,23.83,23.83,0,0,1,8.6-.82q10.6.24,21,.24t20.73.47q6.83.47,14.49,1.53a62.25,62.25,0,0,1,14.25,3.65q4.24,1.65,7.77,3.3A42.07,42.07,0,0,1,586,36.94a48.82,48.82,0,0,1,12.48,18.14,57.29,57.29,0,0,1,4.24,21.43,46.47,46.47,0,0,1-6,23.32q-6,10.6-19.2,15.78a2.2,2.2,0,0,1-1.29.59,4.45,4.45,0,0,0-1.29.35l21.67,43.57,2.12,3.77q.47.94,1.18,2.12a16.87,16.87,0,0,1,1.18,2.35,20.09,20.09,0,0,1,1.3,2.59,19.6,19.6,0,0,0,1.3,2.59Q604.33,176.84,604.8,179ZM545.92,95.12A21.94,21.94,0,0,0,554,93.59a26.37,26.37,0,0,0,7.07-4.12,24,24,0,0,0,5.3-6A15.59,15.59,0,0,0,568.76,76q.94-11.77-6.12-17.55T544,52.25q-6.83-.47-15-.47H513.65q.23,9.66.12,19.67t-.12,23.67Z"/><path class="cls-7" d="M796,149.76a15.8,15.8,0,0,1,.24,13.31,34.23,34.23,0,0,1-9,11.89,71.46,71.46,0,0,1-29,15.07A74.07,74.07,0,0,1,742,191.57a81.36,81.36,0,0,1-33.92-8,72.23,72.23,0,0,1-15-9.54,48.17,48.17,0,0,1-12.84-16.37,83.87,83.87,0,0,1-6.71-20.37,119.82,119.82,0,0,1-2.24-21.79q-.12-11,.59-20.61a87.9,87.9,0,0,1,3.53-18.14,92.16,92.16,0,0,1,7.89-18.49,87.81,87.81,0,0,1,12.25-16.84,68.14,68.14,0,0,1,16.84-13.19,48.35,48.35,0,0,1,16.37-5.77,71.9,71.9,0,0,1,18.37-.71,65.88,65.88,0,0,1,17.67,4,43.78,43.78,0,0,1,14.25,8.6A51.65,51.65,0,0,1,787,43.54a43.16,43.16,0,0,1,6,12A18.35,18.35,0,0,1,793.1,67q-1.77,5.3-9.54,7.18a11.81,11.81,0,0,1-5.89.35A12.7,12.7,0,0,1,773,72.39a24.68,24.68,0,0,1-4-3.65q-1.89-2.12-3.53-4.24a28.6,28.6,0,0,0-13.19-9.3,30.53,30.53,0,0,0-15-1.18,33,33,0,0,0-23.91,18.49,88.49,88.49,0,0,0-6,17.55,94,94,0,0,0-2.47,19.31,79.58,79.58,0,0,0,1.77,19,44.48,44.48,0,0,0,6.95,16.25,31.38,31.38,0,0,0,9.3,9.19,36.75,36.75,0,0,0,11.89,4.95,35.23,35.23,0,0,0,12.84.47,37.85,37.85,0,0,0,12.6-4.24,24.41,24.41,0,0,0,4.12-2.71l4.59-3.65q2.35-1.88,4.83-3.53a16.92,16.92,0,0,1,5.3-2.36,14.61,14.61,0,0,1,9.3.24A12.84,12.84,0,0,1,796,149.76Z"/><path class="cls-2" d="M845.27,28.23Q861,22.34,873.88,23a51.45,51.45,0,0,1,23,6.48A56,56,0,0,1,914.16,45a87,87,0,0,1,11.66,21.67,104.64,104.64,0,0,1,5.42,18.84,130.1,130.1,0,0,1,1.53,38.86,102.46,102.46,0,0,1-3.42,17.43,72.86,72.86,0,0,1-3.3,9.89,79.75,79.75,0,0,1-4.47,9,50.25,50.25,0,0,1-15.19,16.49,63.26,63.26,0,0,1-35.92,10.72,67.26,67.26,0,0,1-15.78-2.12,65.89,65.89,0,0,1-15-5.89A56.26,56.26,0,0,1,826.66,170a60.73,60.73,0,0,1-12-16.37,94,94,0,0,1-7.3-19.55,115.86,115.86,0,0,1-3.3-20.61,138.4,138.4,0,0,1,0-19.78,101.78,101.78,0,0,1,3.42-18.61A83.56,83.56,0,0,1,815.35,56,76.55,76.55,0,0,1,828,39.42,48.75,48.75,0,0,1,845.27,28.23ZM900.38,129a88.86,88.86,0,0,0,2.36-25,94.13,94.13,0,0,0-4.47-26.14,56.83,56.83,0,0,0-6.48-13.31,28.06,28.06,0,0,0-9.19-8.83,24.31,24.31,0,0,0-12.37-3.06q-7.06,0-15.78,4.24A26.69,26.69,0,0,0,845.62,64a38,38,0,0,0-5.89,10.13,72.43,72.43,0,0,0-3.53,11.78,70.85,70.85,0,0,0-1.53,11.78,114.11,114.11,0,0,0-.24,12.84A86.29,86.29,0,0,0,836,124a71.91,71.91,0,0,0,3.65,12.72A37.45,37.45,0,0,0,846,147.41a32.13,32.13,0,0,0,14.25,9.77,29,29,0,0,0,16.13.83q13-2.83,19.78-17.19A43.39,43.39,0,0,0,900.38,129Z"/><path class="cls-4" d="M1070.67,94.65a122.11,122.11,0,0,1-.12,16q-.59,8.25-1.77,16a95,95,0,0,1-8.71,26.14,59.78,59.78,0,0,1-18.61,21.67,73.42,73.42,0,0,1-29,12.84,199.71,199.71,0,0,1-32.27,4.12,102.23,102.23,0,0,1-11,.35,53.58,53.58,0,0,1-10.72-1.3,12.57,12.57,0,0,1-6.36-2.59,5.4,5.4,0,0,1-1.88-1.88,16.51,16.51,0,0,1-1.18-2.36,9.87,9.87,0,0,1-1.06-2.47q-.35-1.3-.82-2.71c-.16-.79-.28-1.53-.35-2.24a17.6,17.6,0,0,1-.12-2V36.71a8.79,8.79,0,0,1,.47-2.83,20.62,20.62,0,0,1,1.41-5.42,7.73,7.73,0,0,1,2.59-4,11.26,11.26,0,0,1,2.83-1.77l2.59-1.06a5.35,5.35,0,0,1,2.94-.12,5.06,5.06,0,0,0,3.42-.59l39.33.94a60.84,60.84,0,0,1,27.79,7.18,72.92,72.92,0,0,1,21,17.08,81.17,81.17,0,0,1,13.66,23.2A89,89,0,0,1,1070.67,94.65Zm-43.81,44.75a52,52,0,0,0,6.59-16.25,74.87,74.87,0,0,0,1.88-18.72,82,82,0,0,0-2.59-18.61,61,61,0,0,0-6.59-16.13,27.43,27.43,0,0,0-8.48-8.48,42.64,42.64,0,0,0-11.54-5.06,79.68,79.68,0,0,0-13.54-2.47q-7.19-.71-14-.71.23,6.83.24,13.19V79.57q-.24,8.48-.24,16.49v63.59q7.3-.23,14-.82a55,55,0,0,0,13-2.71,42.57,42.57,0,0,0,11.54-6A40.76,40.76,0,0,0,1026.86,139.4Z"/><path class="cls-3" d="M1091.39,164.36l.24-18.61.24-34.62q.23-7.54.24-15.54V64q0-6.59.47-14.84v-.94q.23-2.35.35-4.83t.12-5.06a24.69,24.69,0,0,1,2.59-9.19,15.35,15.35,0,0,1,4.95-5.65,16.3,16.3,0,0,1,7.3-1.88q1.88,0,3.42.12c1,.08,2,.2,2.94.35a9.63,9.63,0,0,1,5.42,2.83,10.55,10.55,0,0,1,2.59,3.77c.31.94.59,1.85.83,2.71s.43,1.77.59,2.71q.23,1.65.35,3.06t.12,2.83q0,1.65-.12,2.94c-.08.87-.12,1.77-.12,2.71v4l-1.41,122.24v2.36a16.91,16.91,0,0,1-.12,1.77q-.12,1.06-.35,2.47a22.12,22.12,0,0,0-.82,2.47c-.24.86-.51,1.77-.82,2.71a22.58,22.58,0,0,1-1.53,2.24,12.2,12.2,0,0,1-2,2q-1.89,1.88-6.12,2.59a18.48,18.48,0,0,1-12-1.18,10.48,10.48,0,0,1-4-4.71,2,2,0,0,1-.71-1.41,2.75,2.75,0,0,0-.47-.71,2.69,2.69,0,0,1-.47-.71,12.57,12.57,0,0,1-.71-2.47,14.93,14.93,0,0,1-.24-2.71,23.77,23.77,0,0,1-.35-2.36q-.12-1.18-.35-2.36a16.93,16.93,0,0,1,0-4Z"/></g></g></svg>