<svg xmlns="http://www.w3.org/2000/svg" viewBox="0 0 1649.37 328.82"><defs><style>.cls-1{opacity:0.5;}.cls-2{fill:#7cc1bd;}.cls-3{fill:#fff;}.cls-4{fill:#b6d141;stroke:#aabc3f;}.cls-4,.cls-5,.cls-6,.cls-7,.cls-8,.cls-9{stroke-miterlimit:10;}.cls-4,.cls-8,.cls-9{stroke-width:3.65px;}.cls-5{fill:#409dea;stroke:#3789b7;}.cls-5,.cls-6,.cls-7{stroke-width:4.53px;}.cls-6{fill:#ffca4c;stroke:#e8a623;}.cls-7{fill:#f77b6f;stroke:#d65e58;}.cls-8{fill:#ff9a48;stroke:#e2823b;}.cls-9{fill:#f47ae3;stroke:#e073d5;}</style></defs><title>W1649.372px_H328.823</title><g id="Layer_2" data-name="Layer 2"><g id="_1.동산_배경" data-name="1.동산_배경"><g class="cls-1"><path class="cls-2" d="M916.43,276.15q-.65-2.89-1.6-7.38a28.31,28.31,0,0,0-3.34-8.53l-.05-.12a58.22,58.22,0,0,0-2.58-5.4,53.84,53.84,0,0,0-2.76-5.24c-.41-.68-.56-1-.57-1q-.32-.65-.68-1.29l-2.63-4.68L884,206A74.48,74.48,0,0,0,902,184.74a93.83,93.83,0,0,0,12.15-46.85,109.36,109.36,0,0,0-8-40.75,97.26,97.26,0,0,0-24.79-36l-.1-.09A86.21,86.21,0,0,0,866.46,50.6q-1.1-.64-2.26-1.18c-3.87-1.8-8.12-3.61-12.57-5.34a116.58,116.58,0,0,0-26.56-6.84c-7.76-1.07-15.27-1.87-22.34-2.36l-.69,0c-10.17-.46-20.44-.69-30.5-.69-9.51,0-19.15-.11-28.68-.32-1.24,0-2.46-.07-3.63-.07a55.5,55.5,0,0,0-19,2.9,46.28,46.28,0,0,0-13.4,7.27,49.68,49.68,0,0,0-11.09-5,91,91,0,0,0-10-2.9,61.9,61.9,0,0,0-12.17-1.51c-2.94-.23-6-.35-9-.35-1.81,0-3.5-.07-5-.21q-1.29-.12-2.59-.12h-1c-8.63-.22-17-.33-24.94-.33s-16.53.11-25.59.33c-4.86,0-8.71.07-11.83.19-2.16.09-4.26.14-6.26.14H570.62q-.8,0-1.59,0c-.77,0-1.57,0-2.39,0a47.64,47.64,0,0,0-24,6.51A40.75,40.75,0,0,0,534.87,46,43.32,43.32,0,0,0,531,43.59a60.94,60.94,0,0,0-9.57-4.33,64.94,64.94,0,0,0-13.29-3.74c-3.44-.57-7.06-1-10.74-1.29l-1.21-.07c-12.76-.45-25.8-.73-38.77-.85q-6.42-.05-12.85-.05c-8.65,0-17.48.08-26.23.22H418c-7.37.21-14.52.32-21.27.32H369a72.06,72.06,0,0,0-8.62.53,78.35,78.35,0,0,0-14.64,2.94A53.2,53.2,0,0,0,335,41.59c-1,.52-1.89,1-2.75,1.52l-.32-.33a28.36,28.36,0,0,0-2.11-1.91,47.56,47.56,0,0,0-21-9.83,53.47,53.47,0,0,0-21.08,0,53.12,53.12,0,0,0-19.15,7.88,43,43,0,0,0-16,19.46,60,60,0,0,0-5.56,23.21c-.42,9-.7,18.76-.82,29l-24-37.74q-.28-.44-.57-.87l-3.65-5.31q-.6-.87-1.26-1.69l-.13-.17c-.19-.32-.51-.89-.94-1.73A28.37,28.37,0,0,0,212.48,58c-.6-.75-1.21-1.54-1.8-2.36l-.07-.1a58.64,58.64,0,0,0-4.75-5.7,53,53,0,0,0-5.15-5.27c-1.33-1.18-2.74-2.37-4.21-3.55a28.39,28.39,0,0,0-3.2-2.23c-1.69-1-3.41-2-5.14-2.83l-.15-.08c-1.74-.86-3.52-1.66-5.27-2.37a28.46,28.46,0,0,0-4.26-1.34,53.92,53.92,0,0,0-12.09-1.32,67.68,67.68,0,0,0-7.66.45,50.52,50.52,0,0,0-21,6.94,46.29,46.29,0,0,0-11.1,9.14,37.67,37.67,0,0,0-3.09-3.13,41.91,41.91,0,0,0-22.37-11.12c-2.06-.33-4.2-.59-6.37-.76H94.7c-2.17-.16-4.5-.25-6.94-.25a51.09,51.09,0,0,0-23,5.65A28.23,28.23,0,0,0,61,40.09,49.78,49.78,0,0,0,45.13,58.47l-.23.46a63,63,0,0,0-6.37,23.6q0,.77,0,1.55c0,2,0,3.91-.13,5.75s-.22,3.68-.4,5.42c-.09.92-.14,1.85-.14,2.78v.52c-.44,7.88-.66,15.18-.66,21.73v44.5c0,7.09-.11,14.17-.32,21,0,.23,0,.45,0,.68l-.33,48.74-.33,26.15c0,.12,0,4,0,4a51.7,51.7,0,0,0,.22,10.5q.12,1,.31,1.93c0,.24.08.48.11.71.11,1.13.26,2.27.44,3.41a48.82,48.82,0,0,0,.7,5.93,46.18,46.18,0,0,0,2.58,9q.41,1,.89,2,.58,1.17,1.23,2.27a31.27,31.27,0,0,0,2.26,4.05,43.7,43.7,0,0,0,14.15,15.32,28.34,28.34,0,0,0,3.94,2.2,53.78,53.78,0,0,0,22.54,4.94,56.92,56.92,0,0,0,11.61-1.22c8.88-1.6,16.26-5,22-10.21a46.06,46.06,0,0,0,5.07-5,50.33,50.33,0,0,0,16.14,12.25,45.87,45.87,0,0,0,20.17,4.46,59,59,0,0,0,11.36-1.16,47.28,47.28,0,0,0,20.92-9.33l.66-.54a48.45,48.45,0,0,0,14.53-21A59.61,59.61,0,0,0,211.42,276v-2.88l.24-30.68,1.48,2.23q9.56,14.84,19,29.52A349.76,349.76,0,0,0,254.32,305a50.45,50.45,0,0,0,15.2,13.31A62.86,62.86,0,0,0,286.18,325,54.85,54.85,0,0,0,299,326.54a56.14,56.14,0,0,0,7.38-.49,46,46,0,0,0,22.76-9.83,44.35,44.35,0,0,0,16.78-27.42,127.52,127.52,0,0,0,1.9-15.25,92.84,92.84,0,0,0,0-13.07c-.17-2.26-.25-4.62-.25-7,0-.08,0-.15,0-.23-.22-27.5-.39-55.95-.5-84.57-.05-13.7-.1-27.58-.12-41.55,2.35.55,5,1.07,8.1,1.56l6.1,1,.51.08c1.69.25,4.5.57,11.19.92,2.68.14,5.48.26,8.36.36V273.71a48.51,48.51,0,0,0,1.59,12.39,47.41,47.41,0,0,0,4.69,13.53A49,49,0,0,0,397.15,313a28.31,28.31,0,0,0,2.66,2.35,44.37,44.37,0,0,0,21.26,8.56A56.24,56.24,0,0,0,431.95,325a50.63,50.63,0,0,0,22.82-5.35,28.48,28.48,0,0,0,2.67-1.52c7.4-4.76,12.89-10.62,16.33-17.48l.23-.45a28.33,28.33,0,0,0,3.09-5.75,49.68,49.68,0,0,0,2.31-7.4l0-.16a43,43,0,0,0,1-7.63,20.69,20.69,0,0,1,.34-2.36q.08-.37.16-.74a42.69,42.69,0,0,0,.86-8.28v-2.49a28.39,28.39,0,0,0-.32-4.27c0-.17,0-.4,0-.71V235.19c0-18.67.05-34.24.17-47.6q.16-20.54.33-36.13c.09-8.14.14-15.32.16-21.77h16.5a61.22,61.22,0,0,0,8.69-.62,28.19,28.19,0,0,0,2.8-.55c1-.26,1.76-.39,2.09-.43q2-.28,4-.7c-.05,4.65-.08,9.76-.08,15.47v44l-.66,47.62c0,.13,0,25.87,0,25.87a49.53,49.53,0,0,0-.33,5.74v5.31a28.33,28.33,0,0,0,.54,5.48c0,.24.08.48.11.71.12,1.17.27,2.35.46,3.53a48.71,48.71,0,0,0,.68,5.48,46.17,46.17,0,0,0,2.58,9q.41,1,.89,2,.58,1.16,1.23,2.27a31.48,31.48,0,0,0,2.81,4.86,43.4,43.4,0,0,0,13.89,14.37,45.84,45.84,0,0,0,25.61,7.35c1.14,0,2.31,0,3.48-.11h14.09c1.79,0,3.78,0,6,.14,3,.12,6.86.19,11.44.19,9.37.22,18.7.33,27.74.33s18-.11,26.76-.33H655q1.3,0,2.59-.12c1.54-.14,3.24-.21,5-.21,3,0,6-.12,9-.34a66.78,66.78,0,0,0,23.26-4.5,45.12,45.12,0,0,0,10.9-5.1c.65.56,1.31,1.12,2,1.63a28.44,28.44,0,0,0,2.74,1.82,58.22,58.22,0,0,0,16.19,6.44l.81.17A59.06,59.06,0,0,0,739,327.59a48.41,48.41,0,0,0,25.85-7.19l.84-.54a49,49,0,0,0,14.8-15.34,50.44,50.44,0,0,0,6.64-17.07q.11-.58.19-1.17c.31-2.24.56-4.63.72-7.18s.22-4.36.22-6.06c0-1.12,0-2.09.1-3,.16-2.22.24-4.57.24-7V235.31l25.92,49.27a98.14,98.14,0,0,0,4.8,9.05q2.14,3.55,3.92,6.41l.23.36A73.4,73.4,0,0,0,838,316.76a43,43,0,0,0,23.56,10.58,40.47,40.47,0,0,0,7.24.66,39.46,39.46,0,0,0,7.72-.76c2-.41,4.14-.88,6.42-1.45a28.28,28.28,0,0,0,3.39-1.07,65.13,65.13,0,0,0,12.82-6.51q1-.69,2-1.47a51.09,51.09,0,0,0,6.35-6l.1-.11a38,38,0,0,0,7.36-13,43.29,43.29,0,0,0,2-18.06A28.46,28.46,0,0,0,916.43,276.15ZM685.19,127.56l1-.1q1.45-.11,2.88-.31v2.77l-.41-.13q-3.21-.87-6.51-1.66Q683.66,127.9,685.19,127.56Zm-.38,104.38q-1.14-.29-2.31-.48a55.07,55.07,0,0,0-8.92-.71H653.12l-37.59-.38.09-8.84,33.45-.18H664.6A72.79,72.79,0,0,0,678,220.1,67.94,67.94,0,0,0,689.06,218v14.57c-1.3-.22-2.6-.41-3.92-.52Zm125-98.22c-.16.16-.33.31-.52.47a8.9,8.9,0,0,1-2.46,1.41,2.6,2.6,0,0,1-1,.17h-17q0-2.24,0-4.35c4.39.09,8.54.27,12.39.53l.77,0a22.54,22.54,0,0,1,7.84,1.47C809.76,133.55,809.76,133.63,809.76,133.72Z"/><path class="cls-2" d="M1649.11,80.12V80c-.16-1.82-.38-3.78-.67-5.83q-.05-.38-.12-.77c-.38-2.25-.86-4.46-1.44-6.59-.46-1.69-1-3.47-1.6-5.28a28.38,28.38,0,0,0-1.11-2.83,42.76,42.76,0,0,0-10.23-14.4,41.9,41.9,0,0,0-22.37-11.12c-2.06-.33-4.2-.59-6.37-.76H1605c-2.17-.16-4.5-.25-6.94-.25a51.1,51.1,0,0,0-23,5.65,28.2,28.2,0,0,0-3.8,2.29,49.78,49.78,0,0,0-15.86,18.38l-.23.46a63,63,0,0,0-6.37,23.6q0,.77,0,1.55c0,1.58,0,3.14-.09,4.66a142.35,142.35,0,0,0-9-11.95,131.53,131.53,0,0,0-37.63-30.69c-15.41-8.44-32.88-13-51.94-13.6l-55.65-1.33h-.68a28.33,28.33,0,0,0-5.92.63h-.72A35.71,35.71,0,0,0,1376,33.6q-.85.28-1.67.61l-4,1.64a43.88,43.88,0,0,0-10.51,6.3,38.35,38.35,0,0,0-12.65,17.77,55.71,55.71,0,0,0-3.26,11.71A107,107,0,0,0,1314.59,47a100.92,100.92,0,0,0-44.85-12.8c-1.8-.1-3.65-.15-5.48-.15-14.38,0-30,3.1-46.33,9.2l-.19.07a97.24,97.24,0,0,0-34.36,22.22,136.5,136.5,0,0,0-11.89,13.59c-.85-1.34-1.72-2.68-2.64-4a100.28,100.28,0,0,0-15.39-17.77,90.28,90.28,0,0,0-29-17.53A121.74,121.74,0,0,0,1092,32.43c-3.87-.34-7.78-.52-11.63-.52a129.58,129.58,0,0,0-21.5,1.8,96.79,96.79,0,0,0-32.4,11.46,124.73,124.73,0,0,0-30.51,24,152.74,152.74,0,0,0-21.2,29.16,158.91,158.91,0,0,0-13.53,31.75,152.93,152.93,0,0,0-6.08,31.43l0,.22c-.72,9.87-1,20.45-.9,31.42A198.14,198.14,0,0,0,957.91,229a147.17,147.17,0,0,0,11.74,35.58,96.42,96.42,0,0,0,25.56,32.62,130.67,130.67,0,0,0,26.93,17.19,143.07,143.07,0,0,0,59.67,14.06h2a132.56,132.56,0,0,0,27.36-2.78l.59-.13a129,129,0,0,0,53.18-27.63,82.44,82.44,0,0,0,11.94-13c1.57,1.73,3.18,3.42,4.85,5.05a107.89,107.89,0,0,0,24.82,18.5,121.66,121.66,0,0,0,27.52,10.83,123.61,123.61,0,0,0,28.9,3.88h1.72A117.6,117.6,0,0,0,1330,303.09a97.77,97.77,0,0,0,14.75-12.37q.41,1.25.69,2.27a42.23,42.23,0,0,0,3.35,8.49,53.19,53.19,0,0,0,2.85,5.44,36.25,36.25,0,0,0,10,10.84,46,46,0,0,0,20.35,8.68,104.64,104.64,0,0,0,20,2.36q1.85,0,3.69,0c4.74,0,9.51-.2,14.19-.58a311.68,311.68,0,0,0,49.49-6.37,132.14,132.14,0,0,0,51.82-23,115.81,115.81,0,0,0,25.26-25.1c.06.72.12,1.45.21,2.16s.19,1.29.31,1.93c0,.24.08.48.11.71.11,1.13.26,2.27.44,3.41a48.73,48.73,0,0,0,.7,5.93,46.18,46.18,0,0,0,2.58,9q.41,1,.89,2,.58,1.17,1.23,2.27a31.33,31.33,0,0,0,2.26,4.05,43.71,43.71,0,0,0,14.15,15.32,28.4,28.4,0,0,0,3.94,2.2,53.77,53.77,0,0,0,22.54,4.94,56.92,56.92,0,0,0,11.61-1.22c8.88-1.6,16.26-5,22-10.21a45.73,45.73,0,0,0,6.46-6.71,60.83,60.83,0,0,0,4.07-5.94,28.38,28.38,0,0,0,2.61-5.67c.6-1.82,1.14-3.59,1.61-5.3.06-.22.1-.32.1-.32a28.36,28.36,0,0,0,1.69-6c.29-1.8.52-3.38.69-4.84l0-.14a51,51,0,0,0,.33-5.58v-3.16l2-172.19c0-.11,0-6,0-6,0-.6,0-1,0-1.18v-.12c.18-2.07.28-4.31.28-6.67C1649.37,84.35,1649.28,82.23,1649.11,80.12ZM1126.63,204a52.41,52.41,0,0,0-15.33,7c-3,2-6,4.18-8.79,6.43-2.17,1.74-4.28,3.41-6.3,5-.62.49-1,.73-1.12.82l-.59.31a25.16,25.16,0,0,1-8.41,2.88,22.24,22.24,0,0,1-3.19.24,21.29,21.29,0,0,1-4.67-.52,23.45,23.45,0,0,1-7.67-3.19,15.87,15.87,0,0,1-4.78-4.77l-.37-.54a34.43,34.43,0,0,1-5.32-12.7,84.36,84.36,0,0,1-1.85-20,104.62,104.62,0,0,1,2.75-21.44,97.16,97.16,0,0,1,6.53-19.17,17.09,17.09,0,0,1,5.39-6.74,17.59,17.59,0,0,1,7.52-3.44,13.5,13.5,0,0,1,2.35-.21,16,16,0,0,1,5,.87c1.19.39,3,1.23,5.38,4,1.83,2.34,3.8,4.7,5.84,7a63.18,63.18,0,0,0,10.21,9.28,46.14,46.14,0,0,0,17,7.67,41.73,41.73,0,0,0,9.26,1,45,45,0,0,0,5.75-.39,228,228,0,0,0,.2,28.61c.23,3.34.56,6.69,1,10-.71,0-1.42,0-2.13,0A46.53,46.53,0,0,0,1126.63,204Zm151.45,1q-.14.54-.25,1.08a33.38,33.38,0,0,1-3.14,9q-.38.69-.72,1.41c-3.66,7.7-6.82,8.39-8.34,8.72l-.46.1a12,12,0,0,1-2.79.34,14.14,14.14,0,0,1-4.5-.8,16.73,16.73,0,0,1-7.54-5.35,24.57,24.57,0,0,1-4.09-7,73.57,73.57,0,0,1-3.7-13,93.9,93.9,0,0,1-1.66-14.55,133.28,133.28,0,0,1,.26-14.91q0-.51.06-1a72.2,72.2,0,0,1,1.57-11.91,74.23,74.23,0,0,1,3.6-12,25.24,25.24,0,0,1,3.9-6.78,9.25,9.25,0,0,1,3.07-2.48c5.83-2.82,8.88-3,9.67-3a7.66,7.66,0,0,1,3.25.51,11.93,11.93,0,0,1,3.62,3.74,52.16,52.16,0,0,1,5.77,12,105.2,105.2,0,0,1,4.85,28.8A97.8,97.8,0,0,1,1278.08,204.92Zm187.48-7.66a45.76,45.76,0,0,1-5.52,14,30.1,30.1,0,0,1-6.71,7.59,31.47,31.47,0,0,1-8.62,4.48l-.57.19v-58c0-7.29.11-14.84.32-22.45,0-.26,0-.53,0-.79v-6.4q1.32.31,2.59.67a31.65,31.65,0,0,1,8.62,3.73,10.22,10.22,0,0,1,3.11,3,58.73,58.73,0,0,1,5.94,14.89,87.79,87.79,0,0,1,2.75,19.81A77.7,77.7,0,0,1,1465.55,197.26Z"/></g><path class="cls-3" d="M880.43,246.15q-.65-2.89-1.6-7.38a28.31,28.31,0,0,0-3.34-8.53l-.05-.12a58.22,58.22,0,0,0-2.58-5.4,53.84,53.84,0,0,0-2.76-5.24c-.41-.68-.56-1-.57-1q-.32-.65-.68-1.29l-2.63-4.68L848,176A74.48,74.48,0,0,0,866,154.74a93.83,93.83,0,0,0,12.15-46.85,109.36,109.36,0,0,0-8-40.75,97.26,97.26,0,0,0-24.79-36l-.1-.09A86.21,86.21,0,0,0,830.46,20.6q-1.1-.64-2.26-1.18c-3.87-1.8-8.12-3.61-12.57-5.34a116.58,116.58,0,0,0-26.56-6.84c-7.76-1.07-15.27-1.87-22.34-2.36l-.69,0c-10.17-.46-20.44-.69-30.5-.69-9.51,0-19.15-.11-28.68-.32-1.24,0-2.46-.07-3.63-.07a55.5,55.5,0,0,0-19,2.9,46.28,46.28,0,0,0-13.4,7.27,49.68,49.68,0,0,0-11.09-5,91,91,0,0,0-10-2.9A61.9,61.9,0,0,0,637.61,4.5c-2.94-.23-6-.35-9-.35-1.81,0-3.5-.07-5-.21q-1.29-.12-2.59-.12h-1c-8.63-.22-17-.33-24.94-.33s-16.53.11-25.59.33c-4.86,0-8.71.07-11.83.19-2.16.09-4.26.14-6.26.14H534.62q-.8,0-1.59,0c-.77,0-1.57,0-2.39,0a47.64,47.64,0,0,0-24,6.51A40.75,40.75,0,0,0,498.87,16,43.32,43.32,0,0,0,495,13.59a60.94,60.94,0,0,0-9.57-4.33,64.94,64.94,0,0,0-13.29-3.74c-3.44-.57-7.06-1-10.74-1.29l-1.21-.07c-12.76-.45-25.8-.73-38.77-.85Q415,3.27,408.6,3.27c-8.65,0-17.48.08-26.23.22H382c-7.37.21-14.52.32-21.27.32H333a72.06,72.06,0,0,0-8.62.53,78.35,78.35,0,0,0-14.64,2.94A53.2,53.2,0,0,0,299,11.59c-1,.52-1.89,1-2.75,1.52l-.32-.33a28.36,28.36,0,0,0-2.11-1.91,47.56,47.56,0,0,0-21-9.83,53.47,53.47,0,0,0-21.08,0,53.12,53.12,0,0,0-19.15,7.88,43,43,0,0,0-16,19.46,60,60,0,0,0-5.56,23.21c-.42,9-.7,18.76-.82,29l-24-37.74q-.28-.44-.57-.87l-3.65-5.31q-.6-.87-1.26-1.69l-.13-.17c-.19-.32-.51-.89-.94-1.73A28.37,28.37,0,0,0,176.48,28c-.6-.75-1.21-1.54-1.8-2.36l-.07-.1a58.64,58.64,0,0,0-4.75-5.7,53,53,0,0,0-5.15-5.27c-1.33-1.18-2.74-2.37-4.21-3.55a28.39,28.39,0,0,0-3.2-2.23c-1.69-1-3.41-2-5.14-2.83L152,5.93c-1.74-.86-3.52-1.66-5.27-2.37a28.46,28.46,0,0,0-4.26-1.34A53.92,53.92,0,0,0,130.39.9a67.68,67.68,0,0,0-7.66.45,50.52,50.52,0,0,0-21,6.94,46.29,46.29,0,0,0-11.1,9.14,37.67,37.67,0,0,0-3.09-3.13A41.91,41.91,0,0,0,65.21,3.18c-2.06-.33-4.2-.59-6.37-.76H58.7c-2.17-.16-4.5-.25-6.94-.25a51.09,51.09,0,0,0-23,5.65A28.23,28.23,0,0,0,25,10.09,49.78,49.78,0,0,0,9.13,28.47l-.23.46a63,63,0,0,0-6.37,23.6q0,.77,0,1.55c0,2,0,3.91-.13,5.75s-.22,3.68-.4,5.42c-.09.92-.14,1.85-.14,2.78v.52c-.44,7.88-.66,15.18-.66,21.73v44.5c0,7.09-.11,14.17-.32,21,0,.23,0,.45,0,.68L.5,205.25.17,231.4c0,.12,0,4,0,4a51.7,51.7,0,0,0,.22,10.5q.12,1,.31,1.93c0,.24.08.48.11.71.11,1.13.26,2.27.44,3.41a48.82,48.82,0,0,0,.7,5.93,46.18,46.18,0,0,0,2.58,9q.41,1,.89,2,.58,1.17,1.23,2.27a31.27,31.27,0,0,0,2.26,4.05,43.7,43.7,0,0,0,14.15,15.32,28.34,28.34,0,0,0,3.94,2.2,53.78,53.78,0,0,0,22.54,4.94,56.92,56.92,0,0,0,11.61-1.22c8.88-1.6,16.26-5,22-10.21a46.06,46.06,0,0,0,5.07-5,50.33,50.33,0,0,0,16.14,12.25,45.87,45.87,0,0,0,20.17,4.46,59,59,0,0,0,11.36-1.16,47.28,47.28,0,0,0,20.92-9.33l.66-.54a48.45,48.45,0,0,0,14.53-21A59.61,59.61,0,0,0,175.42,246v-2.88l.24-30.68,1.48,2.23q9.56,14.84,19,29.52A349.76,349.76,0,0,0,218.32,275a50.45,50.45,0,0,0,15.2,13.31A62.86,62.86,0,0,0,250.18,295,54.85,54.85,0,0,0,263,296.54a56.14,56.14,0,0,0,7.38-.49,46,46,0,0,0,22.76-9.83,44.35,44.35,0,0,0,16.78-27.42,127.52,127.52,0,0,0,1.9-15.25,92.84,92.84,0,0,0,0-13.07c-.17-2.26-.25-4.62-.25-7,0-.08,0-.15,0-.23-.22-27.5-.39-55.95-.5-84.57C311,125,311,111.08,311,97.11c2.35.55,5,1.07,8.1,1.56l6.1,1,.51.08c1.69.25,4.5.57,11.19.92,2.68.14,5.48.26,8.36.36V243.71a48.51,48.51,0,0,0,1.59,12.39,47.41,47.41,0,0,0,4.69,13.53A49,49,0,0,0,361.15,283a28.31,28.31,0,0,0,2.66,2.35,44.37,44.37,0,0,0,21.26,8.56A56.24,56.24,0,0,0,395.95,295a50.63,50.63,0,0,0,22.82-5.35,28.48,28.48,0,0,0,2.67-1.52c7.4-4.76,12.89-10.62,16.33-17.48l.23-.45a28.33,28.33,0,0,0,3.09-5.75,49.68,49.68,0,0,0,2.31-7.4l0-.16a43,43,0,0,0,1-7.63,20.69,20.69,0,0,1,.34-2.36q.08-.37.16-.74a42.69,42.69,0,0,0,.86-8.28v-2.49a28.39,28.39,0,0,0-.32-4.27c0-.17,0-.4,0-.71V205.19c0-18.67.05-34.24.17-47.6q.16-20.54.33-36.13c.09-8.14.14-15.32.16-21.77h16.5a61.22,61.22,0,0,0,8.69-.62,28.19,28.19,0,0,0,2.8-.55c1-.26,1.76-.39,2.09-.43q2-.28,4-.7c-.05,4.65-.08,9.76-.08,15.47v44l-.66,47.62c0,.13,0,25.87,0,25.87a49.53,49.53,0,0,0-.33,5.74v5.31a28.33,28.33,0,0,0,.54,5.48c0,.24.08.48.11.71.12,1.17.27,2.35.46,3.53a48.71,48.71,0,0,0,.68,5.48,46.17,46.17,0,0,0,2.58,9q.41,1,.89,2,.58,1.16,1.23,2.27a31.48,31.48,0,0,0,2.81,4.86,43.4,43.4,0,0,0,13.89,14.37,45.84,45.84,0,0,0,25.61,7.35c1.14,0,2.31,0,3.48-.11h14.09c1.79,0,3.78,0,6,.14,3,.12,6.86.19,11.44.19,9.37.22,18.7.33,27.74.33s18-.11,26.76-.33H619q1.3,0,2.59-.12c1.54-.14,3.24-.21,5-.21,3,0,6-.12,9-.34a66.78,66.78,0,0,0,23.26-4.5,45.12,45.12,0,0,0,10.9-5.1c.65.56,1.31,1.12,2,1.63a28.44,28.44,0,0,0,2.74,1.82,58.22,58.22,0,0,0,16.19,6.44l.81.17A59.06,59.06,0,0,0,703,297.59a48.41,48.41,0,0,0,25.85-7.19l.84-.54a49,49,0,0,0,14.8-15.34,50.44,50.44,0,0,0,6.64-17.07q.11-.58.19-1.17c.31-2.24.56-4.63.72-7.18s.22-4.36.22-6.06c0-1.12,0-2.09.1-3,.16-2.22.24-4.57.24-7V205.31l25.92,49.27a98.14,98.14,0,0,0,4.8,9.05q2.14,3.55,3.92,6.41l.23.36A73.4,73.4,0,0,0,802,286.76a43,43,0,0,0,23.56,10.58,40.47,40.47,0,0,0,7.24.66,39.46,39.46,0,0,0,7.72-.76c2-.41,4.14-.88,6.42-1.45a28.28,28.28,0,0,0,3.39-1.07,65.13,65.13,0,0,0,12.82-6.51q1-.69,2-1.47a51.09,51.09,0,0,0,6.35-6l.1-.11a38,38,0,0,0,7.36-13,43.29,43.29,0,0,0,2-18.06A28.46,28.46,0,0,0,880.43,246.15ZM649.19,97.56l1-.1q1.45-.11,2.88-.31v2.77l-.41-.13q-3.21-.87-6.51-1.66Q647.66,97.9,649.19,97.56Zm-.38,104.38q-1.14-.29-2.31-.48a55.07,55.07,0,0,0-8.92-.71H617.12l-37.59-.38.09-8.84,33.45-.18H628.6A72.79,72.79,0,0,0,642,190.1,67.94,67.94,0,0,0,653.06,188v14.57c-1.3-.22-2.6-.41-3.92-.52Zm125-98.22c-.16.16-.33.31-.52.47a8.9,8.9,0,0,1-2.46,1.41,2.6,2.6,0,0,1-1,.17h-17q0-2.24,0-4.35c4.39.09,8.54.27,12.39.53l.77,0a22.54,22.54,0,0,1,7.84,1.47C773.76,103.55,773.76,103.63,773.76,103.72Z"/><path class="cls-3" d="M1613.11,50.12V50c-.16-1.82-.38-3.78-.67-5.83q-.05-.38-.12-.77c-.38-2.25-.86-4.46-1.44-6.59-.46-1.69-1-3.47-1.6-5.28a28.38,28.38,0,0,0-1.11-2.83,42.76,42.76,0,0,0-10.23-14.4,41.9,41.9,0,0,0-22.37-11.12c-2.06-.33-4.2-.59-6.37-.76H1569c-2.17-.16-4.5-.25-6.94-.25a51.1,51.1,0,0,0-23,5.65,28.2,28.2,0,0,0-3.8,2.29,49.78,49.78,0,0,0-15.86,18.38l-.23.46a63,63,0,0,0-6.37,23.6q0,.77,0,1.55c0,1.58,0,3.14-.09,4.66a142.35,142.35,0,0,0-9-11.95,131.53,131.53,0,0,0-37.63-30.69c-15.41-8.44-32.88-13-51.94-13.6l-55.65-1.33h-.68a28.33,28.33,0,0,0-5.92.63h-.72A35.71,35.71,0,0,0,1340,3.6q-.85.28-1.67.61l-4,1.64a43.88,43.88,0,0,0-10.51,6.3,38.35,38.35,0,0,0-12.65,17.77,55.71,55.71,0,0,0-3.26,11.71A107,107,0,0,0,1278.59,17a100.92,100.92,0,0,0-44.85-12.8c-1.8-.1-3.65-.15-5.48-.15-14.38,0-30,3.1-46.33,9.2l-.19.07a97.24,97.24,0,0,0-34.36,22.22,136.5,136.5,0,0,0-11.89,13.59c-.85-1.34-1.72-2.68-2.64-4a100.28,100.28,0,0,0-15.39-17.77,90.28,90.28,0,0,0-29-17.53A121.74,121.74,0,0,0,1056,2.43c-3.87-.34-7.78-.52-11.63-.52a129.58,129.58,0,0,0-21.5,1.8,96.79,96.79,0,0,0-32.4,11.46,124.73,124.73,0,0,0-30.51,24,152.74,152.74,0,0,0-21.2,29.16,158.91,158.91,0,0,0-13.53,31.75,152.93,152.93,0,0,0-6.08,31.43l0,.22c-.72,9.87-1,20.45-.9,31.42A198.14,198.14,0,0,0,921.91,199a147.17,147.17,0,0,0,11.74,35.58,96.42,96.42,0,0,0,25.56,32.62,130.67,130.67,0,0,0,26.93,17.19,143.07,143.07,0,0,0,59.67,14.06h2a132.56,132.56,0,0,0,27.36-2.78l.59-.13a129,129,0,0,0,53.18-27.63,82.44,82.44,0,0,0,11.94-13c1.57,1.73,3.18,3.42,4.85,5.05a107.89,107.89,0,0,0,24.82,18.5,121.66,121.66,0,0,0,27.52,10.83,123.61,123.61,0,0,0,28.9,3.88h1.72A117.6,117.6,0,0,0,1294,273.09a97.77,97.77,0,0,0,14.75-12.37q.41,1.25.69,2.27a42.23,42.23,0,0,0,3.35,8.49,53.19,53.19,0,0,0,2.85,5.44,36.25,36.25,0,0,0,10,10.84,46,46,0,0,0,20.35,8.68,104.64,104.64,0,0,0,20,2.36q1.85,0,3.69,0c4.74,0,9.51-.2,14.19-.58a311.68,311.68,0,0,0,49.49-6.37,132.14,132.14,0,0,0,51.82-23,115.81,115.81,0,0,0,25.26-25.1c.06.72.12,1.45.21,2.16s.19,1.29.31,1.93c0,.24.08.48.11.71.11,1.13.26,2.27.44,3.41a48.73,48.73,0,0,0,.7,5.93,46.18,46.18,0,0,0,2.58,9q.41,1,.89,2,.58,1.17,1.23,2.27a31.33,31.33,0,0,0,2.26,4.05,43.71,43.71,0,0,0,14.15,15.32,28.4,28.4,0,0,0,3.94,2.2,53.77,53.77,0,0,0,22.54,4.94,56.92,56.92,0,0,0,11.61-1.22c8.88-1.6,16.26-5,22-10.21a45.73,45.73,0,0,0,6.46-6.71,60.83,60.83,0,0,0,4.07-5.94,28.38,28.38,0,0,0,2.61-5.67c.6-1.82,1.14-3.59,1.61-5.3.06-.22.1-.32.1-.32a28.36,28.36,0,0,0,1.69-6c.29-1.8.52-3.38.69-4.84l0-.14a51,51,0,0,0,.33-5.58v-3.16l2-172.19c0-.11,0-6,0-6,0-.6,0-1,0-1.18v-.12c.18-2.07.28-4.31.28-6.67C1613.37,54.35,1613.28,52.23,1613.11,50.12ZM1090.63,174a52.41,52.41,0,0,0-15.33,7c-3,2-6,4.18-8.79,6.43-2.17,1.74-4.28,3.41-6.3,5-.62.49-1,.73-1.12.82l-.59.31a25.16,25.16,0,0,1-8.41,2.88,22.24,22.24,0,0,1-3.19.24,21.29,21.29,0,0,1-4.67-.52,23.45,23.45,0,0,1-7.67-3.19,15.87,15.87,0,0,1-4.78-4.77l-.37-.54a34.43,34.43,0,0,1-5.32-12.7,84.36,84.36,0,0,1-1.85-20,104.62,104.62,0,0,1,2.75-21.44,97.16,97.16,0,0,1,6.53-19.17,17.09,17.09,0,0,1,5.39-6.74,17.59,17.59,0,0,1,7.52-3.44,13.5,13.5,0,0,1,2.35-.21,16,16,0,0,1,5,.87c1.19.39,3,1.23,5.38,4,1.83,2.34,3.8,4.7,5.84,7a63.18,63.18,0,0,0,10.21,9.28,46.14,46.14,0,0,0,17,7.67,41.73,41.73,0,0,0,9.26,1,45,45,0,0,0,5.75-.39,228,228,0,0,0,.2,28.61c.23,3.34.56,6.69,1,10-.71,0-1.42,0-2.13,0A46.53,46.53,0,0,0,1090.63,174Zm151.45,1q-.14.54-.25,1.08a33.38,33.38,0,0,1-3.14,9q-.38.69-.72,1.41c-3.66,7.7-6.82,8.39-8.34,8.72l-.46.1a12,12,0,0,1-2.79.34,14.14,14.14,0,0,1-4.5-.8,16.73,16.73,0,0,1-7.54-5.35,24.57,24.57,0,0,1-4.09-7,73.57,73.57,0,0,1-3.7-13,93.9,93.9,0,0,1-1.66-14.55,133.28,133.28,0,0,1,.26-14.91q0-.51.06-1a72.2,72.2,0,0,1,1.57-11.91,74.23,74.23,0,0,1,3.6-12,25.24,25.24,0,0,1,3.9-6.78,9.25,9.25,0,0,1,3.07-2.48c5.83-2.82,8.88-3,9.67-3a7.66,7.66,0,0,1,3.25.51,11.93,11.93,0,0,1,3.62,3.74,52.16,52.16,0,0,1,5.77,12,105.2,105.2,0,0,1,4.85,28.8A97.8,97.8,0,0,1,1242.08,174.92Zm187.48-7.66a45.76,45.76,0,0,1-5.52,14,30.1,30.1,0,0,1-6.71,7.59,31.47,31.47,0,0,1-8.62,4.48l-.57.19v-58c0-7.29.11-14.84.32-22.45,0-.26,0-.53,0-.79v-6.4q1.32.31,2.59.67a31.65,31.65,0,0,1,8.62,3.73,10.22,10.22,0,0,1,3.11,3,58.73,58.73,0,0,1,5.94,14.89,87.79,87.79,0,0,1,2.75,19.81A77.7,77.7,0,0,1,1429.55,167.26Z"/><path class="cls-4" d="M28.51,231.75l.33-26.24.33-48.82q.33-10.62.33-21.92V90.28q0-9.29.66-20.92V68c.22-2.21.38-4.48.5-6.81s.17-4.7.17-7.14a34.82,34.82,0,0,1,3.65-13,21.65,21.65,0,0,1,7-8,23,23,0,0,1,10.29-2.66q2.65,0,4.82.17t4.15.5a13.58,13.58,0,0,1,7.64,4A14.89,14.89,0,0,1,72,40.47c.44,1.33.83,2.6,1.16,3.82s.61,2.49.83,3.82q.33,2.33.5,4.32t.17,4q0,2.33-.17,4.15c-.11,1.22-.17,2.49-.17,3.82V70l-2,172.36v3.32a23.65,23.65,0,0,1-.17,2.49q-.17,1.49-.5,3.49a31.19,31.19,0,0,0-1.16,3.49c-.33,1.21-.72,2.49-1.16,3.82a32.06,32.06,0,0,1-2.16,3.15A17.29,17.29,0,0,1,64.38,265q-2.66,2.65-8.63,3.65A26.06,26.06,0,0,1,38.81,267a14.75,14.75,0,0,1-5.65-6.64,2.87,2.87,0,0,1-1-2,3.89,3.89,0,0,0-.66-1,3.79,3.79,0,0,1-.66-1,17.7,17.7,0,0,1-1-3.49,21.14,21.14,0,0,1-.33-3.82,33.22,33.22,0,0,1-.5-3.32q-.17-1.67-.5-3.32a23.83,23.83,0,0,1,0-5.65Z"/><path class="cls-5" d="M283.56,241.72a98.52,98.52,0,0,1-1.49,12A16.2,16.2,0,0,1,275.59,264a17.41,17.41,0,0,1-9,4,26.56,26.56,0,0,1-9.8-.5,34.34,34.34,0,0,1-9.13-3.65,22.15,22.15,0,0,1-7-6.14A319.67,319.67,0,0,1,220,228.93q-9.47-14.77-19.1-29.72L173,157q-5.65-9-12-20.09t-13-20.76l-1,126.86v3a31.19,31.19,0,0,1-1.83,10.46,20.31,20.31,0,0,1-6.14,8.8,19.32,19.32,0,0,1-8.63,3.65q-8.3,1.66-13.78-1a21.57,21.57,0,0,1-8.63-7.31,28.3,28.3,0,0,1-4.32-10.79,40.47,40.47,0,0,1-.5-12.12v-5.65l.66-25.9.33-48.15q.33-10.62.33-21.75V113.53q-.34-14.27.17-30.22t1.16-29.89a31.81,31.81,0,0,1,3.65-13q1.32-4.65,7-8a22.29,22.29,0,0,1,9.46-3,30.17,30.17,0,0,1,10.13.33q1.66.67,3.32,1.49t3.32,1.83q1.66,1.33,3.16,2.66a24.78,24.78,0,0,1,2.82,3,30.33,30.33,0,0,1,3,3.49q1.32,1.83,2.66,3.49,1,2,2,3.65a29.47,29.47,0,0,0,2.33,3.32l3.65,5.31L239.06,179V157q0-10.62-.17-21.75t-.5-23.08q0-13.95.17-29.89t.83-29.89q0-5.64,3.32-13a14.5,14.5,0,0,1,5.65-7,24.75,24.75,0,0,1,9-3.65,25.12,25.12,0,0,1,10,0,19.42,19.42,0,0,1,8.63,4,22,22,0,0,1,2,2.33,13.21,13.21,0,0,1,1.66,3,30.28,30.28,0,0,1,2,7.64,40.13,40.13,0,0,1,1,8.3q0,41.52.17,84.68t.5,84.68q0,4.65.33,9.13A63.9,63.9,0,0,1,283.56,241.72Z"/><path class="cls-6" d="M485.47,42.13a13.78,13.78,0,0,1,3.65,9q0,2-.17,4.15a33.67,33.67,0,0,1-.5,3.82,15.84,15.84,0,0,1-4.32,7,18.67,18.67,0,0,1-7.31,3,34.07,34.07,0,0,1-4.65,1,50,50,0,0,0-5,1,32.7,32.7,0,0,1-4.65.33H440.64q-6,.33-11.79.33H417.39q.33,10.3.33,22.08t-.17,27.4q-.17,15.61-.33,36.2t-.17,47.82v25.24a27.37,27.37,0,0,0,.33,5v2.49a15.12,15.12,0,0,1-.33,2.82,51.52,51.52,0,0,0-1,7,14.75,14.75,0,0,1-.33,3.15,21.17,21.17,0,0,1-1,3.16q-1.33,1.32-1.33,2l-1,2q-1.67,3.31-6.31,6.31A23.84,23.84,0,0,1,389.83,266q-5.65-.67-8.63-3a20.24,20.24,0,0,1-4.32-6,18.48,18.48,0,0,1-2.32-7,19.84,19.84,0,0,1-1-6.31V73h-8.3q-6.31,0-13.45-.17t-13.45-.5q-6.31-.33-8.63-.66l-6.14-1q-4.16-.66-6.81-1.33a23.17,23.17,0,0,1-11-6.31,14.52,14.52,0,0,1-3.65-9.63v-4a9.69,9.69,0,0,1,.66-3.65,11,11,0,0,1,5.31-6.64,32.91,32.91,0,0,1,4.15-2.49,24.45,24.45,0,0,1,5.48-2.16,49.69,49.69,0,0,1,10-2,43.44,43.44,0,0,1,5.31-.33h27.73q10.46,0,22.08-.33,19.26-.33,38.36-.17t38,.83q4.31.34,8.3,1a36.42,36.42,0,0,1,8,2.33,32.47,32.47,0,0,1,5.65,2.49A13.22,13.22,0,0,1,485.47,42.13Z"/><path class="cls-7" d="M552.89,71.69l-.67,52.14h13.28q13.61-.33,24.24-.33t23.58.33H615q4,0,7.8.17t7.47.17a55.91,55.91,0,0,1,7.64,1.16q3.65.83,7.31,1.83a22.56,22.56,0,0,1,9.3,6,15.44,15.44,0,0,1,3.32,9.63v3.82a10.23,10.23,0,0,1-.66,3.82,11.27,11.27,0,0,1-4.32,6.64q-1.67,2.33-6.31,3.32A39.35,39.35,0,0,1,637.9,162a44.3,44.3,0,0,1-9.3,1H613l-61.44.33-.66,65.09,66.09.66h20.59a26.73,26.73,0,0,1,4.32.33,28.65,28.65,0,0,0,4.82.83,17.57,17.57,0,0,1,4.15.83,19.27,19.27,0,0,1,6.64,3.65,15.87,15.87,0,0,1,4.32,7,34.88,34.88,0,0,1,.5,3.49,15.19,15.19,0,0,1-.17,3.82,15.44,15.44,0,0,1-3.32,9.63,17.86,17.86,0,0,1-9.3,6,38.4,38.4,0,0,1-15.28,3q-3.66.33-7.64.33t-7.64.33h-2q-25.9.66-53.8,0-6.65,0-10.63-.17t-7.14-.17H530.3q-7.64.66-12.62-2.66A15.56,15.56,0,0,1,512,259a2.87,2.87,0,0,1-1-2,3.86,3.86,0,0,0-.66-1,3.79,3.79,0,0,1-.66-1,17.69,17.69,0,0,1-1-3.49,19.33,19.33,0,0,1-.33-3.49,33.22,33.22,0,0,1-.5-3.32q-.17-1.67-.5-3.32v-5.31a20.78,20.78,0,0,1,.17-2.66,21.8,21.8,0,0,0,.17-2.66v-25.9l.66-47.82V112.86q0-12,.17-21.25t.5-20.26V69.69q.33-3.65.5-6.81t.17-6.48a30.82,30.82,0,0,1,3.65-13,30.23,30.23,0,0,1,2.82-4.65,11.48,11.48,0,0,1,4.15-3.32,19.74,19.74,0,0,1,10.29-3,18,18,0,0,1,4,.33V32.5h16.77q3.49,0,7.47-.17t11-.17q13.28-.33,25.24-.33t24.58.33H621q3.65.34,7.64.33t7.64.33a33.12,33.12,0,0,1,7.31.83,62.24,62.24,0,0,1,7.31,2.16,20,20,0,0,1,9.3,5.65,17.1,17.1,0,0,1,3,9.3v3.82a9.32,9.32,0,0,1-.66,3.49q-.33,3.32-4,7a27,27,0,0,0-2.82,1.66,14.47,14.47,0,0,1-3.49,1.66,17,17,0,0,1-4.15.83c-1.44.11-2.82.28-4.15.5a19.89,19.89,0,0,1-4.81.66H619.31l-66.42.33Z"/><path class="cls-8" d="M852.77,252.34a15.07,15.07,0,0,1-.66,6.31,9.64,9.64,0,0,1-1.83,3.32,22.62,22.62,0,0,1-2.82,2.66,37.69,37.69,0,0,1-7.31,3.65q-2.66.66-5.15,1.16a11.65,11.65,0,0,1-5.15-.17,14.78,14.78,0,0,1-9.3-4,45.05,45.05,0,0,1-9.3-10.29q-1.67-2.66-3.65-6a69,69,0,0,1-3.65-7L767.09,172q-2.66,0-5.31.17t-5.31.5a87.69,87.69,0,0,1-13.12.33,125.15,125.15,0,0,0-12.79,0h-6.31v60.11q0,2.66-.17,5c-.11,1.55-.17,3.21-.17,5q0,1.66-.17,4.32t-.5,5a22.17,22.17,0,0,1-3,7.47,20.75,20.75,0,0,1-6.31,6.48q-7,4.31-16.94,2.33a29.74,29.74,0,0,1-8.3-3.32,10,10,0,0,1-2.32-2.49,17.11,17.11,0,0,1-1.66-3.16,31.87,31.87,0,0,1-1.16-3.49,32.41,32.41,0,0,0-1.16-3.49,22,22,0,0,1-1-6.31V57.74c0-1.33.05-2.71.17-4.15a31.51,31.51,0,0,1,.5-3.82,18.73,18.73,0,0,1,2.32-7.31,9.43,9.43,0,0,1,3.32-5.65,16.61,16.61,0,0,1,6.14-3.49Q698,31.83,706,32.17q14.94.34,29.56.33t29.22.66q9.63.67,20.42,2.16a87.78,87.78,0,0,1,20.09,5.15q6,2.33,11,4.65a59.39,59.39,0,0,1,10,7,68.84,68.84,0,0,1,17.6,25.57,80.79,80.79,0,0,1,6,30.22,65.52,65.52,0,0,1-8.47,32.88q-8.47,14.94-27.06,22.25a3.1,3.1,0,0,1-1.83.83,6.28,6.28,0,0,0-1.83.5l30.55,61.44,3,5.31c.44.89,1,1.88,1.66,3a24,24,0,0,1,1.66,3.32,28.11,28.11,0,0,1,1.83,3.65,27.94,27.94,0,0,0,1.83,3.65Q852.1,249.35,852.77,252.34Zm-83-118.23A30.91,30.91,0,0,0,781.2,132a37.19,37.19,0,0,0,10-5.81,33.93,33.93,0,0,0,7.47-8.47A22,22,0,0,0,802,107.22q1.32-16.6-8.63-24.74t-26.24-8.8Q757.45,73,746,73H724.25q.33,13.62.17,27.73t-.17,33.38Z"/><path class="cls-9" d="M1122.42,211.16a22.27,22.27,0,0,1,.33,18.76,48.24,48.24,0,0,1-12.62,16.77A100.77,100.77,0,0,1,1069.29,268a104.42,104.42,0,0,1-23.08,2.16,114.72,114.72,0,0,1-47.82-11.29,101.86,101.86,0,0,1-21.09-13.45,68,68,0,0,1-18.1-23.08,118.34,118.34,0,0,1-9.46-28.73,169,169,0,0,1-3.15-30.72q-.17-15.44.83-29.06a123.9,123.9,0,0,1,5-25.57,129.94,129.94,0,0,1,11.13-26.07A123.76,123.76,0,0,1,980.78,58.4a96,96,0,0,1,23.75-18.6,68.14,68.14,0,0,1,23.08-8.14,101.4,101.4,0,0,1,25.9-1,92.9,92.9,0,0,1,24.91,5.65,61.77,61.77,0,0,1,20.09,12.12,72.88,72.88,0,0,1,11.13,13,60.93,60.93,0,0,1,8.47,16.94,25.88,25.88,0,0,1,.17,16.11q-2.49,7.47-13.45,10.13a16.67,16.67,0,0,1-8.3.5,17.93,17.93,0,0,1-6.64-3,34.83,34.83,0,0,1-5.64-5.15q-2.66-3-5-6a40.33,40.33,0,0,0-18.6-13.12,43,43,0,0,0-21.09-1.66,46.57,46.57,0,0,0-33.71,26.07A124.75,124.75,0,0,0,997.39,127a132.38,132.38,0,0,0-3.49,27.23,112.26,112.26,0,0,0,2.49,26.73,62.76,62.76,0,0,0,9.8,22.92,44.27,44.27,0,0,0,13.12,13,51.82,51.82,0,0,0,16.77,7,49.7,49.7,0,0,0,18.1.66,53.42,53.42,0,0,0,17.77-6,34.57,34.57,0,0,0,5.81-3.82q3.15-2.49,6.48-5.15t6.81-5a23.91,23.91,0,0,1,7.47-3.32,20.6,20.6,0,0,1,13.12.33A18.09,18.09,0,0,1,1122.42,211.16Z"/><path class="cls-4" d="M1191.83,39.8q22.25-8.3,40.35-7.31a72.52,72.52,0,0,1,32.38,9.13A79,79,0,0,1,1289,63.38a122.67,122.67,0,0,1,16.44,30.55A147.69,147.69,0,0,1,1313,120.5a183.42,183.42,0,0,1,2.16,54.79,144.59,144.59,0,0,1-4.81,24.58,103.06,103.06,0,0,1-4.65,13.95,112.38,112.38,0,0,1-6.31,12.62A70.83,70.83,0,0,1,1278,249.69a89.21,89.21,0,0,1-50.64,15.11,94.79,94.79,0,0,1-22.25-3,92.9,92.9,0,0,1-21.09-8.3,79.33,79.33,0,0,1-18.43-13.78,85.61,85.61,0,0,1-16.94-23.08,132.64,132.64,0,0,1-10.29-27.56,163.32,163.32,0,0,1-4.65-29.06,195.44,195.44,0,0,1,0-27.9,143.53,143.53,0,0,1,4.82-26.24A117.71,117.71,0,0,1,1149.65,79a107.9,107.9,0,0,1,17.77-23.41A68.74,68.74,0,0,1,1191.83,39.8Zm77.71,142.14q4-15.61,3.32-35.2a132.78,132.78,0,0,0-6.31-36.86,80.08,80.08,0,0,0-9.13-18.76,39.54,39.54,0,0,0-13-12.45A34.27,34.27,0,0,0,1227,74.34q-10,0-22.25,6a37.62,37.62,0,0,0-12.45,10,53.53,53.53,0,0,0-8.3,14.28,102,102,0,0,0-5,16.61,100,100,0,0,0-2.16,16.6,161.17,161.17,0,0,0-.33,18.1,121.72,121.72,0,0,0,2.16,18.93,101.42,101.42,0,0,0,5.15,17.93,52.85,52.85,0,0,0,9,15.11,45.31,45.31,0,0,0,20.09,13.78,40.92,40.92,0,0,0,22.75,1.16q18.26-4,27.9-24.24A61.27,61.27,0,0,0,1269.54,181.94Z"/><path class="cls-6" d="M1509.64,133.45a172.06,172.06,0,0,1-.17,22.58q-.83,11.63-2.49,22.58a133.88,133.88,0,0,1-12.29,36.86A84.29,84.29,0,0,1,1468.46,246a103.52,103.52,0,0,1-40.85,18.1,281.58,281.58,0,0,1-45.5,5.81,143.79,143.79,0,0,1-15.44.5,75.61,75.61,0,0,1-15.11-1.83q-6-1-9-3.65a7.61,7.61,0,0,1-2.66-2.66,23.16,23.16,0,0,1-1.66-3.32,13.93,13.93,0,0,1-1.49-3.49q-.5-1.83-1.16-3.82c-.22-1.11-.39-2.16-.5-3.15a25.06,25.06,0,0,1-.17-2.82V51.76a12.47,12.47,0,0,1,.66-4,29.15,29.15,0,0,1,2-7.64,10.9,10.9,0,0,1,3.65-5.65,15.84,15.84,0,0,1,4-2.49l3.65-1.49a7.55,7.55,0,0,1,4.15-.17,7.12,7.12,0,0,0,4.81-.83l55.46,1.33q21.92.67,39.19,10.13A102.8,102.8,0,0,1,1482.08,65a114.42,114.42,0,0,1,19.26,32.71A125.36,125.36,0,0,1,1509.64,133.45Zm-61.77,63.1a73.32,73.32,0,0,0,9.3-22.92,105.52,105.52,0,0,0,2.66-26.4,115.58,115.58,0,0,0-3.65-26.24,86.06,86.06,0,0,0-9.3-22.75,38.66,38.66,0,0,0-12-12,60.14,60.14,0,0,0-16.27-7.14,112.38,112.38,0,0,0-19.1-3.49q-10.13-1-19.76-1,.33,9.64.33,18.6V112.2q-.34,12-.33,23.25v89.67q10.29-.33,19.76-1.16a77.5,77.5,0,0,0,18.27-3.82,60,60,0,0,0,16.27-8.47A57.44,57.44,0,0,0,1447.87,196.55Z"/><path class="cls-5" d="M1538.86,231.75l.33-26.24.33-48.82q.33-10.62.33-21.92V90.28q0-9.29.66-20.92V68c.22-2.21.38-4.48.5-6.81s.17-4.7.17-7.14a34.82,34.82,0,0,1,3.65-13,21.65,21.65,0,0,1,7-8,23,23,0,0,1,10.29-2.66q2.65,0,4.82.17t4.15.5a13.58,13.58,0,0,1,7.64,4,14.89,14.89,0,0,1,3.65,5.31c.44,1.33.83,2.6,1.16,3.82s.61,2.49.83,3.82q.33,2.33.5,4.32c.11,1.33.17,2.66.17,4,0,1.55-.06,2.94-.17,4.15s-.17,2.49-.17,3.82V70l-2,172.36v3.32a23.65,23.65,0,0,1-.17,2.49q-.17,1.49-.5,3.49a31.39,31.39,0,0,0-1.16,3.49c-.33,1.21-.72,2.49-1.16,3.82a32.05,32.05,0,0,1-2.16,3.15,17.37,17.37,0,0,1-2.82,2.82q-2.66,2.65-8.63,3.65a26.06,26.06,0,0,1-16.94-1.66,14.75,14.75,0,0,1-5.64-6.64,2.87,2.87,0,0,1-1-2,3.86,3.86,0,0,0-.66-1,3.81,3.81,0,0,1-.66-1,17.84,17.84,0,0,1-1-3.49,21.23,21.23,0,0,1-.33-3.82q-.33-1.67-.5-3.32t-.5-3.32a23.93,23.93,0,0,1,0-5.65Z"/></g></g></svg>