<svg xmlns="http://www.w3.org/2000/svg" xmlns:xlink="http://www.w3.org/1999/xlink" viewBox="0 0 176.49 82.54"><defs><style>.cls-1{fill:#ff61f8;}.cls-2{fill:#fff;opacity:0.69;isolation:isolate;}.cls-3{fill:#ab55a1;}.cls-4{opacity:0.5;fill:url(#무제_그라디언트_2);}.cls-5{fill:url(#무제_그라디언트_5);}</style><linearGradient id="무제_그라디언트_2" x1="92.83" y1="-7.65" x2="89.8" y2="16.94" gradientUnits="userSpaceOnUse"><stop offset="0" stop-color="#fff"/><stop offset="1" stop-color="#fff" stop-opacity="0.33"/></linearGradient><linearGradient id="무제_그라디언트_5" x1="88.25" y1="98.31" x2="88.25" y2="9.62" gradientUnits="userSpaceOnUse"><stop offset="0" stop-color="#fff" stop-opacity="0.5"/><stop offset="0.5" stop-color="#fff" stop-opacity="0"/><stop offset="1" stop-color="#fff" stop-opacity="0"/></linearGradient></defs><g id="레이어_2" data-name="레이어 2"><g id="레이어_1-2" data-name="레이어 1"><path class="cls-1" d="M175.49,49.86v.2c-.05,7.91.21,13.54-2.55,13.54s-2.13-3-4.69-3c-1.34,0-2.31.39-2.31,3.51,0,.21-.11,9.75-.11,9.75a7.62,7.62,0,0,1-7.54,7.71H110.75c-4.17,0-8.23-3.45-8.23-7.71,0,0,0-5.81,0-9.34,0-1.68.26-2.22.59-2.22s.83.63,1.17,1.14a4.27,4.27,0,0,0,3.51,1.93h.27A3.54,3.54,0,0,0,110.81,64c1.38-1.42,1.43-3.54,1.49-14s-.11-12.59-1.49-14a3.53,3.53,0,0,0-2.73-1.37h-.28a4.24,4.24,0,0,0-3.51,1.93c-.34.5-.8,1.14-1.17,1.14s-.59-.55-.59-2.23v-9.1a9.72,9.72,0,0,0-1-4.11,8.53,8.53,0,0,0-7.64-4.83H43.77a9.52,9.52,0,0,0-8.26,5,9.12,9.12,0,0,0-1,4.13c0,4.11,0,6.65,0,8.39v1c0,3.11,1,3.51,2.32,3.51,2.56,0,1.82-3,4.69-3s2.5,5.62,2.55,13.53v.2c0,7.91.21,13.54-2.55,13.54s-2.13-3-4.69-3c-1.34,0-2.32.39-2.32,3.51,0,.21-.1,9.75-.1,9.75a7.63,7.63,0,0,1-7.54,7.71H9.23C5.06,81.54,1,78.09,1,73.83c0,0,0-5.81,0-9.34,0-1.68.25-2.22.59-2.22s.82.63,1.16,1.14a4.29,4.29,0,0,0,3.52,1.93h.27A3.53,3.53,0,0,0,9.29,64c1.39-1.42,1.43-3.54,1.5-14s-.11-12.59-1.5-14a3.53,3.53,0,0,0-2.73-1.37H6.28a4.26,4.26,0,0,0-3.51,1.93c-.34.5-.8,1.14-1.16,1.14S1,37.11,1,35.43C1,31.91,1,8.71,1,8.71,1,4.45,5.06,1,9.23,1H158.29a7.62,7.62,0,0,1,7.54,7.71s.11,26.93.11,27.14c0,3.11,1,3.51,2.31,3.51,2.56,0,1.82-3,4.69-3S175.44,42,175.49,49.86Z"/><path class="cls-2" d="M9.23,3.4H158.3a6.65,6.65,0,0,1,6.57,6.72c0,3.29.1,27.07.1,27.26,0,3.15,1,4.51,3.28,4.51a3.33,3.33,0,0,0,3-1.9c.48-.73.74-1.14,1.69-1.14,1.55,0,1.56,5.08,1.57,10.46v1.62c0-.25,0-.49,0-.74,0,0,0-1.61,0-2.28,0-5.38,0-10.46-1.57-10.46-.95,0-1.22.4-1.69,1.14a3.32,3.32,0,0,1-3,1.89c-2.3,0-3.28-1.35-3.28-4.5,0-.19-.07-24-.1-27.27A6.66,6.66,0,0,0,158.3,2H9.23C5.43,2,2,5.2,2,8.71v1.36C2,6.57,5.45,3.4,9.23,3.4Z"/><path class="cls-2" d="M33.53,37.38c0,3.15,1,4.51,3.27,4.51a3.33,3.33,0,0,0,3-1.9c.48-.73.74-1.14,1.69-1.14,1.55,0,1.56,5.08,1.57,10.46,0,.39,0,1.1,0,1.62v-.74s0-1.61,0-2.28c0-5.38,0-10.46-1.57-10.46-1,0-1.22.4-1.69,1.14a3.32,3.32,0,0,1-3,1.89c-2.3,0-3.27-1.35-3.27-4.5Z"/><path class="cls-2" d="M2,66c0-.18,0-.34,0-.49a5.25,5.25,0,0,0,4.23,2.32l.34,0A4.48,4.48,0,0,0,10,66.19c1.7-1.74,1.71-4,1.77-14.71v-.7c-.06,10.13-.11,12.3-1.77,14a4.5,4.5,0,0,1-3.42,1.65H6.22A5.23,5.23,0,0,1,2,64.11c0,.15,0,.31,0,.49,0,3.52,0,9.33,0,9.33v0C2,72.05,2,68.46,2,66Z"/><path class="cls-2" d="M103.51,66c0-.18,0-.34,0-.48a5.27,5.27,0,0,0,4.23,2.32h.33a4.48,4.48,0,0,0,3.42-1.66c1.7-1.74,1.71-4,1.78-14.71,0-.24,0-.47,0-.7-.06,10.13-.11,12.31-1.77,14a4.48,4.48,0,0,1-3.42,1.66l-.33,0a5.23,5.23,0,0,1-4.23-2.31c0,.14,0,.3,0,.48,0,3.52,0,9.33,0,9.33v0C103.5,72,103.51,68.46,103.51,66Z"/><path class="cls-3" d="M176.48,47.8c0-7.51,0-12.47-3.54-12.47a3.67,3.67,0,0,0-3.34,2c-.48.74-.68,1-1.35,1s-1.31,0-1.31-2.51c0-.21-.11-26.76-.11-27.15A8.63,8.63,0,0,0,158.29,0H9.23C4.31,0,0,4.07,0,8.71c0,0,0,23.21,0,26.72,0,1,0,3.23,1.59,3.23.87,0,1.49-.82,2-1.58a3.26,3.26,0,0,1,2.74-1.49h.22a2.57,2.57,0,0,1,2,1.07C9.67,37.78,9.72,39.94,9.78,50S9.67,62.16,8.57,63.28a2.57,2.57,0,0,1-2,1.07H6.34A3.24,3.24,0,0,1,3.6,62.85c-.51-.77-1.13-1.58-2-1.58A1.42,1.42,0,0,0,.23,62.46a7,7,0,0,0-.22,2C0,68,0,73.82,0,73.82c0,4.65,4.31,8.72,9.23,8.72H26.92a8.64,8.64,0,0,0,8.54-8.71c0-.38.1-9.54.1-9.75,0-2.52.55-2.52,1.31-2.52s.88.26,1.36,1a3.66,3.66,0,0,0,3.34,2c3.51,0,3.52-5,3.54-12.46,0-.67,0-1.36,0-2.06v-.21c0-.71,0-1.4,0-2.06,0-7.51,0-12.47-3.54-12.47a3.67,3.67,0,0,0-3.34,2c-.48.74-.69,1-1.36,1s-1.31,0-1.31-2.51V34.26c0-3.5,0-8.16,0-8.16,0-4.26,4.06-7.71,8.22-7.71H93.88a7.62,7.62,0,0,1,7.54,7.71s.11,9.55.11,9.75h0c0,1.08.2,2.81,1.59,2.81.86,0,1.48-.82,2-1.58a3.24,3.24,0,0,1,2.74-1.49h.21a2.57,2.57,0,0,1,2,1.07c1.1,1.13,1.15,3.29,1.21,13.32s-.11,12.19-1.21,13.31a2.57,2.57,0,0,1-2,1.07h-.21a3.24,3.24,0,0,1-2.74-1.49c-.52-.77-1.14-1.58-2-1.58a1.44,1.44,0,0,0-1.38,1.19,7.43,7.43,0,0,0-.21,2c0,3.52,0,9.33,0,9.33,0,4.65,4.31,8.72,9.22,8.72h47.55a8.64,8.64,0,0,0,8.54-8.71c0-.38.11-9.54.11-9.75,0-2.52.55-2.52,1.31-2.52s.87.26,1.35,1a3.67,3.67,0,0,0,3.34,2c3.51,0,3.52-5,3.54-12.46,0-.67,0-1.36,0-2.06v-.21C176.48,49.15,176.48,48.46,176.48,47.8Zm-75-25.57a8.53,8.53,0,0,0-7.64-4.84H43.77a9.52,9.52,0,0,0-8.26,5,9.17,9.17,0,0,0-1,4.13c0,4.12,0,6.65,0,8.4v.53h0v.42c0,3.11,1,3.51,2.31,3.51,2.57,0,1.83-3,4.7-3s2.5,5.61,2.54,13.53v.2c0,7.91.22,13.53-2.54,13.53s-2.13-3-4.7-3c-1.33,0-2.31.4-2.31,3.51,0,.21-.1,9.75-.1,9.75a7.64,7.64,0,0,1-7.54,7.72H9.23C5.06,81.55,1,78.09,1,73.83c0,0,0-5.81,0-9.33,0-1.69.26-2.23.6-2.23s.82.64,1.16,1.14a4.26,4.26,0,0,0,3.51,1.93h.27A3.56,3.56,0,0,0,9.29,64c1.38-1.42,1.43-3.54,1.49-14s-.11-12.6-1.49-14a3.53,3.53,0,0,0-2.73-1.37H6.28a4.27,4.27,0,0,0-3.51,1.93C2.43,37,2,37.66,1.6,37.66S1,37.12,1,35.43C1,31.91,1,8.71,1,8.71,1,4.45,5.06,1,9.23,1H158.29a7.62,7.62,0,0,1,7.54,7.71s.11,26.94.11,27.14c0,3.11,1,3.51,2.31,3.51,2.56,0,1.82-3,4.69-3s2.5,5.61,2.55,13.53v.2c-.05,7.91.21,13.53-2.55,13.53s-2.13-3-4.69-3c-1.34,0-2.31.4-2.31,3.51,0,.21-.11,9.75-.11,9.75a7.63,7.63,0,0,1-7.54,7.72H110.74c-4.16,0-8.22-3.46-8.22-7.72,0,0,0-5.81,0-9.33,0-1.69.26-2.23.59-2.23s.83.64,1.17,1.14a4.23,4.23,0,0,0,3.51,1.93h.27A3.57,3.57,0,0,0,110.81,64c1.38-1.42,1.43-3.54,1.49-14s-.11-12.6-1.49-14a3.55,3.55,0,0,0-2.74-1.37h-.27a4.25,4.25,0,0,0-3.51,1.93c-.34.51-.8,1.14-1.17,1.14s-.59-.54-.59-2.23c0-1.47,0-3.76,0-9.09A9.72,9.72,0,0,0,101.52,22.23Z"/><path class="cls-4" d="M174.5,49.48c0,.25,0,1,0,1.26-8-1.22-5.26-1.9-16.65-1.9-17.27,0-27.25,6-44.57,1.79v-.57c-.06-10.41-.07-12.83-1.62-14.56l-.15-.16a4.48,4.48,0,0,0-3.42-1.66h-.34A5.25,5.25,0,0,0,103.51,36c0-.14,0-.3,0-.49,0-1.28,0-5.15,0-9.57a9.59,9.59,0,0,0-9.58-9.59H43.55A10.06,10.06,0,0,0,33.49,26.45c0,5.11,0,9.41,0,9.49a8,8,0,0,0,.3,2.44,3.2,3.2,0,0,0,.29.7,2.81,2.81,0,0,0,2.69,1.36,3.38,3.38,0,0,0,3-1.89A6.09,6.09,0,0,1,40.2,38a.31.31,0,0,1,.09-.11,1.17,1.17,0,0,1,.65-.39,2.12,2.12,0,0,1,.54-.06c1.35,0,1.52,3.88,1.56,8.46,0,.65,0,1.32,0,2s0,1.79,0,2.17c-19.59,3.41-26.73,1.61-31.3.59,0-.19,0-.38,0-.57a2.81,2.81,0,0,0,0-.29c0-.83,0-1.63,0-2.38v0c0-.43,0-.85,0-1.26-.08-5.07-.3-8.16-1.08-9.87a1.28,1.28,0,0,0-.11-.2,2.75,2.75,0,0,0-.54-.79,4.5,4.5,0,0,0-3.42-1.65H6.24A5.22,5.22,0,0,0,2,35.9c0-.15,0-.31,0-.49,0-3.52,0-26.7,0-26.7A7.07,7.07,0,0,1,6.61,2.5l.54-.19A7,7,0,0,1,9.24,2H158.3a6.08,6.08,0,0,1,.61,0H159l.56.1a4.92,4.92,0,0,1,.55.14,5.54,5.54,0,0,1,.68.25l.53.25,0,0a6.06,6.06,0,0,1,1,.67h0c.2.18.4.36.58.55a7.34,7.34,0,0,1,.51.6l.23.33a6.16,6.16,0,0,1,.33.55c.1.19.19.39.28.59a6.87,6.87,0,0,1,.51,2.62c0,3.29.11,26.37.11,26.56,0,.49,0,.95,0,1.38a2.45,2.45,0,0,0,0,.27c0,.16,0,.32.05.47a7,7,0,0,0,.18.87c0,.11.07.23.11.34l0,0a3.25,3.25,0,0,0,.33.61l.14.18.2.21a3.1,3.1,0,0,0,2.19.7,3.31,3.31,0,0,0,3-1.89c.47-.73.73-1.13,1.69-1.13s1.38,2.13,1.49,5.2l0,.88c0,.29,0,.59,0,.9,0,.91,0,1.88,0,2.89C174.49,47.88,174.5,49.48,174.5,49.48Z"/><path class="cls-5" d="M174.52,50.15v.72c0,.46,0,.92,0,1.37,0,5.37,0,10.45-1.57,10.45-1,0-1.22-.4-1.69-1.13a3.31,3.31,0,0,0-3-1.9C166,59.66,165,61,165,64.17c0,.18-.07,6.45-.11,9.73a6.65,6.65,0,0,1-6.56,6.73H110.75c-3.8,0-7.26-3.21-7.26-6.73,0,0,0-5.81,0-9.33V64.1a5.28,5.28,0,0,0,4.24,2.32h.33a4.48,4.48,0,0,0,3.42-1.66c1.66-1.7,1.71-3.87,1.77-14v-.7c-.06-10.41-.07-12.83-1.62-14.56l-.15-.16a4.48,4.48,0,0,0-3.42-1.66h-.34A5.25,5.25,0,0,0,103.51,36c0-.14,0-.3,0-.49,0-1.28,0-5.15,0-9.57a9.59,9.59,0,0,0-9.58-9.59H43.55A10.06,10.06,0,0,0,33.49,26.45c0,5.11,0,9.41,0,9.49a8,8,0,0,0,.3,2.44,3.2,3.2,0,0,0,.29.7,2.81,2.81,0,0,0,2.69,1.36,3.38,3.38,0,0,0,3-1.89A6.09,6.09,0,0,1,40.2,38a.31.31,0,0,1,.09-.11,1.17,1.17,0,0,1,.65-.39,2.12,2.12,0,0,1,.54-.06c1.35,0,1.52,3.88,1.56,8.46,0,.65,0,1.32,0,2s0,1.79,0,2.17v.83c0,.46,0,.92,0,1.37,0,5.37,0,10.45-1.57,10.45-1,0-1.22-.4-1.69-1.13a3.31,3.31,0,0,0-3-1.9c-2.3,0-3.28,1.35-3.28,4.51,0,.18-.07,6.45-.11,9.73a6.65,6.65,0,0,1-6.56,6.73H9.23C5.43,80.64,2,77.43,2,73.91c0,0,0-5.81,0-9.33V64.1a5.28,5.28,0,0,0,4.24,2.32h.33A4.48,4.48,0,0,0,10,64.77c1.66-1.7,1.71-3.87,1.77-14v-.7a2.81,2.81,0,0,0,0-.29c0-.85,0-1.64,0-2.38v0c-.05-7-.16-9.56-1.09-11.13a1.28,1.28,0,0,0-.11-.2,3.9,3.9,0,0,0-.4-.51L10,35.34a4.48,4.48,0,0,0-3.42-1.66H6.22A5.25,5.25,0,0,0,2,36c0-.14,0-.3,0-.49C2,32,2,8.71,2,8.71a7.12,7.12,0,0,1,5.18-6.4A7,7,0,0,1,9.24,2H158.3c.2,0,.41,0,.61,0H159a3.45,3.45,0,0,1,.56.1,3.41,3.41,0,0,1,.55.14,5.54,5.54,0,0,1,.68.25,3.65,3.65,0,0,1,.53.25l0,0A6.43,6.43,0,0,1,163.72,5a3.48,3.48,0,0,1,.33.55,3.52,3.52,0,0,1,.28.59,4.8,4.8,0,0,1,.24.63,6.89,6.89,0,0,1,.29,2c0,.41,0,.87,0,1.36,0,3.41.09,25.7.09,25.87s0,.48,0,.71a2.45,2.45,0,0,0,0,.27c0,.16,0,.32.05.47a4.31,4.31,0,0,0,.18.87.53.53,0,0,0,0,.12,1.43,1.43,0,0,0,.08.22l0,0a1.87,1.87,0,0,0,.19.43c0,.07.09.12.13.18l.15.19a2.91,2.91,0,0,0,2.41,1,3.38,3.38,0,0,0,3-1.89,6.09,6.09,0,0,1,.41-.57.31.31,0,0,1,.09-.11,1.17,1.17,0,0,1,.65-.39,2.12,2.12,0,0,1,.54-.06c1,0,1.35,2.14,1.49,5.11l0,.88c0,.78,0,1.61,0,2.47,0,.65,0,1.32,0,2S174.52,50.15,174.52,50.15Z"/></g></g></svg>