<svg xmlns="http://www.w3.org/2000/svg" viewBox="0 0 27.8 33.32"><defs><style>.cls-1{fill:none;stroke:#3789b7;stroke-miterlimit:10;stroke-width:2.37px;}.cls-2{fill:#409dea;}.cls-3{fill:#fff;}</style></defs><title>bluetoothbutton</title><g id="레이어_2" data-name="레이어 2"><g id="레이어_1-2" data-name="레이어 1"><rect class="cls-1" x="3.6" y="1.19" width="7.69" height="5.63" rx="1.07" ry="1.07"/><rect class="cls-1" x="3.6" y="1.19" width="7.69" height="5.63" rx="1.07" ry="1.07"/><rect class="cls-1" x="16.51" y="1.19" width="7.69" height="5.63" rx="1.07" ry="1.07"/><rect class="cls-1" x="16.51" y="1.19" width="7.69" height="5.63" rx="1.07" ry="1.07"/><rect class="cls-1" x="1.19" y="4" width="25.43" height="28.14" rx="3.13" ry="3.13"/><rect class="cls-1" x="1.19" y="4" width="25.43" height="28.14" rx="3.13" ry="3.13"/><rect class="cls-2" x="3.6" y="1.19" width="7.69" height="5.63" rx="1.07" ry="1.07"/><rect class="cls-2" x="16.51" y="1.19" width="7.69" height="5.63" rx="1.07" ry="1.07"/><rect class="cls-2" x="1.19" y="4" width="25.43" height="28.14" rx="3.13" ry="3.13"/><path class="cls-3" d="M19.72,21.34l-4.33-3.28,4.33-3.27a.76.76,0,0,0,.37-.62.67.67,0,0,0-.37-.62l-5.13-3.9a1,1,0,0,0-1.11-.12c-.37.12-.56.68-.56,1V15.9L9.46,13.55A1.12,1.12,0,0,0,8,13.61.78.78,0,0,0,8,14.85l4.32,3.27L8,21.4A.78.78,0,0,0,8,22.64a1.2,1.2,0,0,0,1.48.06l3.46-2.35v5.38a1.06,1.06,0,0,0,.56,1h.43a.9.9,0,0,0,.68-.25l5.13-3.9a.73.73,0,0,0,.37-.61A.67.67,0,0,0,19.72,21.34ZM14.9,12.19l2.66,2-2.66,2Zm0,11.74V20l2.66,2Z"/></g></g></svg>