<svg xmlns="http://www.w3.org/2000/svg" viewBox="0 0 100.82 115.83"><defs><style>.cls-1{fill:#bfcfd1;}.cls-2{fill:#fff;}.cls-3{fill:#3789b7;}.cls-4{fill:#409dea;}.cls-5{fill:#4d4d4d;opacity:0.4;}</style></defs><g id="레이어_2" data-name="레이어 2"><g id="레이어_2-2" data-name="레이어 2"><path class="cls-1" d="M26.51,115.83A20.85,20.85,0,0,1,5.68,95V34a20.68,20.68,0,0,1,6.84-15.43,15.09,15.09,0,0,1,15-13.25H43A15.05,15.05,0,0,1,53.25,9.33a15.05,15.05,0,0,1,10.28-4H79A15.11,15.11,0,0,1,94,18.53,20.68,20.68,0,0,1,100.82,34V95A20.85,20.85,0,0,1,80,115.83Z"/><path class="cls-2" d="M20.82,110.56A20.85,20.85,0,0,1,0,89.73v-61A20.69,20.69,0,0,1,6.83,13.26,15.12,15.12,0,0,1,21.81,0H37.28A15,15,0,0,1,47.57,4.06,15,15,0,0,1,57.85,0H73.32a15.12,15.12,0,0,1,15,13.26,20.65,20.65,0,0,1,6.83,15.42V89.73a20.85,20.85,0,0,1-20.82,20.83Z"/><path class="cls-3" d="M37.28,31.11H21.81a6.31,6.31,0,0,1-6.3-6.3V15.09a6.31,6.31,0,0,1,6.3-6.31H37.28a6.32,6.32,0,0,1,6.31,6.31v9.72A6.31,6.31,0,0,1,37.28,31.11ZM22.12,24.49H37V15.4H22.12Z"/><path class="cls-3" d="M37.28,31.11H21.81a6.31,6.31,0,0,1-6.3-6.3V15.09a6.31,6.31,0,0,1,6.3-6.31H37.28a6.32,6.32,0,0,1,6.31,6.31v9.72A6.31,6.31,0,0,1,37.28,31.11ZM22.12,24.49H37V15.4H22.12Z"/><path class="cls-3" d="M73.32,31.11H57.85a6.31,6.31,0,0,1-6.3-6.3V15.09a6.31,6.31,0,0,1,6.3-6.31H73.32a6.31,6.31,0,0,1,6.3,6.31v9.72A6.31,6.31,0,0,1,73.32,31.11ZM58.16,24.49H73V15.4H58.16Z"/><path class="cls-3" d="M73.32,31.11H57.85a6.31,6.31,0,0,1-6.3-6.3V15.09a6.31,6.31,0,0,1,6.3-6.31H73.32a6.31,6.31,0,0,1,6.3,6.31v9.72A6.31,6.31,0,0,1,73.32,31.11ZM58.16,24.49H73V15.4H58.16Z"/><path class="cls-3" d="M74.31,101.77H20.82a12.06,12.06,0,0,1-12-12v-61a12.06,12.06,0,0,1,12-12H74.31a12.05,12.05,0,0,1,12,12V89.73A12.05,12.05,0,0,1,74.31,101.77ZM20.82,23.25a5.43,5.43,0,0,0-5.42,5.43V89.73a5.43,5.43,0,0,0,5.42,5.43H74.31a5.44,5.44,0,0,0,5.43-5.43v-61a5.44,5.44,0,0,0-5.43-5.43Z"/><path class="cls-3" d="M74.31,101.77H20.82a12.06,12.06,0,0,1-12-12v-61a12.06,12.06,0,0,1,12-12H74.31a12.05,12.05,0,0,1,12,12V89.73A12.05,12.05,0,0,1,74.31,101.77ZM20.82,23.25a5.43,5.43,0,0,0-5.42,5.43V89.73a5.43,5.43,0,0,0,5.42,5.43H74.31a5.44,5.44,0,0,0,5.43-5.43v-61a5.44,5.44,0,0,0-5.43-5.43Z"/><rect class="cls-4" x="54.86" y="12.09" width="21.46" height="15.71" rx="3"/><rect class="cls-4" x="18.82" y="12.09" width="21.46" height="15.71" rx="3"/><rect class="cls-4" x="12.09" y="19.95" width="70.95" height="78.52" rx="8.73"/><path class="cls-2" d="M63.82,68.33,51.74,59.18,63.82,50a2.09,2.09,0,0,0,1-1.72,1.91,1.91,0,0,0-1-1.73L49.5,35.72a2.9,2.9,0,0,0-3.11-.34c-1,.34-1.55,1.9-1.55,2.76v15l-9.66-6.56a3.16,3.16,0,0,0-4.14.17,2.19,2.19,0,0,0,.17,3.45l12.08,9.15L31.21,68.5A2.19,2.19,0,0,0,31,72a3.35,3.35,0,0,0,4.14.17l9.66-6.55v15a2.94,2.94,0,0,0,1.55,2.76H47.6a2.64,2.64,0,0,0,1.9-.69L63.82,71.78a2.1,2.1,0,0,0,1-1.73A1.88,1.88,0,0,0,63.82,68.33ZM50.36,42.8l7.42,5.52-7.42,5.52Zm0,32.77V64.7l7.42,5.52Z"/><path class="cls-5" d="M94,18.53a15.12,15.12,0,0,0-7.9-11.48A15.09,15.09,0,0,0,73.32,0H57.85A15,15,0,0,0,47.57,4.06,15,15,0,0,0,37.28,0H21.81a15.12,15.12,0,0,0-15,13.26A20.69,20.69,0,0,0,0,28.68V89.73a20.81,20.81,0,0,0,9.77,17.62,20.78,20.78,0,0,0,16.74,8.48H80A20.85,20.85,0,0,0,100.82,95V34A20.68,20.68,0,0,0,94,18.53Z"/></g></g></svg>