<svg xmlns="http://www.w3.org/2000/svg" viewBox="0 0 177.16 203.71"><defs><style>.cls-1{fill:#b74e4b;}.cls-2{fill:#f77b6f;}.cls-3{fill:none;stroke:#b74e4b;stroke-linecap:round;stroke-linejoin:round;stroke-width:2.69px;stroke-dasharray:10.7 10.7;}.cls-4{fill:#fff;}</style></defs><g id="레이어_2" data-name="레이어 2"><g id="레이어_2-2" data-name="레이어 2"><path class="cls-1" d="M5.18,104.45V27.71A22.49,22.49,0,0,1,38.92,8.23L105.38,46.6,163,79.84a28.41,28.41,0,0,1,0,49.22L105.38,162.3,38.92,200.67A22.5,22.5,0,0,1,5.18,181.19Z"/><path class="cls-2" d="M0,99.27V22.53A22.49,22.49,0,0,1,33.74,3.05L100.2,41.42l57.57,33.23a28.43,28.43,0,0,1,0,49.23L100.2,157.12,33.74,195.48A22.49,22.49,0,0,1,0,176Z"/><path class="cls-2" d="M0,99.27V22.53A22.49,22.49,0,0,1,33.74,3.05L100.2,41.42l57.57,33.23a28.43,28.43,0,0,1,0,49.23L100.2,157.12,33.74,195.48A22.49,22.49,0,0,1,0,176Z"/><path class="cls-3" d="M7.48,99.74V31.27C7.48,8.82,23.9,6.17,37,13.89L95.28,48.13l53.48,29c16.61,9.76,16.61,34.16,0,43.92L95.28,151.36,37,185.59c-13.14,7.73-29.56,2.72-29.56-17.38Z"/><path class="cls-4" d="M42.1,102.26a6.29,6.29,0,0,1,.3,1.26,10.2,10.2,0,0,1,0,2.85,8.15,8.15,0,0,1-.25,1.22,7.2,7.2,0,0,1-2.58,3.75,12.26,12.26,0,0,1-4.38,2.18,14.5,14.5,0,0,1-5.09.48,11.34,11.34,0,0,1-4.68-1.32,8.66,8.66,0,0,1-2.2-1.76,11,11,0,0,1-1.56-2.33,2.65,2.65,0,0,1-.3-1,3,3,0,0,1,.09-1.12,2.82,2.82,0,0,1,.53-1,1.76,1.76,0,0,1,1-.58,4.16,4.16,0,0,1,.9-.09,3.7,3.7,0,0,1,1,.14,2.91,2.91,0,0,1,.88.44,2.15,2.15,0,0,1,.64.83,5,5,0,0,0,1.26,1.54,7.89,7.89,0,0,0,1.74,1.14,6.82,6.82,0,0,0,2.67.36,6.54,6.54,0,0,0,2.45-.6,4.74,4.74,0,0,0,1.78-1.42,3.35,3.35,0,0,0,.68-2.06,3.84,3.84,0,0,0-.28-1.59,3,3,0,0,0-.78-1,4.26,4.26,0,0,0-1.2-.7,10.46,10.46,0,0,0-1.55-.48,14.17,14.17,0,0,0-1.94-.28l-2-.2c-.67-.08-1.33-.19-2-.32a9.82,9.82,0,0,1-1.88-.61,5.79,5.79,0,0,1-2.81-2.32,7.6,7.6,0,0,1-1.14-3.37,8.29,8.29,0,0,1,.42-3.58,7.55,7.55,0,0,1,1.92-3.07A7.45,7.45,0,0,1,26.85,86a16.46,16.46,0,0,1,3.95-.59,19.7,19.7,0,0,1,2.42.08,17.75,17.75,0,0,1,2.37.4,12.4,12.4,0,0,1,2.13.73,7.49,7.49,0,0,1,1.7,1,6.17,6.17,0,0,1,1,1.06,5.62,5.62,0,0,1,.8,1.4,2.78,2.78,0,0,1,.18,1.43,1.71,1.71,0,0,1-.86,1.16,2,2,0,0,1-1.23.34,2.8,2.8,0,0,1-1.1-.36,7.31,7.31,0,0,1-1-.71l-.88-.72a6.35,6.35,0,0,0-2.69-1.08,10.24,10.24,0,0,0-3-.12,8,8,0,0,0-1.64.4,4.18,4.18,0,0,0-1.31.76,3.38,3.38,0,0,0-.84,1.19A3.24,3.24,0,0,0,26.67,94,1.9,1.9,0,0,0,27.05,95a2.64,2.64,0,0,0,.84.72,4.44,4.44,0,0,0,1.1.44,8.63,8.63,0,0,0,1.21.24c1.2.17,2.4.28,3.6.37a11.87,11.87,0,0,1,3.54.8,9.24,9.24,0,0,1,3,1.84A6.46,6.46,0,0,1,42.1,102.26Z"/><path class="cls-4" d="M66.24,86.79a1.64,1.64,0,0,1,.43,1.08,4.26,4.26,0,0,1,0,.5,3,3,0,0,1-.06.46,1.83,1.83,0,0,1-.52.84,2.18,2.18,0,0,1-.88.36,2.66,2.66,0,0,1-.56.12l-.6.12a3.6,3.6,0,0,1-.56,0H60.82c-.48,0-1,0-1.42,0H58c0,.82,0,1.71,0,2.66s0,2,0,3.31,0,2.71,0,4.37,0,3.57,0,5.77v3a3,3,0,0,0,0,.6v.3a2.68,2.68,0,0,1,0,.35,4.7,4.7,0,0,0-.12.84,1.58,1.58,0,0,1,0,.38,1.51,1.51,0,0,1-.12.38c-.1.11-.16.18-.16.24l-.12.24a2,2,0,0,1-.76.76,2.78,2.78,0,0,1-2,.2,2.1,2.1,0,0,1-1-.36,2.46,2.46,0,0,1-.51-.72,2.08,2.08,0,0,1-.28-.84,2.16,2.16,0,0,1-.12-.76V90.51h-1c-.5,0-1,0-1.62,0s-1.12,0-1.62-.06-.86-.05-1-.07l-.75-.13a7,7,0,0,1-.82-.16,2.76,2.76,0,0,1-1.32-.76,1.73,1.73,0,0,1-.45-1.16v-.48a1.23,1.23,0,0,1,.09-.44,1.32,1.32,0,0,1,.64-.81c.11-.07.27-.18.5-.3a2.91,2.91,0,0,1,.66-.26,6.17,6.17,0,0,1,1.2-.24c.22,0,.43,0,.65,0h3.34l2.66,0c1.56,0,3.1,0,4.63,0s3.07,0,4.6.1c.34,0,.68.07,1,.12A4.39,4.39,0,0,1,65,86a3.76,3.76,0,0,1,.68.29A1.85,1.85,0,0,1,66.24,86.79Z"/><path class="cls-4" d="M89.4,111.2c0,.16,0,.31.06.46a3.86,3.86,0,0,1,0,.5,1.49,1.49,0,0,1-.28.88,1.62,1.62,0,0,1-.32.38,1.78,1.78,0,0,1-.48.3,3.29,3.29,0,0,1-2.12.4,2.63,2.63,0,0,1-1-.52l-.12-.1a.22.22,0,0,1-.08-.1l-.08-.1a.31.31,0,0,0-.12-.1,2.58,2.58,0,0,1-.32-.38l-.24-.38a3.35,3.35,0,0,0-.18-.38l-.22-.38-.16-.3a1.57,1.57,0,0,1-.12-.3,2.2,2.2,0,0,1-.2-.64l-.84-2-5.52,0c-1.82,0-3.66,0-5.51,0l-.84,2a.92.92,0,0,0-.1.32.84.84,0,0,1-.1.32,2.63,2.63,0,0,0-.14.3c0,.09-.08.19-.14.3s-.16.26-.22.38l-.22.38a2,2,0,0,1-.2.38,2.58,2.58,0,0,1-.32.38.25.25,0,0,0-.12.1l-.08.1a.22.22,0,0,1-.08.1l-.12.1a2.63,2.63,0,0,1-1,.52,3.25,3.25,0,0,1-2.11-.4,1.69,1.69,0,0,1-.49-.3A1.62,1.62,0,0,1,65,113a1.49,1.49,0,0,1-.28-.88c0-.19,0-.35,0-.5a3.87,3.87,0,0,1,.06-.46,6.44,6.44,0,0,1,.2-.72l.12-.37,8.34-20.52.24-.64a2,2,0,0,1,.2-.44,1.92,1.92,0,0,0,.2-.48,5.26,5.26,0,0,1,.44-.92,2.27,2.27,0,0,1,.28-.45l.32-.39a1.65,1.65,0,0,1,.69-.53,3.89,3.89,0,0,1,1.29-.19,4,4,0,0,1,1.31.19,1.76,1.76,0,0,1,.68.53c.18.24.39.52.6.84a6.07,6.07,0,0,1,.45.92,1.92,1.92,0,0,0,.19.48,2,2,0,0,1,.2.44l.24.64,8.34,20.52.12.37C89.28,110.72,89.34,111,89.4,111.2Zm-9.5-9.82c-.34-.78-.7-1.58-1.06-2.41s-.74-1.67-1.14-2.53c-.11-.24-.22-.48-.32-.73L77.05,95c-.08.24-.17.49-.28.75s-.21.49-.32.73L75.31,99c-.36.83-.71,1.63-1.06,2.41l-.72,1.76h7.09Z"/><path class="cls-4" d="M113.37,112.16a1.75,1.75,0,0,1-.08.76,1,1,0,0,1-.22.4,2.65,2.65,0,0,1-.34.32,4.51,4.51,0,0,1-.88.44c-.22.06-.42.1-.62.14a1.49,1.49,0,0,1-.63,0,1.76,1.76,0,0,1-1.11-.49,5.28,5.28,0,0,1-1.13-1.24l-.44-.72a8.37,8.37,0,0,1-.44-.84L103,102.46l-.64,0c-.22,0-.43,0-.64.06a10.75,10.75,0,0,1-1.59,0,13.18,13.18,0,0,0-1.54,0h-.76v7.25c0,.22,0,.42,0,.61s0,.38,0,.6,0,.3,0,.52a5.54,5.54,0,0,1-.06.6,2.69,2.69,0,0,1-.36.9,2.39,2.39,0,0,1-.77.78,2.72,2.72,0,0,1-2,.28,3.67,3.67,0,0,1-1-.4,1.15,1.15,0,0,1-.28-.3,2.28,2.28,0,0,1-.2-.38,2.59,2.59,0,0,1-.14-.42,4.13,4.13,0,0,0-.14-.42,2.66,2.66,0,0,1-.12-.76V88.67c0-.16,0-.33,0-.5a2.86,2.86,0,0,1,.06-.46,2.26,2.26,0,0,1,.28-.88,1.17,1.17,0,0,1,.4-.69,2,2,0,0,1,.74-.42,4.18,4.18,0,0,1,1.46-.14c1.21,0,2.39,0,3.57,0s2.35,0,3.53.08c.78.06,1.6.14,2.46.27a9.73,9.73,0,0,1,2.43.62c.48.18.92.37,1.32.56a7,7,0,0,1,1.21.84,8.33,8.33,0,0,1,2.12,3.09,9.72,9.72,0,0,1,.72,3.64,7.9,7.9,0,0,1-1,4,6.17,6.17,0,0,1-3.26,2.69.54.54,0,0,1-.23.1.58.58,0,0,0-.22.06L112,109l.36.64c0,.11.12.23.2.37a45.58,45.58,0,0,1,.42.83,3.77,3.77,0,0,0,.22.45C113.26,111.61,113.32,111.92,113.37,112.16Zm-10-14.27a3.76,3.76,0,0,0,1.38-.26,4.71,4.71,0,0,0,1.21-.7,4,4,0,0,0,.9-1,2.53,2.53,0,0,0,.4-1.26,3.28,3.28,0,0,0-1-3A5.17,5.17,0,0,0,103,90.6q-1.16-.09-2.55-.09H97.86c0,1.1,0,2.22,0,3.35s0,2.48,0,4Z"/><path class="cls-4" d="M136.14,86.79a1.61,1.61,0,0,1,.45,1.08,4.32,4.32,0,0,1,0,.5,3,3,0,0,1-.06.46,1.92,1.92,0,0,1-.52.84,2.24,2.24,0,0,1-.88.36,3,3,0,0,1-.56.12l-.6.12a3.6,3.6,0,0,1-.56,0h-2.65c-.48,0-.95,0-1.42,0h-1.39c0,.82,0,1.71,0,2.66s0,2,0,3.31,0,2.71,0,4.37,0,3.57,0,5.77v3a4,4,0,0,0,0,.6v.3a1.63,1.63,0,0,1,0,.35,7.68,7.68,0,0,0-.12.84,1.58,1.58,0,0,1,0,.38,3.18,3.18,0,0,1-.11.38c-.12.11-.17.18-.17.24l-.11.24a2.19,2.19,0,0,1-.76.76,2.81,2.81,0,0,1-2,.2,2,2,0,0,1-1-.36,2.37,2.37,0,0,1-.53-.72,2.25,2.25,0,0,1-.28-.84,2.42,2.42,0,0,1-.12-.76V90.51h-1c-.51,0-1,0-1.62,0s-1.12,0-1.63-.06-.85-.05-1-.07l-.74-.13a7,7,0,0,1-.82-.16,2.85,2.85,0,0,1-1.33-.76,1.76,1.76,0,0,1-.43-1.16v-.48a1.23,1.23,0,0,1,.07-.44,1.35,1.35,0,0,1,.64-.81c.11-.07.28-.18.51-.3a2.59,2.59,0,0,1,.66-.26,6.17,6.17,0,0,1,1.2-.24c.22,0,.43,0,.64,0h3.35l2.67,0c1.54,0,3.08,0,4.63,0s3.06,0,4.58.1c.35,0,.69.07,1,.12a4.56,4.56,0,0,1,1,.29,3.76,3.76,0,0,1,.68.29A1.69,1.69,0,0,1,136.14,86.79Z"/></g></g></svg>