<svg xmlns="http://www.w3.org/2000/svg" viewBox="0 0 28.83 32.97"><defs><style>.cls-1{fill:none;stroke:#d65e58;stroke-miterlimit:10;stroke-width:2px;}.cls-2{fill:#f77b6f;}.cls-3{fill:#fff;}</style></defs><title>startbutton</title><g id="레이어_2" data-name="레이어 2"><g id="레이어_1-2" data-name="레이어 1"><path class="cls-1" d="M1,16.49v-12a3.5,3.5,0,0,1,5.26-3l10.37,6,9,5.19a4.42,4.42,0,0,1,0,7.67l-9,5.19-10.37,6a3.5,3.5,0,0,1-5.26-3Z"/><path class="cls-2" d="M1,16.49v-12a3.5,3.5,0,0,1,5.26-3l10.37,6,9,5.19a4.42,4.42,0,0,1,0,7.67l-9,5.19-10.37,6a3.5,3.5,0,0,1-5.26-3Z"/><path class="cls-3" d="M7.13,17.27a1.19,1.19,0,0,1,0,.22,2,2,0,0,1,0,.25,2.11,2.11,0,0,1,0,.25,1.08,1.08,0,0,1,0,.21,1.21,1.21,0,0,1-.44.65,2.16,2.16,0,0,1-.77.39,2.64,2.64,0,0,1-.89.08,2,2,0,0,1-.82-.23,1.91,1.91,0,0,1-.38-.31,1.62,1.62,0,0,1-.27-.41.49.49,0,0,1-.06-.17.65.65,0,0,1,0-.2.56.56,0,0,1,.09-.17.35.35,0,0,1,.18-.1H4l.17,0a.55.55,0,0,1,.15.08.26.26,0,0,1,.11.14.93.93,0,0,0,.22.27,1.49,1.49,0,0,0,.31.2,1.22,1.22,0,0,0,.46.06,1.18,1.18,0,0,0,.43-.1.76.76,0,0,0,.31-.25.56.56,0,0,0,.12-.36.78.78,0,0,0-.05-.28.59.59,0,0,0-.13-.18.72.72,0,0,0-.21-.12l-.27-.08a2.15,2.15,0,0,0-.34-.05l-.35,0L4.54,17a2.13,2.13,0,0,1-.33-.11,1,1,0,0,1-.49-.41,1.34,1.34,0,0,1-.2-.58,1.51,1.51,0,0,1,.07-.63,1.28,1.28,0,0,1,.34-.54,1.44,1.44,0,0,1,.53-.29,3.58,3.58,0,0,1,.69-.1,3.17,3.17,0,0,1,.43,0,1.85,1.85,0,0,1,.41.07,2,2,0,0,1,.37.12,1.49,1.49,0,0,1,.3.18,1.11,1.11,0,0,1,.18.19,1,1,0,0,1,.14.24.55.55,0,0,1,0,.25.3.3,0,0,1-.15.21.45.45,0,0,1-.21.06.53.53,0,0,1-.2-.07.88.88,0,0,1-.17-.12l-.15-.13a1.15,1.15,0,0,0-.47-.18,2,2,0,0,0-.53,0l-.28.07a.74.74,0,0,0-.23.14.5.5,0,0,0-.15.2.64.64,0,0,0,0,.28A.4.4,0,0,0,4.5,16a.44.44,0,0,0,.15.12.54.54,0,0,0,.19.08.78.78,0,0,0,.21,0l.63.07a1.87,1.87,0,0,1,.61.14,1.57,1.57,0,0,1,.53.32A1.14,1.14,0,0,1,7.13,17.27Z"/><path class="cls-3" d="M11.34,14.57a.29.29,0,0,1,.08.19.25.25,0,0,1,0,.08.19.19,0,0,1,0,.08.27.27,0,0,1-.09.15.3.3,0,0,1-.15.06l-.1,0-.1,0H9.91v1c0,.22,0,.48,0,.77v1.54a.28.28,0,0,0,0,.1v.05s0,0,0,.06a.61.61,0,0,0,0,.15.17.17,0,0,1,0,.07.14.14,0,0,1,0,.06.09.09,0,0,0,0,0l0,0a.4.4,0,0,1-.13.13.56.56,0,0,1-.34,0,.31.31,0,0,1-.28-.19A.53.53,0,0,1,9,19a.59.59,0,0,1,0-.13v-3.6H8.06l-.13,0-.14,0A.55.55,0,0,1,7.55,15a.31.31,0,0,1-.07-.21v-.08a.22.22,0,0,1,0-.08.29.29,0,0,1,.11-.14l.09-.05.12,0A.81.81,0,0,1,8,14.36h2.77l.17,0,.17,0,.12.06A.18.18,0,0,1,11.34,14.57Z"/><path class="cls-3" d="M15.39,18.83a.22.22,0,0,0,0,.08V19a.27.27,0,0,1-.05.15.18.18,0,0,1,0,.07l-.09.05a.53.53,0,0,1-.37.07.56.56,0,0,1-.17-.09l0,0a0,0,0,0,0,0,0,0,0,0,0,1,0,0l0,0a.19.19,0,0,1-.06-.07l0-.06,0-.07a.16.16,0,0,1,0-.07l0-.05s0,0,0-.05a.76.76,0,0,1,0-.11l-.14-.35H12.27l-.15.35s0,0,0,.05a.14.14,0,0,1,0,.06s0,0,0,.05l0,.05A.43.43,0,0,1,12,19l0,.07,0,.06s0,.05-.06.07l0,0a0,0,0,0,1,0,0s0,0,0,0l0,0a.56.56,0,0,1-.17.09.53.53,0,0,1-.37-.07.26.26,0,0,1-.09-.05.18.18,0,0,1-.05-.07.21.21,0,0,1,0-.15v-.09s0-.05,0-.08a.93.93,0,0,1,0-.13l0-.06,1.45-3.58.05-.11,0-.08a.25.25,0,0,0,0-.09.77.77,0,0,1,.07-.16l.05-.07.06-.07a.31.31,0,0,1,.12-.1.73.73,0,0,1,.22,0,.75.75,0,0,1,.23,0,.4.4,0,0,1,.12.1l.11.14c0,.05.05.1.07.16a.25.25,0,0,0,0,.09l0,.08,0,.11,1.46,3.58,0,.06A.93.93,0,0,1,15.39,18.83Zm-1.66-1.71c-.06-.14-.12-.28-.19-.42s-.13-.3-.2-.45,0-.08-.05-.13L13.23,16a.61.61,0,0,1-.05.12,1.12,1.12,0,0,0,0,.13c-.07.15-.14.3-.2.45s-.13.28-.19.42l-.12.3h1.23Z"/><path class="cls-3" d="M19.57,19a.29.29,0,0,1,0,.13.16.16,0,0,1,0,.07l-.06.06a.52.52,0,0,1-.15.07l-.11,0a.39.39,0,0,1-.31-.09.79.79,0,0,1-.19-.22,1.25,1.25,0,0,1-.08-.12l-.08-.15-.77-1.48h-.91V18.8a.28.28,0,0,1,0,.09.37.37,0,0,1,0,.11.64.64,0,0,1-.06.16.53.53,0,0,1-.13.13.48.48,0,0,1-.36.05.51.51,0,0,1-.17-.07.12.12,0,0,1-.05-.05.16.16,0,0,1,0-.07.19.19,0,0,1,0-.07L16,19a.59.59,0,0,1,0-.13V14.81a.25.25,0,0,0,0-.08,1.42,1.42,0,0,1,0-.16.23.23,0,0,1,.07-.11.32.32,0,0,1,.13-.08.67.67,0,0,1,.26,0h.62l.62,0,.43,0a1.85,1.85,0,0,1,.42.11l.23.1a1,1,0,0,1,.21.15,1.34,1.34,0,0,1,.37.54,1.58,1.58,0,0,1,.13.63,1.38,1.38,0,0,1-.18.7,1.12,1.12,0,0,1-.57.47h-.08l.65,1.3.06.11a.21.21,0,0,0,0,.06l0,.07s0,.05,0,.08l0,.08C19.55,18.9,19.56,19,19.57,19Zm-1.75-2.49a.6.6,0,0,0,.24-.05.72.72,0,0,0,.21-.12.55.55,0,0,0,.16-.18.44.44,0,0,0,.07-.22.56.56,0,0,0-.18-.52.87.87,0,0,0-.55-.19h-.91c0,.19,0,.38,0,.58s0,.44,0,.71Z"/><path class="cls-3" d="M23.55,14.57a.29.29,0,0,1,.08.19s0,.05,0,.08a.19.19,0,0,1,0,.08.27.27,0,0,1-.09.15.34.34,0,0,1-.15.06l-.1,0-.11,0H22.11c0,.14,0,.3,0,.47v.57c0,.22,0,.48,0,.77v1.75a.61.61,0,0,0,0,.15s0,.05,0,.07,0,0,0,.06a.09.09,0,0,0,0,0l0,0a.4.4,0,0,1-.13.13.59.59,0,0,1-.35,0,.38.38,0,0,1-.18-.07.47.47,0,0,1-.09-.12.53.53,0,0,1-.05-.15.59.59,0,0,1,0-.13v-3.6h-.92l-.13,0-.15,0a.58.58,0,0,1-.23-.13.31.31,0,0,1-.07-.21v-.08a.22.22,0,0,1,0-.08.24.24,0,0,1,.11-.14l.09-.05.11,0,.21-.05H23l.17,0,.17,0,.12.06A.18.18,0,0,1,23.55,14.57Z"/></g></g></svg>