<svg xmlns="http://www.w3.org/2000/svg" viewBox="0 0 94.24 94.24"><defs><style>.cls-1{fill:#a86aad;}.cls-2{fill:#cd7cd1;}.cls-3{fill-opacity:0.2;}.cls-4{fill-opacity:0.1;}.cls-5{fill:#fff;}.cls-6{fill:#faac22;}.cls-7{fill:#ec2024;}.cls-8{fill:#fde800;}</style></defs><g id="레이어_2" data-name="레이어 2"><g id="레이어_2-2" data-name="레이어 2"><path class="cls-1" d="M94.24,78.53A15.76,15.76,0,0,1,78.53,94.24H15.71A15.76,15.76,0,0,1,0,78.53V15.71A15.76,15.76,0,0,1,15.71,0H78.53A15.76,15.76,0,0,1,94.24,15.71Z"/><path class="cls-2" d="M78.53,1.05H15.71A14.67,14.67,0,0,0,1.05,15.71V78.53A14.67,14.67,0,0,0,15.71,93.19H78.53A14.68,14.68,0,0,0,93.19,78.53V15.71A14.67,14.67,0,0,0,78.53,1.05Z"/><path class="cls-3" d="M78.53,1.05H15.71A14.67,14.67,0,0,0,1.05,15.71V78.53A14.67,14.67,0,0,0,15.71,93.19H78.53A14.68,14.68,0,0,0,93.19,78.53V15.71A14.67,14.67,0,0,0,78.53,1.05ZM90.05,78.53A11.54,11.54,0,0,1,78.53,90.05H15.71A11.54,11.54,0,0,1,4.19,78.53V15.71A11.52,11.52,0,0,1,15.71,4.19H78.53A11.53,11.53,0,0,1,90.05,15.71Z"/><path class="cls-4" d="M78.53,1.05H15.71A14.67,14.67,0,0,0,1.05,15.71V78.53A14.67,14.67,0,0,0,15.71,93.19H78.53A14.68,14.68,0,0,0,93.19,78.53V15.71A14.67,14.67,0,0,0,78.53,1.05ZM90.05,78.53A11.54,11.54,0,0,1,78.53,90.05H15.71A11.54,11.54,0,0,1,4.19,78.53V15.71A11.52,11.52,0,0,1,15.71,4.19H78.53A11.53,11.53,0,0,1,90.05,15.71Z"/><path class="cls-5" d="M30.82,75.58c.68,2,.11,4.31-2.6,4.88a13.27,13.27,0,0,1-2.6.28,13.46,13.46,0,0,1-3-.15,1,1,0,0,1-.66-.87.79.79,0,0,1-.08-.34V68.68c0-1.42,1.27-1.47,2.55-1.46.51,0,1,0,1.54,0a8,8,0,0,1,2.57.42,5.42,5.42,0,0,1,.6.26,1.79,1.79,0,0,1,.51.38,3.3,3.3,0,0,1-.34,5.28A3.55,3.55,0,0,1,30.82,75.58ZM28,78.06a2.19,2.19,0,0,0-.36-3,3.41,3.41,0,0,0-2.11-.54c-.72,0-1.19-.06-1.17.64s0,1.32,0,1.92c0,.34-.07.83.19,1.1a2.22,2.22,0,0,0,1.47.33C26.75,78.52,27.69,78.42,28,78.06Zm-3.58-7.59c0,.47,0,.94,0,1.39,0,1,1.53.81,2.34.68a1.52,1.52,0,0,0,1.47-1.49c.09-1.13-.68-1.51-1.85-1.55C24.79,69.47,24.37,69.3,24.41,70.47Z"/><path class="cls-5" d="M44,79.69a.63.63,0,0,1-.13.41.88.88,0,0,1-.38.32,1.41,1.41,0,0,1-1,.19,1.08,1.08,0,0,1-.47-.25s-.07,0-.09-.09-.06-.08-.1-.09a3.56,3.56,0,0,1-.26-.36c-.06-.12-.11-.23-.19-.36a.88.88,0,0,1-.13-.28,1.27,1.27,0,0,1-.09-.3l-.4-.93c-1.72,0-3.47,0-5.19,0l-.39.93a2.63,2.63,0,0,0-.09.3,1.83,1.83,0,0,1-.14.28l-.2.36a1.81,1.81,0,0,1-.25.36s-.08.07-.09.09-.06.06-.1.09a1.08,1.08,0,0,1-.47.25,1.41,1.41,0,0,1-1-.19.94.94,0,0,1-.38-.32.69.69,0,0,1-.13-.41,3.28,3.28,0,0,1,0-.46,3.37,3.37,0,0,1,.09-.34,1.16,1.16,0,0,0,.06-.17l3.92-9.65.12-.3c0-.15.13-.26.18-.43A2.53,2.53,0,0,1,37,67.9a2.44,2.44,0,0,1,.28-.39,1,1,0,0,1,.32-.25,2,2,0,0,1,1.23,0,.93.93,0,0,1,.32.25,3.29,3.29,0,0,1,.28.39,2,2,0,0,1,.21.44c.06.17.13.28.19.43l.11.3,3.92,9.65a1.16,1.16,0,0,0,.06.17,1.91,1.91,0,0,1,.1.34C44,79.38,44,79.52,44,79.69Zm-4.5-5.08c-.32-.71-.66-1.5-1-2.31-.09-.23-.21-.48-.3-.7-.08.22-.19.47-.29.7-.37.81-.71,1.6-1,2.31l-.34.83h3.34Z"/><path class="cls-5" d="M55.3,77.54c-.81,2.82-5.3,3.81-7.86,2.39A4.22,4.22,0,0,1,45.67,78a1.21,1.21,0,0,1,.62-1.74,1.39,1.39,0,0,1,1.6.63,3.14,3.14,0,0,0,1.42,1.26c1.66.56,3.56-.3,3.56-1.75,0-1.19-.72-1.53-1.79-1.8A17,17,0,0,1,47.42,74c-2.3-1-2.41-4.22-.75-5.8A5.15,5.15,0,0,1,50,67.09,6.38,6.38,0,0,1,54,68.15c.64.51,1.51,1.79.55,2.37-.79.51-1.46-.3-2-.68a4.11,4.11,0,0,0-2.68-.56c-1.09.13-2,.71-1.89,1.85.06.81.93,1.07,1.66,1.17a14.64,14.64,0,0,1,3.36.54A3.61,3.61,0,0,1,55.28,75,4.47,4.47,0,0,1,55.3,77.54Z"/><path class="cls-5" d="M57.56,78.52l0-1.49,0-2.77c0-.8,0-1.66,0-2.57s0-1.53,0-2.39v-.08c0-.24,0-.53,0-.79a2.29,2.29,0,0,1,.21-.74,1.14,1.14,0,0,1,.4-.45,1.35,1.35,0,0,1,.58-.15,3.77,3.77,0,0,1,.51,0,.71.71,0,0,1,.43.23.68.68,0,0,1,.21.3,3.39,3.39,0,0,1,.11.43,4.07,4.07,0,0,1,0,.47c0,.17,0,.3,0,.46v.32l-.11,9.78v.19c0,.07,0,.19,0,.34s-.07.26-.13.41a1,1,0,0,1-.28.34.92.92,0,0,1-.5.21,1.5,1.5,0,0,1-1-.09,1,1,0,0,1-.32-.38.21.21,0,0,1,0-.12,1,1,0,0,1-.08-.11,1.76,1.76,0,0,1-.07-.41l-.06-.38a.86.86,0,0,1,0-.32Z"/><path class="cls-5" d="M69.25,80.57A6.37,6.37,0,0,1,64,79.29C62.27,77.84,62.16,75,62.33,73a6.84,6.84,0,0,1,3.24-5.33,5,5,0,0,1,5.33.49c.8.7,2,2.77.36,3.19-.7.18-1.09-.32-1.45-.78a2.49,2.49,0,0,0-4.17.64c-.79,1.7-1,4.26,0,5.77a2.86,2.86,0,0,0,3.74.83c.41-.2.92-.81,1.5-1a1.14,1.14,0,0,1,1.36.57C72.94,78.78,70.73,80.21,69.25,80.57Z"/><path class="cls-5" d="M90.07,18.52c.42-9-4.09-14.68-13.66-14.11H17.86C10.19,4,3.45,7.85,4.2,18.52V58.29H90.07Z"/><path class="cls-6" d="M31.74,39.05a2.11,2.11,0,0,1-2.12-2s0-1.4,0-2.25c0-.33,0-.66.26-.66s.25.13.38.32a.93.93,0,0,0,.76.42h.06a.74.74,0,0,0,.57-.29c.3-.31.32-.84.33-3.31s0-3-.33-3.31a.74.74,0,0,0-.57-.29H31a.94.94,0,0,0-.76.41c-.13.2-.24.33-.38.33s-.26-.33-.26-.66c0-.85,0-2.25,0-2.25a2.11,2.11,0,0,1,2.12-2h11.5a2,2,0,0,1,1.94,2s0,2.31,0,2.36c0,.72.22.72.44.72s.31-.12.43-.29a.74.74,0,0,1,.7-.44c.73,0,.73,1.15.74,2.9v1c0,1.75,0,2.9-.74,2.9a.74.74,0,0,1-.7-.44c-.12-.17-.2-.29-.43-.29s-.44,0-.44.72c0,0,0,2.36,0,2.36a2,2,0,0,1-1.94,2Z"/><path class="cls-6" d="M51.74,39.12a2.11,2.11,0,0,1-2.11-2V34.87c0-.33,0-.66.27-.66s.25.13.38.33A.91.91,0,0,0,51,35h.05a.73.73,0,0,0,.58-.3c.3-.3.31-.84.33-3.31s0-3-.33-3.3a.71.71,0,0,0-.57-.29H51a.91.91,0,0,0-.76.41c-.13.2-.25.33-.38.33s-.27-.33-.27-.66V25.58a2.1,2.1,0,0,1,2.11-2h11.5a2,2,0,0,1,1.95,2s0,2.31,0,2.36c0,.73.22.73.43.73s.32-.12.43-.3a.78.78,0,0,1,.71-.43c.73,0,.73,1.15.73,2.89v1.05c0,1.74,0,2.9-.73,2.9a.79.79,0,0,1-.71-.44c-.11-.17-.19-.3-.43-.3s-.43,0-.43.73c0,0,0,2.36,0,2.36a2,2,0,0,1-1.95,2Z"/><path class="cls-7" d="M67.33,39.13a2.11,2.11,0,0,1-2.11-2V34.88c0-.33,0-.66.27-.66s.25.13.38.33a.91.91,0,0,0,.76.41h.06a.71.71,0,0,0,.57-.29c.3-.31.32-.79.33-3.32s0-3-.33-3.31a.74.74,0,0,0-.57-.29h-.06a.91.91,0,0,0-.76.41c-.13.2-.25.33-.38.33s-.27-.33-.27-.66V25.57a2.11,2.11,0,0,1,2.11-2H78.06a7.78,7.78,0,0,1,0,15.55Z"/><path class="cls-8" d="M16.12,39.05a7.76,7.76,0,0,1,0-15.52h8.16a2,2,0,0,1,1.94,2s0,2.31,0,2.36c0,.72.22.72.44.72s.31-.12.42-.29a.77.77,0,0,1,.71-.44c.73,0,.73,1.15.74,2.9v1c0,1.75,0,2.9-.74,2.9a.77.77,0,0,1-.71-.44c-.11-.17-.19-.29-.42-.29s-.44,0-.44.73c0,0,0,2.35,0,2.35a2,2,0,0,1-1.94,2H16.12Z"/></g></g></svg>