<svg xmlns="http://www.w3.org/2000/svg" xmlns:xlink="http://www.w3.org/1999/xlink" viewBox="0 0 94.3 114.97"><defs><style>.cls-1,.cls-3{opacity:0.5;}.cls-1,.cls-3,.cls-6{isolation:isolate;}.cls-1{fill:url(#무제_그라디언트_8);}.cls-2{fill:#c9bf8b;}.cls-3{fill:url(#무제_그라디언트_8-2);}.cls-4{fill:#a86aad;}.cls-5{fill:#c5b4d8;}.cls-10,.cls-6{fill:#fff;}.cls-6{opacity:0.3;}.cls-7{fill:#f7ec9f;}.cls-8{fill:#cd7cd1;}.cls-9{fill:url(#무제_그라디언트_5);}.cls-11{fill:#faac22;}.cls-12{fill:#ec2024;}.cls-13{fill:#fde800;}</style><linearGradient id="무제_그라디언트_8" x1="47.03" y1="1450.77" x2="47.03" y2="1356.7" gradientTransform="translate(0 -1337.89)" gradientUnits="userSpaceOnUse"><stop offset="0" stop-opacity="0.5"/><stop offset="0.09" stop-opacity="0.46"/><stop offset="1" stop-opacity="0"/></linearGradient><linearGradient id="무제_그라디언트_8-2" x1="47.03" y1="1454.11" x2="47.03" y2="1360.94" xlink:href="#무제_그라디언트_8"/><linearGradient id="무제_그라디언트_5" x1="47.36" y1="1893.09" x2="47.36" y2="1960.61" gradientTransform="translate(0 -1891.89)" gradientUnits="userSpaceOnUse"><stop offset="0" stop-color="#fff" stop-opacity="0.5"/><stop offset="0.5" stop-color="#fff" stop-opacity="0"/><stop offset="1" stop-color="#fff" stop-opacity="0"/></linearGradient></defs><g id="레이어_2" data-name="레이어 2"><g id="레이어_2-2" data-name="레이어 2"><path class="cls-1" d="M94.07,97.21a15.72,15.72,0,0,1-15.68,15.67H15.68A15.72,15.72,0,0,1,0,97.21V34.49A15.73,15.73,0,0,1,15.68,18.81H78.39A15.73,15.73,0,0,1,94.07,34.49Z"/><path class="cls-2" d="M94.07,95.11a15.72,15.72,0,0,1-15.68,15.68H15.68A15.72,15.72,0,0,1,0,95.11V32.4A15.73,15.73,0,0,1,15.68,16.72H78.39A15.73,15.73,0,0,1,94.07,32.4Z"/><path class="cls-3" d="M94.07,99.3A15.72,15.72,0,0,1,78.39,115H15.68A15.72,15.72,0,0,1,0,99.3V36.58A15.73,15.73,0,0,1,15.68,20.9H78.39A15.73,15.73,0,0,1,94.07,36.58Z"/><path class="cls-4" d="M94.3,95.11a15.72,15.72,0,0,1-15.67,15.68H15.91A15.72,15.72,0,0,1,.23,95.11V32.4A15.73,15.73,0,0,1,15.91,16.72H78.63A15.72,15.72,0,0,1,94.3,32.4Z"/><path class="cls-4" d="M15.91,109.75A14.65,14.65,0,0,1,1.28,95.11V32.4A14.64,14.64,0,0,1,15.91,17.77H78.62A14.65,14.65,0,0,1,93.26,32.4V95.11a14.66,14.66,0,0,1-14.64,14.64Z"/><path class="cls-4" d="M94.3,74.21A15.72,15.72,0,0,1,78.63,89.89H15.91A15.73,15.73,0,0,1,.23,74.21V15.68A15.73,15.73,0,0,1,15.91,0H78.63A15.72,15.72,0,0,1,94.3,15.68Z"/><path class="cls-5" d="M78.63,1.05H15.91A14.64,14.64,0,0,0,1.28,15.68V78.39A14.64,14.64,0,0,0,15.91,93H78.63A14.65,14.65,0,0,0,93.26,78.39V15.68A14.65,14.65,0,0,0,78.63,1.05ZM92.21,78.39A13.6,13.6,0,0,1,78.63,92H15.91A13.61,13.61,0,0,1,2.32,78.39V15.68A13.61,13.61,0,0,1,15.91,2.09H78.63A13.6,13.6,0,0,1,92.21,15.68Z"/><path class="cls-6" d="M78.63,1.05H15.91A14.64,14.64,0,0,0,1.28,15.68V78.39A14.64,14.64,0,0,0,15.91,93H78.63A14.65,14.65,0,0,0,93.26,78.39V15.68A14.65,14.65,0,0,0,78.63,1.05ZM92.21,78.39A13.6,13.6,0,0,1,78.63,92H15.91A13.61,13.61,0,0,1,2.32,78.39V15.68A13.61,13.61,0,0,1,15.91,2.09H78.63A13.6,13.6,0,0,1,92.21,15.68Z"/><path class="cls-7" d="M78.63,2.09H15.91A13.61,13.61,0,0,0,2.32,15.68V78.39A13.61,13.61,0,0,0,15.91,92H78.63A13.6,13.6,0,0,0,92.21,78.39V15.68A13.6,13.6,0,0,0,78.63,2.09Z"/><path class="cls-8" d="M78.63,2.09H15.91A13.61,13.61,0,0,0,2.32,15.68V78.39A13.61,13.61,0,0,0,15.91,92H78.63A13.6,13.6,0,0,0,92.21,78.39V15.68A13.6,13.6,0,0,0,78.63,2.09Z"/><path class="cls-9" d="M2.41,78.39A13.61,13.61,0,0,0,16,92H78.71A13.6,13.6,0,0,0,92.3,78.39V15.68A13.6,13.6,0,0,0,78.71,2.09H16A13.61,13.61,0,0,0,2.41,15.68Z"/><path class="cls-10" d="M92.3,15.79A13.6,13.6,0,0,0,78.71,2.2H16A13.61,13.61,0,0,0,2.41,15.79V55.3H92.3Z"/><path class="cls-10" d="M28.55,73.31a4.14,4.14,0,0,1,1,.88,3.93,3.93,0,0,1,.65,1.24,5.8,5.8,0,0,1,.27,1.64,3.87,3.87,0,0,1-.3,1.53,3.19,3.19,0,0,1-1,1.23,4,4,0,0,1-1.73.74,9.06,9.06,0,0,1-1.35.22,12,12,0,0,1-1.39.08c-.52,0-1.05,0-1.6,0a8.34,8.34,0,0,1-1.6-.17.79.79,0,0,1-.49-.34,1.77,1.77,0,0,1-.21-.57.94.94,0,0,1-.08-.36V68.16A1.42,1.42,0,0,1,21,67.3a1.34,1.34,0,0,1,.61-.46,2.72,2.72,0,0,1,.85-.18c.32,0,.65,0,1,0H25c.44,0,.89.05,1.36.11a5.93,5.93,0,0,1,1.35.33,4.72,4.72,0,0,1,.63.28,1.6,1.6,0,0,1,.54.39,3.67,3.67,0,0,1,.94,1.35,3.59,3.59,0,0,1,.27,1.54,3.46,3.46,0,0,1-.43,1.5A3.14,3.14,0,0,1,28.55,73.31Zm-3.47,5.26c.4,0,.82-.07,1.24-.14a1.42,1.42,0,0,0,.88-.38,2.06,2.06,0,0,0,.37-.74,2.6,2.6,0,0,0,.06-.88,2.54,2.54,0,0,0-.26-.85,1.75,1.75,0,0,0-.55-.65,2.38,2.38,0,0,0-1.05-.46,5.93,5.93,0,0,0-1.17-.11h-.51a1.25,1.25,0,0,0-.4.06.36.36,0,0,0-.24.19.76.76,0,0,0-.08.41,9,9,0,0,1,0,1c0,.34,0,.67,0,1s0,.39,0,.6a.69.69,0,0,0,.21.55,1.1,1.1,0,0,0,.63.3A4.45,4.45,0,0,0,25.08,78.57ZM25.47,69l-1,0a1.92,1.92,0,0,0-.64.06.43.43,0,0,0-.31.29,1.67,1.67,0,0,0-.07.69c0,.25,0,.5,0,.74s0,.49,0,.73a.67.67,0,0,0,.25.58,1.24,1.24,0,0,0,.65.23,3.66,3.66,0,0,0,.81,0,6.25,6.25,0,0,0,.75-.1,2.11,2.11,0,0,0,1.1-.48,1.64,1.64,0,0,0,.45-1.09A1.23,1.23,0,0,0,27,69.42,2.93,2.93,0,0,0,25.47,69Z"/><path class="cls-10" d="M44,79.28l0,.23c0,.07,0,.16,0,.25a.79.79,0,0,1-.14.44.67.67,0,0,1-.16.18,1,1,0,0,1-.24.15,1.55,1.55,0,0,1-1,.2,1.33,1.33,0,0,1-.5-.26l-.06,0s0,0,0,0l0,0a.1.1,0,0,0-.06,0l-.15-.19-.12-.19-.09-.19-.11-.19-.08-.15a.34.34,0,0,1-.06-.15.92.92,0,0,1-.1-.31l-.42-1H37.93c-.9,0-1.81,0-2.73,0l-.42,1a.42.42,0,0,0,0,.15.44.44,0,0,1-.06.16.52.52,0,0,1-.07.15.94.94,0,0,1-.06.15l-.11.19-.11.19a1.74,1.74,0,0,1-.1.19,1.24,1.24,0,0,1-.16.19.1.1,0,0,0-.06,0l0,0s0,0,0,0l-.06,0a1.33,1.33,0,0,1-.5.26,1.55,1.55,0,0,1-1-.2,1,1,0,0,1-.24-.15.9.9,0,0,1-.16-.18.78.78,0,0,1-.13-.44,1.93,1.93,0,0,1,0-.25,1,1,0,0,1,0-.23,3.58,3.58,0,0,1,.09-.35l.06-.18,4.14-10.17.11-.32a1.47,1.47,0,0,1,.1-.22.67.67,0,0,0,.1-.24,3.15,3.15,0,0,1,.22-.45,1.64,1.64,0,0,1,.14-.22l.16-.2a.83.83,0,0,1,.34-.26,2,2,0,0,1,.64-.1,2.11,2.11,0,0,1,.65.1.8.8,0,0,1,.33.26,3.82,3.82,0,0,1,.3.42,2.36,2.36,0,0,1,.22.45.91.91,0,0,0,.1.24,1.47,1.47,0,0,1,.1.22l.12.32,4.13,10.17.06.18A3.57,3.57,0,0,1,44,79.28Zm-4.71-4.86-.52-1.19q-.27-.62-.57-1.26l-.16-.36c0-.13-.11-.25-.16-.37a3.44,3.44,0,0,1-.14.37,3.92,3.92,0,0,1-.16.36l-.56,1.26-.53,1.19-.36.87h3.52Z"/><path class="cls-10" d="M56,74.85a2.91,2.91,0,0,1,.15.63,4.12,4.12,0,0,1,0,.7,4.17,4.17,0,0,1,0,.71,3.26,3.26,0,0,1-.13.61,3.48,3.48,0,0,1-1.27,1.85,6,6,0,0,1-2.17,1.08,7.12,7.12,0,0,1-2.52.24A5.59,5.59,0,0,1,47.69,80a4.09,4.09,0,0,1-1.09-.88A5.14,5.14,0,0,1,45.83,78a1.28,1.28,0,0,1-.15-.5,1.31,1.31,0,0,1,0-.56,1.25,1.25,0,0,1,.26-.48.85.85,0,0,1,.49-.28,2,2,0,0,1,.45,0,1.91,1.91,0,0,1,.48.06,1.4,1.4,0,0,1,.44.22,1.11,1.11,0,0,1,.32.41,2.6,2.6,0,0,0,.62.77,3.9,3.9,0,0,0,.87.56A3.43,3.43,0,0,0,52.19,78a2.48,2.48,0,0,0,.89-.7,1.69,1.69,0,0,0,.33-1,1.81,1.81,0,0,0-.14-.78,1.43,1.43,0,0,0-.38-.52,2.18,2.18,0,0,0-.6-.34,4.23,4.23,0,0,0-.76-.24,6.3,6.3,0,0,0-1-.14l-1-.1c-.33,0-.65-.09-1-.16a5.4,5.4,0,0,1-.94-.3,2.83,2.83,0,0,1-1.39-1.15,4,4,0,0,1-.56-1.67,4.19,4.19,0,0,1,.21-1.78,3.63,3.63,0,0,1,1-1.51,3.69,3.69,0,0,1,1.52-.83,8.87,8.87,0,0,1,2-.29,9.63,9.63,0,0,1,1.2,0,8.8,8.8,0,0,1,1.18.2,5.64,5.64,0,0,1,1.05.36,3.63,3.63,0,0,1,.84.52,2.55,2.55,0,0,1,.52.52,2.88,2.88,0,0,1,.4.7,1.45,1.45,0,0,1,.09.7.86.86,0,0,1-.43.58,1,1,0,0,1-.61.17,1.33,1.33,0,0,1-.54-.18,4.1,4.1,0,0,1-.5-.35l-.44-.36a3.08,3.08,0,0,0-1.33-.53,4.68,4.68,0,0,0-1.48-.06,3.4,3.4,0,0,0-.82.2,1.83,1.83,0,0,0-.64.37,1.67,1.67,0,0,0-.42.59,1.53,1.53,0,0,0-.11.78.88.88,0,0,0,.19.54,1.34,1.34,0,0,0,.42.36,2.65,2.65,0,0,0,.54.22,4.21,4.21,0,0,0,.6.11c.59.08,1.19.14,1.78.18a5.93,5.93,0,0,1,1.75.4,4.73,4.73,0,0,1,1.49.91A3.22,3.22,0,0,1,56,74.85Z"/><path class="cls-10" d="M58.36,78.53l0-1.57,0-2.92c0-.42,0-.86,0-1.31V70.07c0-.37,0-.79,0-1.25v-.08c0-.13,0-.27,0-.41s0-.28,0-.43a2,2,0,0,1,.21-.77,1.28,1.28,0,0,1,.42-.48,1.46,1.46,0,0,1,.62-.16H60l.25,0a.82.82,0,0,1,.46.24.94.94,0,0,1,.22.32c0,.08,0,.16.07.23s0,.15,0,.23l0,.25c0,.08,0,.16,0,.24s0,.18,0,.25a1.69,1.69,0,0,0,0,.23v.34L61,79.16v.2s0,.09,0,.15l0,.21a1.72,1.72,0,0,0-.07.21c0,.07,0,.15-.07.23a2.14,2.14,0,0,1-.13.19,1.33,1.33,0,0,1-.17.16.93.93,0,0,1-.52.22,1.52,1.52,0,0,1-1-.1.85.85,0,0,1-.34-.39.16.16,0,0,1-.05-.12s0-.05,0-.06l0-.06a.83.83,0,0,1-.06-.21.86.86,0,0,1,0-.23.69.69,0,0,1,0-.2l0-.2a.91.91,0,0,1,0-.33Z"/><path class="cls-10" d="M73.85,77.3a1.37,1.37,0,0,1,0,1.12,2.83,2.83,0,0,1-.76,1,5.82,5.82,0,0,1-2.44,1.27,5.67,5.67,0,0,1-1.38.13,6.47,6.47,0,0,1-1.45-.18,6.74,6.74,0,0,1-1.41-.49,5.9,5.9,0,0,1-1.26-.81A3.82,3.82,0,0,1,64.09,78a7,7,0,0,1-.57-1.72,10.24,10.24,0,0,1-.19-1.83c0-.62,0-1.2.05-1.74a7.38,7.38,0,0,1,.3-1.53,8.1,8.1,0,0,1,.66-1.56,7.5,7.5,0,0,1,1-1.42,5.38,5.38,0,0,1,1.42-1.11,4.12,4.12,0,0,1,1.38-.49,6.67,6.67,0,0,1,1.55-.06,5.77,5.77,0,0,1,1.49.34,3.61,3.61,0,0,1,1.2.73,4.14,4.14,0,0,1,.66.77,3.84,3.84,0,0,1,.51,1,1.61,1.61,0,0,1,0,1,1,1,0,0,1-.81.6.93.93,0,0,1-.49,0,1,1,0,0,1-.4-.18,2.36,2.36,0,0,1-.34-.3l-.3-.36a2.31,2.31,0,0,0-1.11-.79,2.58,2.58,0,0,0-1.26-.1,2.8,2.8,0,0,0-1.17.52,2.67,2.67,0,0,0-.84,1,7.37,7.37,0,0,0-.51,1.48,7.51,7.51,0,0,0-.21,1.63,7.06,7.06,0,0,0,.15,1.6,3.68,3.68,0,0,0,.59,1.37,2.49,2.49,0,0,0,.78.77,3.13,3.13,0,0,0,1,.42,3.07,3.07,0,0,0,1.09,0,3.1,3.1,0,0,0,1.06-.36,2.4,2.4,0,0,0,.34-.22l.39-.31c.14-.11.27-.21.41-.3a1.51,1.51,0,0,1,.45-.2,1.23,1.23,0,0,1,.78,0A1.09,1.09,0,0,1,73.85,77.3Z"/><path class="cls-11" d="M32,36.45a2.1,2.1,0,0,1-2.11-2s0-1.4,0-2.25c0-.33,0-.66.26-.66s.25.13.38.33a.93.93,0,0,0,.76.41h.05a.75.75,0,0,0,.58-.29c.3-.31.31-.84.33-3.3s0-3-.33-3.3a.73.73,0,0,0-.57-.3H31.3a.91.91,0,0,0-.76.41c-.13.2-.25.33-.38.33s-.26-.34-.26-.66c0-.85,0-2.25,0-2.25A2.11,2.11,0,0,1,32,21H43.48a2,2,0,0,1,1.94,2s0,2.31,0,2.36c0,.73.22.73.44.73s.31-.13.42-.3A.78.78,0,0,1,47,25.3c.73,0,.73,1.14.73,2.89v1c0,1.74,0,2.89-.73,2.89a.77.77,0,0,1-.71-.44c-.11-.17-.19-.29-.42-.29s-.44,0-.44.73c0,.05,0,2.35,0,2.35a2,2,0,0,1-1.94,2Z"/><path class="cls-11" d="M52,36.52a2.11,2.11,0,0,1-2.11-2s0-1.41,0-2.26c0-.32,0-.66.26-.66s.25.14.38.33a.94.94,0,0,0,.76.42h0a.73.73,0,0,0,.58-.3c.3-.3.31-.83.33-3.3s0-3-.33-3.3a.74.74,0,0,0-.57-.29h-.06a.93.93,0,0,0-.76.41c-.13.2-.25.33-.38.33s-.26-.33-.26-.66c0-.85,0-2.25,0-2.25A2.1,2.1,0,0,1,52,21H63.45a2,2,0,0,1,1.94,2s0,2.31,0,2.35c0,.73.22.73.44.73s.31-.12.42-.29a.77.77,0,0,1,.71-.44c.73,0,.73,1.15.73,2.89V29.3c0,1.74,0,2.89-.73,2.89a.79.79,0,0,1-.71-.44c-.11-.17-.19-.3-.42-.3s-.44,0-.44.73c0,0,0,2.36,0,2.36a2,2,0,0,1-1.94,2Z"/><path class="cls-12" d="M67.53,36.54a2.11,2.11,0,0,1-2.11-2s0-1.41,0-2.26c0-.33,0-.66.26-.66s.25.13.38.33a.91.91,0,0,0,.76.41h.06a.73.73,0,0,0,.57-.3c.3-.3.32-.79.33-3.31s0-3-.33-3.3a.73.73,0,0,0-.57-.3h-.06a.91.91,0,0,0-.76.42c-.13.19-.25.33-.38.33s-.26-.34-.26-.66c0-.86,0-2.26,0-2.26a2.11,2.11,0,0,1,2.11-2H78.24a7.77,7.77,0,0,1,0,15.53Z"/><path class="cls-13" d="M16.42,36.46a7.75,7.75,0,0,1,0-15.5h8.14a2,2,0,0,1,1.94,2s0,2.3,0,2.35c0,.73.22.73.44.73s.32-.13.43-.3a.75.75,0,0,1,.7-.43c.73,0,.73,1.15.74,2.89v1c0,1.74,0,2.89-.74,2.89a.74.74,0,0,1-.7-.44c-.11-.17-.19-.29-.43-.29s-.44,0-.44.73c0,.05,0,2.35,0,2.35a2,2,0,0,1-1.94,2H16.42Z"/></g></g></svg>