<svg xmlns="http://www.w3.org/2000/svg" xmlns:xlink="http://www.w3.org/1999/xlink" viewBox="0 0 46 46"><defs><style>.cls-1{opacity:0.75;isolation:isolate;fill:url(#무제_그라디언트_4);}.cls-2{fill:#a86aad;}.cls-3{fill:#cd7cd1;}.cls-4{fill-opacity:0.2;}.cls-5{fill-opacity:0.1;}.cls-6{fill:#fff;}.cls-7{fill:#faac22;}.cls-8{fill:#ec2024;}.cls-9{fill:#fde800;}</style><linearGradient id="무제_그라디언트_4" x1="23" y1="199.29" x2="23" y2="232.12" gradientTransform="matrix(1, 0, 0, -1, 0, 245.2)" gradientUnits="userSpaceOnUse"><stop offset="0" stop-color="#fff"/><stop offset="0.09" stop-color="#fff" stop-opacity="0.91"/><stop offset="1" stop-color="#fff" stop-opacity="0"/></linearGradient></defs><title>BASIC_ON</title><g id="레이어_2" data-name="레이어 2"><g id="레이어_1-2" data-name="레이어 1"><path class="cls-1" d="M8,46a8,8,0,0,1-8-8V8A8,8,0,0,1,8,0H38a8,8,0,0,1,8,8V38a8,8,0,0,1-8,8Z"/><path class="cls-1" d="M8,46a8,8,0,0,1-8-8V8A8,8,0,0,1,8,0H38a8,8,0,0,1,8,8V38a8,8,0,0,1-8,8Z"/><path class="cls-2" d="M45.5,38A7.52,7.52,0,0,1,38,45.5H8A7.52,7.52,0,0,1,.5,38V8A7.53,7.53,0,0,1,8,.5H38A7.52,7.52,0,0,1,45.5,8Z"/><path class="cls-3" d="M38,1H8A7,7,0,0,0,1,8V38a7,7,0,0,0,7,7H38a7,7,0,0,0,7-7V8A7,7,0,0,0,38,1Z"/><path class="cls-4" d="M38,1H8A7,7,0,0,0,1,8V38a7,7,0,0,0,7,7H38a7,7,0,0,0,7-7V8A7,7,0,0,0,38,1Zm5.5,37A5.51,5.51,0,0,1,38,43.5H8A5.5,5.5,0,0,1,2.5,38V8A5.51,5.51,0,0,1,8,2.5H38A5.51,5.51,0,0,1,43.5,8Z"/><path class="cls-5" d="M38,1H8A7,7,0,0,0,1,8V38a7,7,0,0,0,7,7H38a7,7,0,0,0,7-7V8A7,7,0,0,0,38,1Zm5.5,37A5.51,5.51,0,0,1,38,43.5H8A5.5,5.5,0,0,1,2.5,38V8A5.51,5.51,0,0,1,8,2.5H38A5.51,5.51,0,0,1,43.5,8Z"/><path class="cls-6" d="M15.22,36.59A1.65,1.65,0,0,1,14,38.92a6.36,6.36,0,0,1-1.24.13A6.41,6.41,0,0,1,11.28,39a.45.45,0,0,1-.31-.41.37.37,0,0,1,0-.16V33.29c0-.67.6-.7,1.22-.69h.74a3.67,3.67,0,0,1,1.22.2,2.52,2.52,0,0,1,.29.12.89.89,0,0,1,.24.18,1.57,1.57,0,0,1-.16,2.52A1.78,1.78,0,0,1,15.22,36.59Zm-1.35,1.19a1.07,1.07,0,0,0-.17-1.42,1.68,1.68,0,0,0-1-.26c-.34,0-.57,0-.56.31s0,.63,0,.92,0,.39.09.52a1.09,1.09,0,0,0,.7.16C13.27,38,13.72,38,13.87,37.78Zm-1.71-3.63c0,.22,0,.45,0,.66,0,.49.73.39,1.11.33a.73.73,0,0,0,.71-.71c0-.54-.33-.72-.89-.74C12.34,33.67,12.14,33.59,12.16,34.15Z"/><path class="cls-6" d="M21.52,38.55a.31.31,0,0,1-.07.2.39.39,0,0,1-.18.15.65.65,0,0,1-.47.09.47.47,0,0,1-.23-.12.08.08,0,0,1,0,0l-.05,0a.66.66,0,0,1-.12-.17,1.31,1.31,0,0,1-.09-.17.42.42,0,0,1-.07-.13.83.83,0,0,1,0-.15L20,37.72H17.49l-.19.44a.83.83,0,0,1,0,.15l-.06.13-.1.17a.66.66,0,0,1-.12.17l-.05,0s0,0,0,0a.47.47,0,0,1-.23.12.65.65,0,0,1-.47-.09.39.39,0,0,1-.18-.15.31.31,0,0,1-.07-.2,1.64,1.64,0,0,1,0-.22,1,1,0,0,1,.05-.16.2.2,0,0,0,0-.08l1.88-4.61.05-.14.09-.21a1.31,1.31,0,0,1,.1-.21,1.33,1.33,0,0,1,.14-.19.33.33,0,0,1,.15-.11.83.83,0,0,1,.58,0,.42.42,0,0,1,.16.11c0,.06.09.12.13.19a1.31,1.31,0,0,1,.1.21l.09.21.05.14,1.88,4.61s0,0,0,.08a1,1,0,0,1,.05.16A1.64,1.64,0,0,1,21.52,38.55Zm-2.15-2.42c-.16-.34-.32-.72-.5-1.11,0-.11-.1-.22-.14-.33,0,.11-.09.22-.14.33-.18.39-.34.77-.49,1.11l-.17.39h1.6Z"/><path class="cls-6" d="M26.91,37.52c-.39,1.35-2.53,1.82-3.76,1.15a2.08,2.08,0,0,1-.84-.92.58.58,0,0,1,.29-.83.67.67,0,0,1,.77.3,1.48,1.48,0,0,0,.68.6c.79.27,1.7-.14,1.7-.84s-.35-.73-.86-.85a8,8,0,0,1-1.75-.32A1.72,1.72,0,0,1,22.78,33a2.45,2.45,0,0,1,1.58-.5,3,3,0,0,1,1.94.5c.3.24.72.86.26,1.14s-.7-.15-.95-.33a2,2,0,0,0-1.28-.27c-.52.06-.94.34-.9.88s.44.52.79.56a6.77,6.77,0,0,1,1.61.26,1.72,1.72,0,0,1,1.07,1A2.1,2.1,0,0,1,26.91,37.52Z"/><path class="cls-6" d="M28,38V36c0-.38,0-.79,0-1.23s0-.73,0-1.14v0c0-.11,0-.25,0-.37a1,1,0,0,1,.1-.36.48.48,0,0,1,.19-.21.58.58,0,0,1,.28-.07h.24a.43.43,0,0,1,.21.11.44.44,0,0,1,.1.15c0,.07,0,.13,0,.2a2,2,0,0,1,0,.23c0,.08,0,.14,0,.22v.15l-.06,4.67v.09a1,1,0,0,1,0,.16,1.59,1.59,0,0,1-.07.2.4.4,0,0,1-.13.16.44.44,0,0,1-.24.1.72.72,0,0,1-.46,0,.54.54,0,0,1-.15-.18.07.07,0,0,1,0-.06l0-.05a.65.65,0,0,1,0-.2c0-.05,0-.12,0-.18a.38.38,0,0,1,0-.15Z"/><path class="cls-6" d="M33.57,39a3,3,0,0,1-2.5-.61,3.59,3.59,0,0,1-.81-3,3.3,3.3,0,0,1,1.55-2.55,2.42,2.42,0,0,1,2.55.23c.38.34,1,1.33.17,1.52-.33.09-.52-.15-.69-.36a1.19,1.19,0,0,0-2,.3,3,3,0,0,0,0,2.76,1.37,1.37,0,0,0,1.78.39c.2-.1.44-.38.72-.47a.55.55,0,0,1,.65.27C35.33,38.12,34.28,38.8,33.57,39Z"/><path class="cls-6" d="M43.51,9.34c.2-4.32-2-7-6.52-6.73H9C5.37,2.4,2.15,4.25,2.51,9.34v19h41Z"/><path class="cls-7" d="M15.65,19.15a1,1,0,0,1-1-.95V17.12c0-.16,0-.32.12-.32s.12.07.19.16a.44.44,0,0,0,.36.2h0a.36.36,0,0,0,.27-.14c.14-.15.15-.4.16-1.58s0-1.43-.16-1.58a.36.36,0,0,0-.27-.14h0a.44.44,0,0,0-.36.2c-.07.09-.12.16-.19.16s-.12-.16-.12-.32V12.68a1,1,0,0,1,1-.94h5.5a.94.94,0,0,1,.93.94s0,1.11,0,1.13c0,.35.1.35.21.35s.15-.06.2-.14a.36.36,0,0,1,.34-.21c.35,0,.35.55.35,1.38v.5c0,.83,0,1.38-.35,1.38a.37.37,0,0,1-.34-.2c-.05-.09-.09-.15-.2-.15s-.21,0-.21.35c0,0,0,1.13,0,1.13a1,1,0,0,1-.93.95Z"/><path class="cls-7" d="M25.21,19.18a1,1,0,0,1-1-.95V17.15c0-.15,0-.31.13-.31s.12.06.18.15a.42.42,0,0,0,.36.2h0a.36.36,0,0,0,.27-.14c.15-.14.15-.4.16-1.58s0-1.43-.16-1.58a.35.35,0,0,0-.27-.14h0a.44.44,0,0,0-.36.2c-.06.1-.12.16-.18.16s-.13-.16-.13-.32V12.72a1,1,0,0,1,1-1H30.7a.94.94,0,0,1,.93,1s0,1.1,0,1.12c0,.35.11.35.21.35s.15-.06.21-.14a.36.36,0,0,1,.33-.21c.35,0,.35.55.35,1.38v.5c0,.84,0,1.39-.35,1.39a.36.36,0,0,1-.33-.21c-.06-.09-.1-.15-.21-.15s-.21,0-.21.35c0,0,0,1.13,0,1.13a1,1,0,0,1-.93.95Z"/><path class="cls-8" d="M32.65,19.19a1,1,0,0,1-1-1V17.15c0-.15,0-.31.13-.31s.12.06.18.16a.46.46,0,0,0,.37.2h0a.37.37,0,0,0,.28-.14c.14-.15.15-.38.16-1.59s0-1.43-.16-1.58a.37.37,0,0,0-.28-.14h0A.44.44,0,0,0,32,14c-.06.09-.12.16-.18.16s-.13-.16-.13-.32V12.71a1,1,0,0,1,1-1h5.12a3.72,3.72,0,0,1,0,7.43Z"/><path class="cls-9" d="M8.2,19.15a3.71,3.71,0,0,1,0-7.42h3.89a.93.93,0,0,1,.93.94s0,1.11,0,1.13c0,.35.11.35.21.35s.15-.06.21-.14a.35.35,0,0,1,.34-.21c.34,0,.34.55.35,1.38v.5c0,.83,0,1.38-.35,1.38a.36.36,0,0,1-.34-.2c-.06-.09-.09-.15-.21-.15s-.21,0-.21.35c0,0,0,1.13,0,1.13a.94.94,0,0,1-.93.95H8.2Z"/></g></g></svg>