<svg xmlns="http://www.w3.org/2000/svg" xmlns:xlink="http://www.w3.org/1999/xlink" viewBox="0 0 45.11 55"><defs><style>.cls-1,.cls-3{opacity:0.5;}.cls-1,.cls-3,.cls-6{isolation:isolate;}.cls-1{fill:url(#무제_그라디언트_8);}.cls-2{fill:#c9bf8b;}.cls-3{fill:url(#무제_그라디언트_8-2);}.cls-4{fill:#a86aad;}.cls-5{fill:#c5b4d8;}.cls-10,.cls-6{fill:#fff;}.cls-6{opacity:0.3;}.cls-7{fill:#f7ec9f;}.cls-8{fill:#cd7cd1;}.cls-9{fill:url(#무제_그라디언트_5);}.cls-11{fill:#faac22;}.cls-12{fill:#ec2024;}.cls-13{fill:#fde800;}</style><linearGradient id="무제_그라디언트_8" x1="22.5" y1="1391.89" x2="22.5" y2="1346.89" gradientTransform="translate(0 -1337.89)" gradientUnits="userSpaceOnUse"><stop offset="0" stop-opacity="0.5"/><stop offset="0.09" stop-opacity="0.46"/><stop offset="1" stop-opacity="0"/></linearGradient><linearGradient id="무제_그라디언트_8-2" x1="22.5" y1="1393.49" x2="22.5" y2="1348.92" xlink:href="#무제_그라디언트_8"/><linearGradient id="무제_그라디언트_5" x1="22.65" y1="1892.46" x2="22.65" y2="1924.76" gradientTransform="translate(0 -1891.89)" gradientUnits="userSpaceOnUse"><stop offset="0" stop-color="#fff" stop-opacity="0.5"/><stop offset="0.5" stop-color="#fff" stop-opacity="0"/><stop offset="1" stop-color="#fff" stop-opacity="0"/></linearGradient></defs><title>BASIC_OFF</title><g id="레이어_2" data-name="레이어 2"><g id="레이어_1-2" data-name="레이어 1"><path class="cls-1" d="M45,46.5A7.52,7.52,0,0,1,37.5,54H7.5A7.52,7.52,0,0,1,0,46.5v-30A7.53,7.53,0,0,1,7.5,9h30A7.52,7.52,0,0,1,45,16.5Z"/><path class="cls-2" d="M45,45.5A7.52,7.52,0,0,1,37.5,53H7.5A7.52,7.52,0,0,1,0,45.5v-30A7.53,7.53,0,0,1,7.5,8h30A7.52,7.52,0,0,1,45,15.5Z"/><path class="cls-3" d="M45,47.5A7.52,7.52,0,0,1,37.5,55H7.5A7.52,7.52,0,0,1,0,47.5v-30A7.53,7.53,0,0,1,7.5,10h30A7.52,7.52,0,0,1,45,17.5Z"/><path class="cls-4" d="M45.11,45.5a7.52,7.52,0,0,1-7.5,7.5h-30a7.52,7.52,0,0,1-7.5-7.5v-30A7.53,7.53,0,0,1,7.61,8h30a7.52,7.52,0,0,1,7.5,7.5Z"/><path class="cls-4" d="M7.61,52.5a7,7,0,0,1-7-7v-30a7,7,0,0,1,7-7h30a7,7,0,0,1,7,7v30a7,7,0,0,1-7,7Z"/><path class="cls-4" d="M45.11,35.5a7.52,7.52,0,0,1-7.5,7.5h-30a7.52,7.52,0,0,1-7.5-7.5V7.5A7.53,7.53,0,0,1,7.61,0h30a7.52,7.52,0,0,1,7.5,7.5Z"/><path class="cls-5" d="M37.61.5h-30a7,7,0,0,0-7,7v30a7,7,0,0,0,7,7h30a7,7,0,0,0,7-7V7.5A7,7,0,0,0,37.61.5Zm6.5,37a6.51,6.51,0,0,1-6.5,6.5h-30a6.51,6.51,0,0,1-6.5-6.5V7.5A6.51,6.51,0,0,1,7.61,1h30a6.51,6.51,0,0,1,6.5,6.5Z"/><path class="cls-6" d="M37.61.5h-30a7,7,0,0,0-7,7v30a7,7,0,0,0,7,7h30a7,7,0,0,0,7-7V7.5A7,7,0,0,0,37.61.5Zm6.5,37a6.51,6.51,0,0,1-6.5,6.5h-30a6.51,6.51,0,0,1-6.5-6.5V7.5A6.51,6.51,0,0,1,7.61,1h30a6.51,6.51,0,0,1,6.5,6.5Z"/><path class="cls-7" d="M37.61,1h-30a6.51,6.51,0,0,0-6.5,6.5v30A6.51,6.51,0,0,0,7.61,44h30a6.51,6.51,0,0,0,6.5-6.5V7.5A6.51,6.51,0,0,0,37.61,1Z"/><path class="cls-8" d="M37.61,1h-30a6.51,6.51,0,0,0-6.5,6.5v30A6.51,6.51,0,0,0,7.61,44h30a6.51,6.51,0,0,0,6.5-6.5V7.5A6.51,6.51,0,0,0,37.61,1Z"/><path class="cls-9" d="M1.15,37.5A6.51,6.51,0,0,0,7.65,44h30a6.51,6.51,0,0,0,6.5-6.5V7.5A6.51,6.51,0,0,0,37.65,1h-30a6.51,6.51,0,0,0-6.5,6.5Z"/><path class="cls-10" d="M44.15,7.55a6.51,6.51,0,0,0-6.5-6.5h-30a6.52,6.52,0,0,0-6.5,6.5v18.9h43Z"/><path class="cls-10" d="M14.44,36.08a1.74,1.74,0,0,1-1.31,2.46,6.34,6.34,0,0,1-1.31.15,6.52,6.52,0,0,1-1.53-.08.51.51,0,0,1-.34-.44.38.38,0,0,1,0-.17V32.6c0-.71.64-.74,1.29-.73.25,0,.51,0,.78,0a4.05,4.05,0,0,1,1.29.21l.3.13a1,1,0,0,1,.26.19,1.66,1.66,0,0,1-.17,2.66A1.84,1.84,0,0,1,14.44,36.08ZM13,37.34a1.11,1.11,0,0,0-.18-1.5,1.76,1.76,0,0,0-1.06-.27c-.36,0-.6,0-.59.32s0,.67,0,1,0,.42.09.55a1.09,1.09,0,0,0,.75.17C12.39,37.57,12.86,37.52,13,37.34Zm-1.8-3.83c0,.23,0,.47,0,.7,0,.51.77.41,1.18.34a.76.76,0,0,0,.74-.75c.05-.57-.34-.76-.93-.78C11.4,33,11.19,32.92,11.21,33.51Z"/><path class="cls-10" d="M21.09,38.15a.31.31,0,0,1-.07.21.4.4,0,0,1-.19.17.73.73,0,0,1-.5.09.68.68,0,0,1-.24-.12l-.05,0s0,0,0-.05a1.1,1.1,0,0,1-.14-.18L19.77,38a.46.46,0,0,1-.07-.14l-.05-.15-.19-.47H16.84l-.2.47s0,.1-.05.15a.84.84,0,0,1-.06.14l-.11.18a.63.63,0,0,1-.12.18s0,0-.05.05l-.05,0a.64.64,0,0,1-.23.12.76.76,0,0,1-.51-.09.53.53,0,0,1-.19-.17.31.31,0,0,1-.06-.21,1.55,1.55,0,0,1,0-.22.69.69,0,0,1,0-.17l0-.09,2-4.87,0-.15c0-.08.07-.13.1-.22l.1-.22a1.49,1.49,0,0,1,.15-.2.48.48,0,0,1,.16-.12.94.94,0,0,1,.62,0,.83.83,0,0,1,.16.12c.05.06.09.13.14.2a1.5,1.5,0,0,1,.11.22,1.45,1.45,0,0,0,.09.22l.06.15,2,4.87a.27.27,0,0,0,0,.09.69.69,0,0,1,.05.17A1.5,1.5,0,0,1,21.09,38.15ZM18.82,35.6c-.16-.36-.33-.76-.53-1.17a3.68,3.68,0,0,0-.15-.35c0,.11-.09.23-.14.35-.19.41-.36.81-.52,1.17l-.17.42H19Z"/><path class="cls-10" d="M26.78,37.07c-.41,1.43-2.67,1.92-4,1.21a2.16,2.16,0,0,1-.9-1,.62.62,0,0,1,.32-.88.7.7,0,0,1,.8.32,1.59,1.59,0,0,0,.72.63c.83.29,1.79-.15,1.79-.88s-.36-.77-.9-.9a8.9,8.9,0,0,1-1.84-.34,1.81,1.81,0,0,1-.38-2.92,2.6,2.6,0,0,1,1.66-.54,3.24,3.24,0,0,1,2,.54c.33.25.76.9.28,1.19s-.73-.15-1-.34a2.08,2.08,0,0,0-1.35-.28c-.55.06-1,.36-.95.93,0,.41.47.54.84.59a6.93,6.93,0,0,1,1.69.27,1.81,1.81,0,0,1,1.13,1.11A2.35,2.35,0,0,1,26.78,37.07Z"/><path class="cls-10" d="M27.92,37.57V34.12c0-.45,0-.77,0-1.2v0c0-.13,0-.27,0-.4a1,1,0,0,1,.11-.37.49.49,0,0,1,.2-.23.63.63,0,0,1,.29-.08l.26,0a.4.4,0,0,1,.22.12.44.44,0,0,1,.1.15,1.8,1.8,0,0,1,.06.22,1.94,1.94,0,0,1,0,.24c0,.08,0,.15,0,.22v.17l-.06,4.93V38s0,.1,0,.18,0,.13-.07.2a.4.4,0,0,1-.14.18.48.48,0,0,1-.24.1.73.73,0,0,1-.49,0,.38.38,0,0,1-.16-.19.09.09,0,0,1,0-.05l0-.06a.71.71,0,0,1,0-.21,1.37,1.37,0,0,0,0-.19.43.43,0,0,1,0-.16Z"/><path class="cls-10" d="M33.81,38.6A3.26,3.26,0,0,1,31.17,38c-.88-.74-.94-2.16-.85-3.2A3.47,3.47,0,0,1,32,32.07a2.52,2.52,0,0,1,2.68.25c.4.35,1,1.4.19,1.6-.36.1-.56-.16-.74-.39a1.26,1.26,0,0,0-2.1.33,3.21,3.21,0,0,0,0,2.91,1.44,1.44,0,0,0,1.88.42c.21-.11.47-.41.76-.5a.57.57,0,0,1,.69.29C35.67,37.7,34.56,38.42,33.81,38.6Z"/><path class="cls-11" d="M15.31,17.44a1,1,0,0,1-1-1V15.41c0-.15,0-.31.13-.31s.12.06.18.15a.42.42,0,0,0,.36.2h0a.33.33,0,0,0,.27-.14c.15-.14.15-.4.16-1.58s0-1.43-.16-1.58A.35.35,0,0,0,15,12h0a.44.44,0,0,0-.36.2c-.06.1-.12.16-.18.16s-.13-.16-.13-.32V11a1,1,0,0,1,1-1H20.8a.94.94,0,0,1,.93,1s0,1.1,0,1.12c0,.35.11.35.21.35s.15-.06.21-.14a.36.36,0,0,1,.33-.21c.35,0,.35.55.35,1.38V14c0,.84,0,1.39-.35,1.39a.36.36,0,0,1-.33-.21c-.06-.09-.1-.14-.21-.14s-.21,0-.21.34c0,0,0,1.13,0,1.13a1,1,0,0,1-.93,1Z"/><path class="cls-11" d="M24.86,17.47a1,1,0,0,1-1-.95V15.44c0-.15,0-.31.13-.31s.12.06.18.16a.44.44,0,0,0,.36.19h0a.34.34,0,0,0,.28-.14c.14-.14.15-.4.15-1.58s0-1.43-.15-1.57a.34.34,0,0,0-.28-.14h0a.45.45,0,0,0-.36.19c-.06.1-.12.16-.18.16s-.13-.16-.13-.31V11a1,1,0,0,1,1-.95h5.49a.93.93,0,0,1,.93.95s0,1.1,0,1.12c0,.35.11.35.21.35s.16-.06.21-.14a.37.37,0,0,1,.34-.21c.34,0,.35.55.35,1.38V14c0,.84,0,1.39-.35,1.39a.37.37,0,0,1-.34-.21c-.05-.08-.09-.14-.21-.14s-.21,0-.21.34c0,0,0,1.13,0,1.13a.94.94,0,0,1-.93.95Z"/><path class="cls-12" d="M32.31,17.48a1,1,0,0,1-1-.95V15.45c0-.16,0-.32.12-.32s.12.06.19.16a.44.44,0,0,0,.36.2h0a.36.36,0,0,0,.27-.14c.15-.15.15-.38.16-1.59s0-1.43-.16-1.58A.36.36,0,0,0,32,12h0a.44.44,0,0,0-.36.2c-.07.09-.12.16-.19.16s-.12-.16-.12-.32V11a1,1,0,0,1,1-.95h5.12a3.72,3.72,0,0,1,0,7.43Z"/><path class="cls-13" d="M7.85,17.44a3.71,3.71,0,0,1,0-7.41h3.9a.94.94,0,0,1,.93,1s0,1.1,0,1.12c0,.35.1.35.21.35s.15-.06.2-.14a.38.38,0,0,1,.34-.21c.35,0,.35.55.35,1.38V14c0,.84,0,1.39-.35,1.39a.38.38,0,0,1-.34-.21c0-.09-.09-.14-.2-.14s-.21,0-.21.34c0,0,0,1.13,0,1.13a1,1,0,0,1-.93,1H7.85Z"/></g></g></svg>