<svg xmlns="http://www.w3.org/2000/svg" xmlns:xlink="http://www.w3.org/1999/xlink" viewBox="0 -5 46 46"><defs><style>.cls-1{opacity:0.75;isolation:isolate;fill:url(#무제_그라디언트_4);}.cls-2{fill:#3d759b;}.cls-3{fill:#4b8ce3;}.cls-4{fill-opacity:0.2;}.cls-5{fill:#fff;}.cls-6{fill:#efefef;}.cls-7{fill:none;stroke:#cccbcb;stroke-miterlimit:10;stroke-width:0.16px;}.cls-8{fill:#ec2024;}.cls-9{fill:#e8e7e7;}.cls-10{fill:#b2b2b2;}.cls-11{fill:#a4a4a4;}</style><linearGradient id="무제_그라디언트_4" x1="23" y1="199.29" x2="23" y2="232.12" gradientTransform="matrix(1, 0, 0, -1, 0, 245.2)" gradientUnits="userSpaceOnUse"><stop offset="0" stop-color="#fff"/><stop offset="0.09" stop-color="#fff" stop-opacity="0.91"/><stop offset="1" stop-color="#fff" stop-opacity="0"/></linearGradient></defs><title>MOTOR_ON</title><g id="레이어_2" data-name="레이어 2"><g id="레이어_1-2" data-name="레이어 1"><path class="cls-1" d="M8,46a8,8,0,0,1-8-8V8A8,8,0,0,1,8,0H38a8,8,0,0,1,8,8V38a8,8,0,0,1-8,8Z"/><path class="cls-1" d="M8,46a8,8,0,0,1-8-8V8A8,8,0,0,1,8,0H38a8,8,0,0,1,8,8V38a8,8,0,0,1-8,8Z"/><path class="cls-2" d="M45.5,38A7.52,7.52,0,0,1,38,45.5H8A7.52,7.52,0,0,1,.5,38V8A7.53,7.53,0,0,1,8,.5H38A7.52,7.52,0,0,1,45.5,8Z"/><path class="cls-3" d="M38,1H8A7,7,0,0,0,1,8V38a7,7,0,0,0,7,7H38a7,7,0,0,0,7-7V8A7,7,0,0,0,38,1Z"/><path class="cls-4" d="M38,1H8A7,7,0,0,0,1,8V38a7,7,0,0,0,7,7H38a7,7,0,0,0,7-7V8A7,7,0,0,0,38,1Zm5.5,37A5.51,5.51,0,0,1,38,43.5H8A5.5,5.5,0,0,1,2.5,38V8A5.51,5.51,0,0,1,8,2.5H38A5.51,5.51,0,0,1,43.5,8Z"/><path class="cls-5" d="M43.51,9.26c.2-4.32-2-7-6.52-6.74H9C5.37,2.31,2.15,4.16,2.51,9.26v19h41Z"/><path class="cls-5" d="M14.87,38.65a.34.34,0,0,1-.12.16.31.31,0,0,1-.23.1.6.6,0,0,1-.46,0c-.34-.21-.29-.63-.3-1V35.85c0-.38,0-.35,0-.77a3.8,3.8,0,0,0,0-.46c-.93,1.56-1.14,1.8-1.48,1.83s-.4-.21-.51-.34a10.83,10.83,0,0,1-1-1.57s0,3.83-.06,3.83a.58.58,0,0,1-.9.5.69.69,0,0,1-.25-.46c0-.16,0-.32,0-.49V34.63c0-.52,0-1,.06-1.54a.82.82,0,0,1,.08-.35.5.5,0,0,1,.19-.22.6.6,0,0,1,.28-.08l.24,0c.24,0,.4.35.56.51a8.06,8.06,0,0,1,.59.89c.32.51.55.94.77,1.24.06-.08.21-.3.26-.39.25-.39.46-.7.85-1.36.17-.28.55-.9.94-.91l.23,0a.35.35,0,0,1,.21.1.42.42,0,0,1,.11.15,1.42,1.42,0,0,1,0,.2,1.8,1.8,0,0,1,0,.22c0,.67,0,1.34,0,2s0,1.71,0,2.52c0,.17,0,.37,0,.56A1.56,1.56,0,0,1,14.87,38.65Z"/><path class="cls-5" d="M20.36,34.17A4.73,4.73,0,0,1,20.49,37a2.73,2.73,0,0,1-.3.72,2.05,2.05,0,0,1-1.35,1,2.46,2.46,0,0,1-2.27-.61,3.81,3.81,0,0,1-.87-2.91,3,3,0,0,1,1.58-2.51A2.21,2.21,0,0,1,20.36,34.17Zm-1.06.43c-.26-.77-.77-1.22-1.67-.8a1.82,1.82,0,0,0-.76,1.56,2.89,2.89,0,0,0,.43,1.9,1.2,1.2,0,0,0,1.17.4,1.07,1.07,0,0,0,.75-.65,1.72,1.72,0,0,0,.16-.45A3.65,3.65,0,0,0,19.3,34.6Z"/><path class="cls-5" d="M26,33a1.36,1.36,0,0,1,0,.21.41.41,0,0,1-.11.19.5.5,0,0,1-.2.08,1.67,1.67,0,0,1-.26.06H24.06c0,.73,0,1.64,0,3.62v.68a.53.53,0,0,0,0,.13.81.81,0,0,1,0,.15c0,.05,0,.12,0,.19a.59.59,0,0,1,0,.17s0,0,0,.05l0,.06a.55.55,0,0,1-.17.17.65.65,0,0,1-.44,0,.43.43,0,0,1-.24-.08.42.42,0,0,1-.11-.16.56.56,0,0,1-.07-.19,1.11,1.11,0,0,1,0-.17V33.6c-.15,0-1,0-1.19,0a2.7,2.7,0,0,1-.35-.07.52.52,0,0,1-.3-.17.4.4,0,0,1-.1-.26.75.75,0,0,1,0-.21.37.37,0,0,1,.14-.18,1.62,1.62,0,0,1,.26-.12,1.15,1.15,0,0,1,.28-.06h1.49c.69,0,1.39,0,2.07,0a1.33,1.33,0,0,1,.44.09.52.52,0,0,1,.27.18A.37.37,0,0,1,26,33Z"/><path class="cls-5" d="M30.85,34.17A4.73,4.73,0,0,1,31,37a3.62,3.62,0,0,1-.3.72,2.07,2.07,0,0,1-1.36,1,2.46,2.46,0,0,1-2.27-.61,3.76,3.76,0,0,1-.86-2.91,2.92,2.92,0,0,1,1.57-2.51A2.21,2.21,0,0,1,30.85,34.17Zm-1.05.43c-.26-.77-.78-1.22-1.68-.8a1.79,1.79,0,0,0-.75,1.56,2.78,2.78,0,0,0,.43,1.9,1.18,1.18,0,0,0,1.16.4,1.09,1.09,0,0,0,.76-.65,2.18,2.18,0,0,0,.16-.45A3.76,3.76,0,0,0,29.8,34.6Z"/><path class="cls-5" d="M36.5,38.64a.38.38,0,0,1-.12.16l-.2.1a.65.65,0,0,1-.28,0,.38.38,0,0,1-.25-.11,1.06,1.06,0,0,1-.25-.27,3.63,3.63,0,0,1-.2-.35l-1-1.9h-.29c-.25,0-.47,0-.7,0H33v1.63c0,.09,0,.17,0,.27a2.5,2.5,0,0,1,0,.25.56.56,0,0,1-.25.38.65.65,0,0,1-.46.07.67.67,0,0,1-.23-.1.33.33,0,0,1-.1-.15,1.46,1.46,0,0,1-.07-.19.47.47,0,0,1,0-.17V33.19a1.62,1.62,0,0,1,0-.22.68.68,0,0,1,.07-.2.24.24,0,0,1,.09-.15.63.63,0,0,1,.49-.12c.53,0,1.07,0,1.6,0a3.68,3.68,0,0,1,1.09.2,2.71,2.71,0,0,1,.3.13.81.81,0,0,1,.27.19,2,2,0,0,1,.64,1.51,1.52,1.52,0,0,1-1,1.49l-.1,0,.83,1.66.08.15.09.17.1.2c0,.07,0,.15,0,.2A.35.35,0,0,1,36.5,38.64Zm-2.23-3.38a.86.86,0,0,0,.87-.73c0-.59-.36-.88-.94-.91-.35,0-.79,0-1.16,0,0,.5,0,1,0,1.66Z"/><rect class="cls-6" x="11.67" y="7.78" width="3.77" height="2.76" rx="0.53" ry="0.53"/><rect class="cls-7" x="11.67" y="7.78" width="3.77" height="2.76" rx="0.53" ry="0.53"/><rect class="cls-6" x="18" y="7.78" width="3.77" height="2.76" rx="0.53" ry="0.53"/><rect class="cls-7" x="18" y="7.78" width="3.77" height="2.76" rx="0.53" ry="0.53"/><rect class="cls-6" x="10.48" y="9.16" width="12.47" height="13.8" rx="1.53" ry="1.53"/><path class="cls-8" d="M16.38,8.55h.37a.31.31,0,0,1,.31.31v1.3a.31.31,0,0,1-.31.31h-.37a0,0,0,0,1,0,0V8.55A0,0,0,0,1,16.38,8.55Z" transform="translate(26.22 -7.22) rotate(90)"/><rect class="cls-9" x="10.48" y="10.55" width="12.49" height="10.29"/><path class="cls-8" d="M10.48,18h.59a.36.36,0,0,1,.36.36v1.37a.36.36,0,0,1-.36.36h-.59a0,0,0,0,1,0,0V18A0,0,0,0,1,10.48,18Z"/><path class="cls-8" d="M10.48,14.64h.59a.36.36,0,0,1,.36.36v1.37a.36.36,0,0,1-.36.36h-.59a0,0,0,0,1,0,0v-2.1A0,0,0,0,1,10.48,14.64Z"/><path class="cls-8" d="M10.48,11.26h.59a.36.36,0,0,1,.36.36V13a.36.36,0,0,1-.36.36h-.59a0,0,0,0,1,0,0v-2.1A0,0,0,0,1,10.48,11.26Z"/><path class="cls-8" d="M22,13h.59a.36.36,0,0,1,.36.36v1.37a.36.36,0,0,1-.36.36H22a0,0,0,0,1,0,0V13A0,0,0,0,1,22,13Z" transform="translate(45 28) rotate(180)"/><path class="cls-8" d="M22,16.34h.59a.36.36,0,0,1,.36.36v1.37a.36.36,0,0,1-.36.36H22a0,0,0,0,1,0,0v-2.1A0,0,0,0,1,22,16.34Z" transform="translate(45 34.77) rotate(180)"/><rect class="cls-7" x="10.48" y="9.16" width="12.47" height="13.8" rx="1.53" ry="1.53"/><rect class="cls-6" x="24.25" y="7.78" width="3.77" height="2.76" rx="0.53" ry="0.53"/><rect class="cls-7" x="24.25" y="7.78" width="3.77" height="2.76" rx="0.53" ry="0.53"/><rect class="cls-6" x="30.59" y="7.78" width="3.77" height="2.76" rx="0.53" ry="0.53"/><rect class="cls-7" x="30.59" y="7.78" width="3.77" height="2.76" rx="0.53" ry="0.53"/><rect class="cls-6" x="23.07" y="9.16" width="12.47" height="13.8" rx="1.53" ry="1.53"/><path class="cls-8" d="M29,8.55h.37a.31.31,0,0,1,.31.31v1.3a.31.31,0,0,1-.31.31H29a0,0,0,0,1,0,0V8.55A0,0,0,0,1,29,8.55Z" transform="translate(38.81 -19.8) rotate(90)"/><rect class="cls-9" x="23.07" y="10.55" width="12.49" height="10.29"/><path class="cls-8" d="M23.07,18h.59a.36.36,0,0,1,.36.36v1.37a.36.36,0,0,1-.36.36h-.59a0,0,0,0,1,0,0V18A0,0,0,0,1,23.07,18Z"/><path class="cls-8" d="M23.07,14.64h.59A.36.36,0,0,1,24,15v1.37a.36.36,0,0,1-.36.36h-.59a0,0,0,0,1,0,0v-2.1A0,0,0,0,1,23.07,14.64Z"/><path class="cls-8" d="M23.07,11.26h.59a.36.36,0,0,1,.36.36V13a.36.36,0,0,1-.36.36h-.59a0,0,0,0,1,0,0v-2.1A0,0,0,0,1,23.07,11.26Z"/><path class="cls-8" d="M34.61,13h.59a.36.36,0,0,1,.36.36v1.37a.36.36,0,0,1-.36.36h-.59a0,0,0,0,1,0,0V13A0,0,0,0,1,34.61,13Z" transform="translate(70.17 28) rotate(180)"/><path class="cls-8" d="M34.61,16.34h.59a.36.36,0,0,1,.36.36v1.37a.36.36,0,0,1-.36.36h-.59a0,0,0,0,1,0,0v-2.1A0,0,0,0,1,34.61,16.34Z" transform="translate(70.17 34.77) rotate(180)"/><rect class="cls-7" x="23.07" y="9.16" width="12.47" height="13.8" rx="1.53" ry="1.53"/><rect class="cls-7" x="7.53" y="7.66" width="2.6" height="15.83" rx="1.19" ry="1.19" transform="translate(17.66 31.16) rotate(180)"/><rect class="cls-10" x="7.89" y="5.9" width="2.6" height="18.95" rx="1.3" ry="1.3" transform="translate(18.37 30.75) rotate(-180)"/><path class="cls-11" d="M8.77,7H9.6a.89.89,0,0,1,.89.89v0a.14.14,0,0,1-.14.14H8a.14.14,0,0,1-.14-.14v0A.89.89,0,0,1,8.77,7Z"/><rect class="cls-11" x="7.89" y="9.31" width="2.6" height="1.03" rx="0.14" ry="0.14"/><rect class="cls-11" x="7.89" y="11.6" width="2.6" height="1.03" rx="0.14" ry="0.14"/><rect class="cls-11" x="7.89" y="13.89" width="2.6" height="1.03" rx="0.14" ry="0.14"/><rect class="cls-11" x="7.89" y="16.19" width="2.6" height="1.03" rx="0.14" ry="0.14"/><rect class="cls-11" x="7.89" y="18.48" width="2.6" height="1.03" rx="0.14" ry="0.14"/><rect class="cls-11" x="7.89" y="20.77" width="2.6" height="1.03" rx="0.14" ry="0.14"/><path class="cls-11" d="M8,23.06h2.32a.14.14,0,0,1,.14.14v0a.89.89,0,0,1-.89.89H8.77a.89.89,0,0,1-.89-.89v0A.14.14,0,0,1,8,23.06Z"/><rect class="cls-7" x="35.87" y="7.25" width="2.6" height="15.83" rx="1.19" ry="1.19"/><rect class="cls-10" x="35.52" y="5.9" width="2.6" height="18.95" rx="1.3" ry="1.3"/><path class="cls-11" d="M36.4,22.71h.82a.89.89,0,0,1,.89.89v0a.14.14,0,0,1-.14.14H35.66a.14.14,0,0,1-.14-.14v0a.89.89,0,0,1,.89-.89Z" transform="translate(73.63 46.44) rotate(180)"/><rect class="cls-11" x="35.52" y="20.41" width="2.6" height="1.03" rx="0.14" ry="0.14" transform="translate(73.63 41.85) rotate(180)"/><rect class="cls-11" x="35.52" y="18.12" width="2.6" height="1.03" rx="0.14" ry="0.14" transform="translate(73.63 37.27) rotate(180)"/><rect class="cls-11" x="35.52" y="15.83" width="2.6" height="1.03" rx="0.14" ry="0.14" transform="translate(73.63 32.68) rotate(180)"/><rect class="cls-11" x="35.52" y="13.54" width="2.6" height="1.03" rx="0.14" ry="0.14" transform="translate(73.63 28.1) rotate(180)"/><rect class="cls-11" x="35.52" y="11.24" width="2.6" height="1.03" rx="0.14" ry="0.14" transform="translate(73.63 23.51) rotate(180)"/><rect class="cls-11" x="35.52" y="8.95" width="2.6" height="1.03" rx="0.14" ry="0.14" transform="translate(73.63 18.93) rotate(180)"/><path class="cls-11" d="M35.66,6.66H38a.14.14,0,0,1,.14.14v0a.89.89,0,0,1-.89.89H36.4a.89.89,0,0,1-.89-.89v0a.14.14,0,0,1,.14-.14Z" transform="translate(73.63 14.35) rotate(180)"/></g></g></svg>