<svg xmlns="http://www.w3.org/2000/svg" xmlns:xlink="http://www.w3.org/1999/xlink" viewBox="0 0 45.11 55"><defs><style>.cls-1,.cls-3{opacity:0.5;}.cls-1,.cls-3,.cls-6{isolation:isolate;}.cls-1{fill:url(#무제_그라디언트_8);}.cls-2{fill:#c9bf8b;}.cls-3{fill:url(#무제_그라디언트_8-2);}.cls-4{fill:#3a699b;}.cls-5{fill:#4b8ce3;}.cls-6,.cls-9{fill:#fff;}.cls-6{opacity:0.3;}.cls-7{fill:#f7ec9f;}.cls-8{fill:url(#무제_그라디언트_5);}.cls-10{fill:#efefef;}.cls-11{fill:none;stroke:#cccbcb;stroke-miterlimit:10;stroke-width:0.16px;}.cls-12{fill:#ec2024;}.cls-13{fill:#e8e7e7;}.cls-14{fill:#b2b2b2;}.cls-15{fill:#a4a4a4;}</style><linearGradient id="무제_그라디언트_8" x1="22.5" y1="1945.89" x2="22.5" y2="1900.89" gradientTransform="translate(0 -1891.89)" gradientUnits="userSpaceOnUse"><stop offset="0" stop-opacity="0.5"/><stop offset="0.09" stop-opacity="0.46"/><stop offset="1" stop-opacity="0"/></linearGradient><linearGradient id="무제_그라디언트_8-2" y1="1947.49" x2="22.5" y2="1902.92" xlink:href="#무제_그라디언트_8"/><linearGradient id="무제_그라디언트_5" x1="22.61" y1="1892.46" x2="22.61" y2="1924.76" gradientTransform="translate(0 -1891.89)" gradientUnits="userSpaceOnUse"><stop offset="0" stop-color="#fff" stop-opacity="0.5"/><stop offset="0.5" stop-color="#fff" stop-opacity="0"/><stop offset="1" stop-color="#fff" stop-opacity="0"/></linearGradient></defs><title>MOTOR_OFF</title><g id="레이어_2" data-name="레이어 2"><g id="레이어_1-2" data-name="레이어 1"><path class="cls-1" d="M45,46.5A7.52,7.52,0,0,1,37.5,54H7.5A7.52,7.52,0,0,1,0,46.5v-30A7.53,7.53,0,0,1,7.5,9h30A7.52,7.52,0,0,1,45,16.5Z"/><path class="cls-2" d="M45,45.5A7.52,7.52,0,0,1,37.5,53H7.5A7.52,7.52,0,0,1,0,45.5v-30A7.53,7.53,0,0,1,7.5,8h30A7.52,7.52,0,0,1,45,15.5Z"/><path class="cls-3" d="M45,47.5A7.52,7.52,0,0,1,37.5,55H7.5A7.52,7.52,0,0,1,0,47.5v-30A7.53,7.53,0,0,1,7.5,10h30A7.52,7.52,0,0,1,45,17.5Z"/><path class="cls-4" d="M45.11,45.5a7.52,7.52,0,0,1-7.5,7.5h-30a7.52,7.52,0,0,1-7.5-7.5v-30A7.53,7.53,0,0,1,7.61,8h30a7.52,7.52,0,0,1,7.5,7.5Z"/><path class="cls-4" d="M7.61,52.5a7,7,0,0,1-7-7v-30a7,7,0,0,1,7-7h30a7,7,0,0,1,7,7v30a7,7,0,0,1-7,7Z"/><path class="cls-4" d="M45.11,35.5a7.52,7.52,0,0,1-7.5,7.5h-30a7.52,7.52,0,0,1-7.5-7.5V7.5A7.53,7.53,0,0,1,7.61,0h30a7.52,7.52,0,0,1,7.5,7.5Z"/><path class="cls-5" d="M37.61.5h-30a7,7,0,0,0-7,7v30a7,7,0,0,0,7,7h30a7,7,0,0,0,7-7V7.5A7,7,0,0,0,37.61.5Zm6.5,37a6.51,6.51,0,0,1-6.5,6.5h-30a6.51,6.51,0,0,1-6.5-6.5V7.5A6.51,6.51,0,0,1,7.61,1h30a6.51,6.51,0,0,1,6.5,6.5Z"/><path class="cls-6" d="M44.61,7.5a7,7,0,0,0-7-7h-30a7,7,0,0,0-7,7v30a7,7,0,0,0,7,7h30a7,7,0,0,0,7-7Zm-.5,30a6.5,6.5,0,0,1-6.5,6.5h-30a6.5,6.5,0,0,1-6.5-6.5V7.5A6.5,6.5,0,0,1,7.61,1h30a6.5,6.5,0,0,1,6.5,6.5Z"/><path class="cls-7" d="M37.61,1h-30a6.51,6.51,0,0,0-6.5,6.5v30A6.51,6.51,0,0,0,7.61,44h30a6.51,6.51,0,0,0,6.5-6.5V7.5A6.51,6.51,0,0,0,37.61,1Z"/><path class="cls-5" d="M37.61,1h-30a6.51,6.51,0,0,0-6.5,6.5v30A6.51,6.51,0,0,0,7.61,44h30a6.51,6.51,0,0,0,6.5-6.5V7.5A6.51,6.51,0,0,0,37.61,1Z"/><path class="cls-8" d="M1.11,37.5A6.51,6.51,0,0,0,7.61,44h30a6.51,6.51,0,0,0,6.5-6.5V7.5A6.51,6.51,0,0,0,37.61,1h-30a6.51,6.51,0,0,0-6.5,6.5Z"/><path class="cls-9" d="M44.11,7.55a6.51,6.51,0,0,0-6.5-6.5h-30a6.51,6.51,0,0,0-6.5,6.5v18.9h43Z"/><path class="cls-9" d="M14,38.35a.63.63,0,0,1-.12.18.51.51,0,0,1-.25.1.63.63,0,0,1-.49,0c-.35-.22-.3-.66-.31-1V35.4c0-.41,0-.37,0-.82a4.16,4.16,0,0,0,0-.48c-1,1.64-1.21,1.9-1.57,1.93-.21,0-.42-.22-.53-.37A10.79,10.79,0,0,1,9.63,34c0,.05,0,4-.06,4.05a.61.61,0,0,1-1,.52.7.7,0,0,1-.27-.48c0-.17,0-.34,0-.52V34.11c0-.56,0-1.1.06-1.63a.92.92,0,0,1,.09-.37.45.45,0,0,1,.2-.23.55.55,0,0,1,.3-.09l.25,0c.25.05.42.37.59.55a7.27,7.27,0,0,1,.62.94c.34.53.58,1,.81,1.3a3,3,0,0,0,.28-.41c.26-.41.48-.74.9-1.44.18-.29.58-.95,1-1l.25,0a.42.42,0,0,1,.22.11.64.64,0,0,1,.11.16,1.6,1.6,0,0,1,.05.21,2.12,2.12,0,0,1,0,.24c0,.7,0,1.4,0,2.11s0,1.8,0,2.66c0,.18,0,.39,0,.59A1.45,1.45,0,0,1,14,38.35Z"/><path class="cls-9" d="M19.82,33.62a5,5,0,0,1,.15,3,2.9,2.9,0,0,1-.32.76,2.15,2.15,0,0,1-1.43,1,2.62,2.62,0,0,1-2.4-.65,4,4,0,0,1-.91-3.08,3.08,3.08,0,0,1,1.66-2.64A2.33,2.33,0,0,1,19.82,33.62Zm-1.11.46c-.28-.82-.82-1.3-1.77-.85a1.93,1.93,0,0,0-.8,1.65,3,3,0,0,0,.46,2,1.27,1.27,0,0,0,1.23.43,1.17,1.17,0,0,0,.8-.7,2.17,2.17,0,0,0,.17-.47A3.93,3.93,0,0,0,18.71,34.08Z"/><path class="cls-9" d="M25.78,32.39a1.52,1.52,0,0,1,0,.23.53.53,0,0,1-.12.2.78.78,0,0,1-.21.09,1.16,1.16,0,0,1-.28.05H23.73c0,.78,0,1.73,0,3.82v.73a.66.66,0,0,0,0,.14.81.81,0,0,1,0,.15l0,.2a.58.58,0,0,1,0,.18s0,0,0,.06l0,.06a.44.44,0,0,1-.18.18.71.71,0,0,1-.46,0,.44.44,0,0,1-.25-.08.59.59,0,0,1-.12-.17.69.69,0,0,1-.07-.2.62.62,0,0,1,0-.18V33c-.15,0-1.08,0-1.25,0a2.58,2.58,0,0,1-.37-.06.66.66,0,0,1-.32-.18.48.48,0,0,1-.1-.28.78.78,0,0,1,0-.22.36.36,0,0,1,.15-.19.92.92,0,0,1,.28-.13,1.06,1.06,0,0,1,.28-.06h1.58c.73,0,1.46,0,2.18,0a1.24,1.24,0,0,1,.47.1.55.55,0,0,1,.29.18A.39.39,0,0,1,25.78,32.39Z"/><path class="cls-9" d="M30.9,33.62a5,5,0,0,1,.14,3,2.88,2.88,0,0,1-.31.76,2.17,2.17,0,0,1-1.44,1,2.6,2.6,0,0,1-2.39-.65A4,4,0,0,1,26,34.71a3.06,3.06,0,0,1,1.66-2.64A2.33,2.33,0,0,1,30.9,33.62Zm-1.11.46c-.28-.82-.82-1.3-1.77-.85a1.93,1.93,0,0,0-.8,1.65,3,3,0,0,0,.46,2,1.26,1.26,0,0,0,1.22.43,1.15,1.15,0,0,0,.8-.7,1.47,1.47,0,0,0,.17-.47A3.82,3.82,0,0,0,29.79,34.08Z"/><path class="cls-9" d="M36.87,38.34a.46.46,0,0,1-.14.17l-.21.1a.57.57,0,0,1-.29,0,.54.54,0,0,1-.27-.11,1.43,1.43,0,0,1-.26-.3,3,3,0,0,1-.21-.37l-1.06-2-.3,0c-.27,0-.5,0-.74,0h-.18V37.6c0,.1,0,.18,0,.29s0,.18,0,.26a.58.58,0,0,1-.27.4.6.6,0,0,1-.48.07.75.75,0,0,1-.24-.09.39.39,0,0,1-.11-.17,1.59,1.59,0,0,1-.07-.2A.52.52,0,0,1,32,38v-5.4a1.5,1.5,0,0,1,0-.22.58.58,0,0,1,.07-.21.26.26,0,0,1,.09-.17.71.71,0,0,1,.52-.13c.56,0,1.13,0,1.69,0a3.89,3.89,0,0,1,1.16.21l.31.13a1.82,1.82,0,0,1,.29.2A2.24,2.24,0,0,1,36.8,34a1.61,1.61,0,0,1-1,1.58l-.1,0,.87,1.75.09.16a1.5,1.5,0,0,1,.09.18c0,.06.07.14.11.21a1,1,0,0,1,0,.21A.57.57,0,0,1,36.87,38.34Zm-2.36-3.57a.91.91,0,0,0,.92-.77c0-.63-.38-.93-1-1-.37,0-.83,0-1.22,0,0,.52,0,1,0,1.75Z"/><rect class="cls-10" x="11.28" y="6.16" width="3.77" height="2.76" rx="0.53" ry="0.53"/><rect class="cls-11" x="11.28" y="6.16" width="3.77" height="2.76" rx="0.53" ry="0.53"/><rect class="cls-10" x="17.61" y="6.16" width="3.77" height="2.76" rx="0.53" ry="0.53"/><rect class="cls-11" x="17.61" y="6.16" width="3.77" height="2.76" rx="0.53" ry="0.53"/><rect class="cls-10" x="10.1" y="7.54" width="12.47" height="13.8" rx="1.53" ry="1.53"/><path class="cls-12" d="M16,6.92h.37a.31.31,0,0,1,.31.31v1.3a.31.31,0,0,1-.31.31H16a0,0,0,0,1,0,0V6.92A0,0,0,0,1,16,6.92Z" transform="translate(24.21 -8.45) rotate(90)"/><rect class="cls-13" x="10.1" y="8.92" width="12.49" height="10.29"/><path class="cls-12" d="M10.1,16.41h.59a.36.36,0,0,1,.36.36v1.37a.36.36,0,0,1-.36.36H10.1a0,0,0,0,1,0,0v-2.1A0,0,0,0,1,10.1,16.41Z"/><path class="cls-12" d="M10.1,13h.59a.36.36,0,0,1,.36.36v1.37a.36.36,0,0,1-.36.36H10.1a0,0,0,0,1,0,0V13A0,0,0,0,1,10.1,13Z"/><path class="cls-12" d="M10.1,9.64h.59A.36.36,0,0,1,11,10v1.37a.36.36,0,0,1-.36.36H10.1a0,0,0,0,1,0,0V9.64A0,0,0,0,1,10.1,9.64Z"/><path class="cls-12" d="M21.64,11.33h.59a.36.36,0,0,1,.36.36v1.37a.36.36,0,0,1-.36.36h-.59a0,0,0,0,1,0,0v-2.1A0,0,0,0,1,21.64,11.33Z" transform="translate(44.22 24.75) rotate(180)"/><path class="cls-12" d="M21.64,14.71h.59a.36.36,0,0,1,.36.36v1.37a.36.36,0,0,1-.36.36h-.59a0,0,0,0,1,0,0v-2.1A0,0,0,0,1,21.64,14.71Z" transform="translate(44.22 31.52) rotate(180)"/><rect class="cls-11" x="10.1" y="7.54" width="12.47" height="13.8" rx="1.53" ry="1.53"/><rect class="cls-10" x="23.86" y="6.16" width="3.77" height="2.76" rx="0.53" ry="0.53"/><rect class="cls-11" x="23.86" y="6.16" width="3.77" height="2.76" rx="0.53" ry="0.53"/><rect class="cls-10" x="30.2" y="6.16" width="3.77" height="2.76" rx="0.53" ry="0.53"/><rect class="cls-11" x="30.2" y="6.16" width="3.77" height="2.76" rx="0.53" ry="0.53"/><rect class="cls-10" x="22.68" y="7.54" width="12.47" height="13.8" rx="1.53" ry="1.53"/><path class="cls-12" d="M28.58,6.92h.37a.31.31,0,0,1,.31.31v1.3a.31.31,0,0,1-.31.31h-.37a0,0,0,0,1,0,0V6.92A0,0,0,0,1,28.58,6.92Z" transform="translate(36.8 -21.04) rotate(90)"/><rect class="cls-11" x="7.14" y="6.04" width="2.6" height="15.83" rx="1.19" ry="1.19" transform="translate(16.88 27.92) rotate(180)"/><rect class="cls-14" x="7.5" y="4.28" width="2.6" height="18.95" rx="1.3" ry="1.3" transform="translate(17.59 27.5) rotate(180)"/><path class="cls-15" d="M8.39,5.39h.82a.89.89,0,0,1,.89.89v0a.14.14,0,0,1-.14.14H7.64a.14.14,0,0,1-.14-.14v0a.89.89,0,0,1,.89-.89Z"/><rect class="cls-15" x="7.5" y="7.69" width="2.6" height="1.03" rx="0.14" ry="0.14"/><rect class="cls-15" x="7.5" y="9.98" width="2.6" height="1.03" rx="0.14" ry="0.14"/><rect class="cls-15" x="7.5" y="12.27" width="2.6" height="1.03" rx="0.14" ry="0.14"/><rect class="cls-15" x="7.5" y="14.56" width="2.6" height="1.03" rx="0.14" ry="0.14"/><rect class="cls-15" x="7.5" y="16.86" width="2.6" height="1.03" rx="0.14" ry="0.14"/><rect class="cls-15" x="7.5" y="19.15" width="2.6" height="1.03" rx="0.14" ry="0.14"/><path class="cls-15" d="M7.64,21.44H10a.14.14,0,0,1,.14.14v0a.89.89,0,0,1-.89.89H8.39a.89.89,0,0,1-.89-.89v0A.14.14,0,0,1,7.64,21.44Z"/><rect class="cls-13" x="22.62" y="8.92" width="12.49" height="10.29"/><path class="cls-12" d="M22.62,16.41h.59a.36.36,0,0,1,.36.36v1.37a.36.36,0,0,1-.36.36h-.59a0,0,0,0,1,0,0v-2.1A0,0,0,0,1,22.62,16.41Z"/><path class="cls-12" d="M22.62,13h.59a.36.36,0,0,1,.36.36v1.37a.36.36,0,0,1-.36.36h-.59a0,0,0,0,1,0,0V13A0,0,0,0,1,22.62,13Z"/><path class="cls-12" d="M22.62,9.64h.59a.36.36,0,0,1,.36.36v1.37a.36.36,0,0,1-.36.36h-.59a0,0,0,0,1,0,0V9.64A0,0,0,0,1,22.62,9.64Z"/><path class="cls-12" d="M34.16,11.33h.59a.36.36,0,0,1,.36.36v1.37a.36.36,0,0,1-.36.36h-.59a0,0,0,0,1,0,0v-2.1A0,0,0,0,1,34.16,11.33Z" transform="translate(69.26 24.75) rotate(180)"/><path class="cls-12" d="M34.16,14.71h.59a.36.36,0,0,1,.36.36v1.37a.36.36,0,0,1-.36.36h-.59a0,0,0,0,1,0,0v-2.1A0,0,0,0,1,34.16,14.71Z" transform="translate(69.26 31.52) rotate(180)"/><rect class="cls-11" x="22.68" y="7.54" width="12.47" height="13.8" rx="1.53" ry="1.53"/><rect class="cls-11" x="35.49" y="5.63" width="2.6" height="15.83" rx="1.19" ry="1.19"/><rect class="cls-14" x="35.13" y="4.28" width="2.6" height="18.95" rx="1.3" ry="1.3"/><path class="cls-15" d="M36,21.08h.82a.89.89,0,0,1,.89.89v0a.14.14,0,0,1-.14.14H35.27a.14.14,0,0,1-.14-.14v0a.89.89,0,0,1,.89-.89Z" transform="translate(72.85 43.19) rotate(180)"/><rect class="cls-15" x="35.13" y="18.79" width="2.6" height="1.03" rx="0.14" ry="0.14" transform="translate(72.85 38.61) rotate(180)"/><rect class="cls-15" x="35.13" y="16.5" width="2.6" height="1.03" rx="0.14" ry="0.14" transform="translate(72.85 34.03) rotate(180)"/><rect class="cls-15" x="35.13" y="14.21" width="2.6" height="1.03" rx="0.14" ry="0.14" transform="translate(72.85 29.44) rotate(180)"/><rect class="cls-15" x="35.13" y="11.91" width="2.6" height="1.03" rx="0.14" ry="0.14" transform="translate(72.85 24.86) rotate(180)"/><rect class="cls-15" x="35.13" y="9.62" width="2.6" height="1.03" rx="0.14" ry="0.14" transform="translate(72.85 20.27) rotate(180)"/><rect class="cls-15" x="35.13" y="7.33" width="2.6" height="1.03" rx="0.14" ry="0.14" transform="translate(72.85 15.69) rotate(180)"/><path class="cls-15" d="M35.27,5h2.32a.14.14,0,0,1,.14.14v0a.89.89,0,0,1-.89.89H36a.89.89,0,0,1-.89-.89v0A.14.14,0,0,1,35.27,5Z" transform="translate(72.85 11.1) rotate(180)"/></g></g></svg>