<svg xmlns="http://www.w3.org/2000/svg" xmlns:xlink="http://www.w3.org/1999/xlink" viewBox="0 0 45.11 55"><defs><style>.cls-1,.cls-3{opacity:0.5;}.cls-1,.cls-3,.cls-6{isolation:isolate;}.cls-1{fill:url(#무제_그라디언트_8);}.cls-2{fill:#c9bf8b;}.cls-3{fill:url(#무제_그라디언트_8-2);}.cls-4{fill:#d3924a;}.cls-5{fill:#ffcb83;}.cls-10,.cls-6{fill:#fff;}.cls-6{opacity:0.3;}.cls-7{fill:#f7ec9f;}.cls-8{fill:#ffb255;}.cls-9{fill:url(#무제_그라디언트_5);}.cls-11{fill:#48cc7e;}</style><linearGradient id="무제_그라디언트_8" x1="-93.5" y1="1956.96" x2="-93.5" y2="1911.96" gradientTransform="translate(116 -1902.96)" gradientUnits="userSpaceOnUse"><stop offset="0" stop-opacity="0.5"/><stop offset="0.09" stop-opacity="0.46"/><stop offset="1" stop-opacity="0"/></linearGradient><linearGradient id="무제_그라디언트_8-2" y1="1958.56" y2="1913.99" xlink:href="#무제_그라디언트_8"/><linearGradient id="무제_그라디언트_5" x1="-93.39" y1="-999.46" x2="-93.39" y2="-1031.76" gradientTransform="matrix(1, 0, 0, -1, 116, -998.88)" gradientUnits="userSpaceOnUse"><stop offset="0" stop-color="#fff" stop-opacity="0.5"/><stop offset="0.5" stop-color="#fff" stop-opacity="0"/><stop offset="1" stop-color="#fff" stop-opacity="0"/></linearGradient></defs><title>SPEAKER_OFF</title><g id="레이어_2" data-name="레이어 2"><g id="레이어_1-2" data-name="레이어 1"><path class="cls-1" d="M45,46.5A7.52,7.52,0,0,1,37.5,54H7.5A7.52,7.52,0,0,1,0,46.5v-30A7.53,7.53,0,0,1,7.5,9h30A7.52,7.52,0,0,1,45,16.5Z"/><path class="cls-2" d="M45,45.5A7.52,7.52,0,0,1,37.5,53H7.5A7.52,7.52,0,0,1,0,45.5v-30A7.53,7.53,0,0,1,7.5,8h30A7.52,7.52,0,0,1,45,15.5Z"/><path class="cls-3" d="M45,47.5A7.52,7.52,0,0,1,37.5,55H7.5A7.52,7.52,0,0,1,0,47.5v-30A7.53,7.53,0,0,1,7.5,10h30A7.52,7.52,0,0,1,45,17.5Z"/><path class="cls-4" d="M45.11,45.5a7.52,7.52,0,0,1-7.5,7.5h-30a7.52,7.52,0,0,1-7.5-7.5v-30A7.53,7.53,0,0,1,7.61,8h30a7.52,7.52,0,0,1,7.5,7.5Z"/><path class="cls-4" d="M45.11,35.5a7.52,7.52,0,0,1-7.5,7.5h-30a7.52,7.52,0,0,1-7.5-7.5V7.5A7.53,7.53,0,0,1,7.61,0h30a7.52,7.52,0,0,1,7.5,7.5Z"/><path class="cls-5" d="M37.61.5h-30a7,7,0,0,0-7,7v30a7,7,0,0,0,7,7h30a7,7,0,0,0,7-7V7.5A7,7,0,0,0,37.61.5Zm6.5,37a6.51,6.51,0,0,1-6.5,6.5h-30a6.51,6.51,0,0,1-6.5-6.5V7.5A6.51,6.51,0,0,1,7.61,1h30a6.51,6.51,0,0,1,6.5,6.5Z"/><path class="cls-6" d="M37.61.5h-30a7,7,0,0,0-7,7v30a7,7,0,0,0,7,7h30a7,7,0,0,0,7-7V7.5A7,7,0,0,0,37.61.5Zm6.5,37a6.51,6.51,0,0,1-6.5,6.5h-30a6.51,6.51,0,0,1-6.5-6.5V7.5A6.51,6.51,0,0,1,7.61,1h30a6.51,6.51,0,0,1,6.5,6.5Z"/><path class="cls-7" d="M37.61,1h-30a6.51,6.51,0,0,0-6.5,6.5v30A6.51,6.51,0,0,0,7.61,44h30a6.51,6.51,0,0,0,6.5-6.5V7.5A6.51,6.51,0,0,0,37.61,1Z"/><path class="cls-8" d="M37.61,1h-30a6.51,6.51,0,0,0-6.5,6.5v30A6.51,6.51,0,0,0,7.61,44h30a6.51,6.51,0,0,0,6.5-6.5V7.5A6.51,6.51,0,0,0,37.61,1Z"/><path class="cls-9" d="M1.11,37.5A6.51,6.51,0,0,0,7.61,44h30a6.51,6.51,0,0,0,6.5-6.5V7.5A6.51,6.51,0,0,0,37.61,1h-30a6.51,6.51,0,0,0-6.5,6.5"/><path class="cls-10" d="M44.11,7.55a6.51,6.51,0,0,0-6.5-6.5h-30a6.51,6.51,0,0,0-6.5,6.5v18.9h43Z"/><path class="cls-10" d="M8.09,37.07c-.41,1.43-2.67,1.92-4,1.21a2.16,2.16,0,0,1-.9-1,.62.62,0,0,1,.32-.88.7.7,0,0,1,.8.32,1.59,1.59,0,0,0,.72.63c.83.29,1.79-.15,1.79-.88s-.36-.77-.9-.9a8.9,8.9,0,0,1-1.84-.34,1.81,1.81,0,0,1-.38-2.92A2.62,2.62,0,0,1,5.4,31.8a3.24,3.24,0,0,1,2,.54c.33.25.76.9.28,1.19s-.73-.15-1-.34a2.08,2.08,0,0,0-1.35-.28c-.55.06-1,.36-1,.93,0,.41.47.54.84.59A6.93,6.93,0,0,1,7,34.7a1.81,1.81,0,0,1,1.13,1.11A2.35,2.35,0,0,1,8.09,37.07Z"/><path class="cls-10" d="M13.9,34.15a1.53,1.53,0,0,1-1,1.36,4.49,4.49,0,0,1-1.57.33l-.66,0h-.26v2c0,.24,0,.52-.29.67a.94.94,0,0,1-.53,0,.42.42,0,0,1-.37-.25,1.08,1.08,0,0,1-.11-.47V32.6a1.6,1.6,0,0,1,0-.23c0-.07,0-.15.06-.21a.44.44,0,0,1,.1-.16.66.66,0,0,1,.45-.12h0a8.86,8.86,0,0,1,1.25,0l.47,0L12,32l.35.05a1.16,1.16,0,0,1,.33.11,1.42,1.42,0,0,1,.33.14l.28.19A2.16,2.16,0,0,1,13.9,34.15Zm-2.47-1.1-.74,0h-.27c0,.39,0,.73,0,1.15,0,.23,0,.46,0,.68H11c.61,0,1.59-.11,1.66-.82S12.05,33.13,11.43,33.05Z"/><path class="cls-10" d="M16,33l0,1.5H18.2a1.42,1.42,0,0,1,.42.08.66.66,0,0,1,.27.17A.44.44,0,0,1,19,35a.86.86,0,0,1,0,.22.31.31,0,0,1-.13.19.38.38,0,0,1-.18.09l-.24,0a1.24,1.24,0,0,1-.27,0H15.94l0,1.86,1.9,0h.71l.26,0a.57.57,0,0,1,.19.1.47.47,0,0,1,.12.2.7.7,0,0,1,0,.21.44.44,0,0,1-.1.28.54.54,0,0,1-.26.17,1.27,1.27,0,0,1-.44.08l-.44,0H15.34a.65.65,0,0,1-.37-.07.44.44,0,0,1-.16-.19.07.07,0,0,1,0-.05l0-.06a.71.71,0,0,1,0-.2l0-.19v-.15s0-.11,0-.15V36.8l0-1.37V34.16c0-.45,0-.77,0-1.19v0c0-.14,0-.26,0-.38a.88.88,0,0,1,.1-.37.46.46,0,0,1,.2-.23.5.5,0,0,1,.29-.09h1.13c.5,0,.94,0,1.42,0h0l.44,0a1.27,1.27,0,0,1,.42.09.44.44,0,0,1,.26.16.43.43,0,0,1,.09.26.65.65,0,0,1,0,.21.33.33,0,0,1-.11.2,1.09,1.09,0,0,1-.19.1l-.23,0a1.32,1.32,0,0,1-.28,0H16Z"/><path class="cls-10" d="M25.78,38.15a.31.31,0,0,1-.07.21.46.46,0,0,1-.19.17.73.73,0,0,1-.5.09.68.68,0,0,1-.24-.12l-.05,0s0,0,0-.05a1.1,1.1,0,0,1-.14-.18L24.46,38a.46.46,0,0,1-.07-.14l-.05-.15-.2-.47H21.53l-.2.47s0,.1,0,.15a.84.84,0,0,1-.06.14l-.11.18a.63.63,0,0,1-.12.18s0,0,0,.05l-.05,0a.64.64,0,0,1-.23.12.75.75,0,0,1-.51-.09.53.53,0,0,1-.19-.17.31.31,0,0,1-.07-.21,1.5,1.5,0,0,1,0-.22.69.69,0,0,1,.05-.17l0-.09,2-4.87.05-.15c0-.08.07-.13.1-.22l.1-.22a1.49,1.49,0,0,1,.15-.2.48.48,0,0,1,.16-.12.94.94,0,0,1,.62,0,.83.83,0,0,1,.16.12c.05.06.09.13.14.2a.84.84,0,0,1,.1.22c0,.09.07.14.1.22l.06.15,2,4.87,0,.09a.69.69,0,0,1,.05.17A1.5,1.5,0,0,1,25.78,38.15ZM23.51,35.6,23,34.43a3.68,3.68,0,0,0-.15-.35l-.14.35c-.19.41-.36.81-.52,1.17L22,36h1.68Z"/><path class="cls-10" d="M31.15,38.17a.39.39,0,0,1-.17.23.57.57,0,0,1-.2.13.43.43,0,0,1-.25,0,.47.47,0,0,1-.2-.06l-.2-.14a1.08,1.08,0,0,1-.19-.17L29.78,38l-.12-.12L27.84,36l0,1.91V38a1,1,0,0,1,0,.17,1.42,1.42,0,0,1-.07.22.31.31,0,0,1-.12.17.44.44,0,0,1-.25.11.62.62,0,0,1-.5,0,.4.4,0,0,1-.17-.19l0-.05s0,0,0-.06a.41.41,0,0,1-.06-.19l0-.21a.81.81,0,0,1,0-.15,1,1,0,0,0,0-.17V35.45c0-.41,0-.85,0-1.32s0-.77,0-1.2v0c0-.14,0-.28,0-.4a.85.85,0,0,1,.09-.38.45.45,0,0,1,.2-.23.62.62,0,0,1,.3-.09l.25,0a.41.41,0,0,1,.23.11.31.31,0,0,1,.09.16.48.48,0,0,1,.07.22,1.79,1.79,0,0,1,0,.24v1.55a8,8,0,0,0,.59-.58c.34-.36.67-.7,1-1l0,0c.11-.09.21-.2.32-.28a.72.72,0,0,1,.35-.23.48.48,0,0,1,.31-.07.72.72,0,0,1,.3.11,1.36,1.36,0,0,1,.17.17.27.27,0,0,1,.09.2.68.68,0,0,1,0,.19c0,.05-.08.13-.13.19a1.06,1.06,0,0,1-.17.2l-.16.17-.12.12-1.78,1.82,1.07,1.09q.51.53,1,1l0,0a3.82,3.82,0,0,1,.27.32.94.94,0,0,1,.2.35A.34.34,0,0,1,31.15,38.17Z"/><path class="cls-10" d="M33.24,33l0,1.5h2.24a1.56,1.56,0,0,1,.43.08.62.62,0,0,1,.26.17.44.44,0,0,1,.1.28.86.86,0,0,1,0,.22.31.31,0,0,1-.13.19.34.34,0,0,1-.18.09l-.24,0a1.18,1.18,0,0,1-.27,0h-2.2l0,1.86,1.89,0h.71l.26,0a.57.57,0,0,1,.19.1.47.47,0,0,1,.12.2.7.7,0,0,1,0,.21.49.49,0,0,1-.09.28.62.62,0,0,1-.27.17,1.23,1.23,0,0,1-.44.08l-.44,0H32.6a.6.6,0,0,1-.36-.07.4.4,0,0,1-.17-.19s0,0,0-.05l0-.06a.71.71,0,0,1,0-.2l0-.19v-.15s0-.11,0-.15V36.8l0-1.37V34.16c0-.45,0-.77,0-1.19v0c0-.14,0-.26,0-.38a.88.88,0,0,1,.1-.37.46.46,0,0,1,.2-.23.53.53,0,0,1,.3-.09h1.12c.5,0,.94,0,1.42,0h0l.44,0a1.27,1.27,0,0,1,.42.09.44.44,0,0,1,.26.16.43.43,0,0,1,.09.26.65.65,0,0,1,0,.21.33.33,0,0,1-.11.2l-.18.1-.24,0a1.32,1.32,0,0,1-.28,0H33.24Z"/><path class="cls-10" d="M42,38.34a.43.43,0,0,1-.13.17l-.21.1a.57.57,0,0,1-.29,0,.5.5,0,0,1-.27-.11,1.88,1.88,0,0,1-.27-.3c0-.1-.14-.23-.21-.37l-1-2-.31,0c-.26,0-.49,0-.74,0h-.18V37.6c0,.1,0,.18,0,.29s0,.18,0,.26a.53.53,0,0,1-.26.4.63.63,0,0,1-.49.07.79.79,0,0,1-.23-.09.52.52,0,0,1-.12-.17.76.76,0,0,1-.06-.2.52.52,0,0,1,0-.18v-5.4a1.5,1.5,0,0,1,0-.22.58.58,0,0,1,.06-.21.32.32,0,0,1,.1-.17.69.69,0,0,1,.52-.13c.56,0,1.13,0,1.68,0a3.83,3.83,0,0,1,1.16.21l.32.13a1.35,1.35,0,0,1,.28.2A2.21,2.21,0,0,1,42,34a1.62,1.62,0,0,1-1,1.58l-.11,0,.88,1.75.08.16a1.45,1.45,0,0,1,.1.18,1.36,1.36,0,0,1,.1.21c0,.07,0,.16.05.21A.39.39,0,0,1,42,38.34Zm-2.35-3.57a.92.92,0,0,0,.92-.77c0-.63-.38-.93-1-1-.37,0-.84,0-1.23,0,0,.52,0,1,0,1.75Z"/><path class="cls-11" d="M24.37,13.77c0,2.72,0,5.44,0,8.15a1.51,1.51,0,0,1-1.68,1.56,1.69,1.69,0,0,1-1-.55c-1.2-1.2-2.4-2.4-3.6-3.62a.77.77,0,0,0-.6-.25c-.88,0-1.77,0-2.65,0A2.69,2.69,0,0,1,12,16.39c0-1.86,0-3.72,0-5.58a2.56,2.56,0,0,1,2.33-2.33c.94,0,1.89-.05,2.83,0A1.31,1.31,0,0,0,18.26,8Q20,6.23,21.76,4.49a1.49,1.49,0,0,1,2.41.33,1.93,1.93,0,0,1,.19.89C24.38,8.39,24.37,11.08,24.37,13.77ZM22.59,6.18l-.28.27C21.19,7.57,20.06,8.69,19,9.81a1.27,1.27,0,0,1-1,.41c-1.06,0-2.11,0-3.17,0a.93.93,0,0,0-1.06,1.06v5a.94.94,0,0,0,1.07,1.08c1,0,2.09,0,3.14,0a1.3,1.3,0,0,1,1,.42c1.11,1.13,2.23,2.24,3.35,3.36l.26.24Z"/><path class="cls-11" d="M33.25,13.79a7.22,7.22,0,0,1-5.71,7,1.06,1.06,0,0,1-1.16-.24.85.85,0,0,1,.36-1.38c.38-.14.78-.21,1.17-.34a5.34,5.34,0,0,0,3.43-6.18A5.24,5.24,0,0,0,27,8.47,1,1,0,0,1,26.25,8a.81.81,0,0,1,0-.87.87.87,0,0,1,.91-.39,7.27,7.27,0,0,1,5,3.38A7.38,7.38,0,0,1,33.25,13.79Z"/><path class="cls-11" d="M29.69,13.79a3.75,3.75,0,0,1-2.33,3.45.88.88,0,0,1-.66-1.64,1.88,1.88,0,0,0,1.2-1.83,1.9,1.9,0,0,0-1.2-1.86.86.86,0,0,1-.51-1.16.88.88,0,0,1,1.19-.46A3.78,3.78,0,0,1,29.69,13.79Z"/><polygon class="cls-11" points="13.74 9.64 13.74 17.89 18.17 17.89 23.02 22.55 23.02 5.58 19.33 8.68 17.46 9.7 13.74 9.64"/></g></g></svg>