<svg xmlns="http://www.w3.org/2000/svg" xmlns:xlink="http://www.w3.org/1999/xlink" viewBox="-5 -9 54 54"><defs><style>.cls-1{opacity:0.75;isolation:isolate;fill:url(#무제_그라디언트_4);}.cls-2{fill:#d3924a;}.cls-3{fill:#ffb255;}.cls-4{fill-opacity:0.2;}.cls-5{fill:#fff;}.cls-6{fill:#48cc7e;}</style><linearGradient id="무제_그라디언트_4" x1="-93" y1="2040.88" x2="-93" y2="2008.05" gradientTransform="translate(116 -1994.96)" gradientUnits="userSpaceOnUse"><stop offset="0" stop-color="#fff"/><stop offset="0.09" stop-color="#fff" stop-opacity="0.91"/><stop offset="1" stop-color="#fff" stop-opacity="0"/></linearGradient></defs><title>SPEAKER_ON</title><g id="레이어_2" data-name="레이어 2"><g id="레이어_1-2" data-name="레이어 1"><path class="cls-1" d="M8,46a8,8,0,0,1-8-8V8A8,8,0,0,1,8,0H38a8,8,0,0,1,8,8V38a8,8,0,0,1-8,8Z"/><path class="cls-1" d="M8,46a8,8,0,0,1-8-8V8A8,8,0,0,1,8,0H38a8,8,0,0,1,8,8V38a8,8,0,0,1-8,8Z"/><path class="cls-2" d="M45.5,38A7.55,7.55,0,0,1,38,45.5H8A7.55,7.55,0,0,1,.5,38V8A7.49,7.49,0,0,1,8,.5H38A7.55,7.55,0,0,1,45.5,8Z"/><path class="cls-3" d="M38,1H8A7,7,0,0,0,1,8V38a7,7,0,0,0,7,7H38a7,7,0,0,0,7-7V8A7,7,0,0,0,38,1Z"/><path class="cls-4" d="M38,1H8A7,7,0,0,0,1,8V38a7,7,0,0,0,7,7H38a7,7,0,0,0,7-7V8A7,7,0,0,0,38,1Zm5.5,37A5.55,5.55,0,0,1,38,43.5H8A5.55,5.55,0,0,1,2.5,38V8A5.55,5.55,0,0,1,8,2.5H38A5.55,5.55,0,0,1,43.5,8Z"/><path class="cls-5" d="M9.24,37.46c-.39,1.35-2.53,1.81-3.75,1.14a2,2,0,0,1-.85-.92.58.58,0,0,1,.3-.83.66.66,0,0,1,.76.3,1.48,1.48,0,0,0,.68.6c.79.27,1.7-.14,1.7-.83s-.34-.73-.86-.86a8.71,8.71,0,0,1-1.74-.31A1.73,1.73,0,0,1,5.12,33a2.46,2.46,0,0,1,1.57-.5,3,3,0,0,1,1.94.5c.3.25.72.86.26,1.14s-.69-.15-1-.33a2,2,0,0,0-1.27-.27c-.53.07-1,.34-.9.89,0,.38.44.51.79.55a7.86,7.86,0,0,1,1.6.26,1.72,1.72,0,0,1,1.07,1A2.13,2.13,0,0,1,9.24,37.46Z"/><path class="cls-5" d="M14.75,34.69A1.45,1.45,0,0,1,13.8,36a4.2,4.2,0,0,1-1.48.31l-.62,0h-.25V38.2c0,.23,0,.5-.28.63a.84.84,0,0,1-.5.06.4.4,0,0,1-.35-.25.92.92,0,0,1-.1-.44v-5a1.43,1.43,0,0,1,0-.23,1.46,1.46,0,0,1,.05-.2s0-.11.1-.14.17-.12.42-.12h0a9.66,9.66,0,0,1,1.19,0l.44,0,.43,0,.33.06a.94.94,0,0,1,.31.1,1.34,1.34,0,0,1,.32.13l.26.18A2.08,2.08,0,0,1,14.75,34.69Zm-2.34-1-.7,0h-.26c0,.37,0,.7,0,1.09,0,.22,0,.43,0,.64H12c.58,0,1.5-.1,1.57-.77S13,33.72,12.41,33.65Z"/><path class="cls-5" d="M16.72,33.58l0,1.42h2.12a1.77,1.77,0,0,1,.4.08.49.49,0,0,1,.25.16.38.38,0,0,1,.09.26.75.75,0,0,1,0,.21.26.26,0,0,1-.11.18.39.39,0,0,1-.17.09L19,36a1,1,0,0,1-.25,0H16.68l0,1.76,1.8,0h.67l.24,0a.39.39,0,0,1,.18.1.34.34,0,0,1,.12.18.66.66,0,0,1,0,.2.41.41,0,0,1-.09.26.45.45,0,0,1-.25.17,1.12,1.12,0,0,1-.42.08h-.46c-.47,0-1,0-1.46,0h-.89a.59.59,0,0,1-.35-.08.36.36,0,0,1-.15-.17.09.09,0,0,1,0,0l0-.06a.58.58,0,0,1,0-.18l0-.18V38s0-.1,0-.14v-.7l0-1.3V34.7c0-.43,0-.73,0-1.12v0c0-.12,0-.24,0-.36a.83.83,0,0,1,.1-.35.49.49,0,0,1,.18-.22.57.57,0,0,1,.28-.08h2.45l.42,0a1.29,1.29,0,0,1,.39.08.47.47,0,0,1,.25.16.4.4,0,0,1,.09.25.65.65,0,0,1,0,.2.38.38,0,0,1-.11.19l-.17.09-.23,0a1.14,1.14,0,0,1-.26,0h-2.2Z"/><path class="cls-5" d="M26,38.48a.36.36,0,0,1-.06.2.42.42,0,0,1-.19.15.65.65,0,0,1-.47.09.49.49,0,0,1-.23-.11l0-.05-.05,0a1.36,1.36,0,0,1-.12-.17l-.09-.18a.42.42,0,0,1-.07-.13c0-.05,0-.1,0-.14l-.19-.45H22l-.18.45s0,.09-.05.14l-.06.13-.1.18a1.36,1.36,0,0,1-.12.17l0,0-.05.05a.46.46,0,0,1-.22.11.67.67,0,0,1-.48-.09.39.39,0,0,1-.18-.15.3.3,0,0,1-.06-.2,1.41,1.41,0,0,1,0-.21.84.84,0,0,1,0-.17l0-.08,1.87-4.61.05-.14.09-.21a1.86,1.86,0,0,1,.1-.2.72.72,0,0,1,.14-.19.42.42,0,0,1,.15-.12,1,1,0,0,1,.58,0,.45.45,0,0,1,.16.12,1,1,0,0,1,.13.19.93.93,0,0,1,.1.2c0,.08.07.14.09.21l.06.14L25.91,38l0,.08s0,.11,0,.17A1.36,1.36,0,0,1,26,38.48Zm-2.15-2.42c-.16-.34-.32-.72-.5-1.11,0-.1-.1-.22-.14-.33a3.27,3.27,0,0,1-.14.33c-.18.39-.34.77-.49,1.11l-.17.4H24Z"/><path class="cls-5" d="M31.08,38.5a.37.37,0,0,1-.15.22.71.71,0,0,1-.2.12.35.35,0,0,1-.23,0,.42.42,0,0,1-.19-.06l-.19-.13a1.54,1.54,0,0,1-.18-.16,1.38,1.38,0,0,0-.15-.17l-.11-.12L28,36.43l0,1.81v.08a.9.9,0,0,1,0,.16l-.06.21a.4.4,0,0,1-.12.16.37.37,0,0,1-.23.1.61.61,0,0,1-.48,0,.36.36,0,0,1-.16-.18l0,0a.14.14,0,0,0,0-.06.49.49,0,0,1-.05-.18c0-.08,0-.13,0-.2a.76.76,0,0,1,0-.15.71.71,0,0,0,0-.15v-2c0-.39,0-.8,0-1.25s0-.72,0-1.14v0c0-.13,0-.27,0-.38a.86.86,0,0,1,.08-.36.45.45,0,0,1,.19-.22.89.89,0,0,1,.29-.09,1.6,1.6,0,0,1,.23,0,.34.34,0,0,1,.22.1.27.27,0,0,1,.09.15.35.35,0,0,1,.06.21,1.5,1.5,0,0,1,0,.22v1.47a7.23,7.23,0,0,0,.56-.55c.32-.33.64-.66,1-1l0,0,.3-.27a.8.8,0,0,1,.33-.22.51.51,0,0,1,.3-.06.61.61,0,0,1,.28.11,1.17,1.17,0,0,1,.16.15A.34.34,0,0,1,31,33a.39.39,0,0,1,0,.18.71.71,0,0,1-.12.18.74.74,0,0,1-.16.19c0,.06-.11.11-.15.16l-.12.12-1.68,1.72,1,1c.32.34.62.67.91,1l0,0a3.31,3.31,0,0,1,.25.3.73.73,0,0,1,.19.33A.26.26,0,0,1,31.08,38.5Z"/><path class="cls-5" d="M33.07,33.58l0,1.42h2.12a1.67,1.67,0,0,1,.4.08.57.57,0,0,1,.26.16.43.43,0,0,1,.09.26.75.75,0,0,1,0,.21.32.32,0,0,1-.12.18.34.34,0,0,1-.17.09l-.23,0a1.15,1.15,0,0,1-.26,0H33l0,1.76,1.79,0h.67l.25,0a.52.52,0,0,1,.18.1.32.32,0,0,1,.11.18.66.66,0,0,1,0,.2.36.36,0,0,1-.09.26.45.45,0,0,1-.25.17,1.11,1.11,0,0,1-.41.08h-.47c-.47,0-1,0-1.46,0h-.89a.56.56,0,0,1-.34-.08.33.33,0,0,1-.16-.17l0,0,0-.06a.58.58,0,0,1,0-.18,1.1,1.1,0,0,0,0-.18V38s0-.1,0-.14V34.7c0-.43,0-.73,0-1.12v0c0-.12,0-.24,0-.36a1,1,0,0,1,.1-.35.45.45,0,0,1,.19-.22.54.54,0,0,1,.28-.08h2.45l.41,0a1.35,1.35,0,0,1,.4.08.47.47,0,0,1,.25.16.46.46,0,0,1,.08.25.65.65,0,0,1,0,.2.32.32,0,0,1-.11.19l-.17.09-.22,0a1.14,1.14,0,0,1-.26,0H33.07Z"/><path class="cls-5" d="M41.41,38.65a.45.45,0,0,1-.13.17.93.93,0,0,1-.2.09.53.53,0,0,1-.28,0,.38.38,0,0,1-.25-.11,1.1,1.1,0,0,1-.25-.28,3.34,3.34,0,0,1-.2-.35l-1-1.9-.29,0c-.25,0-.46,0-.7,0h-.17V38c0,.09,0,.17,0,.27s0,.17,0,.25a.5.5,0,0,1-.25.38.59.59,0,0,1-.46.06.43.43,0,0,1-.22-.09.42.42,0,0,1-.11-.15.7.7,0,0,1-.06-.19.51.51,0,0,1,0-.17V33.21a1.5,1.5,0,0,1,0-.22.66.66,0,0,1,.06-.2.38.38,0,0,1,.09-.15.65.65,0,0,1,.5-.13c.53,0,1.07,0,1.59,0a3.5,3.5,0,0,1,1.1.2,2.52,2.52,0,0,1,.29.12,1.26,1.26,0,0,1,.27.19,2.09,2.09,0,0,1,.64,1.52,1.51,1.51,0,0,1-1,1.49l-.1,0,.83,1.66.08.15a1.31,1.31,0,0,1,.09.17c0,.06.06.13.1.2s0,.15,0,.2A.44.44,0,0,1,41.41,38.65Zm-2.24-3.37a.88.88,0,0,0,.88-.73c0-.6-.36-.88-.95-.91-.35,0-.79,0-1.16,0,0,.5,0,1,0,1.66Z"/><path class="cls-5" d="M43.51,9.26c.2-4.32-2-7-6.53-6.74H9C5.37,2.31,2.15,4.16,2.51,9.26v19h41Z"/><path class="cls-6" d="M24.76,16.06v8.15a1.52,1.52,0,0,1-1.69,1.56,1.67,1.67,0,0,1-1-.55c-1.2-1.2-2.41-2.4-3.6-3.61a.75.75,0,0,0-.6-.26c-.88,0-1.77,0-2.66,0a2.69,2.69,0,0,1-2.82-2.68c0-1.86,0-3.72,0-5.58a2.56,2.56,0,0,1,2.33-2.33c.94,0,1.89,0,2.83,0a1.31,1.31,0,0,0,1.09-.46q1.73-1.77,3.5-3.51a1.49,1.49,0,0,1,2.41.33,1.93,1.93,0,0,1,.19.89C24.77,10.68,24.76,13.37,24.76,16.06ZM23,8.47l-.29.27L19.34,12.1a1.27,1.27,0,0,1-1,.41c-1.06,0-2.11,0-3.17,0a.94.94,0,0,0-1.07,1.06v5A1,1,0,0,0,15.2,19.6h3.13a1.32,1.32,0,0,1,1,.42c1.11,1.13,2.23,2.24,3.35,3.36l.26.24Z"/><path class="cls-6" d="M33.64,16.08a7.22,7.22,0,0,1-5.71,7,1.06,1.06,0,0,1-1.16-.24.84.84,0,0,1,.36-1.38c.38-.13.78-.21,1.17-.34a5.33,5.33,0,0,0,3.42-6.18,5.22,5.22,0,0,0-4.32-4.17,1,1,0,0,1-.76-.52.81.81,0,0,1,0-.87A.86.86,0,0,1,27.59,9a7.23,7.23,0,0,1,5,3.38A7.39,7.39,0,0,1,33.64,16.08Z"/><path class="cls-6" d="M30.08,16.08a3.75,3.75,0,0,1-2.33,3.45.88.88,0,0,1-.66-1.64,1.87,1.87,0,0,0,1.2-1.82,1.89,1.89,0,0,0-1.2-1.86A.88.88,0,0,1,26.58,13a.87.87,0,0,1,1.19-.45A3.76,3.76,0,0,1,30.08,16.08Z"/><polygon class="cls-6" points="14.12 11.93 14.12 20.18 18.56 20.18 23.41 24.84 23.41 7.87 19.72 10.97 17.84 11.99 14.12 11.93"/></g></g></svg>